<?xml version="1.0" standalone="no"?>
<!DOCTYPE svg PUBLIC "-//W3C//DTD SVG 1.1//EN" "http://www.w3.org/Graphics/SVG/1.1/DTD/svg11.dtd">
<svg xmlns="http://www.w3.org/2000/svg">
<defs >
<font id="SourceCodePro" horiz-adv-x="600" ><font-face
    font-family="Source Code Pro Black"
    units-per-em="1000"
    panose-1="2 11 8 9 3 4 3 9 2 4"
    ascent="984"
    descent="-273"
    alphabetic="0" />
<glyph unicode=" " glyph-name="space" />
<glyph unicode="!" glyph-name="exclam" d="M240 264L268 522L292 670H456L426 522L344 264H240ZM248 -12Q210 -12 186 13T162 78Q162 103 170 124T194 162T232 188T280 198Q318 198 342 173T366 108Q366 83 358 62T334 24T296 -2T248 -12Z" />
<glyph unicode="&quot;" glyph-name="quotedbl" d="M119 295L131 534L156 684H335L299 534L215 295H119ZM398 295L410 534L435 684H614L578 534L494 295H398Z" />
<glyph unicode="#" glyph-name="numbersign" d="M250 0L306 183H202L145 0H54L112 183H40L64 274H141L180 397H97L121 488H209L260 650H349L298 488H399L448 650H538L489 488H570L545 397H461L424 274H513L489 183H396L341 0H250ZM333 274L371 397H270L231 274H333Z" />
<glyph unicode="$" glyph-name="dollar" d="M166 -110L197 42Q143 55 104 82T39 142L134 238Q164 203 197 182T278 161Q350 161 350 200Q350 217 327 231T259 266Q230 279 204 294T157 330T124 377T111 439Q111 521 163 565T303 617L326 745H430L405 609Q453 596
487 570T541 519L449 432Q419 464 389 477T321 491Q296 491 281 483T265 454Q265 433 290 418T357 384Q387 370 414 355T462 321T494 276T506 217Q506 174 490 142T447 87T381 51T298 35L270 -110H166Z" />
<glyph unicode="%" glyph-name="percent" d="M121 308Q65 308 28 343T-9 444Q-9 487 5 524T45 588T103 630T173 646Q229 646 266 611T303 510Q303 466 289 429T249 365T191 323T121 308ZM133 392Q156 392 175 423T194 508Q194 537 185 549T161 562Q138 562 119
531T100 446Q100 417 109 405T133 392ZM4 19L-60 97L162 268L206 218L4 19ZM378 367L334 417L534 616L598 538L378 367ZM368 -12Q312 -12 275 23T238 124Q238 167 252 204T292 268T350 310T420 326Q476 326 513 291T550 190Q550 146 536 109T496 45T438 3T368 -12ZM380
72Q403 72 422 103T441 188Q441 217 432 229T408 242Q385 242 366 211T347 126Q347 97 356 85T380 72Z" />
<glyph unicode="&amp;" glyph-name="ampersand" d="M188 -12Q97 -12 49 34T0 154Q0 190 11 219T40 271T82 313T133 348Q110 411 110 466Q110 506 124 541T164 604T229 646T314 662Q383 662 420 625T458 522Q458 482 445 451T409 395T358 350T301 313Q318 287 340
263T385 217Q409 249 426 285T460 362H600Q574 302 546 250T480 149Q506 135 531 127T576 114L514 -12Q479 -5 444 9T375 45Q292 -12 188 -12ZM242 470Q242 445 250 415Q286 438 310 464T334 525Q334 541 326 549T304 558Q278 558 260 535T242 470ZM216 108Q247
108 279 124Q226 175 188 238Q172 223 163 207T154 170Q154 143 170 126T216 108Z" />
<glyph unicode="&apos;" glyph-name="quotesingle" d="M258 295L270 534L295 684H474L438 534L354 295H258Z" />
<glyph unicode="(" glyph-name="parenleft" d="M295 -179Q235 -113 201 -19T167 187Q167 369 248 508T473 743L550 655Q482 604 435 550T357 437T313 316T299 187Q299 102 325 27T400 -110L295 -179Z" />
<glyph unicode=")" glyph-name="parenright" d="M114 -189L37 -101Q105 -50 152 4T230 117T274 238T288 367Q288 452 262 527T187 664L290 733Q350 667 385 573T420 367Q420 185 339 46T114 -189Z" />
<glyph unicode="*" glyph-name="asterisk" d="M142 90L83 140L200 290L72 364L110 434L258 392L306 554H388L372 390L528 432L550 356L388 282L454 126L380 82L286 222L142 90Z" />
<glyph unicode="+" glyph-name="plus" d="M242 92V274H67V386H242V568H358V386H533V274H358V92H242Z" />
<glyph unicode="," glyph-name="comma" d="M104 -206L88 -127Q152 -107 194 -74T250 8Q246 7 238 7Q204 7 178 32T152 100Q152 126 162 149T190 189T232 215T283 225Q329 225 357 192T385 97Q385 40 365 -9T307 -98T218 -165T104 -206Z" />
<glyph unicode="-" glyph-name="hyphen" d="M67 274V386H533V274H67Z" />
<glyph unicode="." glyph-name="period" d="M242 -12Q197 -12 170 18T142 94Q142 123 152 148T180 193T223 223T280 234Q325 234 352 204T380 128Q380 99 370 74T342 29T299 -1T242 -12Z" />
<glyph unicode="/" glyph-name="slash" d="M-18 -160L485 710H625L121 -160H-18Z" />
<glyph unicode="0" glyph-name="zero" d="M256 -12Q206 -12 166 5T96 56T50 136T34 242Q34 324 55 397T117 526T216 614T348 646Q397 646 438 628T508 577T554 497T570 392Q570 309 549 236T487 108T388 20T256 -12ZM270 110Q304 110 332 132T380 191T411 278T422
382Q422 451 400 487T334 524Q299 524 271 502T224 443T193 356T182 252Q182 183 204 147T270 110ZM292 246Q265 246 251 263T236 310Q236 348 257 376T314 404Q341 404 355 387T370 340Q370 302 349 274T292 246Z" />
<glyph unicode="1" glyph-name="one" d="M14 0L40 128H208L278 474H138L158 574Q224 583 268 596T352 634H470L368 128H508L482 0H14Z" />
<glyph unicode="2" glyph-name="two" d="M10 0L28 90Q98 147 158 196T263 289T333 373T358 454Q358 484 341 502T292 520Q266 520 239 504T178 454L102 546Q147 591 198 618T312 646Q358 646 395 634T459 598T500 543T514 470Q514 423 495 382T443 300T367 218T274
130Q303 133 337 133T398 134H514L488 0H10Z" />
<glyph unicode="3" glyph-name="three" d="M242 -12Q213 -12 182 -6T121 13T63 49T12 104L112 186Q138 151 173 134T242 116Q287 116 312 134T338 188Q338 207 332 221T308 246T260 261T184 266L206 378Q255 378 286 384T336 402T362 429T370 464Q370 490 352
505T298 520Q277 520 254 512T200 484L130 582Q181 618 229 632T328 646Q374 646 412 635T477 604T519 554T534 490Q534 460 527 435T504 390T460 353T394 322V318Q449 295 473 261T498 186Q498 137 479 100T425 38T344 1T242 -12Z" />
<glyph unicode="4" glyph-name="four" d="M282 0L310 146H2L24 258L356 634H552L479 268H552L528 146H455L426 0H282ZM186 268H334L352 360Q360 398 368 438T384 508H380Q359 479 337 449T292 392L186 268Z" />
<glyph unicode="5" glyph-name="five" d="M230 -12Q168 -12 108 13T0 104L100 186Q127 150 161 133T232 116Q254 116 275 122T311 142T336 173T346 216Q346 254 322 273T254 292Q240 292 228 292T204 288T178 280T144 264L86 312L164 634H546L520 500H276L248
400Q268 406 285 408T322 410Q361 410 395 399T454 367T493 315T508 242Q508 183 484 136T421 56T332 6T230 -12Z" />
<glyph unicode="6" glyph-name="six" d="M276 -12Q224 -12 183 4T112 51T66 124T50 218Q50 315 75 394T147 529T256 615T396 646Q431 646 460 638T512 616T552 587T580 556L480 472Q463 495 441 506T386 518Q330 518 284 477T214 347Q228 360 246 370T282 386T317
396T348 400Q385 400 417 391T474 361T512 309T526 234Q526 187 508 143T456 65T377 9T276 -12ZM284 106Q309 106 327 117T357 146T374 183T380 221Q380 255 361 273T304 292Q281 292 254 281T199 236Q198 228 198 220T198 202Q198 154 222 130T284 106Z" />
<glyph unicode="7" glyph-name="seven" d="M118 0Q136 82 159 152T214 282T286 396T379 500H94L120 634H592L572 534Q498 469 452 412T375 294T325 163T282 0H118Z" />
<glyph unicode="8" glyph-name="eight" d="M250 -12Q146 -12 91 29T36 140Q36 202 68 245T178 322V326Q149 355 131 387T112 460Q112 503 129 537T176 596T249 633T342 646Q382 646 418 637T480 610T522 565T538 502Q538 443 507 403T422 336V332Q455 309 478
276T502 188Q502 144 485 107T435 44T355 3T250 -12ZM344 375Q375 396 388 421T402 474Q402 502 384 518T330 534Q297 534 275 517T252 470Q252 441 279 418T344 375ZM262 100Q298 100 327 117T356 170Q356 201 328 222T244 274Q214 253 196 227T178 172Q178 136
202 118T262 100Z" />
<glyph unicode="9" glyph-name="nine" d="M296 342Q319 342 346 353T401 398Q402 406 402 414T402 432Q402 480 378 504T316 528Q290 528 272 517T243 488T226 451T220 413Q220 379 239 361T296 342ZM204 -12Q169 -12 140 -4T88 18T48 47T20 78L120 162Q137 139
159 128T214 116Q270 116 316 157T386 287Q372 274 354 264T318 248T283 238T252 234Q215 234 183 243T126 273T88 325T74 400Q74 446 92 490T144 569T223 625T324 646Q376 646 417 630T488 583T534 510T550 416Q550 318 525 239T453 105T344 19T204 -12Z" />
<glyph unicode=":" glyph-name="colon" d="M302 298Q257 298 230 328T202 404Q202 433 212 458T240 503T283 533T340 544Q385 544 412 514T440 438Q440 409 430 384T402 339T359 309T302 298ZM242 -12Q197 -12 170 18T142 94Q142 123 152 148T180 193T223 223T280
234Q325 234 352 204T380 128Q380 99 370 74T342 29T299 -1T242 -12Z" />
<glyph unicode=";" glyph-name="semicolon" d="M302 298Q257 298 230 328T202 404Q202 433 212 458T240 503T283 533T340 544Q385 544 412 514T440 438Q440 409 430 384T402 339T359 309T302 298ZM104 -206L88 -127Q152 -107 194 -74T250 8Q246 7 238 7Q204 7
178 32T152 100Q152 126 162 149T190 189T232 215T283 225Q329 225 357 192T385 97Q385 40 365 -9T307 -98T218 -165T104 -206Z" />
<glyph unicode="&lt;" glyph-name="less" d="M504 27L115 277V387L504 637V492L246 334V330L504 172V27Z" />
<glyph unicode="=" glyph-name="equal" d="M67 392V504H533V392H67ZM67 413V525H533V413H67Z" />
<glyph unicode="&gt;" glyph-name="greater" d="M96 27V172L354 330V334L96 492V637L485 387V277L96 27Z" />
<glyph unicode="?" glyph-name="question" d="M208 264Q209 300 220 328T248 377T285 415T324 444Q356 465 370 480T384 516Q384 537 372 545T342 554Q313 554 291 541T242 502L160 580Q201 630 250 656T372 682Q406 682 437 675T492 651T530 610T544 550Q544
515 534 490T506 443T465 405T414 368Q384 347 365 326T340 264H208ZM234 -12Q196 -12 172 13T148 78Q148 103 156 124T180 162T218 188T266 198Q304 198 328 173T352 108Q352 83 344 62T320 24T282 -2T234 -12Z" />
<glyph unicode="@" glyph-name="at" d="M282 -148Q228 -148 178 -129T91 -73T31 21T8 154Q8 274 39 366T123 520T245 614T388 646Q489 646 535 594T582 453Q582 439 580 423T574 390L516 100H433L432 148H428Q402 119 374 104T304 88Q282 88 263 95T228 117T205
151T196 196Q196 285 263 332T476 396Q482 423 482 440Q482 464 477 485T460 521T427 545T374 554Q331 554 287 529T206 455T146 334T122 166Q122 111 137 70T177 2T234 -38T301 -52Q335 -52 360 -42T412 -12L458 -94Q386 -148 282 -148ZM354 186Q391 186 428 214L448
312Q408 306 382 298T341 278T320 254T314 224Q314 206 325 196T354 186Z" />
<glyph unicode="A" glyph-name="A" d="M270 344L238 268H354L352 344Q350 391 350 436T348 530H344Q326 484 308 438T270 344ZM-50 0L276 650H468L530 0H362L358 148H188L126 0H-50Z" />
<glyph unicode="B" glyph-name="B" d="M20 0L150 650H346Q395 650 436 642T508 615T555 569T572 500Q572 447 536 403T432 338L430 334Q540 307 540 216Q540 157 517 116T454 50T363 12T254 0H20ZM258 390H300Q359 390 383 412T408 472Q408 528 320 528H286L258
390ZM204 122H266Q326 122 356 145T386 210Q386 282 298 282H236L204 122Z" />
<glyph unicode="C" glyph-name="C" d="M320 -12Q263 -12 216 6T136 60T85 146T66 264Q66 351 93 424T169 550T280 632T416 662Q473 662 519 635T594 556L486 472Q451 524 408 524Q373 524 341 505T284 452T245 372T230 274Q230 203 259 165T354 126Q380 126 405
139T454 172L520 70Q506 57 486 43T441 16T385 -4T320 -12Z" />
<glyph unicode="D" glyph-name="D" d="M8 0L138 650H290Q419 650 493 588T568 394Q568 295 541 221T468 98T358 25T222 0H8ZM194 128H218Q255 128 288 141T347 185T388 264T404 384Q404 422 395 448T370 491T333 515T286 522H272L194 128Z" />
<glyph unicode="E" glyph-name="E" d="M30 0L160 650H594L568 516H292L270 402H500L474 268H244L216 134H500L474 0H30Z" />
<glyph unicode="F" glyph-name="F" d="M46 0L176 650H606L580 516H308L282 382H508L482 248H256L206 0H46Z" />
<glyph unicode="G" glyph-name="G" d="M292 -12Q175 -12 108 59T40 264Q40 351 67 424T141 550T251 632T388 662Q453 662 500 635T576 556L468 472Q450 499 430 511T380 524Q344 524 312 505T256 452T218 372T204 274Q204 203 230 164T320 124Q334 124 349 128T376
140L400 248H304L328 378H564L502 56Q464 27 410 8T292 -12Z" />
<glyph unicode="H" glyph-name="H" d="M-2 0L128 650H288L238 406H398L446 650H606L476 0H316L370 266H210L158 0H-2Z" />
<glyph unicode="I" glyph-name="I" d="M8 0L36 134H184L262 516H112L140 650H598L570 516H422L344 134H494L466 0H8Z" />
<glyph unicode="J" glyph-name="J" d="M228 -12Q185 -12 151 -3T90 22T41 59T2 104L104 200Q127 170 156 148T228 126Q279 126 304 154T344 248L398 516H148L174 650H582L494 212Q484 163 464 122T410 51T332 5T228 -12Z" />
<glyph unicode="K" glyph-name="K" d="M648 650L396 382L538 0H356L277 256L196 170L162 0H4L134 650H293L238 382H242L474 650H648Z" />
<glyph unicode="L" glyph-name="L" d="M52 0L182 650H342L238 134H518L492 0H52Z" />
<glyph unicode="M" glyph-name="M" d="M-6 0L124 650H288L300 438L302 338H306L342 434L448 650H612L482 0H346L384 188Q389 214 400 255T423 341T448 427T468 496H464L381 312L316 174H228L218 296L209 496H205Q202 462 198 422T189 343T179 269T170 212L126 0H-6Z" />
<glyph unicode="N" glyph-name="N" d="M6 0L136 650H296L353 340L374 196H378Q380 222 383 256T390 325T398 390T405 438L447 650H598L468 0H312L249 310L228 454H224Q222 427 219 393T213 325T205 258T196 202L157 0H6Z" />
<glyph unicode="O" glyph-name="O" d="M250 -12Q199 -12 158 6T87 58T42 143T26 256Q26 342 50 416T119 545T225 631T358 662Q409 662 450 644T520 591T564 507T580 394Q580 308 556 234T487 105T383 19T250 -12ZM266 126Q298 126 325 147T373 206T404 296T416
410Q416 470 398 497T342 524Q310 524 282 503T234 444T202 354T190 240Q190 180 208 153T266 126Z" />
<glyph unicode="P" glyph-name="P" d="M20 0L150 650H360Q408 650 450 641T524 610T574 555T593 472Q593 401 568 352T501 271T404 226T289 212H223L180 0H20ZM248 338H300Q363 338 397 366T432 448Q432 524 335 524H284L248 338Z" />
<glyph unicode="Q" glyph-name="Q" d="M268 118Q299 118 326 139T373 198T404 291T416 410Q416 470 398 497T342 524Q310 524 282 503T234 444T202 354T190 240Q190 174 208 146T268 118ZM410 -188Q326 -188 265 -142T170 1Q103 26 65 91T26 256Q26 342 50 416T119
545T225 631T358 662Q409 662 450 644T520 591T564 507T580 394Q580 320 562 255T511 139T432 51T331 -1Q345 -32 370 -46T429 -60Q455 -60 474 -56T507 -47L531 -168Q515 -176 484 -182T410 -188Z" />
<glyph unicode="R" glyph-name="R" d="M8 0L138 650H346Q395 650 437 641T512 610T562 555T581 471Q581 427 569 392T535 329T484 281T422 248L524 0H347L269 224H212L168 0H8ZM238 350H285Q350 350 384 378T419 454Q419 524 327 524H272L238 350Z" />
<glyph unicode="S" glyph-name="S" d="M269 -12Q223 -12 185 -2T116 25T60 67T19 119L122 210Q149 168 185 147T264 125Q302 125 325 138T348 178Q348 203 329 219T275 255L220 288Q175 315 143 358T110 467Q110 512 128 548T177 610T250 648T340 662Q412 662
471 630T565 549L464 462Q441 488 411 507T340 527Q314 527 295 516T275 478Q275 458 290 443T331 412L398 368Q422 352 443 335T479 297T503 250T512 190Q512 140 493 103T441 40T364 1T269 -12Z" />
<glyph unicode="T" glyph-name="T" d="M158 0L260 516H70L96 650H636L610 516H420L318 0H158Z" />
<glyph unicode="U" glyph-name="U" d="M247 -12Q196 -12 159 3T97 46T60 112T48 196Q48 226 51 252T60 308L128 650H288L216 288Q212 268 208 248T204 208Q204 126 268 126Q289 126 305 132T334 156T357 202T376 276L450 650H606L530 268Q514 189 490 136T430
49T350 2T247 -12Z" />
<glyph unicode="V" glyph-name="V" d="M129 0L75 650H243L255 346Q257 295 258 244T259 140H263Q273 164 284 192T308 249T330 302T349 346L481 650H657L323 0H129Z" />
<glyph unicode="W" glyph-name="W" d="M14 0L72 651H224L172 315Q170 299 167 278T160 235T152 190T145 148H150Q164 190 180 233T212 315L285 486H381L387 315Q387 303 387 284T387 241T387 194T386 148H391Q399 186 409 230T430 316L511 651H663L465 0H291L297
193Q298 225 299 258T303 319H300Q292 290 281 258T259 193L192 0H14Z" />
<glyph unicode="X" glyph-name="X" d="M-41 0L207 344L91 651H266L300 537Q306 517 314 486T330 426H334Q350 453 366 485T395 537L467 651H640L400 318L526 0H352L311 126Q305 144 297 173T281 227H277Q262 201 246 173T216 124L133 0H-41Z" />
<glyph unicode="Y" glyph-name="Y" d="M157 0L197 200L80 651H246L275 491Q282 453 289 413T303 333H307Q329 372 350 412T394 491L485 651H653L354 184L315 0H157Z" />
<glyph unicode="Z" glyph-name="Z" d="M491 0H4L23 95L367 519H107L134 651H602L583 556L239 132H518L491 0Z" />
<glyph unicode="[" glyph-name="bracketleft" d="M102 -152L276 708H574L558 624H378L238 -68H416L400 -152H102Z" />
<glyph unicode="\" glyph-name="backslash" d="M315 -160L159 710H284L440 -160H315Z" />
<glyph unicode="]" glyph-name="bracketright" d="M14 -152L30 -68H210L350 624H172L188 708H486L312 -152H14Z" />
<glyph unicode="^" glyph-name="asciicircum" d="M80 272L236 670H364L520 272H388L347 390L302 526H298L253 390L212 272H80Z" />
<glyph unicode="_" glyph-name="underscore" d="M-34 -168L-10 -50H470L446 -168H-34Z" />
<glyph unicode="`" glyph-name="grave" d="M386 569L224 742L360 844L484 645L386 569Z" />
<glyph unicode="a" glyph-name="a" d="M189 -12Q114 -12 71 38T28 182Q28 251 50 311T109 416T194 486T294 512Q342 512 375 496T426 450H430L452 500H580L480 0H350V66H346Q311 28 270 8T189 -12ZM250 118Q274 118 303 134T358 188L391 344Q380 364 360 373T324
382Q298 382 275 369T233 332T205 275T194 202Q194 157 209 138T250 118Z" />
<glyph unicode="b" glyph-name="b" d="M294 -12Q253 -12 218 4T164 50H162L140 0H8L148 696H308L278 550L248 444H250Q282 477 322 494T398 512Q476 512 518 462T560 318Q560 249 538 189T479 84T394 14T294 -12ZM270 118Q294 118 316 131T355 168T383 225T394
298Q394 343 377 362T334 382Q310 382 283 365T230 306L200 156Q211 136 230 127T270 118Z" />
<glyph unicode="c" glyph-name="c" d="M300 -12Q251 -12 207 1T130 42T78 110T58 206Q58 275 82 331T149 428T246 490T364 512Q398 512 427 504T481 483T525 454T558 420L462 332Q438 358 411 370T354 382Q328 382 304 370T262 336T232 284T220 220Q220 194 228
175T251 143T285 124T324 118Q359 118 385 133T438 170L493 62Q456 27 408 8T300 -12Z" />
<glyph unicode="d" glyph-name="d" d="M188 -12Q114 -12 71 38T28 182Q28 251 50 311T109 416T194 486T294 512Q342 512 372 497T420 456H422L432 550L460 696H620L480 0H350V66H346Q311 28 270 8T188 -12ZM250 118Q274 118 303 134T358 188L390 344Q379 364 360
373T324 382Q298 382 275 369T233 332T205 275T194 202Q194 158 209 138T250 118Z" />
<glyph unicode="e" glyph-name="e" d="M266 -12Q218 -12 177 1T105 41T58 111T40 212Q40 279 64 334T128 429T221 490T332 512Q381 512 420 498T485 457T526 395T540 314Q540 281 534 250T522 204H201Q203 176 212 158T235 129T267 114T304 110Q345 110 378 123T446
158L498 52Q451 20 393 4T266 -12ZM328 390Q300 390 268 370T216 304H393Q394 307 394 310T394 317Q394 354 376 372T328 390Z" />
<glyph unicode="f" glyph-name="f" d="M134 0L209 376H78L102 494L234 500L236 508Q256 606 315 657T478 708Q538 708 579 691T644 656L574 556Q554 570 535 576T486 582Q451 582 427 566T394 508L392 500H554L530 376H368L294 0H134Z" />
<glyph unicode="g" glyph-name="g" d="M209 -188Q138 -188 87 -169T-2 -121L66 -10Q94 -34 130 -48T205 -62Q224 -62 243 -60T279 -51T310 -28T332 14L352 78H348Q321 52 282 36T204 20Q125 20 81 71T36 206Q36 273 58 329T116 426T198 489T294 512Q342 512 375
496T426 450H430L454 500H580L484 22Q472 -39 445 -79T382 -144T301 -178T209 -188ZM262 150Q315 150 360 200L390 342Q362 382 321 382Q302 382 281 372T243 343T214 295T202 230Q202 188 217 169T262 150Z" />
<glyph unicode="h" glyph-name="h" d="M8 0L148 696H308L270 512L244 424H248Q283 462 328 487T420 512Q482 512 516 480T550 382Q550 348 542 310L480 0H320L378 290Q381 304 383 315T385 335Q385 376 344 376Q319 376 287 357T226 298L168 0H8Z" />
<glyph unicode="i" glyph-name="i" d="M340 -12Q263 -12 218 28T172 138Q172 153 174 168T182 200L228 376H70L96 500H414L340 194Q338 188 337 182T336 170Q336 142 351 130T390 118Q407 118 423 122T462 136L494 16Q461 2 425 -5T340 -12ZM601 570Q582 570 565
575T534 591T512 618T503 657Q503 678 511 697T535 730T570 753T615 762Q658 762 686 740T714 675Q714 652 705 633T681 600T646 578T601 570Z" />
<glyph unicode="j" glyph-name="j" d="M145 -188Q85 -188 43 -173T-26 -140L38 -28Q60 -43 82 -52T134 -62Q178 -62 203 -36T242 56L306 376H110L136 500H490L398 42Q375 -70 315 -129T145 -188ZM422 570Q403 570 386 575T355 591T333 618T324 657Q324 678 332
697T356 730T391 753T436 762Q479 762 507 740T535 675Q535 652 526 633T502 600T467 578T422 570Z" />
<glyph unicode="k" glyph-name="k" d="M10 0L150 696H310L232 316H236L434 500H618L395 292L530 0H368L286 195L192 114L170 0H10Z" />
<glyph unicode="l" glyph-name="l" d="M326 -12Q291 -12 262 -1T211 32T178 84T166 154Q166 169 167 185T174 220L256 572H122L148 696H440L328 198Q326 192 325 184T324 164Q324 140 339 129T376 118Q398 118 414 122T454 138L486 20Q445 2 408 -5T326 -12Z" />
<glyph unicode="m" glyph-name="m" d="M-28 0L70 500H184V436H188Q208 465 241 488T320 512Q379 512 388 444Q437 512 516 512Q552 512 573 489T594 422Q594 408 593 397T588 372L512 0H366L436 340Q438 348 438 351T438 358Q438 369 434 372T422 376Q397 376
374 335L305 0H181L252 340Q254 348 254 351T254 358Q254 369 249 372T236 376Q222 376 210 367T184 334L120 0H-28Z" />
<glyph unicode="n" glyph-name="n" d="M8 0L106 500H235L232 420H236Q253 437 275 453T321 483T370 504T420 512Q482 512 516 480T550 382Q550 348 542 310L480 0H320L378 290Q381 304 383 315T385 335Q385 376 344 376Q319 376 287 357T226 298L168 0H8Z" />
<glyph unicode="o" glyph-name="o" d="M256 -12Q203 -12 162 4T91 49T46 119T30 212Q30 280 54 335T119 430T213 490T322 512Q374 512 416 496T487 451T532 381T548 288Q548 220 524 165T459 70T365 10T256 -12ZM268 118Q290 118 311 130T349 163T376 215T386
284Q386 332 366 357T310 382Q287 382 266 370T229 337T202 284T192 216Q192 168 212 143T268 118Z" />
<glyph unicode="p" glyph-name="p" d="M-28 -176L108 500H238L239 432H242Q278 470 316 491T400 512Q475 512 517 462T560 318Q560 249 541 189T487 84T403 14T294 -12Q256 -12 223 2T170 42H168L156 -52L132 -176H-28ZM276 118Q300 118 321 131T358 168T384 225T394
298Q394 343 377 362T334 382Q310 382 284 365T232 306L200 156Q211 136 233 127T276 118Z" />
<glyph unicode="q" glyph-name="q" d="M286 -176L313 -48Q317 -31 325 -2T350 66H346Q311 28 269 8T188 -12Q114 -12 71 38T28 182Q28 251 50 311T109 416T194 486T294 512Q342 512 375 496T426 450H430L454 500H580L444 -176H286ZM250 118Q274 118 303 134T358
188L390 344Q379 364 360 373T324 382Q298 382 275 369T233 332T205 275T194 202Q194 158 209 138T250 118Z" />
<glyph unicode="r" glyph-name="r" d="M64 0L162 501L292 500L280 370H284Q323 438 376 475T484 512Q517 512 542 507T582 492L526 354Q494 370 452 370Q405 370 356 327T266 206L224 0H64Z" />
<glyph unicode="s" glyph-name="s" d="M264 -12Q192 -12 133 13T32 80L119 180Q159 141 202 124T290 106Q348 106 348 134Q348 142 345 148T332 161T305 173T262 188Q187 212 146 248T104 344Q104 385 122 416T170 469T240 501T324 512Q398 512 449 489T536 430L449
337Q419 361 382 377T306 394Q283 394 269 387T254 364Q254 349 274 338T352 308Q385 297 412 283T458 251T487 210T498 156Q498 113 480 82T431 29T356 -2T264 -12Z" />
<glyph unicode="t" glyph-name="t" d="M310 -12Q217 -12 176 29T134 142Q134 157 135 172T142 208L176 376H50L74 494L208 500L262 650H392L360 500H560L536 376H334L300 216Q297 202 297 195T296 180Q296 145 314 132T360 118Q389 118 416 129T464 154L512 43Q478
20 424 4T310 -12Z" />
<glyph unicode="u" glyph-name="u" d="M162 -12Q100 -12 66 20T32 118Q32 152 40 190L102 500H262L204 210Q201 196 199 186T196 166Q196 145 207 135T238 124Q263 124 293 143T352 202L410 500H570L472 0H342L346 80H342Q325 63 304 47T259 17T211 -4T162 -12Z" />
<glyph unicode="v" glyph-name="v" d="M148 0L64 500H222L248 270Q253 232 255 194T261 116H265Q282 154 300 193T338 270L452 500H610L334 0H148Z" />
<glyph unicode="w" glyph-name="w" d="M21 0L48 500H200L175 277Q170 239 166 202T159 126H163Q174 164 187 202T215 277L271 426H379L378 277Q377 239 376 202T373 126H377Q389 164 398 201T419 277L480 500H626L458 0H281L288 154Q290 189 293 223T301 299H297Q292
279 288 262T279 228T268 193T255 152L205 0H21Z" />
<glyph unicode="x" glyph-name="x" d="M-23 0L198 259L85 500H245L279 422Q287 405 295 381T310 339H314Q318 347 324 358T338 381T351 404T363 422L417 500H594L380 247L503 0H339L304 78Q296 95 288 115T271 155H265Q250 134 236 114T209 77L154 0H-23Z" />
<glyph unicode="y" glyph-name="y" d="M48 -188Q19 -188 -8 -181T-50 -162L-6 -54Q6 -60 24 -65T58 -70Q96 -70 120 -57T160 -18L173 4L64 500H218L250 306Q256 268 261 223T270 146H274Q288 178 309 223T350 306L450 500H612L328 0Q272 -98 206 -143T48 -188Z" />
<glyph unicode="z" glyph-name="z" d="M18 0L36 94L330 378H94L120 500H560L542 406L250 124H496L472 0H18Z" />
<glyph unicode="{" glyph-name="braceleft" d="M280 -152Q219 -152 190 -126T160 -52Q160 -24 168 7T185 67T202 122T210 162Q210 175 206 187T189 209T153 225T90 232L110 324Q152 325 179 332T222 349T247 373T258 400Q263 423 265 441T268 478T272 516T280
562Q289 603 303 631T337 676T386 700T451 708H579L561 624H487Q455 624 435 610T407 556Q399 518 394 481T380 400Q368 340 343 313T276 276L275 272Q305 264 320 246T336 188Q336 165 329 137T314 79T299 22T292 -24Q292 -48 307 -58T350 -68H422L406 -152H280Z"
/>
<glyph unicode="|" glyph-name="bar" d="M230 -250V750H370V-250H230Z" />
<glyph unicode="}" glyph-name="braceright" d="M15 -152L33 -68H107Q139 -68 159 -54T187 0Q195 38 200 75T214 156Q226 216 251 243T318 280L319 284Q289 292 274 310T258 368Q258 390 265 419T280 477T295 534T302 580Q302 604 287 614T244 624H172L188 708H314Q375
708 404 682T434 608Q434 580 426 549T409 489T392 434T384 394Q384 381 388 369T405 347T441 331T504 324L484 232Q442 231 415 224T371 207T347 183T336 156Q331 133 329 115T325 78T321 40T314 -6Q305 -47 291 -75T257 -120T208 -144T143 -152H15Z" />
<glyph unicode="~" glyph-name="asciitilde" d="M384 237Q353 237 330 248T288 273T252 298T214 310Q171 310 142 230L46 274Q80 355 123 389T216 423Q247 423 270 412T312 387T348 362T386 350Q429 350 458 430L554 385Q520 305 477 271T384 237Z" />
<glyph unicode="&#xa0;" glyph-name="uni00A0" />
<glyph unicode="&#xa1;" glyph-name="exclamdown" d="M338 234L310 -24L286 -172H122L152 -24L234 234H338ZM330 510Q368 510 392 485T416 420Q416 395 408 374T384 336T346 310T298 300Q260 300 236 325T212 390Q212 415 220 436T244 474T282 500T330 510Z" />
<glyph unicode="&#xa2;" glyph-name="cent" d="M234 273Q234 210 275 188L325 426Q283 408 259 367T234 273ZM226 -52L247 49Q170 61 124 116T77 259Q77 325 98 378T156 469T243 531T353 562L372 656H457L438 561Q477 553 507 532T556 488L468 398Q455 410 443
420T412 435L360 182Q383 188 400 199T433 223L490 125Q458 96 418 77T333 50L312 -52H226Z" />
<glyph unicode="&#xa3;" glyph-name="sterling" d="M12 0L32 98Q89 122 128 166T173 270H64L82 358L167 364H168Q166 378 165 392T164 418Q164 471 181 513T229 585T302 630T396 646Q450 646 499 623T578 558L476 474Q459 495 439 506T396 518Q378 518 363 512T336
492T319 454T312 394Q312 387 312 380T314 364H472L453 270H316Q311 229 295 199T248 138L246 134H482L458 0H12Z" />
<glyph unicode="&#xa4;" glyph-name="currency" d="M78 63L1 142L92 219Q76 254 76 296Q76 336 91 372T132 439L66 516L165 598L235 511Q284 531 341 531Q398 531 440 509L539 592L611 504L514 427Q526 397 526 363Q526 321 511 284T467 216L534 134L438 55L366
148Q342 139 316 134T261 129Q210 129 170 146L78 63ZM283 240Q303 240 321 248T354 270T376 305T385 351Q385 385 367 404T320 424Q300 424 282 416T249 393T227 358T218 312Q218 279 236 260T283 240Z" />
<glyph unicode="&#xa5;" glyph-name="yen" d="M162 0L188 134H23L40 208H202L213 261H48L65 336H198L94 635H254L287 507Q295 474 302 437T315 365H319Q333 397 353 436T393 507L472 635H640L419 336H556L538 261H371L362 208H531L515 134H348L323 0H162Z" />
<glyph unicode="&#xa6;" glyph-name="brokenbar" d="M230 -250V190H370V-250H230ZM230 310V750H370V310H230Z" />
<glyph unicode="&#xa7;" glyph-name="section" d="M227 -81Q171 -81 118 -59T22 11L102 104Q127 78 158 58T227 37Q283 37 283 75Q283 86 275 95T254 114T223 132T188 152Q164 166 144 181T108 215T85 258T76 312Q76 362 104 399T178 459Q162 488 162 520Q162
557 175 588T213 643T271 679T348 692Q396 692 443 669T527 606L441 522Q422 542 400 557T348 572Q330 572 318 564T306 537Q306 519 327 505T389 464Q414 448 437 431T479 394T509 349T520 292Q520 238 493 200T419 135Q427 116 427 93Q427 53 413 21T372 -33T309
-68T227 -81ZM284 257Q299 248 317 238T352 214Q366 224 374 237T382 269Q382 296 360 315T306 352Q292 361 277 370T246 389Q232 381 222 368T212 335Q212 310 231 294T284 257Z" />
<glyph unicode="&#xa8;" glyph-name="dieresis" d="M248 566Q220 566 201 583T182 632Q182 648 188 663T206 689T232 707T266 714Q294 714 313 697T332 648Q332 613 308 590T248 566ZM468 566Q440 566 421 583T402 632Q402 648 408 663T426 689T452 707T486 714Q514
714 533 697T552 648Q552 613 528 590T468 566Z" />
<glyph unicode="&#xa9;" glyph-name="copyright" d="M234 -8Q185 -8 145 10T75 62T29 144T12 254Q12 346 40 420T118 548T232 629T372 656Q421 655 461 637T531 586T577 505T594 396Q594 305 568 231T493 103T379 21T234 -8ZM247 55Q305 55 356 80T444 151T503
257T525 389Q525 482 482 537T357 592Q299 592 249 568T161 499T103 394T81 261Q81 164 124 110T247 55ZM279 128Q214 128 178 169T142 280Q142 334 159 378T206 452T274 500T355 517Q397 517 423 500T466 456L398 397Q380 424 352 424Q329 424 311 413T281 382T263
338T256 286Q256 224 302 222Q321 221 336 229T366 248L406 174Q383 154 351 141T279 128Z" />
<glyph unicode="&#xaa;" glyph-name="ordfeminine" d="M264 360Q219 360 193 391T166 490Q166 540 181 580T221 648T280 691T350 706Q400 706 429 665H432L448 698H533L468 368H378L376 402H373Q353 385 326 373T264 360ZM322 449Q353 449 379 475L402 597Q394
605 384 610T356 616Q329 616 305 587T281 503Q281 474 292 462T322 449Z" />
<glyph unicode="&#xab;" glyph-name="guillemotleft" d="M169 20L31 193L54 321L262 484L317 421L173 244L248 79L169 20ZM448 20L310 193L333 321L541 484L596 421L452 244L527 79L448 20Z" />
<glyph unicode="&#xac;" glyph-name="logicalnot" d="M417 92V274H67V386H533V92H417Z" />
<glyph unicode="&#xad;" glyph-name="uni00AD" d="M67 274V386H533V274H67Z" />
<glyph unicode="&#xae;" glyph-name="registered" d="M307 310Q271 310 241 322T189 357T155 409T143 477Q143 528 161 571T212 647T290 697T388 716Q424 716 454 704T506 669T540 616T552 548Q552 497 534 454T484 378T407 328T307 310ZM317 360Q354 360 386
373T442 411T480 469T494 544Q494 599 463 633T378 667Q341 667 309 653T252 615T214 556T200 481Q200 426 231 393T317 360ZM356 567H336L326 516H345Q362 516 371 525T380 546Q380 555 374 561T356 567ZM246 416L285 612H376Q407 612 426 598T446 554Q446 504
394 484L425 416H362L335 474H318L306 416H246Z" />
<glyph unicode="&#xaf;" glyph-name="overscore" d="M210 590L230 690H524L504 590H210Z" />
<glyph unicode="&#xb0;" glyph-name="degree" d="M315 393Q261 393 227 426T193 514Q193 552 207 584T245 638T301 673T371 686Q431 686 463 652T495 565Q495 527 481 495T443 441T386 406T315 393ZM330 466Q365 466 388 492T412 556Q412 584 399 600T360 616Q324
616 300 589T276 525Q276 498 290 482T330 466Z" />
<glyph unicode="&#xb1;" glyph-name="plusminus" d="M242 165V292H67V404H242V568H358V404H533V292H358V165H242ZM67 0V113H533V0H67Z" />
<glyph unicode="&#xb2;" glyph-name="two.sups" d="M178 368L190 430Q288 492 339 542T390 632Q390 649 380 659T348 670Q334 670 322 661T294 638L230 706Q266 738 297 754T370 770Q433 770 469 739T506 654Q506 603 471 558T382 466H482L462 368H178Z" />
<glyph unicode="&#xb3;" glyph-name="three.sups" d="M336 356Q280 356 244 378T184 436L258 490Q285 448 325 448Q351 448 365 459T380 488Q380 509 366 520T302 532L316 601Q342 601 358 605T383 617T395 633T398 651Q398 664 389 672T362 680Q345 680 334 676T302
658L254 734Q290 755 321 762T389 770Q444 770 479 743T514 672Q514 634 497 609T438 566Q464 551 478 530T492 482Q492 452 480 429T446 389T397 365T336 356Z" />
<glyph unicode="&#xb4;" glyph-name="acute" d="M336 578L267 668L458 840L553 718L336 578Z" />
<glyph unicode="&#xb5;" glyph-name="uni00B5" d="M-40 -198L102 500H262L200 212Q189 161 201 142T245 122Q272 122 296 139T349 194L410 500H569Q555 444 541 384T516 272T497 186T489 145Q489 128 497 122T518 115Q523 115 526 115T537 117L532 1Q518 -4 498
-8T451 -12Q400 -12 375 11T344 80H340Q313 38 279 16T210 -7Q193 -7 177 -3T151 14Q140 -43 133 -93T120 -198H-40Z" />
<glyph unicode="&#xb6;" glyph-name="paragraph" d="M274 190Q230 190 191 202T123 238T76 296T58 376Q58 449 83 501T150 586T246 634T360 650H386L294 190H274ZM294 -80L438 650H598L454 -80H294Z" />
<glyph unicode="&#xb7;" glyph-name="middot" d="M242 226Q197 226 170 256T142 332Q142 361 152 386T180 431T223 461T280 472Q325 472 352 442T380 366Q380 337 370 312T342 267T299 237T242 226Z" />
<glyph unicode="&#xb8;" glyph-name="cedilla" d="M90 -244V-178Q147 -175 170 -166T198 -136Q200 -122 187 -112T128 -96L202 12H300L254 -60Q292 -69 308 -86T320 -136Q309 -190 250 -215T90 -244Z" />
<glyph unicode="&#xb9;" glyph-name="one.sups" d="M174 368L194 466H310L346 642H238L252 714Q300 719 330 728T394 758H484L427 466H534L514 368H174Z" />
<glyph unicode="&#xba;" glyph-name="ordmasculine" d="M314 360Q284 360 258 369T212 396T181 440T170 500Q170 552 187 591T233 655T299 693T375 706Q435 706 475 670T516 565Q516 513 500 475T455 411T391 373T314 360ZM327 449Q348 449 362 459T386 487T399
524T403 564Q403 590 394 604T362 618Q342 618 327 608T303 581T288 544T283 504Q283 478 293 464T327 449Z" />
<glyph unicode="&#xbb;" glyph-name="guillemotright" d="M46 20L-9 83L135 260L60 425L139 484L277 311L254 183L46 20ZM325 20L270 83L414 260L339 425L418 484L556 311L533 183L325 20Z" />
<glyph unicode="&#xbc;" glyph-name="onequarter" d="M61 320L103 530H23L37 598Q57 600 71 603T99 610T123 620T149 634H239L177 320H61ZM4 19L-60 97L162 268L206 218L4 19ZM378 367L334 417L534 616L598 538L378 367ZM378 0L389 58H225L236 112L390 325L460
286L340 128H403L416 192H512L499 128H550L536 58H485L474 0H378Z" />
<glyph unicode="&#xbd;" glyph-name="onehalf" d="M61 320L103 530H23L37 598Q57 600 71 603T99 610T123 620T149 634H239L177 320H61ZM4 19L-60 97L162 268L206 218L4 19ZM378 367L334 417L534 616L598 538L378 367ZM258 0L269 60Q300 81 329 101T380 140T416
176T430 209Q430 234 404 234Q387 234 371 225T339 199L284 260Q343 325 437 325Q485 325 514 302T544 231Q544 209 536 189T513 152T480 118T441 87H549L530 0H258Z" />
<glyph unicode="&#xbe;" glyph-name="threequarters" d="M106 308Q61 308 32 321T-25 361L27 424Q42 408 61 398T103 387Q122 387 134 393T146 417Q146 431 132 439T81 448L92 506Q120 506 138 514T156 539Q156 552 148 556T126 561Q110 561 94 554T64 537L23
597Q49 618 85 631T162 645Q209 645 238 625T268 567Q268 532 246 511T191 482Q254 467 254 411Q254 386 242 367T210 334T163 315T106 308ZM4 19L-60 97L162 268L206 218L4 19ZM378 367L334 417L534 616L598 538L378 367ZM378 0L389 58H225L236 112L390 325L460
286L340 128H403L416 192H512L499 128H550L536 58H485L474 0H378Z" />
<glyph unicode="&#xbf;" glyph-name="questiondown" d="M370 235Q368 199 357 171T330 122T293 84T254 55Q222 34 208 19T194 -17Q194 -38 206 -46T236 -55Q265 -55 287 -42T336 -3L418 -81Q377 -131 328 -157T206 -183Q171 -183 140 -176T86 -152T48 -111T34
-51Q34 -16 44 9T72 56T113 94T164 131Q179 141 191 151T213 173T228 200T238 235H370ZM344 511Q382 511 406 486T430 421Q430 396 422 375T398 337T360 311T312 301Q274 301 250 326T226 391Q226 416 234 437T258 475T296 501T344 511Z" />
<glyph unicode="&#xc0;" glyph-name="Agrave" d="M270 344L238 268H354L352 344Q350 391 350 436T348 530H344Q326 484 308 438T270 344ZM-50 0L276 650H468L530 0H362L358 148H188L126 0H-50ZM398 670L223 806L332 907L488 748L398 670Z" />
<glyph unicode="&#xc1;" glyph-name="Aacute" d="M270 344L238 268H354L352 344Q350 391 350 436T348 530H344Q326 484 308 438T270 344ZM-50 0L276 650H468L530 0H362L358 148H188L126 0H-50ZM332 680L271 772L478 899L548 782L332 680Z" />
<glyph unicode="&#xc2;" glyph-name="Acircumflex" d="M270 344L238 268H354L352 344Q350 391 350 436T348 530H344Q326 484 308 438T270 344ZM-50 0L276 650H468L530 0H362L358 148H188L126 0H-50ZM252 680L186 730L306 856H494L570 724L492 680L394 770H390L252 680Z" />
<glyph unicode="&#xc3;" glyph-name="Atilde" d="M270 344L238 268H354L352 344Q350 391 350 436T348 530H344Q326 484 308 438T270 344ZM-50 0L276 650H468L530 0H362L358 148H188L126 0H-50ZM448 686Q422 686 403 694T370 712T344 730T322 738Q310 738 300 730T282
696L174 704Q194 787 237 821T336 856Q362 856 381 848T414 830T440 812T462 804Q474 804 484 812T502 846L610 838Q590 755 547 721T448 686Z" />
<glyph unicode="&#xc4;" glyph-name="Adieresis" d="M270 344L238 268H354L352 344Q350 391 350 436T348 530H344Q326 484 308 438T270 344ZM-50 0L276 650H468L530 0H362L358 148H188L126 0H-50ZM274 696Q247 696 229 713T210 760Q210 775 216 790T233 817T259
836T292 844Q318 844 337 827T356 780Q356 765 350 750T333 723T307 704T274 696ZM494 696Q467 696 449 713T430 760Q430 775 436 790T453 817T479 836T512 844Q538 844 557 827T576 780Q576 765 570 750T553 723T527 704T494 696Z" />
<glyph unicode="&#xc5;" glyph-name="Aring" d="M270 344L238 268H354L352 344Q350 391 350 436T348 530H344Q326 484 308 438T270 344ZM-50 0L276 650H468L530 0H362L358 148H188L126 0H-50ZM390 696Q367 696 347 701T310 716T285 744T276 784Q276 807 286 828T314
864T355 889T406 898Q428 898 448 893T485 877T510 849T520 810Q520 786 510 765T482 729T441 705T390 696ZM392 756Q409 756 422 770T436 804Q436 818 428 828T404 838Q385 838 373 823T360 790Q360 776 368 766T392 756Z" />
<glyph unicode="&#xc6;" glyph-name="AE" d="M263 353L221 264H297L351 533H347Q325 485 304 440T263 353ZM-66 0L268 650H646L620 516H487L464 402H572L546 268H437L410 134H552L526 0H244L273 144H164L96 0H-66Z" />
<glyph unicode="&#xc7;" glyph-name="Ccedilla" d="M320 -12Q263 -12 216 6T136 60T85 146T66 264Q66 351 93 424T169 550T280 632T416 662Q473 662 519 635T594 556L486 472Q451 524 408 524Q373 524 341 505T284 452T245 372T230 274Q230 203 259 165T354 126Q380
126 405 139T454 172L520 70Q506 57 486 43T441 16T385 -4T320 -12ZM148 -244V-178Q205 -175 228 -166T256 -136Q258 -122 245 -112T186 -96L260 12H358L312 -60Q350 -69 366 -86T378 -136Q367 -190 308 -215T148 -244Z" />
<glyph unicode="&#xc8;" glyph-name="Egrave" d="M30 0L160 650H594L568 516H292L270 402H500L474 268H244L216 134H500L474 0H30ZM414 670L239 806L348 907L504 748L414 670Z" />
<glyph unicode="&#xc9;" glyph-name="Eacute" d="M30 0L160 650H594L568 516H292L270 402H500L474 268H244L216 134H500L474 0H30ZM348 680L287 772L494 899L564 782L348 680Z" />
<glyph unicode="&#xca;" glyph-name="Ecircumflex" d="M30 0L160 650H594L568 516H292L270 402H500L474 268H244L216 134H500L474 0H30ZM268 680L202 730L322 856H510L586 724L508 680L410 770H406L268 680Z" />
<glyph unicode="&#xcb;" glyph-name="Edieresis" d="M30 0L160 650H594L568 516H292L270 402H500L474 268H244L216 134H500L474 0H30ZM290 696Q263 696 245 713T226 760Q226 775 232 790T249 817T275 836T308 844Q334 844 353 827T372 780Q372 765 366 750T349
723T323 704T290 696ZM510 696Q483 696 465 713T446 760Q446 775 452 790T469 817T495 836T528 844Q554 844 573 827T592 780Q592 765 586 750T569 723T543 704T510 696Z" />
<glyph unicode="&#xcc;" glyph-name="Igrave" d="M8 0L36 134H184L262 516H112L140 650H598L570 516H422L344 134H494L466 0H8ZM398 670L223 806L332 907L488 748L398 670Z" />
<glyph unicode="&#xcd;" glyph-name="Iacute" d="M8 0L36 134H184L262 516H112L140 650H598L570 516H422L344 134H494L466 0H8ZM332 680L271 772L478 899L548 782L332 680Z" />
<glyph unicode="&#xce;" glyph-name="Icircumflex" d="M8 0L36 134H184L262 516H112L140 650H598L570 516H422L344 134H494L466 0H8ZM252 680L186 730L306 856H494L570 724L492 680L394 770H390L252 680Z" />
<glyph unicode="&#xcf;" glyph-name="Idieresis" d="M8 0L36 134H184L262 516H112L140 650H598L570 516H422L344 134H494L466 0H8ZM274 696Q247 696 229 713T210 760Q210 775 216 790T233 817T259 836T292 844Q318 844 337 827T356 780Q356 765 350 750T333 723T307
704T274 696ZM494 696Q467 696 449 713T430 760Q430 775 436 790T453 817T479 836T512 844Q538 844 557 827T576 780Q576 765 570 750T553 723T527 704T494 696Z" />
<glyph unicode="&#xd0;" glyph-name="Eth" d="M8 0L68 298H-2L12 368L83 374L138 650H290Q419 650 493 588T568 394Q568 295 541 221T468 98T358 25T222 0H8ZM194 128H218Q255 128 288 141T347 185T388 264T404 384Q404 422 395 448T370 491T333 515T286 522H272L243
374H346L330 298H228L194 128Z" />
<glyph unicode="&#xd1;" glyph-name="Ntilde" d="M6 0L136 650H296L353 340L374 196H378Q380 222 383 256T390 325T398 390T405 438L447 650H598L468 0H312L249 310L228 454H224Q222 427 219 393T213 325T205 258T196 202L157 0H6ZM695 686Q669 686 650 694T617
712T591 730T569 738Q557 738 547 730T529 696L421 704Q441 787 484 821T583 856Q609 856 628 848T661 830T687 812T709 804Q721 804 731 812T749 846L857 838Q837 755 794 721T695 686Z" />
<glyph unicode="&#xd2;" glyph-name="Ograve" d="M250 -12Q199 -12 158 6T87 58T42 143T26 256Q26 342 50 416T119 545T225 631T358 662Q409 662 450 644T520 591T564 507T580 394Q580 308 556 234T487 105T383 19T250 -12ZM266 126Q298 126 325 147T373 206T404
296T416 410Q416 470 398 497T342 524Q310 524 282 503T234 444T202 354T190 240Q190 180 208 153T266 126ZM398 670L223 806L332 907L488 748L398 670Z" />
<glyph unicode="&#xd3;" glyph-name="Oacute" d="M250 -12Q199 -12 158 6T87 58T42 143T26 256Q26 342 50 416T119 545T225 631T358 662Q409 662 450 644T520 591T564 507T580 394Q580 308 556 234T487 105T383 19T250 -12ZM266 126Q298 126 325 147T373 206T404
296T416 410Q416 470 398 497T342 524Q310 524 282 503T234 444T202 354T190 240Q190 180 208 153T266 126ZM332 680L271 772L478 899L548 782L332 680Z" />
<glyph unicode="&#xd4;" glyph-name="Ocircumflex" d="M250 -12Q199 -12 158 6T87 58T42 143T26 256Q26 342 50 416T119 545T225 631T358 662Q409 662 450 644T520 591T564 507T580 394Q580 308 556 234T487 105T383 19T250 -12ZM266 126Q298 126 325 147T373
206T404 296T416 410Q416 470 398 497T342 524Q310 524 282 503T234 444T202 354T190 240Q190 180 208 153T266 126ZM252 680L186 730L306 856H494L570 724L492 680L394 770H390L252 680Z" />
<glyph unicode="&#xd5;" glyph-name="Otilde" d="M250 -12Q199 -12 158 6T87 58T42 143T26 256Q26 342 50 416T119 545T225 631T358 662Q409 662 450 644T520 591T564 507T580 394Q580 308 556 234T487 105T383 19T250 -12ZM266 126Q298 126 325 147T373 206T404
296T416 410Q416 470 398 497T342 524Q310 524 282 503T234 444T202 354T190 240Q190 180 208 153T266 126ZM448 686Q422 686 403 694T370 712T344 730T322 738Q310 738 300 730T282 696L174 704Q194 787 237 821T336 856Q362 856 381 848T414 830T440 812T462
804Q474 804 484 812T502 846L610 838Q590 755 547 721T448 686Z" />
<glyph unicode="&#xd6;" glyph-name="Odieresis" d="M250 -12Q199 -12 158 6T87 58T42 143T26 256Q26 342 50 416T119 545T225 631T358 662Q409 662 450 644T520 591T564 507T580 394Q580 308 556 234T487 105T383 19T250 -12ZM266 126Q298 126 325 147T373 206T404
296T416 410Q416 470 398 497T342 524Q310 524 282 503T234 444T202 354T190 240Q190 180 208 153T266 126ZM274 696Q247 696 229 713T210 760Q210 775 216 790T233 817T259 836T292 844Q318 844 337 827T356 780Q356 765 350 750T333 723T307 704T274 696ZM494
696Q467 696 449 713T430 760Q430 775 436 790T453 817T479 836T512 844Q538 844 557 827T576 780Q576 765 570 750T553 723T527 704T494 696Z" />
<glyph unicode="&#xd7;" glyph-name="multiply" d="M160 109L80 189L220 329L80 470L160 550L300 409L440 550L520 470L380 329L520 189L440 109L300 249L160 109Z" />
<glyph unicode="&#xd8;" glyph-name="Oslash" d="M250 -12Q167 -12 112 34L44 -44L-28 10L56 107Q42 138 34 175T26 256Q26 342 50 416T119 545T225 631T358 662Q440 662 495 615L563 694L636 640L551 542Q580 479 580 394Q580 308 556 234T487 105T383 19T250
-12ZM184 270V256L396 501Q377 524 342 524Q310 524 281 503T231 446T197 365T184 270ZM266 126Q298 126 326 147T376 204T409 285T422 380V393L211 149Q222 136 235 131T266 126Z" />
<glyph unicode="&#xd9;" glyph-name="Ugrave" d="M247 -12Q196 -12 159 3T97 46T60 112T48 196Q48 226 51 252T60 308L128 650H288L216 288Q212 268 208 248T204 208Q204 126 268 126Q289 126 305 132T334 156T357 202T376 276L450 650H606L530 268Q514 189 490
136T430 49T350 2T247 -12ZM398 670L223 806L332 907L488 748L398 670Z" />
<glyph unicode="&#xda;" glyph-name="Uacute" d="M247 -12Q196 -12 159 3T97 46T60 112T48 196Q48 226 51 252T60 308L128 650H288L216 288Q212 268 208 248T204 208Q204 126 268 126Q289 126 305 132T334 156T357 202T376 276L450 650H606L530 268Q514 189 490
136T430 49T350 2T247 -12ZM332 680L271 772L478 899L548 782L332 680Z" />
<glyph unicode="&#xdb;" glyph-name="Ucircumflex" d="M247 -12Q196 -12 159 3T97 46T60 112T48 196Q48 226 51 252T60 308L128 650H288L216 288Q212 268 208 248T204 208Q204 126 268 126Q289 126 305 132T334 156T357 202T376 276L450 650H606L530 268Q514 189
490 136T430 49T350 2T247 -12ZM252 680L186 730L306 856H494L570 724L492 680L394 770H390L252 680Z" />
<glyph unicode="&#xdc;" glyph-name="Udieresis" d="M247 -12Q196 -12 159 3T97 46T60 112T48 196Q48 226 51 252T60 308L128 650H288L216 288Q212 268 208 248T204 208Q204 126 268 126Q289 126 305 132T334 156T357 202T376 276L450 650H606L530 268Q514 189
490 136T430 49T350 2T247 -12ZM274 696Q247 696 229 713T210 760Q210 775 216 790T233 817T259 836T292 844Q318 844 337 827T356 780Q356 765 350 750T333 723T307 704T274 696ZM494 696Q467 696 449 713T430 760Q430 775 436 790T453 817T479 836T512 844Q538
844 557 827T576 780Q576 765 570 750T553 723T527 704T494 696Z" />
<glyph unicode="&#xdd;" glyph-name="Yacute" d="M157 0L197 200L80 651H246L275 491Q282 453 289 413T303 333H307Q329 372 350 412T394 491L485 651H653L354 184L315 0H157ZM579 680L518 772L725 899L795 782L579 680Z" />
<glyph unicode="&#xde;" glyph-name="Thorn" d="M8 0L138 650H298L278 554H356Q400 554 439 545T506 514T551 459T568 376Q568 305 543 256T475 175T377 130T260 116H190L168 0H8ZM216 242H278Q341 242 375 270T410 352Q410 391 388 409T324 428H252L216 242Z" />
<glyph unicode="&#xdf;" glyph-name="germandbls" d="M354 -12Q315 -12 277 -2T204 35L268 142Q287 126 305 116T349 106Q372 106 386 118T400 154Q400 175 382 192T342 228T302 273T284 335Q284 368 298 391T331 435T363 478T378 530Q378 556 369 569T336 582Q301
582 280 552T248 468L156 0H-4L96 498Q105 543 125 581T176 648T248 692T342 708Q379 708 413 699T474 671T516 623T532 552Q532 511 518 485T486 438T455 402T440 366Q440 347 457 330T494 292T531 242T548 170Q548 132 535 99T496 41T435 2T354 -12Z" />
<glyph unicode="&#xe0;" glyph-name="agrave" d="M189 -12Q114 -12 71 38T28 182Q28 251 50 311T109 416T194 486T294 512Q342 512 375 496T426 450H430L452 500H580L480 0H350V66H346Q311 28 270 8T189 -12ZM250 118Q274 118 303 134T358 188L391 344Q380 364
360 373T324 382Q298 382 275 369T233 332T205 275T194 202Q194 157 209 138T250 118ZM392 569L230 742L366 844L490 645L392 569Z" />
<glyph unicode="&#xe1;" glyph-name="aacute" d="M189 -12Q114 -12 71 38T28 182Q28 251 50 311T109 416T194 486T294 512Q342 512 375 496T426 450H430L452 500H580L480 0H350V66H346Q311 28 270 8T189 -12ZM250 118Q274 118 303 134T358 188L391 344Q380 364
360 373T324 382Q298 382 275 369T233 332T205 275T194 202Q194 157 209 138T250 118ZM342 578L273 668L464 840L559 718L342 578Z" />
<glyph unicode="&#xe2;" glyph-name="acircumflex" d="M189 -12Q114 -12 71 38T28 182Q28 251 50 311T109 416T194 486T294 512Q342 512 375 496T426 450H430L452 500H580L480 0H350V66H346Q311 28 270 8T189 -12ZM250 118Q274 118 303 134T358 188L391 344Q380
364 360 373T324 382Q298 382 275 369T233 332T205 275T194 202Q194 157 209 138T250 118ZM222 558L168 622L296 746H472L556 618L486 558L376 646H372L222 558Z" />
<glyph unicode="&#xe3;" glyph-name="atilde" d="M189 -12Q114 -12 71 38T28 182Q28 251 50 311T109 416T194 486T294 512Q342 512 375 496T426 450H430L452 500H580L480 0H350V66H346Q311 28 270 8T189 -12ZM250 118Q274 118 303 134T358 188L391 344Q380 364
360 373T324 382Q298 382 275 369T233 332T205 275T194 202Q194 157 209 138T250 118ZM434 572Q410 572 393 580T362 599T336 619T310 628Q298 628 288 619T272 582L168 588Q182 673 221 709T318 746Q342 746 359 737T390 718T416 699T442 690Q454 690 464 699T480
736L584 730Q570 645 531 609T434 572Z" />
<glyph unicode="&#xe4;" glyph-name="adieresis" d="M189 -12Q114 -12 71 38T28 182Q28 251 50 311T109 416T194 486T294 512Q342 512 375 496T426 450H430L452 500H580L480 0H350V66H346Q311 28 270 8T189 -12ZM250 118Q274 118 303 134T358 188L391 344Q380
364 360 373T324 382Q298 382 275 369T233 332T205 275T194 202Q194 157 209 138T250 118ZM254 566Q226 566 207 583T188 632Q188 648 194 663T212 689T238 707T272 714Q300 714 319 697T338 648Q338 613 314 590T254 566ZM474 566Q446 566 427 583T408 632Q408
648 414 663T432 689T458 707T492 714Q520 714 539 697T558 648Q558 613 534 590T474 566Z" />
<glyph unicode="&#xe5;" glyph-name="aring" d="M189 -12Q114 -12 71 38T28 182Q28 251 50 311T109 416T194 486T294 512Q342 512 375 496T426 450H430L452 500H580L480 0H350V66H346Q311 28 270 8T189 -12ZM250 118Q274 118 303 134T358 188L391 344Q380 364
360 373T324 382Q298 382 275 369T233 332T205 275T194 202Q194 157 209 138T250 118ZM362 570Q308 570 274 594T240 662Q240 687 251 708T283 744T332 769T394 778Q448 778 482 754T516 686Q516 661 505 640T473 604T424 579T362 570ZM372 630Q390 630 403 645T416
682Q416 696 409 707T384 718Q366 718 353 703T340 666Q340 651 347 641T372 630Z" />
<glyph unicode="&#xe6;" glyph-name="ae" d="M106 -12Q43 -12 13 22T-18 108Q-18 197 43 247T241 320Q246 349 235 368T197 388Q171 388 148 380T98 354L46 446Q85 476 133 494T238 512Q273 512 298 495T337 449Q368 482 402 497T473 512Q505 512 528 499T566
463T588 410T595 348Q595 294 585 258T567 204H343V184Q343 147 360 129T408 110Q431 110 451 115T496 138L540 40Q508 14 468 1T394 -12Q344 -12 308 5T250 54Q218 22 183 5T106 -12ZM158 108Q173 108 189 117T219 138Q218 144 218 150T218 162Q218 179 219 194T222
223Q166 211 146 190T126 142Q126 108 158 108ZM440 390Q416 390 396 367T361 304H469Q473 321 473 341Q473 364 466 377T440 390Z" />
<glyph unicode="&#xe7;" glyph-name="ccedilla" d="M300 -12Q251 -12 207 1T130 42T78 110T58 206Q58 275 82 331T149 428T246 490T364 512Q398 512 427 504T481 483T525 454T558 420L462 332Q438 358 411 370T354 382Q328 382 304 370T262 336T232 284T220 220Q220
194 228 175T251 143T285 124T324 118Q359 118 385 133T438 170L493 62Q456 27 408 8T300 -12ZM130 -244V-178Q187 -175 210 -166T238 -136Q240 -122 227 -112T168 -96L242 12H340L294 -60Q332 -69 348 -86T360 -136Q349 -190 290 -215T130 -244Z" />
<glyph unicode="&#xe8;" glyph-name="egrave" d="M266 -12Q218 -12 177 1T105 41T58 111T40 212Q40 279 64 334T128 429T221 490T332 512Q381 512 420 498T485 457T526 395T540 314Q540 281 534 250T522 204H201Q203 176 212 158T235 129T267 114T304 110Q345
110 378 123T446 158L498 52Q451 20 393 4T266 -12ZM328 390Q300 390 268 370T216 304H393Q394 307 394 310T394 317Q394 354 376 372T328 390ZM386 569L224 742L360 844L484 645L386 569Z" />
<glyph unicode="&#xe9;" glyph-name="eacute" d="M266 -12Q218 -12 177 1T105 41T58 111T40 212Q40 279 64 334T128 429T221 490T332 512Q381 512 420 498T485 457T526 395T540 314Q540 281 534 250T522 204H201Q203 176 212 158T235 129T267 114T304 110Q345
110 378 123T446 158L498 52Q451 20 393 4T266 -12ZM328 390Q300 390 268 370T216 304H393Q394 307 394 310T394 317Q394 354 376 372T328 390ZM336 578L267 668L458 840L553 718L336 578Z" />
<glyph unicode="&#xea;" glyph-name="ecircumflex" d="M266 -12Q218 -12 177 1T105 41T58 111T40 212Q40 279 64 334T128 429T221 490T332 512Q381 512 420 498T485 457T526 395T540 314Q540 281 534 250T522 204H201Q203 176 212 158T235 129T267 114T304 110Q345
110 378 123T446 158L498 52Q451 20 393 4T266 -12ZM328 390Q300 390 268 370T216 304H393Q394 307 394 310T394 317Q394 354 376 372T328 390ZM216 558L162 622L290 746H466L550 618L480 558L370 646H366L216 558Z" />
<glyph unicode="&#xeb;" glyph-name="edieresis" d="M266 -12Q218 -12 177 1T105 41T58 111T40 212Q40 279 64 334T128 429T221 490T332 512Q381 512 420 498T485 457T526 395T540 314Q540 281 534 250T522 204H201Q203 176 212 158T235 129T267 114T304 110Q345
110 378 123T446 158L498 52Q451 20 393 4T266 -12ZM328 390Q300 390 268 370T216 304H393Q394 307 394 310T394 317Q394 354 376 372T328 390ZM248 566Q220 566 201 583T182 632Q182 648 188 663T206 689T232 707T266 714Q294 714 313 697T332 648Q332 613 308
590T248 566ZM468 566Q440 566 421 583T402 632Q402 648 408 663T426 689T452 707T486 714Q514 714 533 697T552 648Q552 613 528 590T468 566Z" />
<glyph unicode="&#xec;" glyph-name="igrave" d="M340 -12Q263 -12 218 28T172 138Q172 153 174 168T182 200L228 376H70L96 500H414L340 194Q338 188 337 182T336 170Q336 142 351 130T390 118Q407 118 423 122T462 136L494 16Q461 2 425 -5T340 -12ZM623 569L461
742L597 844L721 645L623 569Z" />
<glyph unicode="&#xed;" glyph-name="iacute" d="M340 -12Q263 -12 218 28T172 138Q172 153 174 168T182 200L228 376H70L96 500H414L340 194Q338 188 337 182T336 170Q336 142 351 130T390 118Q407 118 423 122T462 136L494 16Q461 2 425 -5T340 -12ZM573 578L504
668L695 840L790 718L573 578Z" />
<glyph unicode="&#xee;" glyph-name="icircumflex" d="M340 -12Q263 -12 218 28T172 138Q172 153 174 168T182 200L228 376H70L96 500H414L340 194Q338 188 337 182T336 170Q336 142 351 130T390 118Q407 118 423 122T462 136L494 16Q461 2 425 -5T340 -12ZM453
558L399 622L527 746H703L787 618L717 558L607 646H603L453 558Z" />
<glyph unicode="&#xef;" glyph-name="idieresis" d="M340 -12Q263 -12 218 28T172 138Q172 153 174 168T182 200L228 376H70L96 500H414L340 194Q338 188 337 182T336 170Q336 142 351 130T390 118Q407 118 423 122T462 136L494 16Q461 2 425 -5T340 -12ZM485
566Q457 566 438 583T419 632Q419 648 425 663T443 689T469 707T503 714Q531 714 550 697T569 648Q569 613 545 590T485 566ZM705 566Q677 566 658 583T639 632Q639 648 645 663T663 689T689 707T723 714Q751 714 770 697T789 648Q789 613 765 590T705 566Z" />
<glyph unicode="&#xf0;" glyph-name="eth" d="M242 -12Q196 -12 156 1T85 40T38 106T21 198Q21 258 42 306T97 387T176 437T268 455Q320 455 352 439T403 400Q398 443 383 478T341 543L207 481L180 550L281 597Q264 610 246 621T205 644L273 755Q315 738 351 715T420
662L565 730L592 660L473 605Q515 551 537 484T560 339Q560 253 536 188T470 78T370 11T242 -12ZM257 116Q283 116 307 126T352 157T385 212T404 293Q385 317 360 328T300 340Q271 340 248 330T209 301T184 259T175 207Q175 116 257 116Z" />
<glyph unicode="&#xf1;" glyph-name="ntilde" d="M8 0L106 500H235L232 420H236Q253 437 275 453T321 483T370 504T420 512Q482 512 516 480T550 382Q550 348 542 310L480 0H320L378 290Q381 304 383 315T385 335Q385 376 344 376Q319 376 287 357T226 298L168
0H8ZM442 572Q418 572 401 580T370 599T344 619T318 628Q306 628 296 619T280 582L176 588Q190 673 229 709T326 746Q350 746 367 737T398 718T424 699T450 690Q462 690 472 699T488 736L592 730Q578 645 539 609T442 572Z" />
<glyph unicode="&#xf2;" glyph-name="ograve" d="M256 -12Q203 -12 162 4T91 49T46 119T30 212Q30 280 54 335T119 430T213 490T322 512Q374 512 416 496T487 451T532 381T548 288Q548 220 524 165T459 70T365 10T256 -12ZM268 118Q290 118 311 130T349 163T376
215T386 284Q386 332 366 357T310 382Q287 382 266 370T229 337T202 284T192 216Q192 168 212 143T268 118ZM386 569L224 742L360 844L484 645L386 569Z" />
<glyph unicode="&#xf3;" glyph-name="oacute" d="M256 -12Q203 -12 162 4T91 49T46 119T30 212Q30 280 54 335T119 430T213 490T322 512Q374 512 416 496T487 451T532 381T548 288Q548 220 524 165T459 70T365 10T256 -12ZM268 118Q290 118 311 130T349 163T376
215T386 284Q386 332 366 357T310 382Q287 382 266 370T229 337T202 284T192 216Q192 168 212 143T268 118ZM336 578L267 668L458 840L553 718L336 578Z" />
<glyph unicode="&#xf4;" glyph-name="ocircumflex" d="M256 -12Q203 -12 162 4T91 49T46 119T30 212Q30 280 54 335T119 430T213 490T322 512Q374 512 416 496T487 451T532 381T548 288Q548 220 524 165T459 70T365 10T256 -12ZM268 118Q290 118 311 130T349 163T376
215T386 284Q386 332 366 357T310 382Q287 382 266 370T229 337T202 284T192 216Q192 168 212 143T268 118ZM216 558L162 622L290 746H466L550 618L480 558L370 646H366L216 558Z" />
<glyph unicode="&#xf5;" glyph-name="otilde" d="M256 -12Q203 -12 162 4T91 49T46 119T30 212Q30 280 54 335T119 430T213 490T322 512Q374 512 416 496T487 451T532 381T548 288Q548 220 524 165T459 70T365 10T256 -12ZM268 118Q290 118 311 130T349 163T376
215T386 284Q386 332 366 357T310 382Q287 382 266 370T229 337T202 284T192 216Q192 168 212 143T268 118ZM428 572Q404 572 387 580T356 599T330 619T304 628Q292 628 282 619T266 582L162 588Q176 673 215 709T312 746Q336 746 353 737T384 718T410 699T436
690Q448 690 458 699T474 736L578 730Q564 645 525 609T428 572Z" />
<glyph unicode="&#xf6;" glyph-name="odieresis" d="M256 -12Q203 -12 162 4T91 49T46 119T30 212Q30 280 54 335T119 430T213 490T322 512Q374 512 416 496T487 451T532 381T548 288Q548 220 524 165T459 70T365 10T256 -12ZM268 118Q290 118 311 130T349 163T376
215T386 284Q386 332 366 357T310 382Q287 382 266 370T229 337T202 284T192 216Q192 168 212 143T268 118ZM248 566Q220 566 201 583T182 632Q182 648 188 663T206 689T232 707T266 714Q294 714 313 697T332 648Q332 613 308 590T248 566ZM468 566Q440 566 421
583T402 632Q402 648 408 663T426 689T452 707T486 714Q514 714 533 697T552 648Q552 613 528 590T468 566Z" />
<glyph unicode="&#xf7;" glyph-name="divide" d="M300 428Q263 428 238 451T213 510Q213 546 238 569T300 592Q337 592 362 569T387 510Q387 474 362 451T300 428ZM300 68Q263 68 238 91T213 150Q213 186 238 209T300 232Q337 232 362 209T387 150Q387 114 362
91T300 68ZM67 274V386H533V274H67Z" />
<glyph unicode="&#xf8;" glyph-name="oslash" d="M256 -12Q168 -12 109 33L48 -26L2 20L65 81Q30 134 30 212Q30 280 54 335T119 430T213 490T322 512Q410 512 469 467L530 526L576 480L513 419Q548 366 548 288Q548 220 524 165T459 70T365 10T256 -12ZM184 208Q184
205 184 202T185 195L367 370Q347 388 318 388Q286 388 262 374T220 336T193 279T184 208ZM260 112Q291 112 316 126T358 164T385 221T394 292Q394 295 394 298T393 305L211 130Q231 112 260 112Z" />
<glyph unicode="&#xf9;" glyph-name="ugrave" d="M162 -12Q100 -12 66 20T32 118Q32 152 40 190L102 500H262L204 210Q201 196 199 186T196 166Q196 145 207 135T238 124Q263 124 293 143T352 202L410 500H570L472 0H342L346 80H342Q325 63 304 47T259 17T211
-4T162 -12ZM637 569L475 742L611 844L735 645L637 569Z" />
<glyph unicode="&#xfa;" glyph-name="uacute" d="M162 -12Q100 -12 66 20T32 118Q32 152 40 190L102 500H262L204 210Q201 196 199 186T196 166Q196 145 207 135T238 124Q263 124 293 143T352 202L410 500H570L472 0H342L346 80H342Q325 63 304 47T259 17T211
-4T162 -12ZM587 578L518 668L709 840L804 718L587 578Z" />
<glyph unicode="&#xfb;" glyph-name="ucircumflex" d="M162 -12Q100 -12 66 20T32 118Q32 152 40 190L102 500H262L204 210Q201 196 199 186T196 166Q196 145 207 135T238 124Q263 124 293 143T352 202L410 500H570L472 0H342L346 80H342Q325 63 304 47T259 17T211
-4T162 -12ZM467 558L413 622L541 746H717L801 618L731 558L621 646H617L467 558Z" />
<glyph unicode="&#xfc;" glyph-name="udieresis" d="M162 -12Q100 -12 66 20T32 118Q32 152 40 190L102 500H262L204 210Q201 196 199 186T196 166Q196 145 207 135T238 124Q263 124 293 143T352 202L410 500H570L472 0H342L346 80H342Q325 63 304 47T259 17T211
-4T162 -12ZM499 566Q471 566 452 583T433 632Q433 648 439 663T457 689T483 707T517 714Q545 714 564 697T583 648Q583 613 559 590T499 566ZM719 566Q691 566 672 583T653 632Q653 648 659 663T677 689T703 707T737 714Q765 714 784 697T803 648Q803 613 779
590T719 566Z" />
<glyph unicode="&#xfd;" glyph-name="yacute" d="M48 -188Q19 -188 -8 -181T-50 -162L-6 -54Q6 -60 24 -65T58 -70Q96 -70 120 -57T160 -18L173 4L64 500H218L250 306Q256 268 261 223T270 146H274Q288 178 309 223T350 306L450 500H612L328 0Q272 -98 206 -143T48
-188ZM583 578L514 668L705 840L800 718L583 578Z" />
<glyph unicode="&#xfe;" glyph-name="thorn" d="M-28 -176L148 696H308L278 550L248 444H250Q282 477 322 494T398 512Q476 512 518 462T560 318Q560 249 541 189T487 84T403 14T294 -12Q256 -12 223 2T170 42H168L156 -52L132 -176H-28ZM276 118Q300 118 321
131T358 168T384 225T394 298Q394 343 377 362T334 382Q310 382 284 365T232 306L200 156Q211 136 233 127T276 118Z" />
<glyph unicode="&#xff;" glyph-name="ydieresis" d="M48 -188Q19 -188 -8 -181T-50 -162L-6 -54Q6 -60 24 -65T58 -70Q96 -70 120 -57T160 -18L173 4L64 500H218L250 306Q256 268 261 223T270 146H274Q288 178 309 223T350 306L450 500H612L328 0Q272 -98 206
-143T48 -188ZM495 566Q467 566 448 583T429 632Q429 648 435 663T453 689T479 707T513 714Q541 714 560 697T579 648Q579 613 555 590T495 566ZM715 566Q687 566 668 583T649 632Q649 648 655 663T673 689T699 707T733 714Q761 714 780 697T799 648Q799 613 775
590T715 566Z" />
<glyph unicode="&#x2013;" glyph-name="endash" d="M58 196L82 312H522L498 196H58Z" />
<glyph unicode="&#x2014;" glyph-name="emdash" d="M-22 196L2 312H602L578 196H-22Z" />
<glyph unicode="&#x2018;" glyph-name="quoteleft" d="M310 290Q259 290 230 323T200 416Q200 468 219 512T274 592T357 653T464 690L482 610Q450 603 425 591T381 564T350 532T331 499Q343 502 354 502Q384 502 406 480T428 414Q428 388 419 365T394 326T357
300T310 290Z" />
<glyph unicode="&#x2019;" glyph-name="quoteright" d="M208 296L190 376Q221 383 246 395T291 422T322 454T341 487Q329 484 318 484Q288 484 266 506T244 572Q244 598 253 621T278 660T315 686T362 696Q413 696 442 663T472 570Q472 518 453 474T398 394T315
333T208 296Z" />
<glyph unicode="&#x201a;" glyph-name="quotesinglbase" d="M208 -203L190 -123Q221 -116 246 -104T291 -77T322 -45T341 -12Q329 -15 318 -15Q288 -15 266 7T244 73Q244 99 253 122T278 161T315 187T362 197Q413 197 442 164T472 71Q472 19 453 -25T398 -105T315
-166T208 -203Z" />
<glyph unicode="&#x201c;" glyph-name="quotedblleft" d="M171 290Q120 290 91 323T61 416Q61 468 80 512T135 592T218 653T325 690L343 610Q311 603 286 591T242 564T211 532T192 499Q204 502 215 502Q245 502 267 480T289 414Q289 388 280 365T255 326T218 300T171
290ZM450 290Q399 290 370 323T340 416Q340 468 359 512T414 592T497 653T604 690L622 610Q590 603 565 591T521 564T490 532T471 499Q483 502 494 502Q524 502 546 480T568 414Q568 388 559 365T534 326T497 300T450 290Z" />
<glyph unicode="&#x201d;" glyph-name="quotedblright" d="M69 296L51 376Q82 383 107 395T152 422T183 454T202 487Q190 484 179 484Q149 484 127 506T105 572Q105 598 114 621T139 660T176 686T223 696Q274 696 303 663T333 570Q333 518 314 474T259 394T176
333T69 296ZM348 296L330 376Q361 383 386 395T431 422T462 454T481 487Q469 484 458 484Q428 484 406 506T384 572Q384 598 393 621T418 660T455 686T502 696Q553 696 582 663T612 570Q612 518 593 474T538 394T455 333T348 296Z" />
<glyph unicode="&#x201e;" glyph-name="quotedblbase" d="M69 -203L51 -123Q82 -116 107 -104T152 -77T183 -45T202 -12Q190 -15 179 -15Q149 -15 127 7T105 73Q105 99 114 122T139 161T176 187T223 197Q274 197 303 164T333 71Q333 19 314 -25T259 -105T176 -166T69
-203ZM348 -203L330 -123Q361 -116 386 -104T431 -77T462 -45T481 -12Q469 -15 458 -15Q428 -15 406 7T384 73Q384 99 393 122T418 161T455 187T502 197Q553 197 582 164T612 71Q612 19 593 -25T538 -105T455 -166T348 -203Z" />
<glyph unicode="&#x2022;" glyph-name="bullet" d="M268 99Q203 99 163 137T123 234Q123 277 138 312T180 373T242 411T319 425Q382 425 420 387T459 290Q459 246 444 211T403 151T342 113T268 99Z" />
<glyph unicode="&#x2039;" glyph-name="guilsinglleft" d="M308 20L170 193L193 321L401 484L456 421L312 244L387 79L308 20Z" />
<glyph unicode="&#x203a;" glyph-name="guilsinglright" d="M185 20L130 83L274 260L199 425L278 484L416 311L393 183L185 20Z" />
</font>
</defs>
</svg>
