<?xml version="1.0" standalone="no"?>
<!DOCTYPE svg PUBLIC "-//W3C//DTD SVG 1.1//EN" "http://www.w3.org/Graphics/SVG/1.1/DTD/svg11.dtd">
<svg xmlns="http://www.w3.org/2000/svg">
<defs >
<font id="SourceCodePro" horiz-adv-x="600" ><font-face
    font-family="Source Code Pro Light"
    units-per-em="1000"
    panose-1="2 11 4 9 3 4 3 2 2 4"
    ascent="984"
    descent="-273"
    alphabetic="0" />
<glyph unicode=" " glyph-name="space" />
<glyph unicode="!" glyph-name="exclam" d="M284 219L279 599V670H321V599L316 219H284ZM300 -12Q277 -12 260 4T242 51Q242 82 259 98T300 114Q323 114 340 98T358 51Q358 21 341 5T300 -12Z" />
<glyph unicode="&quot;" glyph-name="quotedbl" d="M435 381L415 599L416 688H491V599L471 381H435ZM386 381L366 599L367 688H442V599L422 381H386Z" />
<glyph unicode="#" glyph-name="numbersign" d="M338 0L364 214H215L189 0H154L180 214H96V250H185L206 420H116V456H210L234 650H268L244 456H394L418 650H453L429 456H509V420H425L404 250H489V214H399L373 0H338ZM369 250L390 420H240L219 250H369Z" />
<glyph unicode="$" glyph-name="dollar" d="M97 112L121 144Q153 118 200 96T311 73Q383 73 421 104T459 184Q459 221 435 245T373 287T293 320T213 356T152 403T127 473Q127 504 139 529T172 573T223 603T288 617V749H327V618Q383 614 419 594T484 546L458 518Q441
532 426 543T393 563T354 575T305 579Q245 579 209 551T172 475Q172 442 196 421T258 382T338 350T419 314T480 263T505 187Q505 154 491 127T453 80T397 49T327 35V-110H288V35Q228 39 179 62T97 112Z" />
<glyph unicode="%" glyph-name="percent" d="M163 326Q103 326 66 369T29 491Q29 569 66 610T163 651Q223 651 260 610T297 491Q297 412 260 369T163 326ZM163 358Q204 358 231 392T258 491Q258 556 231 587T163 619Q122 619 95 588T68 491Q68 427 95 393T163
358ZM67 35L35 63L216 260L238 240L67 35ZM384 399L362 419L533 624L565 596L384 399ZM438 -12Q378 -12 341 31T304 153Q304 231 341 272T438 313Q498 313 535 272T572 153Q572 74 535 31T438 -12ZM438 20Q479 20 506 54T533 153Q533 218 506 249T438 281Q397 281
370 250T343 153Q343 89 370 55T438 20Z" />
<glyph unicode="&amp;" glyph-name="ampersand" d="M242 -12Q203 -12 169 0T109 36T68 93T53 167Q53 199 64 226T93 276T136 320T186 361Q165 403 153 444T141 524Q141 556 151 583T178 629T220 660T275 671Q329 671 357 637T386 551Q386 519 373 492T339 442T290
396T235 353Q270 290 318 232T417 128Q452 173 476 227T518 345H561Q541 277 513 216T446 103Q480 75 511 57T571 27L556 -12Q525 -1 491 19T419 71Q383 34 340 11T242 -12ZM182 526Q182 493 192 458T219 385Q244 403 267 421T307 460T335 501T346 549Q346 565
342 580T330 608T308 627T274 635Q230 635 206 603T182 526ZM246 26Q286 26 322 45T390 97Q337 145 288 205T203 328Q160 294 129 257T98 170Q98 137 110 111T142 66T189 37T246 26Z" />
<glyph unicode="&apos;" glyph-name="quotesingle" d="M282 381L262 599L263 688H338V599L318 381H282Z" />
<glyph unicode="(" glyph-name="parenleft" d="M456 -174Q347 -96 286 17T224 278Q224 426 285 539T456 730L481 702Q372 618 321 514T269 278Q269 147 320 43T481 -146L456 -174Z" />
<glyph unicode=")" glyph-name="parenright" d="M144 -174L119 -146Q228 -62 279 42T331 278Q331 409 280 513T119 702L144 730Q253 652 314 539T376 278Q376 130 315 17T144 -174Z" />
<glyph unicode="*" glyph-name="asterisk" d="M177 124L148 144L264 315L97 386L107 416L278 355L284 550H316L322 355L493 416L504 386L336 315L452 144L423 124L300 292L177 124Z" />
<glyph unicode="+" glyph-name="plus" d="M279 110V311H95V349H279V550H321V349H505V311H321V110H279Z" />
<glyph unicode="," glyph-name="comma" d="M221 -211L205 -179Q265 -149 296 -106T329 3Q317 0 306 0Q280 0 263 14T246 59Q246 90 264 104T306 119Q341 119 358 92T376 17Q376 -68 334 -124T221 -211Z" />
<glyph unicode="-" glyph-name="hyphen" d="M95 311V349H505V311H95Z" />
<glyph unicode="." glyph-name="period" d="M300 -12Q277 -12 259 5T240 53Q240 85 258 101T300 118Q323 118 341 102T360 53Q360 22 342 5T300 -12Z" />
<glyph unicode="/" glyph-name="slash" d="M114 -160L441 710H486L159 -160H114Z" />
<glyph unicode="0" glyph-name="zero" d="M300 -12Q195 -12 138 75T81 322Q81 482 138 566T300 651Q405 651 462 567T519 322Q519 163 462 76T300 -12ZM300 26Q378 26 426 101T475 322Q475 468 427 540T300 613Q222 613 174 541T125 322Q125 176 173 101T300 26ZM300
271Q279 271 262 286T245 331Q245 360 262 375T300 391Q321 391 338 376T355 331Q355 302 338 287T300 271Z" />
<glyph unicode="1" glyph-name="one" d="M108 0V39H299V569H156V599Q207 606 244 616T310 639H343V39H523V0H108Z" />
<glyph unicode="2" glyph-name="two" d="M82 0V28Q170 108 236 171T346 286T412 383T434 471Q434 501 425 527T397 572T347 602T276 613Q227 613 184 589T108 529L79 557Q119 597 167 624T280 651Q374 651 426 602T478 472Q478 424 455 377T390 277T286 165T149
35Q180 37 209 38T269 40H514V0H82Z" />
<glyph unicode="3" glyph-name="three" d="M292 -12Q250 -12 216 -4T155 17T105 46T67 78L92 109Q124 77 172 52T292 27Q329 27 360 37T415 65T451 110T465 168Q465 234 404 275T210 316V355Q273 355 316 366T388 395T428 439T441 494Q441 548 399 580T289 613Q239
613 195 593T120 543L93 573Q129 605 178 628T290 651Q331 651 367 641T429 611T471 563T487 497Q487 465 476 440T446 396T400 362T342 339V335Q375 329 406 315T460 279T497 231T511 169Q511 127 494 94T448 37T378 1T292 -12Z" />
<glyph unicode="4" glyph-name="four" d="M384 0V191H42V218L392 640H427V230H538V191H427V0H384ZM102 230H384V481Q386 504 386 529T389 578H383Q368 557 353 536T321 493L102 230Z" />
<glyph unicode="5" glyph-name="five" d="M287 -12Q243 -12 210 -5T149 15T101 43T62 74L87 105Q103 90 122 76T165 51T219 34T287 27Q324 27 357 39T416 74T455 128T470 199Q470 277 422 320T289 364Q245 364 213 352T146 321L115 340L139 639H483V600H179L158
369Q189 384 220 393T296 403Q343 403 383 391T452 355T499 292T516 201Q516 150 497 111T445 44T372 2T287 -12Z" />
<glyph unicode="6" glyph-name="six" d="M323 -12Q269 -12 225 8T151 66T103 161T86 290Q86 390 108 459T166 571T250 632T350 651Q404 651 443 634T513 589L486 559Q459 585 424 598T350 612Q306 612 267 596T197 542T149 444T131 296Q173 338 222 362T327 386Q419
386 473 336T527 188Q527 144 511 108T466 45T401 3T323 -12ZM325 26Q359 26 387 38T437 73T470 124T482 188Q482 264 442 306T321 348Q280 348 230 326T132 251Q136 200 149 159T186 88T244 42T325 26Z" />
<glyph unicode="7" glyph-name="seven" d="M245 0Q249 97 263 177T304 327T373 464T472 600H74V639H528V613Q462 537 419 467T349 325T310 174T294 0H245Z" />
<glyph unicode="8" glyph-name="eight" d="M304 -12Q251 -12 208 1T135 38T89 94T72 164Q72 199 85 227T119 276T166 314T220 343V347Q180 370 150 407T120 495Q120 529 134 558T172 607T231 639T305 651Q351 651 387 639T448 604T485 551T498 484Q498 438 469
396T396 324V320Q423 306 447 292T488 259T516 215T526 155Q526 120 511 90T468 37T398 1T304 -12ZM357 335Q455 401 455 483Q455 510 446 533T417 575T370 603T305 614Q241 614 202 581T163 495Q163 461 178 437T220 394T282 361T357 335ZM305 25Q348 25 381 35T436
63T469 105T481 156Q481 196 463 222T414 266T342 298T254 327Q224 313 199 297T156 262T127 220T116 166Q116 136 129 111T166 66T226 36T305 25Z" />
<glyph unicode="9" glyph-name="nine" d="M280 291Q324 291 374 314T470 389Q466 440 453 481T416 551T358 597T277 613Q243 613 214 601T164 567T131 516T119 452Q119 376 159 334T280 291ZM252 -12Q198 -12 159 5T88 50L115 80Q171 27 252 27Q295 27 335 43T405
97T453 195T471 343Q429 302 380 278T275 254Q182 254 129 304T75 452Q75 495 91 532T136 595T200 636T278 651Q387 651 451 574T515 350Q515 249 493 180T435 69T351 7T252 -12Z" />
<glyph unicode=":" glyph-name="colon" d="M300 366Q277 366 259 383T240 431Q240 463 258 479T300 496Q323 496 341 480T360 431Q360 400 342 383T300 366ZM300 -12Q277 -12 259 5T240 53Q240 85 258 101T300 118Q323 118 341 102T360 53Q360 22 342 5T300 -12Z" />
<glyph unicode=";" glyph-name="semicolon" d="M300 366Q277 366 259 383T240 431Q240 463 258 479T300 496Q323 496 341 480T360 431Q360 400 342 383T300 366ZM221 -211L205 -179Q265 -149 296 -106T329 3Q317 0 306 0Q280 0 263 14T246 59Q246 90 264 104T306
119Q341 119 358 92T376 17Q376 -68 334 -124T221 -211Z" />
<glyph unicode="&lt;" glyph-name="less" d="M488 58L123 312V352L488 606V558L166 334V330L488 106V58Z" />
<glyph unicode="=" glyph-name="equal" d="M95 413V451H505V413H95ZM95 466V504H505V466H95Z" />
<glyph unicode="&gt;" glyph-name="greater" d="M112 58V106L434 330V334L112 558V606L477 352V312L112 58Z" />
<glyph unicode="?" glyph-name="question" d="M257 219Q250 256 260 285T288 338T330 383T374 427T409 472T423 526Q423 550 415 571T391 608T350 633T291 643Q249 643 212 627T145 579L116 606Q148 638 192 660T294 682Q335 682 367 671T421 639T456 590T468
530Q468 495 454 468T419 418T375 374T332 330T303 280T297 219H257ZM286 -12Q263 -12 246 4T228 51Q228 82 245 98T286 114Q309 114 326 98T344 51Q344 21 327 5T286 -12Z" />
<glyph unicode="@" glyph-name="at" d="M342 -143Q283 -143 232 -117T143 -41T82 82T60 249Q60 340 82 411T143 531T235 605T350 630Q399 630 435 612T495 563T531 489T543 396V100H511L506 162H502Q490 148 474 135T440 112T402 95T363 88Q337 88 314 96T272
120T244 159T233 214Q233 287 301 327T506 384V398Q506 438 497 474T469 537T419 579T346 595Q295 595 250 572T172 504T119 394T100 246Q100 164 118 99T168 -12T244 -82T342 -107Q387 -107 423 -95T488 -59L508 -87Q471 -115 431 -129T342 -143ZM370 124Q400
124 435 144T504 204V351Q381 334 328 301T274 214Q274 171 300 148T370 124Z" />
<glyph unicode="A" glyph-name="A" d="M225 388L183 265H417L375 388Q355 447 337 501T302 616H298Q281 555 263 501T225 388ZM45 0L277 659H323L555 0H506L430 226H169L91 0H45Z" />
<glyph unicode="B" glyph-name="B" d="M114 0V659H281Q384 659 440 621T497 499Q497 447 468 409T380 355V351Q454 340 496 301T538 192Q538 96 474 48T294 0H114ZM160 370H263Q364 370 407 402T451 497Q451 563 407 591T268 620H160V370ZM160 39H282Q383 39 437
75T492 192Q492 263 438 296T282 330H160V39Z" />
<glyph unicode="C" glyph-name="C" d="M348 -12Q287 -12 237 12T150 80T93 188T72 331Q72 409 92 472T150 579T239 647T355 671Q412 671 456 647T526 592L498 562Q472 592 436 610T355 629Q301 629 258 608T184 549T137 455T120 331Q120 262 136 207T183 112T256
52T352 30Q403 30 442 50T517 111L545 82Q507 38 460 13T348 -12Z" />
<glyph unicode="D" glyph-name="D" d="M96 0V659H248Q324 659 380 636T473 570T528 467T546 332Q546 257 528 196T473 91T381 24T249 0H96ZM142 39H244Q310 39 358 60T437 121T483 213T498 332Q498 396 483 449T437 540T358 599T244 620H142V39Z" />
<glyph unicode="E" glyph-name="E" d="M127 0V659H517V619H173V370H463V330H173V40H527V0H127Z" />
<glyph unicode="F" glyph-name="F" d="M150 0V659H535V619H196V357H481V317H196V0H150Z" />
<glyph unicode="G" glyph-name="G" d="M334 -12Q272 -12 222 12T135 80T79 188T59 331Q59 409 79 472T137 579T227 647T343 671Q376 671 402 664T450 646T488 620T518 592L491 562Q466 590 431 609T343 629Q289 629 245 608T171 549T124 455T107 331Q107 262 122
207T168 112T240 52T337 30Q381 30 419 43T480 80V285H328V324H525V63Q495 30 447 9T334 -12Z" />
<glyph unicode="H" glyph-name="H" d="M89 0V659H135V370H465V659H511V0H465V330H135V0H89Z" />
<glyph unicode="I" glyph-name="I" d="M107 0V40H277V619H107V659H493V619H323V40H493V0H107Z" />
<glyph unicode="J" glyph-name="J" d="M277 -12Q222 -12 172 15T93 98L126 125Q155 75 195 53T277 30Q360 30 397 73T434 208V621H147V660H480V204Q480 159 470 120T436 51T373 5T277 -12Z" />
<glyph unicode="K" glyph-name="K" d="M115 0V659H162V293H164L489 659H544L329 416L571 0H518L298 381L162 227V0H115Z" />
<glyph unicode="L" glyph-name="L" d="M150 0V659H194V40H539V0H150Z" />
<glyph unicode="M" glyph-name="M" d="M81 0V659H142L257 350L298 235H302L341 350L458 659H519V0H474V450Q474 485 476 528T480 606H477L441 493L317 175H281L159 493L120 606H118Q119 572 122 529T125 450V0H81Z" />
<glyph unicode="N" glyph-name="N" d="M92 0V659H141L398 193L468 63H470Q469 111 467 158T464 254V659H508V0H459L202 466L132 596H130Q131 548 133 503T136 409V0H92Z" />
<glyph unicode="O" glyph-name="O" d="M300 -12Q246 -12 201 12T123 81T72 189T54 332Q54 410 72 473T123 580T201 647T300 671Q354 671 399 648T477 580T528 473T546 332Q546 253 528 190T477 81T399 12T300 -12ZM300 30Q344 30 380 51T443 112T483 207T498 332Q498
401 484 456T443 549T381 608T300 629Q256 629 220 609T157 550T117 456T102 332Q102 263 116 207T157 112T219 52T300 30Z" />
<glyph unicode="P" glyph-name="P" d="M118 0V659H297Q352 659 395 650T469 618T516 561T532 475Q532 378 470 331T297 283H164V0H118ZM164 322H286Q387 322 436 358T485 475Q485 517 473 544T436 589T374 613T286 620H164V322Z" />
<glyph unicode="Q" glyph-name="Q" d="M300 27Q345 27 381 48T442 110T482 206T496 332Q496 401 482 456T443 551T381 611T300 632Q255 632 219 611T157 551T118 457T104 332Q104 263 117 207T156 110T218 49T300 27ZM477 -153Q436 -153 404 -142T346 -112T304
-67T275 -11Q226 -5 186 21T118 92T73 197T57 332Q57 410 74 473T124 580T201 648T300 672Q354 672 399 649T476 581T525 473T543 332Q543 258 528 198T484 93T415 23T326 -10Q343 -58 382 -84T482 -110Q511 -110 529 -102L538 -144Q506 -153 477 -153Z" />
<glyph unicode="R" glyph-name="R" d="M117 0V659H305Q354 659 394 650T462 619T506 565T522 485Q522 406 477 362T353 306L535 0H481L303 303H163V0H117ZM163 341H293Q381 341 428 376T475 485Q475 559 428 589T293 620H163V341Z" />
<glyph unicode="S" glyph-name="S" d="M309 -12Q233 -12 176 15T76 87L106 119Q144 78 196 54T310 30Q390 30 436 66T483 161Q483 192 473 213T445 250T404 277T354 300L255 345Q232 354 207 367T160 399T125 445T111 509Q111 545 126 574T168 625T232 659T312
671Q375 671 424 648T506 592L479 562Q448 592 407 610T311 629Q242 629 200 597T157 511Q157 482 169 462T199 428T239 403T281 384L380 340Q410 328 437 313T484 278T517 231T529 165Q529 127 514 95T469 39T400 2T309 -12Z" />
<glyph unicode="T" glyph-name="T" d="M277 0V619H48V659H552V619H323V0H277Z" />
<glyph unicode="U" glyph-name="U" d="M300 -12Q259 -12 221 0T153 42T107 122T89 247V659H135V252Q135 188 148 146T184 78T237 41T300 30Q334 30 364 41T418 77T454 145T468 252V659H511V247Q511 172 494 122T447 43T380 1T300 -12Z" />
<glyph unicode="V" glyph-name="V" d="M276 0L59 659H108L230 274Q239 244 247 217T264 164T280 110T299 53H303Q323 113 338 163T373 274L495 659H541L326 0H276Z" />
<glyph unicode="W" glyph-name="W" d="M122 0L14 660H60L130 209Q135 169 140 132T150 53H153Q164 95 174 132T196 209L278 488H325L407 209Q418 169 428 132T450 53H454Q459 95 464 132T474 209L541 660H586L480 0H421L330 313Q322 342 316 370T302 428H299Q291
399 285 371T269 313L181 0H122Z" />
<glyph unicode="X" glyph-name="X" d="M75 0L274 341L89 659H139L248 465Q262 442 273 422T302 375H306Q320 402 331 422T355 465L464 659H511L326 339L525 0H475L359 202Q345 227 331 252T299 307H295Q278 277 265 252T238 202L122 0H75Z" />
<glyph unicode="Y" glyph-name="Y" d="M277 0V242L51 659H98L215 441Q238 403 257 365T300 286H304Q327 326 348 365T390 442L504 659H549L323 242V0H277Z" />
<glyph unicode="Z" glyph-name="Z" d="M70 0V28L473 621H104V660H528V632L125 40H535V0H70Z" />
<glyph unicode="[" glyph-name="bracketleft" d="M240 -152V708H505V679H279V-123H505V-152H240Z" />
<glyph unicode="\" glyph-name="backslash" d="M441 -160L114 710H159L486 -160H441Z" />
<glyph unicode="]" glyph-name="bracketright" d="M95 -152V-123H321V679H95V708H360V-152H95Z" />
<glyph unicode="^" glyph-name="asciicircum" d="M126 290L277 670H323L474 290H431L353 493L302 626H298L247 493L169 290H126Z" />
<glyph unicode="_" glyph-name="underscore" d="M60 -125V-79H540V-125H60Z" />
<glyph unicode="`" glyph-name="grave" d="M331 572L187 723L221 754L355 595L331 572Z" />
<glyph unicode="a" glyph-name="a" d="M259 -12Q227 -12 197 -4T143 20T106 61T92 120Q92 160 113 190T178 242T292 278T460 301Q460 331 453 358T430 407T386 440T317 453Q290 453 264 447T214 431T170 410T135 388L115 421Q129 431 151 443T201 466T259 484T322
492Q370 492 404 478T461 438T493 380T504 307V0H467L462 72H460Q418 39 366 14T259 -12ZM267 26Q358 26 460 113V267Q368 259 307 246T207 215T153 174T137 122Q137 96 148 78T177 49T219 32T267 26Z" />
<glyph unicode="b" glyph-name="b" d="M310 -12Q273 -12 229 6T149 54H147L142 0H105V719H150V511L147 408H149Q186 446 234 469T329 492Q431 492 482 426T533 247Q533 186 515 138T466 57T395 6T310 -12ZM308 27Q347 27 379 43T435 88T472 157T486 247Q486 291
477 329T449 394T398 437T322 453Q284 453 240 432T150 365V98Q192 60 235 44T308 27Z" />
<glyph unicode="c" glyph-name="c" d="M347 -12Q291 -12 244 5T161 54T107 132T87 239Q87 299 107 346T164 426T247 475T349 492Q409 492 450 470T522 419L496 389Q465 418 430 435T350 453Q302 453 262 438T194 394T150 326T134 239Q134 192 149 153T193 86T261
43T349 27Q398 27 438 46T511 96L534 65Q496 30 450 9T347 -12Z" />
<glyph unicode="d" glyph-name="d" d="M279 -12Q232 -12 193 4T126 53T83 131T67 239Q67 297 85 344T135 424T207 474T293 492Q339 492 377 474T451 424H453L450 521V719H495V0H457L452 71H450Q418 38 374 13T279 -12ZM285 27Q327 27 368 50T450 115V382Q409 421
372 437T296 453Q258 453 225 437T167 392T128 324T114 239Q114 191 125 152T159 86T213 43T285 27Z" />
<glyph unicode="e" glyph-name="e" d="M330 -12Q278 -12 232 5T152 54T97 134T77 240Q77 298 97 345T150 424T226 474T317 492Q366 492 406 477T474 433T517 363T532 270Q532 261 532 252T530 233H122Q123 183 140 144T187 79T253 40T333 26Q382 26 421 40T494
78L512 45Q480 23 437 6T330 -12ZM318 454Q283 454 251 442T192 407T147 349T124 271H492Q487 364 439 409T318 454Z" />
<glyph unicode="f" glyph-name="f" d="M260 0V442H115V476L260 480V538Q260 629 304 680T439 731Q471 731 504 725T574 702L560 668Q526 683 501 688T442 693Q404 693 378 682T334 651T310 604T302 542V480H525V442H302V0H260Z" />
<glyph unicode="g" glyph-name="g" d="M308 -231Q195 -231 140 -193T84 -92Q84 -63 105 -33T165 21V25Q147 34 131 53T115 102Q115 125 129 149T173 193V197Q150 216 133 246T116 321Q116 358 130 389T168 443T225 479T295 492Q332 492 361 480H561V442H416Q438
420 455 389T472 320Q472 283 458 253T420 200T364 166T295 153Q273 153 250 158T204 175Q183 162 170 145T157 108Q157 73 187 57T268 41H387Q479 41 520 17T562 -67Q562 -98 544 -127T493 -180T413 -217T308 -231ZM295 188Q322 188 346 197T389 224T417 266T428
321Q428 350 418 374T389 417T347 445T295 455Q267 455 243 445T200 417T172 375T161 321Q161 291 171 267T200 225T242 198T295 188ZM305 -195Q354 -195 393 -184T460 -156T501 -117T516 -72Q516 -31 485 -16T391 -1H277Q259 -1 240 1T204 8Q160 -15 143 -41T126
-93Q126 -137 170 -166T305 -195Z" />
<glyph unicode="h" glyph-name="h" d="M105 0V719H150V511L147 385H149Q192 432 238 462T341 492Q514 492 514 299V0H469V293Q469 374 438 413T334 452Q308 452 286 446T243 426T199 392T150 344V0H105Z" />
<glyph unicode="i" glyph-name="i" d="M338 0V442H97V480H382V0H338ZM349 597Q329 597 316 609T302 645Q302 667 315 680T349 693Q369 693 382 680T396 645Q396 622 383 610T349 597Z" />
<glyph unicode="j" glyph-name="j" d="M194 -229Q160 -229 125 -220T63 -197L81 -162Q105 -174 135 -182T197 -191Q239 -191 266 -181T309 -151T331 -104T338 -43V442H97V480H382V-37Q382 -81 373 -116T342 -177T284 -215T194 -229ZM349 597Q329 597 316 609T302
645Q302 667 315 680T349 693Q369 693 382 680T396 645Q396 622 383 610T349 597Z" />
<glyph unicode="k" glyph-name="k" d="M123 0V719H168V191H172L480 480H535L338 295L567 0H516L308 267L168 136V0H123Z" />
<glyph unicode="l" glyph-name="l" d="M414 -12Q345 -12 308 25T271 145V681H89V719H315V139Q315 82 342 55T420 27Q468 27 519 52L533 18Q502 3 476 -4T414 -12Z" />
<glyph unicode="m" glyph-name="m" d="M74 0V480H111L116 415H118Q139 450 163 471T229 492Q305 492 324 407Q350 448 375 470T442 492Q493 492 519 456T546 348V0H502V343Q502 452 433 452Q401 452 378 430T331 362V0H289V343Q289 452 221 452Q188 452 165 430T118
362V0H74Z" />
<glyph unicode="n" glyph-name="n" d="M105 0V480H143L148 388H152Q194 433 238 462T341 492Q514 492 514 299V0H469V293Q469 374 438 413T334 452Q308 452 286 446T243 426T199 392T150 344V0H105Z" />
<glyph unicode="o" glyph-name="o" d="M300 -12Q253 -12 211 5T136 54T86 132T67 239Q67 299 85 346T136 426T210 475T300 492Q347 492 389 475T464 426T514 347T533 239Q533 179 515 133T464 54T390 5T300 -12ZM300 27Q340 27 374 42T433 86T472 153T486 239Q486
287 472 326T434 393T375 437T300 453Q259 453 225 438T167 394T128 326T114 239Q114 192 128 153T166 86T225 43T300 27Z" />
<glyph unicode="p" glyph-name="p" d="M105 -217V480H143L148 411H150Q186 446 234 469T329 492Q431 492 482 426T533 247Q533 186 515 138T466 57T394 6T308 -12Q273 -12 229 6T149 56H147L150 -42V-217H105ZM306 27Q345 27 378 43T435 88T472 157T486 247Q486
291 477 329T449 394T398 437T322 453Q284 453 240 432T150 365V98Q192 60 234 44T306 27Z" />
<glyph unicode="q" glyph-name="q" d="M450 -217V-24L453 72H451Q417 37 374 13T279 -12Q232 -12 193 4T126 53T83 131T67 239Q67 297 85 344T135 424T207 474T293 492Q340 492 377 475T451 425H453L458 480H495V-217H450ZM285 27Q327 27 368 50T450 115V382Q409
421 372 437T296 453Q258 453 225 437T167 392T128 324T114 239Q114 191 125 152T159 86T213 43T285 27Z" />
<glyph unicode="r" glyph-name="r" d="M163 0V480H201L206 362H208Q247 419 304 455T434 492Q458 492 482 488T530 472L518 433Q492 442 474 446T427 450Q367 450 313 416T208 300V0H163Z" />
<glyph unicode="s" glyph-name="s" d="M319 -12Q244 -12 185 11T82 64L105 96Q146 65 196 46T323 26Q397 26 434 54T471 121Q471 137 466 151T444 179T393 205T302 230Q210 248 160 279T110 364Q110 390 121 413T155 454T214 482T298 492Q346 492 396 475T482
433L458 401Q426 425 385 439T295 454Q256 454 229 447T186 427T163 400T156 367Q156 329 194 307T314 268Q376 255 415 241T477 210T508 171T517 123Q517 96 504 72T466 29T403 -1T319 -12Z" />
<glyph unicode="t" glyph-name="t" d="M397 -12Q347 -12 314 2T262 41T234 101T225 180V442H80V476L226 480L232 639H269V480H525V442H269V176Q269 141 275 114T296 67T337 37T403 27Q441 27 471 33T531 52L543 18Q510 4 476 -4T397 -12Z" />
<glyph unicode="u" glyph-name="u" d="M259 -12Q87 -12 87 181V480H131V187Q131 106 162 67T266 28Q291 28 314 34T359 54T403 88T450 137V480H494V0H457L452 93H448Q409 47 363 18T259 -12Z" />
<glyph unicode="v" glyph-name="v" d="M278 0L62 480H108L240 179Q273 107 300 41H304Q318 74 332 108T362 179L495 480H538L325 0H278Z" />
<glyph unicode="w" glyph-name="w" d="M134 0L11 480H58L134 169Q142 136 149 105T163 41H167Q174 73 182 104T198 169L275 472H328L404 169Q412 136 420 105T436 41H440Q448 73 455 104T470 169L545 480H589L468 0H408L333 290Q325 322 318 356T302 428H298Q290
390 283 356T267 289L194 0H134Z" />
<glyph unicode="x" glyph-name="x" d="M80 0L272 249L96 480H146L239 358Q253 338 268 318T299 277H303Q319 297 335 318T366 360L456 480H505L326 247L520 0H469L367 130Q351 150 334 174T299 219H295Q278 196 262 175T228 129L129 0H80Z" />
<glyph unicode="y" glyph-name="y" d="M125 -219Q110 -219 94 -217T67 -209L79 -170Q88 -173 100 -175T126 -178Q182 -178 218 -142T276 -51L293 -9L60 480H106L246 178Q260 148 277 112T312 43H316Q330 75 344 111T372 178L497 480H540L314 -60Q303 -90 287 -119T247
-170T194 -205T125 -219Z" />
<glyph unicode="z" glyph-name="z" d="M72 0V24L448 442H112V480H515V457L139 39H526V0H72Z" />
<glyph unicode="{" glyph-name="braceleft" d="M453 -152Q361 -152 315 -126T269 -24Q269 32 273 80T278 182Q278 197 272 211T250 237T205 255T129 262V294Q175 294 204 301T250 319T272 344T278 374Q278 422 274 475T269 580Q269 655 315 681T453 708H505V679H447Q405
679 378 673T336 654T316 622T310 576Q310 531 313 482T317 384Q317 340 300 315T232 280V276Q282 267 299 242T317 172Q317 118 314 74T310 -20Q310 -47 315 -66T336 -98T378 -117T447 -123H505V-152H453Z" />
<glyph unicode="|" glyph-name="bar" d="M280 -250V750H320V-250H280Z" />
<glyph unicode="}" glyph-name="braceright" d="M95 -152V-123H153Q195 -123 222 -117T264 -98T286 -66T292 -20Q292 30 288 74T284 172Q284 216 301 241T369 276V280Q318 289 301 314T284 384Q284 432 288 481T292 576Q292 603 286 622T265 654T222 673T153 679H95V708H147Q240
708 285 682T330 580Q330 529 326 476T322 374Q322 359 328 345T350 319T395 301T470 294V262Q424 262 395 255T350 237T328 212T322 182Q322 129 326 81T330 -24Q330 -99 285 -125T147 -152H95Z" />
<glyph unicode="~" glyph-name="asciitilde" d="M389 266Q360 266 337 280T292 311T251 342T209 356Q196 356 185 353T163 341T142 314T122 267L91 279Q113 346 145 370T211 394Q239 394 263 380T308 349T349 318T391 304Q404 304 415 307T437 319T458 345T478
393L509 379Q487 314 455 290T389 266Z" />
<glyph unicode="&#xa0;" glyph-name="uni00A0" />
<glyph unicode="&#xa1;" glyph-name="exclamdown" d="M279 -190V-119L284 261H316L321 -119V-190H279ZM300 366Q277 366 260 382T242 429Q242 460 259 476T300 492Q323 492 340 476T358 429Q358 398 341 382T300 366Z" />
<glyph unicode="&#xa2;" glyph-name="cent" d="M168 311Q168 233 207 182T315 121V502Q283 497 256 481T210 440T179 383T168 311ZM315 -28V81Q273 85 238 102T177 148T137 219T122 311Q122 363 137 403T178 473T240 519T315 541V652H350V543Q397 541 429 524T484
483L460 455Q437 476 410 490T350 504V119Q387 121 418 136T473 173L496 144Q467 118 431 100T350 80V-28H315Z" />
<glyph unicode="&#xa3;" glyph-name="sterling" d="M85 0V27Q154 59 183 111T212 221Q212 240 209 258T201 293H81V326L189 329Q176 367 163 404T150 481Q150 560 203 605T349 651Q411 651 451 630T518 580L489 553Q464 578 431 595T347 612Q309 612 280 602T232
574T202 532T192 481Q192 441 205 405T232 329H433V293H243Q247 276 249 259T252 221Q252 159 231 118T169 44V40H520V0H85Z" />
<glyph unicode="&#xa4;" glyph-name="currency" d="M98 94L71 122L157 209Q139 233 129 263T119 328Q119 365 129 395T156 450L71 538L98 566L184 477Q207 498 237 509T300 521Q332 521 362 510T416 477L502 566L529 538L443 450Q460 426 470 396T481 328Q481
293 471 263T443 209L529 122L502 94L416 182Q393 160 363 149T300 137Q233 137 183 182L98 94ZM300 174Q328 174 352 185T396 217T426 265T437 328Q437 362 426 391T396 440T353 472T300 484Q272 484 247 473T204 441T174 391T163 328Q163 294 174 266T203 217T247
186T300 174Z" />
<glyph unicode="&#xa5;" glyph-name="yen" d="M277 0V165H88V199H277V270H88V303H263L65 639H112L222 446Q241 413 259 380T298 309H302Q322 346 341 379T380 446L491 639H535L335 303H512V270H321V199H512V165H321V0H277Z" />
<glyph unicode="&#xa6;" glyph-name="brokenbar" d="M280 -250V190H320V-250H280ZM280 310V750H320V310H280Z" />
<glyph unicode="&#xa7;" glyph-name="section" d="M294 -52Q239 -52 197 -35T124 11L154 39Q181 15 212 0T294 -15Q340 -15 367 10T394 70Q394 104 373 125T319 163T248 193T178 228T124 277T102 352Q102 401 130 432T200 483Q184 499 175 518T166 564Q166 585
174 606T199 643T241 670T302 681Q347 681 384 666T451 628L427 597Q401 617 373 630T303 643Q252 643 231 620T209 567Q209 534 230 514T284 477T353 446T423 411T476 360T498 284Q498 234 471 205T403 155Q418 139 427 119T436 72Q436 45 425 22T394 -17T348
-43T294 -52ZM143 355Q143 316 166 292T225 249T299 216T372 180Q413 197 435 218T457 281Q457 321 434 346T376 390T302 424T230 460Q191 440 167 417T143 355Z" />
<glyph unicode="&#xa8;" glyph-name="dieresis" d="M211 598Q194 598 183 610T171 640Q171 657 182 669T211 681Q228 681 239 669T251 640Q251 623 240 611T211 598ZM389 598Q372 598 361 610T349 640Q349 657 360 669T389 681Q406 681 417 669T429 640Q429 623
418 611T389 598Z" />
<glyph unicode="&#xa9;" glyph-name="copyright" d="M300 -12Q242 -12 194 12T111 79T57 184T37 322Q37 398 56 459T111 563T194 629T300 652Q358 652 406 629T489 563T543 459T563 322Q563 246 544 185T489 80T406 12T300 -12ZM300 19Q351 19 393 41T465 102T511
198T528 322Q528 390 512 445T465 540T393 600T300 622Q249 622 207 601T135 540T89 446T72 322Q72 254 88 198T135 103T207 41T300 19ZM305 124Q273 124 245 137T196 176T163 238T150 322Q150 365 163 400T198 459T249 496T310 509Q344 509 367 497T410 464L388
438Q369 455 352 463T310 472Q284 472 263 461T226 431T202 384T193 322Q193 247 224 204T307 161Q337 161 359 172T401 201L420 173Q397 153 372 139T305 124Z" />
<glyph unicode="&#xaa;" glyph-name="ordfeminine" d="M277 398Q235 398 205 420T174 486Q174 540 228 567T397 605Q397 623 393 640T380 670T356 690T316 698Q283 698 255 686T206 662L189 690Q209 703 244 717T321 731Q383 731 410 696T437 606V406H403L400
446H399Q373 426 342 412T277 398ZM286 431Q314 431 341 443T397 478V577Q297 566 256 545T214 489Q214 458 235 445T286 431Z" />
<glyph unicode="&#xab;" glyph-name="guillemotleft" d="M505 68L363 231V273L505 436L530 413L404 252L530 89L505 68ZM456 68L314 231V273L456 436L481 413L355 252L481 89L456 68Z" />
<glyph unicode="&#xac;" glyph-name="logicalnot" d="M464 110V311H95V349H505V110H464Z" />
<glyph unicode="&#xad;" glyph-name="uni00AD" d="M95 311V349H505V311H95Z" />
<glyph unicode="&#xae;" glyph-name="registered" d="M300 324Q263 324 230 338T172 377T133 437T118 517Q118 561 132 597T172 658T230 698T300 712Q337 712 370 698T428 659T467 597T482 517Q482 473 468 438T428 377T370 338T300 324ZM300 353Q331 353 359
365T407 399T439 451T451 517Q451 553 439 583T407 636T359 671T300 684Q268 684 241 672T193 637T161 584T149 517Q149 481 161 451T193 400T240 366T300 353ZM232 418V624H301Q316 624 329 621T354 611T371 591T378 560Q378 541 367 525T338 504L387 418H350L311
494H264V418H232ZM264 521H293Q316 521 330 529T344 558Q344 575 334 585T296 596H264V521Z" />
<glyph unicode="&#xaf;" glyph-name="overscore" d="M177 606V642H423V606H177Z" />
<glyph unicode="&#xb0;" glyph-name="degree" d="M300 447Q278 447 258 455T221 478T196 515T186 565Q186 593 195 615T221 652T257 676T300 684Q322 684 342 676T379 653T404 615T414 565Q414 537 405 515T379 478T343 455T300 447ZM300 479Q335 479 357 503T380
565Q380 603 358 628T300 653Q265 653 243 628T220 565Q220 528 242 504T300 479Z" />
<glyph unicode="&#xb1;" glyph-name="plusminus" d="M279 109V310H95V347H279V550H321V347H505V310H321V109H279ZM95 0V37H505V0H95Z" />
<glyph unicode="&#xb2;" glyph-name="two.sups" d="M166 406L165 431Q219 480 259 515T325 579T365 632T378 681Q378 724 352 749T282 774Q252 774 225 756T181 712L156 735Q175 766 210 787T286 808Q345 808 381 778T417 685Q417 654 403 627T363 571T303 511T228
440H440V406H166Z" />
<glyph unicode="&#xb3;" glyph-name="three.sups" d="M296 394Q247 394 209 416T149 469L178 491Q197 462 228 445T297 427Q338 427 368 448T398 510Q398 548 362 569T250 590V618Q320 618 351 643T382 702Q382 734 357 754T289 775Q263 775 237 761T190 723L165
745Q187 773 219 790T293 808Q320 808 343 801T383 781T411 749T421 705Q421 668 400 644T336 606Q381 600 409 576T437 509Q437 482 426 461T396 425T352 402T296 394Z" />
<glyph unicode="&#xb4;" glyph-name="acute" d="M269 572L245 595L379 754L413 723L269 572Z" />
<glyph unicode="&#xb5;" glyph-name="uni00B5" d="M96 -182V480H140V187Q140 112 169 70T264 28Q285 28 306 32T350 48T394 85T441 149V480H485Q484 374 483 268T482 58Q482 42 489 35T506 27Q509 27 512 27T524 29L531 -7Q524 -9 517 -10T500 -12Q468 -12 455
10T443 99H441Q406 41 361 15T267 -11Q225 -11 192 2T135 58Q135 15 135 -16T136 -73T137 -124T140 -182H96Z" />
<glyph unicode="&#xb6;" glyph-name="paragraph" d="M336 244Q280 244 235 255T156 291T105 355T87 451Q87 507 104 546T151 611T225 647T319 659H363V244H336ZM419 -80V659H461V-80H419Z" />
<glyph unicode="&#xb7;" glyph-name="middot" d="M300 278Q277 278 259 295T240 343Q240 375 258 391T300 408Q323 408 341 392T360 343Q360 312 342 295T300 278Z" />
<glyph unicode="&#xb8;" glyph-name="cedilla" d="M223 -219L216 -189Q281 -185 305 -172T329 -136Q329 -114 311 -103T251 -85L285 7H320L297 -65Q329 -73 348 -88T368 -134Q368 -173 331 -193T223 -219Z" />
<glyph unicode="&#xb9;" glyph-name="one.sups" d="M180 406V440H305V730H203V757Q239 762 264 771T310 796H343V440H461V406H180Z" />
<glyph unicode="&#xba;" glyph-name="ordmasculine" d="M300 398Q269 398 242 409T193 441T160 494T148 565Q148 605 160 636T193 688T241 720T300 731Q331 731 358 720T407 688T440 636T452 565Q452 525 440 494T407 442T359 409T300 398ZM300 432Q349 432 379
468T410 565Q410 624 380 661T300 698Q251 698 221 661T190 565Q190 505 220 469T300 432Z" />
<glyph unicode="&#xbb;" glyph-name="guillemotright" d="M401 68L376 89L502 252L376 413L401 436L543 273V231L401 68ZM352 68L327 89L453 252L327 413L352 436L494 273V231L352 68Z" />
<glyph unicode="&#xbc;" glyph-name="onequarter" d="M158 338V579H76V608Q106 613 126 620T165 639H196V338H158ZM67 35L35 63L216 260L238 240L67 35ZM384 399L362 419L533 624L565 596L384 399ZM479 0V81H316V101L440 313L468 298L359 110H479V212H515V110H565V81H515V0H479Z"
/>
<glyph unicode="&#xbd;" glyph-name="onehalf" d="M158 338V579H76V608Q106 613 126 620T165 639H196V338H158ZM67 35L35 63L216 260L238 240L67 35ZM384 399L362 419L533 624L565 596L384 399ZM330 0V24Q374 60 406 86T459 134T490 174T500 212Q500 244 482 262T430
280Q406 280 385 267T349 234L322 255Q342 279 370 296T432 313Q483 313 511 288T539 213Q539 191 528 170T498 128T452 83T395 33H556V0H330Z" />
<glyph unicode="&#xbe;" glyph-name="threequarters" d="M159 326Q122 326 89 344T37 387L64 411Q79 388 104 373T160 358Q192 358 212 371T233 416Q233 477 124 477V505Q173 505 195 523T218 567Q218 590 203 604T153 619Q135 619 113 609T75 581L52 604Q69 626
97 638T158 651Q203 651 230 631T257 570Q257 514 199 493Q230 487 251 468T272 415Q272 370 240 348T159 326ZM103 35L71 63L252 260L274 240L103 35ZM420 399L398 419L569 624L601 596L420 399ZM479 0V81H316V101L440 313L468 298L359 110H479V212H515V110H565V81H515V0H479Z"
/>
<glyph unicode="&#xbf;" glyph-name="questiondown" d="M306 -202Q265 -202 233 -191T179 -159T144 -110T132 -50Q132 -15 146 12T181 62T225 106T268 150T297 199T303 261H343Q350 224 340 195T312 142T270 97T226 53T191 7T177 -46Q177 -70 185 -91T209 -128T250
-153T309 -163Q351 -163 388 -146T455 -99L484 -126Q452 -158 408 -180T306 -202ZM314 366Q291 366 274 382T256 429Q256 460 273 476T314 492Q337 492 354 476T372 429Q372 398 355 382T314 366Z" />
<glyph unicode="&#xc0;" glyph-name="Agrave" d="M225 388L183 265H417L375 388Q355 447 337 501T302 616H298Q281 555 263 501T225 388ZM45 0L277 659H323L555 0H506L430 226H169L91 0H45ZM324 706L191 819L220 852L344 729L324 706Z" />
<glyph unicode="&#xc1;" glyph-name="Aacute" d="M225 388L183 265H417L375 388Q355 447 337 501T302 616H298Q281 555 263 501T225 388ZM45 0L277 659H323L555 0H506L430 226H169L91 0H45ZM276 706L256 729L380 852L409 819L276 706Z" />
<glyph unicode="&#xc2;" glyph-name="Acircumflex" d="M225 388L183 265H417L375 388Q355 447 337 501T302 616H298Q281 555 263 501T225 388ZM45 0L277 659H323L555 0H506L430 226H169L91 0H45ZM185 707L165 726L278 839H322L435 726L415 707L302 805H298L185 707Z" />
<glyph unicode="&#xc3;" glyph-name="Atilde" d="M225 388L183 265H417L375 388Q355 447 337 501T302 616H298Q281 555 263 501T225 388ZM45 0L277 659H323L555 0H506L430 226H169L91 0H45ZM377 718Q348 718 328 730T292 757T260 784T223 797Q201 797 186 777T168
721L135 724Q137 771 159 802T223 834Q252 834 272 822T308 795T340 768T377 755Q399 755 413 776T432 832L465 829Q463 782 441 750T377 718Z" />
<glyph unicode="&#xc4;" glyph-name="Adieresis" d="M225 388L183 265H417L375 388Q355 447 337 501T302 616H298Q281 555 263 501T225 388ZM45 0L277 659H323L555 0H506L430 226H169L91 0H45ZM220 725Q204 725 194 735T183 762Q183 779 193 789T220 799Q236 799
246 789T257 762Q257 745 247 735T220 725ZM380 725Q364 725 354 735T343 762Q343 779 353 789T380 799Q396 799 406 789T417 762Q417 745 407 735T380 725Z" />
<glyph unicode="&#xc5;" glyph-name="Aring" d="M225 388L183 265H417L375 388Q355 447 337 501T302 616H298Q281 555 263 501T225 388ZM45 0L277 659H323L555 0H506L430 226H169L91 0H45ZM300 700Q263 700 238 723T212 785Q212 825 237 848T300 871Q336 871 362
848T388 785Q388 747 362 724T300 700ZM300 726Q323 726 339 741T356 785Q356 814 340 829T300 845Q276 845 259 830T242 785Q242 756 259 741T300 726Z" />
<glyph unicode="&#xc6;" glyph-name="AE" d="M217 389L159 255H321V619H317Q293 562 268 506T217 389ZM0 0L291 659H579V619H365V370H528V330H365V40H589V0H321V217H143L50 0H0Z" />
<glyph unicode="&#xc7;" glyph-name="Ccedilla" d="M348 -12Q287 -12 237 12T150 80T93 188T72 331Q72 409 92 472T150 579T239 647T355 671Q412 671 456 647T526 592L498 562Q472 592 436 610T355 629Q301 629 258 608T184 549T137 455T120 331Q120 262 136 207T183
112T256 52T352 30Q403 30 442 50T517 111L545 82Q507 38 460 13T348 -12ZM277 -219L270 -189Q335 -185 359 -172T383 -136Q383 -114 365 -103T305 -85L339 7H374L351 -65Q383 -73 402 -88T422 -134Q422 -173 385 -193T277 -219Z" />
<glyph unicode="&#xc8;" glyph-name="Egrave" d="M127 0V659H517V619H173V370H463V330H173V40H527V0H127ZM360 706L227 819L256 852L380 729L360 706Z" />
<glyph unicode="&#xc9;" glyph-name="Eacute" d="M127 0V659H517V619H173V370H463V330H173V40H527V0H127ZM312 706L292 729L416 852L445 819L312 706Z" />
<glyph unicode="&#xca;" glyph-name="Ecircumflex" d="M127 0V659H517V619H173V370H463V330H173V40H527V0H127ZM221 707L201 726L314 839H358L471 726L451 707L338 805H334L221 707Z" />
<glyph unicode="&#xcb;" glyph-name="Edieresis" d="M127 0V659H517V619H173V370H463V330H173V40H527V0H127ZM256 725Q240 725 230 735T219 762Q219 779 229 789T256 799Q272 799 282 789T293 762Q293 745 283 735T256 725ZM416 725Q400 725 390 735T379 762Q379
779 389 789T416 799Q432 799 442 789T453 762Q453 745 443 735T416 725Z" />
<glyph unicode="&#xcc;" glyph-name="Igrave" d="M107 0V40H277V619H107V659H493V619H323V40H493V0H107ZM324 706L191 819L220 852L344 729L324 706Z" />
<glyph unicode="&#xcd;" glyph-name="Iacute" d="M107 0V40H277V619H107V659H493V619H323V40H493V0H107ZM276 706L256 729L380 852L409 819L276 706Z" />
<glyph unicode="&#xce;" glyph-name="Icircumflex" d="M107 0V40H277V619H107V659H493V619H323V40H493V0H107ZM185 707L165 726L278 839H322L435 726L415 707L302 805H298L185 707Z" />
<glyph unicode="&#xcf;" glyph-name="Idieresis" d="M107 0V40H277V619H107V659H493V619H323V40H493V0H107ZM220 725Q204 725 194 735T183 762Q183 779 193 789T220 799Q236 799 246 789T257 762Q257 745 247 735T220 725ZM380 725Q364 725 354 735T343 762Q343
779 353 789T380 799Q396 799 406 789T417 762Q417 745 407 735T380 725Z" />
<glyph unicode="&#xd0;" glyph-name="Eth" d="M96 0V331H19V364L96 369V659H248Q324 659 380 636T473 570T528 467T546 332Q546 257 528 196T473 91T380 24T249 0H96ZM142 39H244Q310 39 358 60T437 121T483 213T498 332Q498 396 483 449T437 540T358 599T244
620H142V369H307V331H142V39Z" />
<glyph unicode="&#xd1;" glyph-name="Ntilde" d="M92 0V659H141L398 193L468 63H470Q469 111 467 158T464 254V659H508V0H459L202 466L132 596H130Q131 548 133 503T136 409V0H92ZM387 718Q358 718 338 730T302 757T270 784T233 797Q211 797 196 777T178 721L145
724Q147 771 169 802T233 834Q262 834 282 822T318 795T350 768T387 755Q409 755 423 776T442 832L475 829Q473 782 451 750T387 718Z" />
<glyph unicode="&#xd2;" glyph-name="Ograve" d="M300 -12Q246 -12 201 12T123 81T72 189T54 332Q54 410 72 473T123 580T201 647T300 671Q354 671 399 648T477 580T528 473T546 332Q546 253 528 190T477 81T399 12T300 -12ZM300 30Q344 30 380 51T443 112T483
207T498 332Q498 401 484 456T443 549T381 608T300 629Q256 629 220 609T157 550T117 456T102 332Q102 263 116 207T157 112T219 52T300 30ZM324 706L191 819L220 852L344 729L324 706Z" />
<glyph unicode="&#xd3;" glyph-name="Oacute" d="M300 -12Q246 -12 201 12T123 81T72 189T54 332Q54 410 72 473T123 580T201 647T300 671Q354 671 399 648T477 580T528 473T546 332Q546 253 528 190T477 81T399 12T300 -12ZM300 30Q344 30 380 51T443 112T483
207T498 332Q498 401 484 456T443 549T381 608T300 629Q256 629 220 609T157 550T117 456T102 332Q102 263 116 207T157 112T219 52T300 30ZM276 706L256 729L380 852L409 819L276 706Z" />
<glyph unicode="&#xd4;" glyph-name="Ocircumflex" d="M300 -12Q246 -12 201 12T123 81T72 189T54 332Q54 410 72 473T123 580T201 647T300 671Q354 671 399 648T477 580T528 473T546 332Q546 253 528 190T477 81T399 12T300 -12ZM300 30Q344 30 380 51T443 112T483
207T498 332Q498 401 484 456T443 549T381 608T300 629Q256 629 220 609T157 550T117 456T102 332Q102 263 116 207T157 112T219 52T300 30ZM185 707L165 726L278 839H322L435 726L415 707L302 805H298L185 707Z" />
<glyph unicode="&#xd5;" glyph-name="Otilde" d="M300 -12Q246 -12 201 12T123 81T72 189T54 332Q54 410 72 473T123 580T201 647T300 671Q354 671 399 648T477 580T528 473T546 332Q546 253 528 190T477 81T399 12T300 -12ZM300 30Q344 30 380 51T443 112T483
207T498 332Q498 401 484 456T443 549T381 608T300 629Q256 629 220 609T157 550T117 456T102 332Q102 263 116 207T157 112T219 52T300 30ZM377 718Q348 718 328 730T292 757T260 784T223 797Q201 797 186 777T168 721L135 724Q137 771 159 802T223 834Q252 834
272 822T308 795T340 768T377 755Q399 755 413 776T432 832L465 829Q463 782 441 750T377 718Z" />
<glyph unicode="&#xd6;" glyph-name="Odieresis" d="M300 -12Q246 -12 201 12T123 81T72 189T54 332Q54 410 72 473T123 580T201 647T300 671Q354 671 399 648T477 580T528 473T546 332Q546 253 528 190T477 81T399 12T300 -12ZM300 30Q344 30 380 51T443 112T483
207T498 332Q498 401 484 456T443 549T381 608T300 629Q256 629 220 609T157 550T117 456T102 332Q102 263 116 207T157 112T219 52T300 30ZM220 725Q204 725 194 735T183 762Q183 779 193 789T220 799Q236 799 246 789T257 762Q257 745 247 735T220 725ZM380 725Q364
725 354 735T343 762Q343 779 353 789T380 799Q396 799 406 789T417 762Q417 745 407 735T380 725Z" />
<glyph unicode="&#xd7;" glyph-name="multiply" d="M139 135L112 163L274 330L112 497L139 525L300 356L461 525L488 497L327 330L488 163L461 135L300 303L139 135Z" />
<glyph unicode="&#xd8;" glyph-name="Oslash" d="M300 -12Q252 -12 212 7T139 61L83 -23L52 -2L115 92Q86 137 70 197T54 332Q54 410 72 473T123 580T201 647T300 671Q395 671 459 602L513 682L544 661L483 571Q513 527 529 467T546 332Q546 253 528 190T477 81T399
12T300 -12ZM102 332Q102 272 113 222T144 134L433 563Q381 629 300 629Q256 629 220 609T157 550T117 456T102 332ZM300 30Q344 30 380 51T443 112T483 207T498 332Q498 452 455 529L166 100Q192 66 225 48T300 30Z" />
<glyph unicode="&#xd9;" glyph-name="Ugrave" d="M300 -12Q259 -12 221 0T153 42T107 122T89 247V659H135V252Q135 188 148 146T184 78T237 41T300 30Q334 30 364 41T418 77T454 145T468 252V659H511V247Q511 172 494 122T447 43T380 1T300 -12ZM324 706L191 819L220
852L344 729L324 706Z" />
<glyph unicode="&#xda;" glyph-name="Uacute" d="M300 -12Q259 -12 221 0T153 42T107 122T89 247V659H135V252Q135 188 148 146T184 78T237 41T300 30Q334 30 364 41T418 77T454 145T468 252V659H511V247Q511 172 494 122T447 43T380 1T300 -12ZM276 706L256 729L380
852L409 819L276 706Z" />
<glyph unicode="&#xdb;" glyph-name="Ucircumflex" d="M300 -12Q259 -12 221 0T153 42T107 122T89 247V659H135V252Q135 188 148 146T184 78T237 41T300 30Q334 30 364 41T418 77T454 145T468 252V659H511V247Q511 172 494 122T447 43T380 1T300 -12ZM185 707L165
726L278 839H322L435 726L415 707L302 805H298L185 707Z" />
<glyph unicode="&#xdc;" glyph-name="Udieresis" d="M300 -12Q259 -12 221 0T153 42T107 122T89 247V659H135V252Q135 188 148 146T184 78T237 41T300 30Q334 30 364 41T418 77T454 145T468 252V659H511V247Q511 172 494 122T447 43T380 1T300 -12ZM220 725Q204
725 194 735T183 762Q183 779 193 789T220 799Q236 799 246 789T257 762Q257 745 247 735T220 725ZM380 725Q364 725 354 735T343 762Q343 779 353 789T380 799Q396 799 406 789T417 762Q417 745 407 735T380 725Z" />
<glyph unicode="&#xdd;" glyph-name="Yacute" d="M277 0V242L51 659H98L215 441Q238 403 257 365T300 286H304Q327 326 348 365T390 442L504 659H549L323 242V0H277ZM276 706L256 729L380 852L409 819L276 706Z" />
<glyph unicode="&#xde;" glyph-name="Thorn" d="M118 0V659H164V542H298Q353 542 396 532T470 501T517 444T533 358Q533 261 471 214T298 166H164V0H118ZM164 205H286Q388 205 436 241T485 358Q485 440 436 471T286 503H164V205Z" />
<glyph unicode="&#xdf;" glyph-name="germandbls" d="M403 -12Q360 -12 324 1T257 38L280 71Q310 48 339 37T403 26Q431 26 452 34T487 56T508 87T515 124Q515 159 498 181T456 218T401 246T346 275T304 314T287 373Q287 409 304 435T341 485T378 533T395 592Q395
635 368 664T288 693Q225 693 187 651T148 519V0H104V533Q104 579 117 615T156 677T215 717T290 731Q324 731 352 721T399 692T428 648T439 595Q439 556 423 529T386 478T349 431T332 377Q332 348 349 330T391 298T446 272T501 241T543 196T560 127Q560 97 548
72T515 28T466 -1T403 -12Z" />
<glyph unicode="&#xe0;" glyph-name="agrave" d="M259 -12Q227 -12 197 -4T143 20T106 61T92 120Q92 160 113 190T178 242T292 278T460 301Q460 331 453 358T430 407T386 440T317 453Q290 453 264 447T214 431T170 410T135 388L115 421Q129 431 151 443T201 466T259
484T322 492Q370 492 404 478T461 438T493 380T504 307V0H467L462 72H460Q418 39 366 14T259 -12ZM267 26Q358 26 460 113V267Q368 259 307 246T207 215T153 174T137 122Q137 96 148 78T177 49T219 32T267 26ZM351 572L207 723L241 754L375 595L351 572Z" />
<glyph unicode="&#xe1;" glyph-name="aacute" d="M259 -12Q227 -12 197 -4T143 20T106 61T92 120Q92 160 113 190T178 242T292 278T460 301Q460 331 453 358T430 407T386 440T317 453Q290 453 264 447T214 431T170 410T135 388L115 421Q129 431 151 443T201 466T259
484T322 492Q370 492 404 478T461 438T493 380T504 307V0H467L462 72H460Q418 39 366 14T259 -12ZM267 26Q358 26 460 113V267Q368 259 307 246T207 215T153 174T137 122Q137 96 148 78T177 49T219 32T267 26ZM289 572L265 595L399 754L433 723L289 572Z" />
<glyph unicode="&#xe2;" glyph-name="acircumflex" d="M259 -12Q227 -12 197 -4T143 20T106 61T92 120Q92 160 113 190T178 242T292 278T460 301Q460 331 453 358T430 407T386 440T317 453Q290 453 264 447T214 431T170 410T135 388L115 421Q129 431 151 443T201
466T259 484T322 492Q370 492 404 478T461 438T493 380T504 307V0H467L462 72H460Q418 39 366 14T259 -12ZM267 26Q358 26 460 113V267Q368 259 307 246T207 215T153 174T137 122Q137 96 148 78T177 49T219 32T267 26ZM204 572L182 593L299 737H341L458 593L436
572L322 698H318L204 572Z" />
<glyph unicode="&#xe3;" glyph-name="atilde" d="M259 -12Q227 -12 197 -4T143 20T106 61T92 120Q92 160 113 190T178 242T292 278T460 301Q460 331 453 358T430 407T386 440T317 453Q290 453 264 447T214 431T170 410T135 388L115 421Q129 431 151 443T201 466T259
484T322 492Q370 492 404 478T461 438T493 380T504 307V0H467L462 72H460Q418 39 366 14T259 -12ZM267 26Q358 26 460 113V267Q368 259 307 246T207 215T153 174T137 122Q137 96 148 78T177 49T219 32T267 26ZM396 579Q367 579 348 594T312 627T281 660T244 675Q217
675 205 648T190 582L156 584Q157 608 162 630T177 670T204 699T245 710Q273 710 292 695T328 662T360 629T397 614Q423 614 435 641T450 707L484 705Q482 682 478 660T463 619T436 590T396 579Z" />
<glyph unicode="&#xe4;" glyph-name="adieresis" d="M259 -12Q227 -12 197 -4T143 20T106 61T92 120Q92 160 113 190T178 242T292 278T460 301Q460 331 453 358T430 407T386 440T317 453Q290 453 264 447T214 431T170 410T135 388L115 421Q129 431 151 443T201
466T259 484T322 492Q370 492 404 478T461 438T493 380T504 307V0H467L462 72H460Q418 39 366 14T259 -12ZM267 26Q358 26 460 113V267Q368 259 307 246T207 215T153 174T137 122Q137 96 148 78T177 49T219 32T267 26ZM231 598Q214 598 203 610T191 640Q191 657
202 669T231 681Q248 681 259 669T271 640Q271 623 260 611T231 598ZM409 598Q392 598 381 610T369 640Q369 657 380 669T409 681Q426 681 437 669T449 640Q449 623 438 611T409 598Z" />
<glyph unicode="&#xe5;" glyph-name="aring" d="M259 -12Q227 -12 197 -4T143 20T106 61T92 120Q92 160 113 190T178 242T292 278T460 301Q460 331 453 358T430 407T386 440T317 453Q290 453 264 447T214 431T170 410T135 388L115 421Q129 431 151 443T201 466T259
484T322 492Q370 492 404 478T461 438T493 380T504 307V0H467L462 72H460Q418 39 366 14T259 -12ZM267 26Q358 26 460 113V267Q368 259 307 246T207 215T153 174T137 122Q137 96 148 78T177 49T219 32T267 26ZM320 570Q276 570 250 596T223 661Q223 701 249 727T320
753Q364 753 390 727T417 661Q417 622 391 596T320 570ZM320 596Q347 596 366 615T385 661Q385 689 366 708T320 727Q293 727 274 708T255 661Q255 634 274 615T320 596Z" />
<glyph unicode="&#xe6;" glyph-name="ae" d="M143 -12Q89 -12 54 20T18 114Q18 150 32 179T77 231T158 270T279 295Q278 382 251 417T177 453Q161 453 144 449T111 439T80 426T54 410L35 442Q59 458 97 475T181 492Q229 492 261 464T307 375Q330 436 370 464T455
492Q492 492 519 475T564 429T590 361T599 280Q599 269 599 258T597 233H319Q320 187 329 149T355 84T399 42T461 27Q493 27 520 37T567 62L585 29Q562 13 532 1T459 -12Q408 -12 371 13T311 84Q276 42 234 15T143 -12ZM151 26Q188 26 228 50T298 117Q279 171 279
243V261Q215 252 173 239T107 207T72 166T62 116Q62 73 86 50T151 26ZM454 454Q430 454 408 444T367 413T336 356T320 271H561Q559 362 533 408T454 454Z" />
<glyph unicode="&#xe7;" glyph-name="ccedilla" d="M347 -12Q291 -12 244 5T161 54T107 132T87 239Q87 299 107 346T164 426T247 475T349 492Q409 492 450 470T522 419L496 389Q465 418 430 435T350 453Q302 453 262 438T194 394T150 326T134 239Q134 192 149
153T193 86T261 43T349 27Q398 27 438 46T511 96L534 65Q496 30 450 9T347 -12ZM272 -219L265 -189Q330 -185 354 -172T378 -136Q378 -114 360 -103T300 -85L334 7H369L346 -65Q378 -73 397 -88T417 -134Q417 -173 380 -193T272 -219Z" />
<glyph unicode="&#xe8;" glyph-name="egrave" d="M330 -12Q278 -12 232 5T152 54T97 134T77 240Q77 298 97 345T150 424T226 474T317 492Q366 492 406 477T474 433T517 363T532 270Q532 261 532 252T530 233H122Q123 183 140 144T187 79T253 40T333 26Q382 26
421 40T494 78L512 45Q480 23 437 6T330 -12ZM318 454Q283 454 251 442T192 407T147 349T124 271H492Q487 364 439 409T318 454ZM350 572L206 723L240 754L374 595L350 572Z" />
<glyph unicode="&#xe9;" glyph-name="eacute" d="M330 -12Q278 -12 232 5T152 54T97 134T77 240Q77 298 97 345T150 424T226 474T317 492Q366 492 406 477T474 433T517 363T532 270Q532 261 532 252T530 233H122Q123 183 140 144T187 79T253 40T333 26Q382 26
421 40T494 78L512 45Q480 23 437 6T330 -12ZM318 454Q283 454 251 442T192 407T147 349T124 271H492Q487 364 439 409T318 454ZM288 572L264 595L398 754L432 723L288 572Z" />
<glyph unicode="&#xea;" glyph-name="ecircumflex" d="M330 -12Q278 -12 232 5T152 54T97 134T77 240Q77 298 97 345T150 424T226 474T317 492Q366 492 406 477T474 433T517 363T532 270Q532 261 532 252T530 233H122Q123 183 140 144T187 79T253 40T333 26Q382
26 421 40T494 78L512 45Q480 23 437 6T330 -12ZM318 454Q283 454 251 442T192 407T147 349T124 271H492Q487 364 439 409T318 454ZM203 572L181 593L298 737H340L457 593L435 572L321 698H317L203 572Z" />
<glyph unicode="&#xeb;" glyph-name="edieresis" d="M330 -12Q278 -12 232 5T152 54T97 134T77 240Q77 298 97 345T150 424T226 474T317 492Q366 492 406 477T474 433T517 363T532 270Q532 261 532 252T530 233H122Q123 183 140 144T187 79T253 40T333 26Q382
26 421 40T494 78L512 45Q480 23 437 6T330 -12ZM318 454Q283 454 251 442T192 407T147 349T124 271H492Q487 364 439 409T318 454ZM230 598Q213 598 202 610T190 640Q190 657 201 669T230 681Q247 681 258 669T270 640Q270 623 259 611T230 598ZM408 598Q391 598
380 610T368 640Q368 657 379 669T408 681Q425 681 436 669T448 640Q448 623 437 611T408 598Z" />
<glyph unicode="&#xec;" glyph-name="igrave" d="M338 0V442H97V480H382V0H338ZM380 572L236 723L270 754L404 595L380 572Z" />
<glyph unicode="&#xed;" glyph-name="iacute" d="M338 0V442H97V480H382V0H338ZM318 572L294 595L428 754L462 723L318 572Z" />
<glyph unicode="&#xee;" glyph-name="icircumflex" d="M338 0V442H97V480H382V0H338ZM233 572L211 593L328 737H370L487 593L465 572L351 698H347L233 572Z" />
<glyph unicode="&#xef;" glyph-name="idieresis" d="M338 0V442H97V480H382V0H338ZM260 598Q243 598 232 610T220 640Q220 657 231 669T260 681Q277 681 288 669T300 640Q300 623 289 611T260 598ZM438 598Q421 598 410 610T398 640Q398 657 409 669T438 681Q455
681 466 669T478 640Q478 623 467 611T438 598Z" />
<glyph unicode="&#xf0;" glyph-name="eth" d="M299 -12Q254 -12 212 4T138 49T87 122T67 219Q67 268 83 309T130 380T204 425T300 442Q351 442 397 417T474 352Q461 433 428 490T345 591L195 513L178 543L316 615Q287 637 254 656T183 694L205 724Q246 705 283
683T354 634L488 704L505 675L382 611Q448 549 487 463T527 252Q527 192 511 143T465 60T393 7T299 -12ZM300 27Q348 27 382 44T439 92T471 163T482 251Q482 265 482 277T480 303Q440 359 393 381T301 404Q253 404 218 389T159 349T124 290T112 219Q112 177 126
142T166 81T226 41T300 27Z" />
<glyph unicode="&#xf1;" glyph-name="ntilde" d="M105 0V480H143L148 388H152Q194 433 238 462T341 492Q514 492 514 299V0H469V293Q469 374 438 413T334 452Q308 452 286 446T243 426T199 392T150 344V0H105ZM395 579Q366 579 347 594T311 627T280 660T243 675Q216
675 204 648T189 582L155 584Q156 608 161 630T176 670T203 699T244 710Q272 710 291 695T327 662T359 629T396 614Q422 614 434 641T449 707L483 705Q481 682 477 660T462 619T435 590T395 579Z" />
<glyph unicode="&#xf2;" glyph-name="ograve" d="M300 -12Q253 -12 211 5T136 54T86 132T67 239Q67 299 85 346T136 426T210 475T300 492Q347 492 389 475T464 426T514 347T533 239Q533 179 515 133T464 54T390 5T300 -12ZM300 27Q340 27 374 42T433 86T472 153T486
239Q486 287 472 326T434 393T375 437T300 453Q259 453 225 438T167 394T128 326T114 239Q114 192 128 153T166 86T225 43T300 27ZM331 572L187 723L221 754L355 595L331 572Z" />
<glyph unicode="&#xf3;" glyph-name="oacute" d="M300 -12Q253 -12 211 5T136 54T86 132T67 239Q67 299 85 346T136 426T210 475T300 492Q347 492 389 475T464 426T514 347T533 239Q533 179 515 133T464 54T390 5T300 -12ZM300 27Q340 27 374 42T433 86T472 153T486
239Q486 287 472 326T434 393T375 437T300 453Q259 453 225 438T167 394T128 326T114 239Q114 192 128 153T166 86T225 43T300 27ZM269 572L245 595L379 754L413 723L269 572Z" />
<glyph unicode="&#xf4;" glyph-name="ocircumflex" d="M300 -12Q253 -12 211 5T136 54T86 132T67 239Q67 299 85 346T136 426T210 475T300 492Q347 492 389 475T464 426T514 347T533 239Q533 179 515 133T464 54T390 5T300 -12ZM300 27Q340 27 374 42T433 86T472
153T486 239Q486 287 472 326T434 393T375 437T300 453Q259 453 225 438T167 394T128 326T114 239Q114 192 128 153T166 86T225 43T300 27ZM184 572L162 593L279 737H321L438 593L416 572L302 698H298L184 572Z" />
<glyph unicode="&#xf5;" glyph-name="otilde" d="M300 -12Q253 -12 211 5T136 54T86 132T67 239Q67 299 85 346T136 426T210 475T300 492Q347 492 389 475T464 426T514 347T533 239Q533 179 515 133T464 54T390 5T300 -12ZM300 27Q340 27 374 42T433 86T472 153T486
239Q486 287 472 326T434 393T375 437T300 453Q259 453 225 438T167 394T128 326T114 239Q114 192 128 153T166 86T225 43T300 27ZM376 579Q347 579 328 594T292 627T261 660T224 675Q197 675 185 648T170 582L136 584Q137 608 142 630T157 670T184 699T225 710Q253
710 272 695T308 662T340 629T377 614Q403 614 415 641T430 707L464 705Q462 682 458 660T443 619T416 590T376 579Z" />
<glyph unicode="&#xf6;" glyph-name="odieresis" d="M300 -12Q253 -12 211 5T136 54T86 132T67 239Q67 299 85 346T136 426T210 475T300 492Q347 492 389 475T464 426T514 347T533 239Q533 179 515 133T464 54T390 5T300 -12ZM300 27Q340 27 374 42T433 86T472
153T486 239Q486 287 472 326T434 393T375 437T300 453Q259 453 225 438T167 394T128 326T114 239Q114 192 128 153T166 86T225 43T300 27ZM211 598Q194 598 183 610T171 640Q171 657 182 669T211 681Q228 681 239 669T251 640Q251 623 240 611T211 598ZM389 598Q372
598 361 610T349 640Q349 657 360 669T389 681Q406 681 417 669T429 640Q429 623 418 611T389 598Z" />
<glyph unicode="&#xf7;" glyph-name="divide" d="M300 469Q284 469 273 480T262 510Q262 527 273 538T300 549Q316 549 327 538T338 510Q338 491 327 480T300 469ZM300 109Q284 109 273 120T262 150Q262 167 273 178T300 189Q316 189 327 178T338 150Q338 131
327 120T300 109ZM95 311V349H505V311H95Z" />
<glyph unicode="&#xf8;" glyph-name="oslash" d="M300 -12Q258 -12 220 1T152 40L96 -24L68 0L125 66Q98 98 83 141T67 239Q67 299 85 346T136 426T210 475T300 492Q386 492 449 440L504 503L532 478L475 413Q502 381 517 338T533 239Q533 179 515 133T464 54T390
5T300 -12ZM114 239Q114 197 124 162T155 100L421 407Q397 430 366 442T300 454Q259 454 225 439T167 395T128 327T114 239ZM300 26Q340 26 374 41T433 85T472 152T486 239Q486 281 476 316T446 379L179 72Q203 50 234 38T300 26Z" />
<glyph unicode="&#xf9;" glyph-name="ugrave" d="M259 -12Q87 -12 87 181V480H131V187Q131 106 162 67T266 28Q291 28 314 34T359 54T403 88T450 137V480H494V0H457L452 93H448Q409 47 363 18T259 -12ZM582 572L438 723L472 754L606 595L582 572Z" />
<glyph unicode="&#xfa;" glyph-name="uacute" d="M259 -12Q87 -12 87 181V480H131V187Q131 106 162 67T266 28Q291 28 314 34T359 54T403 88T450 137V480H494V0H457L452 93H448Q409 47 363 18T259 -12ZM520 572L496 595L630 754L664 723L520 572Z" />
<glyph unicode="&#xfb;" glyph-name="ucircumflex" d="M259 -12Q87 -12 87 181V480H131V187Q131 106 162 67T266 28Q291 28 314 34T359 54T403 88T450 137V480H494V0H457L452 93H448Q409 47 363 18T259 -12ZM435 572L413 593L530 737H572L689 593L667 572L553
698H549L435 572Z" />
<glyph unicode="&#xfc;" glyph-name="udieresis" d="M259 -12Q87 -12 87 181V480H131V187Q131 106 162 67T266 28Q291 28 314 34T359 54T403 88T450 137V480H494V0H457L452 93H448Q409 47 363 18T259 -12ZM462 598Q445 598 434 610T422 640Q422 657 433 669T462
681Q479 681 490 669T502 640Q502 623 491 611T462 598ZM640 598Q623 598 612 610T600 640Q600 657 611 669T640 681Q657 681 668 669T680 640Q680 623 669 611T640 598Z" />
<glyph unicode="&#xfd;" glyph-name="yacute" d="M125 -219Q110 -219 94 -217T67 -209L79 -170Q88 -173 100 -175T126 -178Q182 -178 218 -142T276 -51L293 -9L60 480H106L246 178Q260 148 277 112T312 43H316Q330 75 344 111T372 178L497 480H540L314 -60Q303
-90 287 -119T247 -170T194 -205T125 -219ZM270 572L246 595L380 754L414 723L270 572Z" />
<glyph unicode="&#xfe;" glyph-name="thorn" d="M105 -217V719H150V502L147 408H149Q187 446 233 469T328 492Q379 492 417 475T481 425T520 348T533 247Q533 186 515 138T465 57T393 6T308 -12Q271 -12 229 6T149 56H147L150 -42V-217H105ZM306 27Q345 27 378
43T435 88T472 157T486 247Q486 291 477 329T447 394T396 437T321 453Q283 453 239 432T150 365V98Q192 60 234 44T306 27Z" />
<glyph unicode="&#xff;" glyph-name="ydieresis" d="M125 -219Q110 -219 94 -217T67 -209L79 -170Q88 -173 100 -175T126 -178Q182 -178 218 -142T276 -51L293 -9L60 480H106L246 178Q260 148 277 112T312 43H316Q330 75 344 111T372 178L497 480H540L314 -60Q303
-90 287 -119T247 -170T194 -205T125 -219ZM212 598Q195 598 184 610T172 640Q172 657 183 669T212 681Q229 681 240 669T252 640Q252 623 241 611T212 598ZM390 598Q373 598 362 610T350 640Q350 657 361 669T390 681Q407 681 418 669T430 640Q430 623 419 611T390
598Z" />
<glyph unicode="&#x2013;" glyph-name="endash" d="M80 226V275H520V226H80Z" />
<glyph unicode="&#x2014;" glyph-name="emdash" d="M0 226V275H600V226H0Z" />
<glyph unicode="&#x2018;" glyph-name="quoteleft" d="M298 385Q269 385 247 410T224 483Q224 554 258 611T349 700L370 669Q326 640 300 597T270 498Q287 508 301 508Q327 508 343 491T359 448Q359 421 342 403T298 385Z" />
<glyph unicode="&#x2019;" glyph-name="quoteright" d="M247 385L227 415Q270 444 296 487T326 586Q309 576 296 576Q270 576 254 593T237 636Q237 664 254 682T298 700Q328 700 350 674T372 602Q372 530 338 474T247 385Z" />
<glyph unicode="&#x201a;" glyph-name="quotesinglbase" d="M247 -222L227 -192Q270 -163 296 -120T326 -21Q309 -31 296 -31Q270 -31 254 -14T237 29Q237 57 254 75T298 93Q328 93 350 67T372 -5Q372 -77 338 -133T247 -222Z" />
<glyph unicode="&#x201c;" glyph-name="quotedblleft" d="M451 385Q422 385 400 410T377 483Q377 554 411 611T502 700L523 669Q479 640 453 597T423 498Q440 508 454 508Q480 508 496 491T512 448Q512 421 495 403T451 385ZM402 385Q373 385 351 410T328 483Q328
554 362 611T453 700L474 669Q430 640 404 597T374 498Q391 508 405 508Q431 508 447 491T463 448Q463 421 446 403T402 385Z" />
<glyph unicode="&#x201d;" glyph-name="quotedblright" d="M400 385L380 415Q423 444 449 487T479 586Q462 576 449 576Q423 576 407 593T390 636Q390 664 407 682T451 700Q481 700 503 674T525 602Q525 530 491 474T400 385ZM351 385L331 415Q374 444 400 487T430
586Q413 576 400 576Q374 576 358 593T341 636Q341 664 358 682T402 700Q432 700 454 674T476 602Q476 530 442 474T351 385Z" />
<glyph unicode="&#x201e;" glyph-name="quotedblbase" d="M144 -222L124 -192Q167 -163 193 -120T223 -21Q206 -31 193 -31Q167 -31 151 -14T134 29Q134 57 151 75T195 93Q225 93 247 67T269 -5Q269 -77 235 -133T144 -222ZM351 -222L331 -192Q374 -163 400 -120T430
-21Q413 -31 400 -31Q374 -31 358 -14T341 29Q341 57 358 75T402 93Q432 93 454 67T476 -5Q476 -77 442 -133T351 -222Z" />
<glyph unicode="&#x2022;" glyph-name="bullet" d="M300 123Q273 123 248 133T204 161T173 204T161 262Q161 294 172 319T203 363T248 391T300 401Q327 401 352 391T396 363T427 320T439 262Q439 230 428 205T397 161T352 133T300 123Z" />
<glyph unicode="&#x2039;" glyph-name="guilsinglleft" d="M352 68L210 231V273L352 436L377 413L251 252L377 89L352 68Z" />
<glyph unicode="&#x203a;" glyph-name="guilsinglright" d="M248 68L223 89L349 252L223 413L248 436L390 273V231L248 68Z" />
</font>
</defs>
</svg>
