<svg xmlns="http://www.w3.org/2000/svg" xmlns:xlink="http://www.w3.org/1999/xlink" xmlns:lucid="lucid" width="1440" height="183.33"><g transform="translate(-80 -120)" lucid:page-tab-id="0_0"><path d="M100 140h200v120H100z" stroke="#b2b2b2" stroke-width="2" fill="#ccc"/><use xlink:href="#a" transform="matrix(1,0,0,1,105,145) translate(0 108.34755555555556)"/><path d="M140 160h120v63.33H140z" stroke="#000" stroke-opacity="0" stroke-width="2" fill="#ffeca9"/><use xlink:href="#b" transform="matrix(1,0,0,1,145,165) translate(49.44444444444444 31.27777777777778)"/><path d="M500 140h200v120H500z" stroke="#b2b2b2" stroke-width="2" fill="#ccc"/><use xlink:href="#c" transform="matrix(1,0,0,1,505,145) translate(0 108.34755555555556)"/><path d="M520 156.67h160v66.66H520z" stroke="#000" stroke-opacity="0" stroke-width="2" fill="#a3d977"/><use xlink:href="#d" transform="matrix(1,0,0,1,525,161.66666666666666) translate(36.97530864197531 17.77777777777778)"/><use xlink:href="#e" transform="matrix(1,0,0,1,525,161.66666666666666) translate(98.64197530864197 17.77777777777778)"/><use xlink:href="#f" transform="matrix(1,0,0,1,525,161.66666666666666) translate(48.45679012345679 44.44444444444444)"/><use xlink:href="#g" transform="matrix(1,0,0,1,525,161.66666666666666) translate(65.74074074074073 44.44444444444444)"/><path d="M440 200c0 22.1-17.9 40-40 40s-40-17.9-40-40 17.9-40 40-40 40 17.9 40 40z" stroke="#000" stroke-width="2" fill="url(#h)"/><use xlink:href="#i" transform="matrix(1,0,0,1,365,165) translate(28.27777777777778 41.198611111111106)"/><path d="M898.67 140h200v120h-200z" stroke="#b2b2b2" stroke-width="2" fill="#ccc"/><use xlink:href="#j" transform="matrix(1,0,0,1,903.6666666666666,145) translate(0 108.34755555555556)"/><path d="M921.33 156.67h160v66.66h-160z" stroke="#000" stroke-opacity="0" stroke-width="2" fill="#ffeca9"/><use xlink:href="#d" transform="matrix(1,0,0,1,926.3333333333334,161.66666666666669) translate(36.97530864197531 17.77777777777778)"/><use xlink:href="#e" transform="matrix(1,0,0,1,926.3333333333334,161.66666666666669) translate(98.64197530864197 17.77777777777778)"/><use xlink:href="#f" transform="matrix(1,0,0,1,926.3333333333334,161.66666666666669) translate(48.45679012345679 44.44444444444444)"/><use xlink:href="#k" transform="matrix(1,0,0,1,926.3333333333334,161.66666666666669) translate(65.74074074074073 44.44444444444444)"/><path d="M840 200c0 22.1-17.9 40-40 40s-40-17.9-40-40 17.9-40 40-40 40 17.9 40 40z" stroke="#000" stroke-width="2" fill="url(#l)"/><use xlink:href="#i" transform="matrix(1,0,0,1,765,165) translate(28.27777777777778 41.198611111111106)"/><path d="M1300 140h200v120h-200z" stroke="#b2b2b2" stroke-width="2" fill="#ccc"/><use xlink:href="#m" transform="matrix(1,0,0,1,1305,145) translate(0 108.34755555555556)"/><path d="M1322.67 156.67h160v66.66h-160z" stroke="#000" stroke-opacity="0" stroke-width="2" fill="#a3d977"/><use xlink:href="#n" transform="matrix(1,0,0,1,1327.6666666666667,161.66666666666669) translate(44.96913580246914 17.77777777777778)"/><use xlink:href="#e" transform="matrix(1,0,0,1,1327.6666666666667,161.66666666666669) translate(90.64814814814815 17.77777777777778)"/><use xlink:href="#f" transform="matrix(1,0,0,1,1327.6666666666667,161.66666666666669) translate(48.45679012345679 44.44444444444444)"/><use xlink:href="#o" transform="matrix(1,0,0,1,1327.6666666666667,161.66666666666669) translate(65.74074074074073 44.44444444444444)"/><path d="M1239.33 200c0 22.1-17.9 40-40 40s-40-17.9-40-40 17.9-40 40-40 40 17.9 40 40z" stroke="#000" stroke-width="2" fill="url(#p)"/><use xlink:href="#i" transform="matrix(1,0,0,1,1164.3333333333333,165) translate(28.27777777777778 41.198611111111106)"/><path d="M302 200h38.5" stroke="#000" stroke-width="2" fill="none"/><path d="M302.03 201H301v-2h1.03z"/><path d="M355.76 200l-14.26 4.64v-9.28z" stroke="#000" stroke-width="2"/><path d="M442 200h38.5" stroke="#000" stroke-width="2" fill="none"/><path d="M442.03 201h-1.1l.07-1-.03-1h1.06z"/><path d="M495.76 200l-14.26 4.64v-9.28z" stroke="#000" stroke-width="2"/><path d="M702 200h38.5" stroke="#000" stroke-width="2" fill="none"/><path d="M702.03 201H701v-2h1.03z"/><path d="M755.76 200l-14.26 4.64v-9.28z" stroke="#000" stroke-width="2"/><path d="M842 200h37.16" stroke="#000" stroke-width="2" fill="none"/><path d="M842.03 201h-1.1l.07-1-.03-1h1.06z"/><path d="M894.43 200l-14.27 4.64v-9.28z" stroke="#000" stroke-width="2"/><path d="M1100.67 200h39.16" stroke="#000" stroke-width="2" fill="none"/><path d="M1100.7 201h-1.03v-2h1.02z"/><path d="M1155.1 200l-14.27 4.64v-9.28z" stroke="#000" stroke-width="2"/><path d="M1241.33 200h39.17" stroke="#000" stroke-width="2" fill="none"/><path d="M1241.36 201h-1.1l.07-1-.03-1h1.06z"/><path d="M1295.76 200l-14.26 4.64v-9.28z" stroke="#000" stroke-width="2"/><path d="M350 240h100v43.33H350z" stroke="#000" stroke-opacity="0" stroke-width="2" fill-opacity="0"/><g><use xlink:href="#q" transform="matrix(1,0,0,1,355,245) translate(30.129629629629626 19.555555555555557)"/></g><path d="M749.33 240h100v43.33h-100z" stroke="#000" stroke-opacity="0" stroke-width="2" fill-opacity="0"/><g><use xlink:href="#r" transform="matrix(1,0,0,1,754.3333333333333,245) translate(30.129629629629626 19.555555555555557)"/></g><path d="M1149.33 240h100v43.33h-100z" stroke="#000" stroke-opacity="0" stroke-width="2" fill-opacity="0"/><g><use xlink:href="#s" transform="matrix(1,0,0,1,1154.3333333333333,245) translate(30.129629629629626 19.555555555555557)"/></g><defs><path fill="#3aa6dd" d="M72-63c-8 23 5 39 32 30L98-1C54 14 12-6 23-64l18-93H15l7-33h28l24-45h31l-8 45h35l-6 33H90" id="t"/><path fill="#3aa6dd" d="M127 0L95-67 37 0h-53l89-99-49-91h52l30 61 52-61h54l-85 92 52 98h-52" id="u"/><path fill="#3aa6dd" d="M6 0l7-41h62l31-161-67 37 8-42 70-41h48L124-41h57l-8 41H6" id="v"/><g id="a"><use transform="matrix(0.06790123456790124,0,0,0.06790123456790124,0,0)" xlink:href="#t"/><use transform="matrix(0.06790123456790124,0,0,0.06790123456790124,8.080246913580249,0)" xlink:href="#u"/><use transform="matrix(0.06790123456790124,0,0,0.06790123456790124,21.660493827160497,0)" xlink:href="#v"/></g><path d="M96-169c-40 0-48 33-48 73s9 75 48 75c24 0 41-14 43-38l32 2c-6 37-31 61-74 61-59 0-76-41-82-99-10-93 101-131 147-64 4 7 5 14 7 22l-32 3c-4-21-16-35-41-35" id="w"/><use transform="matrix(0.06172839506172839,0,0,0.06172839506172839,0,0)" xlink:href="#w" id="b"/><path fill="#3aa6dd" d="M121-251c83 0 93 87 42 126-35 27-77 48-103 84h115l-7 41H-6C6-94 102-103 141-168c11-20 3-46-24-44-23 2-33 13-39 32l-47-10c12-38 39-61 90-61" id="x"/><g id="c"><use transform="matrix(0.06790123456790124,0,0,0.06790123456790124,0,0)" xlink:href="#t"/><use transform="matrix(0.06790123456790124,0,0,0.06790123456790124,8.080246913580249,0)" xlink:href="#u"/><use transform="matrix(0.06790123456790124,0,0,0.06790123456790124,21.660493827160497,0)" xlink:href="#x"/></g><path d="M24 0v-248h195v40H76v63h132v40H76v65h150V0H24" id="y"/><path d="M144 0l-44-69L55 0H2l70-98-66-92h53l41 62 40-62h54l-67 91 71 99h-54" id="z"/><path d="M185-48c-13 30-37 53-82 52C43 2 14-33 14-96s30-98 90-98c62 0 83 45 84 108H66c0 31 8 55 39 56 18 0 30-7 34-22zm-45-69c5-46-57-63-70-21-2 6-4 13-4 21h74" id="A"/><path d="M175 0L67-191c6 58 2 128 3 191H24v-248h59L193-55c-6-58-2-129-3-193h46V0h-61" id="B"/><g id="d"><use transform="matrix(0.06172839506172839,0,0,0.06172839506172839,0,0)" xlink:href="#y"/><use transform="matrix(0.06172839506172839,0,0,0.06172839506172839,14.814814814814813,0)" xlink:href="#z"/><use transform="matrix(0.06172839506172839,0,0,0.06172839506172839,27.160493827160494,0)" xlink:href="#A"/><use transform="matrix(0.06172839506172839,0,0,0.06172839506172839,39.50617283950617,0)" xlink:href="#B"/></g><path d="M30-248c87 1 191-15 191 75 0 78-77 80-158 76V0H30v-248zm33 125c57 0 124 11 124-50 0-59-68-47-124-48v98" id="C"/><use transform="matrix(0.06172839506172839,0,0,0.06172839506172839,0,0)" xlink:href="#C" id="e"/><use transform="matrix(0.06172839506172839,0,0,0.06172839506172839,0,0)" xlink:href="#w" id="f"/><path d="M106-169C34-169 62-67 57 0H25v-261h32l-1 103c12-21 28-36 61-36 89 0 53 116 60 194h-32v-121c2-32-8-49-39-48" id="D"/><path d="M27 0v-27h64v-190l-56 39v-29l58-41h29v221h61V0H27" id="E"/><g id="g"><use transform="matrix(0.06172839506172839,0,0,0.06172839506172839,0,0)" xlink:href="#w"/><use transform="matrix(0.06172839506172839,0,0,0.06172839506172839,11.11111111111111,0)" xlink:href="#D"/><use transform="matrix(0.06172839506172839,0,0,0.06172839506172839,23.45679012345679,0)" xlink:href="#E"/></g><linearGradient gradientUnits="userSpaceOnUse" id="h" x1="360" y1="240" x2="440" y2="240"><stop offset="0%" stop-color="#ffeca9"/><stop offset="48.37%" stop-color="#ffeca9"/><stop offset="53.8%" stop-color="#a3d977"/><stop offset="97.83%" stop-color="#a3d977"/></linearGradient><use transform="matrix(0.07469135802469135,0,0,0.07469135802469135,0,0)" xlink:href="#w" id="i"/><path fill="#3aa6dd" d="M131-73c0-31-25-35-58-33l8-40c36 2 64-5 65-39 0-17-10-28-28-27-23 1-35 12-41 32l-47-9c11-39 39-63 90-62 44 1 76 17 76 60 0 42-26 59-63 64 28 5 48 20 48 54C181 22 9 32 3-60l49-7c3 21 16 31 40 31s39-13 39-37" id="F"/><g id="j"><use transform="matrix(0.06790123456790124,0,0,0.06790123456790124,0,0)" xlink:href="#t"/><use transform="matrix(0.06790123456790124,0,0,0.06790123456790124,8.080246913580249,0)" xlink:href="#u"/><use transform="matrix(0.06790123456790124,0,0,0.06790123456790124,21.660493827160497,0)" xlink:href="#F"/></g><path d="M101-251c82-7 93 87 43 132L82-64C71-53 59-42 53-27h129V0H18c2-99 128-94 128-182 0-28-16-43-45-43s-46 15-49 41l-32-3c6-41 34-60 81-64" id="G"/><g id="k"><use transform="matrix(0.06172839506172839,0,0,0.06172839506172839,0,0)" xlink:href="#w"/><use transform="matrix(0.06172839506172839,0,0,0.06172839506172839,11.11111111111111,0)" xlink:href="#D"/><use transform="matrix(0.06172839506172839,0,0,0.06172839506172839,23.45679012345679,0)" xlink:href="#G"/></g><linearGradient gradientUnits="userSpaceOnUse" id="l" x1="840" y1="240" x2="760" y2="240"><stop offset="0%" stop-color="#ffeca9"/><stop offset="48.37%" stop-color="#ffeca9"/><stop offset="53.8%" stop-color="#a3d977"/><stop offset="97.83%" stop-color="#a3d977"/></linearGradient><path fill="#3aa6dd" d="M154-50L144 0H97l10-50H-6l7-37 126-161h65L161-87h33l-7 37h-33zm-40-37l27-125c-29 45-64 83-95 125h68" id="H"/><g id="m"><use transform="matrix(0.06790123456790124,0,0,0.06790123456790124,0,0)" xlink:href="#t"/><use transform="matrix(0.06790123456790124,0,0,0.06790123456790124,8.080246913580249,0)" xlink:href="#u"/><use transform="matrix(0.06790123456790124,0,0,0.06790123456790124,21.660493827160497,0)" xlink:href="#H"/></g><g id="n"><use transform="matrix(0.06172839506172839,0,0,0.06172839506172839,0,0)" xlink:href="#y"/><use transform="matrix(0.06172839506172839,0,0,0.06172839506172839,14.814814814814813,0)" xlink:href="#z"/><use transform="matrix(0.06172839506172839,0,0,0.06172839506172839,27.160493827160494,0)" xlink:href="#A"/></g><path d="M126-127c33 6 58 20 58 59 0 88-139 92-164 29-3-8-5-16-6-25l32-3c6 27 21 44 54 44 32 0 52-15 52-46 0-38-36-46-79-43v-28c39 1 72-4 72-42 0-27-17-43-46-43-28 0-47 15-49 41l-32-3c6-42 35-63 81-64 48-1 79 21 79 65 0 36-21 52-52 59" id="I"/><g id="o"><use transform="matrix(0.06172839506172839,0,0,0.06172839506172839,0,0)" xlink:href="#w"/><use transform="matrix(0.06172839506172839,0,0,0.06172839506172839,11.11111111111111,0)" xlink:href="#D"/><use transform="matrix(0.06172839506172839,0,0,0.06172839506172839,23.45679012345679,0)" xlink:href="#I"/></g><linearGradient gradientUnits="userSpaceOnUse" id="p" x1="1159.33" y1="240" x2="1239.33" y2="240"><stop offset="0%" stop-color="#ffeca9"/><stop offset="48.37%" stop-color="#ffeca9"/><stop offset="53.8%" stop-color="#a3d977"/><stop offset="97.83%" stop-color="#a3d977"/></linearGradient><path fill="#3aa6dd" d="M93-157L62 0H13l31-157H16l6-33h28c2-54 40-81 100-68l-6 32c-29-8-44 9-45 36h38l-7 33H93" id="J"/><g id="q"><use transform="matrix(0.06790123456790124,0,0,0.06790123456790124,0,0)" xlink:href="#t"/><use transform="matrix(0.06790123456790124,0,0,0.06790123456790124,8.080246913580249,0)" xlink:href="#J"/><use transform="matrix(0.06790123456790124,0,0,0.06790123456790124,16.160493827160497,0)" xlink:href="#v"/></g><g id="r"><use transform="matrix(0.06790123456790124,0,0,0.06790123456790124,0,0)" xlink:href="#t"/><use transform="matrix(0.06790123456790124,0,0,0.06790123456790124,8.080246913580249,0)" xlink:href="#J"/><use transform="matrix(0.06790123456790124,0,0,0.06790123456790124,16.160493827160497,0)" xlink:href="#x"/></g><g id="s"><use transform="matrix(0.06790123456790124,0,0,0.06790123456790124,0,0)" xlink:href="#t"/><use transform="matrix(0.06790123456790124,0,0,0.06790123456790124,8.080246913580249,0)" xlink:href="#J"/><use transform="matrix(0.06790123456790124,0,0,0.06790123456790124,16.160493827160497,0)" xlink:href="#F"/></g></defs></g></svg>