<svg xmlns="http://www.w3.org/2000/svg" xmlns:xlink="http://www.w3.org/1999/xlink" xmlns:lucid="lucid" width="1464" height="451.33"><g transform="translate(-168 -12)" lucid:page-tab-id="0_0"><path d="M200 300h200v120H200z" stroke="#b2b2b2" stroke-width="2" fill="#ccc"/><use xlink:href="#a" transform="matrix(1,0,0,1,205,304.99999999999994) translate(0 108.34755555555556)"/><path d="M240 320h120v63.33H240z" stroke="#000" stroke-opacity="0" stroke-width="2" fill="#ffeca9"/><use xlink:href="#b" transform="matrix(1,0,0,1,245,325) translate(49.44444444444444 31.27777777777778)"/><path d="M540 360c0 22.1-17.9 40-40 40s-40-17.9-40-40 17.9-40 40-40 40 17.9 40 40z" stroke="#000" stroke-width="2" fill="url(#c)"/><use xlink:href="#d" transform="matrix(1,0,0,1,465,324.99999999999994) translate(28.27777777777778 41.198611111111106)"/><path d="M998.67 300h200v120h-200z" stroke="#b2b2b2" stroke-width="2" fill="#ccc"/><use xlink:href="#e" transform="matrix(1,0,0,1,1003.6666666666665,304.99999999999994) translate(0 108.34755555555556)"/><path d="M1021.33 316.67h160v66.66h-160z" stroke="#000" stroke-opacity="0" stroke-width="2" fill="#ffeca9"/><use xlink:href="#f" transform="matrix(1,0,0,1,1026.3333333333335,321.6666666666667) translate(36.97530864197531 17.77777777777778)"/><use xlink:href="#g" transform="matrix(1,0,0,1,1026.3333333333335,321.6666666666667) translate(98.64197530864197 17.77777777777778)"/><use xlink:href="#h" transform="matrix(1,0,0,1,1026.3333333333335,321.6666666666667) translate(48.45679012345679 44.44444444444444)"/><use xlink:href="#i" transform="matrix(1,0,0,1,1026.3333333333335,321.6666666666667) translate(65.74074074074073 44.44444444444444)"/><path d="M940 360c0 22.1-17.9 40-40 40s-40-17.9-40-40 17.9-40 40-40 40 17.9 40 40z" stroke="#000" stroke-width="2" fill="url(#j)"/><use xlink:href="#d" transform="matrix(1,0,0,1,865,324.99999999999994) translate(28.27777777777778 41.198611111111106)"/><path d="M1339.33 360c0 22.1-17.9 40-40 40s-40-17.9-40-40 17.9-40 40-40 40 17.9 40 40z" stroke="#000" stroke-width="2" fill="url(#k)"/><use xlink:href="#d" transform="matrix(1,0,0,1,1264.3333333333335,324.99999999999994) translate(28.27777777777778 41.198611111111106)"/><path d="M402 360h38.5" stroke="#000" stroke-width="2" fill="none"/><path d="M402.03 361H401v-2h1.03z"/><path d="M455.76 360l-14.26 4.64v-9.28z" stroke="#000" stroke-width="2"/><path d="M542 360h298.5" stroke="#000" stroke-width="2" fill="none"/><path d="M542.03 361h-1.1l.07-1-.03-1h1.06z"/><path d="M855.76 360l-14.26 4.64v-9.28z" stroke="#000" stroke-width="2"/><path d="M942 360h37.16" stroke="#000" stroke-width="2" fill="none"/><path d="M942.03 361h-1.1l.07-1-.03-1h1.06z"/><path d="M994.43 360l-14.27 4.64v-9.28z" stroke="#000" stroke-width="2"/><path d="M1200.67 360h39.16" stroke="#000" stroke-width="2" fill="none"/><path d="M1200.7 361h-1.03v-2h1.02z"/><path d="M1255.1 360l-14.27 4.64v-9.28z" stroke="#000" stroke-width="2"/><path d="M450 400h100v43.33H450z" stroke="#000" stroke-opacity="0" stroke-width="2" fill-opacity="0"/><use xlink:href="#l" transform="matrix(1,0,0,1,455,405) translate(30.129629629629626 19.555555555555557)"/><path d="M849.33 400h100v43.33h-100z" stroke="#000" stroke-opacity="0" stroke-width="2" fill-opacity="0"/><use xlink:href="#m" transform="matrix(1,0,0,1,854.3333333333333,405) translate(30.129629629629626 19.555555555555557)"/><path d="M1249.33 400h100v43.33h-100z" stroke="#000" stroke-opacity="0" stroke-width="2" fill-opacity="0"/><use xlink:href="#n" transform="matrix(1,0,0,1,1254.3333333333335,405) translate(30.129629629629626 19.555555555555557)"/><path d="M199.3 240h9.93m9.93 0H239m9.94 0h19.85m9.92 0h19.85m9.93 0h19.85m9.93 0h19.85m9.93 0h19.85m9.94 0h19.86m9.92 0h19.86m9.92 0h19.86m9.92 0h19.86m9.92 0h19.86m9.93 0h19.85m9.93 0h19.85m9.93 0h19.86m9.93 0h19.84m9.93 0h19.85m9.93 0h19.85m9.93 0h19.85m9.93 0h19.86m9.93 0h19.85m9.92 0h19.86m9.92 0h19.86m9.93 0h19.86m9.9 0h19.87m9.93 0h19.85m9.93 0h19.85m9.93 0h19.85m9.94 0h19.85m9.92 0h19.85m9.93 0h19.85m9.93 0h19.85m9.93 0h19.86m9.92 0H1192m9.92 0h19.86m9.92 0h19.86m9.92 0h19.86m9.93 0h19.85m9.93 0h19.85m9.93 0h19.85m9.93 0h19.86m9.93 0h19.84m9.93 0h19.85m9.93 0h19.85m9.93 0h19.85m9.93 0h19.87m9.92 0h19.85m9.92 0h9.93" stroke="#b2b2b2" stroke-width="2" fill="none"/><path d="M199.33 240h-4.03v-1h4.03z" fill="#b2b2b2"/><path d="M1598.97 240h1.03" stroke="#b2b2b2" stroke-width="2" fill="none"/><path d="M188 240h340v40H188z" stroke="#000" stroke-opacity="0" stroke-width="2" fill="#fff" fill-opacity="0"/><use xlink:href="#o" transform="matrix(1,0,0,1,193,245) translate(0 21.333333333333336)"/><use xlink:href="#p" transform="matrix(1,0,0,1,193,245) translate(47.70370370370371 21.333333333333336)"/><use xlink:href="#q" transform="matrix(1,0,0,1,193,245) translate(183.62962962962962 21.333333333333336)"/><use xlink:href="#r" transform="matrix(1,0,0,1,193,245) translate(223.48148148148147 21.333333333333336)"/><path d="M612 92h200v120H612z" stroke="#b2b2b2" stroke-width="2" fill="#ccc"/><use xlink:href="#s" transform="matrix(1,0,0,1,617,97) translate(0 108.34755555555556)"/><path d="M632 108.67h160v66.66H632z" stroke="#000" stroke-opacity="0" stroke-width="2" fill="#a3d977"/><use xlink:href="#f" transform="matrix(1,0,0,1,637,113.66666666666667) translate(36.97530864197531 17.77777777777778)"/><use xlink:href="#g" transform="matrix(1,0,0,1,637,113.66666666666667) translate(98.64197530864197 17.77777777777778)"/><use xlink:href="#h" transform="matrix(1,0,0,1,637,113.66666666666667) translate(48.45679012345679 44.44444444444444)"/><use xlink:href="#t" transform="matrix(1,0,0,1,637,113.66666666666667) translate(65.74074074074073 44.44444444444444)"/><path d="M552 152c0 22.1-17.9 40-40 40s-40-17.9-40-40 17.9-40 40-40 40 17.9 40 40z" stroke="#000" stroke-width="2" fill="url(#u)"/><use xlink:href="#d" transform="matrix(1,0,0,1,477,117) translate(28.27777777777778 41.198611111111106)"/><path d="M952 152c0 22.1-17.9 40-40 40s-40-17.9-40-40 17.9-40 40-40 40 17.9 40 40z" stroke="#000" stroke-width="2" fill="url(#v)"/><use xlink:href="#d" transform="matrix(1,0,0,1,877,117) translate(28.27777777777778 41.198611111111106)"/><path d="M1412 92h200v120h-200z" stroke="#b2b2b2" stroke-width="2" fill="#ccc"/><use xlink:href="#w" transform="matrix(1,0,0,1,1417,97) translate(0 108.34755555555556)"/><path d="M1434.67 108.67h160v66.66h-160z" stroke="#000" stroke-opacity="0" stroke-width="2" fill="#a3d977"/><use xlink:href="#x" transform="matrix(1,0,0,1,1439.666666666667,113.66666666666667) translate(44.96913580246914 17.77777777777778)"/><use xlink:href="#g" transform="matrix(1,0,0,1,1439.666666666667,113.66666666666667) translate(90.64814814814815 17.77777777777778)"/><use xlink:href="#h" transform="matrix(1,0,0,1,1439.666666666667,113.66666666666667) translate(48.45679012345679 44.44444444444444)"/><use xlink:href="#y" transform="matrix(1,0,0,1,1439.666666666667,113.66666666666667) translate(65.74074074074073 44.44444444444444)"/><path d="M1351.33 152c0 22.1-17.9 40-40 40s-40-17.9-40-40 17.9-40 40-40 40 17.9 40 40z" stroke="#000" stroke-width="2" fill="url(#z)"/><use xlink:href="#d" transform="matrix(1,0,0,1,1276.3333333333335,117) translate(28.27777777777778 41.198611111111106)"/><path d="M554 152h38.5" stroke="#000" stroke-width="2" fill="none"/><path d="M554.03 153h-1.1l.07-1-.03-1h1.06z"/><path d="M607.76 152l-14.26 4.64v-9.28z" stroke="#000" stroke-width="2"/><path d="M814 152h38.5" stroke="#000" stroke-width="2" fill="none"/><path d="M814.03 153H813v-2h1.03z"/><path d="M867.76 152l-14.26 4.64v-9.28z" stroke="#000" stroke-width="2"/><path d="M954 152h297.83" stroke="#000" stroke-width="2" fill="none"/><path d="M954.03 153h-1.1l.07-1-.03-1h1.06z"/><path d="M1267.1 152l-14.27 4.64v-9.28z" stroke="#000" stroke-width="2"/><path d="M1353.33 152h39.17" stroke="#000" stroke-width="2" fill="none"/><path d="M1353.36 153h-1.1l.07-1-.03-1h1.06z"/><path d="M1407.76 152l-14.26 4.64v-9.28z" stroke="#000" stroke-width="2"/><path d="M462 192h100v43.33H462z" stroke="#000" stroke-opacity="0" stroke-width="2" fill-opacity="0"/><g><use xlink:href="#l" transform="matrix(1,0,0,1,467,197.00000000000006) translate(30.129629629629626 19.555555555555557)"/></g><path d="M861.33 192h100v43.33h-100z" stroke="#000" stroke-opacity="0" stroke-width="2" fill-opacity="0"/><g><use xlink:href="#m" transform="matrix(1,0,0,1,866.3333333333333,197.00000000000006) translate(30.129629629629626 19.555555555555557)"/></g><path d="M1261.33 192h100v43.33h-100z" stroke="#000" stroke-opacity="0" stroke-width="2" fill-opacity="0"/><g><use xlink:href="#n" transform="matrix(1,0,0,1,1266.3333333333335,197.00000000000006) translate(30.129629629629626 19.555555555555557)"/></g><path d="M211.3 32h9.93m9.93 0H251m9.94 0h19.85m9.92 0h19.85m9.93 0h19.85m9.93 0h19.85m9.93 0h19.85m9.94 0h19.86m9.92 0h19.86m9.92 0h19.86m9.92 0h19.86m9.92 0h19.86m9.93 0h19.85m9.93 0h19.85m9.93 0h19.86m9.93 0h19.84m9.93 0h19.85m9.93 0h19.85m9.93 0h19.85m9.93 0h19.86m9.93 0h19.85m9.92 0h19.86m9.92 0h19.86m9.93 0h19.86m9.9 0h19.87m9.93 0h19.85m9.93 0h19.85m9.93 0h19.85m9.94 0h19.85m9.92 0h19.85m9.93 0h19.85m9.93 0h19.85m9.93 0h19.86m9.92 0H1204m9.92 0h19.86m9.92 0h19.86m9.92 0h19.86m9.93 0h19.85m9.93 0h19.85m9.93 0h19.85m9.93 0h19.86m9.93 0h19.84m9.93 0h19.85m9.93 0h19.85m9.93 0h19.85m9.93 0h19.87m9.92 0h19.85m9.92 0h9.93" stroke="#b2b2b2" stroke-width="2" fill="none"/><path d="M211.33 32h-4.03v-1h4.03z" fill="#b2b2b2"/><path d="M1610.97 32h1.03" stroke="#b2b2b2" stroke-width="2" fill="none"/><path d="M200 32h340v40H200z" stroke="#000" stroke-opacity="0" stroke-width="2" fill="#fff" fill-opacity="0"/><g><use xlink:href="#o" transform="matrix(1,0,0,1,205,37) translate(0 21.333333333333336)"/><use xlink:href="#p" transform="matrix(1,0,0,1,205,37) translate(47.70370370370371 21.333333333333336)"/><use xlink:href="#q" transform="matrix(1,0,0,1,205,37) translate(183.62962962962962 21.333333333333336)"/><use xlink:href="#A" transform="matrix(1,0,0,1,205,37) translate(223.48148148148147 21.333333333333336)"/></g><defs><path fill="#3aa6dd" d="M72-63c-8 23 5 39 32 30L98-1C54 14 12-6 23-64l18-93H15l7-33h28l24-45h31l-8 45h35l-6 33H90" id="B"/><path fill="#3aa6dd" d="M127 0L95-67 37 0h-53l89-99-49-91h52l30 61 52-61h54l-85 92 52 98h-52" id="C"/><path fill="#3aa6dd" d="M6 0l7-41h62l31-161-67 37 8-42 70-41h48L124-41h57l-8 41H6" id="D"/><g id="a"><use transform="matrix(0.06790123456790124,0,0,0.06790123456790124,0,0)" xlink:href="#B"/><use transform="matrix(0.06790123456790124,0,0,0.06790123456790124,8.080246913580249,0)" xlink:href="#C"/><use transform="matrix(0.06790123456790124,0,0,0.06790123456790124,21.660493827160497,0)" xlink:href="#D"/></g><path d="M96-169c-40 0-48 33-48 73s9 75 48 75c24 0 41-14 43-38l32 2c-6 37-31 61-74 61-59 0-76-41-82-99-10-93 101-131 147-64 4 7 5 14 7 22l-32 3c-4-21-16-35-41-35" id="E"/><use transform="matrix(0.06172839506172839,0,0,0.06172839506172839,0,0)" xlink:href="#E" id="b"/><linearGradient gradientUnits="userSpaceOnUse" id="c" x1="460" y1="400" x2="540" y2="400"><stop offset="0%" stop-color="#ffeca9"/><stop offset="48.37%" stop-color="#ffeca9"/><stop offset="53.8%" stop-color="#fff"/><stop offset="97.83%" stop-color="#fff"/></linearGradient><use transform="matrix(0.07469135802469135,0,0,0.07469135802469135,0,0)" xlink:href="#E" id="d"/><path fill="#3aa6dd" d="M131-73c0-31-25-35-58-33l8-40c36 2 64-5 65-39 0-17-10-28-28-27-23 1-35 12-41 32l-47-9c11-39 39-63 90-62 44 1 76 17 76 60 0 42-26 59-63 64 28 5 48 20 48 54C181 22 9 32 3-60l49-7c3 21 16 31 40 31s39-13 39-37" id="F"/><g id="e"><use transform="matrix(0.06790123456790124,0,0,0.06790123456790124,0,0)" xlink:href="#B"/><use transform="matrix(0.06790123456790124,0,0,0.06790123456790124,8.080246913580249,0)" xlink:href="#C"/><use transform="matrix(0.06790123456790124,0,0,0.06790123456790124,21.660493827160497,0)" xlink:href="#F"/></g><path d="M24 0v-248h195v40H76v63h132v40H76v65h150V0H24" id="G"/><path d="M144 0l-44-69L55 0H2l70-98-66-92h53l41 62 40-62h54l-67 91 71 99h-54" id="H"/><path d="M185-48c-13 30-37 53-82 52C43 2 14-33 14-96s30-98 90-98c62 0 83 45 84 108H66c0 31 8 55 39 56 18 0 30-7 34-22zm-45-69c5-46-57-63-70-21-2 6-4 13-4 21h74" id="I"/><path d="M175 0L67-191c6 58 2 128 3 191H24v-248h59L193-55c-6-58-2-129-3-193h46V0h-61" id="J"/><g id="f"><use transform="matrix(0.06172839506172839,0,0,0.06172839506172839,0,0)" xlink:href="#G"/><use transform="matrix(0.06172839506172839,0,0,0.06172839506172839,14.814814814814813,0)" xlink:href="#H"/><use transform="matrix(0.06172839506172839,0,0,0.06172839506172839,27.160493827160494,0)" xlink:href="#I"/><use transform="matrix(0.06172839506172839,0,0,0.06172839506172839,39.50617283950617,0)" xlink:href="#J"/></g><path d="M30-248c87 1 191-15 191 75 0 78-77 80-158 76V0H30v-248zm33 125c57 0 124 11 124-50 0-59-68-47-124-48v98" id="K"/><use transform="matrix(0.06172839506172839,0,0,0.06172839506172839,0,0)" xlink:href="#K" id="g"/><use transform="matrix(0.06172839506172839,0,0,0.06172839506172839,0,0)" xlink:href="#E" id="h"/><path d="M106-169C34-169 62-67 57 0H25v-261h32l-1 103c12-21 28-36 61-36 89 0 53 116 60 194h-32v-121c2-32-8-49-39-48" id="L"/><path d="M101-251c82-7 93 87 43 132L82-64C71-53 59-42 53-27h129V0H18c2-99 128-94 128-182 0-28-16-43-45-43s-46 15-49 41l-32-3c6-41 34-60 81-64" id="M"/><g id="i"><use transform="matrix(0.06172839506172839,0,0,0.06172839506172839,0,0)" xlink:href="#E"/><use transform="matrix(0.06172839506172839,0,0,0.06172839506172839,11.11111111111111,0)" xlink:href="#L"/><use transform="matrix(0.06172839506172839,0,0,0.06172839506172839,23.45679012345679,0)" xlink:href="#M"/></g><linearGradient gradientUnits="userSpaceOnUse" id="j" x1="940" y1="400" x2="860" y2="400"><stop offset="0%" stop-color="#ffeca9"/><stop offset="48.37%" stop-color="#ffeca9"/><stop offset="53.8%" stop-color="#fff"/><stop offset="97.83%" stop-color="#fff"/></linearGradient><linearGradient gradientUnits="userSpaceOnUse" id="k" x1="1259.33" y1="400" x2="1339.33" y2="400"><stop offset="0%" stop-color="#ffeca9"/><stop offset="48.37%" stop-color="#ffeca9"/><stop offset="53.8%" stop-color="#fff"/><stop offset="97.83%" stop-color="#fff"/></linearGradient><path fill="#3aa6dd" d="M93-157L62 0H13l31-157H16l6-33h28c2-54 40-81 100-68l-6 32c-29-8-44 9-45 36h38l-7 33H93" id="N"/><g id="l"><use transform="matrix(0.06790123456790124,0,0,0.06790123456790124,0,0)" xlink:href="#B"/><use transform="matrix(0.06790123456790124,0,0,0.06790123456790124,8.080246913580249,0)" xlink:href="#N"/><use transform="matrix(0.06790123456790124,0,0,0.06790123456790124,16.160493827160497,0)" xlink:href="#D"/></g><path fill="#3aa6dd" d="M121-251c83 0 93 87 42 126-35 27-77 48-103 84h115l-7 41H-6C6-94 102-103 141-168c11-20 3-46-24-44-23 2-33 13-39 32l-47-10c12-38 39-61 90-61" id="O"/><g id="m"><use transform="matrix(0.06790123456790124,0,0,0.06790123456790124,0,0)" xlink:href="#B"/><use transform="matrix(0.06790123456790124,0,0,0.06790123456790124,8.080246913580249,0)" xlink:href="#N"/><use transform="matrix(0.06790123456790124,0,0,0.06790123456790124,16.160493827160497,0)" xlink:href="#O"/></g><g id="n"><use transform="matrix(0.06790123456790124,0,0,0.06790123456790124,0,0)" xlink:href="#B"/><use transform="matrix(0.06790123456790124,0,0,0.06790123456790124,8.080246913580249,0)" xlink:href="#N"/><use transform="matrix(0.06790123456790124,0,0,0.06790123456790124,16.160493827160497,0)" xlink:href="#F"/></g><path fill="#3aa6dd" d="M183 0l-10-63H79L44 0H-7l138-248h61L234 0h-51zm-14-102l-15-108c-16 38-36 73-55 108h70" id="P"/><path fill="#3aa6dd" d="M73-158H35l13-90h47" id="Q"/><path fill="#3aa6dd" d="M144-137c-1-29-70-35-71-2 16 41 103 10 103 80C176 9 79 16 32-9 18-17 9-31 4-48l44-6c3 32 80 36 82 1-15-42-103-11-103-82 0-77 157-79 161-8" id="R"/><g id="o"><use transform="matrix(0.07407407407407408,0,0,0.07407407407407408,0,0)" xlink:href="#P"/><use transform="matrix(0.07407407407407408,0,0,0.07407407407407408,19.185185185185187,0)" xlink:href="#Q"/><use transform="matrix(0.07407407407407408,0,0,0.07407407407407408,25.481481481481485,0)" xlink:href="#R"/></g><path fill="#3aa6dd" d="M156-122c2-23-7-37-28-37-47 0-58 44-58 89 0 24 12 40 36 40 43 0 47-49 50-92zM-8 75l50-265h48c0 10-3 24-3 30 22-50 127-45 121 29-6 73-21 135-92 135-29 0-46-14-55-35L41 75H-8" id="S"/><path fill="#3aa6dd" d="M84-151c13-25 34-51 72-40l-8 41C67-170 71-64 56 0H6l36-190h47" id="T"/><path fill="#3aa6dd" d="M124-194c51 0 84 22 84 74C207-44 167 4 94 4 43 4 11-23 11-74c0-74 41-120 113-120zM99-30c46 0 58-42 58-86 0-27-11-44-37-44-44 0-55 40-57 84-1 27 10 45 36 46" id="U"/><path fill="#3aa6dd" d="M50-224l7-37h49l-7 37H50zm1 246C45 64 7 85-39 71l7-33c23 5 33-8 36-27l39-201h49" id="V"/><path fill="#3aa6dd" d="M114-194c63-2 87 48 72 110H63c-3 28 1 55 31 54 21-1 32-13 37-29l44 13C160-14 137 4 91 4 41 4 11-22 11-73c0-71 33-119 103-121zm30 77c14-47-50-61-67-22-3 6-6 13-8 22h75" id="W"/><path fill="#3aa6dd" d="M67-101c-8 29-7 73 27 71 23-2 32-16 39-37l48 9C170-19 141 4 91 4 36 4 7-28 12-86c6-75 61-124 140-103 26 7 40 29 43 59l-50 4c-1-20-9-34-29-34-35 0-41 29-49 59" id="X"/><path fill="#3aa6dd" d="M50-224l7-37h49l-7 37H50zM6 0l37-190h49L55 0H6" id="Y"/><path fill="#3aa6dd" d="M151-194c95 0 34 128 28 194h-49l25-134c0-29-45-25-59-9C67-111 69-48 56 0H6l36-190h47l-4 32c15-20 33-36 66-36" id="Z"/><g id="p"><use transform="matrix(0.07407407407407408,0,0,0.07407407407407408,0,0)" xlink:href="#S"/><use transform="matrix(0.07407407407407408,0,0,0.07407407407407408,16.222222222222225,0)" xlink:href="#T"/><use transform="matrix(0.07407407407407408,0,0,0.07407407407407408,26.592592592592595,0)" xlink:href="#U"/><use transform="matrix(0.07407407407407408,0,0,0.07407407407407408,42.814814814814824,0)" xlink:href="#V"/><use transform="matrix(0.07407407407407408,0,0,0.07407407407407408,50.22222222222223,0)" xlink:href="#W"/><use transform="matrix(0.07407407407407408,0,0,0.07407407407407408,65.03703703703704,0)" xlink:href="#X"/><use transform="matrix(0.07407407407407408,0,0,0.07407407407407408,79.85185185185185,0)" xlink:href="#B"/><use transform="matrix(0.07407407407407408,0,0,0.07407407407407408,88.66666666666666,0)" xlink:href="#Y"/><use transform="matrix(0.07407407407407408,0,0,0.07407407407407408,96.07407407407408,0)" xlink:href="#U"/><use transform="matrix(0.07407407407407408,0,0,0.07407407407407408,112.29629629629629,0)" xlink:href="#Z"/></g><g id="q"><use transform="matrix(0.07407407407407408,0,0,0.07407407407407408,0,0)" xlink:href="#U"/><use transform="matrix(0.07407407407407408,0,0,0.07407407407407408,16.222222222222225,0)" xlink:href="#Z"/></g><path fill="#3aa6dd" d="M100 10C77 47 50 87-15 72l7-35c37 9 51-18 65-41L20-190h51L89-44l73-146h53" id="aa"/><path fill="#3aa6dd" d="M6 0l51-261h49L55 0H6" id="ab"/><path fill="#3aa6dd" d="M212 0h-52l-8-156L82 0H30L17-190h46l2 145 66-145h53l8 145 60-145h47" id="ac"/><g id="r"><use transform="matrix(0.07407407407407408,0,0,0.07407407407407408,0,0)" xlink:href="#aa"/><use transform="matrix(0.07407407407407408,0,0,0.07407407407407408,14.814814814814817,0)" xlink:href="#W"/><use transform="matrix(0.07407407407407408,0,0,0.07407407407407408,29.629629629629633,0)" xlink:href="#ab"/><use transform="matrix(0.07407407407407408,0,0,0.07407407407407408,37.03703703703704,0)" xlink:href="#ab"/><use transform="matrix(0.07407407407407408,0,0,0.07407407407407408,44.44444444444444,0)" xlink:href="#U"/><use transform="matrix(0.07407407407407408,0,0,0.07407407407407408,60.66666666666667,0)" xlink:href="#ac"/></g><g id="s"><use transform="matrix(0.06790123456790124,0,0,0.06790123456790124,0,0)" xlink:href="#B"/><use transform="matrix(0.06790123456790124,0,0,0.06790123456790124,8.080246913580249,0)" xlink:href="#C"/><use transform="matrix(0.06790123456790124,0,0,0.06790123456790124,21.660493827160497,0)" xlink:href="#O"/></g><path d="M27 0v-27h64v-190l-56 39v-29l58-41h29v221h61V0H27" id="ad"/><g id="t"><use transform="matrix(0.06172839506172839,0,0,0.06172839506172839,0,0)" xlink:href="#E"/><use transform="matrix(0.06172839506172839,0,0,0.06172839506172839,11.11111111111111,0)" xlink:href="#L"/><use transform="matrix(0.06172839506172839,0,0,0.06172839506172839,23.45679012345679,0)" xlink:href="#ad"/></g><linearGradient gradientUnits="userSpaceOnUse" id="u" x1="472" y1="192" x2="552" y2="192"><stop offset="0%" stop-color="#fff"/><stop offset="48.37%" stop-color="#fff"/><stop offset="53.8%" stop-color="#a3d977"/><stop offset="97.83%" stop-color="#a3d977"/></linearGradient><linearGradient gradientUnits="userSpaceOnUse" id="v" x1="952" y1="192" x2="872" y2="192"><stop offset="0%" stop-color="#fff"/><stop offset="48.37%" stop-color="#fff"/><stop offset="53.8%" stop-color="#a3d977"/><stop offset="97.83%" stop-color="#a3d977"/></linearGradient><path fill="#3aa6dd" d="M154-50L144 0H97l10-50H-6l7-37 126-161h65L161-87h33l-7 37h-33zm-40-37l27-125c-29 45-64 83-95 125h68" id="ae"/><g id="w"><use transform="matrix(0.06790123456790124,0,0,0.06790123456790124,0,0)" xlink:href="#B"/><use transform="matrix(0.06790123456790124,0,0,0.06790123456790124,8.080246913580249,0)" xlink:href="#C"/><use transform="matrix(0.06790123456790124,0,0,0.06790123456790124,21.660493827160497,0)" xlink:href="#ae"/></g><g id="x"><use transform="matrix(0.06172839506172839,0,0,0.06172839506172839,0,0)" xlink:href="#G"/><use transform="matrix(0.06172839506172839,0,0,0.06172839506172839,14.814814814814813,0)" xlink:href="#H"/><use transform="matrix(0.06172839506172839,0,0,0.06172839506172839,27.160493827160494,0)" xlink:href="#I"/></g><path d="M126-127c33 6 58 20 58 59 0 88-139 92-164 29-3-8-5-16-6-25l32-3c6 27 21 44 54 44 32 0 52-15 52-46 0-38-36-46-79-43v-28c39 1 72-4 72-42 0-27-17-43-46-43-28 0-47 15-49 41l-32-3c6-42 35-63 81-64 48-1 79 21 79 65 0 36-21 52-52 59" id="af"/><g id="y"><use transform="matrix(0.06172839506172839,0,0,0.06172839506172839,0,0)" xlink:href="#E"/><use transform="matrix(0.06172839506172839,0,0,0.06172839506172839,11.11111111111111,0)" xlink:href="#L"/><use transform="matrix(0.06172839506172839,0,0,0.06172839506172839,23.45679012345679,0)" xlink:href="#af"/></g><linearGradient gradientUnits="userSpaceOnUse" id="z" x1="1271.33" y1="192" x2="1351.33" y2="192"><stop offset="0%" stop-color="#fff"/><stop offset="48.37%" stop-color="#fff"/><stop offset="53.8%" stop-color="#a3d977"/><stop offset="97.83%" stop-color="#a3d977"/></linearGradient><path fill="#3aa6dd" d="M45-171c29-32 103-29 114 14 2-11 5-23 8-33h47L176-2c-3 70-92 96-155 64C9 56 1 42-1 25l50-5c2 28 48 27 63 11 13-13 20-45 21-66-13 20-30 35-62 36-87 3-60-134-26-172zM94-35c41-3 55-43 55-86 0-24-12-39-35-39-43 0-51 48-51 90 0 22 9 37 31 35" id="ag"/><g id="A"><use transform="matrix(0.07407407407407408,0,0,0.07407407407407408,0,0)" xlink:href="#ag"/><use transform="matrix(0.07407407407407408,0,0,0.07407407407407408,16.222222222222225,0)" xlink:href="#T"/><use transform="matrix(0.07407407407407408,0,0,0.07407407407407408,26.592592592592595,0)" xlink:href="#W"/><use transform="matrix(0.07407407407407408,0,0,0.07407407407407408,41.40740740740741,0)" xlink:href="#W"/><use transform="matrix(0.07407407407407408,0,0,0.07407407407407408,56.22222222222223,0)" xlink:href="#Z"/></g></defs></g></svg>