<svg xmlns="http://www.w3.org/2000/svg" viewBox="0 0 289 78" width="289" height="78">
	<defs>
		<linearGradient id="grd1" gradientUnits="userSpaceOnUse"  x1="150.372" y1="70.385" x2="88.314" y2="8.328">
			<stop offset="0" stop-color="#5d85df"  />
			<stop offset="1" stop-color="#2b58b9"  />
		</linearGradient>
	</defs>
	<style>
		tspan { white-space:pre }
		.shp0 { fill: #ffffff } 
		.shp1 { fill: url(#grd1) } 
		.shp2 { fill: #81a9ff } 
	</style>
	<path id="DML" class="shp0" d="M236.43 0.16L216.13 0.16L195.72 54.2L175.09 0.16L154.45 0.16L154.45 77.83L171.89 77.83L171.89 29.67L189.1 77.83L202.34 77.83L218.99 29.67L218.99 77.83L236.43 77.83L236.43 0.16ZM266.87 62.3L266.87 0.16L249 0.16L249 77.83L288.83 77.83L288.83 62.3L266.87 62.3ZM0.83 0.16L0.83 77.83L29.18 77.83C35.58 77.83 41.28 76.74 46.28 74.56C51.28 72.38 55.49 69.47 58.91 65.85C62.33 62.22 64.93 58.08 66.69 53.42C68.46 48.76 69.34 43.95 69.34 38.99C69.34 34.04 68.44 29.23 66.64 24.57C64.83 19.91 62.22 15.77 58.8 12.14C55.38 8.52 51.19 5.61 46.23 3.43C41.26 1.25 35.58 0.16 29.18 0.16L0.83 0.16ZM28.3 15.69C31.9 15.69 35.12 16.34 37.95 17.63C40.78 18.93 43.17 20.67 45.12 22.85C47.07 25.03 48.56 27.53 49.59 30.34C50.62 33.15 51.14 36.04 51.14 38.99C51.14 42.03 50.62 44.93 49.59 47.7C48.56 50.48 47.07 52.96 45.12 55.14C43.17 57.32 40.78 59.06 37.95 60.35C35.12 61.65 31.9 62.3 28.3 62.3L18.7 62.3L18.7 15.69L28.3 15.69Z" />
	<g id="A">
		<path id="Shape 2 copy" class="shp1" d="M122.79,77.84h17.24l-24.13,-76.97h-17.24zM122.79,77.84h17.24l-24.13,-76.97h-17.24z" />
		<path id="Rectangle 2" class="shp0" d="M83.15,50.34l-8.62,27.5h17.24l8.62,-27.5z" />
		<path id="Rectangle 2 copy" class="shp2" d="M98.66,0.87l-8.84,28.2h17.24l8.84,-28.2z" />
	</g>
</svg>