<svg xmlns="http://www.w3.org/2000/svg" xmlns:xlink="http://www.w3.org/1999/xlink" xmlns:lucid="lucid" width="1380" height="1047.93"><g transform="translate(40 4.599999999999994)" lucid:page-tab-id="0_0"><path d="M-1696 0h3456v1360h-3456z" fill="#fff"/><g class="lucid-layer" lucid:layer-id="L6-ez2dE2id~" display="block"><path d="M704.66 265l119.65 88.4M702.28 268.2l119.65 88.4" stroke="#e5e5e5" stroke-width="2" fill="none"/><path fill="#e5e5e5"/><path d="M702.9 267.4l-1.2 1.62-3.23-2.4.47-.62h2.04z" fill="#e5e5e5"/><path d="M835.4 364.08l-14.23-4.75 5.5-7.46z" stroke="#e5e5e5" stroke-width="2" fill="#e5e5e5"/><path d="M224.22 402.94l-16.2 46.26M220.45 401.62l-16.22 46.26" stroke="#000" stroke-width="2" fill="none"/><path d="M225.16 403.3l-1.9-.67.47-1.3h2.12zM221.38 401.97l-1.8-.64h2.03z"/><path d="M201.07 462.95l.34-15 8.76 3.07z" stroke="#000" stroke-width="2"/><path d="M278 226h560v40H278z" stroke="#000" stroke-opacity="0" stroke-width="2" fill="#fff" fill-opacity="0"/><use xlink:href="#a" transform="matrix(1,0,0,1,283,230.99999999999994) translate(13.395061728395035 17.77777777777778)"/><use xlink:href="#b" transform="matrix(1,0,0,1,283,230.99999999999994) translate(59.07407407407405 17.77777777777778)"/><use xlink:href="#c" transform="matrix(1,0,0,1,283,230.99999999999994) translate(80.06172839506169 17.77777777777778)"/><use xlink:href="#d" transform="matrix(1,0,0,1,283,230.99999999999994) translate(193.02469135802465 17.77777777777778)"/><use xlink:href="#e" transform="matrix(1,0,0,1,283,230.99999999999994) translate(212.77777777777774 17.77777777777778)"/><use xlink:href="#f" transform="matrix(1,0,0,1,283,230.99999999999994) translate(233.3333333333333 17.77777777777778)"/><use xlink:href="#g" transform="matrix(1,0,0,1,283,230.99999999999994) translate(314.8148148148148 17.77777777777778)"/><use xlink:href="#h" transform="matrix(1,0,0,1,283,230.99999999999994) translate(390.12345679012344 17.77777777777778)"/><use xlink:href="#i" transform="matrix(1,0,0,1,283,230.99999999999994) translate(455.4938271604938 17.77777777777778)"/><path d="M178 366h89.33v35.33H178z" stroke="#000" stroke-opacity="0" stroke-width="2" fill="#fff" fill-opacity="0"/><use xlink:href="#j" transform="matrix(1,0,0,1,183.00000000000003,370.99999999999994) translate(0 17.77777777777778)"/><path d="M40 466h320v63.33H40z" stroke="#000" stroke-opacity="0" stroke-width="2" fill="#fff" fill-opacity="0"/><use xlink:href="#k" transform="matrix(1,0,0,1,45,471) translate(0 17.77777777777778)"/><use xlink:href="#l" transform="matrix(1,0,0,1,45,471) translate(45.67901234567901 17.77777777777778)"/><use xlink:href="#m" transform="matrix(1,0,0,1,45,471) translate(66.66666666666666 17.77777777777778)"/><use xlink:href="#n" transform="matrix(1,0,0,1,45,471) translate(111.04938271604937 17.77777777777778)"/><use xlink:href="#o" transform="matrix(1,0,0,1,45,471) translate(180.18518518518516 17.77777777777778)"/><use xlink:href="#p" transform="matrix(1,0,0,1,45,471) translate(208.5185185185185 17.77777777777778)"/><path d="M356 366h320v35.33H356z" stroke="#000" stroke-opacity="0" stroke-width="2" fill="#fff" fill-opacity="0"/><use xlink:href="#q" transform="matrix(1,0,0,1,361,370.99999999999994) translate(0 17.77777777777778)"/><use xlink:href="#d" transform="matrix(1,0,0,1,361,370.99999999999994) translate(45.67901234567901 17.77777777777778)"/><use xlink:href="#r" transform="matrix(1,0,0,1,361,370.99999999999994) translate(65.4320987654321 17.77777777777778)"/><use xlink:href="#s" transform="matrix(1,0,0,1,361,370.99999999999994) translate(109.81481481481481 17.77777777777778)"/><use xlink:href="#t" transform="matrix(1,0,0,1,361,370.99999999999994) translate(178.9506172839506 17.77777777777778)"/><use xlink:href="#u" transform="matrix(1,0,0,1,361,370.99999999999994) translate(207.28395061728395 17.77777777777778)"/><path d="M373.8 268.18L265 355.94M371.3 265.07l-108.82 87.76" stroke="#000" stroke-width="2" fill="none"/><path d="M377.55 266.45l-3.13 2.53-1.26-1.56 1.77-1.42h2.26z"/><path/><path d="M251.85 363.97l8.2-12.57 5.82 7.22z" stroke="#000" stroke-width="2"/><path d="M518 267v80.5M514 267v80.5" stroke="#e5e5e5" stroke-width="2" fill="none"/><path d="M519 267.03h-2V266h2zM515 267.03h-2V266h2z" fill="#e5e5e5"/><path d="M516 362.76l-4.64-14.26h9.28z" stroke="#e5e5e5" stroke-width="2" fill="#e5e5e5"/><path d="M518 402.33v45.17M514 402.33v45.17" stroke="#e5e5e5" stroke-width="2" fill="none"/><path d="M519 402.36h-2v-1.03h2zM515 402.36h-2v-1.03h2z" fill="#e5e5e5"/><path d="M516 462.76l-4.64-14.26h9.28z" stroke="#e5e5e5" stroke-width="2" fill="#e5e5e5"/><path d="M446 466h140v35.33H446z" stroke="#000" stroke-opacity="0" stroke-width="2" fill="#fff" fill-opacity="0"/><use xlink:href="#v" transform="matrix(1,0,0,1,451,471) translate(0 17.77777777777778)"/><use xlink:href="#w" transform="matrix(1,0,0,1,451,471) translate(37.03703703703704 17.77777777777778)"/><use xlink:href="#x" transform="matrix(1,0,0,1,451,471) translate(106.17283950617283 17.77777777777778)"/><path d="M718 366h240v35.33H718z" stroke="#000" stroke-opacity="0" stroke-width="2" fill="#fff" fill-opacity="0"/><use xlink:href="#y" transform="matrix(1,0,0,1,723,370.9999999999999) translate(0 17.77777777777778)"/><use xlink:href="#z" transform="matrix(1,0,0,1,723,370.9999999999999) translate(115.92592592592594 17.77777777777778)"/><use xlink:href="#A" transform="matrix(1,0,0,1,723,370.9999999999999) translate(136.4814814814815 17.77777777777778)"/><use xlink:href="#B" transform="matrix(1,0,0,1,723,370.9999999999999) translate(156.23456790123458 17.77777777777778)"/><path d="M480 60h700v40H480z" stroke="#000" stroke-opacity="0" stroke-width="2" fill="#fff" fill-opacity="0"/><use xlink:href="#C" transform="matrix(1,0,0,1,485,65) translate(21.141975308641975 17.77777777777778)"/><use xlink:href="#b" transform="matrix(1,0,0,1,485,65) translate(82.80864197530863 17.77777777777778)"/><use xlink:href="#c" transform="matrix(1,0,0,1,485,65) translate(103.79629629629629 17.77777777777778)"/><use xlink:href="#d" transform="matrix(1,0,0,1,485,65) translate(216.75925925925924 17.77777777777778)"/><use xlink:href="#e" transform="matrix(1,0,0,1,485,65) translate(236.51234567901233 17.77777777777778)"/><use xlink:href="#f" transform="matrix(1,0,0,1,485,65) translate(257.0679012345679 17.77777777777778)"/><use xlink:href="#g" transform="matrix(1,0,0,1,485,65) translate(338.54938271604937 17.77777777777778)"/><use xlink:href="#h" transform="matrix(1,0,0,1,485,65) translate(413.858024691358 17.77777777777778)"/><use xlink:href="#D" transform="matrix(1,0,0,1,485,65) translate(479.2283950617284 17.77777777777778)"/><path d="M580.74 182.1l-31.08 32.02M577.87 179.32l-31.08 32M580.72 182.13l.7-.74M577.85 179.34l.72-.73" stroke="#000" stroke-width="2" fill="none"/><path d="M537.6 223.68l6.6-13.47 6.65 6.47z" stroke="#000" stroke-width="2"/><path d="M1018.9 99.93l14.03 25.85M1015.4 101.83l14.02 25.86" stroke="#e5e5e5" stroke-width="2" fill="none"/><path d="M1018.03 100.42l-.23-.42h1.02zM1016.28 101.38l-1.76.95-1.27-2.33h2.28z" fill="#e5e5e5"/><path d="M1038.46 140.16l-10.88-10.33 8.15-4.42z" stroke="#e5e5e5" stroke-width="2" fill="#e5e5e5"/><path d="M760 143h560v40H760z" stroke="#000" stroke-opacity="0" stroke-width="2" fill="#fff" fill-opacity="0"/><use xlink:href="#a" transform="matrix(1,0,0,1,765,147.99999999999997) translate(14.043209876543187 17.77777777777778)"/><use xlink:href="#b" transform="matrix(1,0,0,1,765,147.99999999999997) translate(59.7222222222222 17.77777777777778)"/><use xlink:href="#c" transform="matrix(1,0,0,1,765,147.99999999999997) translate(80.70987654320984 17.77777777777778)"/><use xlink:href="#d" transform="matrix(1,0,0,1,765,147.99999999999997) translate(193.6728395061728 17.77777777777778)"/><use xlink:href="#e" transform="matrix(1,0,0,1,765,147.99999999999997) translate(213.4259259259259 17.77777777777778)"/><use xlink:href="#f" transform="matrix(1,0,0,1,765,147.99999999999997) translate(233.98148148148144 17.77777777777778)"/><use xlink:href="#g" transform="matrix(1,0,0,1,765,147.99999999999997) translate(315.46296296296293 17.77777777777778)"/><use xlink:href="#h" transform="matrix(1,0,0,1,765,147.99999999999997) translate(390.7716049382716 17.77777777777778)"/><use xlink:href="#E" transform="matrix(1,0,0,1,765,147.99999999999997) translate(456.141975308642 17.77777777777778)"/><path d="M560 140h89.33v35.33H560z" stroke="#000" stroke-opacity="0" stroke-width="2" fill="#fff" fill-opacity="0"/><g><use xlink:href="#j" transform="matrix(1,0,0,1,565,145) translate(0 17.77777777777778)"/></g><path d="M691.83 102.22l-46.48 29.54M689.7 98.85l-46.5 29.54" stroke="#e5e5e5" stroke-width="2" fill="none"/><path d="M695.75 100.92l-3.4 2.16-1.07-1.7 2.2-1.38h1.68z" fill="#e5e5e5"/><path fill="#e5e5e5"/><path d="M631.4 138.26l9.55-11.56 4.97 7.82z" stroke="#e5e5e5" stroke-width="2" fill="#e5e5e5"/><path d="M-20 15.4h287.33v69.2H-20z" stroke="#5e5e5e" stroke-width="2" fill="#fff" fill-opacity="0"/><g><use xlink:href="#F" transform="matrix(1,0,0,1,-15,20.400000000000006) translate(29.520987654321033 34.48888888888889)"/><use xlink:href="#G" transform="matrix(1,0,0,1,-15,20.400000000000006) translate(145.23456790123458 34.48888888888889)"/><use xlink:href="#H" transform="matrix(1,0,0,1,-15,20.400000000000006) translate(181.27037037037036 34.48888888888889)"/></g><path d="M275.33 680h107.34v35.33H275.33z" stroke="#000" stroke-opacity="0" stroke-width="2" fill="#fff" fill-opacity="0"/><g><use xlink:href="#I" transform="matrix(1,0,0,1,280.33333333333326,684.9999999999999) translate(0 17.77777777777778)"/></g><path d="M275.33 820h107.34v35.33H275.33z" stroke="#000" stroke-opacity="0" stroke-width="2" fill="#fff" fill-opacity="0"/><g><use xlink:href="#I" transform="matrix(1,0,0,1,280.33333333333326,824.9999999999999) translate(0 17.77777777777778)"/></g><path d="M160 960h320v63.33H160z" stroke="#000" stroke-opacity="0" stroke-width="2" fill="#fff" fill-opacity="0"/><g><use xlink:href="#J" transform="matrix(1,0,0,1,165,964.9999999999999) translate(0 17.77777777777778)"/><use xlink:href="#K" transform="matrix(1,0,0,1,165,964.9999999999999) translate(45.67901234567901 17.77777777777778)"/><use xlink:href="#L" transform="matrix(1,0,0,1,165,964.9999999999999) translate(66.66666666666666 17.77777777777778)"/><use xlink:href="#M" transform="matrix(1,0,0,1,165,964.9999999999999) translate(111.04938271604937 17.77777777777778)"/><use xlink:href="#N" transform="matrix(1,0,0,1,165,964.9999999999999) translate(180.18518518518516 17.77777777777778)"/><use xlink:href="#O" transform="matrix(1,0,0,1,165,964.9999999999999) translate(208.5185185185185 17.77777777777778)"/></g><path d="M325.4 716.33v85.17M321.4 716.33v85.17" stroke="#000" stroke-width="2" fill="none"/><path d="M326.4 716.36h-2v-1.03h2zM322.4 716.36h-2v-1.03h2z"/><path d="M323.4 816.76l-4.64-14.26h9.27z" stroke="#000" stroke-width="2"/><path d="M324.73 856.33v70.63M320.73 856.33v70.63" stroke="#000" stroke-width="2" fill="none"/><path d="M325.73 856.36h-2v-1.03h2zM321.73 856.36h-2v-1.03h2z"/><path d="M322.73 942.23l-4.64-14.27h9.26z" stroke="#000" stroke-width="2"/><path d="M975.33 736h107.34v35.33H975.33z" stroke="#000" stroke-opacity="0" stroke-width="2" fill="#fff" fill-opacity="0"/><g><use xlink:href="#I" transform="matrix(1,0,0,1,980.3333333333333,740.9999999999998) translate(0 17.77777777777778)"/></g><path d="M860 876h320v63.33H860z" stroke="#000" stroke-opacity="0" stroke-width="2" fill="#fff" fill-opacity="0"/><g><use xlink:href="#J" transform="matrix(1,0,0,1,865,880.9999999999998) translate(0 17.77777777777778)"/><use xlink:href="#K" transform="matrix(1,0,0,1,865,880.9999999999998) translate(45.67901234567901 17.77777777777778)"/><use xlink:href="#L" transform="matrix(1,0,0,1,865,880.9999999999998) translate(66.66666666666666 17.77777777777778)"/><use xlink:href="#M" transform="matrix(1,0,0,1,865,880.9999999999998) translate(111.04938271604937 17.77777777777778)"/><use xlink:href="#N" transform="matrix(1,0,0,1,865,880.9999999999998) translate(180.18518518518516 17.77777777777778)"/><use xlink:href="#O" transform="matrix(1,0,0,1,865,880.9999999999998) translate(208.5185185185185 17.77777777777778)"/></g><path d="M1024.73 772.33v70.63M1020.73 772.33v70.63" stroke="#000" stroke-width="2" fill="none"/><path d="M1025.73 772.36h-2v-1.03h2zM1021.73 772.36h-2v-1.03h2z"/><path d="M1022.73 858.23l-4.64-14.27h9.26z" stroke="#000" stroke-width="2"/><path d="M-20 570.07h280v69.2H-20z" stroke="#5e5e5e" stroke-width="2" fill="#fff" fill-opacity="0"/><g><use xlink:href="#P" transform="matrix(1,0,0,1,-15,575.0666666666666) translate(33.75061728395066 34.48888888888889)"/><use xlink:href="#Q" transform="matrix(1,0,0,1,-15,575.0666666666666) translate(89.7993827160494 34.48888888888889)"/><use xlink:href="#R" transform="matrix(1,0,0,1,-15,575.0666666666666) translate(167.85617283950614 34.48888888888889)"/></g><path d="M760 570.07h280v69.2H760z" stroke="#5e5e5e" stroke-width="2" fill="#fff" fill-opacity="0"/><g><use xlink:href="#S" transform="matrix(1,0,0,1,765,575.0666666666666) translate(31.755555555555617 34.48888888888889)"/><use xlink:href="#T" transform="matrix(1,0,0,1,765,575.0666666666666) translate(90.17345679012348 34.48888888888889)"/></g></g><defs><path fill="#ccc" d="M24 0v-248h195v40H76v63h132v40H76v65h150V0H24" id="U"/><path fill="#ccc" d="M144 0l-44-69L55 0H2l70-98-66-92h53l41 62 40-62h54l-67 91 71 99h-54" id="V"/><path fill="#ccc" d="M185-48c-13 30-37 53-82 52C43 2 14-33 14-96s30-98 90-98c62 0 83 45 84 108H66c0 31 8 55 39 56 18 0 30-7 34-22zm-45-69c5-46-57-63-70-21-2 6-4 13-4 21h74" id="W"/><g id="a"><use transform="matrix(0.06172839506172839,0,0,0.06172839506172839,0,0)" xlink:href="#U"/><use transform="matrix(0.06172839506172839,0,0,0.06172839506172839,14.814814814814813,0)" xlink:href="#V"/><use transform="matrix(0.06172839506172839,0,0,0.06172839506172839,27.160493827160494,0)" xlink:href="#W"/></g><path fill="#ccc" d="M205 0l-28-72H64L36 0H1l101-248h38L239 0h-34zm-38-99l-47-123c-12 45-31 82-46 123h93" id="X"/><use transform="matrix(0.06172839506172839,0,0,0.06172839506172839,0,0)" xlink:href="#X" id="b"/><path fill="#ccc" d="M87 75C49 33 22-17 22-94c0-76 28-126 65-167h31c-38 41-64 92-64 168S80 34 118 75H87" id="Y"/><path fill="#ccc" d="M30-248c87 1 191-15 191 75 0 78-77 80-158 76V0H30v-248zm33 125c57 0 124 11 124-50 0-59-68-47-124-48v98" id="Z"/><path fill="#ccc" d="M141-36C126-15 110 5 73 4 37 3 15-17 15-53c-1-64 63-63 125-63 3-35-9-54-41-54-24 1-41 7-42 31l-33-3c5-37 33-52 76-52 45 0 72 20 72 64v82c-1 20 7 32 28 27v20c-31 9-61-2-59-35zM48-53c0 20 12 33 32 33 41-3 63-29 60-74-43 2-92-5-92 41" id="aa"/><path fill="#ccc" d="M24-231v-30h32v30H24zM24 0v-190h32V0H24" id="ab"/><path fill="#ccc" d="M117-194c89-4 53 116 60 194h-32v-121c0-31-8-49-39-48C34-167 62-67 57 0H25l-1-190h30c1 10-1 24 2 32 11-22 29-35 61-36" id="ac"/><path fill="#ccc" d="M59-47c-2 24 18 29 38 22v24C64 9 27 4 27-40v-127H5v-23h24l9-43h21v43h35v23H59v120" id="ad"/><path fill="#ccc" d="M140-251c81 0 123 46 123 126C263-46 219 4 140 4 59 4 17-45 17-125s42-126 123-126zm0 227c63 0 89-41 89-101s-29-99-89-99c-61 0-89 39-89 99S79-25 140-24" id="ae"/><path fill="#ccc" d="M101-234c-31-9-42 10-38 44h38v23H63V0H32v-167H5v-23h27c-7-52 17-82 69-68v24" id="af"/><path fill="#ccc" d="M100-194c63 0 86 42 84 106H49c0 40 14 67 53 68 26 1 43-12 49-29l28 8c-11 28-37 45-77 45C44 4 14-33 15-96c1-61 26-98 85-98zm52 81c6-60-76-77-97-28-3 7-6 17-6 28h103" id="ag"/><path fill="#ccc" d="M114-163C36-179 61-72 57 0H25l-1-190h30c1 12-1 29 2 39 6-27 23-49 58-41v29" id="ah"/><g id="c"><use transform="matrix(0.06172839506172839,0,0,0.06172839506172839,0,0)" xlink:href="#Y"/><use transform="matrix(0.06172839506172839,0,0,0.06172839506172839,7.345679012345679,0)" xlink:href="#Z"/><use transform="matrix(0.06172839506172839,0,0,0.06172839506172839,22.160493827160494,0)" xlink:href="#aa"/><use transform="matrix(0.06172839506172839,0,0,0.06172839506172839,34.50617283950617,0)" xlink:href="#ab"/><use transform="matrix(0.06172839506172839,0,0,0.06172839506172839,39.382716049382715,0)" xlink:href="#ac"/><use transform="matrix(0.06172839506172839,0,0,0.06172839506172839,51.72839506172839,0)" xlink:href="#ad"/><use transform="matrix(0.06172839506172839,0,0,0.06172839506172839,57.901234567901234,0)" xlink:href="#ae"/><use transform="matrix(0.06172839506172839,0,0,0.06172839506172839,75.18518518518519,0)" xlink:href="#af"/><use transform="matrix(0.06172839506172839,0,0,0.06172839506172839,80.92592592592592,0)" xlink:href="#af"/><use transform="matrix(0.06172839506172839,0,0,0.06172839506172839,87.09876543209876,0)" xlink:href="#ag"/><use transform="matrix(0.06172839506172839,0,0,0.06172839506172839,99.44444444444444,0)" xlink:href="#ah"/></g><use transform="matrix(0.06172839506172839,0,0,0.06172839506172839,0,0)" xlink:href="#X" id="d"/><use transform="matrix(0.06172839506172839,0,0,0.06172839506172839,0,0)" xlink:href="#Z" id="e"/><path fill="#ccc" d="M26 75v-336h71v23H56V52h41v23H26" id="ai"/><path fill="#ccc" d="M160-131c35 5 61 23 61 61C221 17 115-2 30 0v-248c76 3 177-17 177 60 0 33-19 50-47 57zm-97-11c50-1 110 9 110-42 0-47-63-36-110-37v79zm0 115c55-2 124 14 124-45 0-56-70-42-124-44v89" id="aj"/><path fill="#ccc" d="M143 0L79-87 56-68V0H24v-261h32v163l83-92h37l-77 82L181 0h-38" id="ak"/><path fill="#ccc" d="M27 0v-27h64v-190l-56 39v-29l58-41h29v221h61V0H27" id="al"/><path fill="#ccc" d="M68-38c1 34 0 65-14 84H32c9-13 17-26 17-46H33v-38h35" id="am"/><g id="f"><use transform="matrix(0.06172839506172839,0,0,0.06172839506172839,0,0)" xlink:href="#ai"/><use transform="matrix(0.06172839506172839,0,0,0.06172839506172839,6.172839506172839,0)" xlink:href="#aj"/><use transform="matrix(0.06172839506172839,0,0,0.06172839506172839,20.98765432098765,0)" xlink:href="#aa"/><use transform="matrix(0.06172839506172839,0,0,0.06172839506172839,33.33333333333333,0)" xlink:href="#ac"/><use transform="matrix(0.06172839506172839,0,0,0.06172839506172839,45.679012345679006,0)" xlink:href="#ak"/><use transform="matrix(0.06172839506172839,0,0,0.06172839506172839,56.79012345679011,0)" xlink:href="#al"/><use transform="matrix(0.06172839506172839,0,0,0.06172839506172839,69.1358024691358,0)" xlink:href="#am"/></g><path fill="#ccc" d="M101-251c82-7 93 87 43 132L82-64C71-53 59-42 53-27h129V0H18c2-99 128-94 128-182 0-28-16-43-45-43s-46 15-49 41l-32-3c6-41 34-60 81-64" id="an"/><path fill="#ccc" d="M3 75V52h41v-290H3v-23h71V75H3" id="ao"/><g id="g"><use transform="matrix(0.06172839506172839,0,0,0.06172839506172839,0,0)" xlink:href="#aj"/><use transform="matrix(0.06172839506172839,0,0,0.06172839506172839,14.814814814814813,0)" xlink:href="#aa"/><use transform="matrix(0.06172839506172839,0,0,0.06172839506172839,27.160493827160494,0)" xlink:href="#ac"/><use transform="matrix(0.06172839506172839,0,0,0.06172839506172839,39.50617283950617,0)" xlink:href="#ak"/><use transform="matrix(0.06172839506172839,0,0,0.06172839506172839,50.61728395061728,0)" xlink:href="#an"/><use transform="matrix(0.06172839506172839,0,0,0.06172839506172839,62.962962962962955,0)" xlink:href="#ao"/></g><path fill="#ccc" d="M126-127c33 6 58 20 58 59 0 88-139 92-164 29-3-8-5-16-6-25l32-3c6 27 21 44 54 44 32 0 52-15 52-46 0-38-36-46-79-43v-28c39 1 72-4 72-42 0-27-17-43-46-43-28 0-47 15-49 41l-32-3c6-42 35-63 81-64 48-1 79 21 79 65 0 36-21 52-52 59" id="ap"/><path fill="#ccc" d="M33-261c38 41 65 92 65 168S71 34 33 75H2C39 34 66-17 66-93S39-220 2-261h31" id="aq"/><g id="h"><use transform="matrix(0.06172839506172839,0,0,0.06172839506172839,0,0)" xlink:href="#Z"/><use transform="matrix(0.06172839506172839,0,0,0.06172839506172839,14.814814814814813,0)" xlink:href="#al"/><use transform="matrix(0.06172839506172839,0,0,0.06172839506172839,27.160493827160494,0)" xlink:href="#an"/><use transform="matrix(0.06172839506172839,0,0,0.06172839506172839,39.50617283950617,0)" xlink:href="#ap"/><use transform="matrix(0.06172839506172839,0,0,0.06172839506172839,51.85185185185185,0)" xlink:href="#aq"/></g><path fill="#ccc" d="M109-170H84l-4-78h32zm-65 0H19l-4-78h33" id="ar"/><path fill="#ccc" d="M96-169c-40 0-48 33-48 73s9 75 48 75c24 0 41-14 43-38l32 2c-6 37-31 61-74 61-59 0-76-41-82-99-10-93 101-131 147-64 4 7 5 14 7 22l-32 3c-4-21-16-35-41-35" id="as"/><path fill="#ccc" d="M115-194c55 1 70 41 70 98S169 2 115 4C84 4 66-9 55-30l1 105H24l-1-265h31l2 30c10-21 28-34 59-34zm-8 174c40 0 45-34 45-75s-6-73-45-74c-42 0-51 32-51 76 0 43 10 73 51 73" id="at"/><g id="i"><use transform="matrix(0.06172839506172839,0,0,0.06172839506172839,0,0)" xlink:href="#ar"/><use transform="matrix(0.06172839506172839,0,0,0.06172839506172839,7.8395061728395055,0)" xlink:href="#aa"/><use transform="matrix(0.06172839506172839,0,0,0.06172839506172839,20.185185185185183,0)" xlink:href="#as"/><use transform="matrix(0.06172839506172839,0,0,0.06172839506172839,31.296296296296294,0)" xlink:href="#as"/><use transform="matrix(0.06172839506172839,0,0,0.06172839506172839,42.407407407407405,0)" xlink:href="#ag"/><use transform="matrix(0.06172839506172839,0,0,0.06172839506172839,54.75308641975308,0)" xlink:href="#at"/><use transform="matrix(0.06172839506172839,0,0,0.06172839506172839,67.09876543209876,0)" xlink:href="#ad"/><use transform="matrix(0.06172839506172839,0,0,0.06172839506172839,73.2716049382716,0)" xlink:href="#ar"/></g><path d="M240-174c0 40-23 61-54 70L253 0h-59l-57-94H76V0H24v-248c93 4 217-23 216 74zM76-134c48-2 112 12 112-38 0-48-66-32-112-35v73" id="au"/><path d="M110-194c64 0 96 36 96 99 0 64-35 99-97 99-61 0-95-36-95-99 0-62 34-99 96-99zm-1 164c35 0 45-28 45-65 0-40-10-65-43-65-34 0-45 26-45 65 0 36 10 65 43 65" id="av"/><path d="M25 0v-261h50V0H25" id="aw"/><path d="M135-194c52 0 70 43 70 98 0 56-19 99-73 100-30 1-46-15-58-35L72 0H24l1-261h50v104c11-23 29-37 60-37zM114-30c31 0 40-27 40-66 0-37-7-63-39-63s-41 28-41 65c0 36 8 64 40 64" id="ax"/><path d="M133-34C117-15 103 5 69 4 32 3 11-16 11-54c-1-60 55-63 116-61 1-26-3-47-28-47-18 1-26 9-28 27l-52-2c7-38 36-58 82-57s74 22 75 68l1 82c-1 14 12 18 25 15v27c-30 8-71 5-69-32zm-48 3c29 0 43-24 42-57-32 0-66-3-65 30 0 17 8 27 23 27" id="ay"/><path d="M190-63c-7 42-38 67-86 67-59 0-84-38-90-98-12-110 154-137 174-36l-49 2c-2-19-15-32-35-32-30 0-35 28-38 64-6 74 65 87 74 30" id="az"/><path d="M147 0L96-86 75-71V0H25v-261h50v150l67-79h53l-66 74L201 0h-54" id="aA"/><g id="j"><use transform="matrix(0.06172839506172839,0,0,0.06172839506172839,0,0)" xlink:href="#au"/><use transform="matrix(0.06172839506172839,0,0,0.06172839506172839,15.987654320987653,0)" xlink:href="#av"/><use transform="matrix(0.06172839506172839,0,0,0.06172839506172839,29.50617283950617,0)" xlink:href="#aw"/><use transform="matrix(0.06172839506172839,0,0,0.06172839506172839,35.67901234567901,0)" xlink:href="#aw"/><use transform="matrix(0.06172839506172839,0,0,0.06172839506172839,41.851851851851855,0)" xlink:href="#ax"/><use transform="matrix(0.06172839506172839,0,0,0.06172839506172839,55.370370370370374,0)" xlink:href="#ay"/><use transform="matrix(0.06172839506172839,0,0,0.06172839506172839,67.71604938271605,0)" xlink:href="#az"/><use transform="matrix(0.06172839506172839,0,0,0.06172839506172839,80.06172839506173,0)" xlink:href="#aA"/></g><path d="M24 0v-248h195v40H76v63h132v40H76v65h150V0H24" id="aB"/><path d="M144 0l-44-69L55 0H2l70-98-66-92h53l41 62 40-62h54l-67 91 71 99h-54" id="aC"/><path d="M185-48c-13 30-37 53-82 52C43 2 14-33 14-96s30-98 90-98c62 0 83 45 84 108H66c0 31 8 55 39 56 18 0 30-7 34-22zm-45-69c5-46-57-63-70-21-2 6-4 13-4 21h74" id="aD"/><g id="k"><use transform="matrix(0.06172839506172839,0,0,0.06172839506172839,0,0)" xlink:href="#aB"/><use transform="matrix(0.06172839506172839,0,0,0.06172839506172839,14.814814814814813,0)" xlink:href="#aC"/><use transform="matrix(0.06172839506172839,0,0,0.06172839506172839,27.160493827160494,0)" xlink:href="#aD"/></g><path d="M205 0l-28-72H64L36 0H1l101-248h38L239 0h-34zm-38-99l-47-123c-12 45-31 82-46 123h93" id="aE"/><use transform="matrix(0.06172839506172839,0,0,0.06172839506172839,0,0)" xlink:href="#aE" id="l"/><path d="M87 75C49 33 22-17 22-94c0-76 28-126 65-167h31c-38 41-64 92-64 168S80 34 118 75H87" id="aF"/><path d="M33 0v-248h34V0H33" id="aG"/><path d="M100-194c62-1 85 37 85 99 1 63-27 99-86 99S16-35 15-95c0-66 28-99 85-99zM99-20c44 1 53-31 53-75 0-43-8-75-51-75s-53 32-53 75 10 74 51 75" id="aH"/><path d="M84 4C-5 8 30-112 23-190h32v120c0 31 7 50 39 49 72-2 45-101 50-169h31l1 190h-30c-1-10 1-25-2-33-11 22-28 36-60 37" id="aI"/><g id="m"><use transform="matrix(0.06172839506172839,0,0,0.06172839506172839,0,0)" xlink:href="#aF"/><use transform="matrix(0.06172839506172839,0,0,0.06172839506172839,7.345679012345679,0)" xlink:href="#aG"/><use transform="matrix(0.06172839506172839,0,0,0.06172839506172839,13.518518518518519,0)" xlink:href="#aH"/><use transform="matrix(0.06172839506172839,0,0,0.06172839506172839,25.864197530864196,0)" xlink:href="#aI"/></g><path d="M160-131c35 5 61 23 61 61C221 17 115-2 30 0v-248c76 3 177-17 177 60 0 33-19 50-47 57zm-97-11c50-1 110 9 110-42 0-47-63-36-110-37v79zm0 115c55-2 124 14 124-45 0-56-70-42-124-44v89" id="aJ"/><path d="M141-36C126-15 110 5 73 4 37 3 15-17 15-53c-1-64 63-63 125-63 3-35-9-54-41-54-24 1-41 7-42 31l-33-3c5-37 33-52 76-52 45 0 72 20 72 64v82c-1 20 7 32 28 27v20c-31 9-61-2-59-35zM48-53c0 20 12 33 32 33 41-3 63-29 60-74-43 2-92-5-92 41" id="aK"/><path d="M117-194c89-4 53 116 60 194h-32v-121c0-31-8-49-39-48C34-167 62-67 57 0H25l-1-190h30c1 10-1 24 2 32 11-22 29-35 61-36" id="aL"/><path d="M143 0L79-87 56-68V0H24v-261h32v163l83-92h37l-77 82L181 0h-38" id="aM"/><path d="M27 0v-27h64v-190l-56 39v-29l58-41h29v221h61V0H27" id="aN"/><g id="n"><use transform="matrix(0.06172839506172839,0,0,0.06172839506172839,0,0)" xlink:href="#aJ"/><use transform="matrix(0.06172839506172839,0,0,0.06172839506172839,14.814814814814813,0)" xlink:href="#aK"/><use transform="matrix(0.06172839506172839,0,0,0.06172839506172839,27.160493827160494,0)" xlink:href="#aL"/><use transform="matrix(0.06172839506172839,0,0,0.06172839506172839,39.50617283950617,0)" xlink:href="#aM"/><use transform="matrix(0.06172839506172839,0,0,0.06172839506172839,50.61728395061728,0)" xlink:href="#aN"/></g><path d="M33-261c38 41 65 92 65 168S71 34 33 75H2C39 34 66-17 66-93S39-220 2-261h31" id="aO"/><g id="o"><use transform="matrix(0.06172839506172839,0,0,0.06172839506172839,0,0)" xlink:href="#aE"/><use transform="matrix(0.06172839506172839,0,0,0.06172839506172839,14.814814814814813,0)" xlink:href="#aO"/></g><path d="M109-170H84l-4-78h32zm-65 0H19l-4-78h33" id="aP"/><path d="M59-47c-2 24 18 29 38 22v24C64 9 27 4 27-40v-127H5v-23h24l9-43h21v43h35v23H59v120" id="aQ"/><path d="M114-163C36-179 61-72 57 0H25l-1-190h30c1 12-1 29 2 39 6-27 23-49 58-41v29" id="aR"/><path d="M135-143c-3-34-86-38-87 0 15 53 115 12 119 90S17 21 10-45l28-5c4 36 97 45 98 0-10-56-113-15-118-90-4-57 82-63 122-42 12 7 21 19 24 35" id="aS"/><path d="M101-234c-31-9-42 10-38 44h38v23H63V0H32v-167H5v-23h27c-7-52 17-82 69-68v24" id="aT"/><path d="M100-194c63 0 86 42 84 106H49c0 40 14 67 53 68 26 1 43-12 49-29l28 8c-11 28-37 45-77 45C44 4 14-33 15-96c1-61 26-98 85-98zm52 81c6-60-76-77-97-28-3 7-6 17-6 28h103" id="aU"/><g id="p"><use transform="matrix(0.06172839506172839,0,0,0.06172839506172839,0,0)" xlink:href="#aP"/><use transform="matrix(0.06172839506172839,0,0,0.06172839506172839,7.8395061728395055,0)" xlink:href="#aQ"/><use transform="matrix(0.06172839506172839,0,0,0.06172839506172839,14.012345679012345,0)" xlink:href="#aR"/><use transform="matrix(0.06172839506172839,0,0,0.06172839506172839,21.358024691358025,0)" xlink:href="#aK"/><use transform="matrix(0.06172839506172839,0,0,0.06172839506172839,33.7037037037037,0)" xlink:href="#aL"/><use transform="matrix(0.06172839506172839,0,0,0.06172839506172839,46.04938271604938,0)" xlink:href="#aS"/><use transform="matrix(0.06172839506172839,0,0,0.06172839506172839,57.160493827160494,0)" xlink:href="#aT"/><use transform="matrix(0.06172839506172839,0,0,0.06172839506172839,63.33333333333333,0)" xlink:href="#aU"/><use transform="matrix(0.06172839506172839,0,0,0.06172839506172839,75.67901234567901,0)" xlink:href="#aR"/><use transform="matrix(0.06172839506172839,0,0,0.06172839506172839,83.0246913580247,0)" xlink:href="#aP"/></g><g id="q"><use transform="matrix(0.06172839506172839,0,0,0.06172839506172839,0,0)" xlink:href="#U"/><use transform="matrix(0.06172839506172839,0,0,0.06172839506172839,14.814814814814813,0)" xlink:href="#V"/><use transform="matrix(0.06172839506172839,0,0,0.06172839506172839,27.160493827160494,0)" xlink:href="#W"/></g><path fill="#ccc" d="M33 0v-248h34V0H33" id="aV"/><path fill="#ccc" d="M100-194c62-1 85 37 85 99 1 63-27 99-86 99S16-35 15-95c0-66 28-99 85-99zM99-20c44 1 53-31 53-75 0-43-8-75-51-75s-53 32-53 75 10 74 51 75" id="aW"/><path fill="#ccc" d="M84 4C-5 8 30-112 23-190h32v120c0 31 7 50 39 49 72-2 45-101 50-169h31l1 190h-30c-1-10 1-25-2-33-11 22-28 36-60 37" id="aX"/><g id="r"><use transform="matrix(0.06172839506172839,0,0,0.06172839506172839,0,0)" xlink:href="#Y"/><use transform="matrix(0.06172839506172839,0,0,0.06172839506172839,7.345679012345679,0)" xlink:href="#aV"/><use transform="matrix(0.06172839506172839,0,0,0.06172839506172839,13.518518518518519,0)" xlink:href="#aW"/><use transform="matrix(0.06172839506172839,0,0,0.06172839506172839,25.864197530864196,0)" xlink:href="#aX"/></g><g id="s"><use transform="matrix(0.06172839506172839,0,0,0.06172839506172839,0,0)" xlink:href="#aj"/><use transform="matrix(0.06172839506172839,0,0,0.06172839506172839,14.814814814814813,0)" xlink:href="#aa"/><use transform="matrix(0.06172839506172839,0,0,0.06172839506172839,27.160493827160494,0)" xlink:href="#ac"/><use transform="matrix(0.06172839506172839,0,0,0.06172839506172839,39.50617283950617,0)" xlink:href="#ak"/><use transform="matrix(0.06172839506172839,0,0,0.06172839506172839,50.61728395061728,0)" xlink:href="#an"/></g><g id="t"><use transform="matrix(0.06172839506172839,0,0,0.06172839506172839,0,0)" xlink:href="#X"/><use transform="matrix(0.06172839506172839,0,0,0.06172839506172839,14.814814814814813,0)" xlink:href="#aq"/></g><path fill="#ccc" d="M135-143c-3-34-86-38-87 0 15 53 115 12 119 90S17 21 10-45l28-5c4 36 97 45 98 0-10-56-113-15-118-90-4-57 82-63 122-42 12 7 21 19 24 35" id="aY"/><g id="u"><use transform="matrix(0.06172839506172839,0,0,0.06172839506172839,0,0)" xlink:href="#ar"/><use transform="matrix(0.06172839506172839,0,0,0.06172839506172839,7.8395061728395055,0)" xlink:href="#ad"/><use transform="matrix(0.06172839506172839,0,0,0.06172839506172839,14.012345679012345,0)" xlink:href="#ah"/><use transform="matrix(0.06172839506172839,0,0,0.06172839506172839,21.358024691358025,0)" xlink:href="#aa"/><use transform="matrix(0.06172839506172839,0,0,0.06172839506172839,33.7037037037037,0)" xlink:href="#ac"/><use transform="matrix(0.06172839506172839,0,0,0.06172839506172839,46.04938271604938,0)" xlink:href="#aY"/><use transform="matrix(0.06172839506172839,0,0,0.06172839506172839,57.160493827160494,0)" xlink:href="#af"/><use transform="matrix(0.06172839506172839,0,0,0.06172839506172839,63.33333333333333,0)" xlink:href="#ag"/><use transform="matrix(0.06172839506172839,0,0,0.06172839506172839,75.67901234567901,0)" xlink:href="#ah"/><use transform="matrix(0.06172839506172839,0,0,0.06172839506172839,83.0246913580247,0)" xlink:href="#ar"/></g><g id="v"><use transform="matrix(0.06172839506172839,0,0,0.06172839506172839,0,0)" xlink:href="#aV"/><use transform="matrix(0.06172839506172839,0,0,0.06172839506172839,6.172839506172839,0)" xlink:href="#aW"/><use transform="matrix(0.06172839506172839,0,0,0.06172839506172839,18.51851851851852,0)" xlink:href="#aX"/></g><g id="w"><use transform="matrix(0.06172839506172839,0,0,0.06172839506172839,0,0)" xlink:href="#aj"/><use transform="matrix(0.06172839506172839,0,0,0.06172839506172839,14.814814814814813,0)" xlink:href="#aa"/><use transform="matrix(0.06172839506172839,0,0,0.06172839506172839,27.160493827160494,0)" xlink:href="#ac"/><use transform="matrix(0.06172839506172839,0,0,0.06172839506172839,39.50617283950617,0)" xlink:href="#ak"/><use transform="matrix(0.06172839506172839,0,0,0.06172839506172839,50.61728395061728,0)" xlink:href="#an"/></g><use transform="matrix(0.06172839506172839,0,0,0.06172839506172839,0,0)" xlink:href="#Z" id="x"/><path fill="#ccc" d="M177-190C167-65 218 103 67 71c-23-6-38-20-44-43l32-5c15 47 100 32 89-28v-30C133-14 115 1 83 1 29 1 15-40 15-95c0-56 16-97 71-98 29-1 48 16 59 35 1-10 0-23 2-32h30zM94-22c36 0 50-32 50-73 0-42-14-75-50-75-39 0-46 34-46 75s6 73 46 73" id="aZ"/><g id="y"><use transform="matrix(0.06172839506172839,0,0,0.06172839506172839,0,0)" xlink:href="#Z"/><use transform="matrix(0.06172839506172839,0,0,0.06172839506172839,14.814814814814813,0)" xlink:href="#aa"/><use transform="matrix(0.06172839506172839,0,0,0.06172839506172839,27.160493827160494,0)" xlink:href="#ab"/><use transform="matrix(0.06172839506172839,0,0,0.06172839506172839,32.03703703703704,0)" xlink:href="#ac"/><use transform="matrix(0.06172839506172839,0,0,0.06172839506172839,44.382716049382715,0)" xlink:href="#ad"/><use transform="matrix(0.06172839506172839,0,0,0.06172839506172839,50.55555555555556,0)" xlink:href="#X"/><use transform="matrix(0.06172839506172839,0,0,0.06172839506172839,65.37037037037037,0)" xlink:href="#aZ"/><use transform="matrix(0.06172839506172839,0,0,0.06172839506172839,77.71604938271605,0)" xlink:href="#ah"/><use transform="matrix(0.06172839506172839,0,0,0.06172839506172839,85.06172839506173,0)" xlink:href="#ag"/><use transform="matrix(0.06172839506172839,0,0,0.06172839506172839,97.40740740740742,0)" xlink:href="#ag"/></g><use transform="matrix(0.06172839506172839,0,0,0.06172839506172839,0,0)" xlink:href="#Z" id="z"/><use transform="matrix(0.06172839506172839,0,0,0.06172839506172839,0,0)" xlink:href="#X" id="A"/><g id="B"><use transform="matrix(0.06172839506172839,0,0,0.06172839506172839,0,0)" xlink:href="#Z"/><use transform="matrix(0.06172839506172839,0,0,0.06172839506172839,14.814814814814813,0)" xlink:href="#al"/><use transform="matrix(0.06172839506172839,0,0,0.06172839506172839,27.160493827160494,0)" xlink:href="#an"/><use transform="matrix(0.06172839506172839,0,0,0.06172839506172839,39.50617283950617,0)" xlink:href="#ap"/></g><path fill="#ccc" d="M175 0L67-191c6 58 2 128 3 191H24v-248h59L193-55c-6-58-2-129-3-193h46V0h-61" id="ba"/><g id="C"><use transform="matrix(0.06172839506172839,0,0,0.06172839506172839,0,0)" xlink:href="#U"/><use transform="matrix(0.06172839506172839,0,0,0.06172839506172839,14.814814814814813,0)" xlink:href="#V"/><use transform="matrix(0.06172839506172839,0,0,0.06172839506172839,27.160493827160494,0)" xlink:href="#W"/><use transform="matrix(0.06172839506172839,0,0,0.06172839506172839,39.50617283950617,0)" xlink:href="#ba"/></g><path fill="#ccc" d="M-5 72V49h209v23H-5" id="bb"/><path fill="#ccc" d="M24 0v-261h32V0H24" id="bc"/><g id="D"><use transform="matrix(0.06172839506172839,0,0,0.06172839506172839,0,0)" xlink:href="#ar"/><use transform="matrix(0.06172839506172839,0,0,0.06172839506172839,7.8395061728395055,0)" xlink:href="#aa"/><use transform="matrix(0.06172839506172839,0,0,0.06172839506172839,20.185185185185183,0)" xlink:href="#as"/><use transform="matrix(0.06172839506172839,0,0,0.06172839506172839,31.296296296296294,0)" xlink:href="#as"/><use transform="matrix(0.06172839506172839,0,0,0.06172839506172839,42.407407407407405,0)" xlink:href="#ag"/><use transform="matrix(0.06172839506172839,0,0,0.06172839506172839,54.75308641975308,0)" xlink:href="#at"/><use transform="matrix(0.06172839506172839,0,0,0.06172839506172839,67.09876543209876,0)" xlink:href="#ad"/><use transform="matrix(0.06172839506172839,0,0,0.06172839506172839,73.2716049382716,0)" xlink:href="#bb"/><use transform="matrix(0.06172839506172839,0,0,0.06172839506172839,85.61728395061728,0)" xlink:href="#aW"/><use transform="matrix(0.06172839506172839,0,0,0.06172839506172839,97.96296296296296,0)" xlink:href="#ah"/><use transform="matrix(0.06172839506172839,0,0,0.06172839506172839,105.30864197530865,0)" xlink:href="#bb"/><use transform="matrix(0.06172839506172839,0,0,0.06172839506172839,117.65432098765433,0)" xlink:href="#as"/><use transform="matrix(0.06172839506172839,0,0,0.06172839506172839,128.76543209876544,0)" xlink:href="#aa"/><use transform="matrix(0.06172839506172839,0,0,0.06172839506172839,141.11111111111111,0)" xlink:href="#ac"/><use transform="matrix(0.06172839506172839,0,0,0.06172839506172839,153.45679012345678,0)" xlink:href="#as"/><use transform="matrix(0.06172839506172839,0,0,0.06172839506172839,164.5679012345679,0)" xlink:href="#ag"/><use transform="matrix(0.06172839506172839,0,0,0.06172839506172839,176.91358024691357,0)" xlink:href="#bc"/><use transform="matrix(0.06172839506172839,0,0,0.06172839506172839,181.7901234567901,0)" xlink:href="#ar"/></g><g id="E"><use transform="matrix(0.06172839506172839,0,0,0.06172839506172839,0,0)" xlink:href="#ar"/><use transform="matrix(0.06172839506172839,0,0,0.06172839506172839,7.8395061728395055,0)" xlink:href="#as"/><use transform="matrix(0.06172839506172839,0,0,0.06172839506172839,18.950617283950617,0)" xlink:href="#aa"/><use transform="matrix(0.06172839506172839,0,0,0.06172839506172839,31.296296296296298,0)" xlink:href="#ac"/><use transform="matrix(0.06172839506172839,0,0,0.06172839506172839,43.641975308641975,0)" xlink:href="#as"/><use transform="matrix(0.06172839506172839,0,0,0.06172839506172839,54.75308641975309,0)" xlink:href="#ag"/><use transform="matrix(0.06172839506172839,0,0,0.06172839506172839,67.09876543209877,0)" xlink:href="#bc"/><use transform="matrix(0.06172839506172839,0,0,0.06172839506172839,71.97530864197532,0)" xlink:href="#ar"/></g><path d="M24-248c93 1 206-16 204 79-1 75-69 88-152 82V0H24v-248zm52 121c47 0 100 7 100-41 0-47-54-39-100-39v80" id="bd"/><path d="M135-150c-39-12-60 13-60 57V0H25l-1-190h47c2 13-1 29 3 40 6-28 27-53 61-41v41" id="be"/><path d="M25-224v-37h50v37H25zM75 22c2 45-34 59-81 51V38c22 5 31-5 31-27v-201h50V22" id="bf"/><path d="M115-3C79 11 28 4 28-45v-112H4v-33h27l15-45h31v45h36v33H77v99c-1 23 16 31 38 25v30" id="bg"/><path d="M25-224v-37h50v37H25zM25 0v-190h50V0H25" id="bh"/><path d="M135-194c87-1 58 113 63 194h-50c-7-57 23-157-34-157-59 0-34 97-39 157H25l-1-190h47c2 12-1 28 3 38 12-26 28-41 61-42" id="bi"/><g id="F"><use transform="matrix(0.06234567901234565,0,0,0.06234567901234565,0,0)" xlink:href="#bd"/><use transform="matrix(0.06234567901234565,0,0,0.06234567901234565,14.962962962962957,0)" xlink:href="#be"/><use transform="matrix(0.06234567901234565,0,0,0.06234567901234565,23.691358024691347,0)" xlink:href="#av"/><use transform="matrix(0.06234567901234565,0,0,0.06234567901234565,37.345061728395045,0)" xlink:href="#bf"/><use transform="matrix(0.06234567901234565,0,0,0.06234567901234565,43.57962962962961,0)" xlink:href="#aD"/><use transform="matrix(0.06234567901234565,0,0,0.06234567901234565,56.04876543209874,0)" xlink:href="#az"/><use transform="matrix(0.06234567901234565,0,0,0.06234567901234565,68.51790123456787,0)" xlink:href="#bg"/><use transform="matrix(0.06234567901234565,0,0,0.06234567901234565,75.937037037037,0)" xlink:href="#bh"/><use transform="matrix(0.06234567901234565,0,0,0.06234567901234565,82.17160493827157,0)" xlink:href="#av"/><use transform="matrix(0.06234567901234565,0,0,0.06234567901234565,95.82530864197527,0)" xlink:href="#bi"/></g><path d="M121-226c-27-7-43 5-38 36h38v33H83V0H34v-157H6v-33h28c-9-59 32-81 87-68v32" id="bj"/><g id="G"><use transform="matrix(0.06234567901234565,0,0,0.06234567901234565,0,0)" xlink:href="#bj"/><use transform="matrix(0.06234567901234565,0,0,0.06234567901234565,7.419135802469133,0)" xlink:href="#av"/><use transform="matrix(0.06234567901234565,0,0,0.06234567901234565,21.07283950617283,0)" xlink:href="#be"/></g><path d="M182-130c37 4 62 22 62 59C244 23 116-4 24 0v-248c84 5 203-23 205 63 0 31-19 50-47 55zM76-148c40-3 101 13 101-30 0-44-60-28-101-31v61zm0 110c48-3 116 14 116-37 0-48-69-32-116-35v72" id="bk"/><path d="M23 0v-37h61v-169l-59 37v-38l62-41h46v211h57V0H23" id="bl"/><g id="H"><use transform="matrix(0.06234567901234565,0,0,0.06234567901234565,0,0)" xlink:href="#bk"/><use transform="matrix(0.06234567901234565,0,0,0.06234567901234565,16.147530864197524,0)" xlink:href="#ay"/><use transform="matrix(0.06234567901234565,0,0,0.06234567901234565,28.616666666666653,0)" xlink:href="#bi"/><use transform="matrix(0.06234567901234565,0,0,0.06234567901234565,42.27037037037035,0)" xlink:href="#aA"/><use transform="matrix(0.06234567901234565,0,0,0.06234567901234565,54.739506172839484,0)" xlink:href="#bl"/></g><g id="I"><use transform="matrix(0.06172839506172839,0,0,0.06172839506172839,0,0)" xlink:href="#au"/><use transform="matrix(0.06172839506172839,0,0,0.06172839506172839,15.987654320987653,0)" xlink:href="#av"/><use transform="matrix(0.06172839506172839,0,0,0.06172839506172839,29.50617283950617,0)" xlink:href="#aw"/><use transform="matrix(0.06172839506172839,0,0,0.06172839506172839,35.67901234567901,0)" xlink:href="#aw"/><use transform="matrix(0.06172839506172839,0,0,0.06172839506172839,41.851851851851855,0)" xlink:href="#ax"/><use transform="matrix(0.06172839506172839,0,0,0.06172839506172839,55.370370370370374,0)" xlink:href="#ay"/><use transform="matrix(0.06172839506172839,0,0,0.06172839506172839,67.71604938271605,0)" xlink:href="#az"/><use transform="matrix(0.06172839506172839,0,0,0.06172839506172839,80.06172839506173,0)" xlink:href="#aA"/></g><g id="J"><use transform="matrix(0.06172839506172839,0,0,0.06172839506172839,0,0)" xlink:href="#aB"/><use transform="matrix(0.06172839506172839,0,0,0.06172839506172839,14.814814814814813,0)" xlink:href="#aC"/><use transform="matrix(0.06172839506172839,0,0,0.06172839506172839,27.160493827160494,0)" xlink:href="#aD"/></g><use transform="matrix(0.06172839506172839,0,0,0.06172839506172839,0,0)" xlink:href="#aE" id="K"/><g id="L"><use transform="matrix(0.06172839506172839,0,0,0.06172839506172839,0,0)" xlink:href="#aF"/><use transform="matrix(0.06172839506172839,0,0,0.06172839506172839,7.345679012345679,0)" xlink:href="#aG"/><use transform="matrix(0.06172839506172839,0,0,0.06172839506172839,13.518518518518519,0)" xlink:href="#aH"/><use transform="matrix(0.06172839506172839,0,0,0.06172839506172839,25.864197530864196,0)" xlink:href="#aI"/></g><g id="M"><use transform="matrix(0.06172839506172839,0,0,0.06172839506172839,0,0)" xlink:href="#aJ"/><use transform="matrix(0.06172839506172839,0,0,0.06172839506172839,14.814814814814813,0)" xlink:href="#aK"/><use transform="matrix(0.06172839506172839,0,0,0.06172839506172839,27.160493827160494,0)" xlink:href="#aL"/><use transform="matrix(0.06172839506172839,0,0,0.06172839506172839,39.50617283950617,0)" xlink:href="#aM"/><use transform="matrix(0.06172839506172839,0,0,0.06172839506172839,50.61728395061728,0)" xlink:href="#aN"/></g><g id="N"><use transform="matrix(0.06172839506172839,0,0,0.06172839506172839,0,0)" xlink:href="#aE"/><use transform="matrix(0.06172839506172839,0,0,0.06172839506172839,14.814814814814813,0)" xlink:href="#aO"/></g><g id="O"><use transform="matrix(0.06172839506172839,0,0,0.06172839506172839,0,0)" xlink:href="#aP"/><use transform="matrix(0.06172839506172839,0,0,0.06172839506172839,7.8395061728395055,0)" xlink:href="#aQ"/><use transform="matrix(0.06172839506172839,0,0,0.06172839506172839,14.012345679012345,0)" xlink:href="#aR"/><use transform="matrix(0.06172839506172839,0,0,0.06172839506172839,21.358024691358025,0)" xlink:href="#aK"/><use transform="matrix(0.06172839506172839,0,0,0.06172839506172839,33.7037037037037,0)" xlink:href="#aL"/><use transform="matrix(0.06172839506172839,0,0,0.06172839506172839,46.04938271604938,0)" xlink:href="#aS"/><use transform="matrix(0.06172839506172839,0,0,0.06172839506172839,57.160493827160494,0)" xlink:href="#aT"/><use transform="matrix(0.06172839506172839,0,0,0.06172839506172839,63.33333333333333,0)" xlink:href="#aU"/><use transform="matrix(0.06172839506172839,0,0,0.06172839506172839,75.67901234567901,0)" xlink:href="#aR"/><use transform="matrix(0.06172839506172839,0,0,0.06172839506172839,83.0246913580247,0)" xlink:href="#aP"/></g><path d="M140-251c80 0 125 45 125 126S219 4 139 4C58 4 15-44 15-125s44-126 125-126zm-1 214c52 0 73-35 73-88 0-50-21-86-72-86-52 0-73 35-73 86s22 88 72 88" id="bm"/><path d="M123 10C108 53 80 86 19 72V37c35 8 53-11 59-39L3-190h52l48 148c12-52 28-100 44-148h51" id="bn"/><g id="P"><use transform="matrix(0.06234567901234565,0,0,0.06234567901234565,0,0)" xlink:href="#bm"/><use transform="matrix(0.06234567901234565,0,0,0.06234567901234565,17.456790123456784,0)" xlink:href="#bi"/><use transform="matrix(0.06234567901234565,0,0,0.06234567901234565,31.110493827160482,0)" xlink:href="#aw"/><use transform="matrix(0.06234567901234565,0,0,0.06234567901234565,37.345061728395045,0)" xlink:href="#bn"/></g><path d="M147 0H94L2-248h55l64 206c17-72 42-137 63-206h54" id="bo"/><path d="M137-138c1-29-70-34-71-4 15 46 118 7 119 86 1 83-164 76-172 9l43-7c4 19 20 25 44 25 33 8 57-30 24-41C81-84 22-81 20-136c-2-80 154-74 161-7" id="bp"/><g id="Q"><use transform="matrix(0.06234567901234565,0,0,0.06234567901234565,0,0)" xlink:href="#bo"/><use transform="matrix(0.06234567901234565,0,0,0.06234567901234565,14.526543209876538,0)" xlink:href="#bh"/><use transform="matrix(0.06234567901234565,0,0,0.06234567901234565,20.761111111111102,0)" xlink:href="#bp"/><use transform="matrix(0.06234567901234565,0,0,0.06234567901234565,33.23024691358023,0)" xlink:href="#bh"/><use transform="matrix(0.06234567901234565,0,0,0.06234567901234565,39.464814814814794,0)" xlink:href="#ax"/><use transform="matrix(0.06234567901234565,0,0,0.06234567901234565,53.11851851851849,0)" xlink:href="#aw"/><use transform="matrix(0.06234567901234565,0,0,0.06234567901234565,59.353086419753055,0)" xlink:href="#aD"/></g><path d="M175 0L67-191c6 58 2 128 3 191H24v-248h59L193-55c-6-58-2-129-3-193h46V0h-61" id="bq"/><path d="M88-194c31-1 46 15 58 34l-1-101h50l1 261h-48c-2-10 0-23-3-31C134-8 116 4 84 4 32 4 16-41 15-95c0-56 19-97 73-99zm17 164c33 0 40-30 41-66 1-37-9-64-41-64s-38 30-39 65c0 43 13 65 39 65" id="br"/><g id="R"><use transform="matrix(0.06234567901234565,0,0,0.06234567901234565,0,0)" xlink:href="#bq"/><use transform="matrix(0.06234567901234565,0,0,0.06234567901234565,16.147530864197524,0)" xlink:href="#av"/><use transform="matrix(0.06234567901234565,0,0,0.06234567901234565,29.801234567901222,0)" xlink:href="#br"/><use transform="matrix(0.06234567901234565,0,0,0.06234567901234565,43.45493827160492,0)" xlink:href="#aD"/><use transform="matrix(0.06234567901234565,0,0,0.06234567901234565,55.92407407407405,0)" xlink:href="#bp"/></g><path d="M199 0l-22-63H83L61 0H9l90-248h61L250 0h-51zm-33-102l-36-108c-10 38-24 72-36 108h72" id="bs"/><g id="S"><use transform="matrix(0.06234567901234565,0,0,0.06234567901234565,0,0)" xlink:href="#bs"/><use transform="matrix(0.06234567901234565,0,0,0.06234567901234565,16.147530864197524,0)" xlink:href="#bj"/><use transform="matrix(0.06234567901234565,0,0,0.06234567901234565,23.566666666666656,0)" xlink:href="#bg"/><use transform="matrix(0.06234567901234565,0,0,0.06234567901234565,30.985802469135788,0)" xlink:href="#aD"/><use transform="matrix(0.06234567901234565,0,0,0.06234567901234565,43.45493827160492,0)" xlink:href="#be"/></g><path d="M220-157c-53 9-28 100-34 157h-49v-107c1-27-5-49-29-50C55-147 81-57 75 0H25l-1-190h47c2 12-1 28 3 38 10-53 101-56 108 0 13-22 24-43 59-42 82 1 51 116 57 194h-49v-107c-1-25-5-48-29-50" id="bt"/><path d="M12 0v-35l95-120H19v-35h142v35L67-36h103V0H12" id="bu"/><g id="T"><use transform="matrix(0.06234567901234565,0,0,0.06234567901234565,0,0)" xlink:href="#bq"/><use transform="matrix(0.06234567901234565,0,0,0.06234567901234565,16.147530864197524,0)" xlink:href="#av"/><use transform="matrix(0.06234567901234565,0,0,0.06234567901234565,29.801234567901222,0)" xlink:href="#be"/><use transform="matrix(0.06234567901234565,0,0,0.06234567901234565,38.52962962962961,0)" xlink:href="#bt"/><use transform="matrix(0.06234567901234565,0,0,0.06234567901234565,58.48024691358022,0)" xlink:href="#ay"/><use transform="matrix(0.06234567901234565,0,0,0.06234567901234565,70.94938271604934,0)" xlink:href="#aw"/><use transform="matrix(0.06234567901234565,0,0,0.06234567901234565,77.18395061728391,0)" xlink:href="#bh"/><use transform="matrix(0.06234567901234565,0,0,0.06234567901234565,83.41851851851848,0)" xlink:href="#bu"/><use transform="matrix(0.06234567901234565,0,0,0.06234567901234565,94.6407407407407,0)" xlink:href="#ay"/><use transform="matrix(0.06234567901234565,0,0,0.06234567901234565,107.10987654320982,0)" xlink:href="#bg"/><use transform="matrix(0.06234567901234565,0,0,0.06234567901234565,114.52901234567895,0)" xlink:href="#bh"/><use transform="matrix(0.06234567901234565,0,0,0.06234567901234565,120.76358024691352,0)" xlink:href="#av"/><use transform="matrix(0.06234567901234565,0,0,0.06234567901234565,134.41728395061722,0)" xlink:href="#bi"/></g></defs></g></svg>