<svg xmlns="http://www.w3.org/2000/svg" xmlns:xlink="http://www.w3.org/1999/xlink" xmlns:lucid="lucid" width="1837.74" height="730.26"><g transform="translate(120 -65.86485612668488)" lucid:page-tab-id="0_0"><path d="M-1696 0h3456v1360h-3456z" fill="#fff"/><path d="M520 85.86h143.1v69.2H520z" stroke="#000" stroke-opacity="0" stroke-width="2" fill="#fff" fill-opacity="0"/><use xlink:href="#a" transform="matrix(1,0,0,1,525,90.86485612668488) translate(0 34.044444444444444)"/><use xlink:href="#b" transform="matrix(1,0,0,1,525,90.86485612668488) translate(18 34.044444444444444)"/><use xlink:href="#c" transform="matrix(1,0,0,1,525,90.86485612668488) translate(91.92345679012341 34.044444444444444)"/><path d="M300 169.94h519.1v51.78H300z" stroke="#000" stroke-opacity="0" stroke-width="2" fill="#fff" fill-opacity="0"/><use xlink:href="#d" transform="matrix(1,0,0,1,305,174.93941835717547) translate(0 25.044444444444444)"/><use xlink:href="#e" transform="matrix(1,0,0,1,305,174.93941835717547) translate(22.469135802469122 25.044444444444444)"/><use xlink:href="#f" transform="matrix(1,0,0,1,305,174.93941835717547) translate(96.39259259259254 25.044444444444444)"/><use xlink:href="#g" transform="matrix(1,0,0,1,305,174.93941835717547) translate(152.50925925925918 25.044444444444444)"/><use xlink:href="#h" transform="matrix(1,0,0,1,305,174.93941835717547) translate(171.94506172839496 25.044444444444444)"/><use xlink:href="#i" transform="matrix(1,0,0,1,305,174.93941835717547) translate(275.0783950617282 25.044444444444444)"/><path d="M70.43 342h400V450.1h-400z" stroke="#000" stroke-opacity="0" stroke-width="2" fill="#fff" fill-opacity="0"/><use xlink:href="#j" transform="matrix(1,0,0,1,75.4301726979989,346.9878299523156) translate(0 53.544444444444444)"/><use xlink:href="#e" transform="matrix(1,0,0,1,75.4301726979989,346.9878299523156) translate(22.469135802469122 53.544444444444444)"/><use xlink:href="#k" transform="matrix(1,0,0,1,75.4301726979989,346.9878299523156) translate(96.39259259259254 53.544444444444444)"/><use xlink:href="#g" transform="matrix(1,0,0,1,75.4301726979989,346.9878299523156) translate(137.9604938271604 53.544444444444444)"/><use xlink:href="#h" transform="matrix(1,0,0,1,75.4301726979989,346.9878299523156) translate(157.39629629629619 53.544444444444444)"/><use xlink:href="#l" transform="matrix(1,0,0,1,75.4301726979989,346.9878299523156) translate(260.5296296296294 53.544444444444444)"/><path d="M-100 632.65h400V740.8h-400z" stroke="#000" stroke-opacity="0" stroke-width="2" fill="#fff" fill-opacity="0"/><use xlink:href="#m" transform="matrix(1,0,0,1,-95,637.6544966189823) translate(0 53.544444444444444)"/><use xlink:href="#e" transform="matrix(1,0,0,1,-95,637.6544966189823) translate(22.469135802469122 53.544444444444444)"/><use xlink:href="#k" transform="matrix(1,0,0,1,-95,637.6544966189823) translate(96.39259259259254 53.544444444444444)"/><use xlink:href="#g" transform="matrix(1,0,0,1,-95,637.6544966189823) translate(137.9604938271604 53.544444444444444)"/><use xlink:href="#n" transform="matrix(1,0,0,1,-95,637.6544966189823) translate(157.39629629629619 53.544444444444444)"/><use xlink:href="#o" transform="matrix(1,0,0,1,-95,637.6544966189823) translate(193.23456790123444 53.544444444444444)"/><use xlink:href="#p" transform="matrix(1,0,0,1,-95,637.6544966189823) translate(259.406172839506 53.544444444444444)"/><path d="M-100 668h400V776.1h-400z" stroke="#000" stroke-opacity="0" stroke-width="2" fill="#fff" fill-opacity="0"/><use xlink:href="#q" transform="matrix(1,0,0,1,-95,672.9878299523157) translate(0 53.544444444444444)"/><use xlink:href="#r" transform="matrix(1,0,0,1,-95,672.9878299523157) translate(22.469135802469122 53.544444444444444)"/><use xlink:href="#k" transform="matrix(1,0,0,1,-95,672.9878299523157) translate(78.47345679012341 53.544444444444444)"/><use xlink:href="#g" transform="matrix(1,0,0,1,-95,672.9878299523157) translate(120.04135802469128 53.544444444444444)"/><use xlink:href="#n" transform="matrix(1,0,0,1,-95,672.9878299523157) translate(139.47716049382706 53.544444444444444)"/><use xlink:href="#o" transform="matrix(1,0,0,1,-95,672.9878299523157) translate(175.3154320987653 53.544444444444444)"/><use xlink:href="#p" transform="matrix(1,0,0,1,-95,672.9878299523157) translate(241.48703703703688 53.544444444444444)"/><path d="M320 530.24h400v108.14H320z" stroke="#000" stroke-opacity="0" stroke-width="2" fill="#fff" fill-opacity="0"/><g><use xlink:href="#s" transform="matrix(1,0,0,1,325,535.2428463925107) translate(0 53.544444444444444)"/><use xlink:href="#e" transform="matrix(1,0,0,1,325,535.2428463925107) translate(22.469135802469122 53.544444444444444)"/><use xlink:href="#k" transform="matrix(1,0,0,1,325,535.2428463925107) translate(96.39259259259254 53.544444444444444)"/><use xlink:href="#g" transform="matrix(1,0,0,1,325,535.2428463925107) translate(137.9604938271604 53.544444444444444)"/><use xlink:href="#n" transform="matrix(1,0,0,1,325,535.2428463925107) translate(157.39629629629619 53.544444444444444)"/><use xlink:href="#t" transform="matrix(1,0,0,1,325,535.2428463925107) translate(193.23456790123444 53.544444444444444)"/><use xlink:href="#p" transform="matrix(1,0,0,1,325,535.2428463925107) translate(259.406172839506 53.544444444444444)"/></g><path d="M600 638.38h400V746.5H600z" stroke="#000" stroke-opacity="0" stroke-width="2" fill="#fff" fill-opacity="0"/><g><use xlink:href="#u" transform="matrix(1,0,0,1,605,643.376179725844) translate(0 53.544444444444444)"/><use xlink:href="#e" transform="matrix(1,0,0,1,605,643.376179725844) translate(22.469135802469122 53.544444444444444)"/><use xlink:href="#n" transform="matrix(1,0,0,1,605,643.376179725844) translate(96.39259259259254 53.544444444444444)"/><use xlink:href="#t" transform="matrix(1,0,0,1,605,643.376179725844) translate(132.2308641975308 53.544444444444444)"/><use xlink:href="#v" transform="matrix(1,0,0,1,605,643.376179725844) translate(198.40246913580236 53.544444444444444)"/></g><path d="M600 668h400V776.1H600z" stroke="#000" stroke-opacity="0" stroke-width="2" fill="#fff" fill-opacity="0"/><g><use xlink:href="#w" transform="matrix(1,0,0,1,605,672.9878299523157) translate(0 53.544444444444444)"/><use xlink:href="#r" transform="matrix(1,0,0,1,605,672.9878299523157) translate(22.469135802469122 53.544444444444444)"/><use xlink:href="#n" transform="matrix(1,0,0,1,605,672.9878299523157) translate(78.47345679012341 53.544444444444444)"/><use xlink:href="#t" transform="matrix(1,0,0,1,605,672.9878299523157) translate(114.31172839506166 53.544444444444444)"/><use xlink:href="#v" transform="matrix(1,0,0,1,605,672.9878299523157) translate(180.48333333333323 53.544444444444444)"/></g><path d="M741.62 535.1h400V643.2h-400z" stroke="#000" stroke-opacity="0" stroke-width="2" fill="#fff" fill-opacity="0"/><g><use xlink:href="#x" transform="matrix(1,0,0,1,746.6229683996166,540.0889492184066) translate(0 53.544444444444444)"/><use xlink:href="#r" transform="matrix(1,0,0,1,746.6229683996166,540.0889492184066) translate(22.469135802469122 53.544444444444444)"/><use xlink:href="#k" transform="matrix(1,0,0,1,746.6229683996166,540.0889492184066) translate(78.47345679012341 53.544444444444444)"/><use xlink:href="#g" transform="matrix(1,0,0,1,746.6229683996166,540.0889492184066) translate(120.04135802469128 53.544444444444444)"/><use xlink:href="#n" transform="matrix(1,0,0,1,746.6229683996166,540.0889492184066) translate(139.47716049382706 53.544444444444444)"/><use xlink:href="#t" transform="matrix(1,0,0,1,746.6229683996166,540.0889492184066) translate(175.3154320987653 53.544444444444444)"/><use xlink:href="#p" transform="matrix(1,0,0,1,746.6229683996166,540.0889492184066) translate(241.48703703703688 53.544444444444444)"/></g><path d="M1141.62 575.78h400V683.9h-400z" stroke="#000" stroke-opacity="0" stroke-width="2" fill="#fff" fill-opacity="0"/><g><use xlink:href="#y" transform="matrix(1,0,0,1,1146.6229683996166,580.7761018798448) translate(0 41.41111111111111)"/><use xlink:href="#e" transform="matrix(1,0,0,1,1146.6229683996166,580.7761018798448) translate(33.70370370370368 41.41111111111111)"/><use xlink:href="#z" transform="matrix(1,0,0,1,1146.6229683996166,580.7761018798448) translate(107.62716049382709 41.41111111111111)"/><use xlink:href="#A" transform="matrix(1,0,0,1,1146.6229683996166,580.7761018798448) translate(219.748148148148 41.41111111111111)"/><use xlink:href="#g" transform="matrix(1,0,0,1,1146.6229683996166,580.7761018798448) translate(238.45370370370355 41.41111111111111)"/><use xlink:href="#B" transform="matrix(1,0,0,1,1146.6229683996166,580.7761018798448) translate(257.88950617283933 41.41111111111111)"/><use xlink:href="#C" transform="matrix(1,0,0,1,1146.6229683996166,580.7761018798448) translate(0 65.67777777777778)"/></g><path d="M1141.62 620.58h400V728.7h-400z" stroke="#000" stroke-opacity="0" stroke-width="2" fill="#fff" fill-opacity="0"/><g><use xlink:href="#D" transform="matrix(1,0,0,1,1146.6229683996166,625.5761018798447) translate(0 41.41111111111111)"/><use xlink:href="#r" transform="matrix(1,0,0,1,1146.6229683996166,625.5761018798447) translate(32.580246913580226 41.41111111111111)"/><use xlink:href="#z" transform="matrix(1,0,0,1,1146.6229683996166,625.5761018798447) translate(88.58456790123451 41.41111111111111)"/><use xlink:href="#A" transform="matrix(1,0,0,1,1146.6229683996166,625.5761018798447) translate(200.7055555555554 41.41111111111111)"/><use xlink:href="#g" transform="matrix(1,0,0,1,1146.6229683996166,625.5761018798447) translate(219.41111111111096 41.41111111111111)"/><use xlink:href="#B" transform="matrix(1,0,0,1,1146.6229683996166,625.5761018798447) translate(238.84691358024673 41.41111111111111)"/><use xlink:href="#C" transform="matrix(1,0,0,1,1146.6229683996166,625.5761018798447) translate(0 65.67777777777778)"/></g><path d="M875.1 320h400v108.13h-400z" stroke="#000" stroke-opacity="0" stroke-width="2" fill="#fff" fill-opacity="0"/><g><use xlink:href="#E" transform="matrix(1,0,0,1,880.0875781289017,325) translate(0 53.544444444444444)"/><use xlink:href="#r" transform="matrix(1,0,0,1,880.0875781289017,325) translate(33.70370370370368 53.544444444444444)"/><use xlink:href="#k" transform="matrix(1,0,0,1,880.0875781289017,325) translate(89.70802469135796 53.544444444444444)"/><use xlink:href="#g" transform="matrix(1,0,0,1,880.0875781289017,325) translate(131.27592592592583 53.544444444444444)"/><use xlink:href="#h" transform="matrix(1,0,0,1,880.0875781289017,325) translate(150.7117283950616 53.544444444444444)"/><use xlink:href="#l" transform="matrix(1,0,0,1,880.0875781289017,325) translate(253.84506172839485 53.544444444444444)"/></g><path d="M1297.74 339.4h400v108.13h-400z" stroke="#000" stroke-opacity="0" stroke-width="2" fill="#fff" fill-opacity="0"/><g><use xlink:href="#F" transform="matrix(1,0,0,1,1302.7449835598045,344.39629823184146) translate(0 41.41111111111111)"/><use xlink:href="#e" transform="matrix(1,0,0,1,1302.7449835598045,344.39629823184146) translate(33.70370370370368 41.41111111111111)"/><use xlink:href="#k" transform="matrix(1,0,0,1,1302.7449835598045,344.39629823184146) translate(107.62716049382709 41.41111111111111)"/><use xlink:href="#g" transform="matrix(1,0,0,1,1302.7449835598045,344.39629823184146) translate(149.19506172839496 41.41111111111111)"/><use xlink:href="#G" transform="matrix(1,0,0,1,1302.7449835598045,344.39629823184146) translate(168.63086419753074 41.41111111111111)"/><use xlink:href="#H" transform="matrix(1,0,0,1,1302.7449835598045,344.39629823184146) translate(272.83148148148126 41.41111111111111)"/><use xlink:href="#C" transform="matrix(1,0,0,1,1302.7449835598045,344.39629823184146) translate(0 65.67777777777778)"/></g><path d="M1297.74 366.26h400V474.4h-400z" stroke="#000" stroke-opacity="0" stroke-width="2" fill="#fff" fill-opacity="0"/><g><use xlink:href="#I" transform="matrix(1,0,0,1,1302.7449835598045,371.26228938529647) translate(0 53.544444444444444)"/><use xlink:href="#r" transform="matrix(1,0,0,1,1302.7449835598045,371.26228938529647) translate(33.70370370370368 53.544444444444444)"/><use xlink:href="#k" transform="matrix(1,0,0,1,1302.7449835598045,371.26228938529647) translate(89.70802469135796 53.544444444444444)"/><use xlink:href="#g" transform="matrix(1,0,0,1,1302.7449835598045,371.26228938529647) translate(131.27592592592583 53.544444444444444)"/><use xlink:href="#G" transform="matrix(1,0,0,1,1302.7449835598045,371.26228938529647) translate(150.7117283950616 53.544444444444444)"/><use xlink:href="#J" transform="matrix(1,0,0,1,1302.7449835598045,371.26228938529647) translate(254.91234567901216 53.544444444444444)"/></g><path d="M1082.07 155.06h519.1v66.66h-519.1z" stroke="#000" stroke-opacity="0" stroke-width="2" fill="#fff" fill-opacity="0"/><g><use xlink:href="#K" transform="matrix(1,0,0,1,1087.074548717284,160.06485612668487) translate(0 32.544444444444444)"/><use xlink:href="#r" transform="matrix(1,0,0,1,1087.074548717284,160.06485612668487) translate(33.70370370370368 32.544444444444444)"/><use xlink:href="#f" transform="matrix(1,0,0,1,1087.074548717284,160.06485612668487) translate(89.70802469135796 32.544444444444444)"/><use xlink:href="#g" transform="matrix(1,0,0,1,1087.074548717284,160.06485612668487) translate(145.8246913580246 32.544444444444444)"/><use xlink:href="#h" transform="matrix(1,0,0,1,1087.074548717284,160.06485612668487) translate(165.2604938271604 32.544444444444444)"/><use xlink:href="#i" transform="matrix(1,0,0,1,1087.074548717284,160.06485612668487) translate(268.39382716049363 32.544444444444444)"/></g><path d="M1160 85.86h143.1v69.2H1160z" stroke="#000" stroke-opacity="0" stroke-width="2" fill="#fff" fill-opacity="0"/><g><use xlink:href="#L" transform="matrix(1,0,0,1,1165,90.86485612668488) translate(0 34.044444444444444)"/><use xlink:href="#r" transform="matrix(1,0,0,1,1165,90.86485612668488) translate(33.70370370370368 34.044444444444444)"/><use xlink:href="#M" transform="matrix(1,0,0,1,1165,90.86485612668488) translate(89.70802469135796 34.044444444444444)"/></g><g class="lucid-layer" lucid:layer-id="L6-ez2dE2id~" display="block"><path d="M907.32 431.05l318.76 101.86M906.1 434.86l318.76 101.86" stroke="#000" stroke-width="2" fill="none"/><path/><path d="M906.44 433.92l-.6 1.9-3.85-1.22.6-1.9z"/><path d="M1240 539.46l-15 .07 2.84-8.83z" stroke="#000" stroke-width="2"/><path d="M191.23 532.24L135 607M188.04 529.84L131.8 604.6" stroke="#000" stroke-width="2" fill="none"/><path d="M192.02 532.87l-1.6-1.2 1.07-1.43h2.5zM188.82 530.46l-.3-.22h.46z"/><path d="M124.22 618l4.87-14.2 7.4 5.58z" stroke="#000" stroke-width="2"/><path d="M481.1 392.65h560v40h-560z" stroke="#000" stroke-opacity="0" stroke-width="2" fill="#fff" fill-opacity="0"/><use xlink:href="#N" transform="matrix(1,0,0,1,486.09683936466547,397.6544966189823) translate(13.395061728395035 17.77777777777778)"/><use xlink:href="#O" transform="matrix(1,0,0,1,486.09683936466547,397.6544966189823) translate(59.07407407407405 17.77777777777778)"/><use xlink:href="#P" transform="matrix(1,0,0,1,486.09683936466547,397.6544966189823) translate(80.06172839506169 17.77777777777778)"/><use xlink:href="#Q" transform="matrix(1,0,0,1,486.09683936466547,397.6544966189823) translate(193.02469135802465 17.77777777777778)"/><use xlink:href="#R" transform="matrix(1,0,0,1,486.09683936466547,397.6544966189823) translate(212.77777777777774 17.77777777777778)"/><use xlink:href="#S" transform="matrix(1,0,0,1,486.09683936466547,397.6544966189823) translate(233.3333333333333 17.77777777777778)"/><use xlink:href="#T" transform="matrix(1,0,0,1,486.09683936466547,397.6544966189823) translate(314.8148148148148 17.77777777777778)"/><use xlink:href="#U" transform="matrix(1,0,0,1,486.09683936466547,397.6544966189823) translate(390.12345679012344 17.77777777777778)"/><use xlink:href="#V" transform="matrix(1,0,0,1,486.09683936466547,397.6544966189823) translate(455.4938271604938 17.77777777777778)"/><path d="M145.57 494.9h89.33v35.34h-89.33z" stroke="#000" stroke-opacity="0" stroke-width="2" fill="#fff" fill-opacity="0"/><use xlink:href="#W" transform="matrix(1,0,0,1,150.56814195148323,499.9095130591774) translate(0 17.77777777777778)"/><path d="M-37.73 620.58h320v63.33h-320z" stroke="#000" stroke-opacity="0" stroke-width="2" fill="#fff" fill-opacity="0"/><use xlink:href="#N" transform="matrix(1,0,0,1,-32.725838320282605,625.5761018798447) translate(0 17.77777777777778)"/><use xlink:href="#X" transform="matrix(1,0,0,1,-32.725838320282605,625.5761018798447) translate(45.67901234567901 17.77777777777778)"/><use xlink:href="#Y" transform="matrix(1,0,0,1,-32.725838320282605,625.5761018798447) translate(66.66666666666666 17.77777777777778)"/><use xlink:href="#Z" transform="matrix(1,0,0,1,-32.725838320282605,625.5761018798447) translate(111.04938271604937 17.77777777777778)"/><use xlink:href="#aa" transform="matrix(1,0,0,1,-32.725838320282605,625.5761018798447) translate(180.18518518518516 17.77777777777778)"/><use xlink:href="#ab" transform="matrix(1,0,0,1,-32.725838320282605,625.5761018798447) translate(208.5185185185185 17.77777777777778)"/><path d="M559.1 532.65h320V568h-320z" stroke="#000" stroke-opacity="0" stroke-width="2" fill="#fff" fill-opacity="0"/><use xlink:href="#ac" transform="matrix(1,0,0,1,564.0968393646655,537.6544966189823) translate(0 17.77777777777778)"/><use xlink:href="#Q" transform="matrix(1,0,0,1,564.0968393646655,537.6544966189823) translate(45.67901234567901 17.77777777777778)"/><use xlink:href="#ad" transform="matrix(1,0,0,1,564.0968393646655,537.6544966189823) translate(65.4320987654321 17.77777777777778)"/><use xlink:href="#ae" transform="matrix(1,0,0,1,564.0968393646655,537.6544966189823) translate(109.81481481481481 17.77777777777778)"/><use xlink:href="#aa" transform="matrix(1,0,0,1,564.0968393646655,537.6544966189823) translate(178.9506172839506 17.77777777777778)"/><use xlink:href="#ab" transform="matrix(1,0,0,1,564.0968393646655,537.6544966189823) translate(207.28395061728395 17.77777777777778)"/><path d="M575.8 434.8l-340.33 58.92M575.1 430.85l-340.3 58.93" stroke="#000" stroke-width="2" fill="none"/><path d="M579.9 435.1l-3.97.7-.34-2 3.96-.67z"/><path/><path d="M220.1 494.36l13.26-7 1.58 9.13z" stroke="#000" stroke-width="2"/><path d="M721.1 433.65v80.5M717.1 433.65v80.5" stroke="#000" stroke-width="2" fill="none"/><path d="M722.1 433.68h-2v-1.03h2zM718.1 433.68h-2v-1.03h2z"/><path d="M719.1 529.42l-4.64-14.27h9.27z" stroke="#000" stroke-width="2"/><path d="M721.1 569v45.15M717.1 569v45.15" stroke="#000" stroke-width="2" fill="none"/><path d="M722.1 569h-2v-1h2zM718.1 569h-2v-1h2z"/><path d="M719.1 629.42l-4.64-14.27h9.27z" stroke="#000" stroke-width="2"/><path d="M649.1 632.65h140V668h-140z" stroke="#000" stroke-opacity="0" stroke-width="2" fill="#fff" fill-opacity="0"/><use xlink:href="#af" transform="matrix(1,0,0,1,654.0968393646655,637.6544966189823) translate(0 17.77777777777778)"/><use xlink:href="#ag" transform="matrix(1,0,0,1,654.0968393646655,637.6544966189823) translate(37.03703703703704 17.77777777777778)"/><use xlink:href="#ah" transform="matrix(1,0,0,1,654.0968393646655,637.6544966189823) translate(106.17283950617283 17.77777777777778)"/><path d="M1123.1 540.44h240v35.34h-240z" stroke="#000" stroke-opacity="0" stroke-width="2" fill="#fff" fill-opacity="0"/><use xlink:href="#ai" transform="matrix(1,0,0,1,1128.0968393646654,545.4427685465115) translate(0 17.77777777777778)"/><use xlink:href="#aj" transform="matrix(1,0,0,1,1128.0968393646654,545.4427685465115) translate(115.92592592592594 17.77777777777778)"/><use xlink:href="#ak" transform="matrix(1,0,0,1,1128.0968393646654,545.4427685465115) translate(136.4814814814815 17.77777777777778)"/><use xlink:href="#al" transform="matrix(1,0,0,1,1128.0968393646654,545.4427685465115) translate(156.23456790123458 17.77777777777778)"/><path d="M683.1 226.65h700v40h-700z" stroke="#000" stroke-opacity="0" stroke-width="2" fill="#fff" fill-opacity="0"/><g><use xlink:href="#am" transform="matrix(1,0,0,1,688.0968393646654,231.65449661898234) translate(21.141975308641975 17.77777777777778)"/><use xlink:href="#O" transform="matrix(1,0,0,1,688.0968393646654,231.65449661898234) translate(82.80864197530863 17.77777777777778)"/><use xlink:href="#P" transform="matrix(1,0,0,1,688.0968393646654,231.65449661898234) translate(103.79629629629629 17.77777777777778)"/><use xlink:href="#Q" transform="matrix(1,0,0,1,688.0968393646654,231.65449661898234) translate(216.75925925925924 17.77777777777778)"/><use xlink:href="#R" transform="matrix(1,0,0,1,688.0968393646654,231.65449661898234) translate(236.51234567901233 17.77777777777778)"/><use xlink:href="#S" transform="matrix(1,0,0,1,688.0968393646654,231.65449661898234) translate(257.0679012345679 17.77777777777778)"/><use xlink:href="#T" transform="matrix(1,0,0,1,688.0968393646654,231.65449661898234) translate(338.54938271604937 17.77777777777778)"/><use xlink:href="#U" transform="matrix(1,0,0,1,688.0968393646654,231.65449661898234) translate(413.858024691358 17.77777777777778)"/><use xlink:href="#an" transform="matrix(1,0,0,1,688.0968393646654,231.65449661898234) translate(479.2283950617284 17.77777777777778)"/></g><path d="M783.84 348.77l-31.1 32M780.97 345.98l-31.1 32M783.82 348.78l.7-.73M780.95 346l.7-.74" stroke="#000" stroke-width="2" fill="none"/><path d="M740.68 390.33l6.62-13.46 6.65 6.46z" stroke="#000" stroke-width="2"/><path d="M1222 266.58l14.03 25.86M1218.48 268.5l14.03 25.85" stroke="#000" stroke-width="2" fill="none"/><path d="M1221.13 267.08l-.23-.43h1zM1219.37 268.03l-1.75.96-1.27-2.35h2.28z"/><path d="M1241.55 306.8l-10.87-10.32 8.14-4.42z" stroke="#000" stroke-width="2"/><path d="M963.1 309.65h560v40h-560z" stroke="#000" stroke-opacity="0" stroke-width="2" fill="#fff" fill-opacity="0"/><g><use xlink:href="#N" transform="matrix(1,0,0,1,968.0968393646654,314.6544966189823) translate(14.043209876543187 17.77777777777778)"/><use xlink:href="#O" transform="matrix(1,0,0,1,968.0968393646654,314.6544966189823) translate(59.7222222222222 17.77777777777778)"/><use xlink:href="#P" transform="matrix(1,0,0,1,968.0968393646654,314.6544966189823) translate(80.70987654320984 17.77777777777778)"/><use xlink:href="#Q" transform="matrix(1,0,0,1,968.0968393646654,314.6544966189823) translate(193.6728395061728 17.77777777777778)"/><use xlink:href="#R" transform="matrix(1,0,0,1,968.0968393646654,314.6544966189823) translate(213.4259259259259 17.77777777777778)"/><use xlink:href="#S" transform="matrix(1,0,0,1,968.0968393646654,314.6544966189823) translate(233.98148148148144 17.77777777777778)"/><use xlink:href="#T" transform="matrix(1,0,0,1,968.0968393646654,314.6544966189823) translate(315.46296296296293 17.77777777777778)"/><use xlink:href="#U" transform="matrix(1,0,0,1,968.0968393646654,314.6544966189823) translate(390.7716049382716 17.77777777777778)"/><use xlink:href="#ao" transform="matrix(1,0,0,1,968.0968393646654,314.6544966189823) translate(456.141975308642 17.77777777777778)"/></g><path d="M763.1 306.65h89.33V342H763.1z" stroke="#000" stroke-opacity="0" stroke-width="2" fill="#fff" fill-opacity="0"/><g><use xlink:href="#W" transform="matrix(1,0,0,1,768.0968393646655,311.6544966189823) translate(0 17.77777777777778)"/></g><path d="M894.93 268.88l-46.48 29.54M892.78 265.5l-46.47 29.54" stroke="#000" stroke-width="2" fill="none"/><path d="M898.84 267.58l-3.4 2.16-1.07-1.7 2.2-1.4h1.7z"/><path/><path d="M834.5 304.92l9.55-11.57 4.97 7.83z" stroke="#000" stroke-width="2"/></g><defs><path fill="#19967d" d="M23 0v-37h61v-169l-59 37v-38l62-41h46v211h57V0H23" id="ap"/><path fill="#19967d" d="M24 0v-54h51V0H24" id="aq"/><g id="a"><use transform="matrix(0.05617283950617281,0,0,0.05617283950617281,0,0)" xlink:href="#ap"/><use transform="matrix(0.05617283950617281,0,0,0.05617283950617281,11.234567901234561,0)" xlink:href="#aq"/></g><path fill="#19967d" d="M67-93c0 74 22 123 53 168H70C40 30 18-18 18-93s22-123 52-168h50c-32 44-53 94-53 168" id="ar"/><path fill="#19967d" d="M182-130c37 4 62 22 62 59C244 23 116-4 24 0v-248c84 5 203-23 205 63 0 31-19 50-47 55zM76-148c40-3 101 13 101-30 0-44-60-28-101-31v61zm0 110c48-3 116 14 116-37 0-48-69-32-116-35v72" id="as"/><path fill="#19967d" d="M185-48c-13 30-37 53-82 52C43 2 14-33 14-96s30-98 90-98c62 0 83 45 84 108H66c0 31 8 55 39 56 18 0 30-7 34-22zm-45-69c5-46-57-63-70-21-2 6-4 13-4 21h74" id="at"/><path fill="#19967d" d="M195-6C206 82 75 100 31 46c-4-6-6-13-8-21l49-6c3 16 16 24 34 25 40 0 42-37 40-79-11 22-30 35-61 35-53 0-70-43-70-97 0-56 18-96 73-97 30 0 46 14 59 34l2-30h47zm-90-29c32 0 41-27 41-63 0-35-9-62-40-62-32 0-39 29-40 63 0 36 9 62 39 62" id="au"/><path fill="#19967d" d="M25-224v-37h50v37H25zM25 0v-190h50V0H25" id="av"/><path fill="#19967d" d="M135-194c87-1 58 113 63 194h-50c-7-57 23-157-34-157-59 0-34 97-39 157H25l-1-190h47c2 12-1 28 3 38 12-26 28-41 61-42" id="aw"/><path fill="#19967d" d="M76-54c-1 42 2 86-19 110H24C36 42 46 24 48 0H25v-54h51" id="ax"/><g id="b"><use transform="matrix(0.05617283950617281,0,0,0.05617283950617281,0,0)" xlink:href="#ar"/><use transform="matrix(0.05617283950617281,0,0,0.05617283950617281,6.684567901234564,0)" xlink:href="#as"/><use transform="matrix(0.05617283950617281,0,0,0.05617283950617281,21.23333333333332,0)" xlink:href="#at"/><use transform="matrix(0.05617283950617281,0,0,0.05617283950617281,32.46790123456788,0)" xlink:href="#au"/><use transform="matrix(0.05617283950617281,0,0,0.05617283950617281,44.769753086419726,0)" xlink:href="#av"/><use transform="matrix(0.05617283950617281,0,0,0.05617283950617281,50.387037037037004,0)" xlink:href="#aw"/><use transform="matrix(0.05617283950617281,0,0,0.05617283950617281,62.688888888888854,0)" xlink:href="#ax"/></g><path fill="#19967d" d="M136-208V0H84v-208H4v-40h212v40h-80" id="ay"/><path fill="#19967d" d="M144 0l-44-69L55 0H2l70-98-66-92h53l41 62 40-62h54l-67 91 71 99h-54" id="az"/><path fill="#19967d" d="M102-93c0 74-22 123-52 168H0C30 29 54-18 53-93c0-74-22-123-53-168h50c30 45 52 94 52 168" id="aA"/><g id="c"><use transform="matrix(0.05617283950617281,0,0,0.05617283950617281,0,0)" xlink:href="#ay"/><use transform="matrix(0.05617283950617281,0,0,0.05617283950617281,12.301851851851845,0)" xlink:href="#az"/><use transform="matrix(0.05617283950617281,0,0,0.05617283950617281,23.536419753086406,0)" xlink:href="#aA"/></g><path fill="#19967d" d="M182-182c0 78-84 86-111 141h115V0H12c-6-101 99-100 120-180 1-22-12-31-33-32-23 0-32 14-35 34l-49-3c5-45 32-70 84-70 51 0 83 22 83 69" id="aB"/><g id="d"><use transform="matrix(0.05617283950617281,0,0,0.05617283950617281,0,0)" xlink:href="#aB"/><use transform="matrix(0.05617283950617281,0,0,0.05617283950617281,11.234567901234561,0)" xlink:href="#aq"/></g><g id="e"><use transform="matrix(0.05617283950617281,0,0,0.05617283950617281,0,0)" xlink:href="#ar"/><use transform="matrix(0.05617283950617281,0,0,0.05617283950617281,6.684567901234564,0)" xlink:href="#as"/><use transform="matrix(0.05617283950617281,0,0,0.05617283950617281,21.23333333333332,0)" xlink:href="#at"/><use transform="matrix(0.05617283950617281,0,0,0.05617283950617281,32.46790123456788,0)" xlink:href="#au"/><use transform="matrix(0.05617283950617281,0,0,0.05617283950617281,44.769753086419726,0)" xlink:href="#av"/><use transform="matrix(0.05617283950617281,0,0,0.05617283950617281,50.387037037037004,0)" xlink:href="#aw"/><use transform="matrix(0.05617283950617281,0,0,0.05617283950617281,62.688888888888854,0)" xlink:href="#ax"/></g><path fill="#19967d" d="M24 0v-248h195v40H76v63h132v40H76v65h150V0H24" id="aC"/><path fill="#19967d" d="M175 0L67-191c6 58 2 128 3 191H24v-248h59L193-55c-6-58-2-129-3-193h46V0h-61" id="aD"/><g id="f"><use transform="matrix(0.05617283950617281,0,0,0.05617283950617281,0,0)" xlink:href="#aC"/><use transform="matrix(0.05617283950617281,0,0,0.05617283950617281,13.481481481481474,0)" xlink:href="#az"/><use transform="matrix(0.05617283950617281,0,0,0.05617283950617281,24.716049382716037,0)" xlink:href="#at"/><use transform="matrix(0.05617283950617281,0,0,0.05617283950617281,35.9506172839506,0)" xlink:href="#aD"/></g><path fill="#19967d" d="M199 0l-22-63H83L61 0H9l90-248h61L250 0h-51zm-33-102l-36-108c-10 38-24 72-36 108h72" id="aE"/><use transform="matrix(0.05617283950617281,0,0,0.05617283950617281,0,0)" xlink:href="#aE" id="g"/><path fill="#19967d" d="M24-248c93 1 206-16 204 79-1 75-69 88-152 82V0H24v-248zm52 121c47 0 100 7 100-41 0-47-54-39-100-39v80" id="aF"/><path fill="#19967d" d="M133-34C117-15 103 5 69 4 32 3 11-16 11-54c-1-60 55-63 116-61 1-26-3-47-28-47-18 1-26 9-28 27l-52-2c7-38 36-58 82-57s74 22 75 68l1 82c-1 14 12 18 25 15v27c-30 8-71 5-69-32zm-48 3c29 0 43-24 42-57-32 0-66-3-65 30 0 17 8 27 23 27" id="aG"/><path fill="#19967d" d="M115-3C79 11 28 4 28-45v-112H4v-33h27l15-45h31v45h36v33H77v99c-1 23 16 31 38 25v30" id="aH"/><path fill="#19967d" d="M140-251c80 0 125 45 125 126S219 4 139 4C58 4 15-44 15-125s44-126 125-126zm-1 214c52 0 73-35 73-88 0-50-21-86-72-86-52 0-73 35-73 86s22 88 72 88" id="aI"/><path fill="#19967d" d="M121-226c-27-7-43 5-38 36h38v33H83V0H34v-157H6v-33h28c-9-59 32-81 87-68v32" id="aJ"/><path fill="#19967d" d="M135-150c-39-12-60 13-60 57V0H25l-1-190h47c2 13-1 29 3 40 6-28 27-53 61-41v41" id="aK"/><g id="h"><use transform="matrix(0.05617283950617281,0,0,0.05617283950617281,0,0)" xlink:href="#aF"/><use transform="matrix(0.05617283950617281,0,0,0.05617283950617281,13.481481481481474,0)" xlink:href="#aG"/><use transform="matrix(0.05617283950617281,0,0,0.05617283950617281,24.716049382716037,0)" xlink:href="#av"/><use transform="matrix(0.05617283950617281,0,0,0.05617283950617281,30.333333333333314,0)" xlink:href="#aw"/><use transform="matrix(0.05617283950617281,0,0,0.05617283950617281,42.635185185185165,0)" xlink:href="#aH"/><use transform="matrix(0.05617283950617281,0,0,0.05617283950617281,49.31975308641973,0)" xlink:href="#aI"/><use transform="matrix(0.05617283950617281,0,0,0.05617283950617281,65.04814814814812,0)" xlink:href="#aJ"/><use transform="matrix(0.05617283950617281,0,0,0.05617283950617281,71.73271604938267,0)" xlink:href="#aJ"/><use transform="matrix(0.05617283950617281,0,0,0.05617283950617281,78.41728395061723,0)" xlink:href="#at"/><use transform="matrix(0.05617283950617281,0,0,0.05617283950617281,89.65185185185179,0)" xlink:href="#aK"/></g><path fill="#19967d" d="M142-158h-39l-4-90h48zm-75 0H28l-4-90h48" id="aL"/><path fill="#19967d" d="M190-63c-7 42-38 67-86 67-59 0-84-38-90-98-12-110 154-137 174-36l-49 2c-2-19-15-32-35-32-30 0-35 28-38 64-6 74 65 87 74 30" id="aM"/><path fill="#19967d" d="M135-194c53 0 70 44 70 98 0 56-19 98-73 100-31 1-45-17-59-34 3 33 2 69 2 105H25l-1-265h48c2 10 0 23 3 31 11-24 29-35 60-35zM114-30c33 0 39-31 40-66 0-38-9-64-40-64-56 0-55 130 0 130" id="aN"/><path fill="#19967d" d="M-4 44V30h207v14H-4" id="aO"/><path fill="#19967d" d="M110-194c64 0 96 36 96 99 0 64-35 99-97 99-61 0-95-36-95-99 0-62 34-99 96-99zm-1 164c35 0 45-28 45-65 0-40-10-65-43-65-34 0-45 26-45 65 0 36 10 65 43 65" id="aP"/><path fill="#19967d" d="M25 0v-261h50V0H25" id="aQ"/><g id="i"><use transform="matrix(0.05617283950617281,0,0,0.05617283950617281,0,0)" xlink:href="#aL"/><use transform="matrix(0.05617283950617281,0,0,0.05617283950617281,9.549382716049378,0)" xlink:href="#aG"/><use transform="matrix(0.05617283950617281,0,0,0.05617283950617281,20.78395061728394,0)" xlink:href="#aM"/><use transform="matrix(0.05617283950617281,0,0,0.05617283950617281,32.0185185185185,0)" xlink:href="#aM"/><use transform="matrix(0.05617283950617281,0,0,0.05617283950617281,43.25308641975306,0)" xlink:href="#at"/><use transform="matrix(0.05617283950617281,0,0,0.05617283950617281,54.48765432098762,0)" xlink:href="#aN"/><use transform="matrix(0.05617283950617281,0,0,0.05617283950617281,66.78950617283947,0)" xlink:href="#aH"/><use transform="matrix(0.05617283950617281,0,0,0.05617283950617281,73.47407407407403,0)" xlink:href="#aO"/><use transform="matrix(0.05617283950617281,0,0,0.05617283950617281,84.70864197530858,0)" xlink:href="#aP"/><use transform="matrix(0.05617283950617281,0,0,0.05617283950617281,97.01049382716043,0)" xlink:href="#aK"/><use transform="matrix(0.05617283950617281,0,0,0.05617283950617281,104.87469135802462,0)" xlink:href="#aO"/><use transform="matrix(0.05617283950617281,0,0,0.05617283950617281,116.10925925925916,0)" xlink:href="#aM"/><use transform="matrix(0.05617283950617281,0,0,0.05617283950617281,127.34382716049373,0)" xlink:href="#aG"/><use transform="matrix(0.05617283950617281,0,0,0.05617283950617281,138.5783950617283,0)" xlink:href="#aw"/><use transform="matrix(0.05617283950617281,0,0,0.05617283950617281,150.88024691358012,0)" xlink:href="#aM"/><use transform="matrix(0.05617283950617281,0,0,0.05617283950617281,162.11481481481468,0)" xlink:href="#at"/><use transform="matrix(0.05617283950617281,0,0,0.05617283950617281,173.34938271604923,0)" xlink:href="#aQ"/><use transform="matrix(0.05617283950617281,0,0,0.05617283950617281,178.96666666666653,0)" xlink:href="#aL"/><use transform="matrix(0.05617283950617281,0,0,0.05617283950617281,188.5160493827159,0)" xlink:href="#aA"/></g><path fill="#19967d" d="M128-127c34 4 56 21 59 58 7 91-148 94-172 28-4-9-6-17-7-26l51-5c1 24 16 35 40 36 23 0 39-12 38-36-1-31-31-36-65-34v-40c32 2 59-3 59-33 0-20-13-33-34-33s-33 13-35 32l-50-3c6-44 37-68 86-68 50 0 83 20 83 66 0 35-22 52-53 58" id="aR"/><g id="j"><use transform="matrix(0.05617283950617281,0,0,0.05617283950617281,0,0)" xlink:href="#aR"/><use transform="matrix(0.05617283950617281,0,0,0.05617283950617281,11.234567901234561,0)" xlink:href="#aq"/></g><g id="k"><use transform="matrix(0.05617283950617281,0,0,0.05617283950617281,0,0)" xlink:href="#aC"/><use transform="matrix(0.05617283950617281,0,0,0.05617283950617281,13.481481481481474,0)" xlink:href="#az"/><use transform="matrix(0.05617283950617281,0,0,0.05617283950617281,24.716049382716037,0)" xlink:href="#at"/></g><g id="l"><use transform="matrix(0.05617283950617281,0,0,0.05617283950617281,0,0)" xlink:href="#aL"/><use transform="matrix(0.05617283950617281,0,0,0.05617283950617281,9.549382716049378,0)" xlink:href="#aG"/><use transform="matrix(0.05617283950617281,0,0,0.05617283950617281,20.78395061728394,0)" xlink:href="#aM"/><use transform="matrix(0.05617283950617281,0,0,0.05617283950617281,32.0185185185185,0)" xlink:href="#aM"/><use transform="matrix(0.05617283950617281,0,0,0.05617283950617281,43.25308641975306,0)" xlink:href="#at"/><use transform="matrix(0.05617283950617281,0,0,0.05617283950617281,54.48765432098762,0)" xlink:href="#aN"/><use transform="matrix(0.05617283950617281,0,0,0.05617283950617281,66.78950617283947,0)" xlink:href="#aH"/><use transform="matrix(0.05617283950617281,0,0,0.05617283950617281,73.47407407407403,0)" xlink:href="#aL"/><use transform="matrix(0.05617283950617281,0,0,0.05617283950617281,83.0234567901234,0)" xlink:href="#aA"/></g><path fill="#19967d" d="M165-50V0h-47v-50H5v-38l105-160h55v161h33v37h-33zm-47-37l2-116L46-87h72" id="aS"/><g id="m"><use transform="matrix(0.05617283950617281,0,0,0.05617283950617281,0,0)" xlink:href="#aS"/><use transform="matrix(0.05617283950617281,0,0,0.05617283950617281,11.234567901234561,0)" xlink:href="#aq"/></g><path fill="#19967d" d="M24 0v-248h52V0H24" id="aT"/><path fill="#19967d" d="M85 4C-2 5 27-109 22-190h50c7 57-23 150 33 157 60-5 35-97 40-157h50l1 190h-47c-2-12 1-28-3-38-12 25-28 42-61 42" id="aU"/><g id="n"><use transform="matrix(0.05617283950617281,0,0,0.05617283950617281,0,0)" xlink:href="#aT"/><use transform="matrix(0.05617283950617281,0,0,0.05617283950617281,5.6172839506172805,0)" xlink:href="#aP"/><use transform="matrix(0.05617283950617281,0,0,0.05617283950617281,17.919135802469125,0)" xlink:href="#aU"/></g><path fill="#19967d" d="M147 0L96-86 75-71V0H25v-261h50v150l67-79h53l-66 74L201 0h-54" id="aV"/><g id="o"><use transform="matrix(0.05617283950617281,0,0,0.05617283950617281,0,0)" xlink:href="#as"/><use transform="matrix(0.05617283950617281,0,0,0.05617283950617281,14.548765432098756,0)" xlink:href="#aG"/><use transform="matrix(0.05617283950617281,0,0,0.05617283950617281,25.783333333333317,0)" xlink:href="#aw"/><use transform="matrix(0.05617283950617281,0,0,0.05617283950617281,38.08518518518516,0)" xlink:href="#aV"/><use transform="matrix(0.05617283950617281,0,0,0.05617283950617281,49.31975308641972,0)" xlink:href="#ap"/></g><path fill="#19967d" d="M137-138c1-29-70-34-71-4 15 46 118 7 119 86 1 83-164 76-172 9l43-7c4 19 20 25 44 25 33 8 57-30 24-41C81-84 22-81 20-136c-2-80 154-74 161-7" id="aW"/><g id="p"><use transform="matrix(0.05617283950617281,0,0,0.05617283950617281,0,0)" xlink:href="#aL"/><use transform="matrix(0.05617283950617281,0,0,0.05617283950617281,9.549382716049378,0)" xlink:href="#aH"/><use transform="matrix(0.05617283950617281,0,0,0.05617283950617281,16.23395061728394,0)" xlink:href="#aK"/><use transform="matrix(0.05617283950617281,0,0,0.05617283950617281,24.098148148148134,0)" xlink:href="#aG"/><use transform="matrix(0.05617283950617281,0,0,0.05617283950617281,35.3327160493827,0)" xlink:href="#aw"/><use transform="matrix(0.05617283950617281,0,0,0.05617283950617281,47.63456790123454,0)" xlink:href="#aW"/><use transform="matrix(0.05617283950617281,0,0,0.05617283950617281,58.8691358024691,0)" xlink:href="#aJ"/><use transform="matrix(0.05617283950617281,0,0,0.05617283950617281,65.55370370370366,0)" xlink:href="#at"/><use transform="matrix(0.05617283950617281,0,0,0.05617283950617281,76.78827160493822,0)" xlink:href="#aK"/><use transform="matrix(0.05617283950617281,0,0,0.05617283950617281,84.6524691358024,0)" xlink:href="#aL"/><use transform="matrix(0.05617283950617281,0,0,0.05617283950617281,94.20185185185179,0)" xlink:href="#aA"/></g><path fill="#19967d" d="M139-81c0-46-55-55-73-27H18l9-140h149v37H72l-4 63c44-38 133-4 122 66C201 21 21 35 11-62l49-4c5 18 15 30 39 30 26 0 40-18 40-45" id="aX"/><g id="q"><use transform="matrix(0.05617283950617281,0,0,0.05617283950617281,0,0)" xlink:href="#aX"/><use transform="matrix(0.05617283950617281,0,0,0.05617283950617281,11.234567901234561,0)" xlink:href="#aq"/></g><path fill="#19967d" d="M88-194c31-1 46 15 58 34l-1-101h50l1 261h-48c-2-10 0-23-3-31C134-8 116 4 84 4 32 4 16-41 15-95c0-56 19-97 73-99zm17 164c33 0 40-30 41-66 1-37-9-64-41-64s-38 30-39 65c0 43 13 65 39 65" id="aY"/><g id="r"><use transform="matrix(0.05617283950617281,0,0,0.05617283950617281,0,0)" xlink:href="#ar"/><use transform="matrix(0.05617283950617281,0,0,0.05617283950617281,6.684567901234564,0)" xlink:href="#aC"/><use transform="matrix(0.05617283950617281,0,0,0.05617283950617281,20.16604938271604,0)" xlink:href="#aw"/><use transform="matrix(0.05617283950617281,0,0,0.05617283950617281,32.46790123456788,0)" xlink:href="#aY"/><use transform="matrix(0.05617283950617281,0,0,0.05617283950617281,44.769753086419726,0)" xlink:href="#ax"/></g><path fill="#19967d" d="M115-159c48 0 72 30 72 78 0 54-30 85-83 85-64 0-91-50-91-122 0-98 58-163 141-120 15 8 21 24 27 44l-47 6c-5-31-48-31-61-4-7 14-11 33-11 60 9-17 28-27 53-27zM102-35c24 0 36-20 36-45s-11-43-37-43c-23 0-36 14-36 38 0 27 11 50 37 50" id="aZ"/><g id="s"><use transform="matrix(0.05617283950617281,0,0,0.05617283950617281,0,0)" xlink:href="#aZ"/><use transform="matrix(0.05617283950617281,0,0,0.05617283950617281,11.234567901234561,0)" xlink:href="#aq"/></g><g id="t"><use transform="matrix(0.05617283950617281,0,0,0.05617283950617281,0,0)" xlink:href="#as"/><use transform="matrix(0.05617283950617281,0,0,0.05617283950617281,14.548765432098756,0)" xlink:href="#aG"/><use transform="matrix(0.05617283950617281,0,0,0.05617283950617281,25.783333333333317,0)" xlink:href="#aw"/><use transform="matrix(0.05617283950617281,0,0,0.05617283950617281,38.08518518518516,0)" xlink:href="#aV"/><use transform="matrix(0.05617283950617281,0,0,0.05617283950617281,49.31975308641972,0)" xlink:href="#aB"/></g><path fill="#19967d" d="M52 0c1-96 47-148 87-207H15v-41h169v40c-36 62-79 113-81 208H52" id="ba"/><g id="u"><use transform="matrix(0.05617283950617281,0,0,0.05617283950617281,0,0)" xlink:href="#ba"/><use transform="matrix(0.05617283950617281,0,0,0.05617283950617281,11.234567901234561,0)" xlink:href="#aq"/></g><g id="v"><use transform="matrix(0.05617283950617281,0,0,0.05617283950617281,0,0)" xlink:href="#aF"/><use transform="matrix(0.05617283950617281,0,0,0.05617283950617281,13.481481481481474,0)" xlink:href="#aA"/></g><path fill="#19967d" d="M138-131c27 9 52 24 51 61 0 53-36 74-89 74S11-19 11-69c0-35 22-54 51-61-78-25-46-121 38-121 51 0 83 19 83 66 0 30-18 49-45 54zm-38-16c24 0 32-13 32-36 1-23-11-34-32-34-22 0-33 12-32 34 0 22 9 36 32 36zm1 116c27 0 37-17 37-43 0-25-13-39-39-39-24 0-37 15-37 40 0 27 11 42 39 42" id="bb"/><g id="w"><use transform="matrix(0.05617283950617281,0,0,0.05617283950617281,0,0)" xlink:href="#bb"/><use transform="matrix(0.05617283950617281,0,0,0.05617283950617281,11.234567901234561,0)" xlink:href="#aq"/></g><path fill="#19967d" d="M99-251c69 0 84 53 88 123 5 99-61 162-144 118-15-8-21-25-26-45l46-6c4 31 50 33 63 7 7-15 12-36 12-60-9 18-29 28-54 28-48 0-72-32-72-82 0-55 31-83 87-83zm-1 128c24 0 37-16 37-39 0-27-10-51-37-51-25 0-35 19-35 45 0 25 10 45 35 45" id="bc"/><g id="x"><use transform="matrix(0.05617283950617281,0,0,0.05617283950617281,0,0)" xlink:href="#bc"/><use transform="matrix(0.05617283950617281,0,0,0.05617283950617281,11.234567901234561,0)" xlink:href="#aq"/></g><path fill="#19967d" d="M101-251c68 0 84 54 84 127C185-50 166 4 99 4S15-52 14-124c-1-75 17-127 87-127zm-1 216c37-5 36-46 36-89s4-89-36-89c-39 0-36 45-36 89 0 43-3 85 36 89" id="bd"/><g id="y"><use transform="matrix(0.05617283950617281,0,0,0.05617283950617281,0,0)" xlink:href="#ap"/><use transform="matrix(0.05617283950617281,0,0,0.05617283950617281,11.234567901234561,0)" xlink:href="#bd"/><use transform="matrix(0.05617283950617281,0,0,0.05617283950617281,22.469135802469122,0)" xlink:href="#aq"/></g><g id="z"><use transform="matrix(0.05617283950617281,0,0,0.05617283950617281,0,0)" xlink:href="#aF"/><use transform="matrix(0.05617283950617281,0,0,0.05617283950617281,13.481481481481474,0)" xlink:href="#aG"/><use transform="matrix(0.05617283950617281,0,0,0.05617283950617281,24.716049382716037,0)" xlink:href="#av"/><use transform="matrix(0.05617283950617281,0,0,0.05617283950617281,30.333333333333314,0)" xlink:href="#aw"/><use transform="matrix(0.05617283950617281,0,0,0.05617283950617281,42.635185185185165,0)" xlink:href="#aH"/><use transform="matrix(0.05617283950617281,0,0,0.05617283950617281,49.31975308641973,0)" xlink:href="#aE"/><use transform="matrix(0.05617283950617281,0,0,0.05617283950617281,63.868518518518485,0)" xlink:href="#au"/><use transform="matrix(0.05617283950617281,0,0,0.05617283950617281,76.17037037037034,0)" xlink:href="#aK"/><use transform="matrix(0.05617283950617281,0,0,0.05617283950617281,84.03456790123452,0)" xlink:href="#at"/><use transform="matrix(0.05617283950617281,0,0,0.05617283950617281,95.26913580246908,0)" xlink:href="#at"/></g><use transform="matrix(0.05617283950617281,0,0,0.05617283950617281,0,0)" xlink:href="#aF" id="A"/><g id="B"><use transform="matrix(0.05617283950617281,0,0,0.05617283950617281,0,0)" xlink:href="#aF"/><use transform="matrix(0.05617283950617281,0,0,0.05617283950617281,13.481481481481474,0)" xlink:href="#ap"/><use transform="matrix(0.05617283950617281,0,0,0.05617283950617281,24.716049382716037,0)" xlink:href="#aB"/><use transform="matrix(0.05617283950617281,0,0,0.05617283950617281,35.9506172839506,0)" xlink:href="#aR"/><use transform="matrix(0.05617283950617281,0,0,0.05617283950617281,47.18518518518516,0)" xlink:href="#aA"/></g><g id="D"><use transform="matrix(0.05617283950617281,0,0,0.05617283950617281,0,0)" xlink:href="#ap"/><use transform="matrix(0.05617283950617281,0,0,0.05617283950617281,10.111111111111105,0)" xlink:href="#ap"/><use transform="matrix(0.05617283950617281,0,0,0.05617283950617281,21.345679012345666,0)" xlink:href="#aq"/></g><g id="E"><use transform="matrix(0.05617283950617281,0,0,0.05617283950617281,0,0)" xlink:href="#ap"/><use transform="matrix(0.05617283950617281,0,0,0.05617283950617281,11.234567901234561,0)" xlink:href="#aB"/><use transform="matrix(0.05617283950617281,0,0,0.05617283950617281,22.469135802469122,0)" xlink:href="#aq"/></g><g id="F"><use transform="matrix(0.05617283950617281,0,0,0.05617283950617281,0,0)" xlink:href="#ap"/><use transform="matrix(0.05617283950617281,0,0,0.05617283950617281,11.234567901234561,0)" xlink:href="#aR"/><use transform="matrix(0.05617283950617281,0,0,0.05617283950617281,22.469135802469122,0)" xlink:href="#aq"/></g><g id="G"><use transform="matrix(0.05617283950617281,0,0,0.05617283950617281,0,0)" xlink:href="#aF"/><use transform="matrix(0.05617283950617281,0,0,0.05617283950617281,13.481481481481474,0)" xlink:href="#aP"/><use transform="matrix(0.05617283950617281,0,0,0.05617283950617281,25.783333333333317,0)" xlink:href="#av"/><use transform="matrix(0.05617283950617281,0,0,0.05617283950617281,31.4006172839506,0)" xlink:href="#aw"/><use transform="matrix(0.05617283950617281,0,0,0.05617283950617281,43.702469135802446,0)" xlink:href="#aH"/><use transform="matrix(0.05617283950617281,0,0,0.05617283950617281,50.38703703703701,0)" xlink:href="#aI"/><use transform="matrix(0.05617283950617281,0,0,0.05617283950617281,66.1154320987654,0)" xlink:href="#aJ"/><use transform="matrix(0.05617283950617281,0,0,0.05617283950617281,72.79999999999995,0)" xlink:href="#aJ"/><use transform="matrix(0.05617283950617281,0,0,0.05617283950617281,79.48456790123451,0)" xlink:href="#at"/><use transform="matrix(0.05617283950617281,0,0,0.05617283950617281,90.71913580246907,0)" xlink:href="#aK"/></g><g id="H"><use transform="matrix(0.05617283950617281,0,0,0.05617283950617281,0,0)" xlink:href="#aL"/><use transform="matrix(0.05617283950617281,0,0,0.05617283950617281,9.549382716049378,0)" xlink:href="#aM"/><use transform="matrix(0.05617283950617281,0,0,0.05617283950617281,20.78395061728394,0)" xlink:href="#aG"/><use transform="matrix(0.05617283950617281,0,0,0.05617283950617281,32.0185185185185,0)" xlink:href="#aw"/><use transform="matrix(0.05617283950617281,0,0,0.05617283950617281,44.32037037037034,0)" xlink:href="#aM"/><use transform="matrix(0.05617283950617281,0,0,0.05617283950617281,55.554938271604904,0)" xlink:href="#at"/><use transform="matrix(0.05617283950617281,0,0,0.05617283950617281,66.78950617283947,0)" xlink:href="#aQ"/><use transform="matrix(0.05617283950617281,0,0,0.05617283950617281,72.40679012345674,0)" xlink:href="#aL"/><use transform="matrix(0.05617283950617281,0,0,0.05617283950617281,81.95617283950612,0)" xlink:href="#aA"/></g><g id="I"><use transform="matrix(0.05617283950617281,0,0,0.05617283950617281,0,0)" xlink:href="#ap"/><use transform="matrix(0.05617283950617281,0,0,0.05617283950617281,11.234567901234561,0)" xlink:href="#aS"/><use transform="matrix(0.05617283950617281,0,0,0.05617283950617281,22.469135802469122,0)" xlink:href="#aq"/></g><g id="J"><use transform="matrix(0.05617283950617281,0,0,0.05617283950617281,0,0)" xlink:href="#aL"/><use transform="matrix(0.05617283950617281,0,0,0.05617283950617281,9.549382716049378,0)" xlink:href="#aM"/><use transform="matrix(0.05617283950617281,0,0,0.05617283950617281,20.78395061728394,0)" xlink:href="#aG"/><use transform="matrix(0.05617283950617281,0,0,0.05617283950617281,32.0185185185185,0)" xlink:href="#aw"/><use transform="matrix(0.05617283950617281,0,0,0.05617283950617281,44.32037037037034,0)" xlink:href="#aM"/><use transform="matrix(0.05617283950617281,0,0,0.05617283950617281,55.554938271604904,0)" xlink:href="#at"/><use transform="matrix(0.05617283950617281,0,0,0.05617283950617281,66.78950617283947,0)" xlink:href="#aQ"/><use transform="matrix(0.05617283950617281,0,0,0.05617283950617281,72.40679012345674,0)" xlink:href="#aL"/><use transform="matrix(0.05617283950617281,0,0,0.05617283950617281,81.95617283950612,0)" xlink:href="#aA"/></g><g id="K"><use transform="matrix(0.05617283950617281,0,0,0.05617283950617281,0,0)" xlink:href="#ap"/><use transform="matrix(0.05617283950617281,0,0,0.05617283950617281,11.234567901234561,0)" xlink:href="#aX"/><use transform="matrix(0.05617283950617281,0,0,0.05617283950617281,22.469135802469122,0)" xlink:href="#aq"/></g><g id="L"><use transform="matrix(0.05617283950617281,0,0,0.05617283950617281,0,0)" xlink:href="#ap"/><use transform="matrix(0.05617283950617281,0,0,0.05617283950617281,11.234567901234561,0)" xlink:href="#aZ"/><use transform="matrix(0.05617283950617281,0,0,0.05617283950617281,22.469135802469122,0)" xlink:href="#aq"/></g><g id="M"><use transform="matrix(0.05617283950617281,0,0,0.05617283950617281,0,0)" xlink:href="#ay"/><use transform="matrix(0.05617283950617281,0,0,0.05617283950617281,12.301851851851845,0)" xlink:href="#az"/><use transform="matrix(0.05617283950617281,0,0,0.05617283950617281,23.536419753086406,0)" xlink:href="#aA"/></g><path d="M24 0v-248h195v40H76v63h132v40H76v65h150V0H24" id="be"/><path d="M144 0l-44-69L55 0H2l70-98-66-92h53l41 62 40-62h54l-67 91 71 99h-54" id="bf"/><path d="M185-48c-13 30-37 53-82 52C43 2 14-33 14-96s30-98 90-98c62 0 83 45 84 108H66c0 31 8 55 39 56 18 0 30-7 34-22zm-45-69c5-46-57-63-70-21-2 6-4 13-4 21h74" id="bg"/><g id="N"><use transform="matrix(0.06172839506172839,0,0,0.06172839506172839,0,0)" xlink:href="#be"/><use transform="matrix(0.06172839506172839,0,0,0.06172839506172839,14.814814814814813,0)" xlink:href="#bf"/><use transform="matrix(0.06172839506172839,0,0,0.06172839506172839,27.160493827160494,0)" xlink:href="#bg"/></g><path d="M205 0l-28-72H64L36 0H1l101-248h38L239 0h-34zm-38-99l-47-123c-12 45-31 82-46 123h93" id="bh"/><use transform="matrix(0.06172839506172839,0,0,0.06172839506172839,0,0)" xlink:href="#bh" id="O"/><path d="M87 75C49 33 22-17 22-94c0-76 28-126 65-167h31c-38 41-64 92-64 168S80 34 118 75H87" id="bi"/><path d="M30-248c87 1 191-15 191 75 0 78-77 80-158 76V0H30v-248zm33 125c57 0 124 11 124-50 0-59-68-47-124-48v98" id="bj"/><path d="M141-36C126-15 110 5 73 4 37 3 15-17 15-53c-1-64 63-63 125-63 3-35-9-54-41-54-24 1-41 7-42 31l-33-3c5-37 33-52 76-52 45 0 72 20 72 64v82c-1 20 7 32 28 27v20c-31 9-61-2-59-35zM48-53c0 20 12 33 32 33 41-3 63-29 60-74-43 2-92-5-92 41" id="bk"/><path d="M24-231v-30h32v30H24zM24 0v-190h32V0H24" id="bl"/><path d="M117-194c89-4 53 116 60 194h-32v-121c0-31-8-49-39-48C34-167 62-67 57 0H25l-1-190h30c1 10-1 24 2 32 11-22 29-35 61-36" id="bm"/><path d="M59-47c-2 24 18 29 38 22v24C64 9 27 4 27-40v-127H5v-23h24l9-43h21v43h35v23H59v120" id="bn"/><path d="M140-251c81 0 123 46 123 126C263-46 219 4 140 4 59 4 17-45 17-125s42-126 123-126zm0 227c63 0 89-41 89-101s-29-99-89-99c-61 0-89 39-89 99S79-25 140-24" id="bo"/><path d="M101-234c-31-9-42 10-38 44h38v23H63V0H32v-167H5v-23h27c-7-52 17-82 69-68v24" id="bp"/><path d="M100-194c63 0 86 42 84 106H49c0 40 14 67 53 68 26 1 43-12 49-29l28 8c-11 28-37 45-77 45C44 4 14-33 15-96c1-61 26-98 85-98zm52 81c6-60-76-77-97-28-3 7-6 17-6 28h103" id="bq"/><path d="M114-163C36-179 61-72 57 0H25l-1-190h30c1 12-1 29 2 39 6-27 23-49 58-41v29" id="br"/><g id="P"><use transform="matrix(0.06172839506172839,0,0,0.06172839506172839,0,0)" xlink:href="#bi"/><use transform="matrix(0.06172839506172839,0,0,0.06172839506172839,7.345679012345679,0)" xlink:href="#bj"/><use transform="matrix(0.06172839506172839,0,0,0.06172839506172839,22.160493827160494,0)" xlink:href="#bk"/><use transform="matrix(0.06172839506172839,0,0,0.06172839506172839,34.50617283950617,0)" xlink:href="#bl"/><use transform="matrix(0.06172839506172839,0,0,0.06172839506172839,39.382716049382715,0)" xlink:href="#bm"/><use transform="matrix(0.06172839506172839,0,0,0.06172839506172839,51.72839506172839,0)" xlink:href="#bn"/><use transform="matrix(0.06172839506172839,0,0,0.06172839506172839,57.901234567901234,0)" xlink:href="#bo"/><use transform="matrix(0.06172839506172839,0,0,0.06172839506172839,75.18518518518519,0)" xlink:href="#bp"/><use transform="matrix(0.06172839506172839,0,0,0.06172839506172839,80.92592592592592,0)" xlink:href="#bp"/><use transform="matrix(0.06172839506172839,0,0,0.06172839506172839,87.09876543209876,0)" xlink:href="#bq"/><use transform="matrix(0.06172839506172839,0,0,0.06172839506172839,99.44444444444444,0)" xlink:href="#br"/></g><use transform="matrix(0.06172839506172839,0,0,0.06172839506172839,0,0)" xlink:href="#bh" id="Q"/><use transform="matrix(0.06172839506172839,0,0,0.06172839506172839,0,0)" xlink:href="#bj" id="R"/><path d="M26 75v-336h71v23H56V52h41v23H26" id="bs"/><path d="M160-131c35 5 61 23 61 61C221 17 115-2 30 0v-248c76 3 177-17 177 60 0 33-19 50-47 57zm-97-11c50-1 110 9 110-42 0-47-63-36-110-37v79zm0 115c55-2 124 14 124-45 0-56-70-42-124-44v89" id="bt"/><path d="M143 0L79-87 56-68V0H24v-261h32v163l83-92h37l-77 82L181 0h-38" id="bu"/><path d="M27 0v-27h64v-190l-56 39v-29l58-41h29v221h61V0H27" id="bv"/><path d="M68-38c1 34 0 65-14 84H32c9-13 17-26 17-46H33v-38h35" id="bw"/><g id="S"><use transform="matrix(0.06172839506172839,0,0,0.06172839506172839,0,0)" xlink:href="#bs"/><use transform="matrix(0.06172839506172839,0,0,0.06172839506172839,6.172839506172839,0)" xlink:href="#bt"/><use transform="matrix(0.06172839506172839,0,0,0.06172839506172839,20.98765432098765,0)" xlink:href="#bk"/><use transform="matrix(0.06172839506172839,0,0,0.06172839506172839,33.33333333333333,0)" xlink:href="#bm"/><use transform="matrix(0.06172839506172839,0,0,0.06172839506172839,45.679012345679006,0)" xlink:href="#bu"/><use transform="matrix(0.06172839506172839,0,0,0.06172839506172839,56.79012345679011,0)" xlink:href="#bv"/><use transform="matrix(0.06172839506172839,0,0,0.06172839506172839,69.1358024691358,0)" xlink:href="#bw"/></g><path d="M101-251c82-7 93 87 43 132L82-64C71-53 59-42 53-27h129V0H18c2-99 128-94 128-182 0-28-16-43-45-43s-46 15-49 41l-32-3c6-41 34-60 81-64" id="bx"/><path d="M3 75V52h41v-290H3v-23h71V75H3" id="by"/><g id="T"><use transform="matrix(0.06172839506172839,0,0,0.06172839506172839,0,0)" xlink:href="#bt"/><use transform="matrix(0.06172839506172839,0,0,0.06172839506172839,14.814814814814813,0)" xlink:href="#bk"/><use transform="matrix(0.06172839506172839,0,0,0.06172839506172839,27.160493827160494,0)" xlink:href="#bm"/><use transform="matrix(0.06172839506172839,0,0,0.06172839506172839,39.50617283950617,0)" xlink:href="#bu"/><use transform="matrix(0.06172839506172839,0,0,0.06172839506172839,50.61728395061728,0)" xlink:href="#bx"/><use transform="matrix(0.06172839506172839,0,0,0.06172839506172839,62.962962962962955,0)" xlink:href="#by"/></g><path d="M126-127c33 6 58 20 58 59 0 88-139 92-164 29-3-8-5-16-6-25l32-3c6 27 21 44 54 44 32 0 52-15 52-46 0-38-36-46-79-43v-28c39 1 72-4 72-42 0-27-17-43-46-43-28 0-47 15-49 41l-32-3c6-42 35-63 81-64 48-1 79 21 79 65 0 36-21 52-52 59" id="bz"/><path d="M33-261c38 41 65 92 65 168S71 34 33 75H2C39 34 66-17 66-93S39-220 2-261h31" id="bA"/><g id="U"><use transform="matrix(0.06172839506172839,0,0,0.06172839506172839,0,0)" xlink:href="#bj"/><use transform="matrix(0.06172839506172839,0,0,0.06172839506172839,14.814814814814813,0)" xlink:href="#bv"/><use transform="matrix(0.06172839506172839,0,0,0.06172839506172839,27.160493827160494,0)" xlink:href="#bx"/><use transform="matrix(0.06172839506172839,0,0,0.06172839506172839,39.50617283950617,0)" xlink:href="#bz"/><use transform="matrix(0.06172839506172839,0,0,0.06172839506172839,51.85185185185185,0)" xlink:href="#bA"/></g><path d="M109-170H84l-4-78h32zm-65 0H19l-4-78h33" id="bB"/><path d="M96-169c-40 0-48 33-48 73s9 75 48 75c24 0 41-14 43-38l32 2c-6 37-31 61-74 61-59 0-76-41-82-99-10-93 101-131 147-64 4 7 5 14 7 22l-32 3c-4-21-16-35-41-35" id="bC"/><path d="M115-194c55 1 70 41 70 98S169 2 115 4C84 4 66-9 55-30l1 105H24l-1-265h31l2 30c10-21 28-34 59-34zm-8 174c40 0 45-34 45-75s-6-73-45-74c-42 0-51 32-51 76 0 43 10 73 51 73" id="bD"/><g id="V"><use transform="matrix(0.06172839506172839,0,0,0.06172839506172839,0,0)" xlink:href="#bB"/><use transform="matrix(0.06172839506172839,0,0,0.06172839506172839,7.8395061728395055,0)" xlink:href="#bk"/><use transform="matrix(0.06172839506172839,0,0,0.06172839506172839,20.185185185185183,0)" xlink:href="#bC"/><use transform="matrix(0.06172839506172839,0,0,0.06172839506172839,31.296296296296294,0)" xlink:href="#bC"/><use transform="matrix(0.06172839506172839,0,0,0.06172839506172839,42.407407407407405,0)" xlink:href="#bq"/><use transform="matrix(0.06172839506172839,0,0,0.06172839506172839,54.75308641975308,0)" xlink:href="#bD"/><use transform="matrix(0.06172839506172839,0,0,0.06172839506172839,67.09876543209876,0)" xlink:href="#bn"/><use transform="matrix(0.06172839506172839,0,0,0.06172839506172839,73.2716049382716,0)" xlink:href="#bB"/></g><path d="M240-174c0 40-23 61-54 70L253 0h-59l-57-94H76V0H24v-248c93 4 217-23 216 74zM76-134c48-2 112 12 112-38 0-48-66-32-112-35v73" id="bE"/><path d="M110-194c64 0 96 36 96 99 0 64-35 99-97 99-61 0-95-36-95-99 0-62 34-99 96-99zm-1 164c35 0 45-28 45-65 0-40-10-65-43-65-34 0-45 26-45 65 0 36 10 65 43 65" id="bF"/><path d="M25 0v-261h50V0H25" id="bG"/><path d="M135-194c52 0 70 43 70 98 0 56-19 99-73 100-30 1-46-15-58-35L72 0H24l1-261h50v104c11-23 29-37 60-37zM114-30c31 0 40-27 40-66 0-37-7-63-39-63s-41 28-41 65c0 36 8 64 40 64" id="bH"/><path d="M133-34C117-15 103 5 69 4 32 3 11-16 11-54c-1-60 55-63 116-61 1-26-3-47-28-47-18 1-26 9-28 27l-52-2c7-38 36-58 82-57s74 22 75 68l1 82c-1 14 12 18 25 15v27c-30 8-71 5-69-32zm-48 3c29 0 43-24 42-57-32 0-66-3-65 30 0 17 8 27 23 27" id="bI"/><path d="M190-63c-7 42-38 67-86 67-59 0-84-38-90-98-12-110 154-137 174-36l-49 2c-2-19-15-32-35-32-30 0-35 28-38 64-6 74 65 87 74 30" id="bJ"/><path d="M147 0L96-86 75-71V0H25v-261h50v150l67-79h53l-66 74L201 0h-54" id="bK"/><g id="W"><use transform="matrix(0.06172839506172839,0,0,0.06172839506172839,0,0)" xlink:href="#bE"/><use transform="matrix(0.06172839506172839,0,0,0.06172839506172839,15.987654320987653,0)" xlink:href="#bF"/><use transform="matrix(0.06172839506172839,0,0,0.06172839506172839,29.50617283950617,0)" xlink:href="#bG"/><use transform="matrix(0.06172839506172839,0,0,0.06172839506172839,35.67901234567901,0)" xlink:href="#bG"/><use transform="matrix(0.06172839506172839,0,0,0.06172839506172839,41.851851851851855,0)" xlink:href="#bH"/><use transform="matrix(0.06172839506172839,0,0,0.06172839506172839,55.370370370370374,0)" xlink:href="#bI"/><use transform="matrix(0.06172839506172839,0,0,0.06172839506172839,67.71604938271605,0)" xlink:href="#bJ"/><use transform="matrix(0.06172839506172839,0,0,0.06172839506172839,80.06172839506173,0)" xlink:href="#bK"/></g><use transform="matrix(0.06172839506172839,0,0,0.06172839506172839,0,0)" xlink:href="#bh" id="X"/><path d="M33 0v-248h34V0H33" id="bL"/><path d="M100-194c62-1 85 37 85 99 1 63-27 99-86 99S16-35 15-95c0-66 28-99 85-99zM99-20c44 1 53-31 53-75 0-43-8-75-51-75s-53 32-53 75 10 74 51 75" id="bM"/><path d="M84 4C-5 8 30-112 23-190h32v120c0 31 7 50 39 49 72-2 45-101 50-169h31l1 190h-30c-1-10 1-25-2-33-11 22-28 36-60 37" id="bN"/><g id="Y"><use transform="matrix(0.06172839506172839,0,0,0.06172839506172839,0,0)" xlink:href="#bi"/><use transform="matrix(0.06172839506172839,0,0,0.06172839506172839,7.345679012345679,0)" xlink:href="#bL"/><use transform="matrix(0.06172839506172839,0,0,0.06172839506172839,13.518518518518519,0)" xlink:href="#bM"/><use transform="matrix(0.06172839506172839,0,0,0.06172839506172839,25.864197530864196,0)" xlink:href="#bN"/></g><g id="Z"><use transform="matrix(0.06172839506172839,0,0,0.06172839506172839,0,0)" xlink:href="#bt"/><use transform="matrix(0.06172839506172839,0,0,0.06172839506172839,14.814814814814813,0)" xlink:href="#bk"/><use transform="matrix(0.06172839506172839,0,0,0.06172839506172839,27.160493827160494,0)" xlink:href="#bm"/><use transform="matrix(0.06172839506172839,0,0,0.06172839506172839,39.50617283950617,0)" xlink:href="#bu"/><use transform="matrix(0.06172839506172839,0,0,0.06172839506172839,50.61728395061728,0)" xlink:href="#bv"/></g><g id="aa"><use transform="matrix(0.06172839506172839,0,0,0.06172839506172839,0,0)" xlink:href="#bh"/><use transform="matrix(0.06172839506172839,0,0,0.06172839506172839,14.814814814814813,0)" xlink:href="#bA"/></g><path d="M135-143c-3-34-86-38-87 0 15 53 115 12 119 90S17 21 10-45l28-5c4 36 97 45 98 0-10-56-113-15-118-90-4-57 82-63 122-42 12 7 21 19 24 35" id="bO"/><g id="ab"><use transform="matrix(0.06172839506172839,0,0,0.06172839506172839,0,0)" xlink:href="#bB"/><use transform="matrix(0.06172839506172839,0,0,0.06172839506172839,7.8395061728395055,0)" xlink:href="#bn"/><use transform="matrix(0.06172839506172839,0,0,0.06172839506172839,14.012345679012345,0)" xlink:href="#br"/><use transform="matrix(0.06172839506172839,0,0,0.06172839506172839,21.358024691358025,0)" xlink:href="#bk"/><use transform="matrix(0.06172839506172839,0,0,0.06172839506172839,33.7037037037037,0)" xlink:href="#bm"/><use transform="matrix(0.06172839506172839,0,0,0.06172839506172839,46.04938271604938,0)" xlink:href="#bO"/><use transform="matrix(0.06172839506172839,0,0,0.06172839506172839,57.160493827160494,0)" xlink:href="#bp"/><use transform="matrix(0.06172839506172839,0,0,0.06172839506172839,63.33333333333333,0)" xlink:href="#bq"/><use transform="matrix(0.06172839506172839,0,0,0.06172839506172839,75.67901234567901,0)" xlink:href="#br"/><use transform="matrix(0.06172839506172839,0,0,0.06172839506172839,83.0246913580247,0)" xlink:href="#bB"/></g><g id="ac"><use transform="matrix(0.06172839506172839,0,0,0.06172839506172839,0,0)" xlink:href="#be"/><use transform="matrix(0.06172839506172839,0,0,0.06172839506172839,14.814814814814813,0)" xlink:href="#bf"/><use transform="matrix(0.06172839506172839,0,0,0.06172839506172839,27.160493827160494,0)" xlink:href="#bg"/></g><g id="ad"><use transform="matrix(0.06172839506172839,0,0,0.06172839506172839,0,0)" xlink:href="#bi"/><use transform="matrix(0.06172839506172839,0,0,0.06172839506172839,7.345679012345679,0)" xlink:href="#bL"/><use transform="matrix(0.06172839506172839,0,0,0.06172839506172839,13.518518518518519,0)" xlink:href="#bM"/><use transform="matrix(0.06172839506172839,0,0,0.06172839506172839,25.864197530864196,0)" xlink:href="#bN"/></g><g id="ae"><use transform="matrix(0.06172839506172839,0,0,0.06172839506172839,0,0)" xlink:href="#bt"/><use transform="matrix(0.06172839506172839,0,0,0.06172839506172839,14.814814814814813,0)" xlink:href="#bk"/><use transform="matrix(0.06172839506172839,0,0,0.06172839506172839,27.160493827160494,0)" xlink:href="#bm"/><use transform="matrix(0.06172839506172839,0,0,0.06172839506172839,39.50617283950617,0)" xlink:href="#bu"/><use transform="matrix(0.06172839506172839,0,0,0.06172839506172839,50.61728395061728,0)" xlink:href="#bx"/></g><g id="af"><use transform="matrix(0.06172839506172839,0,0,0.06172839506172839,0,0)" xlink:href="#bL"/><use transform="matrix(0.06172839506172839,0,0,0.06172839506172839,6.172839506172839,0)" xlink:href="#bM"/><use transform="matrix(0.06172839506172839,0,0,0.06172839506172839,18.51851851851852,0)" xlink:href="#bN"/></g><g id="ag"><use transform="matrix(0.06172839506172839,0,0,0.06172839506172839,0,0)" xlink:href="#bt"/><use transform="matrix(0.06172839506172839,0,0,0.06172839506172839,14.814814814814813,0)" xlink:href="#bk"/><use transform="matrix(0.06172839506172839,0,0,0.06172839506172839,27.160493827160494,0)" xlink:href="#bm"/><use transform="matrix(0.06172839506172839,0,0,0.06172839506172839,39.50617283950617,0)" xlink:href="#bu"/><use transform="matrix(0.06172839506172839,0,0,0.06172839506172839,50.61728395061728,0)" xlink:href="#bx"/></g><use transform="matrix(0.06172839506172839,0,0,0.06172839506172839,0,0)" xlink:href="#bj" id="ah"/><path d="M177-190C167-65 218 103 67 71c-23-6-38-20-44-43l32-5c15 47 100 32 89-28v-30C133-14 115 1 83 1 29 1 15-40 15-95c0-56 16-97 71-98 29-1 48 16 59 35 1-10 0-23 2-32h30zM94-22c36 0 50-32 50-73 0-42-14-75-50-75-39 0-46 34-46 75s6 73 46 73" id="bP"/><g id="ai"><use transform="matrix(0.06172839506172839,0,0,0.06172839506172839,0,0)" xlink:href="#bj"/><use transform="matrix(0.06172839506172839,0,0,0.06172839506172839,14.814814814814813,0)" xlink:href="#bk"/><use transform="matrix(0.06172839506172839,0,0,0.06172839506172839,27.160493827160494,0)" xlink:href="#bl"/><use transform="matrix(0.06172839506172839,0,0,0.06172839506172839,32.03703703703704,0)" xlink:href="#bm"/><use transform="matrix(0.06172839506172839,0,0,0.06172839506172839,44.382716049382715,0)" xlink:href="#bn"/><use transform="matrix(0.06172839506172839,0,0,0.06172839506172839,50.55555555555556,0)" xlink:href="#bh"/><use transform="matrix(0.06172839506172839,0,0,0.06172839506172839,65.37037037037037,0)" xlink:href="#bP"/><use transform="matrix(0.06172839506172839,0,0,0.06172839506172839,77.71604938271605,0)" xlink:href="#br"/><use transform="matrix(0.06172839506172839,0,0,0.06172839506172839,85.06172839506173,0)" xlink:href="#bq"/><use transform="matrix(0.06172839506172839,0,0,0.06172839506172839,97.40740740740742,0)" xlink:href="#bq"/></g><use transform="matrix(0.06172839506172839,0,0,0.06172839506172839,0,0)" xlink:href="#bj" id="aj"/><use transform="matrix(0.06172839506172839,0,0,0.06172839506172839,0,0)" xlink:href="#bh" id="ak"/><g id="al"><use transform="matrix(0.06172839506172839,0,0,0.06172839506172839,0,0)" xlink:href="#bj"/><use transform="matrix(0.06172839506172839,0,0,0.06172839506172839,14.814814814814813,0)" xlink:href="#bv"/><use transform="matrix(0.06172839506172839,0,0,0.06172839506172839,27.160493827160494,0)" xlink:href="#bx"/><use transform="matrix(0.06172839506172839,0,0,0.06172839506172839,39.50617283950617,0)" xlink:href="#bz"/></g><path d="M175 0L67-191c6 58 2 128 3 191H24v-248h59L193-55c-6-58-2-129-3-193h46V0h-61" id="bQ"/><g id="am"><use transform="matrix(0.06172839506172839,0,0,0.06172839506172839,0,0)" xlink:href="#be"/><use transform="matrix(0.06172839506172839,0,0,0.06172839506172839,14.814814814814813,0)" xlink:href="#bf"/><use transform="matrix(0.06172839506172839,0,0,0.06172839506172839,27.160493827160494,0)" xlink:href="#bg"/><use transform="matrix(0.06172839506172839,0,0,0.06172839506172839,39.50617283950617,0)" xlink:href="#bQ"/></g><path d="M-5 72V49h209v23H-5" id="bR"/><path d="M24 0v-261h32V0H24" id="bS"/><g id="an"><use transform="matrix(0.06172839506172839,0,0,0.06172839506172839,0,0)" xlink:href="#bB"/><use transform="matrix(0.06172839506172839,0,0,0.06172839506172839,7.8395061728395055,0)" xlink:href="#bk"/><use transform="matrix(0.06172839506172839,0,0,0.06172839506172839,20.185185185185183,0)" xlink:href="#bC"/><use transform="matrix(0.06172839506172839,0,0,0.06172839506172839,31.296296296296294,0)" xlink:href="#bC"/><use transform="matrix(0.06172839506172839,0,0,0.06172839506172839,42.407407407407405,0)" xlink:href="#bq"/><use transform="matrix(0.06172839506172839,0,0,0.06172839506172839,54.75308641975308,0)" xlink:href="#bD"/><use transform="matrix(0.06172839506172839,0,0,0.06172839506172839,67.09876543209876,0)" xlink:href="#bn"/><use transform="matrix(0.06172839506172839,0,0,0.06172839506172839,73.2716049382716,0)" xlink:href="#bR"/><use transform="matrix(0.06172839506172839,0,0,0.06172839506172839,85.61728395061728,0)" xlink:href="#bM"/><use transform="matrix(0.06172839506172839,0,0,0.06172839506172839,97.96296296296296,0)" xlink:href="#br"/><use transform="matrix(0.06172839506172839,0,0,0.06172839506172839,105.30864197530865,0)" xlink:href="#bR"/><use transform="matrix(0.06172839506172839,0,0,0.06172839506172839,117.65432098765433,0)" xlink:href="#bC"/><use transform="matrix(0.06172839506172839,0,0,0.06172839506172839,128.76543209876544,0)" xlink:href="#bk"/><use transform="matrix(0.06172839506172839,0,0,0.06172839506172839,141.11111111111111,0)" xlink:href="#bm"/><use transform="matrix(0.06172839506172839,0,0,0.06172839506172839,153.45679012345678,0)" xlink:href="#bC"/><use transform="matrix(0.06172839506172839,0,0,0.06172839506172839,164.5679012345679,0)" xlink:href="#bq"/><use transform="matrix(0.06172839506172839,0,0,0.06172839506172839,176.91358024691357,0)" xlink:href="#bS"/><use transform="matrix(0.06172839506172839,0,0,0.06172839506172839,181.7901234567901,0)" xlink:href="#bB"/></g><g id="ao"><use transform="matrix(0.06172839506172839,0,0,0.06172839506172839,0,0)" xlink:href="#bB"/><use transform="matrix(0.06172839506172839,0,0,0.06172839506172839,7.8395061728395055,0)" xlink:href="#bC"/><use transform="matrix(0.06172839506172839,0,0,0.06172839506172839,18.950617283950617,0)" xlink:href="#bk"/><use transform="matrix(0.06172839506172839,0,0,0.06172839506172839,31.296296296296298,0)" xlink:href="#bm"/><use transform="matrix(0.06172839506172839,0,0,0.06172839506172839,43.641975308641975,0)" xlink:href="#bC"/><use transform="matrix(0.06172839506172839,0,0,0.06172839506172839,54.75308641975309,0)" xlink:href="#bq"/><use transform="matrix(0.06172839506172839,0,0,0.06172839506172839,67.09876543209877,0)" xlink:href="#bS"/><use transform="matrix(0.06172839506172839,0,0,0.06172839506172839,71.97530864197532,0)" xlink:href="#bB"/></g></defs></g></svg>