<svg xmlns="http://www.w3.org/2000/svg" xmlns:xlink="http://www.w3.org/1999/xlink" xmlns:lucid="lucid" width="1553.98" height="560"><g transform="translate(-122.5670154617928 -57.956651552416815)" lucid:page-tab-id="0_0"><path d="M0 0h1760v1360H0z" fill="#fff"/><path d="M1216.58 239.03h-58.47M1216.54 239.03h1.54M1175.55 228.85l-17.22 10.18 17.22 10.18M646.25 239.9h51.3M646.3 239.9h-1.55M680.13 250.1l17.2-10.2-17.2-10.17" stroke="#000" stroke-width="3" fill="none"/><g class="lucid-layer" lucid:layer-id="L6-ez2dE2id~" display="block"><path d="M164.55 77.96h460v460h-460z" stroke="#000" stroke-width="2" fill-opacity="0"/><path d="M791.9 248.68l-.26 51.36M787.9 248.66l-.26 51.36" stroke="#000" stroke-width="2" fill="none"/><path d="M792.9 248.7h-2v-1.03h2zM788.9 248.7l-2-.02v-1h2z"/><path d="M789.56 315.3L785 301l9.27.05z" stroke="#000" stroke-width="2"/><path d="M691.26 110h418.5v32.16h-418.5z" stroke="#000" stroke-opacity="0" stroke-width="2" fill="#fff" fill-opacity="0"/><use xlink:href="#a" transform="matrix(1,0,0,1,696.2623957050865,114.98958222725301) translate(142.30864197530863 17.77777777777778)"/><path d="M928.9 317.56h44.85v63.34H928.9z" stroke="#000" stroke-opacity="0" stroke-width="2" fill="#fff" fill-opacity="0"/><use xlink:href="#b" transform="matrix(1,0,0,1,933.913641256688,322.56342188970035) translate(-3.487654320987655 31.444444444444443)"/><path d="M1008.1 248.72l-43.75 55.54M1004.94 246.25L961.2 301.8" stroke="#000" stroke-width="2" fill="none"/><path d="M1008.86 249.36l-1.57-1.24 1.1-1.42h2.55zM1005.7 246.9l-.22-.2h.38z"/><path d="M953.34 315.02l5.18-14.07 7.28 5.73z" stroke="#000" stroke-width="2"/><path d="M853.16 144.17l-47.84 61.7M850 141.72l-47.84 61.7" stroke="#000" stroke-width="2" fill="none"/><path d="M853.93 144.8l-1.58-1.22 1.1-1.42h2.53zM850.77 142.35l-.26-.2h.42z"/><path d="M794.38 216.7l5.08-14.12 7.33 5.68z" stroke="#000" stroke-width="2"/><path d="M956.54 141.84l41.7 60.1M953.25 144.12l41.7 60.1" stroke="#000" stroke-width="2" fill="none"/><path d="M955.73 142.43l-.2-.27h.6zM954.1 143.57l-1.66 1.14-1.77-2.54h2.44z"/><path d="M1005.3 215.63l-11.95-9.08 7.62-5.3z" stroke="#000" stroke-width="2"/><path d="M973.75 218.28h66.77v28.42h-66.77z" stroke="#000" stroke-opacity="0" stroke-width="2" fill="#fff" fill-opacity="0"/><use xlink:href="#c" transform="matrix(1,0,0,1,978.7534989079334,223.28444447595) translate(0 17.77777777777778)"/><path d="M720.6 77.96h418.5v360H720.6z" stroke="#000" stroke-width="2" fill-opacity="0"/><path d="M1342.78 387.38l-.28 60.9M1338.78 387.36l-.28 60.92" stroke="#000" stroke-width="2" fill="none"/><path d="M1343.78 387.4h-2v-1.03h2zM1339.78 387.4l-2-.02v-1h2z"/><path d="M1340.43 463.55l-4.57-14.3 9.27.06z" stroke="#000" stroke-width="2"/><path d="M1238.04 130.5h418.5v32.16h-418.5z" stroke="#000" stroke-opacity="0" stroke-width="2" fill="#fff" fill-opacity="0"/><use xlink:href="#a" transform="matrix(1,0,0,1,1243.0411036708058,135.49574313841825) translate(142.30864197530863 17.77777777777778)"/><path d="M1309.9 357.96h66.75v28.4h-66.76z" stroke="#000" stroke-opacity="0" stroke-width="2" fill="#fff" fill-opacity="0"/><use xlink:href="#c" transform="matrix(1,0,0,1,1314.8916374786354,362.9566515524169) translate(0 17.77777777777778)"/><path d="M1309.9 466.8h62.52V511h-62.53z" stroke="#000" stroke-opacity="0" stroke-width="2" fill="#fff" fill-opacity="0"/><use xlink:href="#d" transform="matrix(1,0,0,1,1314.8916374786352,471.78762698056283) translate(5.512345679012345 21.944444444444443)"/><path d="M1437.34 345.98h44.84v63.34h-44.84z" stroke="#000" stroke-opacity="0" stroke-width="2" fill="#fff" fill-opacity="0"/><use xlink:href="#b" transform="matrix(1,0,0,1,1442.3373540221257,350.98239330784384) translate(-3.487654320987655 31.444444444444443)"/><path d="M1455.92 283.9l1.86 43.5M1451.92 284.06l1.87 43.52M1455.92 283.9l-.04-1M1451.92 284.1l-.04-1.04" stroke="#000" stroke-width="2" fill="none"/><path d="M1456.44 342.75l-5.24-14.06 9.26-.4z" stroke="#000" stroke-width="2"/><path d="M1391.34 281.9l-25.22 48.88M1387.8 280.06l-25.24 48.9M1391.33 281.9l.47-.9M1387.77 280.08l.47-.9" stroke="#000" stroke-width="2" fill="none"/><path d="M1357.34 343.43l2.42-14.8 8.24 4.25z" stroke="#000" stroke-width="2"/><path d="M1449.28 163.7l-1.03 58.46M1445.28 163.63l-1.03 58.46" stroke="#000" stroke-width="2" fill="none"/><path d="M1450.28 163.74l-2-.03v-1.04h2zM1446.28 163.67l-2-.03v-.98h2z"/><path d="M1445.98 237.4l-4.38-14.36 9.27.17z" stroke="#000" stroke-width="2"/><path d="M1396.55 240.62h66.76v28.42h-66.75z" stroke="#000" stroke-opacity="0" stroke-width="2" fill="#fff" fill-opacity="0"/><use xlink:href="#c" transform="matrix(1,0,0,1,1401.546441749098,245.62331821908356) translate(0 17.77777777777778)"/><path d="M1238.04 77.96h418.5v520h-418.5z" stroke="#000" stroke-width="2" fill-opacity="0"/><path d="M1064.93 317.56h44.84v63.34h-44.84z" stroke="#000" stroke-opacity="0" stroke-width="2" fill="#fff" fill-opacity="0"/><use xlink:href="#e" transform="matrix(1,0,0,1,1069.927876132133,322.56342188970035) translate(-3.487654320987655 31.444444444444443)"/><path d="M1042 246.4l36.7 54.7M1038.66 248.64l36.7 54.68" stroke="#000" stroke-width="2" fill="none"/><path d="M1042.83 245.88l-1.66 1.1-.65-.96v-3.44l.07-.04zM1039.5 248.1l-1.65 1.12-1.7-2.52h2.4z"/><path d="M1085.54 314.88l-11.8-9.26 7.7-5.17z" stroke="#000" stroke-width="2"/><path d="M1542.18 342.45h44.84v63.33h-44.84z" stroke="#000" stroke-opacity="0" stroke-width="2" fill="#fff" fill-opacity="0"/><use xlink:href="#e" transform="matrix(1,0,0,1,1547.1807792342522,347.4511980603536) translate(-3.487654320987655 31.444444444444443)"/><path d="M1505.62 274.33l33.77 51.55M1502.27 276.53l33.78 51.54M1505.63 274.35l-.56-.85M1502.3 276.55l-.57-.86" stroke="#000" stroke-width="2" fill="none"/><path d="M1546.1 339.74l-11.7-9.4 7.75-5.07z" stroke="#000" stroke-width="2"/><path d="M243.2 245.67l-.26 51.36M239.2 245.65l-.26 51.36" stroke="#000" stroke-width="2" fill="none"/><path d="M244.2 245.7h-2v-1.04h2zM240.2 245.68h-2v-1.02h2z"/><path d="M240.87 312.3L236.3 298l9.27.05z" stroke="#000" stroke-width="2"/><path d="M142.57 107.95h418.5v32.17h-418.5z" stroke="#000" stroke-opacity="0" stroke-width="2" fill="#fff" fill-opacity="0"/><use xlink:href="#a" transform="matrix(1,0,0,1,147.5670154617928,112.951917908154) translate(142.30864197530863 17.77777777777778)"/><path d="M210.33 216.25h66.76v28.4h-66.77z" stroke="#000" stroke-opacity="0" stroke-width="2" fill="#fff" fill-opacity="0"/><use xlink:href="#c" transform="matrix(1,0,0,1,215.32502257923034,221.246780156851) translate(0 17.77777777777778)"/><path d="M210.33 315.53h62.52v63.33h-62.52z" stroke="#000" stroke-opacity="0" stroke-width="2" fill="#fff" fill-opacity="0"/><use xlink:href="#d" transform="matrix(1,0,0,1,215.32502257923048,320.5257575706013) translate(5.512345679012345 31.444444444444443)"/><path d="M380.22 315.53h44.84v63.33h-44.84z" stroke="#000" stroke-opacity="0" stroke-width="2" fill="#fff" fill-opacity="0"/><use xlink:href="#b" transform="matrix(1,0,0,1,385.21826101339417,320.5257575706013) translate(-3.487654320987655 31.444444444444443)"/><path d="M459.4 246.68l-43.74 55.55M456.25 244.2l-43.74 55.55" stroke="#000" stroke-width="2" fill="none"/><path d="M460.16 247.32l-1.57-1.23 1.1-1.44h2.56zM457.02 244.85l-.24-.2h.4z"/><path d="M404.64 312.98l5.18-14.07 7.3 5.74z" stroke="#000" stroke-width="2"/><path d="M304.45 142.14l-47.74 60.8M301.3 139.67l-47.74 60.8" stroke="#000" stroke-width="2" fill="none"/><path d="M305.22 142.78l-1.57-1.24 1.1-1.42h2.56zM302.07 140.3l-.24-.18h.4z"/><path d="M245.7 213.7l5.17-14.08 7.3 5.73z" stroke="#000" stroke-width="2"/><path d="M407.84 139.8l41.7 60.1M404.55 142.08l41.7 60.1" stroke="#000" stroke-width="2" fill="none"/><path d="M407.03 140.4l-.2-.28h.6zM405.4 141.53l-1.65 1.14-1.77-2.55h2.43z"/><path d="M456.6 213.6l-11.95-9.1 7.62-5.28z" stroke="#000" stroke-width="2"/><path d="M425.06 216.25h66.76v28.4h-66.76z" stroke="#000" stroke-opacity="0" stroke-width="2" fill="#fff" fill-opacity="0"/><use xlink:href="#c" transform="matrix(1,0,0,1,430.05811866463955,221.246780156851) translate(0 17.77777777777778)"/><path d="M493.3 244.38l36.7 54.67M489.97 246.6l36.7 54.68" stroke="#000" stroke-width="2" fill="none"/><path d="M494.13 243.84l-1.66 1.1-.65-.96v-3.43l.07-.05zM490.8 246.07l-1.65 1.1-1.7-2.5h2.42z"/><path d="M536.85 312.84l-11.8-9.26 7.7-5.17z" stroke="#000" stroke-width="2"/><path d="M759.02 219.25h66.76v28.42h-66.76z" stroke="#000" stroke-opacity="0" stroke-width="2" fill="#fff" fill-opacity="0"/><use xlink:href="#c" transform="matrix(1,0,0,1,764.0204028225239,224.25217840496464) translate(0 17.77777777777778)"/><path d="M759.02 318.53h62.53v63.33h-62.53z" stroke="#000" stroke-opacity="0" stroke-width="2" fill="#fff" fill-opacity="0"/><use xlink:href="#d" transform="matrix(1,0,0,1,764.0204028225243,323.53115581871486) translate(5.512345679012345 31.444444444444443)"/><path d="M542.9 362.3l.26 40.98M538.9 362.34l.26 40.97M542.9 362.34l-.02-1.03M538.9 362.37l-.02-1.03" stroke="#000" stroke-width="2" fill="none"/><path d="M541.26 418.56l-4.73-14.23 9.27-.06z" stroke="#000" stroke-width="2"/><path d="M508.97 324.3h66.76v28.42h-66.76z" stroke="#000" stroke-opacity="0" stroke-width="2" fill="#fff" fill-opacity="0"/><use xlink:href="#c" transform="matrix(1,0,0,1,513.9657933344708,329.3063442412348) translate(0 17.77777777777778)"/><path d="M510.75 421.8h62.53v63.33h-62.53z" stroke="#000" stroke-opacity="0" stroke-width="2" fill="#fff" fill-opacity="0"/><use xlink:href="#e" transform="matrix(1,0,0,1,515.7519462182555,426.79916877120075) translate(5.512345679012345 31.444444444444443)"/></g><defs><path d="M136-208V0H84v-208H4v-40h212v40h-80" id="f"/><path d="M135-150c-39-12-60 13-60 57V0H25l-1-190h47c2 13-1 29 3 40 6-28 27-53 61-41v41" id="g"/><path d="M133-34C117-15 103 5 69 4 32 3 11-16 11-54c-1-60 55-63 116-61 1-26-3-47-28-47-18 1-26 9-28 27l-52-2c7-38 36-58 82-57s74 22 75 68l1 82c-1 14 12 18 25 15v27c-30 8-71 5-69-32zm-48 3c29 0 43-24 42-57-32 0-66-3-65 30 0 17 8 27 23 27" id="h"/><path d="M135-194c87-1 58 113 63 194h-50c-7-57 23-157-34-157-59 0-34 97-39 157H25l-1-190h47c2 12-1 28 3 38 12-26 28-41 61-42" id="i"/><path d="M137-138c1-29-70-34-71-4 15 46 118 7 119 86 1 83-164 76-172 9l43-7c4 19 20 25 44 25 33 8 57-30 24-41C81-84 22-81 20-136c-2-80 154-74 161-7" id="j"/><path d="M190-63c-7 42-38 67-86 67-59 0-84-38-90-98-12-110 154-137 174-36l-49 2c-2-19-15-32-35-32-30 0-35 28-38 64-6 74 65 87 74 30" id="k"/><path d="M115-3C79 11 28 4 28-45v-112H4v-33h27l15-45h31v45h36v33H77v99c-1 23 16 31 38 25v30" id="l"/><path d="M25-224v-37h50v37H25zM25 0v-190h50V0H25" id="m"/><path d="M110-194c64 0 96 36 96 99 0 64-35 99-97 99-61 0-95-36-95-99 0-62 34-99 96-99zm-1 164c35 0 45-28 45-65 0-40-10-65-43-65-34 0-45 26-45 65 0 36 10 65 43 65" id="n"/><g id="a"><use transform="matrix(0.06172839506172839,0,0,0.06172839506172839,0,0)" xlink:href="#f"/><use transform="matrix(0.06172839506172839,0,0,0.06172839506172839,12.28395061728395,0)" xlink:href="#g"/><use transform="matrix(0.06172839506172839,0,0,0.06172839506172839,20.925925925925924,0)" xlink:href="#h"/><use transform="matrix(0.06172839506172839,0,0,0.06172839506172839,33.2716049382716,0)" xlink:href="#i"/><use transform="matrix(0.06172839506172839,0,0,0.06172839506172839,46.79012345679012,0)" xlink:href="#j"/><use transform="matrix(0.06172839506172839,0,0,0.06172839506172839,59.1358024691358,0)" xlink:href="#h"/><use transform="matrix(0.06172839506172839,0,0,0.06172839506172839,71.48148148148148,0)" xlink:href="#k"/><use transform="matrix(0.06172839506172839,0,0,0.06172839506172839,83.82716049382717,0)" xlink:href="#l"/><use transform="matrix(0.06172839506172839,0,0,0.06172839506172839,91.17283950617285,0)" xlink:href="#m"/><use transform="matrix(0.06172839506172839,0,0,0.06172839506172839,97.34567901234568,0)" xlink:href="#n"/><use transform="matrix(0.06172839506172839,0,0,0.06172839506172839,110.8641975308642,0)" xlink:href="#i"/></g><path d="M141-36C126-15 110 5 73 4 37 3 15-17 15-53c-1-64 63-63 125-63 3-35-9-54-41-54-24 1-41 7-42 31l-33-3c5-37 33-52 76-52 45 0 72 20 72 64v82c-1 20 7 32 28 27v20c-31 9-61-2-59-35zM48-53c0 20 12 33 32 33 41-3 63-29 60-74-43 2-92-5-92 41" id="o"/><path d="M96-169c-40 0-48 33-48 73s9 75 48 75c24 0 41-14 43-38l32 2c-6 37-31 61-74 61-59 0-76-41-82-99-10-93 101-131 147-64 4 7 5 14 7 22l-32 3c-4-21-16-35-41-35" id="p"/><path d="M59-47c-2 24 18 29 38 22v24C64 9 27 4 27-40v-127H5v-23h24l9-43h21v43h35v23H59v120" id="q"/><path d="M101-251c82-7 93 87 43 132L82-64C71-53 59-42 53-27h129V0H18c2-99 128-94 128-182 0-28-16-43-45-43s-46 15-49 41l-32-3c6-41 34-60 81-64" id="r"/><g id="b"><use transform="matrix(0.06172839506172839,0,0,0.06172839506172839,0,0)" xlink:href="#o"/><use transform="matrix(0.06172839506172839,0,0,0.06172839506172839,12.345679012345679,0)" xlink:href="#p"/><use transform="matrix(0.06172839506172839,0,0,0.06172839506172839,23.45679012345679,0)" xlink:href="#q"/><use transform="matrix(0.06172839506172839,0,0,0.06172839506172839,29.62962962962963,0)" xlink:href="#r"/></g><path d="M240-174c0 40-23 61-54 70L253 0h-59l-57-94H76V0H24v-248c93 4 217-23 216 74zM76-134c48-2 112 12 112-38 0-48-66-32-112-35v73" id="s"/><path d="M25 0v-261h50V0H25" id="t"/><path d="M135-194c52 0 70 43 70 98 0 56-19 99-73 100-30 1-46-15-58-35L72 0H24l1-261h50v104c11-23 29-37 60-37zM114-30c31 0 40-27 40-66 0-37-7-63-39-63s-41 28-41 65c0 36 8 64 40 64" id="u"/><path d="M147 0L96-86 75-71V0H25v-261h50v150l67-79h53l-66 74L201 0h-54" id="v"/><g id="c"><use transform="matrix(0.06172839506172839,0,0,0.06172839506172839,0,0)" xlink:href="#s"/><use transform="matrix(0.06172839506172839,0,0,0.06172839506172839,15.987654320987653,0)" xlink:href="#n"/><use transform="matrix(0.06172839506172839,0,0,0.06172839506172839,29.50617283950617,0)" xlink:href="#t"/><use transform="matrix(0.06172839506172839,0,0,0.06172839506172839,35.67901234567901,0)" xlink:href="#t"/><use transform="matrix(0.06172839506172839,0,0,0.06172839506172839,41.851851851851855,0)" xlink:href="#u"/><use transform="matrix(0.06172839506172839,0,0,0.06172839506172839,55.370370370370374,0)" xlink:href="#h"/><use transform="matrix(0.06172839506172839,0,0,0.06172839506172839,67.71604938271605,0)" xlink:href="#k"/><use transform="matrix(0.06172839506172839,0,0,0.06172839506172839,80.06172839506173,0)" xlink:href="#v"/></g><path d="M27 0v-27h64v-190l-56 39v-29l58-41h29v221h61V0H27" id="w"/><g id="d"><use transform="matrix(0.06172839506172839,0,0,0.06172839506172839,0,0)" xlink:href="#o"/><use transform="matrix(0.06172839506172839,0,0,0.06172839506172839,12.345679012345679,0)" xlink:href="#p"/><use transform="matrix(0.06172839506172839,0,0,0.06172839506172839,23.45679012345679,0)" xlink:href="#q"/><use transform="matrix(0.06172839506172839,0,0,0.06172839506172839,29.62962962962963,0)" xlink:href="#w"/></g><path d="M126-127c33 6 58 20 58 59 0 88-139 92-164 29-3-8-5-16-6-25l32-3c6 27 21 44 54 44 32 0 52-15 52-46 0-38-36-46-79-43v-28c39 1 72-4 72-42 0-27-17-43-46-43-28 0-47 15-49 41l-32-3c6-42 35-63 81-64 48-1 79 21 79 65 0 36-21 52-52 59" id="x"/><g id="e"><use transform="matrix(0.06172839506172839,0,0,0.06172839506172839,0,0)" xlink:href="#o"/><use transform="matrix(0.06172839506172839,0,0,0.06172839506172839,12.345679012345679,0)" xlink:href="#p"/><use transform="matrix(0.06172839506172839,0,0,0.06172839506172839,23.45679012345679,0)" xlink:href="#q"/><use transform="matrix(0.06172839506172839,0,0,0.06172839506172839,29.62962962962963,0)" xlink:href="#x"/></g></defs></g></svg>