<svg xmlns="http://www.w3.org/2000/svg" xmlns:xlink="http://www.w3.org/1999/xlink" xmlns:lucid="lucid" width="1565.17" height="561.33"><g transform="translate(-146.8279952550416 -40.00000000000006)" lucid:page-tab-id="0_0"><path d="M0 0h1760v1360H0z" fill="#fff"/><path d="M1238.5 240h-75.77M1238.46 240h1.54M1180.16 229.82l-17.2 10.18 17.2 10.18M611.5 240h78.44M611.54 240H610M672.5 250.18L689.73 240l-17.2-10.18M609.17 120h85.77M609.2 120h-1.53M677.5 130.18L694.73 120l-17.2-10.18M609.17 360h82.1M609.2 360h-1.53M673.84 370.18l17.2-10.18-17.2-10.18M1238.5 129.33h-75.77M1238.46 129.33h1.54M1180.16 119.15l-17.2 10.18 17.2 10.18M1241.17 353.33h-75.78M1241.13 353.33h1.54M1182.83 343.15l-17.22 10.18 17.23 10.18" stroke="#000" stroke-width="3" fill="none"/><g class="lucid-layer" lucid:layer-id="L6-ez2dE2id~" display="block"><path d="M267.5 250.18l1.86 56.64M263.5 250.3l1.86 56.65" stroke="#000" stroke-width="2" fill="none"/><path d="M268.5 250.17l-2 .07-.02-1h2zM264.5 250.3l-2 .07-.03-1.12h2z"/><path d="M267.86 322.14l-5.1-14.1 9.27-.3z" stroke="#000" stroke-width="2"/><path d="M166.83 112.54h418.5v32.17h-418.5z" stroke="#000" stroke-opacity="0" stroke-width="2" fill="#fff" fill-opacity="0"/><use xlink:href="#a" transform="matrix(1,0,0,1,171.8279952550416,117.53909158600146) translate(142.30864197530863 17.77777777777778)"/><path d="M234.6 220.83h66.75v28.42H234.6z" stroke="#000" stroke-opacity="0" stroke-width="2" fill="#fff" fill-opacity="0"/><use xlink:href="#b" transform="matrix(1,0,0,1,239.58600237247913,225.83395383469843) translate(0 17.77777777777778)"/><path d="M460.28 329.66h44.84v44.23h-44.84z" stroke="#000" stroke-opacity="0" stroke-width="2" fill="#fff" fill-opacity="0"/><use xlink:href="#c" transform="matrix(1,0,0,1,465.2799525504152,334.66492926284434) translate(10.092592592592593 21.944444444444443)"/><path d="M484.7 250.25v60.9M480.7 250.25v60.9" stroke="#000" stroke-width="2" fill="none"/><path d="M485.7 250.27h-2v-1.02h2zM481.7 250.27h-2v-1.02h2z"/><path d="M482.7 326.43l-4.64-14.27h9.28z" stroke="#000" stroke-width="2"/><path d="M328.7 146.73l-47.73 60.8M325.56 144.26l-47.74 60.8" stroke="#000" stroke-width="2" fill="none"/><path d="M329.48 147.37l-1.57-1.24 1.12-1.42h2.55zM326.33 144.9l-.24-.2h.38z"/><path d="M269.97 218.3l5.16-14.1 7.3 5.73z" stroke="#000" stroke-width="2"/><path d="M432.1 144.4l41.7 60.1M428.82 146.67l41.7 60.1" stroke="#000" stroke-width="2" fill="none"/><path d="M431.3 144.98l-.2-.27h.6zM429.65 146.12l-1.64 1.14-1.76-2.55h2.43z"/><path d="M480.86 218.18l-11.94-9.08 7.6-5.3z" stroke="#000" stroke-width="2"/><path d="M449.32 220.83h66.76v28.42h-66.76z" stroke="#000" stroke-opacity="0" stroke-width="2" fill="#fff" fill-opacity="0"/><use xlink:href="#b" transform="matrix(1,0,0,1,454.31909845788846,225.83395383469843) translate(0 17.77777777777778)"/><path d="M166.83 60h418.5v460h-418.5z" stroke="#000" stroke-width="2" fill-opacity="0"/><path d="M822.14 250.26l-.28 60.9M818.14 250.24l-.28 60.9" stroke="#000" stroke-width="2" fill="none"/><path d="M823.14 250.3l-2-.02v-1.03h2zM819.14 250.27h-2v-1.02h2z"/><path d="M819.8 326.43l-4.58-14.3 9.27.05z" stroke="#000" stroke-width="2"/><path d="M721.5 112.54H1140v32.17H721.5z" stroke="#000" stroke-opacity="0" stroke-width="2" fill="#fff" fill-opacity="0"/><use xlink:href="#a" transform="matrix(1,0,0,1,726.4946619217083,117.53909158600146) translate(142.30864197530863 17.77777777777778)"/><path d="M789.25 220.83H856v28.42h-66.75z" stroke="#000" stroke-opacity="0" stroke-width="2" fill="#fff" fill-opacity="0"/><use xlink:href="#b" transform="matrix(1,0,0,1,794.2526690391458,225.83395383469843) translate(0 17.77777777777778)"/><path d="M789.25 329.66h62.53v44.23h-62.53z" stroke="#000" stroke-opacity="0" stroke-width="2" fill="#fff" fill-opacity="0"/><use xlink:href="#d" transform="matrix(1,0,0,1,794.2526690391459,334.6649292628444) translate(19.092592592592595 21.944444444444443)"/><path d="M1014.95 329.66h44.84v44.23h-44.85z" stroke="#000" stroke-opacity="0" stroke-width="2" fill="#fff" fill-opacity="0"/><use xlink:href="#c" transform="matrix(1,0,0,1,1019.9466192170819,334.6649292628444) translate(10.092592592592593 21.944444444444443)"/><path d="M1039.37 250.25v60.9M1035.37 250.25v60.9" stroke="#000" stroke-width="2" fill="none"/><path d="M1040.37 250.27h-2v-1.02h2zM1036.37 250.27h-2v-1.02h2z"/><path d="M1037.37 326.43l-4.64-14.27h9.27z" stroke="#000" stroke-width="2"/><path d="M883.38 146.73l-47.75 60.8M880.23 144.26l-47.74 60.8" stroke="#000" stroke-width="2" fill="none"/><path d="M884.15 147.37l-1.58-1.24 1.12-1.42h2.53zM881 144.9l-.24-.2h.4z"/><path d="M824.63 218.3l5.17-14.1 7.3 5.73z" stroke="#000" stroke-width="2"/><path d="M986.77 144.4l41.7 60.1M983.48 146.67l41.7 60.1" stroke="#000" stroke-width="2" fill="none"/><path d="M985.96 144.98l-.2-.27h.6zM984.32 146.12l-1.65 1.14-1.77-2.55h2.44z"/><path d="M1035.52 218.18l-11.94-9.08 7.62-5.3z" stroke="#000" stroke-width="2"/><path d="M1004 220.83h66.75v28.42H1004z" stroke="#000" stroke-opacity="0" stroke-width="2" fill="#fff" fill-opacity="0"/><use xlink:href="#b" transform="matrix(1,0,0,1,1008.9857651245551,225.83395383469843) translate(0 17.77777777777778)"/><path d="M720 60h418.5v360H720z" stroke="#000" stroke-width="2" fill-opacity="0"/><path d="M1378.23 369.42l-.28 60.92M1374.23 369.4l-.28 60.92" stroke="#000" stroke-width="2" fill="none"/><path d="M1379.23 369.45h-2v-1.04h2zM1375.23 369.44h-2v-1.03h2z"/><path d="M1375.88 445.6l-4.57-14.3 9.28.05z" stroke="#000" stroke-width="2"/><path d="M1273.5 112.54H1692v32.17h-418.5z" stroke="#000" stroke-opacity="0" stroke-width="2" fill="#fff" fill-opacity="0"/><use xlink:href="#a" transform="matrix(1,0,0,1,1278.494661921708,117.5390915860014) translate(142.30864197530863 17.77777777777778)"/><path d="M1345.35 340h66.76v28.4h-66.75z" stroke="#000" stroke-opacity="0" stroke-width="2" fill="#fff" fill-opacity="0"/><use xlink:href="#b" transform="matrix(1,0,0,1,1350.3451957295374,345) translate(0 17.77777777777778)"/><path d="M1345.35 448.83h62.52v44.23h-62.52z" stroke="#000" stroke-opacity="0" stroke-width="2" fill="#fff" fill-opacity="0"/><use xlink:href="#d" transform="matrix(1,0,0,1,1350.3451957295376,453.83097542814596) translate(19.092592592592595 21.944444444444443)"/><path d="M1566.95 329.66h44.84v44.23h-44.85z" stroke="#000" stroke-opacity="0" stroke-width="2" fill="#fff" fill-opacity="0"/><use xlink:href="#c" transform="matrix(1,0,0,1,1571.946619217082,334.66492926284434) translate(10.092592592592593 21.944444444444443)"/><path d="M1530.84 256.16l48.23 58M1527.77 258.7l48.23 58.02M1530.86 256.18l-.66-.8M1527.78 258.73l-.65-.78" stroke="#000" stroke-width="2" fill="none"/><path d="M1587.3 327.18l-12.7-8 7.14-5.94z" stroke="#000" stroke-width="2"/><path d="M1433.2 252.97l-43.25 72.2M1429.77 250.9l-43.25 72.2" stroke="#000" stroke-width="2" fill="none"/><path d="M1434.05 253.5l-1.72-1.03.84-1.4h2.33zM1432 247.58v1.55l-1.38 2.32-1.72-1.03 2.07-3.45z"/><path d="M1380.4 337.22l3.34-14.62 7.96 4.77z" stroke="#000" stroke-width="2"/><path d="M1484.73 145.74l-1.03 58.46M1480.73 145.67l-1.02 58.46" stroke="#000" stroke-width="2" fill="none"/><path d="M1485.73 145.78l-2-.03.02-1.04h2zM1481.73 145.7l-2-.02.02-.97h2z"/><path d="M1481.44 219.43l-4.4-14.34 9.28.15z" stroke="#000" stroke-width="2"/><path d="M1432 222.67h66.76v28.4H1432z" stroke="#000" stroke-opacity="0" stroke-width="2" fill="#fff" fill-opacity="0"/><use xlink:href="#b" transform="matrix(1,0,0,1,1437,227.66666666666666) translate(0 17.77777777777778)"/><path d="M1268.13 61.33h418.5v520h-418.5z" stroke="#000" stroke-width="2" fill-opacity="0"/><path d="M267.47 354.8l-.28 60.9M263.47 354.78l-.28 60.92" stroke="#000" stroke-width="2" fill="none"/><path d="M268.47 354.83h-2v-1.04h2zM264.47 354.8h-2v-1h2z"/><path d="M265.12 430.97l-4.57-14.3 9.28.06z" stroke="#000" stroke-width="2"/><path d="M234.6 325.38h66.75v28.4H234.6z" stroke="#000" stroke-opacity="0" stroke-width="2" fill="#fff" fill-opacity="0"/><use xlink:href="#b" transform="matrix(1,0,0,1,239.58600237247913,330.3760238272524) translate(0 17.77777777777778)"/><path d="M234.6 434.2h62.5v44.24h-62.5z" stroke="#000" stroke-opacity="0" stroke-width="2" fill="#fff" fill-opacity="0"/><use xlink:href="#d" transform="matrix(1,0,0,1,239.58600237247924,439.20699925539833) translate(19.092592592592595 21.944444444444443)"/></g><defs><path d="M136-208V0H84v-208H4v-40h212v40h-80" id="e"/><path d="M135-150c-39-12-60 13-60 57V0H25l-1-190h47c2 13-1 29 3 40 6-28 27-53 61-41v41" id="f"/><path d="M133-34C117-15 103 5 69 4 32 3 11-16 11-54c-1-60 55-63 116-61 1-26-3-47-28-47-18 1-26 9-28 27l-52-2c7-38 36-58 82-57s74 22 75 68l1 82c-1 14 12 18 25 15v27c-30 8-71 5-69-32zm-48 3c29 0 43-24 42-57-32 0-66-3-65 30 0 17 8 27 23 27" id="g"/><path d="M135-194c87-1 58 113 63 194h-50c-7-57 23-157-34-157-59 0-34 97-39 157H25l-1-190h47c2 12-1 28 3 38 12-26 28-41 61-42" id="h"/><path d="M137-138c1-29-70-34-71-4 15 46 118 7 119 86 1 83-164 76-172 9l43-7c4 19 20 25 44 25 33 8 57-30 24-41C81-84 22-81 20-136c-2-80 154-74 161-7" id="i"/><path d="M190-63c-7 42-38 67-86 67-59 0-84-38-90-98-12-110 154-137 174-36l-49 2c-2-19-15-32-35-32-30 0-35 28-38 64-6 74 65 87 74 30" id="j"/><path d="M115-3C79 11 28 4 28-45v-112H4v-33h27l15-45h31v45h36v33H77v99c-1 23 16 31 38 25v30" id="k"/><path d="M25-224v-37h50v37H25zM25 0v-190h50V0H25" id="l"/><path d="M110-194c64 0 96 36 96 99 0 64-35 99-97 99-61 0-95-36-95-99 0-62 34-99 96-99zm-1 164c35 0 45-28 45-65 0-40-10-65-43-65-34 0-45 26-45 65 0 36 10 65 43 65" id="m"/><g id="a"><use transform="matrix(0.06172839506172839,0,0,0.06172839506172839,0,0)" xlink:href="#e"/><use transform="matrix(0.06172839506172839,0,0,0.06172839506172839,12.28395061728395,0)" xlink:href="#f"/><use transform="matrix(0.06172839506172839,0,0,0.06172839506172839,20.925925925925924,0)" xlink:href="#g"/><use transform="matrix(0.06172839506172839,0,0,0.06172839506172839,33.2716049382716,0)" xlink:href="#h"/><use transform="matrix(0.06172839506172839,0,0,0.06172839506172839,46.79012345679012,0)" xlink:href="#i"/><use transform="matrix(0.06172839506172839,0,0,0.06172839506172839,59.1358024691358,0)" xlink:href="#g"/><use transform="matrix(0.06172839506172839,0,0,0.06172839506172839,71.48148148148148,0)" xlink:href="#j"/><use transform="matrix(0.06172839506172839,0,0,0.06172839506172839,83.82716049382717,0)" xlink:href="#k"/><use transform="matrix(0.06172839506172839,0,0,0.06172839506172839,91.17283950617285,0)" xlink:href="#l"/><use transform="matrix(0.06172839506172839,0,0,0.06172839506172839,97.34567901234568,0)" xlink:href="#m"/><use transform="matrix(0.06172839506172839,0,0,0.06172839506172839,110.8641975308642,0)" xlink:href="#h"/></g><path d="M240-174c0 40-23 61-54 70L253 0h-59l-57-94H76V0H24v-248c93 4 217-23 216 74zM76-134c48-2 112 12 112-38 0-48-66-32-112-35v73" id="n"/><path d="M25 0v-261h50V0H25" id="o"/><path d="M135-194c52 0 70 43 70 98 0 56-19 99-73 100-30 1-46-15-58-35L72 0H24l1-261h50v104c11-23 29-37 60-37zM114-30c31 0 40-27 40-66 0-37-7-63-39-63s-41 28-41 65c0 36 8 64 40 64" id="p"/><path d="M147 0L96-86 75-71V0H25v-261h50v150l67-79h53l-66 74L201 0h-54" id="q"/><g id="b"><use transform="matrix(0.06172839506172839,0,0,0.06172839506172839,0,0)" xlink:href="#n"/><use transform="matrix(0.06172839506172839,0,0,0.06172839506172839,15.987654320987653,0)" xlink:href="#m"/><use transform="matrix(0.06172839506172839,0,0,0.06172839506172839,29.50617283950617,0)" xlink:href="#o"/><use transform="matrix(0.06172839506172839,0,0,0.06172839506172839,35.67901234567901,0)" xlink:href="#o"/><use transform="matrix(0.06172839506172839,0,0,0.06172839506172839,41.851851851851855,0)" xlink:href="#p"/><use transform="matrix(0.06172839506172839,0,0,0.06172839506172839,55.370370370370374,0)" xlink:href="#g"/><use transform="matrix(0.06172839506172839,0,0,0.06172839506172839,67.71604938271605,0)" xlink:href="#j"/><use transform="matrix(0.06172839506172839,0,0,0.06172839506172839,80.06172839506173,0)" xlink:href="#q"/></g><path d="M160-131c35 5 61 23 61 61C221 17 115-2 30 0v-248c76 3 177-17 177 60 0 33-19 50-47 57zm-97-11c50-1 110 9 110-42 0-47-63-36-110-37v79zm0 115c55-2 124 14 124-45 0-56-70-42-124-44v89" id="r"/><use transform="matrix(0.06172839506172839,0,0,0.06172839506172839,0,0)" xlink:href="#r" id="c"/><path d="M205 0l-28-72H64L36 0H1l101-248h38L239 0h-34zm-38-99l-47-123c-12 45-31 82-46 123h93" id="s"/><use transform="matrix(0.06172839506172839,0,0,0.06172839506172839,0,0)" xlink:href="#s" id="d"/></defs></g></svg>