<svg xmlns="http://www.w3.org/2000/svg" xmlns:xlink="http://www.w3.org/1999/xlink" xmlns:lucid="lucid" width="1220" height="1542"><g transform="translate(-340 -129)" lucid:page-tab-id="0_0"><path d="M360 580h1180v320H360zM360 940h1180v320H360zM360 220h1180v320H360z" stroke="#000" stroke-opacity="0" stroke-width="2" fill="#f4f4f4"/><path d="M367 340h160v60H367z" stroke="#000" stroke-opacity="0" stroke-width="2" fill="#fff" fill-opacity="0"/><use xlink:href="#a" transform="matrix(1,0,0,1,372,345) translate(12.71604938271605 29.444444444444443)"/><use xlink:href="#b" transform="matrix(1,0,0,1,372,345) translate(49.75308641975309 29.444444444444443)"/><use xlink:href="#c" transform="matrix(1,0,0,1,372,345) translate(122.46913580246914 29.444444444444443)"/><path d="M380 180h200v60H380z" stroke="#000" stroke-opacity="0" stroke-width="2" fill="#fff" fill-opacity="0"/><use xlink:href="#d" transform="matrix(1,0,0,1,385,185) translate(0 17.77777777777778)"/><use xlink:href="#e" transform="matrix(1,0,0,1,385,185) translate(56.79012345679012 17.77777777777778)"/><path d="M620 180h200v60H620z" stroke="#000" stroke-opacity="0" stroke-width="2" fill="#fff" fill-opacity="0"/><use xlink:href="#f" transform="matrix(1,0,0,1,625,185) translate(0 17.77777777777778)"/><use xlink:href="#e" transform="matrix(1,0,0,1,625,185) translate(20.555555555555554 17.77777777777778)"/><path d="M600 220h240v63.33H600z" stroke="#000" stroke-opacity="0" stroke-width="2" fill="#fff" fill-opacity="0"/><use xlink:href="#g" transform="matrix(1,0,0,1,605,225.00000000000003) translate(9.722222222222229 31.444444444444443)"/><use xlink:href="#h" transform="matrix(1,0,0,1,605,225.00000000000003) translate(115.3395061728395 31.444444444444443)"/><use xlink:href="#i" transform="matrix(1,0,0,1,605,225.00000000000003) translate(136.32716049382717 31.444444444444443)"/><use xlink:href="#j" transform="matrix(1,0,0,1,605,225.00000000000003) translate(169.6604938271605 31.444444444444443)"/><path d="M940 180h200v60H940z" stroke="#000" stroke-opacity="0" stroke-width="2" fill="#fff" fill-opacity="0"/><use xlink:href="#k" transform="matrix(1,0,0,1,945,185) translate(0 17.77777777777778)"/><use xlink:href="#e" transform="matrix(1,0,0,1,945,185) translate(19.753086419753085 17.77777777777778)"/><path d="M1199.65 272.93L1338 351.25M1197.68 276.4L1336 354.74M1198.67 274.67l-2.6-1.48" stroke="#000" stroke-width="2" fill="none"/><path d="M1334.18 351.4l-14.7-3 4.57-8.07z" stroke="#000" stroke-width="2"/><path d="M1117.42 278.74l-76 76.67M1114.58 275.93l-76 76.66M1116 277.33l2.1-2.13" stroke="#000" stroke-width="2" fill="none"/><path d="M1042.28 351.7l6.75-13.4 6.58 6.53z" stroke="#000" stroke-width="2"/><path d="M1042 394v98.66M1038 394v98.66" stroke="#000" stroke-width="2" fill="none"/><path d="M1040 489.42l-4.64-14.26h9.28z" stroke="#000" stroke-width="2"/><path d="M1020 234h393v63.33h-393z" stroke="#000" stroke-opacity="0" stroke-width="2" fill="#fff" fill-opacity="0"/><use xlink:href="#l" transform="matrix(1,0,0,1,1025,239.00000000000003) translate(0 17.77777777777778)"/><use xlink:href="#m" transform="matrix(1,0,0,1,1025,239.00000000000003) translate(45.67901234567901 17.77777777777778)"/><use xlink:href="#n" transform="matrix(1,0,0,1,1025,239.00000000000003) translate(66.66666666666666 17.77777777777778)"/><use xlink:href="#h" transform="matrix(1,0,0,1,1025,239.00000000000003) translate(179.62962962962962 17.77777777777778)"/><use xlink:href="#i" transform="matrix(1,0,0,1,1025,239.00000000000003) translate(200.61728395061726 17.77777777777778)"/><use xlink:href="#o" transform="matrix(1,0,0,1,1025,239.00000000000003) translate(233.9506172839506 17.77777777777778)"/><path d="M940 354h260v63.33H940z" stroke="#000" stroke-opacity="0" stroke-width="2" fill="#fff" fill-opacity="0"/><use xlink:href="#p" transform="matrix(1,0,0,1,945,359) translate(0 17.77777777777778)"/><use xlink:href="#q" transform="matrix(1,0,0,1,945,359) translate(45.67901234567901 17.77777777777778)"/><use xlink:href="#r" transform="matrix(1,0,0,1,945,359) translate(66.66666666666666 17.77777777777778)"/><use xlink:href="#s" transform="matrix(1,0,0,1,945,359) translate(111.04938271604937 17.77777777777778)"/><use xlink:href="#t" transform="matrix(1,0,0,1,945,359) translate(183.76543209876542 17.77777777777778)"/><path d="M980 493.67h140V557H980z" stroke="#000" stroke-opacity="0" stroke-width="2" fill="#fff" fill-opacity="0"/><use xlink:href="#u" transform="matrix(1,0,0,1,985,498.66666666666663) translate(0 17.77777777777778)"/><use xlink:href="#s" transform="matrix(1,0,0,1,985,498.66666666666663) translate(37.03703703703704 17.77777777777778)"/><use xlink:href="#v" transform="matrix(1,0,0,1,985,498.66666666666663) translate(109.75308641975309 17.77777777777778)"/><path d="M1260 354h200v64h-200z" stroke="#000" stroke-opacity="0" stroke-width="2" fill="#fff" fill-opacity="0"/><use xlink:href="#w" transform="matrix(1,0,0,1,1265,358.9999999999999) translate(0 17.77777777777778)"/><use xlink:href="#x" transform="matrix(1,0,0,1,1265,358.9999999999999) translate(115.92592592592594 17.77777777777778)"/><use xlink:href="#y" transform="matrix(1,0,0,1,1265,358.9999999999999) translate(149.25925925925927 17.77777777777778)"/><path d="M838 247h163.76" stroke="#666" stroke-width="2" fill="none"/><path d="M1016.76 247l-14.26 4.64v-9.28z" stroke="#666" stroke-width="2" fill="#666"/><path d="M536 369h390.76" stroke="#666" stroke-width="2" fill="none"/><path d="M941.76 369l-14.26 4.64v-9.28z" stroke="#666" stroke-width="2" fill="#666"/><path d="M380 495h180v45H380z" stroke="#000" stroke-opacity="0" stroke-width="2" fill="#fff" fill-opacity="0"/><use xlink:href="#z" transform="matrix(1,0,0,1,385,500) translate(0 17.77777777777778)"/><use xlink:href="#A" transform="matrix(1,0,0,1,385,500) translate(81.35802469135801 17.77777777777778)"/><path d="M360 1300h1180v320H360z" stroke="#000" stroke-opacity="0" stroke-width="2" fill="#f4f4f4"/><path d="M367 1420h160v60H367z" stroke="#000" stroke-opacity="0" stroke-width="2" fill="#fff" fill-opacity="0"/><use xlink:href="#u" transform="matrix(1,0,0,1,372,1425) translate(12.71604938271605 29.444444444444443)"/><use xlink:href="#s" transform="matrix(1,0,0,1,372,1425) translate(49.75308641975309 29.444444444444443)"/><use xlink:href="#B" transform="matrix(1,0,0,1,372,1425) translate(122.46913580246914 29.444444444444443)"/><path d="M1042 1474v98.66M1038 1474v98.66" stroke="#000" stroke-width="2" fill="none"/><path d="M1040 1569.42l-4.64-14.26h9.28z" stroke="#000" stroke-width="2"/><path d="M940 1434h260v63.33H940z" stroke="#000" stroke-opacity="0" stroke-width="2" fill="#fff" fill-opacity="0"/><use xlink:href="#p" transform="matrix(1,0,0,1,945,1439) translate(0 17.77777777777778)"/><use xlink:href="#q" transform="matrix(1,0,0,1,945,1439) translate(45.67901234567901 17.77777777777778)"/><use xlink:href="#r" transform="matrix(1,0,0,1,945,1439) translate(66.66666666666666 17.77777777777778)"/><use xlink:href="#s" transform="matrix(1,0,0,1,945,1439) translate(111.04938271604937 17.77777777777778)"/><use xlink:href="#t" transform="matrix(1,0,0,1,945,1439) translate(183.76543209876542 17.77777777777778)"/><path d="M980 1573.67h140V1600H980z" stroke="#000" stroke-opacity="0" stroke-width="2" fill="#fff" fill-opacity="0"/><use xlink:href="#u" transform="matrix(1,0,0,1,985,1578.6666666666665) translate(0 17.77777777777778)"/><use xlink:href="#s" transform="matrix(1,0,0,1,985,1578.6666666666665) translate(37.03703703703704 17.77777777777778)"/><use xlink:href="#v" transform="matrix(1,0,0,1,985,1578.6666666666665) translate(109.75308641975309 17.77777777777778)"/><path d="M536 1449h390.76" stroke="#666" stroke-width="2" fill="none"/><path d="M941.76 1449l-14.26 4.64v-9.28z" stroke="#666" stroke-width="2" fill="#666"/><path d="M380 860h180v40H380z" stroke="#000" stroke-opacity="0" stroke-width="2" fill="#fff" fill-opacity="0"/><use xlink:href="#C" transform="matrix(1,0,0,1,385,865) translate(0 17.77777777777778)"/><use xlink:href="#D" transform="matrix(1,0,0,1,385,865) translate(38.58024691358025 17.77777777777778)"/><path d="M380 1220h180v40H380z" stroke="#000" stroke-opacity="0" stroke-width="2" fill="#fff" fill-opacity="0"/><use xlink:href="#E" transform="matrix(1,0,0,1,385,1225) translate(0 17.77777777777778)"/><use xlink:href="#D" transform="matrix(1,0,0,1,385,1225) translate(39.75308641975309 17.77777777777778)"/><path d="M380 1580h200v63.33H380z" stroke="#000" stroke-opacity="0" stroke-width="2" fill="#fff" fill-opacity="0"/><use xlink:href="#F" transform="matrix(1,0,0,1,385,1585) translate(0 17.77777777777778)"/><use xlink:href="#D" transform="matrix(1,0,0,1,385,1585) translate(77.96296296296295 17.77777777777778)"/><path d="M360 1660V140" fill="none"/><path d="M360 1660v-20.27m0-20.26v-40.54m0-20.26v-40.54m0-20.26v-40.54m0-20.26v-40.54m0-20.26v-40.54m0-20.26v-40.54m0-20.26v-40.54m0-20.26v-40.54m0-20.26v-40.54m0-20.26v-40.54m0-20.26v-40.54m0-20.26v-40.54m0-20.26v-40.54m0-20.26v-40.54m0-20.26v-40.54m0-20.26v-40.54m0-20.26v-40.54m0-20.26v-40.54m0-20.26v-40.54m0-20.26v-40.54m0-20.26v-40.54m0-20.26v-40.54m0-20.26v-40.54m0-20.26v-40.54m0-20.26V140" stroke="#b2b2b2" stroke-width="2" fill="none"/><path d="M600 580h240v63.33H600z" stroke="#000" stroke-opacity="0" stroke-width="2" fill="#fff" fill-opacity="0"/><use xlink:href="#G" transform="matrix(1,0,0,1,605,585.0000000000001) translate(9.722222222222229 31.444444444444443)"/><use xlink:href="#H" transform="matrix(1,0,0,1,605,585.0000000000001) translate(115.3395061728395 31.444444444444443)"/><use xlink:href="#I" transform="matrix(1,0,0,1,605,585.0000000000001) translate(136.32716049382717 31.444444444444443)"/><use xlink:href="#J" transform="matrix(1,0,0,1,605,585.0000000000001) translate(169.6604938271605 31.444444444444443)"/><path d="M1199.65 632.93L1338 711.25M1197.68 636.4L1336 714.74M1198.67 634.67l-2.6-1.48" stroke="#000" stroke-width="2" fill="none"/><path d="M1334.18 711.4l-14.7-3 4.57-8.07z" stroke="#000" stroke-width="2"/><path d="M1117.42 638.74l-76 76.67M1114.58 635.93l-76 76.66M1116 637.33l2.1-2.13" stroke="#000" stroke-width="2" fill="none"/><path d="M1042.28 711.7l6.75-13.4 6.58 6.53z" stroke="#000" stroke-width="2"/><path d="M1042 754v98.66M1038 754v98.66" stroke="#000" stroke-width="2" fill="none"/><path d="M1040 849.42l-4.64-14.26h9.28z" stroke="#000" stroke-width="2"/><path d="M1020 594h393v63.33h-393z" stroke="#000" stroke-opacity="0" stroke-width="2" fill="#fff" fill-opacity="0"/><use xlink:href="#p" transform="matrix(1,0,0,1,1025,599.0000000000001) translate(0 17.77777777777778)"/><use xlink:href="#K" transform="matrix(1,0,0,1,1025,599.0000000000001) translate(45.67901234567901 17.77777777777778)"/><use xlink:href="#L" transform="matrix(1,0,0,1,1025,599.0000000000001) translate(66.66666666666666 17.77777777777778)"/><use xlink:href="#H" transform="matrix(1,0,0,1,1025,599.0000000000001) translate(179.62962962962962 17.77777777777778)"/><use xlink:href="#I" transform="matrix(1,0,0,1,1025,599.0000000000001) translate(200.61728395061726 17.77777777777778)"/><use xlink:href="#M" transform="matrix(1,0,0,1,1025,599.0000000000001) translate(233.9506172839506 17.77777777777778)"/><path d="M940 714h260v63.33H940z" stroke="#000" stroke-opacity="0" stroke-width="2" fill="#fff" fill-opacity="0"/><g><use xlink:href="#p" transform="matrix(1,0,0,1,945,719.0000000000001) translate(0 17.77777777777778)"/><use xlink:href="#q" transform="matrix(1,0,0,1,945,719.0000000000001) translate(45.67901234567901 17.77777777777778)"/><use xlink:href="#r" transform="matrix(1,0,0,1,945,719.0000000000001) translate(66.66666666666666 17.77777777777778)"/><use xlink:href="#s" transform="matrix(1,0,0,1,945,719.0000000000001) translate(111.04938271604937 17.77777777777778)"/><use xlink:href="#t" transform="matrix(1,0,0,1,945,719.0000000000001) translate(183.76543209876542 17.77777777777778)"/></g><path d="M980 853.67h140V917H980z" stroke="#000" stroke-opacity="0" stroke-width="2" fill="#fff" fill-opacity="0"/><g><use xlink:href="#u" transform="matrix(1,0,0,1,985,858.6666666666666) translate(0 17.77777777777778)"/><use xlink:href="#s" transform="matrix(1,0,0,1,985,858.6666666666666) translate(37.03703703703704 17.77777777777778)"/><use xlink:href="#v" transform="matrix(1,0,0,1,985,858.6666666666666) translate(109.75308641975309 17.77777777777778)"/></g><path d="M1260 714h200v64h-200z" stroke="#000" stroke-opacity="0" stroke-width="2" fill="#fff" fill-opacity="0"/><g><use xlink:href="#w" transform="matrix(1,0,0,1,1265,719) translate(0 17.77777777777778)"/><use xlink:href="#x" transform="matrix(1,0,0,1,1265,719) translate(115.92592592592594 17.77777777777778)"/><use xlink:href="#y" transform="matrix(1,0,0,1,1265,719) translate(149.25925925925927 17.77777777777778)"/></g><path d="M367 1060h160v60H367z" stroke="#000" stroke-opacity="0" stroke-width="2" fill="#fff" fill-opacity="0"/><g><use xlink:href="#u" transform="matrix(1,0,0,1,372,1065) translate(12.71604938271605 29.444444444444443)"/><use xlink:href="#s" transform="matrix(1,0,0,1,372,1065) translate(49.75308641975309 29.444444444444443)"/><use xlink:href="#B" transform="matrix(1,0,0,1,372,1065) translate(122.46913580246914 29.444444444444443)"/></g><path d="M600 940h240v63.33H600z" stroke="#000" stroke-opacity="0" stroke-width="2" fill="#fff" fill-opacity="0"/><g><use xlink:href="#G" transform="matrix(1,0,0,1,605,945.0000000000001) translate(9.722222222222229 31.444444444444443)"/><use xlink:href="#H" transform="matrix(1,0,0,1,605,945.0000000000001) translate(115.3395061728395 31.444444444444443)"/><use xlink:href="#I" transform="matrix(1,0,0,1,605,945.0000000000001) translate(136.32716049382717 31.444444444444443)"/><use xlink:href="#J" transform="matrix(1,0,0,1,605,945.0000000000001) translate(169.6604938271605 31.444444444444443)"/></g><path d="M1199.65 992.93l138.34 78.32M1197.68 996.4l138.33 78.33M1198.67 994.67l-2.6-1.48" stroke="#000" stroke-width="2" fill="none"/><path d="M1334.18 1071.4l-14.7-3 4.57-8.07z" stroke="#000" stroke-width="2"/><path d="M1117.42 998.74l-76 76.67M1114.58 995.93l-76 76.66M1116 997.33l2.1-2.13" stroke="#000" stroke-width="2" fill="none"/><path d="M1042.28 1071.7l6.75-13.4 6.58 6.53z" stroke="#000" stroke-width="2"/><path d="M1042 1114v98.66M1038 1114v98.66" stroke="#000" stroke-width="2" fill="none"/><path d="M1040 1209.42l-4.64-14.26h9.28z" stroke="#000" stroke-width="2"/><path d="M1020 954h393v63.33h-393z" stroke="#000" stroke-opacity="0" stroke-width="2" fill="#fff" fill-opacity="0"/><g><use xlink:href="#p" transform="matrix(1,0,0,1,1025,959.0000000000001) translate(0 17.77777777777778)"/><use xlink:href="#K" transform="matrix(1,0,0,1,1025,959.0000000000001) translate(45.67901234567901 17.77777777777778)"/><use xlink:href="#L" transform="matrix(1,0,0,1,1025,959.0000000000001) translate(66.66666666666666 17.77777777777778)"/><use xlink:href="#H" transform="matrix(1,0,0,1,1025,959.0000000000001) translate(179.62962962962962 17.77777777777778)"/><use xlink:href="#I" transform="matrix(1,0,0,1,1025,959.0000000000001) translate(200.61728395061726 17.77777777777778)"/><use xlink:href="#M" transform="matrix(1,0,0,1,1025,959.0000000000001) translate(233.9506172839506 17.77777777777778)"/></g><path d="M940 1074h260v63.33H940z" stroke="#000" stroke-opacity="0" stroke-width="2" fill="#fff" fill-opacity="0"/><g><use xlink:href="#p" transform="matrix(1,0,0,1,945,1079) translate(0 17.77777777777778)"/><use xlink:href="#q" transform="matrix(1,0,0,1,945,1079) translate(45.67901234567901 17.77777777777778)"/><use xlink:href="#r" transform="matrix(1,0,0,1,945,1079) translate(66.66666666666666 17.77777777777778)"/><use xlink:href="#s" transform="matrix(1,0,0,1,945,1079) translate(111.04938271604937 17.77777777777778)"/><use xlink:href="#t" transform="matrix(1,0,0,1,945,1079) translate(183.76543209876542 17.77777777777778)"/></g><path d="M980 1213.67h140V1277H980z" stroke="#000" stroke-opacity="0" stroke-width="2" fill="#fff" fill-opacity="0"/><g><use xlink:href="#u" transform="matrix(1,0,0,1,985,1218.6666666666665) translate(0 17.77777777777778)"/><use xlink:href="#s" transform="matrix(1,0,0,1,985,1218.6666666666665) translate(37.03703703703704 17.77777777777778)"/><use xlink:href="#v" transform="matrix(1,0,0,1,985,1218.6666666666665) translate(109.75308641975309 17.77777777777778)"/></g><path d="M1260 1074h200v64h-200z" stroke="#000" stroke-opacity="0" stroke-width="2" fill="#fff" fill-opacity="0"/><g><use xlink:href="#w" transform="matrix(1,0,0,1,1265,1079) translate(0 17.77777777777778)"/><use xlink:href="#x" transform="matrix(1,0,0,1,1265,1079) translate(115.92592592592594 17.77777777777778)"/><use xlink:href="#y" transform="matrix(1,0,0,1,1265,1079) translate(149.25925925925927 17.77777777777778)"/></g><path d="M536 1089h390.76" stroke="#666" stroke-width="2" fill="none"/><path d="M941.76 1089l-14.26 4.64v-9.28z" stroke="#666" stroke-width="2" fill="#666"/><path d="M600 1657.9V140" fill="none"/><path d="M600 1657.9v-20.25m0-20.24v-40.47m0-20.23v-40.48m0-20.24v-40.48m0-20.23v-40.48m0-20.25v-40.48m0-20.24v-40.47m0-20.24v-40.48m0-20.24v-40.47m0-20.24v-40.5m0-20.23v-40.48m0-20.24v-40.48m0-20.24v-40.48m0-20.23v-40.48m0-20.24v-40.47m0-20.24V726.9m0-20.24V666.2m0-20.24V605.5m0-20.25v-40.48m0-20.24v-40.48m0-20.23v-40.48m0-20.24v-40.48m0-20.23v-40.5m0-20.23V241.2m0-20.25v-40.47m0-20.24V140" stroke="#b2b2b2" stroke-width="2" fill="none"/><path d="M920 1649.44V140" fill="none"/><path d="M920 1649.44v-20.12m0-20.13v-40.26m0-20.13v-40.24m0-20.12v-40.25m0-20.14v-40.25m0-20.12v-40.25m0-20.13v-40.25m0-20.12v-40.26m0-20.12v-40.25m0-20.13v-40.25m0-20.13v-40.26m0-20.13v-40.24m0-20.12V904.8m0-20.14V844.4m0-20.12v-40.25m0-20.13v-40.25m0-20.12v-40.26m0-20.12V602.9m0-20.13v-40.25m0-20.13v-40.26m0-20.13v-40.24m0-20.12V361.4m0-20.14V301m0-20.12v-40.25m0-20.13v-40.25m0-20.12V140" stroke="#b2b2b2" stroke-width="2" fill="none"/><path d="M1480 1649.44V140" fill="none"/><path d="M1480 1649.44v-20.12m0-20.13v-40.26m0-20.13v-40.24m0-20.12v-40.25m0-20.14v-40.25m0-20.12v-40.25m0-20.13v-40.25m0-20.12v-40.26m0-20.12v-40.25m0-20.13v-40.25m0-20.13v-40.26m0-20.13v-40.24m0-20.12V904.8m0-20.14V844.4m0-20.12v-40.25m0-20.13v-40.25m0-20.12v-40.26m0-20.12V602.9m0-20.13v-40.25m0-20.13v-40.26m0-20.13v-40.24m0-20.12V361.4m0-20.14V301m0-20.12v-40.25m0-20.13v-40.25m0-20.12V140" stroke="#b2b2b2" stroke-width="2" fill="none"/><path d="M838 608h163.76" stroke="#666" stroke-width="2" fill="none"/><path d="M1016.76 608l-14.26 4.64v-9.28z" stroke="#666" stroke-width="2" fill="#666"/><path d="M838 969h163.76" stroke="#666" stroke-width="2" fill="none"/><path d="M1016.76 969l-14.26 4.64v-9.28z" stroke="#666" stroke-width="2" fill="#666"/><defs><path d="M33 0v-248h34V0H33" id="N"/><path d="M100-194c62-1 85 37 85 99 1 63-27 99-86 99S16-35 15-95c0-66 28-99 85-99zM99-20c44 1 53-31 53-75 0-43-8-75-51-75s-53 32-53 75 10 74 51 75" id="O"/><path d="M84 4C-5 8 30-112 23-190h32v120c0 31 7 50 39 49 72-2 45-101 50-169h31l1 190h-30c-1-10 1-25-2-33-11 22-28 36-60 37" id="P"/><g id="a"><use transform="matrix(0.06172839506172839,0,0,0.06172839506172839,0,0)" xlink:href="#N"/><use transform="matrix(0.06172839506172839,0,0,0.06172839506172839,6.172839506172839,0)" xlink:href="#O"/><use transform="matrix(0.06172839506172839,0,0,0.06172839506172839,18.51851851851852,0)" xlink:href="#P"/></g><path d="M194-70c0 46-34 64-81 66v29H91V-4C42-5 12-27 4-67l30-6c5 28 25 41 57 43v-87c-38-9-76-20-76-67 1-42 33-58 76-59v-23h22v23c45 0 67 20 76 56l-31 6c-5-23-18-35-45-37v78c41 10 81 20 81 70zm-81 41c51 7 71-66 19-77-6-2-12-4-19-6v83zM91-219c-47-6-63 57-18 69 6 2 12 3 18 5v-74" id="Q"/><path d="M182-130c37 4 62 22 62 59C244 23 116-4 24 0v-248c84 5 203-23 205 63 0 31-19 50-47 55zM76-148c40-3 101 13 101-30 0-44-60-28-101-31v61zm0 110c48-3 116 14 116-37 0-48-69-32-116-35v72" id="R"/><path d="M133-34C117-15 103 5 69 4 32 3 11-16 11-54c-1-60 55-63 116-61 1-26-3-47-28-47-18 1-26 9-28 27l-52-2c7-38 36-58 82-57s74 22 75 68l1 82c-1 14 12 18 25 15v27c-30 8-71 5-69-32zm-48 3c29 0 43-24 42-57-32 0-66-3-65 30 0 17 8 27 23 27" id="S"/><path d="M135-194c87-1 58 113 63 194h-50c-7-57 23-157-34-157-59 0-34 97-39 157H25l-1-190h47c2 12-1 28 3 38 12-26 28-41 61-42" id="T"/><path d="M147 0L96-86 75-71V0H25v-261h50v150l67-79h53l-66 74L201 0h-54" id="U"/><g id="b"><use transform="matrix(0.06172839506172839,0,0,0.06172839506172839,0,0)" xlink:href="#Q"/><use transform="matrix(0.06172839506172839,0,0,0.06172839506172839,12.345679012345679,0)" xlink:href="#R"/><use transform="matrix(0.06172839506172839,0,0,0.06172839506172839,28.333333333333332,0)" xlink:href="#S"/><use transform="matrix(0.06172839506172839,0,0,0.06172839506172839,40.67901234567901,0)" xlink:href="#T"/><use transform="matrix(0.06172839506172839,0,0,0.06172839506172839,54.19753086419753,0)" xlink:href="#U"/></g><path d="M205 0l-28-72H64L36 0H1l101-248h38L239 0h-34zm-38-99l-47-123c-12 45-31 82-46 123h93" id="V"/><g id="c"><use transform="matrix(0.06172839506172839,0,0,0.06172839506172839,0,0)" xlink:href="#V"/><path d="M-1.1 1.54h17.03v1.63H-1.1z"/></g><path d="M160-131c35 5 61 23 61 61C221 17 115-2 30 0v-248c76 3 177-17 177 60 0 33-19 50-47 57zm-97-11c50-1 110 9 110-42 0-47-63-36-110-37v79zm0 115c55-2 124 14 124-45 0-56-70-42-124-44v89" id="W"/><path d="M141-36C126-15 110 5 73 4 37 3 15-17 15-53c-1-64 63-63 125-63 3-35-9-54-41-54-24 1-41 7-42 31l-33-3c5-37 33-52 76-52 45 0 72 20 72 64v82c-1 20 7 32 28 27v20c-31 9-61-2-59-35zM48-53c0 20 12 33 32 33 41-3 63-29 60-74-43 2-92-5-92 41" id="X"/><path d="M117-194c89-4 53 116 60 194h-32v-121c0-31-8-49-39-48C34-167 62-67 57 0H25l-1-190h30c1 10-1 24 2 32 11-22 29-35 61-36" id="Y"/><path d="M143 0L79-87 56-68V0H24v-261h32v163l83-92h37l-77 82L181 0h-38" id="Z"/><g id="d"><use transform="matrix(0.06172839506172839,0,0,0.06172839506172839,0,0)" xlink:href="#W"/><use transform="matrix(0.06172839506172839,0,0,0.06172839506172839,14.814814814814813,0)" xlink:href="#X"/><use transform="matrix(0.06172839506172839,0,0,0.06172839506172839,27.160493827160494,0)" xlink:href="#Y"/><use transform="matrix(0.06172839506172839,0,0,0.06172839506172839,39.50617283950617,0)" xlink:href="#Z"/></g><path d="M114-163C36-179 61-72 57 0H25l-1-190h30c1 12-1 29 2 39 6-27 23-49 58-41v29" id="aa"/><path d="M100-194c63 0 86 42 84 106H49c0 40 14 67 53 68 26 1 43-12 49-29l28 8c-11 28-37 45-77 45C44 4 14-33 15-96c1-61 26-98 85-98zm52 81c6-60-76-77-97-28-3 7-6 17-6 28h103" id="ab"/><path d="M145-31C134-9 116 4 85 4 32 4 16-35 15-94c0-59 17-99 70-100 32-1 48 14 60 33 0-11-1-24 2-32h30l-1 268h-32zM93-21c41 0 51-33 51-76s-8-73-50-73c-40 0-46 35-46 75s5 74 45 74" id="ac"/><path d="M135-143c-3-34-86-38-87 0 15 53 115 12 119 90S17 21 10-45l28-5c4 36 97 45 98 0-10-56-113-15-118-90-4-57 82-63 122-42 12 7 21 19 24 35" id="ad"/><path d="M59-47c-2 24 18 29 38 22v24C64 9 27 4 27-40v-127H5v-23h24l9-43h21v43h35v23H59v120" id="ae"/><path d="M85-194c31 0 48 13 60 33l-1-100h32l1 261h-30c-2-10 0-23-3-31C134-8 116 4 85 4 32 4 16-35 15-94c0-66 23-100 70-100zm9 24c-40 0-46 34-46 75 0 40 6 74 45 74 42 0 51-32 51-76 0-42-9-74-50-73" id="af"/><g id="e"><use transform="matrix(0.06172839506172839,0,0,0.06172839506172839,0,0)" xlink:href="#aa"/><use transform="matrix(0.06172839506172839,0,0,0.06172839506172839,7.345679012345679,0)" xlink:href="#ab"/><use transform="matrix(0.06172839506172839,0,0,0.06172839506172839,19.691358024691358,0)" xlink:href="#ac"/><use transform="matrix(0.06172839506172839,0,0,0.06172839506172839,32.03703703703704,0)" xlink:href="#P"/><use transform="matrix(0.06172839506172839,0,0,0.06172839506172839,44.382716049382715,0)" xlink:href="#ab"/><use transform="matrix(0.06172839506172839,0,0,0.06172839506172839,56.72839506172839,0)" xlink:href="#ad"/><use transform="matrix(0.06172839506172839,0,0,0.06172839506172839,67.8395061728395,0)" xlink:href="#ae"/><use transform="matrix(0.06172839506172839,0,0,0.06172839506172839,74.01234567901234,0)" xlink:href="#ab"/><use transform="matrix(0.06172839506172839,0,0,0.06172839506172839,86.35802469135803,0)" xlink:href="#af"/></g><path d="M30-248c87 1 191-15 191 75 0 78-77 80-158 76V0H30v-248zm33 125c57 0 124 11 124-50 0-59-68-47-124-48v98" id="ag"/><use transform="matrix(0.06172839506172839,0,0,0.06172839506172839,0,0)" xlink:href="#ag" id="f"/><path d="M24-231v-30h32v30H24zM24 0v-190h32V0H24" id="ah"/><path d="M140-251c81 0 123 46 123 126C263-46 219 4 140 4 59 4 17-45 17-125s42-126 123-126zm0 227c63 0 89-41 89-101s-29-99-89-99c-61 0-89 39-89 99S79-25 140-24" id="ai"/><path d="M101-234c-31-9-42 10-38 44h38v23H63V0H32v-167H5v-23h27c-7-52 17-82 69-68v24" id="aj"/><g id="g"><use transform="matrix(0.06172839506172839,0,0,0.06172839506172839,0,0)" xlink:href="#ag"/><use transform="matrix(0.06172839506172839,0,0,0.06172839506172839,14.814814814814813,0)" xlink:href="#X"/><use transform="matrix(0.06172839506172839,0,0,0.06172839506172839,27.160493827160494,0)" xlink:href="#ah"/><use transform="matrix(0.06172839506172839,0,0,0.06172839506172839,32.03703703703704,0)" xlink:href="#Y"/><use transform="matrix(0.06172839506172839,0,0,0.06172839506172839,44.382716049382715,0)" xlink:href="#ae"/><use transform="matrix(0.06172839506172839,0,0,0.06172839506172839,50.55555555555556,0)" xlink:href="#ai"/><use transform="matrix(0.06172839506172839,0,0,0.06172839506172839,67.8395061728395,0)" xlink:href="#aj"/><use transform="matrix(0.06172839506172839,0,0,0.06172839506172839,73.58024691358024,0)" xlink:href="#aj"/><use transform="matrix(0.06172839506172839,0,0,0.06172839506172839,79.75308641975307,0)" xlink:href="#ab"/><use transform="matrix(0.06172839506172839,0,0,0.06172839506172839,92.09876543209876,0)" xlink:href="#aa"/></g><g id="h"><use transform="matrix(0.06172839506172839,0,0,0.06172839506172839,0,0)" xlink:href="#V"/><path d="M-1.1 1.54h17.03v1.63H-1.1z"/></g><path d="M24-248c93 1 206-16 204 79-1 75-69 88-152 82V0H24v-248zm52 121c47 0 100 7 100-41 0-47-54-39-100-39v80" id="ak"/><g id="i"><use transform="matrix(0.06172839506172839,0,0,0.06172839506172839,0,0)" xlink:href="#Q"/><use transform="matrix(0.06172839506172839,0,0,0.06172839506172839,12.345679012345679,0)" xlink:href="#ak"/></g><g id="j"><use transform="matrix(0.06172839506172839,0,0,0.06172839506172839,0,0)" xlink:href="#W"/><use transform="matrix(0.06172839506172839,0,0,0.06172839506172839,14.814814814814813,0)" xlink:href="#X"/><use transform="matrix(0.06172839506172839,0,0,0.06172839506172839,27.160493827160494,0)" xlink:href="#Y"/><use transform="matrix(0.06172839506172839,0,0,0.06172839506172839,39.50617283950617,0)" xlink:href="#Z"/></g><use transform="matrix(0.06172839506172839,0,0,0.06172839506172839,0,0)" xlink:href="#V" id="k"/><path d="M24 0v-248h195v40H76v63h132v40H76v65h150V0H24" id="al"/><path d="M144 0l-44-69L55 0H2l70-98-66-92h53l41 62 40-62h54l-67 91 71 99h-54" id="am"/><path d="M185-48c-13 30-37 53-82 52C43 2 14-33 14-96s30-98 90-98c62 0 83 45 84 108H66c0 31 8 55 39 56 18 0 30-7 34-22zm-45-69c5-46-57-63-70-21-2 6-4 13-4 21h74" id="an"/><g id="l"><use transform="matrix(0.06172839506172839,0,0,0.06172839506172839,0,0)" xlink:href="#al"/><use transform="matrix(0.06172839506172839,0,0,0.06172839506172839,14.814814814814813,0)" xlink:href="#am"/><use transform="matrix(0.06172839506172839,0,0,0.06172839506172839,27.160493827160494,0)" xlink:href="#an"/></g><use transform="matrix(0.06172839506172839,0,0,0.06172839506172839,0,0)" xlink:href="#V" id="m"/><path d="M87 75C49 33 22-17 22-94c0-76 28-126 65-167h31c-38 41-64 92-64 168S80 34 118 75H87" id="ao"/><g id="n"><use transform="matrix(0.06172839506172839,0,0,0.06172839506172839,0,0)" xlink:href="#ao"/><use transform="matrix(0.06172839506172839,0,0,0.06172839506172839,7.345679012345679,0)" xlink:href="#ag"/><use transform="matrix(0.06172839506172839,0,0,0.06172839506172839,22.160493827160494,0)" xlink:href="#X"/><use transform="matrix(0.06172839506172839,0,0,0.06172839506172839,34.50617283950617,0)" xlink:href="#ah"/><use transform="matrix(0.06172839506172839,0,0,0.06172839506172839,39.382716049382715,0)" xlink:href="#Y"/><use transform="matrix(0.06172839506172839,0,0,0.06172839506172839,51.72839506172839,0)" xlink:href="#ae"/><use transform="matrix(0.06172839506172839,0,0,0.06172839506172839,57.901234567901234,0)" xlink:href="#ai"/><use transform="matrix(0.06172839506172839,0,0,0.06172839506172839,75.18518518518519,0)" xlink:href="#aj"/><use transform="matrix(0.06172839506172839,0,0,0.06172839506172839,80.92592592592592,0)" xlink:href="#aj"/><use transform="matrix(0.06172839506172839,0,0,0.06172839506172839,87.09876543209876,0)" xlink:href="#ab"/><use transform="matrix(0.06172839506172839,0,0,0.06172839506172839,99.44444444444444,0)" xlink:href="#aa"/></g><path d="M33-261c38 41 65 92 65 168S71 34 33 75H2C39 34 66-17 66-93S39-220 2-261h31" id="ap"/><g id="o"><use transform="matrix(0.06172839506172839,0,0,0.06172839506172839,0,0)" xlink:href="#W"/><use transform="matrix(0.06172839506172839,0,0,0.06172839506172839,14.814814814814813,0)" xlink:href="#X"/><use transform="matrix(0.06172839506172839,0,0,0.06172839506172839,27.160493827160494,0)" xlink:href="#Y"/><use transform="matrix(0.06172839506172839,0,0,0.06172839506172839,39.50617283950617,0)" xlink:href="#Z"/><use transform="matrix(0.06172839506172839,0,0,0.06172839506172839,50.61728395061728,0)" xlink:href="#ap"/></g><g id="p"><use transform="matrix(0.06172839506172839,0,0,0.06172839506172839,0,0)" xlink:href="#al"/><use transform="matrix(0.06172839506172839,0,0,0.06172839506172839,14.814814814814813,0)" xlink:href="#am"/><use transform="matrix(0.06172839506172839,0,0,0.06172839506172839,27.160493827160494,0)" xlink:href="#an"/></g><use transform="matrix(0.06172839506172839,0,0,0.06172839506172839,0,0)" xlink:href="#V" id="q"/><g id="r"><use transform="matrix(0.06172839506172839,0,0,0.06172839506172839,0,0)" xlink:href="#ao"/><use transform="matrix(0.06172839506172839,0,0,0.06172839506172839,7.345679012345679,0)" xlink:href="#N"/><use transform="matrix(0.06172839506172839,0,0,0.06172839506172839,13.518518518518519,0)" xlink:href="#O"/><use transform="matrix(0.06172839506172839,0,0,0.06172839506172839,25.864197530864196,0)" xlink:href="#P"/></g><g id="s"><use transform="matrix(0.06172839506172839,0,0,0.06172839506172839,0,0)" xlink:href="#Q"/><use transform="matrix(0.06172839506172839,0,0,0.06172839506172839,12.345679012345679,0)" xlink:href="#R"/><use transform="matrix(0.06172839506172839,0,0,0.06172839506172839,28.333333333333332,0)" xlink:href="#S"/><use transform="matrix(0.06172839506172839,0,0,0.06172839506172839,40.67901234567901,0)" xlink:href="#T"/><use transform="matrix(0.06172839506172839,0,0,0.06172839506172839,54.19753086419753,0)" xlink:href="#U"/></g><g id="t"><use transform="matrix(0.06172839506172839,0,0,0.06172839506172839,0,0)" xlink:href="#V"/><path d="M-1.1 1.54h17.03v1.63H-1.1z"/><use transform="matrix(0.06172839506172839,0,0,0.06172839506172839,14.814814814814813,0)" xlink:href="#ap"/></g><g id="u"><use transform="matrix(0.06172839506172839,0,0,0.06172839506172839,0,0)" xlink:href="#N"/><use transform="matrix(0.06172839506172839,0,0,0.06172839506172839,6.172839506172839,0)" xlink:href="#O"/><use transform="matrix(0.06172839506172839,0,0,0.06172839506172839,18.51851851851852,0)" xlink:href="#P"/></g><g id="v"><use transform="matrix(0.06172839506172839,0,0,0.06172839506172839,0,0)" xlink:href="#ag"/><path d="M-1.1 1.54h17.03v1.63H-1.1z"/></g><path d="M177-190C167-65 218 103 67 71c-23-6-38-20-44-43l32-5c15 47 100 32 89-28v-30C133-14 115 1 83 1 29 1 15-40 15-95c0-56 16-97 71-98 29-1 48 16 59 35 1-10 0-23 2-32h30zM94-22c36 0 50-32 50-73 0-42-14-75-50-75-39 0-46 34-46 75s6 73 46 73" id="aq"/><g id="w"><use transform="matrix(0.06172839506172839,0,0,0.06172839506172839,0,0)" xlink:href="#ag"/><use transform="matrix(0.06172839506172839,0,0,0.06172839506172839,14.814814814814813,0)" xlink:href="#X"/><use transform="matrix(0.06172839506172839,0,0,0.06172839506172839,27.160493827160494,0)" xlink:href="#ah"/><use transform="matrix(0.06172839506172839,0,0,0.06172839506172839,32.03703703703704,0)" xlink:href="#Y"/><use transform="matrix(0.06172839506172839,0,0,0.06172839506172839,44.382716049382715,0)" xlink:href="#ae"/><use transform="matrix(0.06172839506172839,0,0,0.06172839506172839,50.55555555555556,0)" xlink:href="#V"/><use transform="matrix(0.06172839506172839,0,0,0.06172839506172839,65.37037037037037,0)" xlink:href="#aq"/><use transform="matrix(0.06172839506172839,0,0,0.06172839506172839,77.71604938271605,0)" xlink:href="#aa"/><use transform="matrix(0.06172839506172839,0,0,0.06172839506172839,85.06172839506173,0)" xlink:href="#ab"/><use transform="matrix(0.06172839506172839,0,0,0.06172839506172839,97.40740740740742,0)" xlink:href="#ab"/></g><g id="x"><use transform="matrix(0.06172839506172839,0,0,0.06172839506172839,0,0)" xlink:href="#Q"/><use transform="matrix(0.06172839506172839,0,0,0.06172839506172839,12.345679012345679,0)" xlink:href="#ak"/></g><path d="M199 0l-22-63H83L61 0H9l90-248h61L250 0h-51zm-33-102l-36-108c-10 38-24 72-36 108h72" id="ar"/><g id="y"><use transform="matrix(0.06172839506172839,0,0,0.06172839506172839,0,0)" xlink:href="#Q"/><use transform="matrix(0.06172839506172839,0,0,0.06172839506172839,12.345679012345679,0)" xlink:href="#ar"/></g><path fill="#0c7cba" d="M178-136c88 48 22 151-73 140C49-3 12-15 4-64l51-9c1 50 111 53 115 3-16-63-132-20-133-112 0-93 190-91 199-10l-50 12c-4-41-93-50-97-4 7 38 59 32 89 48" id="as"/><path fill="#0c7cba" d="M150-105c8-23 8-54-22-51-68 7-54 98-72 156H6l50-261h50L85-158c15-20 33-36 66-36 95 0 34 128 28 194h-49" id="at"/><path fill="#0c7cba" d="M166-52c-4 17 5 29 24 23l-3 27c-30 11-74 1-67-34C105-15 91 4 56 4 23 4 3-15 2-49c0-64 63-67 128-67 10-22 3-53-29-45-13 3-22 10-25 24l-46-5c5-64 156-77 153 0-1 33-11 60-17 90zM97-88c-44-9-64 57-19 57 31 0 42-28 47-57H97" id="au"/><path fill="#0c7cba" d="M84-151c13-25 34-51 72-40l-8 41C67-170 71-64 56 0H6l36-190h47" id="av"/><path fill="#0c7cba" d="M114-194c63-2 87 48 72 110H63c-3 28 1 55 31 54 21-1 32-13 37-29l44 13C160-14 137 4 91 4 41 4 11-22 11-73c0-71 33-119 103-121zm30 77c14-47-50-61-67-22-3 6-6 13-8 22h75" id="aw"/><path fill="#0c7cba" d="M132-28C118-9 101 4 69 4 30 4 10-23 10-62c0-70 24-129 92-132 31-1 47 14 56 35l19-102h49L179 0h-49zM62-69c0 22 7 39 29 39 45-2 54-45 57-90 2-27-10-40-33-40-44 0-53 48-53 91" id="ax"/><g id="z"><use transform="matrix(0.06172839506172839,0,0,0.06172839506172839,0,0)" xlink:href="#as"/><use transform="matrix(0.06172839506172839,0,0,0.06172839506172839,14.814814814814813,0)" xlink:href="#at"/><use transform="matrix(0.06172839506172839,0,0,0.06172839506172839,28.33333333333333,0)" xlink:href="#au"/><use transform="matrix(0.06172839506172839,0,0,0.06172839506172839,40.679012345679006,0)" xlink:href="#av"/><use transform="matrix(0.06172839506172839,0,0,0.06172839506172839,49.32098765432098,0)" xlink:href="#aw"/><use transform="matrix(0.06172839506172839,0,0,0.06172839506172839,61.66666666666666,0)" xlink:href="#ax"/></g><path fill="#0c7cba" d="M6 0l51-261h49L55 0H6" id="ay"/><path fill="#0c7cba" d="M45-171c29-32 103-29 114 14 2-11 5-23 8-33h47L176-2c-3 70-92 96-155 64C9 56 1 42-1 25l50-5c2 28 48 27 63 11 13-13 20-45 21-66-13 20-30 35-62 36-87 3-60-134-26-172zM94-35c41-3 55-43 55-86 0-24-12-39-35-39-43 0-51 48-51 90 0 22 9 37 31 35" id="az"/><g id="A"><use transform="matrix(0.06172839506172839,0,0,0.06172839506172839,0,0)" xlink:href="#ay"/><use transform="matrix(0.06172839506172839,0,0,0.06172839506172839,6.172839506172839,0)" xlink:href="#aw"/><use transform="matrix(0.06172839506172839,0,0,0.06172839506172839,18.51851851851852,0)" xlink:href="#ax"/><use transform="matrix(0.06172839506172839,0,0,0.06172839506172839,32.03703703703704,0)" xlink:href="#az"/><use transform="matrix(0.06172839506172839,0,0,0.06172839506172839,45.55555555555556,0)" xlink:href="#aw"/><use transform="matrix(0.06172839506172839,0,0,0.06172839506172839,57.901234567901234,0)" xlink:href="#av"/></g><g id="B"><use transform="matrix(0.06172839506172839,0,0,0.06172839506172839,0,0)" xlink:href="#V"/><path d="M-1.1 1.54h17.03v1.63H-1.1z"/></g><path fill="#0c7cba" d="M241-173c-1 82-78 91-166 86L58 0H6l48-248c87 0 188-12 187 75zm-53 2c0-43-48-36-90-36l-15 80c50 0 105 7 105-44" id="aA"/><path fill="#0c7cba" d="M73-158H35l13-90h47" id="aB"/><path fill="#0c7cba" d="M144-137c-1-29-70-35-71-2 16 41 103 10 103 80C176 9 79 16 32-9 18-17 9-31 4-48l44-6c3 32 80 36 82 1-15-42-103-11-103-82 0-77 157-79 161-8" id="aC"/><g id="C"><use transform="matrix(0.06172839506172839,0,0,0.06172839506172839,0,0)" xlink:href="#aA"/><use transform="matrix(0.06172839506172839,0,0,0.06172839506172839,14.814814814814813,0)" xlink:href="#aB"/><use transform="matrix(0.06172839506172839,0,0,0.06172839506172839,20.061728395061728,0)" xlink:href="#aC"/></g><path fill="#0c7cba" d="M156-122c2-23-7-37-28-37-47 0-58 44-58 89 0 24 12 40 36 40 43 0 47-49 50-92zM-8 75l50-265h48c0 10-3 24-3 30 22-50 127-45 121 29-6 73-21 135-92 135-29 0-46-14-55-35L41 75H-8" id="aD"/><path fill="#0c7cba" d="M124-194c51 0 84 22 84 74C207-44 167 4 94 4 43 4 11-23 11-74c0-74 41-120 113-120zM99-30c46 0 58-42 58-86 0-27-11-44-37-44-44 0-55 40-57 84-1 27 10 45 36 46" id="aE"/><path fill="#0c7cba" d="M50-224l7-37h49l-7 37H50zm1 246C45 64 7 85-39 71l7-33c23 5 33-8 36-27l39-201h49" id="aF"/><path fill="#0c7cba" d="M67-101c-8 29-7 73 27 71 23-2 32-16 39-37l48 9C170-19 141 4 91 4 36 4 7-28 12-86c6-75 61-124 140-103 26 7 40 29 43 59l-50 4c-1-20-9-34-29-34-35 0-41 29-49 59" id="aG"/><path fill="#0c7cba" d="M72-63c-8 23 5 39 32 30L98-1C54 14 12-6 23-64l18-93H15l7-33h28l24-45h31l-8 45h35l-6 33H90" id="aH"/><path fill="#0c7cba" d="M50-224l7-37h49l-7 37H50zM6 0l37-190h49L55 0H6" id="aI"/><path fill="#0c7cba" d="M151-194c95 0 34 128 28 194h-49l25-134c0-29-45-25-59-9C67-111 69-48 56 0H6l36-190h47l-4 32c15-20 33-36 66-36" id="aJ"/><g id="D"><use transform="matrix(0.06172839506172839,0,0,0.06172839506172839,0,0)" xlink:href="#aD"/><use transform="matrix(0.06172839506172839,0,0,0.06172839506172839,13.518518518518517,0)" xlink:href="#av"/><use transform="matrix(0.06172839506172839,0,0,0.06172839506172839,22.160493827160494,0)" xlink:href="#aE"/><use transform="matrix(0.06172839506172839,0,0,0.06172839506172839,35.67901234567901,0)" xlink:href="#aF"/><use transform="matrix(0.06172839506172839,0,0,0.06172839506172839,41.851851851851855,0)" xlink:href="#aw"/><use transform="matrix(0.06172839506172839,0,0,0.06172839506172839,54.19753086419753,0)" xlink:href="#aG"/><use transform="matrix(0.06172839506172839,0,0,0.06172839506172839,66.54320987654322,0)" xlink:href="#aH"/><use transform="matrix(0.06172839506172839,0,0,0.06172839506172839,73.8888888888889,0)" xlink:href="#aI"/><use transform="matrix(0.06172839506172839,0,0,0.06172839506172839,80.06172839506173,0)" xlink:href="#aE"/><use transform="matrix(0.06172839506172839,0,0,0.06172839506172839,93.58024691358025,0)" xlink:href="#aJ"/></g><path fill="#0c7cba" d="M183 0l-10-63H79L44 0H-7l138-248h61L234 0h-51zm-14-102l-15-108c-16 38-36 73-55 108h70" id="aK"/><g id="E"><use transform="matrix(0.06172839506172839,0,0,0.06172839506172839,0,0)" xlink:href="#aK"/><use transform="matrix(0.06172839506172839,0,0,0.06172839506172839,15.987654320987653,0)" xlink:href="#aB"/><use transform="matrix(0.06172839506172839,0,0,0.06172839506172839,21.234567901234566,0)" xlink:href="#aC"/></g><path fill="#0c7cba" d="M240-76C239 26 104-5 6 0l48-248c79 4 193-21 193 58 0 38-25 53-57 60 29 5 49 21 50 54zm-45-106c0-40-58-24-96-27l-12 61c45-3 108 12 108-34zm-7 105c0-44-65-31-109-33L66-38c51-3 122 14 122-39" id="aL"/><path fill="#0c7cba" d="M128 0L95-87 70-74 55 0H6l51-261h49L77-111l82-79h56l-83 74L180 0h-52" id="aM"/><g id="F"><use transform="matrix(0.06172839506172839,0,0,0.06172839506172839,0,0)" xlink:href="#aL"/><use transform="matrix(0.06172839506172839,0,0,0.06172839506172839,15.987654320987653,0)" xlink:href="#au"/><use transform="matrix(0.06172839506172839,0,0,0.06172839506172839,28.333333333333332,0)" xlink:href="#aJ"/><use transform="matrix(0.06172839506172839,0,0,0.06172839506172839,41.85185185185185,0)" xlink:href="#aM"/><use transform="matrix(0.06172839506172839,0,0,0.06172839506172839,54.197530864197525,0)" xlink:href="#aB"/><use transform="matrix(0.06172839506172839,0,0,0.06172839506172839,59.444444444444436,0)" xlink:href="#aC"/></g><g id="G"><use transform="matrix(0.06172839506172839,0,0,0.06172839506172839,0,0)" xlink:href="#ag"/><use transform="matrix(0.06172839506172839,0,0,0.06172839506172839,14.814814814814813,0)" xlink:href="#X"/><use transform="matrix(0.06172839506172839,0,0,0.06172839506172839,27.160493827160494,0)" xlink:href="#ah"/><use transform="matrix(0.06172839506172839,0,0,0.06172839506172839,32.03703703703704,0)" xlink:href="#Y"/><use transform="matrix(0.06172839506172839,0,0,0.06172839506172839,44.382716049382715,0)" xlink:href="#ae"/><use transform="matrix(0.06172839506172839,0,0,0.06172839506172839,50.55555555555556,0)" xlink:href="#ai"/><use transform="matrix(0.06172839506172839,0,0,0.06172839506172839,67.8395061728395,0)" xlink:href="#aj"/><use transform="matrix(0.06172839506172839,0,0,0.06172839506172839,73.58024691358024,0)" xlink:href="#aj"/><use transform="matrix(0.06172839506172839,0,0,0.06172839506172839,79.75308641975307,0)" xlink:href="#ab"/><use transform="matrix(0.06172839506172839,0,0,0.06172839506172839,92.09876543209876,0)" xlink:href="#aa"/></g><g id="H"><use transform="matrix(0.06172839506172839,0,0,0.06172839506172839,0,0)" xlink:href="#V"/><path d="M-1.1 1.54h17.03v1.63H-1.1z"/></g><g id="I"><use transform="matrix(0.06172839506172839,0,0,0.06172839506172839,0,0)" xlink:href="#Q"/><use transform="matrix(0.06172839506172839,0,0,0.06172839506172839,12.345679012345679,0)" xlink:href="#ak"/></g><g id="J"><use transform="matrix(0.06172839506172839,0,0,0.06172839506172839,0,0)" xlink:href="#W"/><use transform="matrix(0.06172839506172839,0,0,0.06172839506172839,14.814814814814813,0)" xlink:href="#X"/><use transform="matrix(0.06172839506172839,0,0,0.06172839506172839,27.160493827160494,0)" xlink:href="#Y"/><use transform="matrix(0.06172839506172839,0,0,0.06172839506172839,39.50617283950617,0)" xlink:href="#Z"/></g><use transform="matrix(0.06172839506172839,0,0,0.06172839506172839,0,0)" xlink:href="#V" id="K"/><g id="L"><use transform="matrix(0.06172839506172839,0,0,0.06172839506172839,0,0)" xlink:href="#ao"/><use transform="matrix(0.06172839506172839,0,0,0.06172839506172839,7.345679012345679,0)" xlink:href="#ag"/><use transform="matrix(0.06172839506172839,0,0,0.06172839506172839,22.160493827160494,0)" xlink:href="#X"/><use transform="matrix(0.06172839506172839,0,0,0.06172839506172839,34.50617283950617,0)" xlink:href="#ah"/><use transform="matrix(0.06172839506172839,0,0,0.06172839506172839,39.382716049382715,0)" xlink:href="#Y"/><use transform="matrix(0.06172839506172839,0,0,0.06172839506172839,51.72839506172839,0)" xlink:href="#ae"/><use transform="matrix(0.06172839506172839,0,0,0.06172839506172839,57.901234567901234,0)" xlink:href="#ai"/><use transform="matrix(0.06172839506172839,0,0,0.06172839506172839,75.18518518518519,0)" xlink:href="#aj"/><use transform="matrix(0.06172839506172839,0,0,0.06172839506172839,80.92592592592592,0)" xlink:href="#aj"/><use transform="matrix(0.06172839506172839,0,0,0.06172839506172839,87.09876543209876,0)" xlink:href="#ab"/><use transform="matrix(0.06172839506172839,0,0,0.06172839506172839,99.44444444444444,0)" xlink:href="#aa"/></g><g id="M"><use transform="matrix(0.06172839506172839,0,0,0.06172839506172839,0,0)" xlink:href="#W"/><use transform="matrix(0.06172839506172839,0,0,0.06172839506172839,14.814814814814813,0)" xlink:href="#X"/><use transform="matrix(0.06172839506172839,0,0,0.06172839506172839,27.160493827160494,0)" xlink:href="#Y"/><use transform="matrix(0.06172839506172839,0,0,0.06172839506172839,39.50617283950617,0)" xlink:href="#Z"/><use transform="matrix(0.06172839506172839,0,0,0.06172839506172839,50.61728395061728,0)" xlink:href="#ap"/></g></defs></g></svg>