<svg xmlns="http://www.w3.org/2000/svg" xmlns:xlink="http://www.w3.org/1999/xlink" xmlns:lucid="lucid" width="1240" height="440"><g transform="translate(-380 -100)" lucid:page-tab-id="0_0"><path d="M1380 120h220v241h-220zM1380 460h220v60h-220zM940 120h420v241H940z" stroke="#000" stroke-opacity="0" stroke-width="2" fill="#ffdba9"/><path d="M400 120h500v400H400z" stroke="#000" stroke-opacity="0" stroke-width="2" fill="#e5e5e5"/><path d="M680.06 219.23l81.34 79.34M677.27 222.1l81.33 79.33M678.67 220.67l-2.15-2.1" stroke="#000" stroke-width="2" fill="none"/><path d="M757.68 297.74l-13.45-6.64 6.48-6.64z" stroke="#000" stroke-width="2"/><path d="M597.62 224.5l-56 76.68M594.38 222.15l-56 76.67M596 223.33l1.77-2.42" stroke="#000" stroke-width="2" fill="none"/><path d="M541.9 297.4l4.68-14.27 7.5 5.47z" stroke="#000" stroke-width="2"/><path d="M542 340v98.66M538 340v98.66" stroke="#000" stroke-width="2" fill="none"/><path d="M540 435.42l-4.64-14.26h9.28z" stroke="#000" stroke-width="2"/><path d="M500 180h393v63.33H500z" stroke="#000" stroke-opacity="0" stroke-width="2" fill="#fff" fill-opacity="0"/><use xlink:href="#a" transform="matrix(1,0,0,1,505,185) translate(0 17.77777777777778)"/><use xlink:href="#b" transform="matrix(1,0,0,1,505,185) translate(45.67901234567901 17.77777777777778)"/><use xlink:href="#c" transform="matrix(1,0,0,1,505,185) translate(66.66666666666666 17.77777777777778)"/><use xlink:href="#d" transform="matrix(1,0,0,1,505,185) translate(179.62962962962962 17.77777777777778)"/><use xlink:href="#e" transform="matrix(1,0,0,1,505,185) translate(199.3827160493827 17.77777777777778)"/><use xlink:href="#f" transform="matrix(1,0,0,1,505,185) translate(219.93827160493825 17.77777777777778)"/><path d="M440 300h260v63.33H440z" stroke="#000" stroke-opacity="0" stroke-width="2" fill="#fff" fill-opacity="0"/><use xlink:href="#g" transform="matrix(1,0,0,1,445,304.99999999999994) translate(0 17.77777777777778)"/><use xlink:href="#h" transform="matrix(1,0,0,1,445,304.99999999999994) translate(45.67901234567901 17.77777777777778)"/><use xlink:href="#i" transform="matrix(1,0,0,1,445,304.99999999999994) translate(66.66666666666666 17.77777777777778)"/><use xlink:href="#j" transform="matrix(1,0,0,1,445,304.99999999999994) translate(111.04938271604937 17.77777777777778)"/><use xlink:href="#k" transform="matrix(1,0,0,1,445,304.99999999999994) translate(167.8395061728395 17.77777777777778)"/><path d="M480 439.67h120V503H480z" stroke="#000" stroke-opacity="0" stroke-width="2" fill="#fff" fill-opacity="0"/><use xlink:href="#l" transform="matrix(1,0,0,1,485,444.6666666666667) translate(0 17.77777777777778)"/><use xlink:href="#j" transform="matrix(1,0,0,1,485,444.6666666666667) translate(37.03703703703704 17.77777777777778)"/><use xlink:href="#m" transform="matrix(1,0,0,1,485,444.6666666666667) translate(93.82716049382717 17.77777777777778)"/><path d="M1062 200v98.66M1058 200v98.66" stroke="#000" stroke-width="2" fill="none"/><path d="M1060 295.42l-4.64-14.26h9.28z" stroke="#000" stroke-width="2"/><path d="M960 160h260v63.33H960z" stroke="#000" stroke-opacity="0" stroke-width="2" fill="#fff" fill-opacity="0"/><use xlink:href="#g" transform="matrix(1,0,0,1,965,165.00000000000006) translate(0 17.77777777777778)"/><use xlink:href="#h" transform="matrix(1,0,0,1,965,165.00000000000006) translate(45.67901234567901 17.77777777777778)"/><use xlink:href="#i" transform="matrix(1,0,0,1,965,165.00000000000006) translate(66.66666666666666 17.77777777777778)"/><use xlink:href="#j" transform="matrix(1,0,0,1,965,165.00000000000006) translate(111.04938271604937 17.77777777777778)"/><use xlink:href="#k" transform="matrix(1,0,0,1,965,165.00000000000006) translate(167.8395061728395 17.77777777777778)"/><path d="M1000 299.67h120V363h-120z" stroke="#000" stroke-opacity="0" stroke-width="2" fill="#fff" fill-opacity="0"/><use xlink:href="#l" transform="matrix(1,0,0,1,1005,304.66666666666674) translate(0 17.77777777777778)"/><use xlink:href="#j" transform="matrix(1,0,0,1,1005,304.66666666666674) translate(37.03703703703704 17.77777777777778)"/><use xlink:href="#m" transform="matrix(1,0,0,1,1005,304.66666666666674) translate(93.82716049382717 17.77777777777778)"/><path d="M1180 159h180v64h-180z" stroke="#000" stroke-opacity="0" stroke-width="2" fill="#fff" fill-opacity="0"/><use xlink:href="#n" transform="matrix(1,0,0,1,1185,163.99999999999994) translate(0 17.77777777777778)"/><use xlink:href="#e" transform="matrix(1,0,0,1,1185,163.99999999999994) translate(115.92592592592594 17.77777777777778)"/><use xlink:href="#o" transform="matrix(1,0,0,1,1185,163.99999999999994) translate(136.4814814814815 17.77777777777778)"/><path d="M700 300h200v64H700z" stroke="#000" stroke-opacity="0" stroke-width="2" fill="#fff" fill-opacity="0"/><g><use xlink:href="#n" transform="matrix(1,0,0,1,705,304.99999999999994) translate(0 17.77777777777778)"/><use xlink:href="#e" transform="matrix(1,0,0,1,705,304.99999999999994) translate(115.92592592592594 17.77777777777778)"/><use xlink:href="#o" transform="matrix(1,0,0,1,705,304.99999999999994) translate(136.4814814814815 17.77777777777778)"/></g><path d="M940 380h420v63.33H940z" stroke="#000" stroke-opacity="0" stroke-width="2" fill="#ffdba9"/><path d="M1000 395h120v63.33h-120z" stroke="#000" stroke-opacity="0" stroke-width="2" fill="#fff" fill-opacity="0"/><g><use xlink:href="#p" transform="matrix(1,0,0,1,1005,400.0000000000001) translate(0 17.77777777777778)"/><use xlink:href="#q" transform="matrix(1,0,0,1,1005,400.0000000000001) translate(37.03703703703704 17.77777777777778)"/><use xlink:href="#r" transform="matrix(1,0,0,1,1005,400.0000000000001) translate(93.82716049382717 17.77777777777778)"/></g><path d="M1400 476h180v44h-180z" stroke="#000" stroke-opacity="0" stroke-width="2" fill="#fff" fill-opacity="0"/><g><use xlink:href="#n" transform="matrix(1,0,0,1,1405,480.99999999999994) translate(0 17.77777777777778)"/><use xlink:href="#e" transform="matrix(1,0,0,1,1405,480.99999999999994) translate(115.92592592592594 17.77777777777778)"/><use xlink:href="#o" transform="matrix(1,0,0,1,1405,480.99999999999994) translate(136.4814814814815 17.77777777777778)"/></g><path d="M1380 380h220v63.33h-220z" stroke="#000" stroke-opacity="0" stroke-width="2" fill="#ffdba9"/><path d="M1430 393.67h120V443h-120z" stroke="#000" stroke-opacity="0" stroke-width="2" fill="#fff" fill-opacity="0"/><g><use xlink:href="#p" transform="matrix(1,0,0,1,1435,398.66666666666674) translate(0 17.77777777777778)"/><use xlink:href="#q" transform="matrix(1,0,0,1,1435,398.66666666666674) translate(37.03703703703704 17.77777777777778)"/><use xlink:href="#r" transform="matrix(1,0,0,1,1435,398.66666666666674) translate(93.82716049382717 17.77777777777778)"/></g><path d="M1180 394h180v64h-180z" stroke="#000" stroke-opacity="0" stroke-width="2" fill="#fff" fill-opacity="0"/><g><use xlink:href="#n" transform="matrix(1,0,0,1,1185,399) translate(0 17.77777777777778)"/><use xlink:href="#e" transform="matrix(1,0,0,1,1185,399) translate(115.92592592592594 17.77777777777778)"/><use xlink:href="#o" transform="matrix(1,0,0,1,1185,399) translate(136.4814814814815 17.77777777777778)"/></g><path d="M1502 200v98.66M1498 200v98.66" stroke="#000" stroke-width="2" fill="none"/><path d="M1500 295.42l-4.64-14.26h9.28z" stroke="#000" stroke-width="2"/><path d="M1380 160h220v63.33h-220z" stroke="#000" stroke-opacity="0" stroke-width="2" fill="#fff" fill-opacity="0"/><g><use xlink:href="#a" transform="matrix(1,0,0,1,1385,165.00000000000006) translate(0 17.77777777777778)"/><use xlink:href="#s" transform="matrix(1,0,0,1,1385,165.00000000000006) translate(45.67901234567901 17.77777777777778)"/><use xlink:href="#t" transform="matrix(1,0,0,1,1385,165.00000000000006) translate(66.66666666666666 17.77777777777778)"/><use xlink:href="#q" transform="matrix(1,0,0,1,1385,165.00000000000006) translate(111.04938271604937 17.77777777777778)"/><use xlink:href="#u" transform="matrix(1,0,0,1,1385,165.00000000000006) translate(167.8395061728395 17.77777777777778)"/></g><path d="M1440 299.67h120V363h-120z" stroke="#000" stroke-opacity="0" stroke-width="2" fill="#fff" fill-opacity="0"/><g><use xlink:href="#p" transform="matrix(1,0,0,1,1445,304.66666666666674) translate(0 17.77777777777778)"/><use xlink:href="#q" transform="matrix(1,0,0,1,1445,304.66666666666674) translate(37.03703703703704 17.77777777777778)"/><use xlink:href="#r" transform="matrix(1,0,0,1,1445,304.66666666666674) translate(93.82716049382717 17.77777777777778)"/></g><defs><path d="M24 0v-248h195v40H76v63h132v40H76v65h150V0H24" id="v"/><path d="M144 0l-44-69L55 0H2l70-98-66-92h53l41 62 40-62h54l-67 91 71 99h-54" id="w"/><path d="M185-48c-13 30-37 53-82 52C43 2 14-33 14-96s30-98 90-98c62 0 83 45 84 108H66c0 31 8 55 39 56 18 0 30-7 34-22zm-45-69c5-46-57-63-70-21-2 6-4 13-4 21h74" id="x"/><g id="a"><use transform="matrix(0.06172839506172839,0,0,0.06172839506172839,0,0)" xlink:href="#v"/><use transform="matrix(0.06172839506172839,0,0,0.06172839506172839,14.814814814814813,0)" xlink:href="#w"/><use transform="matrix(0.06172839506172839,0,0,0.06172839506172839,27.160493827160494,0)" xlink:href="#x"/></g><path d="M205 0l-28-72H64L36 0H1l101-248h38L239 0h-34zm-38-99l-47-123c-12 45-31 82-46 123h93" id="y"/><use transform="matrix(0.06172839506172839,0,0,0.06172839506172839,0,0)" xlink:href="#y" id="b"/><path d="M87 75C49 33 22-17 22-94c0-76 28-126 65-167h31c-38 41-64 92-64 168S80 34 118 75H87" id="z"/><path d="M30-248c87 1 191-15 191 75 0 78-77 80-158 76V0H30v-248zm33 125c57 0 124 11 124-50 0-59-68-47-124-48v98" id="A"/><path d="M141-36C126-15 110 5 73 4 37 3 15-17 15-53c-1-64 63-63 125-63 3-35-9-54-41-54-24 1-41 7-42 31l-33-3c5-37 33-52 76-52 45 0 72 20 72 64v82c-1 20 7 32 28 27v20c-31 9-61-2-59-35zM48-53c0 20 12 33 32 33 41-3 63-29 60-74-43 2-92-5-92 41" id="B"/><path d="M24-231v-30h32v30H24zM24 0v-190h32V0H24" id="C"/><path d="M117-194c89-4 53 116 60 194h-32v-121c0-31-8-49-39-48C34-167 62-67 57 0H25l-1-190h30c1 10-1 24 2 32 11-22 29-35 61-36" id="D"/><path d="M59-47c-2 24 18 29 38 22v24C64 9 27 4 27-40v-127H5v-23h24l9-43h21v43h35v23H59v120" id="E"/><path d="M140-251c81 0 123 46 123 126C263-46 219 4 140 4 59 4 17-45 17-125s42-126 123-126zm0 227c63 0 89-41 89-101s-29-99-89-99c-61 0-89 39-89 99S79-25 140-24" id="F"/><path d="M101-234c-31-9-42 10-38 44h38v23H63V0H32v-167H5v-23h27c-7-52 17-82 69-68v24" id="G"/><path d="M100-194c63 0 86 42 84 106H49c0 40 14 67 53 68 26 1 43-12 49-29l28 8c-11 28-37 45-77 45C44 4 14-33 15-96c1-61 26-98 85-98zm52 81c6-60-76-77-97-28-3 7-6 17-6 28h103" id="H"/><path d="M114-163C36-179 61-72 57 0H25l-1-190h30c1 12-1 29 2 39 6-27 23-49 58-41v29" id="I"/><g id="c"><use transform="matrix(0.06172839506172839,0,0,0.06172839506172839,0,0)" xlink:href="#z"/><use transform="matrix(0.06172839506172839,0,0,0.06172839506172839,7.345679012345679,0)" xlink:href="#A"/><use transform="matrix(0.06172839506172839,0,0,0.06172839506172839,22.160493827160494,0)" xlink:href="#B"/><use transform="matrix(0.06172839506172839,0,0,0.06172839506172839,34.50617283950617,0)" xlink:href="#C"/><use transform="matrix(0.06172839506172839,0,0,0.06172839506172839,39.382716049382715,0)" xlink:href="#D"/><use transform="matrix(0.06172839506172839,0,0,0.06172839506172839,51.72839506172839,0)" xlink:href="#E"/><use transform="matrix(0.06172839506172839,0,0,0.06172839506172839,57.901234567901234,0)" xlink:href="#F"/><use transform="matrix(0.06172839506172839,0,0,0.06172839506172839,75.18518518518519,0)" xlink:href="#G"/><use transform="matrix(0.06172839506172839,0,0,0.06172839506172839,80.92592592592592,0)" xlink:href="#G"/><use transform="matrix(0.06172839506172839,0,0,0.06172839506172839,87.09876543209876,0)" xlink:href="#H"/><use transform="matrix(0.06172839506172839,0,0,0.06172839506172839,99.44444444444444,0)" xlink:href="#I"/></g><use transform="matrix(0.06172839506172839,0,0,0.06172839506172839,0,0)" xlink:href="#y" id="d"/><use transform="matrix(0.06172839506172839,0,0,0.06172839506172839,0,0)" xlink:href="#A" id="e"/><path d="M160-131c35 5 61 23 61 61C221 17 115-2 30 0v-248c76 3 177-17 177 60 0 33-19 50-47 57zm-97-11c50-1 110 9 110-42 0-47-63-36-110-37v79zm0 115c55-2 124 14 124-45 0-56-70-42-124-44v89" id="J"/><path d="M143 0L79-87 56-68V0H24v-261h32v163l83-92h37l-77 82L181 0h-38" id="K"/><path d="M33-261c38 41 65 92 65 168S71 34 33 75H2C39 34 66-17 66-93S39-220 2-261h31" id="L"/><g id="f"><use transform="matrix(0.06172839506172839,0,0,0.06172839506172839,0,0)" xlink:href="#J"/><use transform="matrix(0.06172839506172839,0,0,0.06172839506172839,14.814814814814813,0)" xlink:href="#B"/><use transform="matrix(0.06172839506172839,0,0,0.06172839506172839,27.160493827160494,0)" xlink:href="#D"/><use transform="matrix(0.06172839506172839,0,0,0.06172839506172839,39.50617283950617,0)" xlink:href="#K"/><use transform="matrix(0.06172839506172839,0,0,0.06172839506172839,50.61728395061728,0)" xlink:href="#L"/></g><g id="g"><use transform="matrix(0.06172839506172839,0,0,0.06172839506172839,0,0)" xlink:href="#v"/><use transform="matrix(0.06172839506172839,0,0,0.06172839506172839,14.814814814814813,0)" xlink:href="#w"/><use transform="matrix(0.06172839506172839,0,0,0.06172839506172839,27.160493827160494,0)" xlink:href="#x"/></g><use transform="matrix(0.06172839506172839,0,0,0.06172839506172839,0,0)" xlink:href="#y" id="h"/><path d="M33 0v-248h34V0H33" id="M"/><path d="M100-194c62-1 85 37 85 99 1 63-27 99-86 99S16-35 15-95c0-66 28-99 85-99zM99-20c44 1 53-31 53-75 0-43-8-75-51-75s-53 32-53 75 10 74 51 75" id="N"/><path d="M84 4C-5 8 30-112 23-190h32v120c0 31 7 50 39 49 72-2 45-101 50-169h31l1 190h-30c-1-10 1-25-2-33-11 22-28 36-60 37" id="O"/><g id="i"><use transform="matrix(0.06172839506172839,0,0,0.06172839506172839,0,0)" xlink:href="#z"/><use transform="matrix(0.06172839506172839,0,0,0.06172839506172839,7.345679012345679,0)" xlink:href="#M"/><use transform="matrix(0.06172839506172839,0,0,0.06172839506172839,13.518518518518519,0)" xlink:href="#N"/><use transform="matrix(0.06172839506172839,0,0,0.06172839506172839,25.864197530864196,0)" xlink:href="#O"/></g><g id="j"><use transform="matrix(0.06172839506172839,0,0,0.06172839506172839,0,0)" xlink:href="#J"/><use transform="matrix(0.06172839506172839,0,0,0.06172839506172839,14.814814814814813,0)" xlink:href="#B"/><use transform="matrix(0.06172839506172839,0,0,0.06172839506172839,27.160493827160494,0)" xlink:href="#D"/><use transform="matrix(0.06172839506172839,0,0,0.06172839506172839,39.50617283950617,0)" xlink:href="#K"/></g><g id="k"><use transform="matrix(0.06172839506172839,0,0,0.06172839506172839,0,0)" xlink:href="#y"/><use transform="matrix(0.06172839506172839,0,0,0.06172839506172839,14.814814814814813,0)" xlink:href="#L"/></g><g id="l"><use transform="matrix(0.06172839506172839,0,0,0.06172839506172839,0,0)" xlink:href="#M"/><use transform="matrix(0.06172839506172839,0,0,0.06172839506172839,6.172839506172839,0)" xlink:href="#N"/><use transform="matrix(0.06172839506172839,0,0,0.06172839506172839,18.51851851851852,0)" xlink:href="#O"/></g><use transform="matrix(0.06172839506172839,0,0,0.06172839506172839,0,0)" xlink:href="#A" id="m"/><path d="M177-190C167-65 218 103 67 71c-23-6-38-20-44-43l32-5c15 47 100 32 89-28v-30C133-14 115 1 83 1 29 1 15-40 15-95c0-56 16-97 71-98 29-1 48 16 59 35 1-10 0-23 2-32h30zM94-22c36 0 50-32 50-73 0-42-14-75-50-75-39 0-46 34-46 75s6 73 46 73" id="P"/><g id="n"><use transform="matrix(0.06172839506172839,0,0,0.06172839506172839,0,0)" xlink:href="#A"/><use transform="matrix(0.06172839506172839,0,0,0.06172839506172839,14.814814814814813,0)" xlink:href="#B"/><use transform="matrix(0.06172839506172839,0,0,0.06172839506172839,27.160493827160494,0)" xlink:href="#C"/><use transform="matrix(0.06172839506172839,0,0,0.06172839506172839,32.03703703703704,0)" xlink:href="#D"/><use transform="matrix(0.06172839506172839,0,0,0.06172839506172839,44.382716049382715,0)" xlink:href="#E"/><use transform="matrix(0.06172839506172839,0,0,0.06172839506172839,50.55555555555556,0)" xlink:href="#y"/><use transform="matrix(0.06172839506172839,0,0,0.06172839506172839,65.37037037037037,0)" xlink:href="#P"/><use transform="matrix(0.06172839506172839,0,0,0.06172839506172839,77.71604938271605,0)" xlink:href="#I"/><use transform="matrix(0.06172839506172839,0,0,0.06172839506172839,85.06172839506173,0)" xlink:href="#H"/><use transform="matrix(0.06172839506172839,0,0,0.06172839506172839,97.40740740740742,0)" xlink:href="#H"/></g><use transform="matrix(0.06172839506172839,0,0,0.06172839506172839,0,0)" xlink:href="#y" id="o"/><g id="p"><use transform="matrix(0.06172839506172839,0,0,0.06172839506172839,0,0)" xlink:href="#M"/><use transform="matrix(0.06172839506172839,0,0,0.06172839506172839,6.172839506172839,0)" xlink:href="#N"/><use transform="matrix(0.06172839506172839,0,0,0.06172839506172839,18.51851851851852,0)" xlink:href="#O"/></g><g id="q"><use transform="matrix(0.06172839506172839,0,0,0.06172839506172839,0,0)" xlink:href="#J"/><use transform="matrix(0.06172839506172839,0,0,0.06172839506172839,14.814814814814813,0)" xlink:href="#B"/><use transform="matrix(0.06172839506172839,0,0,0.06172839506172839,27.160493827160494,0)" xlink:href="#D"/><use transform="matrix(0.06172839506172839,0,0,0.06172839506172839,39.50617283950617,0)" xlink:href="#K"/></g><use transform="matrix(0.06172839506172839,0,0,0.06172839506172839,0,0)" xlink:href="#A" id="r"/><use transform="matrix(0.06172839506172839,0,0,0.06172839506172839,0,0)" xlink:href="#y" id="s"/><g id="t"><use transform="matrix(0.06172839506172839,0,0,0.06172839506172839,0,0)" xlink:href="#z"/><use transform="matrix(0.06172839506172839,0,0,0.06172839506172839,7.345679012345679,0)" xlink:href="#M"/><use transform="matrix(0.06172839506172839,0,0,0.06172839506172839,13.518518518518519,0)" xlink:href="#N"/><use transform="matrix(0.06172839506172839,0,0,0.06172839506172839,25.864197530864196,0)" xlink:href="#O"/></g><g id="u"><use transform="matrix(0.06172839506172839,0,0,0.06172839506172839,0,0)" xlink:href="#y"/><use transform="matrix(0.06172839506172839,0,0,0.06172839506172839,14.814814814814813,0)" xlink:href="#L"/></g></defs></g></svg>