<svg width="300" height="80" viewBox="0 0 300 80" fill="none" xmlns="http://www.w3.org/2000/svg">
<rect x="11.25" y="14.25" width="111.5" height="50.5" rx="3.75" fill="white"/>
<path d="M31.9184 37.5H30.5084V28.86H31.9184V37.5ZM35.5234 37.596C35.0154 37.596 34.6234 37.454 34.3474 37.17C34.0754 36.882 33.9394 36.478 33.9394 35.958V32.394H33.2674C33.1954 32.394 33.1334 32.372 33.0814 32.328C33.0294 32.28 33.0034 32.21 33.0034 32.118V31.596L33.9934 31.452L34.2754 29.682C34.2954 29.614 34.3294 29.56 34.3774 29.52C34.4254 29.476 34.4894 29.454 34.5694 29.454H35.2294V31.464H36.9274V32.394H35.2294V35.868C35.2294 36.088 35.2834 36.256 35.3914 36.372C35.4994 36.488 35.6434 36.546 35.8234 36.546C35.9234 36.546 36.0094 36.534 36.0814 36.51C36.1534 36.482 36.2154 36.454 36.2674 36.426C36.3194 36.394 36.3634 36.366 36.3994 36.342C36.4394 36.314 36.4774 36.3 36.5134 36.3C36.5854 36.3 36.6434 36.34 36.6874 36.42L37.0714 37.05C36.8714 37.226 36.6354 37.362 36.3634 37.458C36.0914 37.55 35.8114 37.596 35.5234 37.596ZM41.9113 33.75C41.9113 33.534 41.8793 33.334 41.8153 33.15C41.7553 32.962 41.6653 32.8 41.5453 32.664C41.4253 32.524 41.2753 32.416 41.0953 32.34C40.9193 32.26 40.7153 32.22 40.4833 32.22C40.0153 32.22 39.6473 32.354 39.3793 32.622C39.1113 32.89 38.9413 33.266 38.8693 33.75H41.9113ZM38.8333 34.542C38.8493 34.89 38.9033 35.192 38.9953 35.448C39.0873 35.7 39.2093 35.91 39.3613 36.078C39.5173 36.246 39.7013 36.372 39.9133 36.456C40.1293 36.536 40.3693 36.576 40.6333 36.576C40.8853 36.576 41.1033 36.548 41.2873 36.492C41.4713 36.432 41.6313 36.368 41.7673 36.3C41.9033 36.228 42.0193 36.164 42.1153 36.108C42.2113 36.048 42.2993 36.018 42.3793 36.018C42.4833 36.018 42.5633 36.058 42.6193 36.138L42.9853 36.612C42.8333 36.792 42.6613 36.944 42.4693 37.068C42.2773 37.192 42.0733 37.294 41.8573 37.374C41.6413 37.45 41.4193 37.504 41.1913 37.536C40.9633 37.572 40.7413 37.59 40.5253 37.59C40.1013 37.59 39.7073 37.52 39.3433 37.38C38.9833 37.236 38.6693 37.026 38.4013 36.75C38.1373 36.474 37.9293 36.132 37.7773 35.724C37.6293 35.316 37.5553 34.846 37.5553 34.314C37.5553 33.89 37.6213 33.494 37.7533 33.126C37.8893 32.758 38.0813 32.438 38.3293 32.166C38.5813 31.894 38.8853 31.68 39.2413 31.524C39.6013 31.364 40.0073 31.284 40.4593 31.284C40.8353 31.284 41.1833 31.346 41.5033 31.47C41.8233 31.59 42.0993 31.768 42.3313 32.004C42.5633 32.24 42.7433 32.53 42.8713 32.874C43.0033 33.214 43.0693 33.602 43.0693 34.038C43.0693 34.238 43.0473 34.372 43.0033 34.44C42.9593 34.508 42.8793 34.542 42.7633 34.542H38.8333ZM45.4903 32.514C45.6823 32.126 45.9143 31.822 46.1863 31.602C46.4583 31.378 46.7843 31.266 47.1643 31.266C47.2963 31.266 47.4203 31.282 47.5363 31.314C47.6523 31.342 47.7563 31.386 47.8483 31.446L47.7583 32.418C47.7423 32.486 47.7163 32.534 47.6803 32.562C47.6483 32.586 47.6043 32.598 47.5483 32.598C47.4883 32.598 47.4023 32.588 47.2903 32.568C47.1783 32.544 47.0603 32.532 46.9363 32.532C46.7563 32.532 46.5963 32.558 46.4563 32.61C46.3203 32.662 46.1963 32.738 46.0843 32.838C45.9763 32.938 45.8803 33.06 45.7963 33.204C45.7123 33.348 45.6343 33.512 45.5623 33.696V37.5H44.2723V31.38H45.0223C45.1583 31.38 45.2523 31.406 45.3043 31.458C45.3563 31.506 45.3923 31.592 45.4123 31.716L45.4903 32.514ZM51.8783 34.824C51.4183 34.84 51.0303 34.878 50.7143 34.938C50.3983 34.994 50.1423 35.068 49.9463 35.16C49.7503 35.248 49.6083 35.354 49.5203 35.478C49.4363 35.602 49.3943 35.738 49.3943 35.886C49.3943 36.03 49.4163 36.154 49.4603 36.258C49.5083 36.358 49.5723 36.442 49.6523 36.51C49.7363 36.574 49.8323 36.622 49.9403 36.654C50.0523 36.682 50.1743 36.696 50.3063 36.696C50.6423 36.696 50.9303 36.634 51.1703 36.51C51.4143 36.382 51.6503 36.198 51.8783 35.958V34.824ZM48.4583 32.232C49.1503 31.588 49.9743 31.266 50.9303 31.266C51.2823 31.266 51.5943 31.324 51.8663 31.44C52.1423 31.552 52.3723 31.712 52.5563 31.92C52.7443 32.128 52.8863 32.376 52.9823 32.664C53.0823 32.948 53.1323 33.264 53.1323 33.612V37.5H52.5563C52.4323 37.5 52.3383 37.482 52.2743 37.446C52.2103 37.406 52.1563 37.328 52.1123 37.212L51.9863 36.714C51.8303 36.854 51.6763 36.98 51.5243 37.092C51.3723 37.2 51.2143 37.292 51.0503 37.368C50.8903 37.444 50.7163 37.5 50.5283 37.536C50.3443 37.576 50.1403 37.596 49.9163 37.596C49.6683 37.596 49.4363 37.562 49.2203 37.494C49.0083 37.426 48.8243 37.324 48.6683 37.188C48.5123 37.048 48.3883 36.876 48.2963 36.672C48.2083 36.468 48.1643 36.228 48.1643 35.952C48.1643 35.716 48.2263 35.486 48.3503 35.262C48.4783 35.038 48.6863 34.838 48.9743 34.662C49.2663 34.482 49.6483 34.334 50.1203 34.218C50.5963 34.102 51.1823 34.036 51.8783 34.02V33.612C51.8783 33.172 51.7843 32.844 51.5963 32.628C51.4083 32.412 51.1323 32.304 50.7683 32.304C50.5203 32.304 50.3123 32.336 50.1443 32.4C49.9763 32.46 49.8303 32.526 49.7063 32.598C49.5823 32.67 49.4723 32.738 49.3763 32.802C49.2803 32.862 49.1783 32.892 49.0703 32.892C48.9823 32.892 48.9063 32.87 48.8423 32.826C48.7823 32.778 48.7323 32.72 48.6923 32.652L48.4583 32.232ZM56.5234 37.596C56.0154 37.596 55.6234 37.454 55.3474 37.17C55.0754 36.882 54.9394 36.478 54.9394 35.958V32.394H54.2674C54.1954 32.394 54.1334 32.372 54.0814 32.328C54.0294 32.28 54.0034 32.21 54.0034 32.118V31.596L54.9934 31.452L55.2754 29.682C55.2954 29.614 55.3294 29.56 55.3774 29.52C55.4254 29.476 55.4894 29.454 55.5694 29.454H56.2294V31.464H57.9274V32.394H56.2294V35.868C56.2294 36.088 56.2834 36.256 56.3914 36.372C56.4994 36.488 56.6434 36.546 56.8234 36.546C56.9234 36.546 57.0094 36.534 57.0814 36.51C57.1534 36.482 57.2154 36.454 57.2674 36.426C57.3194 36.394 57.3634 36.366 57.3994 36.342C57.4394 36.314 57.4774 36.3 57.5134 36.3C57.5854 36.3 57.6434 36.34 57.6874 36.42L58.0714 37.05C57.8714 37.226 57.6354 37.362 57.3634 37.458C57.0914 37.55 56.8114 37.596 56.5234 37.596ZM62.9113 33.75C62.9113 33.534 62.8793 33.334 62.8153 33.15C62.7553 32.962 62.6653 32.8 62.5453 32.664C62.4253 32.524 62.2753 32.416 62.0953 32.34C61.9193 32.26 61.7153 32.22 61.4833 32.22C61.0153 32.22 60.6473 32.354 60.3793 32.622C60.1113 32.89 59.9413 33.266 59.8693 33.75H62.9113ZM59.8333 34.542C59.8493 34.89 59.9033 35.192 59.9953 35.448C60.0873 35.7 60.2093 35.91 60.3613 36.078C60.5173 36.246 60.7013 36.372 60.9133 36.456C61.1293 36.536 61.3693 36.576 61.6333 36.576C61.8853 36.576 62.1033 36.548 62.2873 36.492C62.4713 36.432 62.6313 36.368 62.7673 36.3C62.9033 36.228 63.0193 36.164 63.1153 36.108C63.2113 36.048 63.2993 36.018 63.3793 36.018C63.4833 36.018 63.5633 36.058 63.6193 36.138L63.9853 36.612C63.8333 36.792 63.6613 36.944 63.4693 37.068C63.2773 37.192 63.0733 37.294 62.8573 37.374C62.6413 37.45 62.4193 37.504 62.1913 37.536C61.9633 37.572 61.7413 37.59 61.5253 37.59C61.1013 37.59 60.7073 37.52 60.3433 37.38C59.9833 37.236 59.6693 37.026 59.4013 36.75C59.1373 36.474 58.9293 36.132 58.7773 35.724C58.6293 35.316 58.5553 34.846 58.5553 34.314C58.5553 33.89 58.6213 33.494 58.7533 33.126C58.8893 32.758 59.0813 32.438 59.3293 32.166C59.5813 31.894 59.8853 31.68 60.2413 31.524C60.6013 31.364 61.0073 31.284 61.4593 31.284C61.8353 31.284 62.1833 31.346 62.5033 31.47C62.8233 31.59 63.0993 31.768 63.3313 32.004C63.5633 32.24 63.7433 32.53 63.8713 32.874C64.0033 33.214 64.0693 33.602 64.0693 34.038C64.0693 34.238 64.0473 34.372 64.0033 34.44C63.9593 34.508 63.8793 34.542 63.7633 34.542H59.8333ZM70.9066 31.284C71.3586 31.284 71.7666 31.358 72.1306 31.506C72.4986 31.654 72.8106 31.864 73.0666 32.136C73.3266 32.408 73.5266 32.738 73.6666 33.126C73.8066 33.514 73.8766 33.95 73.8766 34.434C73.8766 34.918 73.8066 35.354 73.6666 35.742C73.5266 36.13 73.3266 36.462 73.0666 36.738C72.8106 37.01 72.4986 37.22 72.1306 37.368C71.7666 37.516 71.3586 37.59 70.9066 37.59C70.4506 37.59 70.0386 37.516 69.6706 37.368C69.3066 37.22 68.9946 37.01 68.7346 36.738C68.4746 36.462 68.2746 36.13 68.1346 35.742C67.9946 35.354 67.9246 34.918 67.9246 34.434C67.9246 33.95 67.9946 33.514 68.1346 33.126C68.2746 32.738 68.4746 32.408 68.7346 32.136C68.9946 31.864 69.3066 31.654 69.6706 31.506C70.0386 31.358 70.4506 31.284 70.9066 31.284ZM70.9066 36.582C71.4586 36.582 71.8686 36.398 72.1366 36.03C72.4086 35.658 72.5446 35.128 72.5446 34.44C72.5446 33.752 72.4086 33.222 72.1366 32.85C71.8686 32.474 71.4586 32.286 70.9066 32.286C70.3466 32.286 69.9306 32.474 69.6586 32.85C69.3866 33.222 69.2506 33.752 69.2506 34.44C69.2506 35.128 69.3866 35.658 69.6586 36.03C69.9306 36.398 70.3466 36.582 70.9066 36.582ZM76.3221 32.19C76.4541 32.054 76.5901 31.932 76.7301 31.824C76.8741 31.712 77.0261 31.616 77.1861 31.536C77.3461 31.456 77.5161 31.394 77.6961 31.35C77.8761 31.306 78.0721 31.284 78.2841 31.284C78.6201 31.284 78.9141 31.34 79.1661 31.452C79.4221 31.564 79.6361 31.722 79.8081 31.926C79.9841 32.13 80.1161 32.376 80.2041 32.664C80.2921 32.948 80.3361 33.262 80.3361 33.606V37.5H79.0521V33.606C79.0521 33.194 78.9561 32.874 78.7641 32.646C78.5761 32.418 78.2881 32.304 77.9001 32.304C77.6121 32.304 77.3441 32.37 77.0961 32.502C76.8521 32.634 76.6221 32.814 76.4061 33.042V37.5H75.1161V31.38H75.8961C76.0721 31.38 76.1841 31.462 76.2321 31.626L76.3221 32.19ZM86.7929 37.596C86.2849 37.596 85.8929 37.454 85.6169 37.17C85.3449 36.882 85.2089 36.478 85.2089 35.958V32.394H84.5369C84.4649 32.394 84.4029 32.372 84.3509 32.328C84.2989 32.28 84.2729 32.21 84.2729 32.118V31.596L85.2629 31.452L85.5449 29.682C85.5649 29.614 85.5989 29.56 85.6469 29.52C85.6949 29.476 85.7589 29.454 85.8389 29.454H86.4989V31.464H88.1969V32.394H86.4989V35.868C86.4989 36.088 86.5529 36.256 86.6609 36.372C86.7689 36.488 86.9129 36.546 87.0929 36.546C87.1929 36.546 87.2789 36.534 87.3509 36.51C87.4229 36.482 87.4849 36.454 87.5369 36.426C87.5889 36.394 87.6329 36.366 87.6689 36.342C87.7089 36.314 87.7469 36.3 87.7829 36.3C87.8549 36.3 87.9129 36.34 87.9569 36.42L88.3409 37.05C88.1409 37.226 87.9049 37.362 87.6329 37.458C87.3609 37.55 87.0809 37.596 86.7929 37.596ZM90.5037 32.106C90.7557 31.858 91.0317 31.66 91.3317 31.512C91.6317 31.36 91.9817 31.284 92.3817 31.284C92.7177 31.284 93.0117 31.34 93.2637 31.452C93.5197 31.564 93.7337 31.722 93.9057 31.926C94.0817 32.13 94.2137 32.376 94.3017 32.664C94.3897 32.948 94.4337 33.262 94.4337 33.606V37.5H93.1497V33.606C93.1497 33.194 93.0537 32.874 92.8617 32.646C92.6737 32.418 92.3857 32.304 91.9977 32.304C91.7097 32.304 91.4417 32.37 91.1937 32.502C90.9497 32.634 90.7197 32.814 90.5037 33.042V37.5H89.2137V28.62H90.5037V32.106ZM99.9543 33.75C99.9543 33.534 99.9223 33.334 99.8583 33.15C99.7983 32.962 99.7083 32.8 99.5883 32.664C99.4683 32.524 99.3183 32.416 99.1383 32.34C98.9623 32.26 98.7583 32.22 98.5263 32.22C98.0583 32.22 97.6903 32.354 97.4223 32.622C97.1543 32.89 96.9843 33.266 96.9123 33.75H99.9543ZM96.8763 34.542C96.8923 34.89 96.9463 35.192 97.0383 35.448C97.1303 35.7 97.2523 35.91 97.4043 36.078C97.5603 36.246 97.7443 36.372 97.9563 36.456C98.1723 36.536 98.4123 36.576 98.6763 36.576C98.9283 36.576 99.1463 36.548 99.3303 36.492C99.5143 36.432 99.6743 36.368 99.8103 36.3C99.9463 36.228 100.062 36.164 100.158 36.108C100.254 36.048 100.342 36.018 100.422 36.018C100.526 36.018 100.606 36.058 100.662 36.138L101.028 36.612C100.876 36.792 100.704 36.944 100.512 37.068C100.32 37.192 100.116 37.294 99.9003 37.374C99.6843 37.45 99.4623 37.504 99.2343 37.536C99.0063 37.572 98.7843 37.59 98.5683 37.59C98.1443 37.59 97.7503 37.52 97.3863 37.38C97.0263 37.236 96.7123 37.026 96.4443 36.75C96.1803 36.474 95.9723 36.132 95.8203 35.724C95.6723 35.316 95.5983 34.846 95.5983 34.314C95.5983 33.89 95.6643 33.494 95.7963 33.126C95.9323 32.758 96.1243 32.438 96.3723 32.166C96.6243 31.894 96.9283 31.68 97.2843 31.524C97.6443 31.364 98.0503 31.284 98.5023 31.284C98.8783 31.284 99.2263 31.346 99.5463 31.47C99.8663 31.59 100.142 31.768 100.374 32.004C100.606 32.24 100.786 32.53 100.914 32.874C101.046 33.214 101.112 33.602 101.112 34.038C101.112 34.238 101.09 34.372 101.046 34.44C101.002 34.508 100.922 34.542 100.806 34.542H96.8763ZM43.7409 47.18C43.7409 47.82 43.6369 48.406 43.4289 48.938C43.2209 49.466 42.9269 49.92 42.5469 50.3C42.1709 50.68 41.7169 50.976 41.1849 51.188C40.6569 51.396 40.0689 51.5 39.4209 51.5H36.1569V42.86H39.4209C40.0689 42.86 40.6569 42.966 41.1849 43.178C41.7169 43.386 42.1709 43.68 42.5469 44.06C42.9269 44.44 43.2209 44.896 43.4289 45.428C43.6369 45.956 43.7409 46.54 43.7409 47.18ZM42.3069 47.18C42.3069 46.684 42.2389 46.238 42.1029 45.842C41.9709 45.446 41.7789 45.112 41.5269 44.84C41.2789 44.568 40.9769 44.36 40.6209 44.216C40.2649 44.068 39.8649 43.994 39.4209 43.994H37.5669V50.366H39.4209C39.8649 50.366 40.2649 50.294 40.6209 50.15C40.9769 50.006 41.2789 49.798 41.5269 49.526C41.7789 49.25 41.9709 48.916 42.1029 48.524C42.2389 48.128 42.3069 47.68 42.3069 47.18ZM48.1634 48.824C47.7034 48.84 47.3154 48.878 46.9994 48.938C46.6834 48.994 46.4274 49.068 46.2314 49.16C46.0354 49.248 45.8934 49.354 45.8054 49.478C45.7214 49.602 45.6794 49.738 45.6794 49.886C45.6794 50.03 45.7014 50.154 45.7454 50.258C45.7934 50.358 45.8574 50.442 45.9374 50.51C46.0214 50.574 46.1174 50.622 46.2254 50.654C46.3374 50.682 46.4594 50.696 46.5914 50.696C46.9274 50.696 47.2154 50.634 47.4554 50.51C47.6994 50.382 47.9354 50.198 48.1634 49.958V48.824ZM44.7434 46.232C45.4354 45.588 46.2594 45.266 47.2154 45.266C47.5674 45.266 47.8794 45.324 48.1514 45.44C48.4274 45.552 48.6574 45.712 48.8414 45.92C49.0294 46.128 49.1714 46.376 49.2674 46.664C49.3674 46.948 49.4174 47.264 49.4174 47.612V51.5H48.8414C48.7174 51.5 48.6234 51.482 48.5594 51.446C48.4954 51.406 48.4414 51.328 48.3974 51.212L48.2714 50.714C48.1154 50.854 47.9614 50.98 47.8094 51.092C47.6574 51.2 47.4994 51.292 47.3354 51.368C47.1754 51.444 47.0014 51.5 46.8134 51.536C46.6294 51.576 46.4254 51.596 46.2014 51.596C45.9534 51.596 45.7214 51.562 45.5054 51.494C45.2934 51.426 45.1094 51.324 44.9534 51.188C44.7974 51.048 44.6734 50.876 44.5814 50.672C44.4934 50.468 44.4494 50.228 44.4494 49.952C44.4494 49.716 44.5114 49.486 44.6354 49.262C44.7634 49.038 44.9714 48.838 45.2594 48.662C45.5514 48.482 45.9334 48.334 46.4054 48.218C46.8814 48.102 47.4674 48.036 48.1634 48.02V47.612C48.1634 47.172 48.0694 46.844 47.8814 46.628C47.6934 46.412 47.4174 46.304 47.0534 46.304C46.8054 46.304 46.5974 46.336 46.4294 46.4C46.2614 46.46 46.1154 46.526 45.9914 46.598C45.8674 46.67 45.7574 46.738 45.6614 46.802C45.5654 46.862 45.4634 46.892 45.3554 46.892C45.2674 46.892 45.1914 46.87 45.1274 46.826C45.0674 46.778 45.0174 46.72 44.9774 46.652L44.7434 46.232ZM50.9286 51.5V45.38H51.7086C51.8846 45.38 51.9966 45.462 52.0446 45.626L52.1286 46.16C52.2406 46.032 52.3566 45.916 52.4766 45.812C52.5966 45.704 52.7246 45.612 52.8606 45.536C53.0006 45.456 53.1486 45.394 53.3046 45.35C53.4646 45.306 53.6366 45.284 53.8206 45.284C54.0166 45.284 54.1966 45.312 54.3606 45.368C54.5246 45.424 54.6686 45.504 54.7926 45.608C54.9206 45.712 55.0306 45.838 55.1226 45.986C55.2146 46.134 55.2906 46.3 55.3506 46.484C55.4426 46.272 55.5586 46.09 55.6986 45.938C55.8386 45.786 55.9946 45.662 56.1666 45.566C56.3386 45.47 56.5206 45.4 56.7126 45.356C56.9086 45.308 57.1066 45.284 57.3066 45.284C57.6346 45.284 57.9266 45.336 58.1826 45.44C58.4426 45.544 58.6606 45.696 58.8366 45.896C59.0166 46.092 59.1526 46.334 59.2446 46.622C59.3366 46.91 59.3826 47.238 59.3826 47.606V51.5H58.0926V47.606C58.0926 47.174 57.9986 46.85 57.8106 46.634C57.6266 46.414 57.3526 46.304 56.9886 46.304C56.8246 46.304 56.6706 46.332 56.5266 46.388C56.3826 46.444 56.2566 46.526 56.1486 46.634C56.0406 46.742 55.9546 46.878 55.8906 47.042C55.8306 47.202 55.8006 47.39 55.8006 47.606V51.5H54.5106V47.606C54.5106 47.158 54.4206 46.83 54.2406 46.622C54.0606 46.41 53.7966 46.304 53.4486 46.304C53.2086 46.304 52.9866 46.366 52.7826 46.49C52.5786 46.61 52.3906 46.776 52.2186 46.988V51.5H50.9286ZM62.2035 42.62V51.5H60.9135V42.62H62.2035ZM66.784 51.5V45.38H67.564C67.74 45.38 67.852 45.462 67.9 45.626L67.984 46.16C68.096 46.032 68.212 45.916 68.332 45.812C68.452 45.704 68.58 45.612 68.716 45.536C68.856 45.456 69.004 45.394 69.16 45.35C69.32 45.306 69.492 45.284 69.676 45.284C69.872 45.284 70.052 45.312 70.216 45.368C70.38 45.424 70.524 45.504 70.648 45.608C70.776 45.712 70.886 45.838 70.978 45.986C71.07 46.134 71.146 46.3 71.206 46.484C71.298 46.272 71.414 46.09 71.554 45.938C71.694 45.786 71.85 45.662 72.022 45.566C72.194 45.47 72.376 45.4 72.568 45.356C72.764 45.308 72.962 45.284 73.162 45.284C73.49 45.284 73.782 45.336 74.038 45.44C74.298 45.544 74.516 45.696 74.692 45.896C74.872 46.092 75.008 46.334 75.1 46.622C75.192 46.91 75.238 47.238 75.238 47.606V51.5H73.948V47.606C73.948 47.174 73.854 46.85 73.666 46.634C73.482 46.414 73.208 46.304 72.844 46.304C72.68 46.304 72.526 46.332 72.382 46.388C72.238 46.444 72.112 46.526 72.004 46.634C71.896 46.742 71.81 46.878 71.746 47.042C71.686 47.202 71.656 47.39 71.656 47.606V51.5H70.366V47.606C70.366 47.158 70.276 46.83 70.096 46.622C69.916 46.41 69.652 46.304 69.304 46.304C69.064 46.304 68.842 46.366 68.638 46.49C68.434 46.61 68.246 46.776 68.074 46.988V51.5H66.784ZM79.391 45.284C79.843 45.284 80.251 45.358 80.615 45.506C80.983 45.654 81.295 45.864 81.551 46.136C81.811 46.408 82.011 46.738 82.151 47.126C82.291 47.514 82.361 47.95 82.361 48.434C82.361 48.918 82.291 49.354 82.151 49.742C82.011 50.13 81.811 50.462 81.551 50.738C81.295 51.01 80.983 51.22 80.615 51.368C80.251 51.516 79.843 51.59 79.391 51.59C78.935 51.59 78.523 51.516 78.155 51.368C77.791 51.22 77.479 51.01 77.219 50.738C76.959 50.462 76.759 50.13 76.619 49.742C76.479 49.354 76.409 48.918 76.409 48.434C76.409 47.95 76.479 47.514 76.619 47.126C76.759 46.738 76.959 46.408 77.219 46.136C77.479 45.864 77.791 45.654 78.155 45.506C78.523 45.358 78.935 45.284 79.391 45.284ZM79.391 50.582C79.943 50.582 80.353 50.398 80.621 50.03C80.893 49.658 81.029 49.128 81.029 48.44C81.029 47.752 80.893 47.222 80.621 46.85C80.353 46.474 79.943 46.286 79.391 46.286C78.831 46.286 78.415 46.474 78.143 46.85C77.871 47.222 77.735 47.752 77.735 48.44C77.735 49.128 77.871 49.658 78.143 50.03C78.415 50.398 78.831 50.582 79.391 50.582ZM87.5065 46.886C87.3265 46.654 87.1285 46.492 86.9125 46.4C86.6965 46.308 86.4625 46.262 86.2105 46.262C85.7065 46.262 85.3125 46.448 85.0285 46.82C84.7445 47.188 84.6025 47.734 84.6025 48.458C84.6025 48.834 84.6345 49.156 84.6985 49.424C84.7625 49.688 84.8545 49.904 84.9745 50.072C85.0945 50.24 85.2405 50.362 85.4125 50.438C85.5845 50.514 85.7785 50.552 85.9945 50.552C86.3225 50.552 86.6045 50.482 86.8405 50.342C87.0805 50.198 87.3025 49.996 87.5065 49.736V46.886ZM88.7965 42.62V51.5H88.0165C87.8445 51.5 87.7345 51.418 87.6865 51.254L87.5725 50.588C87.3165 50.888 87.0245 51.13 86.6965 51.314C86.3725 51.498 85.9945 51.59 85.5625 51.59C85.2185 51.59 84.9065 51.522 84.6265 51.386C84.3465 51.246 84.1065 51.044 83.9065 50.78C83.7065 50.516 83.5505 50.19 83.4385 49.802C83.3305 49.41 83.2765 48.962 83.2765 48.458C83.2765 48.002 83.3365 47.58 83.4565 47.192C83.5805 46.804 83.7565 46.468 83.9845 46.184C84.2125 45.896 84.4885 45.672 84.8125 45.512C85.1405 45.348 85.5065 45.266 85.9105 45.266C86.2705 45.266 86.5765 45.324 86.8285 45.44C87.0805 45.552 87.3065 45.71 87.5065 45.914V42.62H88.7965ZM94.3879 47.75C94.3879 47.534 94.3559 47.334 94.2919 47.15C94.2319 46.962 94.1419 46.8 94.0219 46.664C93.9019 46.524 93.7519 46.416 93.5719 46.34C93.3959 46.26 93.1919 46.22 92.9599 46.22C92.4919 46.22 92.1239 46.354 91.8559 46.622C91.5879 46.89 91.4179 47.266 91.3459 47.75H94.3879ZM91.3099 48.542C91.3259 48.89 91.3799 49.192 91.4719 49.448C91.5639 49.7 91.6859 49.91 91.8379 50.078C91.9939 50.246 92.1779 50.372 92.3899 50.456C92.6059 50.536 92.8459 50.576 93.1099 50.576C93.3619 50.576 93.5799 50.548 93.7639 50.492C93.9479 50.432 94.1079 50.368 94.2439 50.3C94.3799 50.228 94.4959 50.164 94.5919 50.108C94.6879 50.048 94.7759 50.018 94.8559 50.018C94.9599 50.018 95.0399 50.058 95.0959 50.138L95.4619 50.612C95.3099 50.792 95.1379 50.944 94.9459 51.068C94.7539 51.192 94.5499 51.294 94.3339 51.374C94.1179 51.45 93.8959 51.504 93.6679 51.536C93.4399 51.572 93.2179 51.59 93.0019 51.59C92.5779 51.59 92.1839 51.52 91.8199 51.38C91.4599 51.236 91.1459 51.026 90.8779 50.75C90.6139 50.474 90.4059 50.132 90.2539 49.724C90.1059 49.316 90.0319 48.846 90.0319 48.314C90.0319 47.89 90.0979 47.494 90.2299 47.126C90.3659 46.758 90.5579 46.438 90.8059 46.166C91.0579 45.894 91.3619 45.68 91.7179 45.524C92.0779 45.364 92.4839 45.284 92.9359 45.284C93.3119 45.284 93.6599 45.346 93.9799 45.47C94.2999 45.59 94.5759 45.768 94.8079 46.004C95.0399 46.24 95.2199 46.53 95.3479 46.874C95.4799 47.214 95.5459 47.602 95.5459 48.038C95.5459 48.238 95.5239 48.372 95.4799 48.44C95.4359 48.508 95.3559 48.542 95.2399 48.542H91.3099ZM98.0629 42.62V51.5H96.7729V42.62H98.0629Z" fill="#22252A"/>
<rect x="11.25" y="14.25" width="111.5" height="50.5" rx="3.75" stroke="#444444" stroke-width="0.5"/>
<rect x="186.25" y="13.25" width="97.5" height="50.5" rx="3.75" fill="white"/>
<path d="M210.155 36.5H208.745V27.86H210.155V36.5ZM213.76 36.596C213.252 36.596 212.86 36.454 212.584 36.17C212.312 35.882 212.176 35.478 212.176 34.958V31.394H211.504C211.432 31.394 211.37 31.372 211.318 31.328C211.266 31.28 211.24 31.21 211.24 31.118V30.596L212.23 30.452L212.512 28.682C212.532 28.614 212.566 28.56 212.614 28.52C212.662 28.476 212.726 28.454 212.806 28.454H213.466V30.464H215.164V31.394H213.466V34.868C213.466 35.088 213.52 35.256 213.628 35.372C213.736 35.488 213.88 35.546 214.06 35.546C214.16 35.546 214.246 35.534 214.318 35.51C214.39 35.482 214.452 35.454 214.504 35.426C214.556 35.394 214.6 35.366 214.636 35.342C214.676 35.314 214.714 35.3 214.75 35.3C214.822 35.3 214.88 35.34 214.924 35.42L215.308 36.05C215.108 36.226 214.872 36.362 214.6 36.458C214.328 36.55 214.048 36.596 213.76 36.596ZM220.148 32.75C220.148 32.534 220.116 32.334 220.052 32.15C219.992 31.962 219.902 31.8 219.782 31.664C219.662 31.524 219.512 31.416 219.332 31.34C219.156 31.26 218.952 31.22 218.72 31.22C218.252 31.22 217.884 31.354 217.616 31.622C217.348 31.89 217.178 32.266 217.106 32.75H220.148ZM217.07 33.542C217.086 33.89 217.14 34.192 217.232 34.448C217.324 34.7 217.446 34.91 217.598 35.078C217.754 35.246 217.938 35.372 218.15 35.456C218.366 35.536 218.606 35.576 218.87 35.576C219.122 35.576 219.34 35.548 219.524 35.492C219.708 35.432 219.868 35.368 220.004 35.3C220.14 35.228 220.256 35.164 220.352 35.108C220.448 35.048 220.536 35.018 220.616 35.018C220.72 35.018 220.8 35.058 220.856 35.138L221.222 35.612C221.07 35.792 220.898 35.944 220.706 36.068C220.514 36.192 220.31 36.294 220.094 36.374C219.878 36.45 219.656 36.504 219.428 36.536C219.2 36.572 218.978 36.59 218.762 36.59C218.338 36.59 217.944 36.52 217.58 36.38C217.22 36.236 216.906 36.026 216.638 35.75C216.374 35.474 216.166 35.132 216.014 34.724C215.866 34.316 215.792 33.846 215.792 33.314C215.792 32.89 215.858 32.494 215.99 32.126C216.126 31.758 216.318 31.438 216.566 31.166C216.818 30.894 217.122 30.68 217.478 30.524C217.838 30.364 218.244 30.284 218.696 30.284C219.072 30.284 219.42 30.346 219.74 30.47C220.06 30.59 220.336 30.768 220.568 31.004C220.8 31.24 220.98 31.53 221.108 31.874C221.24 32.214 221.306 32.602 221.306 33.038C221.306 33.238 221.284 33.372 221.24 33.44C221.196 33.508 221.116 33.542 221 33.542H217.07ZM223.727 31.514C223.919 31.126 224.151 30.822 224.423 30.602C224.695 30.378 225.021 30.266 225.401 30.266C225.533 30.266 225.657 30.282 225.773 30.314C225.889 30.342 225.993 30.386 226.085 30.446L225.995 31.418C225.979 31.486 225.953 31.534 225.917 31.562C225.885 31.586 225.841 31.598 225.785 31.598C225.725 31.598 225.639 31.588 225.527 31.568C225.415 31.544 225.297 31.532 225.173 31.532C224.993 31.532 224.833 31.558 224.693 31.61C224.557 31.662 224.433 31.738 224.321 31.838C224.213 31.938 224.117 32.06 224.033 32.204C223.949 32.348 223.871 32.512 223.799 32.696V36.5H222.509V30.38H223.259C223.395 30.38 223.489 30.406 223.541 30.458C223.593 30.506 223.629 30.592 223.649 30.716L223.727 31.514ZM230.115 33.824C229.655 33.84 229.267 33.878 228.951 33.938C228.635 33.994 228.379 34.068 228.183 34.16C227.987 34.248 227.845 34.354 227.757 34.478C227.673 34.602 227.631 34.738 227.631 34.886C227.631 35.03 227.653 35.154 227.697 35.258C227.745 35.358 227.809 35.442 227.889 35.51C227.973 35.574 228.069 35.622 228.177 35.654C228.289 35.682 228.411 35.696 228.543 35.696C228.879 35.696 229.167 35.634 229.407 35.51C229.651 35.382 229.887 35.198 230.115 34.958V33.824ZM226.695 31.232C227.387 30.588 228.211 30.266 229.167 30.266C229.519 30.266 229.831 30.324 230.103 30.44C230.379 30.552 230.609 30.712 230.793 30.92C230.981 31.128 231.123 31.376 231.219 31.664C231.319 31.948 231.369 32.264 231.369 32.612V36.5H230.793C230.669 36.5 230.575 36.482 230.511 36.446C230.447 36.406 230.393 36.328 230.349 36.212L230.223 35.714C230.067 35.854 229.913 35.98 229.761 36.092C229.609 36.2 229.451 36.292 229.287 36.368C229.127 36.444 228.953 36.5 228.765 36.536C228.581 36.576 228.377 36.596 228.153 36.596C227.905 36.596 227.673 36.562 227.457 36.494C227.245 36.426 227.061 36.324 226.905 36.188C226.749 36.048 226.625 35.876 226.533 35.672C226.445 35.468 226.401 35.228 226.401 34.952C226.401 34.716 226.463 34.486 226.587 34.262C226.715 34.038 226.923 33.838 227.211 33.662C227.503 33.482 227.885 33.334 228.357 33.218C228.833 33.102 229.419 33.036 230.115 33.02V32.612C230.115 32.172 230.021 31.844 229.833 31.628C229.645 31.412 229.369 31.304 229.005 31.304C228.757 31.304 228.549 31.336 228.381 31.4C228.213 31.46 228.067 31.526 227.943 31.598C227.819 31.67 227.709 31.738 227.613 31.802C227.517 31.862 227.415 31.892 227.307 31.892C227.219 31.892 227.143 31.87 227.079 31.826C227.019 31.778 226.969 31.72 226.929 31.652L226.695 31.232ZM234.76 36.596C234.252 36.596 233.86 36.454 233.584 36.17C233.312 35.882 233.176 35.478 233.176 34.958V31.394H232.504C232.432 31.394 232.37 31.372 232.318 31.328C232.266 31.28 232.24 31.21 232.24 31.118V30.596L233.23 30.452L233.512 28.682C233.532 28.614 233.566 28.56 233.614 28.52C233.662 28.476 233.726 28.454 233.806 28.454H234.466V30.464H236.164V31.394H234.466V34.868C234.466 35.088 234.52 35.256 234.628 35.372C234.736 35.488 234.88 35.546 235.06 35.546C235.16 35.546 235.246 35.534 235.318 35.51C235.39 35.482 235.452 35.454 235.504 35.426C235.556 35.394 235.6 35.366 235.636 35.342C235.676 35.314 235.714 35.3 235.75 35.3C235.822 35.3 235.88 35.34 235.924 35.42L236.308 36.05C236.108 36.226 235.872 36.362 235.6 36.458C235.328 36.55 235.048 36.596 234.76 36.596ZM241.148 32.75C241.148 32.534 241.116 32.334 241.052 32.15C240.992 31.962 240.902 31.8 240.782 31.664C240.662 31.524 240.512 31.416 240.332 31.34C240.156 31.26 239.952 31.22 239.72 31.22C239.252 31.22 238.884 31.354 238.616 31.622C238.348 31.89 238.178 32.266 238.106 32.75H241.148ZM238.07 33.542C238.086 33.89 238.14 34.192 238.232 34.448C238.324 34.7 238.446 34.91 238.598 35.078C238.754 35.246 238.938 35.372 239.15 35.456C239.366 35.536 239.606 35.576 239.87 35.576C240.122 35.576 240.34 35.548 240.524 35.492C240.708 35.432 240.868 35.368 241.004 35.3C241.14 35.228 241.256 35.164 241.352 35.108C241.448 35.048 241.536 35.018 241.616 35.018C241.72 35.018 241.8 35.058 241.856 35.138L242.222 35.612C242.07 35.792 241.898 35.944 241.706 36.068C241.514 36.192 241.31 36.294 241.094 36.374C240.878 36.45 240.656 36.504 240.428 36.536C240.2 36.572 239.978 36.59 239.762 36.59C239.338 36.59 238.944 36.52 238.58 36.38C238.22 36.236 237.906 36.026 237.638 35.75C237.374 35.474 237.166 35.132 237.014 34.724C236.866 34.316 236.792 33.846 236.792 33.314C236.792 32.89 236.858 32.494 236.99 32.126C237.126 31.758 237.318 31.438 237.566 31.166C237.818 30.894 238.122 30.68 238.478 30.524C238.838 30.364 239.244 30.284 239.696 30.284C240.072 30.284 240.42 30.346 240.74 30.47C241.06 30.59 241.336 30.768 241.568 31.004C241.8 31.24 241.98 31.53 242.108 31.874C242.24 32.214 242.306 32.602 242.306 33.038C242.306 33.238 242.284 33.372 242.24 33.44C242.196 33.508 242.116 33.542 242 33.542H238.07ZM249.143 30.284C249.595 30.284 250.003 30.358 250.367 30.506C250.735 30.654 251.047 30.864 251.303 31.136C251.563 31.408 251.763 31.738 251.903 32.126C252.043 32.514 252.113 32.95 252.113 33.434C252.113 33.918 252.043 34.354 251.903 34.742C251.763 35.13 251.563 35.462 251.303 35.738C251.047 36.01 250.735 36.22 250.367 36.368C250.003 36.516 249.595 36.59 249.143 36.59C248.687 36.59 248.275 36.516 247.907 36.368C247.543 36.22 247.231 36.01 246.971 35.738C246.711 35.462 246.511 35.13 246.371 34.742C246.231 34.354 246.161 33.918 246.161 33.434C246.161 32.95 246.231 32.514 246.371 32.126C246.511 31.738 246.711 31.408 246.971 31.136C247.231 30.864 247.543 30.654 247.907 30.506C248.275 30.358 248.687 30.284 249.143 30.284ZM249.143 35.582C249.695 35.582 250.105 35.398 250.373 35.03C250.645 34.658 250.781 34.128 250.781 33.44C250.781 32.752 250.645 32.222 250.373 31.85C250.105 31.474 249.695 31.286 249.143 31.286C248.583 31.286 248.167 31.474 247.895 31.85C247.623 32.222 247.487 32.752 247.487 33.44C247.487 34.128 247.623 34.658 247.895 35.03C248.167 35.398 248.583 35.582 249.143 35.582ZM254.558 31.19C254.69 31.054 254.826 30.932 254.966 30.824C255.11 30.712 255.262 30.616 255.422 30.536C255.582 30.456 255.752 30.394 255.932 30.35C256.112 30.306 256.308 30.284 256.52 30.284C256.856 30.284 257.15 30.34 257.402 30.452C257.658 30.564 257.872 30.722 258.044 30.926C258.22 31.13 258.352 31.376 258.44 31.664C258.528 31.948 258.572 32.262 258.572 32.606V36.5H257.288V32.606C257.288 32.194 257.192 31.874 257 31.646C256.812 31.418 256.524 31.304 256.136 31.304C255.848 31.304 255.58 31.37 255.332 31.502C255.088 31.634 254.858 31.814 254.642 32.042V36.5H253.352V30.38H254.132C254.308 30.38 254.42 30.462 254.468 30.626L254.558 31.19ZM221.348 50.596C220.84 50.596 220.448 50.454 220.172 50.17C219.9 49.882 219.764 49.478 219.764 48.958V45.394H219.092C219.02 45.394 218.958 45.372 218.906 45.328C218.854 45.28 218.828 45.21 218.828 45.118V44.596L219.818 44.452L220.1 42.682C220.12 42.614 220.154 42.56 220.202 42.52C220.25 42.476 220.314 42.454 220.394 42.454H221.054V44.464H222.752V45.394H221.054V48.868C221.054 49.088 221.108 49.256 221.216 49.372C221.324 49.488 221.468 49.546 221.648 49.546C221.748 49.546 221.834 49.534 221.906 49.51C221.978 49.482 222.04 49.454 222.092 49.426C222.144 49.394 222.188 49.366 222.224 49.342C222.264 49.314 222.302 49.3 222.338 49.3C222.41 49.3 222.468 49.34 222.512 49.42L222.896 50.05C222.696 50.226 222.46 50.362 222.188 50.458C221.916 50.55 221.636 50.596 221.348 50.596ZM225.058 45.106C225.31 44.858 225.586 44.66 225.886 44.512C226.186 44.36 226.536 44.284 226.936 44.284C227.272 44.284 227.566 44.34 227.818 44.452C228.074 44.564 228.288 44.722 228.46 44.926C228.636 45.13 228.768 45.376 228.856 45.664C228.944 45.948 228.988 46.262 228.988 46.606V50.5H227.704V46.606C227.704 46.194 227.608 45.874 227.416 45.646C227.228 45.418 226.94 45.304 226.552 45.304C226.264 45.304 225.996 45.37 225.748 45.502C225.504 45.634 225.274 45.814 225.058 46.042V50.5H223.768V41.62H225.058V45.106ZM234.509 46.75C234.509 46.534 234.477 46.334 234.413 46.15C234.353 45.962 234.263 45.8 234.143 45.664C234.023 45.524 233.873 45.416 233.693 45.34C233.517 45.26 233.313 45.22 233.081 45.22C232.613 45.22 232.245 45.354 231.977 45.622C231.709 45.89 231.539 46.266 231.467 46.75H234.509ZM231.431 47.542C231.447 47.89 231.501 48.192 231.593 48.448C231.685 48.7 231.807 48.91 231.959 49.078C232.115 49.246 232.299 49.372 232.511 49.456C232.727 49.536 232.967 49.576 233.231 49.576C233.483 49.576 233.701 49.548 233.885 49.492C234.069 49.432 234.229 49.368 234.365 49.3C234.501 49.228 234.617 49.164 234.713 49.108C234.809 49.048 234.897 49.018 234.977 49.018C235.081 49.018 235.161 49.058 235.217 49.138L235.583 49.612C235.431 49.792 235.259 49.944 235.067 50.068C234.875 50.192 234.671 50.294 234.455 50.374C234.239 50.45 234.017 50.504 233.789 50.536C233.561 50.572 233.339 50.59 233.123 50.59C232.699 50.59 232.305 50.52 231.941 50.38C231.581 50.236 231.267 50.026 230.999 49.75C230.735 49.474 230.527 49.132 230.375 48.724C230.227 48.316 230.153 47.846 230.153 47.314C230.153 46.89 230.219 46.494 230.351 46.126C230.487 45.758 230.679 45.438 230.927 45.166C231.179 44.894 231.483 44.68 231.839 44.524C232.199 44.364 232.605 44.284 233.057 44.284C233.433 44.284 233.781 44.346 234.101 44.47C234.421 44.59 234.697 44.768 234.929 45.004C235.161 45.24 235.341 45.53 235.469 45.874C235.601 46.214 235.667 46.602 235.667 47.038C235.667 47.238 235.645 47.372 235.601 47.44C235.557 47.508 235.477 47.542 235.361 47.542H231.431ZM243.506 49.366C243.838 49.366 244.134 49.31 244.394 49.198C244.658 49.086 244.88 48.93 245.06 48.73C245.244 48.53 245.384 48.29 245.48 48.01C245.576 47.726 245.624 47.412 245.624 47.068V41.86H247.022V47.068C247.022 47.576 246.94 48.046 246.776 48.478C246.616 48.91 246.384 49.284 246.08 49.6C245.776 49.912 245.406 50.158 244.97 50.338C244.538 50.514 244.05 50.602 243.506 50.602C242.962 50.602 242.472 50.514 242.036 50.338C241.604 50.158 241.236 49.912 240.932 49.6C240.628 49.284 240.394 48.91 240.23 48.478C240.07 48.046 239.99 47.576 239.99 47.068V41.86H241.394V47.062C241.394 47.406 241.442 47.72 241.538 48.004C241.634 48.284 241.772 48.526 241.952 48.73C242.132 48.93 242.352 49.086 242.612 49.198C242.876 49.31 243.174 49.366 243.506 49.366ZM250.379 50.5H248.969V41.86H250.379V50.5Z" fill="#22252A"/>
<rect x="186.25" y="13.25" width="97.5" height="50.5" rx="3.75" stroke="#444444" stroke-width="0.5"/>
<path d="M166.313 39.3223L162.582 43.0525L158.852 39.3223" stroke="#22252A" stroke-linecap="round"/>
<path d="M152.635 49.2697C147.141 49.2697 142.688 44.8161 142.688 39.3224C142.688 33.8286 147.141 29.375 152.635 29.375C158.129 29.375 162.582 33.8286 162.582 39.3224V41.8092" stroke="#22252A" stroke-linecap="round"/>
</svg>
