<?xml version="1.0" encoding="UTF-8"?>
<svg width="27px" height="27px" viewBox="0 0 27 27" version="1.1" xmlns="http://www.w3.org/2000/svg" xmlns:xlink="http://www.w3.org/1999/xlink">
    <!-- Generator: Sketch 52.6 (67491) - http://www.bohemiancoding.com/sketch -->
    <title>Group 5</title>
    <desc>Created with Sketch.</desc>
    <g id="Page-1" stroke="none" stroke-width="1" fill="none" fill-rule="evenodd">
        <g id="Redlines_NewVisuals" transform="translate(-469.000000, -4747.000000)">
            <g id="Group-5" transform="translate(469.000000, 4747.000000)">
                <polygon id="Rectangle" fill="#ffcccc" fill-rule="nonzero" points="6.96836656 -9.41469125e-14 20.0331884 -9.41469125e-14 27 7.85436541 27 19.1623982 20.035147 27 6.96669811 27 -4.47641924e-13 19.1619862 -4.47641924e-13 7.83740448"></polygon>
                <g id="baseline-pan_tool-24px" transform="translate(6.000000, 7.000000)" fill="#FFFFFF">
                    <path d="M13,2.97916667 L13,10.8333333 C13,12.025 11.9363636,13 10.6363636,13 L6.32272727,13 C5.68454545,13 5.08181818,12.7670833 4.63863636,12.3554167 L0,8.03291667 C0,8.03291667 0.744545455,7.36666667 0.768181818,7.35583333 C0.898181818,7.25291667 1.05772727,7.19875 1.235,7.19875 C1.365,7.19875 1.48318182,7.23125 1.58954545,7.28541667 C1.61318182,7.29083333 4.13636364,8.61791667 4.13636364,8.61791667 L4.13636364,2.16666667 C4.13636364,1.71708333 4.53227273,1.35416667 5.02272727,1.35416667 C5.51318182,1.35416667 5.90909091,1.71708333 5.90909091,2.16666667 L5.90909091,5.95833333 L6.5,5.95833333 L6.5,0.8125 C6.5,0.362916667 6.89590909,0 7.38636364,0 C7.87681818,0 8.27272727,0.362916667 8.27272727,0.8125 L8.27272727,5.95833333 L8.86363636,5.95833333 L8.86363636,1.35416667 C8.86363636,0.904583333 9.25954545,0.541666667 9.75,0.541666667 C10.2404545,0.541666667 10.6363636,0.904583333 10.6363636,1.35416667 L10.6363636,5.95833333 L11.2272727,5.95833333 L11.2272727,2.97916667 C11.2272727,2.52958333 11.6231818,2.16666667 12.1136364,2.16666667 C12.6040909,2.16666667 13,2.52958333 13,2.97916667 Z" id="Path"></path>
                </g>
            </g>
        </g>
    </g>
</svg>