<?xml version="1.0" encoding="UTF-8"?>
<svg width="21px" height="21px" viewBox="0 0 21 21" version="1.1" xmlns="http://www.w3.org/2000/svg" xmlns:xlink="http://www.w3.org/1999/xlink">
    <!-- Generator: Sketch 52.5 (67469) - http://www.bohemiancoding.com/sketch -->
    <title>baseline-fullscreen_exit-24px</title>
    <desc>Created with Sketch.</desc>
    <g id="Page-1" stroke="none" stroke-width="1" fill="none" fill-rule="evenodd">
        <g id="NewVisuals-1700x1080-(In-between)" transform="translate(-1485.000000, -1405.000000)">
            <g id="Group-19" transform="translate(1158.000000, 1375.000000)">
                <g id="baseline-fullscreen_exit-24px" transform="translate(320.000000, 23.000000)">
                    <polygon id="Path" points="0 0 34 0 34 34 0 34"></polygon>
                    <path d="M7.24590164,23.0117096 L11.5456674,23.0117096 L11.5456674,27.3114754 L14.412178,27.3114754 L14.412178,20.1451991 L7.24590164,20.1451991 L7.24590164,23.0117096 Z M11.5456674,11.5456674 L7.24590164,11.5456674 L7.24590164,14.412178 L14.412178,14.412178 L14.412178,7.24590164 L11.5456674,7.24590164 L11.5456674,11.5456674 Z M20.1451991,27.3114754 L23.0117096,27.3114754 L23.0117096,23.0117096 L27.3114754,23.0117096 L27.3114754,20.1451991 L20.1451991,20.1451991 L20.1451991,27.3114754 Z M23.0117096,11.5456674 L23.0117096,7.24590164 L20.1451991,7.24590164 L20.1451991,14.412178 L27.3114754,14.412178 L27.3114754,11.5456674 L23.0117096,11.5456674 Z" id="Shape" fill="#6292f7" fill-rule="nonzero"></path>
                </g>
            </g>
        </g>
    </g>
</svg>