<?xml version="1.0" encoding="utf-8"?>
<!-- Generator: Adobe Illustrator 25.0.1, SVG Export Plug-In . SVG Version: 6.00 Build 0)  -->
<svg version="1.1" id="katman_1" xmlns="http://www.w3.org/2000/svg" xmlns:xlink="http://www.w3.org/1999/xlink" x="0px" y="0px"
	 viewBox="0 0 1000 1000" style="enable-background:new 0 0 1000 1000;" xml:space="preserve">
<style type="text/css">
	.st0{fill:#233040;}
	.st1{fill:#4E80F9;}
</style>
<g>
	<polygon class="st0" points="219.63,520.36 203.35,572.08 170.88,572.08 187.16,520.36 	"/>
	<polygon class="st0" points="294.42,572.08 261.95,572.08 245.67,520.36 233.06,480.3 232.65,479.01 248.88,427.45 265.52,480.3 
		278.14,520.36 	"/>
	<polygon class="st1" points="248.88,427.45 232.65,479.01 232.24,480.3 199.78,480.3 216.42,427.45 	"/>
	<g>
		<g>
			<path class="st0" d="M449.16,572.08h-25.74v-8.03c-7.96,6.73-17.23,10.09-27.8,10.09c-15.38,0-27.94-5.63-37.69-16.89
				c-8.51-9.89-12.77-21.55-12.77-35.01c0-14.69,4.77-27.05,14.31-37.07c9.54-10.02,21.11-15.04,34.7-15.04
				c10.98,0,20.39,3.09,28.21,9.27v-53.55h26.77V572.08z M422.38,537.07v-29.86c-6.18-8.24-14.42-12.36-24.71-12.36
				c-7.55,0-13.73,2.71-18.54,8.13c-4.81,5.43-7.21,11.84-7.21,19.26c0,7.82,2.5,14.31,7.52,19.46c5.01,5.15,11.29,7.72,18.84,7.72
				C408.58,549.43,416.62,545.31,422.38,537.07z"/>
			<path class="st0" d="M575.81,472.2v99.88h-25.74v-8.03c-7.96,6.73-17.23,10.09-27.8,10.09c-15.38,0-27.94-5.63-37.69-16.89
				c-8.51-9.89-12.77-21.55-12.77-35.01c0-14.69,4.77-27.05,14.31-37.07c9.54-10.02,21.11-15.04,34.7-15.04
				c11.26,0,21.01,3.37,29.24,10.09v-8.03H575.81z M549.04,537.07v-29.86c-6.18-8.24-14.42-12.36-24.71-12.36
				c-7.55,0-13.73,2.71-18.54,8.13c-4.81,5.43-7.21,11.84-7.21,19.26c0,7.82,2.5,14.31,7.52,19.46c5.01,5.15,11.29,7.72,18.84,7.72
				C535.24,549.43,543.27,545.31,549.04,537.07z"/>
			<path class="st0" d="M633.47,572.08H606.7V472.2h25.74v8.03c7.55-6.72,16.54-10.09,26.98-10.09c13.73,0,24.92,5.22,33.57,15.65
				c9.89-10.43,21.69-15.65,35.42-15.65c6.86,0,13.42,1.44,19.67,4.33c6.25,2.88,11.36,6.8,15.34,11.74
				c6.73,8.24,10.09,19.22,10.09,32.95v52.93h-26.77v-53.96c0-7.69-1.65-13.39-4.94-17.09c-3.71-4.12-8.72-6.18-15.03-6.18
				c-5.22,0-9.99,1.37-14.31,4.12c-4.33,2.75-7.59,5.77-9.78,9.06c0.55,4.39,0.82,8.1,0.82,11.12v52.93h-26.77v-53.96
				c0-7.69-1.65-13.39-4.94-17.09c-3.71-4.12-8.72-6.18-15.03-6.18c-9.06,0-16.82,4.12-23.27,12.36V572.08z"/>
			<path class="st0" d="M829.12,425.86v146.22h-26.77V425.86H829.12z"/>
		</g>
	</g>
</g>
</svg>
