<?xml version="1.0" encoding="UTF-8"?>
<svg width="20px" height="20px" viewBox="0 0 20 20" version="1.1" xmlns="http://www.w3.org/2000/svg" xmlns:xlink="http://www.w3.org/1999/xlink">
    <!-- Generator: Sketch 52.5 (67469) - http://www.bohemiancoding.com/sketch -->
    <title>baseline-fullscreen-24px</title>
    <desc>Created with Sketch.</desc>
    <g id="Page-1" stroke="none" stroke-width="1" fill="none" fill-rule="evenodd">
        <g id="Redlines_NewVisuals" transform="translate(-1835.000000, -1415.000000)">
            <g id="Group-20" transform="translate(1508.000000, 1385.000000)">
                <g id="baseline-fullscreen-24px" transform="translate(320.000000, 23.000000)">
                    <polygon id="Path" points="0 0 34 0 34 34 0 34"></polygon>
                    <path d="M9.91666667,19.8333333 L7.08333333,19.8333333 L7.08333333,26.9166667 L14.1666667,26.9166667 L14.1666667,24.0833333 L9.91666667,24.0833333 L9.91666667,19.8333333 Z M7.08333333,14.1666667 L9.91666667,14.1666667 L9.91666667,9.91666667 L14.1666667,9.91666667 L14.1666667,7.08333333 L7.08333333,7.08333333 L7.08333333,14.1666667 Z M24.0833333,24.0833333 L19.8333333,24.0833333 L19.8333333,26.9166667 L26.9166667,26.9166667 L26.9166667,19.8333333 L24.0833333,19.8333333 L24.0833333,24.0833333 Z M19.8333333,7.08333333 L19.8333333,9.91666667 L24.0833333,9.91666667 L24.0833333,14.1666667 L26.9166667,14.1666667 L26.9166667,7.08333333 L19.8333333,7.08333333 Z" id="Shape" fill="#6292f7" fill-rule="nonzero"></path>
                </g>
            </g>
        </g>
    </g>
</svg>