<?xml version="1.0" encoding="UTF-8"?>
<svg width="186px" height="26px" viewBox="0 0 186 26" version="1.1" xmlns="http://www.w3.org/2000/svg" xmlns:xlink="http://www.w3.org/1999/xlink">
    <!-- Generator: Sketch 52.6 (67491) - http://www.bohemiancoding.com/sketch -->
    <title>Group 47</title>
    <desc>Created with Sketch.</desc>
    <g id="Page-1" stroke="none" stroke-width="1" fill="none" fill-rule="evenodd">
        <g id="Redlines_NewVisuals" transform="translate(-467.000000, -14195.000000)" fill="#6292f7">
            <g id="Group-12" transform="translate(467.000000, 14195.000000)">
                <g id="Group-47">
                    <path d="M42.632,3.2 L48.968,3.2 C54.368,3.2 57.536,7.064 57.536,11.6 C57.536,16.136 54.392,20 48.968,20 L42.632,20 L42.632,3.2 Z M48.608,16.736 C51.92,16.736 53.528,14.264 53.528,11.6 C53.528,8.936 51.92,6.464 48.608,6.464 L46.52,6.464 L46.52,16.736 L48.608,16.736 Z M61.472,7.4 C60.152,7.4 59.216,6.392 59.216,5.168 C59.216,3.92 60.152,2.912 61.472,2.912 C62.792,2.912 63.752,3.92 63.752,5.168 C63.752,6.392 62.792,7.4 61.472,7.4 Z M59.624,8.432 L63.296,8.432 L63.296,20 L59.624,20 L59.624,8.432 Z M71.912,25.16 C70.256,25.16 68.864,24.896 67.736,24.224 C66.56,23.504 65.72,22.256 65.672,21.008 L69.416,21.008 C69.584,21.92 70.376,22.472 71.864,22.472 C73.568,22.472 74.6,21.728 74.6,19.664 L74.6,18.128 C74.024,19.28 72.488,20 70.976,20 C67.544,20 65.48,17.504 65.48,14.096 C65.48,10.688 67.688,8.12 71.024,8.12 C72.608,8.12 74.024,8.888 74.6,10.088 L74.6,8.432 L78.272,8.432 L78.272,19.256 C78.248,21.488 77.456,23.144 76.04,24.128 C74.984,24.872 73.568,25.16 71.912,25.16 Z M71.984,17.168 C73.736,17.168 74.768,15.824 74.768,14.144 C74.768,12.464 73.736,11.12 71.984,11.12 C70.328,11.12 69.248,12.392 69.248,14.144 C69.248,15.896 70.328,17.168 71.984,17.168 Z M83.144,7.4 C81.824,7.4 80.888,6.392 80.888,5.168 C80.888,3.92 81.824,2.912 83.144,2.912 C84.464,2.912 85.424,3.92 85.424,5.168 C85.424,6.392 84.464,7.4 83.144,7.4 Z M81.296,8.432 L84.968,8.432 L84.968,20 L81.296,20 L81.296,8.432 Z M94.064,17.144 C94.52,17.144 95,17.12 95.336,17.072 L95.336,20 C94.808,20.096 93.944,20.192 92.888,20.192 C91.16,20.192 88.784,19.808 88.784,15.944 L88.784,11.336 L86.96,11.336 L86.96,8.432 L88.784,8.432 L88.784,5 L92.456,5 L92.456,8.432 L95.072,8.432 L95.072,11.336 L92.456,11.336 L92.456,15.176 C92.456,16.88 93.152,17.144 94.064,17.144 Z M102.056,20.312 C98.6,20.312 96.608,17.696 96.608,14.216 C96.608,10.76 98.744,8.12 102.104,8.12 C103.784,8.12 105.104,8.912 105.728,10.088 L105.728,8.432 L109.376,8.432 L109.376,20 L105.728,20 L105.728,18.368 C105.104,19.52 103.664,20.312 102.056,20.312 Z M103.112,17.264 C104.936,17.264 105.872,15.896 105.872,14.216 C105.872,12.56 104.936,11.192 103.112,11.192 C101.408,11.192 100.352,12.464 100.352,14.216 C100.352,15.968 101.408,17.264 103.112,17.264 Z M112.424,3.2 L116.096,3.2 L116.096,20 L112.424,20 L112.424,3.2 Z M134.312,17.96 L128.36,17.96 L127.784,20 L123.68,20 L129.368,3.2 L133.28,3.2 L138.992,20 L134.888,20 L134.312,17.96 Z M133.448,14.912 L131.336,7.448 L129.224,14.912 L133.448,14.912 Z M145.376,20.36 C141.992,20.36 139.904,18.704 139.904,16.52 L143.552,16.52 C143.552,17.312 144.32,17.888 145.448,17.888 C146.24,17.888 146.792,17.48 146.792,16.808 C146.792,16.352 146.576,15.968 145.952,15.824 L143.12,15.104 C141.2,14.624 140.216,13.424 140.216,11.768 C140.216,9.608 142.112,8.096 145.16,8.096 C148.544,8.096 150.32,9.512 150.32,11.696 L146.696,11.696 C146.696,10.88 146.096,10.424 145.112,10.424 C144.32,10.424 143.792,10.808 143.792,11.384 C143.792,11.912 144.152,12.248 144.776,12.416 L147.512,13.16 C149.288,13.64 150.44,14.72 150.44,16.376 C150.44,18.752 148.544,20.36 145.376,20.36 Z M157.352,20.36 C153.968,20.36 151.88,18.704 151.88,16.52 L155.528,16.52 C155.528,17.312 156.296,17.888 157.424,17.888 C158.216,17.888 158.768,17.48 158.768,16.808 C158.768,16.352 158.552,15.968 157.928,15.824 L155.096,15.104 C153.176,14.624 152.192,13.424 152.192,11.768 C152.192,9.608 154.088,8.096 157.136,8.096 C160.52,8.096 162.296,9.512 162.296,11.696 L158.672,11.696 C158.672,10.88 158.072,10.424 157.088,10.424 C156.296,10.424 155.768,10.808 155.768,11.384 C155.768,11.912 156.128,12.248 156.752,12.416 L159.488,13.16 C161.264,13.64 162.416,14.72 162.416,16.376 C162.416,18.752 160.52,20.36 157.352,20.36 Z M176.072,13.616 C176.072,14.24 176.048,14.552 175.976,15.224 L167.432,15.224 C167.504,16.736 168.512,17.6 170.144,17.6 C171.272,17.6 171.992,17.24 172.304,16.52 L175.904,16.52 C175.544,18.8 173.216,20.36 170.144,20.36 C166.208,20.36 163.784,18.08 163.784,14.216 C163.784,10.424 166.256,8.096 170.024,8.096 C173.624,8.096 176.072,10.352 176.072,13.616 Z M172.448,12.944 C172.424,11.408 171.56,10.544 170,10.544 C168.416,10.544 167.456,11.528 167.432,12.944 L172.448,12.944 Z M184.256,17.144 C184.712,17.144 185.192,17.12 185.528,17.072 L185.528,20 C185,20.096 184.136,20.192 183.08,20.192 C181.352,20.192 178.976,19.808 178.976,15.944 L178.976,11.336 L177.152,11.336 L177.152,8.432 L178.976,8.432 L178.976,5 L182.648,5 L182.648,8.432 L185.264,8.432 L185.264,11.336 L182.648,11.336 L182.648,15.176 C182.648,16.88 183.344,17.144 184.256,17.144 Z" id="Digital-Asset"></path>
                    <g id="Digital_Asset_Symbol_White" fill-rule="nonzero">
                        <g id="Group" transform="translate(0.000000, 1.000000)">
                            <path d="M18.2,0.0505747126 L8.45185185,0.0505747126 C8.11481481,0.0505747126 7.77777778,0.202298851 7.54444444,0.455172414 L0.155555556,8.59770115 C-0.181481481,8.97701149 0.0777777778,9.58390805 0.596296296,9.58390805 L10.3703704,9.58390805 C10.7074074,9.58390805 11.0444444,9.43218391 11.2777778,9.17931034 L18.6666667,1.03678161 C19.0037037,0.657471264 18.7185185,0.0505747126 18.2,0.0505747126 Z M10.162963,7.20689655 L4.32962963,7.20689655 L8.65925926,2.42758621 L14.4925926,2.42758621 L10.162963,7.20689655 Z" id="Shape"></path>
                            <path d="M0.155555556,13.3264368 L7.46666667,21.3931034 C7.7,21.645977 8.03703704,21.7977011 8.37407407,21.7977011 L18.1481481,21.7977011 C18.6666667,21.7977011 18.9518519,21.1908046 18.5888889,20.8114943 L11.2777778,12.7195402 C11.0444444,12.4666667 10.7074074,12.3149425 10.3703704,12.3149425 L0.596296296,12.3149425 C0.0777777778,12.3402299 -0.181481481,12.9218391 0.155555556,13.3264368 Z" id="Shape"></path>
                            <path d="M20.8444444,2.68045977 L19.7037037,3.91954023 C19.5222222,4.12183908 19.4962963,4.42528736 19.6777778,4.65287356 L23.2555556,9.35632184 L15.5296296,9.35632184 C15.3740741,9.35632184 15.2444444,9.40689655 15.1407407,9.50804598 L13.9222222,10.5195402 C13.637037,10.7471264 13.637037,11.1770115 13.9222222,11.4045977 L15.1666667,12.4666667 C15.2703704,12.5678161 15.4259259,12.6183908 15.5555556,12.6183908 L23.2296296,12.6183908 L19.6259259,17.1701149 C19.4444444,17.3977011 19.4703704,17.7011494 19.6518519,17.9287356 L20.7666667,19.1678161 C21.0259259,19.445977 21.4666667,19.4206897 21.7,19.1172414 L27.7148148,11.2781609 C27.8703704,11.0758621 27.8703704,10.7724138 27.7148148,10.5701149 L21.7777778,2.73103448 C21.5444444,2.42758621 21.1037037,2.40229885 20.8444444,2.68045977 Z" id="Shape"></path>
                        </g>
                        <g id="Layer_2" transform="translate(28.000000, 0.000000)">
                            <g id="Layer_2_1_">
                                <path d="M3.525,4.6 C3.825,4.475 4.075,4.3 4.3,4.075 C4.5,3.85 4.675,3.6 4.775,3.3 C4.875,3 4.95,2.7 4.95,2.4 C4.95,2.075 4.9,1.775 4.775,1.5 C4.675,1.2 4.5,0.95 4.3,0.725 C4.1,0.5 3.825,0.325 3.525,0.2 C3.225,0.075 2.875,0 2.5,0 C2.125,0 1.775,0.075 1.475,0.2 C1.175,0.325 0.925,0.5 0.7,0.725 C0.475,0.95 0.325,1.2 0.225,1.5 C0.125,1.8 0.05,2.1 0.05,2.4 C0.05,2.725 0.1,3.025 0.225,3.3 C0.325,3.6 0.5,3.85 0.7,4.075 C0.9,4.3 1.175,4.475 1.475,4.6 C1.775,4.725 2.125,4.8 2.5,4.8 C2.875,4.8 3.225,4.725 3.525,4.6 Z M1.75,4.1 C1.525,4 1.35,3.85 1.2,3.675 C1.05,3.5 0.925,3.3 0.85,3.075 C0.775,2.85 0.725,2.625 0.725,2.375 C0.725,2.125 0.775,1.9 0.85,1.675 C0.925,1.45 1.05,1.25 1.2,1.075 C1.35,0.9 1.55,0.75 1.75,0.65 C1.975,0.55 2.225,0.5 2.5,0.5 C2.775,0.5 3.025,0.55 3.25,0.65 C3.475,0.75 3.65,0.9 3.8,1.075 C3.95,1.25 4.075,1.45 4.15,1.675 C4.225,1.9 4.275,2.125 4.275,2.375 C4.275,2.625 4.225,2.85 4.15,3.075 C4.075,3.3 3.95,3.5 3.8,3.675 C3.65,3.85 3.45,4 3.25,4.1 C3.025,4.2 2.775,4.25 2.5,4.25 C2.225,4.25 1.975,4.2 1.75,4.1 Z M2.175,2.375 L2.175,1.55 L2.6,1.55 C2.725,1.55 2.8,1.6 2.875,1.675 C2.95,1.75 2.975,1.85 2.975,1.975 C2.975,2.1 2.95,2.175 2.875,2.275 C2.8,2.35 2.725,2.4 2.6,2.4 L2.175,2.375 Z M2.175,3.6 L2.175,2.875 L2.475,2.875 L2.925,3.6 L3.65,3.6 L3.15,2.8 C3.3,2.725 3.425,2.625 3.525,2.475 C3.625,2.325 3.65,2.175 3.65,1.975 C3.65,1.85 3.625,1.725 3.575,1.625 C3.525,1.525 3.475,1.425 3.4,1.325 C3.325,1.25 3.225,1.175 3.1,1.125 C2.975,1.075 2.85,1.05 2.725,1.05 L1.575,1.05 L1.575,3.625 L2.175,3.625 L2.175,3.6 Z" id="Shape"></path>
                            </g>
                        </g>
                    </g>
                </g>
            </g>
        </g>
    </g>
</svg>