<?xml version="1.0" encoding="UTF-8"?>
<svg width="20px" height="12px" viewBox="0 0 20 12" version="1.1" xmlns="http://www.w3.org/2000/svg" xmlns:xlink="http://www.w3.org/1999/xlink">
    <!-- Generator: Sketch 52.5 (67469) - http://www.bohemiancoding.com/sketch -->
    <title>Group 3</title>
    <desc>Created with Sketch.</desc>
    <g id="Page-1" stroke="none" stroke-width="1" fill="none" fill-rule="evenodd">
        <g id="Redlines_NewVisuals" transform="translate(-1057.000000, -247.000000)" fill="#6292f7" fill-rule="nonzero">
            <g id="Group-3" transform="translate(1057.000000, 247.000000)">
                <rect id="Rectangle-5" transform="translate(18.000000, 2.000000) rotate(90.000000) translate(-18.000000, -2.000000) " x="16" y="0" width="4" height="4"></rect>
                <polygon id="Rectangle-5" transform="translate(14.000000, 6.000000) rotate(90.000000) translate(-14.000000, -6.000000) " points="12 4 16 4 16 8 12 8"></polygon>
                <polygon id="Rectangle-5" transform="translate(10.000000, 10.000000) rotate(90.000000) translate(-10.000000, -10.000000) " points="8 8 12 8 12 12 8 12"></polygon>
                <rect id="Rectangle-5" transform="translate(2.000000, 2.000000) scale(1, -1) rotate(-90.000000) translate(-2.000000, -2.000000) " x="0" y="0" width="4" height="4"></rect>
                <polygon id="Rectangle-5" transform="translate(6.000000, 6.000000) scale(1, -1) rotate(-90.000000) translate(-6.000000, -6.000000) " points="4 4 8 4 8 8 4 8"></polygon>
            </g>
        </g>
    </g>
</svg>