<svg xmlns="http://www.w3.org/2000/svg" xmlns:xlink="http://www.w3.org/1999/xlink" xmlns:lucid="lucid" width="730.81" height="698.4"><g transform="translate(-479.8646366413011 1198.4)" lucid:page-tab-id="0_0"><path d="M500.06-741.6H887.2V-520H500.06z" stroke="#0c7cba" stroke-width="2" fill="#fff"/><use xlink:href="#a" transform="matrix(1,0,0,1,505.0585465652041,-736.5999999999999) translate(0 14.4)"/><use xlink:href="#b" transform="matrix(1,0,0,1,505.0585465652041,-736.5999999999999) translate(92.85000000000001 14.4)"/><path d="M557.7-600h272.53v60H557.7z" stroke="#000" stroke-width="2" fill="#c7e8ac"/><use xlink:href="#c" transform="matrix(1,0,0,1,562.6878198478062,-595) translate(68.875 30.025)"/><use xlink:href="#d" transform="matrix(1,0,0,1,562.6878198478062,-595) translate(123.125 30.025)"/><path d="M557.7-700h272.2v60H557.7z" stroke="#000" stroke-width="2" fill="#c7e8ac"/><use xlink:href="#e" transform="matrix(1,0,0,1,562.6878198478062,-695) translate(61.57499999999999 30.025)"/><use xlink:href="#f" transform="matrix(1,0,0,1,562.6878198478062,-695) translate(114.52499999999999 30.025)"/><use xlink:href="#g" transform="matrix(1,0,0,1,562.6878198478062,-695) translate(148.52499999999998 30.025)"/><path d="M499.86-1178.4H887V-760H499.87z" stroke="#0c7cba" stroke-width="2" fill="#fff"/><use xlink:href="#a" transform="matrix(1,0,0,1,504.8646366413011,-1173.4) translate(0 14.4)"/><use xlink:href="#h" transform="matrix(1,0,0,1,504.8646366413011,-1173.4) translate(92.85000000000001 14.4)"/><path d="M556.48-860h273.26v61.6H556.48z" stroke="#000" stroke-width="2" fill="#f9d2de"/><use xlink:href="#i" transform="matrix(1,0,0,1,561.4768167934951,-855) translate(24.549999999999997 30.65)"/><use xlink:href="#j" transform="matrix(1,0,0,1,561.4768167934951,-855) translate(109.65 30.65)"/><use xlink:href="#k" transform="matrix(1,0,0,1,561.4768167934951,-855) translate(184.60000000000002 30.65)"/><path d="M557.2-1038.4h272.54v140H557.2z" stroke="#000" stroke-width="2" fill="#c7e8ac"/><use xlink:href="#l" transform="matrix(1,0,0,1,562.1939099239032,-1033.4) translate(40.04999999999998 67.2125)"/><use xlink:href="#m" transform="matrix(1,0,0,1,562.1939099239032,-1033.4) translate(102.19999999999999 67.2125)"/><use xlink:href="#n" transform="matrix(1,0,0,1,562.1939099239032,-1033.4) translate(154.14999999999998 67.2125)"/><path d="M556.48-1138.4h273.26v61.6H556.48z" stroke="#000" stroke-width="2" fill="#fff"/><use xlink:href="#o" transform="matrix(1,0,0,1,561.4768167934951,-1133.4) translate(55.07499999999999 30.65)"/><use xlink:href="#p" transform="matrix(1,0,0,1,561.4768167934951,-1133.4) translate(107.02499999999999 30.65)"/><path d="M900-741.6h123.4v60H900z" stroke="#000" stroke-width="2" fill="#f9d2de"/><use xlink:href="#q" transform="matrix(1,0,0,1,905,-736.5999999999999) translate(38.05 30.025)"/><path d="M920-1178.4h194.92v60H920z" stroke="#000" stroke-width="2" fill="#fff"/><use xlink:href="#r" transform="matrix(1,0,0,1,925,-1173.4) translate(0 14.4)"/><use xlink:href="#s" transform="matrix(1,0,0,1,925,-1173.4) translate(42.900000000000006 14.4)"/><path d="M920-1096.8h194.92v60H920z" stroke="#000" stroke-width="2" fill="#c7e8ac"/><use xlink:href="#t" transform="matrix(1,0,0,1,925,-1091.8000000000002) translate(0 14.4)"/><use xlink:href="#u" transform="matrix(1,0,0,1,925,-1091.8000000000002) translate(75.9 14.4)"/><path d="M693.46-896.4v17.2h-.05" stroke="#000" stroke-width="2" fill="none"/><path d="M694.46-896.37h-2v-1.03h2z"/><path d="M693.16-864.24l-4.4-14.34 9.27.16z" stroke="#000" stroke-width="2"/><path d="M693.8-638v18h.32v.5" stroke="#000" stroke-width="2" fill="none"/><path d="M694.8-637.97h-2V-639h2z"/><path d="M694.12-604.24l-4.63-14.26h9.26z" stroke="#000" stroke-width="2"/><path d="M693.1-1074.8v17.2h.06" stroke="#000" stroke-width="2" fill="none"/><path d="M694.1-1074.77h-2v-1.03h2z"/><path d="M693.4-1042.64l-4.86-14.18 9.27-.16z" stroke="#000" stroke-width="2"/><path d="M920-1015.2h194.92v60H920z" stroke="#000" stroke-width="2" fill="#f9d2de"/><use xlink:href="#v" transform="matrix(1,0,0,1,925,-1010.2000000000003) translate(0 14.4)"/><use xlink:href="#w" transform="matrix(1,0,0,1,925,-1010.2000000000003) translate(89.95 14.4)"/><use xlink:href="#x" transform="matrix(1,0,0,1,925,-1010.2000000000003) translate(130.85 14.4)"/><use xlink:href="#y" transform="matrix(1,0,0,1,925,-1010.2000000000003) translate(0 36)"/><path d="M938.78-743.6v-85.6h-89.54" stroke="#000" stroke-width="2" fill="none"/><path d="M939.78-742.6h-2v-1.03h2z"/><path d="M833.97-829.2l14.27-4.64v9.28z" stroke="#000" stroke-width="2"/><path d="M1060-741.6h130.67v60H1060z" stroke="#000" stroke-width="2" fill="#fff"/><g><use xlink:href="#c" transform="matrix(1,0,0,1,1065,-736.5999999999999) translate(8.924999999999997 30.025)"/><use xlink:href="#z" transform="matrix(1,0,0,1,1065,-736.5999999999999) translate(63.175000000000004 30.025)"/></g><path d="M1058-711.6h-15.1" stroke="#000" stroke-width="2" fill="none"/><path d="M1059-710.6h-1.03v-2h1.03z"/><path d="M1027.62-711.6l14.27-4.64v9.28z" stroke="#000" stroke-width="2"/><path d="M693.1-796.4v47.2h.5v29.7" stroke="#000" stroke-width="2" fill="none"/><path d="M694.1-796.37h-2v-1.03h2z"/><path d="M693.6-704.24l-4.64-14.26h9.28z" stroke="#000" stroke-width="2"/><path d="M940-679.6V-570h-90.27" stroke="#000" stroke-width="2" fill="none"/><path d="M941-679.57h-2v-1.03h2z"/><path d="M834.47-570l14.26-4.64v9.28z" stroke="#000" stroke-width="2"/><defs><path d="M205 0l-28-72H64L36 0H1l101-248h38L239 0h-34zm-38-99l-47-123c-12 45-31 82-46 123h93" id="A"/><path d="M115-194c55 1 70 41 70 98S169 2 115 4C84 4 66-9 55-30l1 105H24l-1-265h31l2 30c10-21 28-34 59-34zm-8 174c40 0 45-34 45-75s-6-73-45-74c-42 0-51 32-51 76 0 43 10 73 51 73" id="B"/><path d="M24 0v-261h32V0H24" id="C"/><path d="M24-231v-30h32v30H24zM24 0v-190h32V0H24" id="D"/><path d="M96-169c-40 0-48 33-48 73s9 75 48 75c24 0 41-14 43-38l32 2c-6 37-31 61-74 61-59 0-76-41-82-99-10-93 101-131 147-64 4 7 5 14 7 22l-32 3c-4-21-16-35-41-35" id="E"/><path d="M141-36C126-15 110 5 73 4 37 3 15-17 15-53c-1-64 63-63 125-63 3-35-9-54-41-54-24 1-41 7-42 31l-33-3c5-37 33-52 76-52 45 0 72 20 72 64v82c-1 20 7 32 28 27v20c-31 9-61-2-59-35zM48-53c0 20 12 33 32 33 41-3 63-29 60-74-43 2-92-5-92 41" id="F"/><path d="M59-47c-2 24 18 29 38 22v24C64 9 27 4 27-40v-127H5v-23h24l9-43h21v43h35v23H59v120" id="G"/><path d="M100-194c62-1 85 37 85 99 1 63-27 99-86 99S16-35 15-95c0-66 28-99 85-99zM99-20c44 1 53-31 53-75 0-43-8-75-51-75s-53 32-53 75 10 74 51 75" id="H"/><path d="M117-194c89-4 53 116 60 194h-32v-121c0-31-8-49-39-48C34-167 62-67 57 0H25l-1-190h30c1 10-1 24 2 32 11-22 29-35 61-36" id="I"/><g id="a"><use transform="matrix(0.05,0,0,0.05,0,0)" xlink:href="#A"/><use transform="matrix(0.05,0,0,0.05,12,0)" xlink:href="#B"/><use transform="matrix(0.05,0,0,0.05,22,0)" xlink:href="#B"/><use transform="matrix(0.05,0,0,0.05,32,0)" xlink:href="#C"/><use transform="matrix(0.05,0,0,0.05,35.95,0)" xlink:href="#D"/><use transform="matrix(0.05,0,0,0.05,39.900000000000006,0)" xlink:href="#E"/><use transform="matrix(0.05,0,0,0.05,48.900000000000006,0)" xlink:href="#F"/><use transform="matrix(0.05,0,0,0.05,58.900000000000006,0)" xlink:href="#G"/><use transform="matrix(0.05,0,0,0.05,63.900000000000006,0)" xlink:href="#D"/><use transform="matrix(0.05,0,0,0.05,67.85000000000001,0)" xlink:href="#H"/><use transform="matrix(0.05,0,0,0.05,77.85000000000001,0)" xlink:href="#I"/></g><path d="M160-131c35 5 61 23 61 61C221 17 115-2 30 0v-248c76 3 177-17 177 60 0 33-19 50-47 57zm-97-11c50-1 110 9 110-42 0-47-63-36-110-37v79zm0 115c55-2 124 14 124-45 0-56-70-42-124-44v89" id="J"/><path d="M143 0L79-87 56-68V0H24v-261h32v163l83-92h37l-77 82L181 0h-38" id="K"/><path d="M100-194c63 0 86 42 84 106H49c0 40 14 67 53 68 26 1 43-12 49-29l28 8c-11 28-37 45-77 45C44 4 14-33 15-96c1-61 26-98 85-98zm52 81c6-60-76-77-97-28-3 7-6 17-6 28h103" id="L"/><path d="M85-194c31 0 48 13 60 33l-1-100h32l1 261h-30c-2-10 0-23-3-31C134-8 116 4 85 4 32 4 16-35 15-94c0-66 23-100 70-100zm9 24c-40 0-46 34-46 75 0 40 6 74 45 74 42 0 51-32 51-76 0-42-9-74-50-73" id="M"/><g id="b"><use transform="matrix(0.05,0,0,0.05,0,0)" xlink:href="#J"/><use transform="matrix(0.05,0,0,0.05,12,0)" xlink:href="#F"/><use transform="matrix(0.05,0,0,0.05,22,0)" xlink:href="#E"/><use transform="matrix(0.05,0,0,0.05,31,0)" xlink:href="#K"/><use transform="matrix(0.05,0,0,0.05,40,0)" xlink:href="#L"/><use transform="matrix(0.05,0,0,0.05,50,0)" xlink:href="#I"/><use transform="matrix(0.05,0,0,0.05,60,0)" xlink:href="#M"/></g><path d="M30-248c118-7 216 8 213 122C240-48 200 0 122 0H30v-248zM63-27c89 8 146-16 146-99s-60-101-146-95v194" id="N"/><path d="M240 0l2-218c-23 76-54 145-80 218h-23L58-218 59 0H30v-248h44l77 211c21-75 51-140 76-211h43V0h-30" id="O"/><path d="M30 0v-248h33v221h125V0H30" id="P"/><g id="c"><use transform="matrix(0.05,0,0,0.05,0,0)" xlink:href="#N"/><use transform="matrix(0.05,0,0,0.05,12.950000000000001,0)" xlink:href="#A"/><use transform="matrix(0.05,0,0,0.05,24.950000000000003,0)" xlink:href="#O"/><use transform="matrix(0.05,0,0,0.05,39.900000000000006,0)" xlink:href="#P"/></g><path d="M185-189c-5-48-123-54-124 2 14 75 158 14 163 119 3 78-121 87-175 55-17-10-28-26-33-46l33-7c5 56 141 63 141-1 0-78-155-14-162-118-5-82 145-84 179-34 5 7 8 16 11 25" id="Q"/><path d="M115-194c53 0 69 39 70 98 0 66-23 100-70 100C84 3 66-7 56-30L54 0H23l1-261h32v101c10-23 28-34 59-34zm-8 174c40 0 45-34 45-75 0-40-5-75-45-74-42 0-51 32-51 76 0 43 10 73 51 73" id="R"/><path d="M141 0L90-78 38 0H4l68-98-65-92h35l48 74 47-74h35l-64 92 68 98h-35" id="S"/><g id="d"><use transform="matrix(0.05,0,0,0.05,0,0)" xlink:href="#Q"/><use transform="matrix(0.05,0,0,0.05,12,0)" xlink:href="#F"/><use transform="matrix(0.05,0,0,0.05,22,0)" xlink:href="#I"/><use transform="matrix(0.05,0,0,0.05,32,0)" xlink:href="#M"/><use transform="matrix(0.05,0,0,0.05,42,0)" xlink:href="#R"/><use transform="matrix(0.05,0,0,0.05,52,0)" xlink:href="#H"/><use transform="matrix(0.05,0,0,0.05,62,0)" xlink:href="#S"/></g><path d="M153-248C145-148 188 4 80 4 36 3 13-21 6-62l32-5c4 25 16 42 43 43 27 0 39-20 39-49v-147H72v-28h81" id="T"/><path d="M140-251c81 0 123 46 123 126C263-46 219 4 140 4 59 4 17-45 17-125s42-126 123-126zm0 227c63 0 89-41 89-101s-29-99-89-99c-61 0-89 39-89 99S79-25 140-24" id="U"/><path d="M190 0L58-211 59 0H30v-248h39L202-35l-2-213h31V0h-41" id="V"/><g id="e"><use transform="matrix(0.05,0,0,0.05,0,0)" xlink:href="#T"/><use transform="matrix(0.05,0,0,0.05,9,0)" xlink:href="#Q"/><use transform="matrix(0.05,0,0,0.05,21,0)" xlink:href="#U"/><use transform="matrix(0.05,0,0,0.05,35,0)" xlink:href="#V"/></g><path d="M30-248c87 1 191-15 191 75 0 78-77 80-158 76V0H30v-248zm33 125c57 0 124 11 124-50 0-59-68-47-124-48v98" id="W"/><path d="M33 0v-248h34V0H33" id="X"/><g id="f"><use transform="matrix(0.05,0,0,0.05,0,0)" xlink:href="#A"/><use transform="matrix(0.05,0,0,0.05,12,0)" xlink:href="#W"/><use transform="matrix(0.05,0,0,0.05,24,0)" xlink:href="#X"/></g><path d="M114-163C36-179 61-72 57 0H25l-1-190h30c1 12-1 29 2 39 6-27 23-49 58-41v29" id="Y"/><path d="M108 0H70L1-190h34L89-25l56-165h34" id="Z"/><g id="g"><use transform="matrix(0.05,0,0,0.05,0,0)" xlink:href="#Q"/><use transform="matrix(0.05,0,0,0.05,12,0)" xlink:href="#L"/><use transform="matrix(0.05,0,0,0.05,22,0)" xlink:href="#Y"/><use transform="matrix(0.05,0,0,0.05,27.950000000000003,0)" xlink:href="#Z"/><use transform="matrix(0.05,0,0,0.05,36.95,0)" xlink:href="#L"/><use transform="matrix(0.05,0,0,0.05,46.95,0)" xlink:href="#Y"/></g><path d="M63-220v92h138v28H63V0H30v-248h175v28H63" id="aa"/><g id="h"><use transform="matrix(0.05,0,0,0.05,0,0)" xlink:href="#aa"/><use transform="matrix(0.05,0,0,0.05,10.950000000000001,0)" xlink:href="#Y"/><use transform="matrix(0.05,0,0,0.05,16.900000000000002,0)" xlink:href="#H"/><use transform="matrix(0.05,0,0,0.05,26.900000000000002,0)" xlink:href="#I"/><use transform="matrix(0.05,0,0,0.05,36.900000000000006,0)" xlink:href="#G"/><use transform="matrix(0.05,0,0,0.05,41.900000000000006,0)" xlink:href="#L"/><use transform="matrix(0.05,0,0,0.05,51.900000000000006,0)" xlink:href="#I"/><use transform="matrix(0.05,0,0,0.05,61.900000000000006,0)" xlink:href="#M"/></g><path d="M198-261c85 0 136 45 136 128 0 61-22 111-78 115-29 2-39-18-37-44-12 23-32 44-66 44-41 0-58-28-58-68 0-60 30-105 88-108 29-1 43 15 54 32l7-28h28c-9 45-23 84-27 134-1 11 6 17 14 16 39-4 51-48 51-92 0-69-42-107-112-107-93 0-145 59-145 153C53-15 94 26 168 27c43 0 78-13 106-28l9 19c-30 18-67 32-115 32C79 50 28-1 28-86c0-107 62-175 170-175zM158-41c46 0 70-43 70-90 0-26-17-40-43-40-44 0-59 41-61 85-1 26 9 45 34 45" id="ab"/><path d="M210-169c-67 3-38 105-44 169h-31v-121c0-29-5-50-35-48C34-165 62-65 56 0H25l-1-190h30c1 10-1 24 2 32 10-44 99-50 107 0 11-21 27-35 58-36 85-2 47 119 55 194h-31v-121c0-29-5-49-35-48" id="ac"/><path d="M101-251c82-7 93 87 43 132L82-64C71-53 59-42 53-27h129V0H18c2-99 128-94 128-182 0-28-16-43-45-43s-46 15-49 41l-32-3c6-41 34-60 81-64" id="ad"/><path d="M24-231v-30h32v30H24zM-9 49c24 4 33-6 33-30v-209h32V24c2 40-23 58-65 49V49" id="ae"/><path d="M135-143c-3-34-86-38-87 0 15 53 115 12 119 90S17 21 10-45l28-5c4 36 97 45 98 0-10-56-113-15-118-90-4-57 82-63 122-42 12 7 21 19 24 35" id="af"/><g id="i"><use transform="matrix(0.05,0,0,0.05,0,0)" xlink:href="#ab"/><use transform="matrix(0.05,0,0,0.05,18.25,0)" xlink:href="#M"/><use transform="matrix(0.05,0,0,0.05,28.25,0)" xlink:href="#F"/><use transform="matrix(0.05,0,0,0.05,38.25,0)" xlink:href="#ac"/><use transform="matrix(0.05,0,0,0.05,53.2,0)" xlink:href="#C"/><use transform="matrix(0.05,0,0,0.05,57.150000000000006,0)" xlink:href="#ad"/><use transform="matrix(0.05,0,0,0.05,67.15,0)" xlink:href="#ae"/><use transform="matrix(0.05,0,0,0.05,71.10000000000001,0)" xlink:href="#af"/></g><path d="M101-234c-31-9-42 10-38 44h38v23H63V0H32v-167H5v-23h27c-7-52 17-82 69-68v24" id="ag"/><g id="j"><use transform="matrix(0.05,0,0,0.05,0,0)" xlink:href="#X"/><use transform="matrix(0.05,0,0,0.05,5,0)" xlink:href="#I"/><use transform="matrix(0.05,0,0,0.05,15,0)" xlink:href="#G"/><use transform="matrix(0.05,0,0,0.05,20,0)" xlink:href="#L"/><use transform="matrix(0.05,0,0,0.05,30,0)" xlink:href="#Y"/><use transform="matrix(0.05,0,0,0.05,35.95,0)" xlink:href="#ag"/><use transform="matrix(0.05,0,0,0.05,40.95,0)" xlink:href="#F"/><use transform="matrix(0.05,0,0,0.05,50.95,0)" xlink:href="#E"/><use transform="matrix(0.05,0,0,0.05,59.95,0)" xlink:href="#L"/></g><path d="M179-190L93 31C79 59 56 82 12 73V49c39 6 53-20 64-50L1-190h34L92-34l54-156h33" id="ah"/><g id="k"><use transform="matrix(0.05,0,0,0.05,0,0)" xlink:href="#P"/><use transform="matrix(0.05,0,0,0.05,10,0)" xlink:href="#D"/><use transform="matrix(0.05,0,0,0.05,13.949999999999998,0)" xlink:href="#R"/><use transform="matrix(0.05,0,0,0.05,23.95,0)" xlink:href="#Y"/><use transform="matrix(0.05,0,0,0.05,29.899999999999995,0)" xlink:href="#F"/><use transform="matrix(0.05,0,0,0.05,39.9,0)" xlink:href="#Y"/><use transform="matrix(0.05,0,0,0.05,45.85,0)" xlink:href="#ah"/></g><g id="l"><use transform="matrix(0.05,0,0,0.05,0,0)" xlink:href="#ab"/><use transform="matrix(0.05,0,0,0.05,18.25,0)" xlink:href="#M"/><use transform="matrix(0.05,0,0,0.05,28.25,0)" xlink:href="#F"/><use transform="matrix(0.05,0,0,0.05,38.25,0)" xlink:href="#ac"/><use transform="matrix(0.05,0,0,0.05,53.2,0)" xlink:href="#C"/></g><path d="M233-177c-1 41-23 64-60 70L243 0h-38l-65-103H63V0H30v-248c88 3 205-21 203 71zM63-129c60-2 137 13 137-47 0-61-80-42-137-45v92" id="ai"/><g id="m"><use transform="matrix(0.05,0,0,0.05,0,0)" xlink:href="#ai"/><use transform="matrix(0.05,0,0,0.05,12.950000000000001,0)" xlink:href="#L"/><use transform="matrix(0.05,0,0,0.05,22.950000000000003,0)" xlink:href="#F"/><use transform="matrix(0.05,0,0,0.05,32.95,0)" xlink:href="#E"/><use transform="matrix(0.05,0,0,0.05,41.95,0)" xlink:href="#G"/></g><g id="n"><use transform="matrix(0.05,0,0,0.05,0,0)" xlink:href="#P"/><use transform="matrix(0.05,0,0,0.05,10,0)" xlink:href="#D"/><use transform="matrix(0.05,0,0,0.05,13.949999999999998,0)" xlink:href="#R"/><use transform="matrix(0.05,0,0,0.05,23.95,0)" xlink:href="#Y"/><use transform="matrix(0.05,0,0,0.05,29.899999999999995,0)" xlink:href="#F"/><use transform="matrix(0.05,0,0,0.05,39.9,0)" xlink:href="#Y"/><use transform="matrix(0.05,0,0,0.05,45.85,0)" xlink:href="#D"/><use transform="matrix(0.05,0,0,0.05,49.800000000000004,0)" xlink:href="#L"/><use transform="matrix(0.05,0,0,0.05,59.800000000000004,0)" xlink:href="#af"/></g><g id="o"><use transform="matrix(0.05,0,0,0.05,0,0)" xlink:href="#ai"/><use transform="matrix(0.05,0,0,0.05,12.950000000000001,0)" xlink:href="#L"/><use transform="matrix(0.05,0,0,0.05,22.950000000000003,0)" xlink:href="#F"/><use transform="matrix(0.05,0,0,0.05,32.95,0)" xlink:href="#E"/><use transform="matrix(0.05,0,0,0.05,41.95,0)" xlink:href="#G"/></g><path d="M212-179c-10-28-35-45-73-45-59 0-87 40-87 99 0 60 29 101 89 101 43 0 62-24 78-52l27 14C228-24 195 4 139 4 59 4 22-46 18-125c-6-104 99-153 187-111 19 9 31 26 39 46" id="aj"/><g id="p"><use transform="matrix(0.05,0,0,0.05,0,0)" xlink:href="#aj"/><use transform="matrix(0.05,0,0,0.05,12.950000000000001,0)" xlink:href="#H"/><use transform="matrix(0.05,0,0,0.05,22.950000000000003,0)" xlink:href="#ac"/><use transform="matrix(0.05,0,0,0.05,37.900000000000006,0)" xlink:href="#B"/><use transform="matrix(0.05,0,0,0.05,47.900000000000006,0)" xlink:href="#H"/><use transform="matrix(0.05,0,0,0.05,57.900000000000006,0)" xlink:href="#I"/><use transform="matrix(0.05,0,0,0.05,67.9,0)" xlink:href="#L"/><use transform="matrix(0.05,0,0,0.05,77.9,0)" xlink:href="#I"/><use transform="matrix(0.05,0,0,0.05,87.9,0)" xlink:href="#G"/><use transform="matrix(0.05,0,0,0.05,92.9,0)" xlink:href="#af"/></g><g id="q"><use transform="matrix(0.05,0,0,0.05,0,0)" xlink:href="#N"/><use transform="matrix(0.05,0,0,0.05,12.950000000000001,0)" xlink:href="#A"/><use transform="matrix(0.05,0,0,0.05,24.950000000000003,0)" xlink:href="#ai"/></g><path d="M232-93c-1 65-40 97-104 97C67 4 28-28 28-90v-158h33c8 89-33 224 67 224 102 0 64-133 71-224h33v155" id="ak"/><g id="r"><use transform="matrix(0.05,0,0,0.05,0,0)" xlink:href="#ak"/><use transform="matrix(0.05,0,0,0.05,12.950000000000001,0)" xlink:href="#af"/><use transform="matrix(0.05,0,0,0.05,21.950000000000003,0)" xlink:href="#L"/><use transform="matrix(0.05,0,0,0.05,31.950000000000003,0)" xlink:href="#Y"/></g><g id="s"><use transform="matrix(0.05,0,0,0.05,0,0)" xlink:href="#aj"/><use transform="matrix(0.05,0,0,0.05,12.950000000000001,0)" xlink:href="#H"/><use transform="matrix(0.05,0,0,0.05,22.950000000000003,0)" xlink:href="#M"/><use transform="matrix(0.05,0,0,0.05,32.95,0)" xlink:href="#L"/></g><g id="t"><use transform="matrix(0.05,0,0,0.05,0,0)" xlink:href="#W"/><use transform="matrix(0.05,0,0,0.05,12,0)" xlink:href="#Y"/><use transform="matrix(0.05,0,0,0.05,17.95,0)" xlink:href="#H"/><use transform="matrix(0.05,0,0,0.05,27.950000000000003,0)" xlink:href="#Z"/><use transform="matrix(0.05,0,0,0.05,36.95,0)" xlink:href="#D"/><use transform="matrix(0.05,0,0,0.05,40.900000000000006,0)" xlink:href="#M"/><use transform="matrix(0.05,0,0,0.05,50.900000000000006,0)" xlink:href="#L"/><use transform="matrix(0.05,0,0,0.05,60.900000000000006,0)" xlink:href="#M"/></g><g id="u"><use transform="matrix(0.05,0,0,0.05,0,0)" xlink:href="#aj"/><use transform="matrix(0.05,0,0,0.05,12.950000000000001,0)" xlink:href="#H"/><use transform="matrix(0.05,0,0,0.05,22.950000000000003,0)" xlink:href="#ac"/><use transform="matrix(0.05,0,0,0.05,37.900000000000006,0)" xlink:href="#B"/><use transform="matrix(0.05,0,0,0.05,47.900000000000006,0)" xlink:href="#H"/><use transform="matrix(0.05,0,0,0.05,57.900000000000006,0)" xlink:href="#I"/><use transform="matrix(0.05,0,0,0.05,67.9,0)" xlink:href="#L"/><use transform="matrix(0.05,0,0,0.05,77.9,0)" xlink:href="#I"/><use transform="matrix(0.05,0,0,0.05,87.9,0)" xlink:href="#G"/></g><path d="M143 4C61 4 22-44 18-125c-5-107 100-154 193-111 17 8 29 25 37 43l-32 9c-13-25-37-40-76-40-61 0-88 39-88 99 0 61 29 100 91 101 35 0 62-11 79-27v-45h-74v-28h105v86C228-13 192 4 143 4" id="al"/><g id="v"><use transform="matrix(0.05,0,0,0.05,0,0)" xlink:href="#al"/><use transform="matrix(0.05,0,0,0.05,14,0)" xlink:href="#L"/><use transform="matrix(0.05,0,0,0.05,24,0)" xlink:href="#I"/><use transform="matrix(0.05,0,0,0.05,34,0)" xlink:href="#L"/><use transform="matrix(0.05,0,0,0.05,44,0)" xlink:href="#Y"/><use transform="matrix(0.05,0,0,0.05,49.95,0)" xlink:href="#F"/><use transform="matrix(0.05,0,0,0.05,59.95,0)" xlink:href="#G"/><use transform="matrix(0.05,0,0,0.05,64.95,0)" xlink:href="#L"/><use transform="matrix(0.05,0,0,0.05,74.95,0)" xlink:href="#M"/></g><g id="w"><use transform="matrix(0.05,0,0,0.05,0,0)" xlink:href="#ag"/><use transform="matrix(0.05,0,0,0.05,5,0)" xlink:href="#Y"/><use transform="matrix(0.05,0,0,0.05,10.95,0)" xlink:href="#H"/><use transform="matrix(0.05,0,0,0.05,20.95,0)" xlink:href="#ac"/></g><g id="x"><use transform="matrix(0.05,0,0,0.05,0,0)" xlink:href="#N"/><use transform="matrix(0.05,0,0,0.05,12.950000000000001,0)" xlink:href="#A"/><use transform="matrix(0.05,0,0,0.05,24.950000000000003,0)" xlink:href="#O"/><use transform="matrix(0.05,0,0,0.05,39.900000000000006,0)" xlink:href="#P"/></g><g id="y"><use transform="matrix(0.05,0,0,0.05,0,0)" xlink:href="#ac"/><use transform="matrix(0.05,0,0,0.05,14.950000000000001,0)" xlink:href="#H"/><use transform="matrix(0.05,0,0,0.05,24.950000000000003,0)" xlink:href="#M"/><use transform="matrix(0.05,0,0,0.05,34.95,0)" xlink:href="#L"/><use transform="matrix(0.05,0,0,0.05,44.95,0)" xlink:href="#C"/></g><g id="z"><use transform="matrix(0.05,0,0,0.05,0,0)" xlink:href="#O"/><use transform="matrix(0.05,0,0,0.05,14.950000000000001,0)" xlink:href="#H"/><use transform="matrix(0.05,0,0,0.05,24.950000000000003,0)" xlink:href="#M"/><use transform="matrix(0.05,0,0,0.05,34.95,0)" xlink:href="#L"/><use transform="matrix(0.05,0,0,0.05,44.95,0)" xlink:href="#C"/></g></defs></g></svg>