<svg xmlns="http://www.w3.org/2000/svg" xmlns:xlink="http://www.w3.org/1999/xlink" xmlns:lucid="lucid" width="654.92" height="980"><g transform="translate(-280 1200)" lucid:page-tab-id="0_0"><path d="M0-1259.2h1870.4V64H0z" fill="#fff"/><path d="M300-598.4h387.14V-240H300z" stroke="#0c7cba" stroke-width="2" fill="#fff"/><use xlink:href="#a" transform="matrix(1,0,0,1,305,-593.4000000000001) translate(0 14.4)"/><use xlink:href="#b" transform="matrix(1,0,0,1,305,-593.4000000000001) translate(54.25000000000001 14.4)"/><path d="M319.6-398.4h348.8V-260H319.6z" stroke="#0c7cba" stroke-width="2" fill="#fff"/><use xlink:href="#a" transform="matrix(1,0,0,1,324.6000000000001,-393.4000000000001) translate(0 14.4)"/><use xlink:href="#c" transform="matrix(1,0,0,1,324.6000000000001,-393.4000000000001) translate(54.25000000000001 14.4)"/><path d="M357.33-348.8h272.54v60H357.33z" stroke="#000" stroke-width="2" fill="#c7e8ac"/><use xlink:href="#a" transform="matrix(1,0,0,1,362.3292732826021,-343.8000000000002) translate(68.875 30.025)"/><use xlink:href="#d" transform="matrix(1,0,0,1,362.3292732826021,-343.8000000000002) translate(123.125 30.025)"/><path d="M357-478.4h272.55v60H357z" stroke="#000" stroke-width="2" fill="#c7e8ac"/><use xlink:href="#e" transform="matrix(1,0,0,1,362.0121801521941,-473.4000000000001) translate(61.57499999999999 30.025)"/><use xlink:href="#f" transform="matrix(1,0,0,1,362.0121801521941,-473.4000000000001) translate(114.52499999999999 30.025)"/><use xlink:href="#g" transform="matrix(1,0,0,1,362.0121801521941,-473.4000000000001) translate(148.52499999999998 30.025)"/><path d="M300-1178.4h387.14v420H300z" stroke="#0c7cba" stroke-width="2" fill="#fff"/><use xlink:href="#h" transform="matrix(1,0,0,1,305,-1173.4) translate(0 14.4)"/><path d="M356.6-860h273.27v61.6H356.6z" stroke="#000" stroke-width="2" fill="#f9d2de"/><use xlink:href="#i" transform="matrix(1,0,0,1,361.612180152194,-855) translate(24.549999999999997 30.65)"/><use xlink:href="#j" transform="matrix(1,0,0,1,361.612180152194,-855) translate(109.65 30.65)"/><use xlink:href="#k" transform="matrix(1,0,0,1,361.612180152194,-855) translate(184.60000000000002 30.65)"/><path d="M357.33-1038.4h272.54v140H357.33z" stroke="#000" stroke-width="2" fill="#c7e8ac"/><use xlink:href="#l" transform="matrix(1,0,0,1,362.3292732826021,-1033.4) translate(40.04999999999998 67.2125)"/><use xlink:href="#m" transform="matrix(1,0,0,1,362.3292732826021,-1033.4) translate(102.19999999999999 67.2125)"/><use xlink:href="#n" transform="matrix(1,0,0,1,362.3292732826021,-1033.4) translate(154.14999999999998 67.2125)"/><path d="M356.6-1138.4h273.27v61.6H356.6z" stroke="#000" stroke-width="2" fill="#fff"/><use xlink:href="#o" transform="matrix(1,0,0,1,361.612180152194,-1133.4) translate(55.07499999999999 30.65)"/><use xlink:href="#p" transform="matrix(1,0,0,1,361.612180152194,-1133.4) translate(107.02499999999999 30.65)"/><path d="M488-558.4h141.55v60H488z" stroke="#000" stroke-width="2" fill="#f9d2de"/><use xlink:href="#q" transform="matrix(1,0,0,1,493.0000000000002,-553.4000000000001) translate(47.05 30.025)"/><path d="M720-1180h194.92v60H720z" stroke="#000" stroke-width="2" fill="#fff"/><use xlink:href="#r" transform="matrix(1,0,0,1,725,-1175) translate(0 14.4)"/><use xlink:href="#s" transform="matrix(1,0,0,1,725,-1175) translate(42.900000000000006 14.4)"/><path d="M720-1098.4h194.92v60H720z" stroke="#000" stroke-width="2" fill="#c7e8ac"/><use xlink:href="#t" transform="matrix(1,0,0,1,725,-1093.4) translate(0 14.4)"/><use xlink:href="#u" transform="matrix(1,0,0,1,725,-1093.4) translate(75.9 14.4)"/><path d="M493.6-896.4v17.2h-.06" stroke="#000" stroke-width="2" fill="none"/><path d="M494.6-896.37h-2v-1.03h2z"/><path d="M493.3-864.24l-4.4-14.34 9.27.16z" stroke="#000" stroke-width="2"/><path d="M493.28-416.4v41.5h.32v6.6" stroke="#000" stroke-width="2" fill="none"/><path d="M494.28-416.37h-2v-1.03h2z"/><path d="M493.6-353.04l-4.64-14.26h9.28z" stroke="#000" stroke-width="2"/><path d="M493.24-1074.8v17.2h.06" stroke="#000" stroke-width="2" fill="none"/><path d="M494.24-1074.77h-2v-1.03h2z"/><path d="M493.55-1042.64l-4.87-14.18 9.26-.16z" stroke="#000" stroke-width="2"/><path d="M720-1016.8h194.92v60H720z" stroke="#000" stroke-width="2" fill="#f9d2de"/><g><use xlink:href="#v" transform="matrix(1,0,0,1,725,-1011.8000000000002) translate(0 14.4)"/><use xlink:href="#w" transform="matrix(1,0,0,1,725,-1011.8000000000002) translate(89.95 14.4)"/><use xlink:href="#x" transform="matrix(1,0,0,1,725,-1011.8000000000002) translate(130.85 14.4)"/><use xlink:href="#y" transform="matrix(1,0,0,1,725,-1011.8000000000002) translate(0 36)"/></g><path d="M493.6-756.4v138.5" stroke="#000" stroke-width="2" fill="none"/><path d="M494.6-756.37h-2v-1.03h2z"/><path d="M493.6-602.64l-4.64-14.26h9.28z" stroke="#000" stroke-width="2"/><path d="M558.78-560.4v-218.5" stroke="#000" stroke-width="2" fill="none"/><path d="M559.78-559.4h-2v-1.03h2z"/><path d="M558.78-794.16l4.63 14.26h-9.26z" stroke="#000" stroke-width="2"/><path d="M357.33-558.4H488v60H357.33z" stroke="#000" stroke-width="2" fill="#fff"/><g><use xlink:href="#a" transform="matrix(1,0,0,1,362.3292732826021,-553.4000000000001) translate(8.924999999999997 30.025)"/><use xlink:href="#z" transform="matrix(1,0,0,1,362.3292732826021,-553.4000000000001) translate(63.175000000000004 30.025)"/></g><defs><path d="M30-248c118-7 216 8 213 122C240-48 200 0 122 0H30v-248zM63-27c89 8 146-16 146-99s-60-101-146-95v194" id="A"/><path d="M205 0l-28-72H64L36 0H1l101-248h38L239 0h-34zm-38-99l-47-123c-12 45-31 82-46 123h93" id="B"/><path d="M240 0l2-218c-23 76-54 145-80 218h-23L58-218 59 0H30v-248h44l77 211c21-75 51-140 76-211h43V0h-30" id="C"/><path d="M30 0v-248h33v221h125V0H30" id="D"/><g id="a"><use transform="matrix(0.05,0,0,0.05,0,0)" xlink:href="#A"/><use transform="matrix(0.05,0,0,0.05,12.950000000000001,0)" xlink:href="#B"/><use transform="matrix(0.05,0,0,0.05,24.950000000000003,0)" xlink:href="#C"/><use transform="matrix(0.05,0,0,0.05,39.900000000000006,0)" xlink:href="#D"/></g><path d="M30-248c87 1 191-15 191 75 0 78-77 80-158 76V0H30v-248zm33 125c57 0 124 11 124-50 0-59-68-47-124-48v98" id="E"/><path d="M24 0v-261h32V0H24" id="F"/><path d="M141-36C126-15 110 5 73 4 37 3 15-17 15-53c-1-64 63-63 125-63 3-35-9-54-41-54-24 1-41 7-42 31l-33-3c5-37 33-52 76-52 45 0 72 20 72 64v82c-1 20 7 32 28 27v20c-31 9-61-2-59-35zM48-53c0 20 12 33 32 33 41-3 63-29 60-74-43 2-92-5-92 41" id="G"/><path d="M59-47c-2 24 18 29 38 22v24C64 9 27 4 27-40v-127H5v-23h24l9-43h21v43h35v23H59v120" id="H"/><path d="M101-234c-31-9-42 10-38 44h38v23H63V0H32v-167H5v-23h27c-7-52 17-82 69-68v24" id="I"/><path d="M100-194c62-1 85 37 85 99 1 63-27 99-86 99S16-35 15-95c0-66 28-99 85-99zM99-20c44 1 53-31 53-75 0-43-8-75-51-75s-53 32-53 75 10 74 51 75" id="J"/><path d="M114-163C36-179 61-72 57 0H25l-1-190h30c1 12-1 29 2 39 6-27 23-49 58-41v29" id="K"/><path d="M210-169c-67 3-38 105-44 169h-31v-121c0-29-5-50-35-48C34-165 62-65 56 0H25l-1-190h30c1 10-1 24 2 32 10-44 99-50 107 0 11-21 27-35 58-36 85-2 47 119 55 194h-31v-121c0-29-5-49-35-48" id="L"/><g id="b"><use transform="matrix(0.05,0,0,0.05,0,0)" xlink:href="#E"/><use transform="matrix(0.05,0,0,0.05,12,0)" xlink:href="#F"/><use transform="matrix(0.05,0,0,0.05,15.949999999999998,0)" xlink:href="#G"/><use transform="matrix(0.05,0,0,0.05,25.950000000000003,0)" xlink:href="#H"/><use transform="matrix(0.05,0,0,0.05,30.950000000000003,0)" xlink:href="#I"/><use transform="matrix(0.05,0,0,0.05,35.95,0)" xlink:href="#J"/><use transform="matrix(0.05,0,0,0.05,45.95,0)" xlink:href="#K"/><use transform="matrix(0.05,0,0,0.05,51.900000000000006,0)" xlink:href="#L"/></g><path d="M100-194c63 0 86 42 84 106H49c0 40 14 67 53 68 26 1 43-12 49-29l28 8c-11 28-37 45-77 45C44 4 14-33 15-96c1-61 26-98 85-98zm52 81c6-60-76-77-97-28-3 7-6 17-6 28h103" id="M"/><path d="M85-194c31 0 48 13 60 33l-1-100h32l1 261h-30c-2-10 0-23-3-31C134-8 116 4 85 4 32 4 16-35 15-94c0-66 23-100 70-100zm9 24c-40 0-46 34-46 75 0 40 6 74 45 74 42 0 51-32 51-76 0-42-9-74-50-73" id="N"/><path d="M177-190C167-65 218 103 67 71c-23-6-38-20-44-43l32-5c15 47 100 32 89-28v-30C133-14 115 1 83 1 29 1 15-40 15-95c0-56 16-97 71-98 29-1 48 16 59 35 1-10 0-23 2-32h30zM94-22c36 0 50-32 50-73 0-42-14-75-50-75-39 0-46 34-46 75s6 73 46 73" id="O"/><g id="c"><use transform="matrix(0.05,0,0,0.05,0,0)" xlink:href="#D"/><use transform="matrix(0.05,0,0,0.05,10,0)" xlink:href="#M"/><use transform="matrix(0.05,0,0,0.05,20,0)" xlink:href="#N"/><use transform="matrix(0.05,0,0,0.05,30,0)" xlink:href="#O"/><use transform="matrix(0.05,0,0,0.05,40,0)" xlink:href="#M"/><use transform="matrix(0.05,0,0,0.05,50,0)" xlink:href="#K"/></g><path d="M185-189c-5-48-123-54-124 2 14 75 158 14 163 119 3 78-121 87-175 55-17-10-28-26-33-46l33-7c5 56 141 63 141-1 0-78-155-14-162-118-5-82 145-84 179-34 5 7 8 16 11 25" id="P"/><path d="M117-194c89-4 53 116 60 194h-32v-121c0-31-8-49-39-48C34-167 62-67 57 0H25l-1-190h30c1 10-1 24 2 32 11-22 29-35 61-36" id="Q"/><path d="M115-194c53 0 69 39 70 98 0 66-23 100-70 100C84 3 66-7 56-30L54 0H23l1-261h32v101c10-23 28-34 59-34zm-8 174c40 0 45-34 45-75 0-40-5-75-45-74-42 0-51 32-51 76 0 43 10 73 51 73" id="R"/><path d="M141 0L90-78 38 0H4l68-98-65-92h35l48 74 47-74h35l-64 92 68 98h-35" id="S"/><g id="d"><use transform="matrix(0.05,0,0,0.05,0,0)" xlink:href="#P"/><use transform="matrix(0.05,0,0,0.05,12,0)" xlink:href="#G"/><use transform="matrix(0.05,0,0,0.05,22,0)" xlink:href="#Q"/><use transform="matrix(0.05,0,0,0.05,32,0)" xlink:href="#N"/><use transform="matrix(0.05,0,0,0.05,42,0)" xlink:href="#R"/><use transform="matrix(0.05,0,0,0.05,52,0)" xlink:href="#J"/><use transform="matrix(0.05,0,0,0.05,62,0)" xlink:href="#S"/></g><path d="M153-248C145-148 188 4 80 4 36 3 13-21 6-62l32-5c4 25 16 42 43 43 27 0 39-20 39-49v-147H72v-28h81" id="T"/><path d="M140-251c81 0 123 46 123 126C263-46 219 4 140 4 59 4 17-45 17-125s42-126 123-126zm0 227c63 0 89-41 89-101s-29-99-89-99c-61 0-89 39-89 99S79-25 140-24" id="U"/><path d="M190 0L58-211 59 0H30v-248h39L202-35l-2-213h31V0h-41" id="V"/><g id="e"><use transform="matrix(0.05,0,0,0.05,0,0)" xlink:href="#T"/><use transform="matrix(0.05,0,0,0.05,9,0)" xlink:href="#P"/><use transform="matrix(0.05,0,0,0.05,21,0)" xlink:href="#U"/><use transform="matrix(0.05,0,0,0.05,35,0)" xlink:href="#V"/></g><path d="M33 0v-248h34V0H33" id="W"/><g id="f"><use transform="matrix(0.05,0,0,0.05,0,0)" xlink:href="#B"/><use transform="matrix(0.05,0,0,0.05,12,0)" xlink:href="#E"/><use transform="matrix(0.05,0,0,0.05,24,0)" xlink:href="#W"/></g><path d="M108 0H70L1-190h34L89-25l56-165h34" id="X"/><g id="g"><use transform="matrix(0.05,0,0,0.05,0,0)" xlink:href="#P"/><use transform="matrix(0.05,0,0,0.05,12,0)" xlink:href="#M"/><use transform="matrix(0.05,0,0,0.05,22,0)" xlink:href="#K"/><use transform="matrix(0.05,0,0,0.05,27.950000000000003,0)" xlink:href="#X"/><use transform="matrix(0.05,0,0,0.05,36.95,0)" xlink:href="#M"/><use transform="matrix(0.05,0,0,0.05,46.95,0)" xlink:href="#K"/></g><path d="M63-220v92h138v28H63V0H30v-248h175v28H63" id="Y"/><g id="h"><use transform="matrix(0.05,0,0,0.05,0,0)" xlink:href="#Y"/><use transform="matrix(0.05,0,0,0.05,10.950000000000001,0)" xlink:href="#K"/><use transform="matrix(0.05,0,0,0.05,16.900000000000002,0)" xlink:href="#J"/><use transform="matrix(0.05,0,0,0.05,26.900000000000002,0)" xlink:href="#Q"/><use transform="matrix(0.05,0,0,0.05,36.900000000000006,0)" xlink:href="#H"/><use transform="matrix(0.05,0,0,0.05,41.900000000000006,0)" xlink:href="#M"/><use transform="matrix(0.05,0,0,0.05,51.900000000000006,0)" xlink:href="#Q"/><use transform="matrix(0.05,0,0,0.05,61.900000000000006,0)" xlink:href="#N"/></g><path d="M198-261c85 0 136 45 136 128 0 61-22 111-78 115-29 2-39-18-37-44-12 23-32 44-66 44-41 0-58-28-58-68 0-60 30-105 88-108 29-1 43 15 54 32l7-28h28c-9 45-23 84-27 134-1 11 6 17 14 16 39-4 51-48 51-92 0-69-42-107-112-107-93 0-145 59-145 153C53-15 94 26 168 27c43 0 78-13 106-28l9 19c-30 18-67 32-115 32C79 50 28-1 28-86c0-107 62-175 170-175zM158-41c46 0 70-43 70-90 0-26-17-40-43-40-44 0-59 41-61 85-1 26 9 45 34 45" id="Z"/><path d="M101-251c82-7 93 87 43 132L82-64C71-53 59-42 53-27h129V0H18c2-99 128-94 128-182 0-28-16-43-45-43s-46 15-49 41l-32-3c6-41 34-60 81-64" id="aa"/><path d="M24-231v-30h32v30H24zM-9 49c24 4 33-6 33-30v-209h32V24c2 40-23 58-65 49V49" id="ab"/><path d="M135-143c-3-34-86-38-87 0 15 53 115 12 119 90S17 21 10-45l28-5c4 36 97 45 98 0-10-56-113-15-118-90-4-57 82-63 122-42 12 7 21 19 24 35" id="ac"/><g id="i"><use transform="matrix(0.05,0,0,0.05,0,0)" xlink:href="#Z"/><use transform="matrix(0.05,0,0,0.05,18.25,0)" xlink:href="#N"/><use transform="matrix(0.05,0,0,0.05,28.25,0)" xlink:href="#G"/><use transform="matrix(0.05,0,0,0.05,38.25,0)" xlink:href="#L"/><use transform="matrix(0.05,0,0,0.05,53.2,0)" xlink:href="#F"/><use transform="matrix(0.05,0,0,0.05,57.150000000000006,0)" xlink:href="#aa"/><use transform="matrix(0.05,0,0,0.05,67.15,0)" xlink:href="#ab"/><use transform="matrix(0.05,0,0,0.05,71.10000000000001,0)" xlink:href="#ac"/></g><path d="M96-169c-40 0-48 33-48 73s9 75 48 75c24 0 41-14 43-38l32 2c-6 37-31 61-74 61-59 0-76-41-82-99-10-93 101-131 147-64 4 7 5 14 7 22l-32 3c-4-21-16-35-41-35" id="ad"/><g id="j"><use transform="matrix(0.05,0,0,0.05,0,0)" xlink:href="#W"/><use transform="matrix(0.05,0,0,0.05,5,0)" xlink:href="#Q"/><use transform="matrix(0.05,0,0,0.05,15,0)" xlink:href="#H"/><use transform="matrix(0.05,0,0,0.05,20,0)" xlink:href="#M"/><use transform="matrix(0.05,0,0,0.05,30,0)" xlink:href="#K"/><use transform="matrix(0.05,0,0,0.05,35.95,0)" xlink:href="#I"/><use transform="matrix(0.05,0,0,0.05,40.95,0)" xlink:href="#G"/><use transform="matrix(0.05,0,0,0.05,50.95,0)" xlink:href="#ad"/><use transform="matrix(0.05,0,0,0.05,59.95,0)" xlink:href="#M"/></g><path d="M24-231v-30h32v30H24zM24 0v-190h32V0H24" id="ae"/><path d="M179-190L93 31C79 59 56 82 12 73V49c39 6 53-20 64-50L1-190h34L92-34l54-156h33" id="af"/><g id="k"><use transform="matrix(0.05,0,0,0.05,0,0)" xlink:href="#D"/><use transform="matrix(0.05,0,0,0.05,10,0)" xlink:href="#ae"/><use transform="matrix(0.05,0,0,0.05,13.949999999999998,0)" xlink:href="#R"/><use transform="matrix(0.05,0,0,0.05,23.95,0)" xlink:href="#K"/><use transform="matrix(0.05,0,0,0.05,29.899999999999995,0)" xlink:href="#G"/><use transform="matrix(0.05,0,0,0.05,39.9,0)" xlink:href="#K"/><use transform="matrix(0.05,0,0,0.05,45.85,0)" xlink:href="#af"/></g><g id="l"><use transform="matrix(0.05,0,0,0.05,0,0)" xlink:href="#Z"/><use transform="matrix(0.05,0,0,0.05,18.25,0)" xlink:href="#N"/><use transform="matrix(0.05,0,0,0.05,28.25,0)" xlink:href="#G"/><use transform="matrix(0.05,0,0,0.05,38.25,0)" xlink:href="#L"/><use transform="matrix(0.05,0,0,0.05,53.2,0)" xlink:href="#F"/></g><path d="M233-177c-1 41-23 64-60 70L243 0h-38l-65-103H63V0H30v-248c88 3 205-21 203 71zM63-129c60-2 137 13 137-47 0-61-80-42-137-45v92" id="ag"/><g id="m"><use transform="matrix(0.05,0,0,0.05,0,0)" xlink:href="#ag"/><use transform="matrix(0.05,0,0,0.05,12.950000000000001,0)" xlink:href="#M"/><use transform="matrix(0.05,0,0,0.05,22.950000000000003,0)" xlink:href="#G"/><use transform="matrix(0.05,0,0,0.05,32.95,0)" xlink:href="#ad"/><use transform="matrix(0.05,0,0,0.05,41.95,0)" xlink:href="#H"/></g><g id="n"><use transform="matrix(0.05,0,0,0.05,0,0)" xlink:href="#D"/><use transform="matrix(0.05,0,0,0.05,10,0)" xlink:href="#ae"/><use transform="matrix(0.05,0,0,0.05,13.949999999999998,0)" xlink:href="#R"/><use transform="matrix(0.05,0,0,0.05,23.95,0)" xlink:href="#K"/><use transform="matrix(0.05,0,0,0.05,29.899999999999995,0)" xlink:href="#G"/><use transform="matrix(0.05,0,0,0.05,39.9,0)" xlink:href="#K"/><use transform="matrix(0.05,0,0,0.05,45.85,0)" xlink:href="#ae"/><use transform="matrix(0.05,0,0,0.05,49.800000000000004,0)" xlink:href="#M"/><use transform="matrix(0.05,0,0,0.05,59.800000000000004,0)" xlink:href="#ac"/></g><g id="o"><use transform="matrix(0.05,0,0,0.05,0,0)" xlink:href="#ag"/><use transform="matrix(0.05,0,0,0.05,12.950000000000001,0)" xlink:href="#M"/><use transform="matrix(0.05,0,0,0.05,22.950000000000003,0)" xlink:href="#G"/><use transform="matrix(0.05,0,0,0.05,32.95,0)" xlink:href="#ad"/><use transform="matrix(0.05,0,0,0.05,41.95,0)" xlink:href="#H"/></g><path d="M212-179c-10-28-35-45-73-45-59 0-87 40-87 99 0 60 29 101 89 101 43 0 62-24 78-52l27 14C228-24 195 4 139 4 59 4 22-46 18-125c-6-104 99-153 187-111 19 9 31 26 39 46" id="ah"/><path d="M115-194c55 1 70 41 70 98S169 2 115 4C84 4 66-9 55-30l1 105H24l-1-265h31l2 30c10-21 28-34 59-34zm-8 174c40 0 45-34 45-75s-6-73-45-74c-42 0-51 32-51 76 0 43 10 73 51 73" id="ai"/><g id="p"><use transform="matrix(0.05,0,0,0.05,0,0)" xlink:href="#ah"/><use transform="matrix(0.05,0,0,0.05,12.950000000000001,0)" xlink:href="#J"/><use transform="matrix(0.05,0,0,0.05,22.950000000000003,0)" xlink:href="#L"/><use transform="matrix(0.05,0,0,0.05,37.900000000000006,0)" xlink:href="#ai"/><use transform="matrix(0.05,0,0,0.05,47.900000000000006,0)" xlink:href="#J"/><use transform="matrix(0.05,0,0,0.05,57.900000000000006,0)" xlink:href="#Q"/><use transform="matrix(0.05,0,0,0.05,67.9,0)" xlink:href="#M"/><use transform="matrix(0.05,0,0,0.05,77.9,0)" xlink:href="#Q"/><use transform="matrix(0.05,0,0,0.05,87.9,0)" xlink:href="#H"/><use transform="matrix(0.05,0,0,0.05,92.9,0)" xlink:href="#ac"/></g><g id="q"><use transform="matrix(0.05,0,0,0.05,0,0)" xlink:href="#A"/><use transform="matrix(0.05,0,0,0.05,12.950000000000001,0)" xlink:href="#B"/><use transform="matrix(0.05,0,0,0.05,24.950000000000003,0)" xlink:href="#ag"/></g><path d="M232-93c-1 65-40 97-104 97C67 4 28-28 28-90v-158h33c8 89-33 224 67 224 102 0 64-133 71-224h33v155" id="aj"/><g id="r"><use transform="matrix(0.05,0,0,0.05,0,0)" xlink:href="#aj"/><use transform="matrix(0.05,0,0,0.05,12.950000000000001,0)" xlink:href="#ac"/><use transform="matrix(0.05,0,0,0.05,21.950000000000003,0)" xlink:href="#M"/><use transform="matrix(0.05,0,0,0.05,31.950000000000003,0)" xlink:href="#K"/></g><g id="s"><use transform="matrix(0.05,0,0,0.05,0,0)" xlink:href="#ah"/><use transform="matrix(0.05,0,0,0.05,12.950000000000001,0)" xlink:href="#J"/><use transform="matrix(0.05,0,0,0.05,22.950000000000003,0)" xlink:href="#N"/><use transform="matrix(0.05,0,0,0.05,32.95,0)" xlink:href="#M"/></g><g id="t"><use transform="matrix(0.05,0,0,0.05,0,0)" xlink:href="#E"/><use transform="matrix(0.05,0,0,0.05,12,0)" xlink:href="#K"/><use transform="matrix(0.05,0,0,0.05,17.95,0)" xlink:href="#J"/><use transform="matrix(0.05,0,0,0.05,27.950000000000003,0)" xlink:href="#X"/><use transform="matrix(0.05,0,0,0.05,36.95,0)" xlink:href="#ae"/><use transform="matrix(0.05,0,0,0.05,40.900000000000006,0)" xlink:href="#N"/><use transform="matrix(0.05,0,0,0.05,50.900000000000006,0)" xlink:href="#M"/><use transform="matrix(0.05,0,0,0.05,60.900000000000006,0)" xlink:href="#N"/></g><g id="u"><use transform="matrix(0.05,0,0,0.05,0,0)" xlink:href="#ah"/><use transform="matrix(0.05,0,0,0.05,12.950000000000001,0)" xlink:href="#J"/><use transform="matrix(0.05,0,0,0.05,22.950000000000003,0)" xlink:href="#L"/><use transform="matrix(0.05,0,0,0.05,37.900000000000006,0)" xlink:href="#ai"/><use transform="matrix(0.05,0,0,0.05,47.900000000000006,0)" xlink:href="#J"/><use transform="matrix(0.05,0,0,0.05,57.900000000000006,0)" xlink:href="#Q"/><use transform="matrix(0.05,0,0,0.05,67.9,0)" xlink:href="#M"/><use transform="matrix(0.05,0,0,0.05,77.9,0)" xlink:href="#Q"/><use transform="matrix(0.05,0,0,0.05,87.9,0)" xlink:href="#H"/></g><path d="M143 4C61 4 22-44 18-125c-5-107 100-154 193-111 17 8 29 25 37 43l-32 9c-13-25-37-40-76-40-61 0-88 39-88 99 0 61 29 100 91 101 35 0 62-11 79-27v-45h-74v-28h105v86C228-13 192 4 143 4" id="ak"/><g id="v"><use transform="matrix(0.05,0,0,0.05,0,0)" xlink:href="#ak"/><use transform="matrix(0.05,0,0,0.05,14,0)" xlink:href="#M"/><use transform="matrix(0.05,0,0,0.05,24,0)" xlink:href="#Q"/><use transform="matrix(0.05,0,0,0.05,34,0)" xlink:href="#M"/><use transform="matrix(0.05,0,0,0.05,44,0)" xlink:href="#K"/><use transform="matrix(0.05,0,0,0.05,49.95,0)" xlink:href="#G"/><use transform="matrix(0.05,0,0,0.05,59.95,0)" xlink:href="#H"/><use transform="matrix(0.05,0,0,0.05,64.95,0)" xlink:href="#M"/><use transform="matrix(0.05,0,0,0.05,74.95,0)" xlink:href="#N"/></g><g id="w"><use transform="matrix(0.05,0,0,0.05,0,0)" xlink:href="#I"/><use transform="matrix(0.05,0,0,0.05,5,0)" xlink:href="#K"/><use transform="matrix(0.05,0,0,0.05,10.95,0)" xlink:href="#J"/><use transform="matrix(0.05,0,0,0.05,20.95,0)" xlink:href="#L"/></g><g id="x"><use transform="matrix(0.05,0,0,0.05,0,0)" xlink:href="#A"/><use transform="matrix(0.05,0,0,0.05,12.950000000000001,0)" xlink:href="#B"/><use transform="matrix(0.05,0,0,0.05,24.950000000000003,0)" xlink:href="#C"/><use transform="matrix(0.05,0,0,0.05,39.900000000000006,0)" xlink:href="#D"/></g><g id="y"><use transform="matrix(0.05,0,0,0.05,0,0)" xlink:href="#L"/><use transform="matrix(0.05,0,0,0.05,14.950000000000001,0)" xlink:href="#J"/><use transform="matrix(0.05,0,0,0.05,24.950000000000003,0)" xlink:href="#N"/><use transform="matrix(0.05,0,0,0.05,34.95,0)" xlink:href="#M"/><use transform="matrix(0.05,0,0,0.05,44.95,0)" xlink:href="#F"/></g><g id="z"><use transform="matrix(0.05,0,0,0.05,0,0)" xlink:href="#C"/><use transform="matrix(0.05,0,0,0.05,14.950000000000001,0)" xlink:href="#J"/><use transform="matrix(0.05,0,0,0.05,24.950000000000003,0)" xlink:href="#N"/><use transform="matrix(0.05,0,0,0.05,34.95,0)" xlink:href="#M"/><use transform="matrix(0.05,0,0,0.05,44.95,0)" xlink:href="#F"/></g></defs></g></svg>