<svg xmlns="http://www.w3.org/2000/svg" xmlns:xlink="http://www.w3.org/1999/xlink" xmlns:lucid="lucid" width="701" height="453.02"><g transform="translate(1701 1360.5)" lucid:page-tab-id="0_0"><path d="M-1460.76-1216.86H-1539v-.95h78.24zm133.38 0h-62.36v-.95h62.36z" stroke="#ba23f6" stroke-width=".05" fill="#ba23f6"/><path d="M-1539-1216.86h-.5v-.95h.5z" fill="#ba23f6"/><path stroke="#ba23f6" stroke-width=".05" fill="#ba23f6"/><path d="M-1312.62-1217.33l-14.26 4.63v-9.27z" fill="#ba23f6"/><path d="M-1311.08-1217.33l-16.28 5.3v-10.6zm-15.33 3.98l12.25-3.98-12.26-4z" stroke="#ba23f6" stroke-width=".05" fill="#ba23f6"/><use xlink:href="#a" transform="matrix(1,0,0,1,-1460.76220703125,-1228.222981770833) translate(0.005000000000002558 17.4375)"/><path d="M-1229.53-1057.38h-.94v-18.4h.94zm0-40.18h-.94V-1159h.94z" stroke="#ba23f6" stroke-width=".05" fill="#ba23f6"/><path d="M-1229.53-1159h-.94v-.5h.94z" fill="#ba23f6"/><path stroke="#ba23f6" stroke-width=".05" fill="#ba23f6"/><path d="M-1230-1042.62l-4.63-14.26h9.27z" fill="#ba23f6"/><path d="M-1230-1041.08l-5.3-16.28h10.6zm-3.98-15.33l3.98 12.25 3.98-12.26z" stroke="#ba23f6" stroke-width=".05" fill="#ba23f6"/><use xlink:href="#b" transform="matrix(1,0,0,1,-1295.40380859375,-1097.5563151041663) translate(0.0049999999999954525 17.4375)"/><path d="M-1240-1152a8 8 0 0 1 8-8h224a8 8 0 0 1 8 8v44a8 8 0 0 1-8 8h-224a8 8 0 0 1-8-8z" fill="none"/><use xlink:href="#c" transform="matrix(1,0,0,1,-1240,-1160) translate(32.9619140625 36.5478515625)"/><use xlink:href="#d" transform="matrix(1,0,0,1,-1240,-1160) translate(73.857421875 36.5478515625)"/><use xlink:href="#e" transform="matrix(1,0,0,1,-1240,-1160) translate(90.8291015625 36.5478515625)"/><path d="M-1300-1040h136l24 24v96h-160z" stroke="#54c45e" stroke-width="2" fill="#c3f7c8"/><path d="M-1164-1039.05v23.05h23.05" stroke="#54c45e" stroke-width="2" fill="#c3f7c8"/><path d="M-1300-992.02h160V-908h-160z" stroke="#000" fill="#fff"/><use xlink:href="#f" transform="matrix(1,0,0,1,-1295,-987.0248046875) translate(24.849609375 17.912695312500006)"/><use xlink:href="#g" transform="matrix(1,0,0,1,-1295,-987.0248046875) translate(45.2578125 44.0478515625)"/><use xlink:href="#h" transform="matrix(1,0,0,1,-1295,-987.0248046875) translate(29.15185546875 70.1830078125)"/><path d="M-1300-1032a8 8 0 0 1 8-8h144a8 8 0 0 1 8 8v44a8 8 0 0 1-8 8h-144a8 8 0 0 1-8-8z" fill="none"/><use xlink:href="#i" transform="matrix(1,0,0,1,-1300,-1040) translate(60.5322265625 36.5478515625)"/><path d="M-1310-1280h136l24 24v96h-160z" stroke="#fe3434" stroke-width="2" fill="#ffb5b5"/><path d="M-1174-1279.05v23.05h23.05" stroke="#fe3434" stroke-width="2" fill="#ffb5b5"/><path d="M-1310-1220h160v60h-160z" stroke="#000" fill="#fff"/><use xlink:href="#j" transform="matrix(1,0,0,1,-1305,-1215) translate(13.107421875 18.480273437500003)"/><use xlink:href="#k" transform="matrix(1,0,0,1,-1305,-1215) translate(78.708984375 18.480273437500003)"/><use xlink:href="#l" transform="matrix(1,0,0,1,-1305,-1215) translate(29.15185546875 44.6154296875)"/><path d="M-1310-1272a8 8 0 0 1 8-8h144a8 8 0 0 1 8 8v44a8 8 0 0 1-8 8h-144a8 8 0 0 1-8-8z" fill="none"/><use xlink:href="#m" transform="matrix(1,0,0,1,-1310,-1280) translate(7.07275390625 36.5478515625)"/><path d="M-1700-1280h136l24 24v96h-160z" stroke="#fe3434" stroke-width="2" fill="#ffb5b5"/><path d="M-1564-1279.05v23.05h23.05" stroke="#fe3434" stroke-width="2" fill="#ffb5b5"/><path d="M-1700-1220h160v60h-160z" stroke="#000" fill="#fff"/><use xlink:href="#n" transform="matrix(1,0,0,1,-1695,-1215) translate(13.00634765625 18.480273437500003)"/><use xlink:href="#g" transform="matrix(1,0,0,1,-1695,-1215) translate(77.50927734375 18.480273437500003)"/><use xlink:href="#o" transform="matrix(1,0,0,1,-1695,-1215) translate(48.5009765625 44.6154296875)"/><path d="M-1700-1272a8 8 0 0 1 8-8h144a8 8 0 0 1 8 8v44a8 8 0 0 1-8 8h-144a8 8 0 0 1-8-8z" fill="none"/><g><use xlink:href="#i" transform="matrix(1,0,0,1,-1700,-1280) translate(60.5322265625 36.5478515625)"/></g><path d="M-1230-1281.5v-5.54m0-5.54v-11.1m0-5.53v-11.1m0-5.53v-11.1m0-5.53v-5.54l-.15-1.88-.44-1.83-.7-1.75-.34-.53m-4.38-4.38l-.53-.33-1.74-.7-1.82-.45-1.88-.15h-5.03m-5.03 0h-10.05m-5.04 0h-10.05m-5.02 0h-10.06m-5.03 0h-10.06m-5.03 0h-10.04m-5.03 0h-10.06m-5.03 0h-10.05m-5.04 0h-10.05m-5.02 0h-10.06m-5.03 0h-10.06m-5.03 0h-10.04m-5.03 0h-10.06m-5.03 0h-10.05m-5.04 0h-10.05m-5.02 0h-10.06m-5.03 0h-10.06m-5.03 0h-10.04m-5.03 0h-10.06m-5.03 0h-10.05m-5.04 0h-10.05m-5.02 0h-10.06m-5.03 0h-10.06m-5.03 0h-10.04m-5.03 0h-5.03l-1.88.15-1.83.44-1.75.7-.53.34m-4.38 4.38l-.33.53-.7 1.74-.45 1.82-.15 1.88v5.73m0 5.74v11.47m0 5.74v11.47m0 5.73v5.74" stroke="#ba23f6" fill="none"/><path d="M-1229.53-1281h-.94v-.5h.94z" stroke="#ba23f6" stroke-width=".05" fill="#ba23f6"/><path d="M-1616-1281.62l-4.63-14.26h9.27z" stroke="#ba23f6" fill="#ba23f6"/><path d="M-1511.33-1220c0 8.28-6.42 15-14.34 15-7.9 0-14.33-6.72-14.33-15 0-8.28 6.42-15 14.33-15 7.92 0 14.34 6.72 14.34 15zm-24.47-10.6l20.27 21.2m-20.27 0l20.27-21.2M-1215.67-1145c0 8.28-6.4 15-14.33 15-7.92 0-14.33-6.72-14.33-15 0-8.28 6.4-15 14.33-15 7.92 0 14.33 6.72 14.33 15zm-24.47-10.6l20.28 21.2m-20.28 0l20.28-21.2" stroke="#000" stroke-width="2" fill="#ffb5b5"/><defs><path fill="#3a414a" d="M98-1322v-168h1126v168H757V0H567v-1322H98" id="p"/><path fill="#3a414a" d="M158 0v-1118h174v172h12c41-113 157-188 290-188 26 0 70 2 91 3v181c-11-2-60-10-108-10-161 0-279 109-279 260V0H158" id="q"/><path fill="#3a414a" d="M471 26C259 26 90-98 90-318c0-256 228-303 435-329 202-27 287-16 287-108 0-139-79-219-234-219-161 0-248 86-283 164l-173-57c86-203 278-265 451-265 150 0 419 46 419 395V0H815v-152h-12C765-73 660 26 471 26zm31-159c199 0 310-134 310-271v-155c-30 35-226 55-295 64-131 17-246 59-246 186 0 116 97 176 231 176" id="r"/><path fill="#3a414a" d="M338-670V0H158v-1118h173l1 207c72-158 192-221 342-221 226 0 378 139 378 422V0H872v-695c0-172-96-275-252-275-161 0-282 109-282 300" id="s"/><path fill="#3a414a" d="M538 24C308 24 148-78 108-271l171-41c32 123 123 178 257 178 156 0 256-77 256-169 0-77-54-128-164-154l-186-44c-203-48-300-148-300-305 0-192 176-326 414-326 230 0 351 112 402 269l-163 42c-31-80-94-158-238-158-133 0-233 69-233 162 0 83 57 129 188 160l169 40c203 48 298 149 298 302 0 196-179 339-441 339" id="t"/><path fill="#3a414a" d="M678-1118v154H420V0H240v-964H20v-154h220v-149c0-194 155-293 318-293 85 0 141 18 168 30l-50 154c-19-6-47-17-97-17-111 0-159 58-159 166v109h258" id="u"/><path fill="#3a414a" d="M628 24c-324 0-524-230-524-574 0-343 198-582 503-582 237 0 487 146 487 559v75H286c9 234 145 362 343 362 132 0 231-58 273-172l174 48C1024-91 857 24 628 24zM287-650h624c-17-190-120-322-304-322-192 0-309 151-320 322" id="v"/><g id="a"><use transform="matrix(0.0087890625,0,0,0.0087890625,0,0)" xlink:href="#p"/><use transform="matrix(0.0087890625,0,0,0.0087890625,10.599609375,0)" xlink:href="#q"/><use transform="matrix(0.0087890625,0,0,0.0087890625,17.3759765625,0)" xlink:href="#r"/><use transform="matrix(0.0087890625,0,0,0.0087890625,27.4833984375,0)" xlink:href="#s"/><use transform="matrix(0.0087890625,0,0,0.0087890625,38.1181640625,0)" xlink:href="#t"/><use transform="matrix(0.0087890625,0,0,0.0087890625,47.619140625,0)" xlink:href="#u"/><use transform="matrix(0.0087890625,0,0,0.0087890625,53.75390625,0)" xlink:href="#v"/><use transform="matrix(0.0087890625,0,0,0.0087890625,64.248046875,0)" xlink:href="#q"/></g><path fill="#3a414a" d="M52 0l541-1490h220L1361 0h-200l-149-416H398L254 0H52zm404-582h497c-103-290-145-390-251-756-108 377-145 460-246 756" id="w"/><path fill="#3a414a" d="M613 24c-304 0-509-231-509-576 0-350 205-580 509-580 216 0 392 114 453 309l-173 49c-33-115-133-197-280-197-223 0-326 196-326 419 0 220 103 415 326 415 150 0 252-85 285-206l172 49C1010-95 832 24 613 24" id="x"/><path fill="#3a414a" d="M158 418v-1536h174v179h20c37-59 106-193 324-193 279 0 474 222 474 576 0 356-194 580-473 580-213 0-288-135-325-197h-14v591H158zm492-555c209 0 317-186 317-421 0-232-105-413-317-413-206 0-314 166-314 413 0 249 111 421 314 421" id="y"/><path fill="#3a414a" d="M598-1118v154H368v674c0 100 37 144 132 144 23 0 62-6 92-12L629-6c-37 13-88 20-134 20-193 0-307-107-307-290v-688H20v-154h168v-266h180v266h230" id="z"/><g id="b"><use transform="matrix(0.0087890625,0,0,0.0087890625,0,0)" xlink:href="#w"/><use transform="matrix(0.0087890625,0,0,0.0087890625,12.4189453125,0)" xlink:href="#x"/><use transform="matrix(0.0087890625,0,0,0.0087890625,22.7021484375,0)" xlink:href="#x"/><use transform="matrix(0.0087890625,0,0,0.0087890625,32.9853515625,0)" xlink:href="#v"/><use transform="matrix(0.0087890625,0,0,0.0087890625,43.4794921875,0)" xlink:href="#y"/><use transform="matrix(0.0087890625,0,0,0.0087890625,54.5009765625,0)" xlink:href="#z"/><use transform="matrix(0.0087890625,0,0,0.0087890625,59.783203125,0)" xlink:href="#p"/><use transform="matrix(0.0087890625,0,0,0.0087890625,70.3828125,0)" xlink:href="#q"/><use transform="matrix(0.0087890625,0,0,0.0087890625,77.1591796875,0)" xlink:href="#r"/><use transform="matrix(0.0087890625,0,0,0.0087890625,87.2666015625,0)" xlink:href="#s"/><use transform="matrix(0.0087890625,0,0,0.0087890625,97.9013671875,0)" xlink:href="#t"/><use transform="matrix(0.0087890625,0,0,0.0087890625,107.40234375,0)" xlink:href="#u"/><use transform="matrix(0.0087890625,0,0,0.0087890625,113.537109375,0)" xlink:href="#v"/><use transform="matrix(0.0087890625,0,0,0.0087890625,124.03125,0)" xlink:href="#q"/></g><path fill="#3a414a" d="M613 24c-304 0-509-231-509-576 0-350 205-580 509-580 305 0 511 230 511 580 0 345-206 576-511 576zm0-161c226 0 329-195 329-415 0-222-103-419-329-419-223 0-326 196-326 419 0 220 103 415 326 415" id="A"/><path fill="#3a414a" d="M409 0L70-1118h191c89 329 165 560 243 925 75-353 154-601 240-925h192c85 325 161 564 235 922 77-354 157-598 244-922h191L1267 0h-179c-86-307-176-590-250-913C763-588 675-308 588 0H409" id="B"/><g id="c"><use transform="matrix(0.0087890625,0,0,0.0087890625,0,0)" xlink:href="#s"/><use transform="matrix(0.0087890625,0,0,0.0087890625,10.634765625,0)" xlink:href="#A"/><use transform="matrix(0.0087890625,0,0,0.0087890625,21.1025390625,0)" xlink:href="#B"/></g><path fill="#3a414a" d="M1181-520L237-44v-194l712-338v-12L237-926v-196l944 476v126" id="C"/><use transform="matrix(0.0087890625,0,0,0.0087890625,0,0)" xlink:href="#C" id="d"/><path fill="#3a414a" d="M295 13c-75 0-135-60-135-135s60-135 135-135 135 60 135 135S370 13 295 13" id="D"/><path fill="#3a414a" d="M577 24c-279 0-473-224-473-580 0-354 195-576 474-576 218 0 287 134 324 193h14v-551h180V0H922v-173h-20C865-111 790 24 577 24zm27-161c203 0 314-172 314-421 0-247-108-413-314-413-212 0-317 181-317 413 0 235 108 421 317 421" id="E"/><path fill="#3a414a" d="M338-1490V0H158v-1490h180" id="F"/><path fill="#3a414a" d="M140 405l46-156c120 36 205 19 263-150l32-93L54-1118h197c107 313 237 620 324 950 87-331 219-637 326-950h196L606 167c-68 178-176 259-334 259-64 0-113-12-132-21" id="G"/><g id="e"><use transform="matrix(0.0087890625,0,0,0.0087890625,0,0)" xlink:href="#z"/><use transform="matrix(0.0087890625,0,0,0.0087890625,5.888671875,0)" xlink:href="#q"/><use transform="matrix(0.0087890625,0,0,0.0087890625,12.6650390625,0)" xlink:href="#r"/><use transform="matrix(0.0087890625,0,0,0.0087890625,22.7724609375,0)" xlink:href="#s"/><use transform="matrix(0.0087890625,0,0,0.0087890625,33.4072265625,0)" xlink:href="#t"/><use transform="matrix(0.0087890625,0,0,0.0087890625,42.908203125,0)" xlink:href="#u"/><use transform="matrix(0.0087890625,0,0,0.0087890625,49.04296875,0)" xlink:href="#v"/><use transform="matrix(0.0087890625,0,0,0.0087890625,59.537109375,0)" xlink:href="#q"/><use transform="matrix(0.0087890625,0,0,0.0087890625,65.1884765625,0)" xlink:href="#D"/><use transform="matrix(0.0087890625,0,0,0.0087890625,70.3740234375,0)" xlink:href="#E"/><use transform="matrix(0.0087890625,0,0,0.0087890625,81.3955078125,0)" xlink:href="#v"/><use transform="matrix(0.0087890625,0,0,0.0087890625,91.8896484375,0)" xlink:href="#F"/><use transform="matrix(0.0087890625,0,0,0.0087890625,96.2490234375,0)" xlink:href="#r"/><use transform="matrix(0.0087890625,0,0,0.0087890625,106.0927734375,0)" xlink:href="#G"/></g><path fill="#3a414a" d="M428-647V0H128v-1118h283l4 231c63-156 176-245 348-245 232 0 384 159 384 421V0H847v-659c0-139-76-222-202-222-128 0-217 86-217 234" id="H"/><path fill="#3a414a" d="M633 22C291 22 81-200 81-553c0-345 210-579 537-579 292 0 525 185 525 567v84H378c7 183 109 277 260 277 105 0 184-46 216-132l272 51C1071-99 893 22 633 22zM380-669h474c-15-146-94-237-233-237-143 0-229 99-241 237" id="I"/><path fill="#3a414a" d="M361 0L31-1118h315c68 295 127 523 188 845 63-317 128-551 199-845h276c71 296 131 525 196 846 57-321 119-552 186-846h319L1378 0h-305c-73-261-148-486-204-771C813-484 740-261 666 0H361" id="J"/><path fill="#3a414a" d="M789 20C394 20 94-260 94-744c0-487 300-766 695-766s695 279 695 766c0 485-300 764-695 764zm0-271c231 0 385-174 385-493 0-321-154-495-385-495s-385 175-385 495c0 319 154 493 385 493" id="K"/><path fill="#3a414a" d="M128 0v-1118h290v195h12c54-169 184-238 367-200v268c-27-8-86-15-130-15-138 0-239 95-239 234V0H128" id="L"/><path fill="#3a414a" d="M119 395l88-620h300L323 395H119" id="M"/><g id="f"><use transform="matrix(0.0087890625,0,0,0.0087890625,0,0)" xlink:href="#H"/><use transform="matrix(0.0087890625,0,0,0.0087890625,11.2060546875,0)" xlink:href="#I"/><use transform="matrix(0.0087890625,0,0,0.0087890625,21.6826171875,0)" xlink:href="#J"/><use transform="matrix(0.0087890625,0,0,0.0087890625,36.984375,0)" xlink:href="#K"/><use transform="matrix(0.0087890625,0,0,0.0087890625,50.853515625,0)" xlink:href="#J"/><use transform="matrix(0.0087890625,0,0,0.0087890625,66.1552734375,0)" xlink:href="#H"/><use transform="matrix(0.0087890625,0,0,0.0087890625,77.361328125,0)" xlink:href="#I"/><use transform="matrix(0.0087890625,0,0,0.0087890625,88.083984375,0)" xlink:href="#L"/><use transform="matrix(0.0087890625,0,0,0.0087890625,94.2890625,0)" xlink:href="#M"/></g><path fill="#3a414a" d="M128 0v-1118h300V0H128zm150-1264c-91 0-165-68-165-154 0-85 74-154 165-154 90 0 165 69 165 154 0 86-75 154-165 154" id="N"/><path fill="#3a414a" d="M572 22C302 22 117-98 78-306l279-48c29 105 101 156 224 156 114 0 185-48 185-115 0-118-228-130-337-155-215-49-322-150-322-317 0-215 187-347 470-347 265 0 424 116 466 298l-266 47c-24-76-87-130-196-130-98 0-174 46-174 113 0 56 38 95 144 117l201 40c216 44 320 143 320 302 0 220-207 367-500 367" id="O"/><path fill="#3a414a" d="M513 14c-232 0-385-159-385-421v-711h300v659c0 139 76 222 202 222 127 0 217-86 217-234v-647h301V0H864l-4-232C797-74 683 14 513 14" id="P"/><path fill="#3a414a" d="M128 359l88-567h206L266 359H128" id="Q"/><g id="g"><use transform="matrix(0.0087890625,0,0,0.0087890625,0,0)" xlink:href="#N"/><use transform="matrix(0.0087890625,0,0,0.0087890625,4.8779296875,0)" xlink:href="#O"/><use transform="matrix(0.0087890625,0,0,0.0087890625,14.958984375,0)" xlink:href="#O"/><use transform="matrix(0.0087890625,0,0,0.0087890625,25.0400390625,0)" xlink:href="#P"/><use transform="matrix(0.0087890625,0,0,0.0087890625,36.24609375,0)" xlink:href="#I"/><use transform="matrix(0.0087890625,0,0,0.0087890625,46.96875,0)" xlink:href="#L"/><use transform="matrix(0.0087890625,0,0,0.0087890625,54.298828125,0)" xlink:href="#Q"/></g><path fill="#3a414a" d="M356-664L245 0H65l186-1118h173l-32 197c96-152 219-211 366-211 232 0 366 145 319 428L960 0H779l117-701c29-174-48-269-198-269-165 0-310 115-342 306" id="R"/><path fill="#3a414a" d="M535 24C259 24 94-144 94-427c0-392 272-715 610-715 216 0 356 119 356 305 0 244-237 344-790 350-18 199 49 349 276 352 142 0 260-66 317-173l167 47C947-85 756 24 535 24zM294-623c447-4 586-57 586-218 0-85-78-141-194-141-220 0-342 177-392 359" id="S"/><path fill="#3a414a" d="M317 0L163-1118h191c34 329 72 559 91 925 130-352 253-602 392-925h192c32 328 66 558 83 922 132-350 256-600 396-922h191L1175 0H996c-36-314-76-577-98-915C766-585 635-312 496 0H317" id="T"/><path fill="#3a414a" d="M699 20c-338 0-560-226-560-600 0-472 307-930 791-930 337 0 558 226 558 599 0 474-306 931-789 931zm7-176c374 0 598-379 598-750 0-280-157-428-381-428-373 0-600 379-600 749 0 280 158 429 383 429" id="U"/><path fill="#3a414a" d="M66 0l185-1118h174l-28 172h12c78-136 219-209 411-185l-30 181c-211-47-398 67-428 250L246 0H66" id="V"/><g id="h"><use transform="matrix(0.0087890625,0,0,0.0087890625,0,0)" xlink:href="#R"/><use transform="matrix(0.0087890625,0,0,0.0087890625,10.6435546875,0)" xlink:href="#S"/><use transform="matrix(0.0087890625,0,0,0.0087890625,20.6806640625,0)" xlink:href="#T"/><use transform="matrix(0.0087890625,0,0,0.0087890625,35.4111328125,0)" xlink:href="#U"/><use transform="matrix(0.0087890625,0,0,0.0087890625,49.1748046875,0)" xlink:href="#T"/><use transform="matrix(0.0087890625,0,0,0.0087890625,63.9052734375,0)" xlink:href="#R"/><use transform="matrix(0.0087890625,0,0,0.0087890625,74.548828125,0)" xlink:href="#S"/><use transform="matrix(0.0087890625,0,0,0.0087890625,84.9111328125,0)" xlink:href="#V"/></g><path fill="#3a414a" d="M783 20c-382 0-661-292-661-764 0-473 279-766 661-766 302 0 548 182 601 489h-190c-42-204-217-313-411-313-268 0-476 208-476 590 0 381 209 588 476 588 195 0 369-110 411-313h190c-52 303-296 489-601 489" id="W"/><path fill="#3a414a" d="M158 0v-1118h180V0H158zm91-1301c-68 0-125-53-125-119s57-119 125-119c69 0 126 53 126 119s-57 119-126 119" id="X"/><g id="i"><use transform="matrix(0.0087890625,0,0,0.0087890625,0,0)" xlink:href="#W"/><use transform="matrix(0.0087890625,0,0,0.0087890625,13.1484375,0)" xlink:href="#A"/><use transform="matrix(0.0087890625,0,0,0.0087890625,23.94140625,0)" xlink:href="#X"/><use transform="matrix(0.0087890625,0,0,0.0087890625,28.30078125,0)" xlink:href="#s"/></g><path fill="#3a414a" d="M628 22C291 22 81-210 81-554c0-346 210-578 547-578 336 0 547 232 547 578 0 344-211 576-547 576zm0-236c160 0 242-146 242-341 0-197-82-341-242-341S387-753 387-555c0 195 81 341 241 341" id="Y"/><g id="j"><use transform="matrix(0.0087890625,0,0,0.0087890625,0,0)" xlink:href="#Y"/><use transform="matrix(0.0087890625,0,0,0.0087890625,10.79296875,0)" xlink:href="#J"/><use transform="matrix(0.0087890625,0,0,0.0087890625,26.0947265625,0)" xlink:href="#H"/><use transform="matrix(0.0087890625,0,0,0.0087890625,37.30078125,0)" xlink:href="#I"/><use transform="matrix(0.0087890625,0,0,0.0087890625,48.0234375,0)" xlink:href="#L"/><use transform="matrix(0.0087890625,0,0,0.0087890625,55.353515625,0)" xlink:href="#Q"/></g><path fill="#3a414a" d="M528 24C258 24 94-156 94-433c0-355 229-699 603-699 270 0 436 178 436 458 0 359-234 698-605 698zm4-161c275 0 420-287 420-533 0-170-77-301-260-301-271 0-418 288-418 536 0 168 77 298 258 298" id="Z"/><g id="k"><use transform="matrix(0.0087890625,0,0,0.0087890625,0,0)" xlink:href="#Z"/><use transform="matrix(0.0087890625,0,0,0.0087890625,10.4765625,0)" xlink:href="#T"/><use transform="matrix(0.0087890625,0,0,0.0087890625,25.20703125,0)" xlink:href="#R"/><use transform="matrix(0.0087890625,0,0,0.0087890625,35.8505859375,0)" xlink:href="#S"/><use transform="matrix(0.0087890625,0,0,0.0087890625,46.212890625,0)" xlink:href="#V"/><use transform="matrix(0.0087890625,0,0,0.0087890625,52.998046875,0)" xlink:href="#Q"/></g><g id="l"><use transform="matrix(0.0087890625,0,0,0.0087890625,0,0)" xlink:href="#R"/><use transform="matrix(0.0087890625,0,0,0.0087890625,10.6435546875,0)" xlink:href="#S"/><use transform="matrix(0.0087890625,0,0,0.0087890625,20.6806640625,0)" xlink:href="#T"/><use transform="matrix(0.0087890625,0,0,0.0087890625,35.4111328125,0)" xlink:href="#U"/><use transform="matrix(0.0087890625,0,0,0.0087890625,49.1748046875,0)" xlink:href="#T"/><use transform="matrix(0.0087890625,0,0,0.0087890625,63.9052734375,0)" xlink:href="#R"/><use transform="matrix(0.0087890625,0,0,0.0087890625,74.548828125,0)" xlink:href="#S"/><use transform="matrix(0.0087890625,0,0,0.0087890625,84.9111328125,0)" xlink:href="#V"/><path fill="#3a414a" d="M-.9 3.67h93.5V4.9H-.9z"/></g><path fill="#3a414a" d="M180 0v-1490h510c348 0 508 209 508 474 0 266-160 477-507 477H370V0H180zm190-706h312c236 0 327-133 327-310 0-176-91-307-329-307H370v617" id="aa"/><g id="m"><use transform="matrix(0.0087890625,0,0,0.0087890625,0,0)" xlink:href="#p"/><use transform="matrix(0.0087890625,0,0,0.0087890625,10.599609375,0)" xlink:href="#q"/><use transform="matrix(0.0087890625,0,0,0.0087890625,17.3759765625,0)" xlink:href="#r"/><use transform="matrix(0.0087890625,0,0,0.0087890625,27.4833984375,0)" xlink:href="#s"/><use transform="matrix(0.0087890625,0,0,0.0087890625,38.1181640625,0)" xlink:href="#t"/><use transform="matrix(0.0087890625,0,0,0.0087890625,47.619140625,0)" xlink:href="#u"/><use transform="matrix(0.0087890625,0,0,0.0087890625,53.75390625,0)" xlink:href="#v"/><use transform="matrix(0.0087890625,0,0,0.0087890625,64.248046875,0)" xlink:href="#q"/><use transform="matrix(0.0087890625,0,0,0.0087890625,71.3056640625,0)" xlink:href="#aa"/><use transform="matrix(0.0087890625,0,0,0.0087890625,82.8017578125,0)" xlink:href="#q"/><use transform="matrix(0.0087890625,0,0,0.0087890625,89.279296875,0)" xlink:href="#A"/><use transform="matrix(0.0087890625,0,0,0.0087890625,100.072265625,0)" xlink:href="#y"/><use transform="matrix(0.0087890625,0,0,0.0087890625,111.09375,0)" xlink:href="#A"/><use transform="matrix(0.0087890625,0,0,0.0087890625,121.88671875,0)" xlink:href="#t"/><use transform="matrix(0.0087890625,0,0,0.0087890625,131.3876953125,0)" xlink:href="#r"/><use transform="matrix(0.0087890625,0,0,0.0087890625,141.4951171875,0)" xlink:href="#F"/></g><g id="n"><use transform="matrix(0.0087890625,0,0,0.0087890625,0,0)" xlink:href="#Y"/><use transform="matrix(0.0087890625,0,0,0.0087890625,10.79296875,0)" xlink:href="#J"/><use transform="matrix(0.0087890625,0,0,0.0087890625,26.0947265625,0)" xlink:href="#H"/><use transform="matrix(0.0087890625,0,0,0.0087890625,37.30078125,0)" xlink:href="#I"/><use transform="matrix(0.0087890625,0,0,0.0087890625,48.0234375,0)" xlink:href="#L"/><use transform="matrix(0.0087890625,0,0,0.0087890625,54.228515625,0)" xlink:href="#M"/></g><g id="o"><use transform="matrix(0.0087890625,0,0,0.0087890625,0,0)" xlink:href="#Z"/><use transform="matrix(0.0087890625,0,0,0.0087890625,10.4765625,0)" xlink:href="#T"/><use transform="matrix(0.0087890625,0,0,0.0087890625,25.20703125,0)" xlink:href="#R"/><use transform="matrix(0.0087890625,0,0,0.0087890625,35.8505859375,0)" xlink:href="#S"/><use transform="matrix(0.0087890625,0,0,0.0087890625,46.212890625,0)" xlink:href="#V"/></g></defs></g></svg>