<svg xmlns="http://www.w3.org/2000/svg" xmlns:xlink="http://www.w3.org/1999/xlink" xmlns:lucid="lucid" width="1522" height="1507.33"><g transform="translate(-159 1986.3333333333337)" lucid:page-tab-id="0_0"><path d="M0-2000h2000V0H0z" fill="#fff"/><path d="M160-1154a6 6 0 0 1 6-6h1508a6 6 0 0 1 6 6v668a6 6 0 0 1-6 6H166a6 6 0 0 1-6-6z" stroke="#000" stroke-opacity="0" stroke-width="2" fill="#f2f3f5"/><use xlink:href="#a" transform="matrix(1,0,0,1,172,-1147.9999999999995) translate(1242.4171006944443 30.138888888888893)"/><use xlink:href="#b" transform="matrix(1,0,0,1,172,-1147.9999999999995) translate(1348.9058159722222 30.138888888888893)"/><path d="M200-1054a6 6 0 0 1 6-6h428a6 6 0 0 1 6 6v228a6 6 0 0 1-6 6H206a6 6 0 0 1-6-6z" stroke="#000" stroke-width="2" fill="#f2f3f5"/><use xlink:href="#c" transform="matrix(1,0,0,1,212,-1048.0000000000002) translate(0 32.06293402777778)"/><use xlink:href="#d" transform="matrix(1,0,0,1,212,-1048.0000000000002) translate(93.34852430555557 32.06293402777778)"/><use xlink:href="#e" transform="matrix(1,0,0,1,212,-1048.0000000000002) translate(226.70355902777783 32.06293402777778)"/><use xlink:href="#f" transform="matrix(1,0,0,1,212,-1048.0000000000002) translate(0 60.17708333333333)"/><use xlink:href="#g" transform="matrix(1,0,0,1,212,-1048.0000000000002) translate(26.671006944444443 60.17708333333333)"/><use xlink:href="#h" transform="matrix(1,0,0,1,212,-1048.0000000000002) translate(160.02604166666669 60.17708333333333)"/><use xlink:href="#i" transform="matrix(1,0,0,1,212,-1048.0000000000002) translate(0 88.28906249999999)"/><use xlink:href="#j" transform="matrix(1,0,0,1,212,-1048.0000000000002) translate(53.342013888888886 88.28906249999999)"/><use xlink:href="#k" transform="matrix(1,0,0,1,212,-1048.0000000000002) translate(160.02604166666669 88.28906249999999)"/><use xlink:href="#i" transform="matrix(1,0,0,1,212,-1048.0000000000002) translate(0 116.40104166666664)"/><use xlink:href="#l" transform="matrix(1,0,0,1,212,-1048.0000000000002) translate(53.342013888888886 116.40104166666664)"/><use xlink:href="#m" transform="matrix(1,0,0,1,212,-1048.0000000000002) translate(146.69053819444446 116.40104166666664)"/><use xlink:href="#i" transform="matrix(1,0,0,1,212,-1048.0000000000002) translate(0 144.51302083333331)"/><use xlink:href="#n" transform="matrix(1,0,0,1,212,-1048.0000000000002) translate(53.342013888888886 144.51302083333331)"/><use xlink:href="#o" transform="matrix(1,0,0,1,212,-1048.0000000000002) translate(146.69053819444446 144.51302083333331)"/><use xlink:href="#p" transform="matrix(1,0,0,1,212,-1048.0000000000002) translate(173.3615451388889 144.51302083333331)"/><use xlink:href="#f" transform="matrix(1,0,0,1,212,-1048.0000000000002) translate(0 172.62499999999997)"/><use xlink:href="#q" transform="matrix(1,0,0,1,212,-1048.0000000000002) translate(26.671006944444443 172.62499999999997)"/><use xlink:href="#k" transform="matrix(1,0,0,1,212,-1048.0000000000002) translate(200.03255208333337 172.62499999999997)"/><use xlink:href="#f" transform="matrix(1,0,0,1,212,-1048.0000000000002) translate(0 200.73697916666663)"/><use xlink:href="#r" transform="matrix(1,0,0,1,212,-1048.0000000000002) translate(26.671006944444443 200.73697916666663)"/><use xlink:href="#s" transform="matrix(1,0,0,1,212,-1048.0000000000002) translate(173.3615451388889 200.73697916666663)"/><path d="M760-1154a6 6 0 0 1 6-6h428a6 6 0 0 1 6 6v68a6 6 0 0 1-6 6H766a6 6 0 0 1-6-6z" fill="none"/><use xlink:href="#t" transform="matrix(1,0,0,1,760,-1159.9999999999995) translate(0 54.55078125)"/><use xlink:href="#u" transform="matrix(1,0,0,1,760,-1159.9999999999995) translate(64.35546875 54.55078125)"/><path d="M200-1154a6 6 0 0 1 6-6h428a6 6 0 0 1 6 6v68a6 6 0 0 1-6 6H206a6 6 0 0 1-6-6z" fill="none"/><use xlink:href="#t" transform="matrix(1,0,0,1,200,-1160) translate(0 54.55078125)"/><use xlink:href="#v" transform="matrix(1,0,0,1,200,-1160) translate(64.35546875 54.55078125)"/><path d="M773.33-1054a6 6 0 0 1 6-6h348a6 6 0 0 1 6 6v228a6 6 0 0 1-6 6h-348a6 6 0 0 1-6-6z" stroke="#000" stroke-width="2" fill="#f2f3f5"/><use xlink:href="#w" transform="matrix(1,0,0,1,785.333333333333,-1048) translate(0 32.00043402777778)"/><use xlink:href="#f" transform="matrix(1,0,0,1,785.333333333333,-1048) translate(0 60.11458333333333)"/><use xlink:href="#x" transform="matrix(1,0,0,1,785.333333333333,-1048) translate(26.671006944444443 60.11458333333333)"/><use xlink:href="#y" transform="matrix(1,0,0,1,785.333333333333,-1048) translate(160.02604166666669 60.11458333333333)"/><use xlink:href="#f" transform="matrix(1,0,0,1,785.333333333333,-1048) translate(0 88.22656249999999)"/><use xlink:href="#g" transform="matrix(1,0,0,1,785.333333333333,-1048) translate(26.671006944444443 88.22656249999999)"/><use xlink:href="#h" transform="matrix(1,0,0,1,785.333333333333,-1048) translate(160.02604166666669 88.22656249999999)"/><use xlink:href="#f" transform="matrix(1,0,0,1,785.333333333333,-1048) translate(0 116.33854166666664)"/><use xlink:href="#z" transform="matrix(1,0,0,1,785.333333333333,-1048) translate(26.671006944444443 116.33854166666664)"/><use xlink:href="#A" transform="matrix(1,0,0,1,785.333333333333,-1048) translate(133.35503472222223 116.33854166666664)"/><use xlink:href="#i" transform="matrix(1,0,0,1,785.333333333333,-1048) translate(0 144.45052083333331)"/><use xlink:href="#B" transform="matrix(1,0,0,1,785.333333333333,-1048) translate(53.342013888888886 144.45052083333331)"/><use xlink:href="#C" transform="matrix(1,0,0,1,785.333333333333,-1048) translate(186.69704861111114 144.45052083333331)"/><use xlink:href="#f" transform="matrix(1,0,0,1,785.333333333333,-1048) translate(0 172.56249999999997)"/><use xlink:href="#D" transform="matrix(1,0,0,1,785.333333333333,-1048) translate(26.671006944444443 172.56249999999997)"/><use xlink:href="#m" transform="matrix(1,0,0,1,785.333333333333,-1048) translate(133.35503472222223 172.56249999999997)"/><use xlink:href="#f" transform="matrix(1,0,0,1,785.333333333333,-1048) translate(0 200.67447916666663)"/><use xlink:href="#E" transform="matrix(1,0,0,1,785.333333333333,-1048) translate(26.671006944444443 200.67447916666663)"/><use xlink:href="#F" transform="matrix(1,0,0,1,785.333333333333,-1048) translate(133.35503472222223 200.67447916666663)"/><path d="M773.33-748.67a6 6 0 0 1 6-6h348a6 6 0 0 1 6 6v228a6 6 0 0 1-6 6h-348a6 6 0 0 1-6-6z" stroke="#000" stroke-width="2" fill="#f2f3f5"/><use xlink:href="#G" transform="matrix(1,0,0,1,785.3333333333331,-742.666666666666) translate(0 32.06293402777778)"/><use xlink:href="#H" transform="matrix(1,0,0,1,785.3333333333331,-742.666666666666) translate(93.34852430555557 32.06293402777778)"/><use xlink:href="#I" transform="matrix(1,0,0,1,785.3333333333331,-742.666666666666) translate(226.70355902777783 32.06293402777778)"/><use xlink:href="#f" transform="matrix(1,0,0,1,785.3333333333331,-742.666666666666) translate(0 60.17708333333333)"/><use xlink:href="#g" transform="matrix(1,0,0,1,785.3333333333331,-742.666666666666) translate(26.671006944444443 60.17708333333333)"/><use xlink:href="#h" transform="matrix(1,0,0,1,785.3333333333331,-742.666666666666) translate(160.02604166666669 60.17708333333333)"/><use xlink:href="#i" transform="matrix(1,0,0,1,785.3333333333331,-742.666666666666) translate(0 88.28906249999999)"/><use xlink:href="#j" transform="matrix(1,0,0,1,785.3333333333331,-742.666666666666) translate(53.342013888888886 88.28906249999999)"/><use xlink:href="#k" transform="matrix(1,0,0,1,785.3333333333331,-742.666666666666) translate(160.02604166666669 88.28906249999999)"/><use xlink:href="#i" transform="matrix(1,0,0,1,785.3333333333331,-742.666666666666) translate(0 116.40104166666664)"/><use xlink:href="#l" transform="matrix(1,0,0,1,785.3333333333331,-742.666666666666) translate(53.342013888888886 116.40104166666664)"/><use xlink:href="#C" transform="matrix(1,0,0,1,785.3333333333331,-742.666666666666) translate(146.69053819444446 116.40104166666664)"/><use xlink:href="#i" transform="matrix(1,0,0,1,785.3333333333331,-742.666666666666) translate(0 144.51302083333331)"/><use xlink:href="#n" transform="matrix(1,0,0,1,785.3333333333331,-742.666666666666) translate(53.342013888888886 144.51302083333331)"/><use xlink:href="#o" transform="matrix(1,0,0,1,785.3333333333331,-742.666666666666) translate(146.69053819444446 144.51302083333331)"/><use xlink:href="#p" transform="matrix(1,0,0,1,785.3333333333331,-742.666666666666) translate(173.3615451388889 144.51302083333331)"/><use xlink:href="#f" transform="matrix(1,0,0,1,785.3333333333331,-742.666666666666) translate(0 172.62499999999997)"/><use xlink:href="#q" transform="matrix(1,0,0,1,785.3333333333331,-742.666666666666) translate(26.671006944444443 172.62499999999997)"/><use xlink:href="#k" transform="matrix(1,0,0,1,785.3333333333331,-742.666666666666) translate(200.03255208333337 172.62499999999997)"/><use xlink:href="#f" transform="matrix(1,0,0,1,785.3333333333331,-742.666666666666) translate(0 200.73697916666663)"/><use xlink:href="#r" transform="matrix(1,0,0,1,785.3333333333331,-742.666666666666) translate(26.671006944444443 200.73697916666663)"/><use xlink:href="#J" transform="matrix(1,0,0,1,785.3333333333331,-742.666666666666) translate(173.3615451388889 200.73697916666663)"/><path d="M160-1979.33a6 6 0 0 1 6-6h1508a6 6 0 0 1 6 6V-1226a6 6 0 0 1-6 6H166a6 6 0 0 1-6-6z" stroke="#000" stroke-opacity="0" stroke-width="2" fill="#f2f3f5"/><path d="M771.33-1760H659.5" stroke="#1071e5" stroke-width="2" fill="none"/><path d="M772.33-1759.03h-1.02v-1.94h1.03z" stroke="#1071e5" stroke-width=".05" fill="#1071e5"/><path d="M644.24-1760l14.26-4.63v9.27z" stroke="#1071e5" stroke-width="2" fill="#1071e5"/><path d="M200-1874a6 6 0 0 1 6-6h428a6 6 0 0 1 6 6v228a6 6 0 0 1-6 6H206a6 6 0 0 1-6-6z" stroke="#000" stroke-width="2" fill="#f2f3f5"/><g><use xlink:href="#K" transform="matrix(1,0,0,1,212,-1868.0000000000002) translate(0 32.06293402777778)"/><use xlink:href="#L" transform="matrix(1,0,0,1,212,-1868.0000000000002) translate(93.34852430555557 32.06293402777778)"/><use xlink:href="#M" transform="matrix(1,0,0,1,212,-1868.0000000000002) translate(226.70355902777783 32.06293402777778)"/><use xlink:href="#f" transform="matrix(1,0,0,1,212,-1868.0000000000002) translate(0 60.17708333333333)"/><use xlink:href="#N" transform="matrix(1,0,0,1,212,-1868.0000000000002) translate(26.671006944444443 60.17708333333333)"/><use xlink:href="#O" transform="matrix(1,0,0,1,212,-1868.0000000000002) translate(160.02604166666669 60.17708333333333)"/><use xlink:href="#i" transform="matrix(1,0,0,1,212,-1868.0000000000002) translate(0 88.28906249999999)"/><use xlink:href="#P" transform="matrix(1,0,0,1,212,-1868.0000000000002) translate(53.342013888888886 88.28906249999999)"/><use xlink:href="#Q" transform="matrix(1,0,0,1,212,-1868.0000000000002) translate(160.02604166666669 88.28906249999999)"/><use xlink:href="#i" transform="matrix(1,0,0,1,212,-1868.0000000000002) translate(0 116.40104166666664)"/><use xlink:href="#R" transform="matrix(1,0,0,1,212,-1868.0000000000002) translate(53.342013888888886 116.40104166666664)"/><use xlink:href="#S" transform="matrix(1,0,0,1,212,-1868.0000000000002) translate(146.69053819444446 116.40104166666664)"/><use xlink:href="#i" transform="matrix(1,0,0,1,212,-1868.0000000000002) translate(0 144.51302083333331)"/><use xlink:href="#T" transform="matrix(1,0,0,1,212,-1868.0000000000002) translate(53.342013888888886 144.51302083333331)"/><use xlink:href="#U" transform="matrix(1,0,0,1,212,-1868.0000000000002) translate(146.69053819444446 144.51302083333331)"/><use xlink:href="#V" transform="matrix(1,0,0,1,212,-1868.0000000000002) translate(173.3615451388889 144.51302083333331)"/><use xlink:href="#f" transform="matrix(1,0,0,1,212,-1868.0000000000002) translate(0 172.62499999999997)"/><use xlink:href="#W" transform="matrix(1,0,0,1,212,-1868.0000000000002) translate(26.671006944444443 172.62499999999997)"/><use xlink:href="#Q" transform="matrix(1,0,0,1,212,-1868.0000000000002) translate(200.03255208333337 172.62499999999997)"/><use xlink:href="#f" transform="matrix(1,0,0,1,212,-1868.0000000000002) translate(0 200.73697916666663)"/><use xlink:href="#X" transform="matrix(1,0,0,1,212,-1868.0000000000002) translate(26.671006944444443 200.73697916666663)"/><use xlink:href="#Y" transform="matrix(1,0,0,1,212,-1868.0000000000002) translate(173.3615451388889 200.73697916666663)"/></g><path d="M1240-1979.33a6 6 0 0 1 6-6h428a6 6 0 0 1 6 6v68a6 6 0 0 1-6 6h-428a6 6 0 0 1-6-6z" fill="none"/><g><use xlink:href="#Z" transform="matrix(1,0,0,1,1240,-1985.3333333333337) translate(0 54.55078125)"/><use xlink:href="#aa" transform="matrix(1,0,0,1,1240,-1985.3333333333337) translate(105.46875 54.55078125)"/><use xlink:href="#ab" transform="matrix(1,0,0,1,1240,-1985.3333333333337) translate(307.51953125 54.55078125)"/><use xlink:href="#ac" transform="matrix(1,0,0,1,1240,-1985.3333333333337) translate(371.875 54.55078125)"/></g><path d="M760-1979.33a6 6 0 0 1 6-6h428a6 6 0 0 1 6 6v68a6 6 0 0 1-6 6H766a6 6 0 0 1-6-6z" fill="none"/><g><use xlink:href="#ad" transform="matrix(1,0,0,1,760,-1985.3333333333335) translate(0 54.55078125)"/><use xlink:href="#aa" transform="matrix(1,0,0,1,760,-1985.3333333333335) translate(104.39453125 54.55078125)"/><use xlink:href="#ab" transform="matrix(1,0,0,1,760,-1985.3333333333335) translate(306.4453125 54.55078125)"/><use xlink:href="#u" transform="matrix(1,0,0,1,760,-1985.3333333333335) translate(370.80078125 54.55078125)"/></g><path d="M200-1979.33a6 6 0 0 1 6-6h428a6 6 0 0 1 6 6v68a6 6 0 0 1-6 6H206a6 6 0 0 1-6-6z" fill="none"/><g><use xlink:href="#Z" transform="matrix(1,0,0,1,200,-1985.3333333333337) translate(0 54.55078125)"/><use xlink:href="#aa" transform="matrix(1,0,0,1,200,-1985.3333333333337) translate(105.46875 54.55078125)"/><use xlink:href="#ab" transform="matrix(1,0,0,1,200,-1985.3333333333337) translate(307.51953125 54.55078125)"/><use xlink:href="#v" transform="matrix(1,0,0,1,200,-1985.3333333333337) translate(371.875 54.55078125)"/></g><path d="M160-1979v19.97m0 19.98v39.94m0 19.97v39.94m0 20v39.93m0 19.98v39.95m0 19.98v39.94m0 19.98v39.94m0 19.97v39.94m0 20v39.93m0 19.98v39.95m0 19.98v39.94m0 19.98v39.94m0 19.97v39.94m0 20v39.93m0 19.98v39.95m0 19.98v39.94m0 19.98v39.94m0 19.97v39.94m0 20v39.93m0 19.98v39.95m0 19.98v39.94m0 19.98v39.94m0 19.97v39.94m0 20v39.93m0 19.98v39.95m0 19.98V-481M160-1978.97v-1.03M160-481.03v1.03" stroke="#d916a8" stroke-width="2" fill="none"/><path d="M773.33-1874a6 6 0 0 1 6-6h348a6 6 0 0 1 6 6v228a6 6 0 0 1-6 6h-348a6 6 0 0 1-6-6z" stroke="#000" stroke-width="2" fill="#f2f3f5"/><g><use xlink:href="#ae" transform="matrix(1,0,0,1,785.333333333333,-1868) translate(0 32.00043402777778)"/><use xlink:href="#f" transform="matrix(1,0,0,1,785.333333333333,-1868) translate(0 60.11458333333333)"/><use xlink:href="#af" transform="matrix(1,0,0,1,785.333333333333,-1868) translate(26.671006944444443 60.11458333333333)"/><use xlink:href="#ag" transform="matrix(1,0,0,1,785.333333333333,-1868) translate(160.02604166666669 60.11458333333333)"/><use xlink:href="#f" transform="matrix(1,0,0,1,785.333333333333,-1868) translate(0 88.22656249999999)"/><use xlink:href="#N" transform="matrix(1,0,0,1,785.333333333333,-1868) translate(26.671006944444443 88.22656249999999)"/><use xlink:href="#O" transform="matrix(1,0,0,1,785.333333333333,-1868) translate(160.02604166666669 88.22656249999999)"/><use xlink:href="#f" transform="matrix(1,0,0,1,785.333333333333,-1868) translate(0 116.33854166666664)"/><use xlink:href="#ah" transform="matrix(1,0,0,1,785.333333333333,-1868) translate(26.671006944444443 116.33854166666664)"/><use xlink:href="#ai" transform="matrix(1,0,0,1,785.333333333333,-1868) translate(133.35503472222223 116.33854166666664)"/><use xlink:href="#i" transform="matrix(1,0,0,1,785.333333333333,-1868) translate(0 144.45052083333331)"/><use xlink:href="#aj" transform="matrix(1,0,0,1,785.333333333333,-1868) translate(53.342013888888886 144.45052083333331)"/><use xlink:href="#C" transform="matrix(1,0,0,1,785.333333333333,-1868) translate(186.69704861111114 144.45052083333331)"/><use xlink:href="#f" transform="matrix(1,0,0,1,785.333333333333,-1868) translate(0 172.56249999999997)"/><use xlink:href="#ak" transform="matrix(1,0,0,1,785.333333333333,-1868) translate(26.671006944444443 172.56249999999997)"/><use xlink:href="#S" transform="matrix(1,0,0,1,785.333333333333,-1868) translate(133.35503472222223 172.56249999999997)"/><use xlink:href="#f" transform="matrix(1,0,0,1,785.333333333333,-1868) translate(0 200.67447916666663)"/><use xlink:href="#al" transform="matrix(1,0,0,1,785.333333333333,-1868) translate(26.671006944444443 200.67447916666663)"/><use xlink:href="#am" transform="matrix(1,0,0,1,785.333333333333,-1868) translate(133.35503472222223 200.67447916666663)"/></g><path d="M955.33-1638v58.5M951.33-1638v58.5" stroke="#000" stroke-width="2" fill="none"/><path d="M956.3-1637.97h-1.94v-1.03h1.95zM952.3-1637.97h-1.94v-1.03h1.95z" stroke="#000" stroke-width=".05"/><path d="M953.33-1564.24l-4.63-14.26h9.27z" stroke="#000" stroke-width="2"/><path d="M773.33-1554a6 6 0 0 1 6-6h348a6 6 0 0 1 6 6v228a6 6 0 0 1-6 6h-348a6 6 0 0 1-6-6z" stroke="#000" stroke-width="2" fill="#f2f3f5"/><g><use xlink:href="#an" transform="matrix(1,0,0,1,785.333333333333,-1548) translate(0 32.06293402777778)"/><use xlink:href="#ao" transform="matrix(1,0,0,1,785.333333333333,-1548) translate(93.34852430555557 32.06293402777778)"/><use xlink:href="#ap" transform="matrix(1,0,0,1,785.333333333333,-1548) translate(226.70355902777783 32.06293402777778)"/><use xlink:href="#f" transform="matrix(1,0,0,1,785.333333333333,-1548) translate(0 60.17708333333333)"/><use xlink:href="#N" transform="matrix(1,0,0,1,785.333333333333,-1548) translate(26.671006944444443 60.17708333333333)"/><use xlink:href="#O" transform="matrix(1,0,0,1,785.333333333333,-1548) translate(160.02604166666669 60.17708333333333)"/><use xlink:href="#i" transform="matrix(1,0,0,1,785.333333333333,-1548) translate(0 88.28906249999999)"/><use xlink:href="#P" transform="matrix(1,0,0,1,785.333333333333,-1548) translate(53.342013888888886 88.28906249999999)"/><use xlink:href="#Q" transform="matrix(1,0,0,1,785.333333333333,-1548) translate(160.02604166666669 88.28906249999999)"/><use xlink:href="#i" transform="matrix(1,0,0,1,785.333333333333,-1548) translate(0 116.40104166666664)"/><use xlink:href="#R" transform="matrix(1,0,0,1,785.333333333333,-1548) translate(53.342013888888886 116.40104166666664)"/><use xlink:href="#C" transform="matrix(1,0,0,1,785.333333333333,-1548) translate(146.69053819444446 116.40104166666664)"/><use xlink:href="#i" transform="matrix(1,0,0,1,785.333333333333,-1548) translate(0 144.51302083333331)"/><use xlink:href="#T" transform="matrix(1,0,0,1,785.333333333333,-1548) translate(53.342013888888886 144.51302083333331)"/><use xlink:href="#U" transform="matrix(1,0,0,1,785.333333333333,-1548) translate(146.69053819444446 144.51302083333331)"/><use xlink:href="#V" transform="matrix(1,0,0,1,785.333333333333,-1548) translate(173.3615451388889 144.51302083333331)"/><use xlink:href="#f" transform="matrix(1,0,0,1,785.333333333333,-1548) translate(0 172.62499999999997)"/><use xlink:href="#W" transform="matrix(1,0,0,1,785.333333333333,-1548) translate(26.671006944444443 172.62499999999997)"/><use xlink:href="#Q" transform="matrix(1,0,0,1,785.333333333333,-1548) translate(200.03255208333337 172.62499999999997)"/><use xlink:href="#f" transform="matrix(1,0,0,1,785.333333333333,-1548) translate(0 200.73697916666663)"/><use xlink:href="#X" transform="matrix(1,0,0,1,785.333333333333,-1548) translate(26.671006944444443 200.73697916666663)"/><use xlink:href="#J" transform="matrix(1,0,0,1,785.333333333333,-1548) translate(173.3615451388889 200.73697916666663)"/></g><path d="M1240-1876.1a6 6 0 0 1 6-6h348a6 6 0 0 1 6 6v232.2a6 6 0 0 1-6 6h-348a6 6 0 0 1-6-6z" stroke="#000" stroke-width="2" fill="#f2f3f5"/><g><use xlink:href="#aq" transform="matrix(1,0,0,1,1252,-1870.1117621527778) translate(0 18.50043402777778)"/><use xlink:href="#ar" transform="matrix(1,0,0,1,1252,-1870.1117621527778) translate(120.01953125000003 18.50043402777778)"/><use xlink:href="#f" transform="matrix(1,0,0,1,1252,-1870.1117621527778) translate(0 46.61458333333333)"/><use xlink:href="#x" transform="matrix(1,0,0,1,1252,-1870.1117621527778) translate(26.671006944444443 46.61458333333333)"/><use xlink:href="#y" transform="matrix(1,0,0,1,1252,-1870.1117621527778) translate(160.02604166666669 46.61458333333333)"/><use xlink:href="#f" transform="matrix(1,0,0,1,1252,-1870.1117621527778) translate(0 74.7265625)"/><use xlink:href="#g" transform="matrix(1,0,0,1,1252,-1870.1117621527778) translate(26.671006944444443 74.7265625)"/><use xlink:href="#h" transform="matrix(1,0,0,1,1252,-1870.1117621527778) translate(160.02604166666669 74.7265625)"/><use xlink:href="#f" transform="matrix(1,0,0,1,1252,-1870.1117621527778) translate(0 102.83854166666666)"/><use xlink:href="#z" transform="matrix(1,0,0,1,1252,-1870.1117621527778) translate(26.671006944444443 102.83854166666666)"/><use xlink:href="#as" transform="matrix(1,0,0,1,1252,-1870.1117621527778) translate(133.35503472222223 102.83854166666666)"/><use xlink:href="#at" transform="matrix(1,0,0,1,1252,-1870.1117621527778) translate(0 130.95052083333334)"/><use xlink:href="#au" transform="matrix(1,0,0,1,1252,-1870.1117621527778) translate(53.342013888888886 130.95052083333334)"/><use xlink:href="#k" transform="matrix(1,0,0,1,1252,-1870.1117621527778) translate(139.52907986111111 130.95052083333334)"/><use xlink:href="#i" transform="matrix(1,0,0,1,1252,-1870.1117621527778) translate(0 159.0625)"/><use xlink:href="#av" transform="matrix(1,0,0,1,1252,-1870.1117621527778) translate(53.342013888888886 159.0625)"/><use xlink:href="#aw" transform="matrix(1,0,0,1,1252,-1870.1117621527778) translate(160.02604166666669 159.0625)"/><use xlink:href="#f" transform="matrix(1,0,0,1,1252,-1870.1117621527778) translate(0 187.17447916666666)"/><use xlink:href="#D" transform="matrix(1,0,0,1,1252,-1870.1117621527778) translate(26.671006944444443 187.17447916666666)"/><use xlink:href="#k" transform="matrix(1,0,0,1,1252,-1870.1117621527778) translate(133.35503472222223 187.17447916666666)"/><use xlink:href="#f" transform="matrix(1,0,0,1,1252,-1870.1117621527778) translate(0 215.28645833333331)"/><use xlink:href="#E" transform="matrix(1,0,0,1,1252,-1870.1117621527778) translate(26.671006944444443 215.28645833333331)"/><use xlink:href="#ax" transform="matrix(1,0,0,1,1252,-1870.1117621527778) translate(133.35503472222223 215.28645833333331)"/></g><path d="M1238-1760h-12a6 6 0 0 0-6 6v478a6 6 0 0 1-6 6H746a6 6 0 0 1-6-6v-478a6 6 0 0 0-6-6h-74.5" stroke="#1071e5" stroke-width="2" fill="none"/><path d="M1239-1759.03h-1.03v-1.94h1.03z" stroke="#1071e5" stroke-width=".05" fill="#1071e5"/><path d="M644.24-1760l14.26-4.63v9.27z" stroke="#1071e5" stroke-width="2" fill="#1071e5"/><path d="M1200-1979v19.97m0 19.98v39.94m0 19.97v39.94m0 20v39.93m0 19.98v39.95m0 19.98v39.94m0 19.98v39.94m0 19.97v39.94m0 20v39.93m0 19.98v39.95m0 19.98v39.94m0 19.98v39.94m0 19.97v39.94m0 20v39.93m0 19.98v39.95m0 19.98v39.94m0 19.98v39.94m0 19.97v39.94m0 20v39.93m0 19.98v39.95m0 19.98v39.94m0 19.98v39.94m0 19.97v39.94m0 20v39.93m0 19.98v39.95m0 19.98V-481M1200-1978.97v-1.03M1200-481.03v1.03M1680-1979v19.97m0 19.98v39.94m0 19.97v39.94m0 20v39.93m0 19.98v39.95m0 19.98v39.94m0 19.98v39.94m0 19.97v39.94m0 20v39.93m0 19.98v39.95m0 19.98v39.94m0 19.98v39.94m0 19.97v39.94m0 20v39.93m0 19.98v39.95m0 19.98v39.94m0 19.98v39.94m0 19.97v39.94m0 20v39.93m0 19.98v39.95m0 19.98v39.94m0 19.98v39.94m0 19.97v39.94m0 20v39.93m0 19.98v39.95m0 19.98V-481M1680-1978.97v-1.03M1680-481.03v1.03" stroke="#d916a8" stroke-width="2" fill="none"/><path d="M601.4-1694.6a9.54 9.54 0 0 1 8.6-5.4h60a9.54 9.54 0 0 1 8.6 5.4l18.8 39.2a12.5 12.5 0 0 1 0 10.8l-18.8 39.2a9.54 9.54 0 0 1-8.6 5.4h-60a9.54 9.54 0 0 1-8.6-5.4l-18.8-39.2a12.5 12.5 0 0 1 0-10.8z" stroke="#1071e5" stroke-width="2" fill="#edf5ff"/><g><use xlink:href="#ay" transform="matrix(1,0,0,1,585,-1695) translate(29.131519097222224 35.59027777777778)"/><use xlink:href="#az" transform="matrix(1,0,0,1,585,-1695) translate(28.833125000000003 67.85590277777777)"/></g><path d="M1081.4-1694.6a9.54 9.54 0 0 1 8.6-5.4h60a9.54 9.54 0 0 1 8.6 5.4l18.8 39.2a12.5 12.5 0 0 1 0 10.8l-18.8 39.2a9.54 9.54 0 0 1-8.6 5.4h-60a9.54 9.54 0 0 1-8.6-5.4l-18.8-39.2a12.5 12.5 0 0 1 0-10.8z" stroke="#1071e5" stroke-width="2" fill="#edf5ff"/><g><use xlink:href="#ay" transform="matrix(1,0,0,1,1065,-1695) translate(29.131519097222224 35.59027777777778)"/><use xlink:href="#az" transform="matrix(1,0,0,1,1065,-1695) translate(28.833125000000003 67.85590277777777)"/></g><path d="M1081.4-1374.6a9.54 9.54 0 0 1 8.6-5.4h60a9.54 9.54 0 0 1 8.6 5.4l18.8 39.2a12.5 12.5 0 0 1 0 10.8l-18.8 39.2a9.54 9.54 0 0 1-8.6 5.4h-60a9.54 9.54 0 0 1-8.6-5.4l-18.8-39.2a12.5 12.5 0 0 1 0-10.8z" stroke="#1071e5" stroke-width="2" fill="#edf5ff"/><g><use xlink:href="#aA" transform="matrix(1,0,0,1,1065,-1375) translate(34.26932291666667 35.59027777777778)"/><use xlink:href="#az" transform="matrix(1,0,0,1,1065,-1375) translate(28.833125000000003 67.85590277777777)"/></g><path d="M1561.4-1674.6a9.54 9.54 0 0 1 8.6-5.4h60a9.54 9.54 0 0 1 8.6 5.4l18.8 39.2a12.5 12.5 0 0 1 0 10.8l-18.8 39.2a9.54 9.54 0 0 1-8.6 5.4h-60a9.54 9.54 0 0 1-8.6-5.4l-18.8-39.2a12.5 12.5 0 0 1 0-10.8z" stroke="#1071e5" stroke-width="2" fill="#edf5ff"/><g><use xlink:href="#aB" transform="matrix(1,0,0,1,1545,-1675) translate(28.833125000000003 35.59027777777778)"/><use xlink:href="#aC" transform="matrix(1,0,0,1,1545,-1675) translate(22.90864583333333 67.85590277777777)"/></g><path d="M771.33-940H659.5" stroke="#1071e5" stroke-width="2" fill="none"/><path d="M772.33-939.02h-1.02V-941h1.03z" stroke="#1071e5" stroke-width=".05" fill="#1071e5"/><path d="M644.24-940l14.26-4.63v9.26z" stroke="#1071e5" stroke-width="2" fill="#1071e5"/><path d="M720-1978.24v19.96m0 19.96v39.93m0 19.97v39.93m0 19.96v39.93m0 19.95v39.93m0 19.96v39.93m0 19.96v39.93m0 19.96v39.93m0 19.96v39.94m0 19.96v39.93m0 19.96v39.92m0 19.96v39.93m0 19.97v39.93m0 19.96v39.93m0 19.95v39.93m0 19.96v39.92m0 19.97v39.93m0 19.96v39.93m0 19.96v39.94m0 19.96v39.92m0 19.97v39.9m0 19.98v39.92m0 19.97v39.92m0 19.96v39.92m0 19.97v39.92m0 19.97V-481M720-1978.22v-1.02M720-481.03v1.03" stroke="#d916a8" stroke-width="2" fill="none"/><path d="M955.33-818v43.83M951.33-818v43.83" stroke="#000" stroke-width="2" fill="none"/><path d="M956.3-817.97h-1.94V-819h1.95zM952.3-817.97h-1.94V-819h1.95z" stroke="#000" stroke-width=".05"/><path d="M953.33-758.9l-4.63-14.27h9.27z" stroke="#000" stroke-width="2"/><path d="M660-1885.33c0 11.04-8.95 20-20 20s-20-8.96-20-20c0-11.05 8.95-20 20-20s20 8.95 20 20z" stroke="#ced4db" stroke-width="2" fill="#f2f3f5"/><g><use xlink:href="#aD" transform="matrix(1,0,0,1,625,-1900.3333333333335) translate(10.48568576388889 23.40277777777778)"/></g><path d="M1160-1885.33c0 11.04-8.95 20-20 20s-20-8.96-20-20c0-11.05 8.95-20 20-20s20 8.95 20 20z" stroke="#ced4db" stroke-width="2" fill="#f2f3f5"/><g><use xlink:href="#aE" transform="matrix(1,0,0,1,1125,-1900.3333333333335) translate(8.228741319444445 23.40277777777778)"/></g><path d="M1160-1560c0 11.05-8.95 20-20 20s-20-8.95-20-20 8.95-20 20-20 20 8.95 20 20z" stroke="#ced4db" stroke-width="2" fill="#f2f3f5"/><g><use xlink:href="#aF" transform="matrix(1,0,0,1,1125,-1575) translate(8.14193576388889 23.40277777777778)"/></g><path d="M1620-1885.33c0 11.04-8.95 20-20 20s-20-8.96-20-20c0-11.05 8.95-20 20-20s20 8.95 20 20z" stroke="#ced4db" stroke-width="2" fill="#f2f3f5"/><g><use xlink:href="#aG" transform="matrix(1,0,0,1,1585,-1900.3333333333335) translate(7.827265625 23.40277777777778)"/></g><defs><path fill="#1071e5" d="M52 0l541-1490h220L1361 0h-200l-149-416H398L254 0H52zm404-582h497c-103-290-145-390-251-756-108 377-145 460-246 756" id="aH"/><path fill="#1071e5" d="M338-1490V0H158v-1490h180" id="aI"/><path fill="#1071e5" d="M158 0v-1118h180V0H158zm91-1301c-68 0-125-53-125-119s57-119 125-119c69 0 126 53 126 119s-57 119-126 119" id="aJ"/><path fill="#1071e5" d="M613 24c-304 0-509-231-509-576 0-350 205-580 509-580 216 0 392 114 453 309l-173 49c-33-115-133-197-280-197-223 0-326 196-326 419 0 220 103 415 326 415 150 0 252-85 285-206l172 49C1010-95 832 24 613 24" id="aK"/><path fill="#1071e5" d="M628 24c-324 0-524-230-524-574 0-343 198-582 503-582 237 0 487 146 487 559v75H286c9 234 145 362 343 362 132 0 231-58 273-172l174 48C1024-91 857 24 628 24zM287-650h624c-17-190-120-322-304-322-192 0-309 151-320 322" id="aL"/><path fill="#1071e5" d="M232-923l-22-567h194l-22 567H232" id="aM"/><path fill="#1071e5" d="M538 24C308 24 148-78 108-271l171-41c32 123 123 178 257 178 156 0 256-77 256-169 0-77-54-128-164-154l-186-44c-203-48-300-148-300-305 0-192 176-326 414-326 230 0 351 112 402 269l-163 42c-31-80-94-158-238-158-133 0-233 69-233 162 0 83 57 129 188 160l169 40c203 48 298 149 298 302 0 196-179 339-441 339" id="aN"/><g id="a"><use transform="matrix(0.015190972222222224,0,0,0.015190972222222224,0,0)" xlink:href="#aH"/><use transform="matrix(0.015190972222222224,0,0,0.015190972222222224,21.464843750000004,0)" xlink:href="#aI"/><use transform="matrix(0.015190972222222224,0,0,0.015190972222222224,28.99956597222223,0)" xlink:href="#aJ"/><use transform="matrix(0.015190972222222224,0,0,0.015190972222222224,36.53428819444445,0)" xlink:href="#aK"/><use transform="matrix(0.015190972222222224,0,0,0.015190972222222224,54.30772569444446,0)" xlink:href="#aL"/><use transform="matrix(0.015190972222222224,0,0,0.015190972222222224,71.99001736111113,0)" xlink:href="#aM"/><use transform="matrix(0.015190972222222224,0,0,0.015190972222222224,81.31727430555557,0)" xlink:href="#aN"/></g><path fill="#1071e5" d="M158 418v-1536h174v179h20c37-59 106-193 324-193 279 0 474 222 474 576 0 356-194 580-473 580-213 0-288-135-325-197h-14v591H158zm492-555c209 0 317-186 317-421 0-232-105-413-317-413-206 0-314 166-314 413 0 249 111 421 314 421" id="aO"/><path fill="#1071e5" d="M158 0v-1118h174v172h12c41-113 157-188 290-188 26 0 70 2 91 3v181c-11-2-60-10-108-10-161 0-279 109-279 260V0H158" id="aP"/><path fill="#1071e5" d="M613 24c-304 0-509-231-509-576 0-350 205-580 509-580 305 0 511 230 511 580 0 345-206 576-511 576zm0-161c226 0 329-195 329-415 0-222-103-419-329-419-223 0-326 196-326 419 0 220 103 415 326 415" id="aQ"/><path fill="#1071e5" d="M157-1118h181V80c1 225-123 350-364 338V252c126 9 184-48 183-172v-1198zm91-183c-68 0-125-53-125-119s57-119 125-119c69 0 126 53 126 119s-57 119-126 119" id="aR"/><path fill="#1071e5" d="M598-1118v154H368v674c0 100 37 144 132 144 23 0 62-6 92-12L629-6c-37 13-88 20-134 20-193 0-307-107-307-290v-688H20v-154h168v-266h180v266h230" id="aS"/><path fill="#1071e5" d="M338-670V0H158v-1118h173l1 207c72-158 192-221 342-221 226 0 378 139 378 422V0H872v-695c0-172-96-275-252-275-161 0-282 109-282 300" id="aT"/><g id="b"><use transform="matrix(0.015190972222222224,0,0,0.015190972222222224,0,0)" xlink:href="#aO"/><use transform="matrix(0.015190972222222224,0,0,0.015190972222222224,19.049479166666668,0)" xlink:href="#aP"/><use transform="matrix(0.015190972222222224,0,0,0.015190972222222224,30.245225694444443,0)" xlink:href="#aQ"/><use transform="matrix(0.015190972222222224,0,0,0.015190972222222224,48.89973958333333,0)" xlink:href="#aR"/><use transform="matrix(0.015190972222222224,0,0,0.015190972222222224,56.43446180555555,0)" xlink:href="#aL"/><use transform="matrix(0.015190972222222224,0,0,0.015190972222222224,74.57248263888889,0)" xlink:href="#aK"/><use transform="matrix(0.015190972222222224,0,0,0.015190972222222224,92.34592013888889,0)" xlink:href="#aS"/><use transform="matrix(0.015190972222222224,0,0,0.015190972222222224,102.52387152777777,0)" xlink:href="#aJ"/><use transform="matrix(0.015190972222222224,0,0,0.015190972222222224,110.05859375,0)" xlink:href="#aQ"/><use transform="matrix(0.015190972222222224,0,0,0.015190972222222224,128.71310763888889,0)" xlink:href="#aT"/></g><path d="M872-915c-35-112-84-223-220-223-91 0-156 41-204 116-89 137-87 550 2 688 51 79 116 122 209 122 150 0 197-126 240-244l273 52C1094-168 961 20 656 20 239 20 80-262 80-681c0-418 154-689 568-689 289 0 425 167 496 389" id="aU"/><path d="M875-1102c70 0 148 7 206 17v237c-110-17-267-37-359 15-123 69-192 207-192 395V0H250c-10-367 32-789-52-1082h271c19 69 36 149 46 228h4c52-151 151-250 356-248" id="aV"/><path d="M1113-274C1038-96 884 20 626 20c-352 0-526-209-526-566 0-358 185-556 530-556 358 0 496 251 499 615H395c5 180 68 319 245 319 102 0 186-45 208-129zM857-663c-6-177-128-307-315-247-94 30-141 121-145 247h460" id="aW"/><path d="M775-193C708-75 621 20 439 20 226 20 106-93 106-306c0-251 170-341 417-346l223-4c4-143-12-264-148-264-103 0-141 58-150 153l-293-14c37-219 194-321 455-321 263 0 418 130 417 390v392c1 84 5 161 89 160 21 0 42-2 62-6v152c-57 15-108 27-180 26-145 0-202-73-217-205h-6zm-256 17c168 0 234-139 227-325-166 4-347-25-347 173 0 94 33 152 120 152" id="aX"/><path d="M711 13c-250 0-386-99-385-349l2-556H161v-190h181l88-282h176v282h385v190H606v530c-10 130 45 186 174 184 91-2 176-11 255-27v186C933-1 833 13 711 13" id="aY"/><g id="c"><use transform="matrix(0.010850694444444444,0,0,0.010850694444444444,0,0)" xlink:href="#aU"/><use transform="matrix(0.010850694444444444,0,0,0.010850694444444444,13.335503472222221,0)" xlink:href="#aV"/><use transform="matrix(0.010850694444444444,0,0,0.010850694444444444,26.671006944444443,0)" xlink:href="#aW"/><use transform="matrix(0.010850694444444444,0,0,0.010850694444444444,40.006510416666664,0)" xlink:href="#aX"/><use transform="matrix(0.010850694444444444,0,0,0.010850694444444444,53.342013888888886,0)" xlink:href="#aY"/><use transform="matrix(0.010850694444444444,0,0,0.010850694444444444,66.67751736111111,0)" xlink:href="#aW"/></g><path d="M621-530c0 421 127 700 301 955H641C466 173 344-110 344-531s122-702 297-953h281c-174 254-301 534-301 954" id="aZ"/><path d="M616-1102c361 0 521 202 521 560 0 354-171 562-527 562C259 20 92-192 92-542c0-351 169-560 524-560zm-9 930c200-2 236-165 236-370 0-199-27-367-223-367-195 0-233 146-233 367 0 129 18 223 55 282s92 88 165 88" id="ba"/><path d="M768-1103c247 0 336 167 336 416V0H824v-619c-3-164-24-273-171-273-164 0-229 142-229 312V0H143c-4-359 9-736-8-1082h268c7 63 12 146 13 215h4c67-145 160-236 348-236" id="bb"/><path d="M1109-360C1066-122 902 20 624 20c-347 0-514-209-514-555 0-353 168-567 518-567 270 0 425 136 473 361l-283 14c-16-106-75-183-196-182-75 0-130 31-165 93s-52 152-52 270c0 249 74 374 221 374 120 0 188-82 201-201" id="bc"/><g id="d"><use transform="matrix(0.010850694444444444,0,0,0.010850694444444444,0,0)" xlink:href="#aZ"/><use transform="matrix(0.010850694444444444,0,0,0.010850694444444444,13.335503472222221,0)" xlink:href="#aU"/><use transform="matrix(0.010850694444444444,0,0,0.010850694444444444,26.671006944444443,0)" xlink:href="#ba"/><use transform="matrix(0.010850694444444444,0,0,0.010850694444444444,40.006510416666664,0)" xlink:href="#bb"/><use transform="matrix(0.010850694444444444,0,0,0.010850694444444444,53.342013888888886,0)" xlink:href="#aY"/><use transform="matrix(0.010850694444444444,0,0,0.010850694444444444,66.67751736111111,0)" xlink:href="#aV"/><use transform="matrix(0.010850694444444444,0,0,0.010850694444444444,80.01302083333334,0)" xlink:href="#aX"/><use transform="matrix(0.010850694444444444,0,0,0.010850694444444444,93.34852430555557,0)" xlink:href="#bc"/><use transform="matrix(0.010850694444444444,0,0,0.010850694444444444,106.6840277777778,0)" xlink:href="#aY"/></g><path d="M951-835l-69 324h237v149H849L771 0H616l79-362H386L308 0H155l78-362H59v-149h206l70-324H108v-148h259l79-366h153l-78 366h308l79-366h153l-78 366h185v148H951zm-463 0l-70 324h309l70-324H488" id="bd"/><path d="M138-1120c207-4 339-93 415-229h266v1140h323V0H149v-209h389v-891c-70 121-216 187-400 194v-214" id="be"/><path d="M885-531c0 421-122 704-297 956H307c174-255 301-534 301-955 0-420-127-700-301-954h281c175 251 297 532 297 953" id="bf"/><g id="e"><use transform="matrix(0.010850694444444444,0,0,0.010850694444444444,0,0)" xlink:href="#bd"/><use transform="matrix(0.010850694444444444,0,0,0.010850694444444444,13.335503472222221,0)" xlink:href="#be"/><use transform="matrix(0.010850694444444444,0,0,0.010850694444444444,26.671006944444443,0)" xlink:href="#bf"/></g><path d="M709-1193V0H519v-1193H76v-156h1076v156H709" id="bg"/><path d="M617-1102c355 0 481 238 477 599H322c5 222 84 388 301 388 144 0 244-59 284-166l158 45C1002-72 854 20 623 20c-342 0-490-220-490-568 0-346 151-554 484-554zm291 461c-18-192-90-328-289-328-194 0-287 128-295 328h584" id="bh"/><path d="M904-1102c199 0 220 177 220 381V0H956v-686c-3-114 0-215-60-264-70-33-125-4-158 71-26 56-39 140-39 252V0H531v-686c-3-114-1-215-61-264-78-41-136 24-157 84-24 69-39 159-39 259V0H105c-3-360 6-732-6-1082h149c6 50 3 123 8 175 36-100 83-195 216-195 135 0 166 79 196 196 42-105 93-196 236-196" id="bi"/><path d="M698-1104c312 3 392 244 392 558 0 315-82 566-392 566-169 0-277-65-331-184h-5c8 188 2 394 4 589H185V-858c0-76-1-156-6-224h175c6 52 9 120 10 178h4c58-122 150-202 330-200zm-49 991c225 0 255-203 255-433 0-225-32-419-253-419-236 0-285 192-285 441 0 237 53 411 283 411" id="bj"/><path d="M736-142h380V0H134v-142h422v-1200H267v-142h469v1342" id="bk"/><path d="M1000-272c3 95 12 159 101 161 21 0 41-3 59-7V-6c-44 10-86 16-139 16-141 2-191-84-197-217h-6C748-76 648 20 446 20c-207 0-318-120-318-322 0-266 194-348 454-354l236-4c12-191-40-305-222-305-140 0-220 47-232 172l-188-17c33-204 181-292 423-292 255 0 401 118 401 364v466zm-683-27c0 109 63 184 175 182 166-3 259-96 306-217 24-65 20-120 20-200-232 7-501-28-501 235" id="bl"/><path d="M682 16c-209 0-323-80-324-285v-671H190v-142h170l58-282h120v282h432v142H538v652c2 114 60 155 182 155 106 0 209-16 297-34v137C921-4 806 16 682 16" id="bm"/><path d="M496 0v-299h235V0H496zm0-783v-299h235v299H496" id="bn"/><g id="g"><use transform="matrix(0.010850694444444444,0,0,0.010850694444444444,0,0)" xlink:href="#bg"/><use transform="matrix(0.010850694444444444,0,0,0.010850694444444444,13.335503472222221,0)" xlink:href="#bh"/><use transform="matrix(0.010850694444444444,0,0,0.010850694444444444,26.671006944444443,0)" xlink:href="#bi"/><use transform="matrix(0.010850694444444444,0,0,0.010850694444444444,40.006510416666664,0)" xlink:href="#bj"/><use transform="matrix(0.010850694444444444,0,0,0.010850694444444444,53.342013888888886,0)" xlink:href="#bk"/><use transform="matrix(0.010850694444444444,0,0,0.010850694444444444,66.67751736111111,0)" xlink:href="#bl"/><use transform="matrix(0.010850694444444444,0,0,0.010850694444444444,80.01302083333334,0)" xlink:href="#bm"/><use transform="matrix(0.010850694444444444,0,0,0.010850694444444444,93.34852430555557,0)" xlink:href="#bh"/><use transform="matrix(0.010850694444444444,0,0,0.010850694444444444,106.6840277777778,0)" xlink:href="#bn"/></g><path d="M614-1226c-167 1-283 53-283 213 0 183 186 193 334 234 230 63 463 120 463 409 0 286-219 387-518 390C309 23 131-98 79-338l185-37c34 165 149 248 351 246 184-2 324-58 324-238 0-203-207-221-372-266-210-57-422-111-422-377 0-267 201-356 470-360 279-5 430 101 480 324l-188 33c-28-141-121-215-293-213" id="bo"/><path d="M745-142h380V0H143v-142h422v-798H246v-142h499v940zM545-1292v-192h200v192H545" id="bp"/><path d="M1034 0L896-382H333L196 0H0l510-1349h217L1228 0h-194zM847-531c-77-225-157-447-231-674-69 231-154 451-232 674h463" id="bq"/><path d="M873-819c-18-114-119-146-250-146-163 0-245 50-245 151 0 151 170 148 294 185 182 54 388 94 388 320 0 240-189 325-439 329-245 4-410-69-454-268l159-31c24 133 136 168 295 165 144-2 270-31 270-171 0-164-195-160-331-202-167-52-350-87-350-299 0-218 173-315 413-313 220 2 373 77 412 260" id="br"/><g id="h"><use transform="matrix(0.010850694444444444,0,0,0.010850694444444444,0,0)" xlink:href="#bo"/><use transform="matrix(0.010850694444444444,0,0,0.010850694444444444,13.335503472222221,0)" xlink:href="#bp"/><use transform="matrix(0.010850694444444444,0,0,0.010850694444444444,26.671006944444443,0)" xlink:href="#bi"/><use transform="matrix(0.010850694444444444,0,0,0.010850694444444444,40.006510416666664,0)" xlink:href="#bj"/><use transform="matrix(0.010850694444444444,0,0,0.010850694444444444,53.342013888888886,0)" xlink:href="#bk"/><use transform="matrix(0.010850694444444444,0,0,0.010850694444444444,66.67751736111111,0)" xlink:href="#bh"/><use transform="matrix(0.010850694444444444,0,0,0.010850694444444444,80.01302083333334,0)" xlink:href="#bq"/><use transform="matrix(0.010850694444444444,0,0,0.010850694444444444,93.34852430555557,0)" xlink:href="#br"/><use transform="matrix(0.010850694444444444,0,0,0.010850694444444444,106.6840277777778,0)" xlink:href="#br"/><use transform="matrix(0.010850694444444444,0,0,0.010850694444444444,120.01953125000003,0)" xlink:href="#bh"/><use transform="matrix(0.010850694444444444,0,0,0.010850694444444444,133.35503472222226,0)" xlink:href="#bm"/></g><path d="M528 20c-247 0-343-132-343-381v-721h180v686c-4 177 45 284 224 277 194-8 279-136 279-336v-627h181c3 360-6 732 6 1082H885c-4-54-7-126-8-185h-3C809-64 714 20 528 20" id="bs"/><path d="M839-1102c70 0 148 7 206 17v167c-112-18-268-36-363 15-129 69-208 203-208 395V0H294c-10-367 32-789-52-1082h171c21 75 41 161 48 250h5c67-152 152-270 373-270" id="bt"/><g id="j"><use transform="matrix(0.010850694444444444,0,0,0.010850694444444444,0,0)" xlink:href="#bp"/><use transform="matrix(0.010850694444444444,0,0,0.010850694444444444,13.335503472222221,0)" xlink:href="#br"/><use transform="matrix(0.010850694444444444,0,0,0.010850694444444444,26.671006944444443,0)" xlink:href="#br"/><use transform="matrix(0.010850694444444444,0,0,0.010850694444444444,40.006510416666664,0)" xlink:href="#bs"/><use transform="matrix(0.010850694444444444,0,0,0.010850694444444444,53.342013888888886,0)" xlink:href="#bh"/><use transform="matrix(0.010850694444444444,0,0,0.010850694444444444,66.67751736111111,0)" xlink:href="#bt"/><use transform="matrix(0.010850694444444444,0,0,0.010850694444444444,80.01302083333334,0)" xlink:href="#bn"/></g><path d="M802-711c201 25 350 118 350 331C1152-95 921 0 634 0H162v-1349c401 9 908-74 908 327 0 184-111 275-268 311zm-224-69c174-2 300-51 300-218 0-163-124-198-302-198H353v416h225zM353-153c281-2 612 44 606-244-5-271-329-233-606-234v478" id="bu"/><path d="M706-1102c241 0 344 136 343 381V0H868v-695c1-168-57-273-220-268-190 6-283 138-283 336V0H185c-3-360 6-732-6-1082h170c4 54 7 126 8 185h3c63-121 164-204 346-205" id="bv"/><path d="M914 0L548-499l-132 98V0H236v-1484h180v927l475-525h211L663-617 1125 0H914" id="bw"/><g id="k"><use transform="matrix(0.010850694444444444,0,0,0.010850694444444444,0,0)" xlink:href="#bu"/><use transform="matrix(0.010850694444444444,0,0,0.010850694444444444,13.335503472222221,0)" xlink:href="#bl"/><use transform="matrix(0.010850694444444444,0,0,0.010850694444444444,26.671006944444443,0)" xlink:href="#bv"/><use transform="matrix(0.010850694444444444,0,0,0.010850694444444444,40.006510416666664,0)" xlink:href="#bw"/></g><path d="M615-1102c343 0 484 203 482 560-1 347-147 562-488 562-336 0-475-219-479-562-4-349 156-560 485-560zm-8 989c240 0 301-180 301-429 0-245-55-427-290-427-236 0-299 181-299 427 0 243 61 429 288 429" id="bx"/><path d="M1018 0H814c-67-224-138-444-200-673C552-442 476-224 407 0H204L21-1082h178c43 310 105 601 126 933 54-225 128-425 193-638h193c63 212 134 415 185 638 22-336 90-622 136-933h176" id="by"/><g id="l"><use transform="matrix(0.010850694444444444,0,0,0.010850694444444444,0,0)" xlink:href="#bx"/><use transform="matrix(0.010850694444444444,0,0,0.010850694444444444,13.335503472222221,0)" xlink:href="#by"/><use transform="matrix(0.010850694444444444,0,0,0.010850694444444444,26.671006944444443,0)" xlink:href="#bv"/><use transform="matrix(0.010850694444444444,0,0,0.010850694444444444,40.006510416666664,0)" xlink:href="#bh"/><use transform="matrix(0.010850694444444444,0,0,0.010850694444444444,53.342013888888886,0)" xlink:href="#bt"/><use transform="matrix(0.010850694444444444,0,0,0.010850694444444444,66.67751736111111,0)" xlink:href="#bn"/></g><path d="M631 20c-350 0-501-215-501-562 0-355 162-560 502-560 250 0 399 118 446 323l-192 14c-23-124-109-196-262-196-242 0-305 171-305 415 1 245 61 427 304 427 151 0 248-77 267-215l190 12C1039-107 883 20 631 20" id="bz"/><g id="m"><use transform="matrix(0.010850694444444444,0,0,0.010850694444444444,0,0)" xlink:href="#bq"/><use transform="matrix(0.010850694444444444,0,0,0.010850694444444444,13.335503472222221,0)" xlink:href="#bk"/><use transform="matrix(0.010850694444444444,0,0,0.010850694444444444,26.671006944444443,0)" xlink:href="#bp"/><use transform="matrix(0.010850694444444444,0,0,0.010850694444444444,40.006510416666664,0)" xlink:href="#bz"/><use transform="matrix(0.010850694444444444,0,0,0.010850694444444444,53.342013888888886,0)" xlink:href="#bh"/></g><g id="n"><use transform="matrix(0.010850694444444444,0,0,0.010850694444444444,0,0)" xlink:href="#bl"/><use transform="matrix(0.010850694444444444,0,0,0.010850694444444444,13.335503472222221,0)" xlink:href="#br"/><use transform="matrix(0.010850694444444444,0,0,0.010850694444444444,26.671006944444443,0)" xlink:href="#br"/><use transform="matrix(0.010850694444444444,0,0,0.010850694444444444,40.006510416666664,0)" xlink:href="#bh"/><use transform="matrix(0.010850694444444444,0,0,0.010850694444444444,53.342013888888886,0)" xlink:href="#bm"/><use transform="matrix(0.010850694444444444,0,0,0.010850694444444444,66.67751736111111,0)" xlink:href="#bn"/></g><path d="M148-1120c216-7 379-89 463-229h166v1204h353V0H157v-145h439v-1021c-79 124-254 184-448 194v-148" id="bA"/><use transform="matrix(0.010850694444444444,0,0,0.010850694444444444,0,0)" xlink:href="#bA" id="o"/><path d="M162 0v-1349h919v156H353v422h668v154H353v461h769V0H162" id="bB"/><path d="M604-135c236 0 291-142 291-376v-838h190v859c5 340-142 510-480 510-326 0-463-164-463-492v-877h191v851c-3 222 46 363 271 363" id="bC"/><path d="M1121-976c0 225-142 341-344 379L1177 0H957L591-575H353V0H162v-1349h482c281 3 477 100 477 373zM633-726c181-1 296-73 296-247 0-149-101-223-304-223H353v470h280" id="bD"/><g id="p"><use transform="matrix(0.010850694444444444,0,0,0.010850694444444444,0,0)" xlink:href="#bB"/><use transform="matrix(0.010850694444444444,0,0,0.010850694444444444,13.335503472222221,0)" xlink:href="#bC"/><use transform="matrix(0.010850694444444444,0,0,0.010850694444444444,26.671006944444443,0)" xlink:href="#bD"/></g><path d="M1048-32c-2 300-135 456-433 456-222-1-358-88-400-267l184-25c22 99 100 157 222 156 184-2 248-125 248-315 0-64 3-133-2-194C807-100 706-13 524-12c-306 0-381-228-381-537 0-318 85-550 400-550 164 0 271 83 325 202h3c1-60 3-134 12-185h171c-13 339-4 702-6 1050zM585-145c210-8 284-178 284-406 0-192-52-331-177-392-33-16-69-22-104-22-223 2-259 184-259 414 0 229 31 415 256 406" id="bE"/><g id="q"><use transform="matrix(0.010850694444444444,0,0,0.010850694444444444,0,0)" xlink:href="#bo"/><use transform="matrix(0.010850694444444444,0,0,0.010850694444444444,13.335503472222221,0)" xlink:href="#bp"/><use transform="matrix(0.010850694444444444,0,0,0.010850694444444444,26.671006944444443,0)" xlink:href="#bE"/><use transform="matrix(0.010850694444444444,0,0,0.010850694444444444,40.006510416666664,0)" xlink:href="#bv"/><use transform="matrix(0.010850694444444444,0,0,0.010850694444444444,53.342013888888886,0)" xlink:href="#bl"/><use transform="matrix(0.010850694444444444,0,0,0.010850694444444444,66.67751736111111,0)" xlink:href="#bm"/><use transform="matrix(0.010850694444444444,0,0,0.010850694444444444,80.01302083333334,0)" xlink:href="#bx"/><use transform="matrix(0.010850694444444444,0,0,0.010850694444444444,93.34852430555557,0)" xlink:href="#bt"/><use transform="matrix(0.010850694444444444,0,0,0.010850694444444444,106.6840277777778,0)" xlink:href="#bp"/><use transform="matrix(0.010850694444444444,0,0,0.010850694444444444,120.01953125000003,0)" xlink:href="#bh"/><use transform="matrix(0.010850694444444444,0,0,0.010850694444444444,133.35503472222226,0)" xlink:href="#br"/><use transform="matrix(0.010850694444444444,0,0,0.010850694444444444,146.69053819444449,0)" xlink:href="#bn"/></g><path d="M102-681c0-398 126-689 513-689 165 0 291 58 379 174s132 287 132 515c-1 318-88 554-298 657-123 61-317 58-438-3-206-104-288-341-288-654zm749 406c94-160 97-656-5-807-57-85-130-132-231-132-104 0-178 47-234 132-101 153-99 655 1 809 57 89 130 138 232 138 109 0 184-49 237-140" id="bF"/><path d="M365-904c58-129 161-200 334-200 130 0 228 46 293 138s98 233 98 420c0 189-34 331-102 425S824 20 698 20c-170 0-275-64-336-184 0 55-3 116-9 164H179c5-68 6-147 6-223v-1261h180c-2 193 4 394-4 580h4zm283 791c221 0 256-197 256-427 0-229-34-425-254-425-236 0-285 195-285 441 0 237 53 411 283 411" id="bG"/><path d="M715 0H502L69-1082h202c94 253 197 500 285 758 19 57 36 126 52 183 96-335 234-626 350-941h201" id="bH"/><g id="r"><use transform="matrix(0.010850694444444444,0,0,0.010850694444444444,0,0)" xlink:href="#bF"/><use transform="matrix(0.010850694444444444,0,0,0.010850694444444444,13.335503472222221,0)" xlink:href="#bG"/><use transform="matrix(0.010850694444444444,0,0,0.010850694444444444,26.671006944444443,0)" xlink:href="#br"/><use transform="matrix(0.010850694444444444,0,0,0.010850694444444444,40.006510416666664,0)" xlink:href="#bh"/><use transform="matrix(0.010850694444444444,0,0,0.010850694444444444,53.342013888888886,0)" xlink:href="#bt"/><use transform="matrix(0.010850694444444444,0,0,0.010850694444444444,66.67751736111111,0)" xlink:href="#bH"/><use transform="matrix(0.010850694444444444,0,0,0.010850694444444444,80.01302083333334,0)" xlink:href="#bh"/><use transform="matrix(0.010850694444444444,0,0,0.010850694444444444,93.34852430555557,0)" xlink:href="#bt"/><use transform="matrix(0.010850694444444444,0,0,0.010850694444444444,106.6840277777778,0)" xlink:href="#br"/><use transform="matrix(0.010850694444444444,0,0,0.010850694444444444,120.01953125000003,0)" xlink:href="#bn"/></g><g id="s"><use transform="matrix(0.010850694444444444,0,0,0.010850694444444444,0,0)" xlink:href="#bq"/><use transform="matrix(0.010850694444444444,0,0,0.010850694444444444,13.335503472222221,0)" xlink:href="#bk"/><use transform="matrix(0.010850694444444444,0,0,0.010850694444444444,26.671006944444443,0)" xlink:href="#bp"/><use transform="matrix(0.010850694444444444,0,0,0.010850694444444444,40.006510416666664,0)" xlink:href="#bz"/><use transform="matrix(0.010850694444444444,0,0,0.010850694444444444,53.342013888888886,0)" xlink:href="#bh"/></g><path fill="#d916a8" d="M98-1322v-168h1126v168H757V0H567v-1322H98" id="bI"/><path fill="#d916a8" d="M57 0l534-763-501-727h220c122 187 296 416 391 605 94-191 272-419 396-605h215L811-770 1340 0h-219C986-204 811-426 699-640 588-430 407-202 273 0H57" id="bJ"/><g id="t"><use transform="matrix(0.01953125,0,0,0.01953125,0,0)" xlink:href="#bI"/><use transform="matrix(0.01953125,0,0,0.01953125,25.8203125,0)" xlink:href="#bJ"/></g><path fill="#d916a8" d="M653-1490V0H466v-1314h-10L96-1047v-204l324-239h233" id="bK"/><use transform="matrix(0.01953125,0,0,0.01953125,0,0)" xlink:href="#bK" id="u"/><path fill="#d916a8" d="M646 20c-332 0-524-278-524-764 0-483 194-766 524-766s524 283 524 766c0 485-191 764-524 764zm0-166c218 0 341-220 341-598 0-380-123-601-341-601s-341 222-341 601c0 378 123 598 341 598" id="bL"/><use transform="matrix(0.01953125,0,0,0.01953125,0,0)" xlink:href="#bL" id="v"/><path d="M137 0v-1349h968v228H432v324h612v228H432v341h714V0H137" id="bM"/><path d="M874 0L612-392 348 0H49l406-559-387-523h303l241 354 240-354h305L770-562 1179 0H874" id="bN"/><path d="M794-190h353V0H118v-190h395v-702H223v-190h571v892zM513-1277v-207h281v207H513" id="bO"/><path d="M622-916c-112 2-200 14-200 111 0 90 89 101 168 121 234 58 514 77 514 368C1104-4 751 54 434 5 267-21 161-112 121-270l247-37c24 111 113 145 252 141 114-3 226-12 226-124 0-101-103-113-192-134-225-54-490-76-490-351 0-247 201-328 458-328 245 0 413 88 457 292l-249 26c-16-98-92-133-208-131" id="bP"/><g id="w"><use transform="matrix(0.010850694444444444,0,0,0.010850694444444444,0,0)" xlink:href="#bM"/><use transform="matrix(0.010850694444444444,0,0,0.010850694444444444,13.335503472222221,0)" xlink:href="#bN"/><use transform="matrix(0.010850694444444444,0,0,0.010850694444444444,26.671006944444443,0)" xlink:href="#aW"/><use transform="matrix(0.010850694444444444,0,0,0.010850694444444444,40.006510416666664,0)" xlink:href="#aV"/><use transform="matrix(0.010850694444444444,0,0,0.010850694444444444,53.342013888888886,0)" xlink:href="#bc"/><use transform="matrix(0.010850694444444444,0,0,0.010850694444444444,66.67751736111111,0)" xlink:href="#bO"/><use transform="matrix(0.010850694444444444,0,0,0.010850694444444444,80.01302083333334,0)" xlink:href="#bP"/><use transform="matrix(0.010850694444444444,0,0,0.010850694444444444,93.34852430555557,0)" xlink:href="#aW"/></g><path d="M650-1214c-281 0-336 244-336 533 0 295 60 546 347 546 188 0 263-142 322-282l159 65C1058-155 935 20 659 20c-401 0-546-295-546-701 0-407 135-689 536-689 264 0 391 146 466 335l-168 65c-47-129-127-244-297-244" id="bQ"/><g id="x"><use transform="matrix(0.010850694444444444,0,0,0.010850694444444444,0,0)" xlink:href="#bQ"/><use transform="matrix(0.010850694444444444,0,0,0.010850694444444444,13.335503472222221,0)" xlink:href="#bx"/><use transform="matrix(0.010850694444444444,0,0,0.010850694444444444,26.671006944444443,0)" xlink:href="#bv"/><use transform="matrix(0.010850694444444444,0,0,0.010850694444444444,40.006510416666664,0)" xlink:href="#bm"/><use transform="matrix(0.010850694444444444,0,0,0.010850694444444444,53.342013888888886,0)" xlink:href="#bt"/><use transform="matrix(0.010850694444444444,0,0,0.010850694444444444,66.67751736111111,0)" xlink:href="#bl"/><use transform="matrix(0.010850694444444444,0,0,0.010850694444444444,80.01302083333334,0)" xlink:href="#bz"/><use transform="matrix(0.010850694444444444,0,0,0.010850694444444444,93.34852430555557,0)" xlink:href="#bm"/><use transform="matrix(0.010850694444444444,0,0,0.010850694444444444,106.6840277777778,0)" xlink:href="#bn"/></g><path d="M930-833l-67 317h260v108H840L752 0H642l86-408H365L281 0H171l84-408H54v-108h225l67-317H105v-108h263l89-408h110l-88 408h363l88-408h110l-88 408h211v108H930zm-471 0l-69 317h362l67-317H459" id="bR"/><g id="y"><use transform="matrix(0.010850694444444444,0,0,0.010850694444444444,0,0)" xlink:href="#bR"/><use transform="matrix(0.010850694444444444,0,0,0.010850694444444444,13.335503472222221,0)" xlink:href="#bA"/></g><path d="M648-963c-190 6-283 138-283 336V0H185v-1484h181c-2 197 6 404-9 587h3c62-120 159-205 339-205 242 0 351 135 350 381V0H868v-695c1-168-57-273-220-268" id="bS"/><g id="z"><use transform="matrix(0.010850694444444444,0,0,0.010850694444444444,0,0)" xlink:href="#bQ"/><use transform="matrix(0.010850694444444444,0,0,0.010850694444444444,13.335503472222221,0)" xlink:href="#bS"/><use transform="matrix(0.010850694444444444,0,0,0.010850694444444444,26.671006944444443,0)" xlink:href="#bx"/><use transform="matrix(0.010850694444444444,0,0,0.010850694444444444,40.006510416666664,0)" xlink:href="#bp"/><use transform="matrix(0.010850694444444444,0,0,0.010850694444444444,53.342013888888886,0)" xlink:href="#bz"/><use transform="matrix(0.010850694444444444,0,0,0.010850694444444444,66.67751736111111,0)" xlink:href="#bh"/><use transform="matrix(0.010850694444444444,0,0,0.010850694444444444,80.01302083333334,0)" xlink:href="#bn"/></g><path d="M839-1335c-182-6-269 67-259 253h491v142H580V0H400v-940H138v-142h262c-15-293 132-408 418-402 94 2 200 7 281 21v145c-75-10-177-14-260-17" id="bT"/><g id="A"><use transform="matrix(0.010850694444444444,0,0,0.010850694444444444,0,0)" xlink:href="#bg"/><use transform="matrix(0.010850694444444444,0,0,0.010850694444444444,13.335503472222221,0)" xlink:href="#bt"/><use transform="matrix(0.010850694444444444,0,0,0.010850694444444444,26.671006944444443,0)" xlink:href="#bl"/><use transform="matrix(0.010850694444444444,0,0,0.010850694444444444,40.006510416666664,0)" xlink:href="#bv"/><use transform="matrix(0.010850694444444444,0,0,0.010850694444444444,53.342013888888886,0)" xlink:href="#br"/><use transform="matrix(0.010850694444444444,0,0,0.010850694444444444,66.67751736111111,0)" xlink:href="#bT"/><use transform="matrix(0.010850694444444444,0,0,0.010850694444444444,80.01302083333334,0)" xlink:href="#bh"/><use transform="matrix(0.010850694444444444,0,0,0.010850694444444444,93.34852430555557,0)" xlink:href="#bt"/></g><g id="B"><use transform="matrix(0.010850694444444444,0,0,0.010850694444444444,0,0)" xlink:href="#bv"/><use transform="matrix(0.010850694444444444,0,0,0.010850694444444444,13.335503472222221,0)" xlink:href="#bh"/><use transform="matrix(0.010850694444444444,0,0,0.010850694444444444,26.671006944444443,0)" xlink:href="#by"/><use transform="matrix(0.010850694444444444,0,0,0.010850694444444444,40.006510416666664,0)" xlink:href="#bF"/><use transform="matrix(0.010850694444444444,0,0,0.010850694444444444,53.342013888888886,0)" xlink:href="#by"/><use transform="matrix(0.010850694444444444,0,0,0.010850694444444444,66.67751736111111,0)" xlink:href="#bv"/><use transform="matrix(0.010850694444444444,0,0,0.010850694444444444,80.01302083333334,0)" xlink:href="#bh"/><use transform="matrix(0.010850694444444444,0,0,0.010850694444444444,93.34852430555557,0)" xlink:href="#bt"/><use transform="matrix(0.010850694444444444,0,0,0.010850694444444444,106.6840277777778,0)" xlink:href="#bn"/></g><g id="C"><use transform="matrix(0.010850694444444444,0,0,0.010850694444444444,0,0)" xlink:href="#bu"/><use transform="matrix(0.010850694444444444,0,0,0.010850694444444444,13.335503472222221,0)" xlink:href="#bx"/><use transform="matrix(0.010850694444444444,0,0,0.010850694444444444,26.671006944444443,0)" xlink:href="#bG"/></g><g id="D"><use transform="matrix(0.010850694444444444,0,0,0.010850694444444444,0,0)" xlink:href="#bq"/><use transform="matrix(0.010850694444444444,0,0,0.010850694444444444,13.335503472222221,0)" xlink:href="#bz"/><use transform="matrix(0.010850694444444444,0,0,0.010850694444444444,26.671006944444443,0)" xlink:href="#bm"/><use transform="matrix(0.010850694444444444,0,0,0.010850694444444444,40.006510416666664,0)" xlink:href="#bx"/><use transform="matrix(0.010850694444444444,0,0,0.010850694444444444,53.342013888888886,0)" xlink:href="#bt"/><use transform="matrix(0.010850694444444444,0,0,0.010850694444444444,66.67751736111111,0)" xlink:href="#br"/><use transform="matrix(0.010850694444444444,0,0,0.010850694444444444,80.01302083333334,0)" xlink:href="#bn"/></g><g id="E"><use transform="matrix(0.010850694444444444,0,0,0.010850694444444444,0,0)" xlink:href="#bD"/><use transform="matrix(0.010850694444444444,0,0,0.010850694444444444,13.335503472222221,0)" xlink:href="#bh"/><use transform="matrix(0.010850694444444444,0,0,0.010850694444444444,26.671006944444443,0)" xlink:href="#br"/><use transform="matrix(0.010850694444444444,0,0,0.010850694444444444,40.006510416666664,0)" xlink:href="#bs"/><use transform="matrix(0.010850694444444444,0,0,0.010850694444444444,53.342013888888886,0)" xlink:href="#bk"/><use transform="matrix(0.010850694444444444,0,0,0.010850694444444444,66.67751736111111,0)" xlink:href="#bm"/><use transform="matrix(0.010850694444444444,0,0,0.010850694444444444,80.01302083333334,0)" xlink:href="#bn"/></g><path d="M611-1370c266 0 451 106 451 368 0 147-77 243-154 327-132 144-316 255-451 395-42 44-75 87-96 134h723V0H144v-117c124-264 387-411 582-603 73-72 151-147 151-271 0-161-104-231-266-231-163 0-249 90-268 238l-184-17c35-233 185-369 452-369" id="bU"/><g id="F"><use transform="matrix(0.010850694444444444,0,0,0.010850694444444444,0,0)" xlink:href="#bR"/><use transform="matrix(0.010850694444444444,0,0,0.010850694444444444,13.335503472222221,0)" xlink:href="#bU"/></g><g id="G"><use transform="matrix(0.010850694444444444,0,0,0.010850694444444444,0,0)" xlink:href="#aU"/><use transform="matrix(0.010850694444444444,0,0,0.010850694444444444,13.335503472222221,0)" xlink:href="#aV"/><use transform="matrix(0.010850694444444444,0,0,0.010850694444444444,26.671006944444443,0)" xlink:href="#aW"/><use transform="matrix(0.010850694444444444,0,0,0.010850694444444444,40.006510416666664,0)" xlink:href="#aX"/><use transform="matrix(0.010850694444444444,0,0,0.010850694444444444,53.342013888888886,0)" xlink:href="#aY"/><use transform="matrix(0.010850694444444444,0,0,0.010850694444444444,66.67751736111111,0)" xlink:href="#aW"/></g><g id="H"><use transform="matrix(0.010850694444444444,0,0,0.010850694444444444,0,0)" xlink:href="#aZ"/><use transform="matrix(0.010850694444444444,0,0,0.010850694444444444,13.335503472222221,0)" xlink:href="#aU"/><use transform="matrix(0.010850694444444444,0,0,0.010850694444444444,26.671006944444443,0)" xlink:href="#ba"/><use transform="matrix(0.010850694444444444,0,0,0.010850694444444444,40.006510416666664,0)" xlink:href="#bb"/><use transform="matrix(0.010850694444444444,0,0,0.010850694444444444,53.342013888888886,0)" xlink:href="#aY"/><use transform="matrix(0.010850694444444444,0,0,0.010850694444444444,66.67751736111111,0)" xlink:href="#aV"/><use transform="matrix(0.010850694444444444,0,0,0.010850694444444444,80.01302083333334,0)" xlink:href="#aX"/><use transform="matrix(0.010850694444444444,0,0,0.010850694444444444,93.34852430555557,0)" xlink:href="#bc"/><use transform="matrix(0.010850694444444444,0,0,0.010850694444444444,106.6840277777778,0)" xlink:href="#aY"/></g><path d="M135-968c34-256 187-402 480-402 217 0 371 75 441 220 45 93 40 219-8 308-114 212-348 323-508 488-38 39-66 80-85 123h654V0H123v-195c112-245 321-399 515-560 57-48 107-96 142-157 14-26 22-53 22-80-1-104-73-156-185-154-131 2-181 74-199 194" id="bV"/><g id="I"><use transform="matrix(0.010850694444444444,0,0,0.010850694444444444,0,0)" xlink:href="#bd"/><use transform="matrix(0.010850694444444444,0,0,0.010850694444444444,13.335503472222221,0)" xlink:href="#bV"/><use transform="matrix(0.010850694444444444,0,0,0.010850694444444444,26.671006944444443,0)" xlink:href="#bf"/></g><g id="J"><use transform="matrix(0.010850694444444444,0,0,0.010850694444444444,0,0)" xlink:href="#bu"/><use transform="matrix(0.010850694444444444,0,0,0.010850694444444444,13.335503472222221,0)" xlink:href="#bx"/><use transform="matrix(0.010850694444444444,0,0,0.010850694444444444,26.671006944444443,0)" xlink:href="#bG"/></g><g id="K"><use transform="matrix(0.010850694444444444,0,0,0.010850694444444444,0,0)" xlink:href="#aU"/><use transform="matrix(0.010850694444444444,0,0,0.010850694444444444,13.335503472222221,0)" xlink:href="#aV"/><use transform="matrix(0.010850694444444444,0,0,0.010850694444444444,26.671006944444443,0)" xlink:href="#aW"/><use transform="matrix(0.010850694444444444,0,0,0.010850694444444444,40.006510416666664,0)" xlink:href="#aX"/><use transform="matrix(0.010850694444444444,0,0,0.010850694444444444,53.342013888888886,0)" xlink:href="#aY"/><use transform="matrix(0.010850694444444444,0,0,0.010850694444444444,66.67751736111111,0)" xlink:href="#aW"/></g><g id="L"><use transform="matrix(0.010850694444444444,0,0,0.010850694444444444,0,0)" xlink:href="#aZ"/><use transform="matrix(0.010850694444444444,0,0,0.010850694444444444,13.335503472222221,0)" xlink:href="#aU"/><use transform="matrix(0.010850694444444444,0,0,0.010850694444444444,26.671006944444443,0)" xlink:href="#ba"/><use transform="matrix(0.010850694444444444,0,0,0.010850694444444444,40.006510416666664,0)" xlink:href="#bb"/><use transform="matrix(0.010850694444444444,0,0,0.010850694444444444,53.342013888888886,0)" xlink:href="#aY"/><use transform="matrix(0.010850694444444444,0,0,0.010850694444444444,66.67751736111111,0)" xlink:href="#aV"/><use transform="matrix(0.010850694444444444,0,0,0.010850694444444444,80.01302083333334,0)" xlink:href="#aX"/><use transform="matrix(0.010850694444444444,0,0,0.010850694444444444,93.34852430555557,0)" xlink:href="#bc"/><use transform="matrix(0.010850694444444444,0,0,0.010850694444444444,106.6840277777778,0)" xlink:href="#aY"/></g><g id="M"><use transform="matrix(0.010850694444444444,0,0,0.010850694444444444,0,0)" xlink:href="#bd"/><use transform="matrix(0.010850694444444444,0,0,0.010850694444444444,13.335503472222221,0)" xlink:href="#be"/><use transform="matrix(0.010850694444444444,0,0,0.010850694444444444,26.671006944444443,0)" xlink:href="#bf"/></g><g id="N"><use transform="matrix(0.010850694444444444,0,0,0.010850694444444444,0,0)" xlink:href="#bg"/><use transform="matrix(0.010850694444444444,0,0,0.010850694444444444,13.335503472222221,0)" xlink:href="#bh"/><use transform="matrix(0.010850694444444444,0,0,0.010850694444444444,26.671006944444443,0)" xlink:href="#bi"/><use transform="matrix(0.010850694444444444,0,0,0.010850694444444444,40.006510416666664,0)" xlink:href="#bj"/><use transform="matrix(0.010850694444444444,0,0,0.010850694444444444,53.342013888888886,0)" xlink:href="#bk"/><use transform="matrix(0.010850694444444444,0,0,0.010850694444444444,66.67751736111111,0)" xlink:href="#bl"/><use transform="matrix(0.010850694444444444,0,0,0.010850694444444444,80.01302083333334,0)" xlink:href="#bm"/><use transform="matrix(0.010850694444444444,0,0,0.010850694444444444,93.34852430555557,0)" xlink:href="#bh"/><use transform="matrix(0.010850694444444444,0,0,0.010850694444444444,106.6840277777778,0)" xlink:href="#bn"/></g><g id="O"><use transform="matrix(0.010850694444444444,0,0,0.010850694444444444,0,0)" xlink:href="#bo"/><use transform="matrix(0.010850694444444444,0,0,0.010850694444444444,13.335503472222221,0)" xlink:href="#bp"/><use transform="matrix(0.010850694444444444,0,0,0.010850694444444444,26.671006944444443,0)" xlink:href="#bi"/><use transform="matrix(0.010850694444444444,0,0,0.010850694444444444,40.006510416666664,0)" xlink:href="#bj"/><use transform="matrix(0.010850694444444444,0,0,0.010850694444444444,53.342013888888886,0)" xlink:href="#bk"/><use transform="matrix(0.010850694444444444,0,0,0.010850694444444444,66.67751736111111,0)" xlink:href="#bh"/><use transform="matrix(0.010850694444444444,0,0,0.010850694444444444,80.01302083333334,0)" xlink:href="#bq"/><use transform="matrix(0.010850694444444444,0,0,0.010850694444444444,93.34852430555557,0)" xlink:href="#br"/><use transform="matrix(0.010850694444444444,0,0,0.010850694444444444,106.6840277777778,0)" xlink:href="#br"/><use transform="matrix(0.010850694444444444,0,0,0.010850694444444444,120.01953125000003,0)" xlink:href="#bh"/><use transform="matrix(0.010850694444444444,0,0,0.010850694444444444,133.35503472222226,0)" xlink:href="#bm"/></g><g id="P"><use transform="matrix(0.010850694444444444,0,0,0.010850694444444444,0,0)" xlink:href="#bp"/><use transform="matrix(0.010850694444444444,0,0,0.010850694444444444,13.335503472222221,0)" xlink:href="#br"/><use transform="matrix(0.010850694444444444,0,0,0.010850694444444444,26.671006944444443,0)" xlink:href="#br"/><use transform="matrix(0.010850694444444444,0,0,0.010850694444444444,40.006510416666664,0)" xlink:href="#bs"/><use transform="matrix(0.010850694444444444,0,0,0.010850694444444444,53.342013888888886,0)" xlink:href="#bh"/><use transform="matrix(0.010850694444444444,0,0,0.010850694444444444,66.67751736111111,0)" xlink:href="#bt"/><use transform="matrix(0.010850694444444444,0,0,0.010850694444444444,80.01302083333334,0)" xlink:href="#bn"/></g><g id="Q"><use transform="matrix(0.010850694444444444,0,0,0.010850694444444444,0,0)" xlink:href="#bu"/><use transform="matrix(0.010850694444444444,0,0,0.010850694444444444,13.335503472222221,0)" xlink:href="#bl"/><use transform="matrix(0.010850694444444444,0,0,0.010850694444444444,26.671006944444443,0)" xlink:href="#bv"/><use transform="matrix(0.010850694444444444,0,0,0.010850694444444444,40.006510416666664,0)" xlink:href="#bw"/></g><g id="R"><use transform="matrix(0.010850694444444444,0,0,0.010850694444444444,0,0)" xlink:href="#bx"/><use transform="matrix(0.010850694444444444,0,0,0.010850694444444444,13.335503472222221,0)" xlink:href="#by"/><use transform="matrix(0.010850694444444444,0,0,0.010850694444444444,26.671006944444443,0)" xlink:href="#bv"/><use transform="matrix(0.010850694444444444,0,0,0.010850694444444444,40.006510416666664,0)" xlink:href="#bh"/><use transform="matrix(0.010850694444444444,0,0,0.010850694444444444,53.342013888888886,0)" xlink:href="#bt"/><use transform="matrix(0.010850694444444444,0,0,0.010850694444444444,66.67751736111111,0)" xlink:href="#bn"/></g><g id="S"><use transform="matrix(0.010850694444444444,0,0,0.010850694444444444,0,0)" xlink:href="#bq"/><use transform="matrix(0.010850694444444444,0,0,0.010850694444444444,13.335503472222221,0)" xlink:href="#bk"/><use transform="matrix(0.010850694444444444,0,0,0.010850694444444444,26.671006944444443,0)" xlink:href="#bp"/><use transform="matrix(0.010850694444444444,0,0,0.010850694444444444,40.006510416666664,0)" xlink:href="#bz"/><use transform="matrix(0.010850694444444444,0,0,0.010850694444444444,53.342013888888886,0)" xlink:href="#bh"/></g><g id="T"><use transform="matrix(0.010850694444444444,0,0,0.010850694444444444,0,0)" xlink:href="#bl"/><use transform="matrix(0.010850694444444444,0,0,0.010850694444444444,13.335503472222221,0)" xlink:href="#br"/><use transform="matrix(0.010850694444444444,0,0,0.010850694444444444,26.671006944444443,0)" xlink:href="#br"/><use transform="matrix(0.010850694444444444,0,0,0.010850694444444444,40.006510416666664,0)" xlink:href="#bh"/><use transform="matrix(0.010850694444444444,0,0,0.010850694444444444,53.342013888888886,0)" xlink:href="#bm"/><use transform="matrix(0.010850694444444444,0,0,0.010850694444444444,66.67751736111111,0)" xlink:href="#bn"/></g><use transform="matrix(0.010850694444444444,0,0,0.010850694444444444,0,0)" xlink:href="#bA" id="U"/><g id="V"><use transform="matrix(0.010850694444444444,0,0,0.010850694444444444,0,0)" xlink:href="#bB"/><use transform="matrix(0.010850694444444444,0,0,0.010850694444444444,13.335503472222221,0)" xlink:href="#bC"/><use transform="matrix(0.010850694444444444,0,0,0.010850694444444444,26.671006944444443,0)" xlink:href="#bD"/></g><g id="W"><use transform="matrix(0.010850694444444444,0,0,0.010850694444444444,0,0)" xlink:href="#bo"/><use transform="matrix(0.010850694444444444,0,0,0.010850694444444444,13.335503472222221,0)" xlink:href="#bp"/><use transform="matrix(0.010850694444444444,0,0,0.010850694444444444,26.671006944444443,0)" xlink:href="#bE"/><use transform="matrix(0.010850694444444444,0,0,0.010850694444444444,40.006510416666664,0)" xlink:href="#bv"/><use transform="matrix(0.010850694444444444,0,0,0.010850694444444444,53.342013888888886,0)" xlink:href="#bl"/><use transform="matrix(0.010850694444444444,0,0,0.010850694444444444,66.67751736111111,0)" xlink:href="#bm"/><use transform="matrix(0.010850694444444444,0,0,0.010850694444444444,80.01302083333334,0)" xlink:href="#bx"/><use transform="matrix(0.010850694444444444,0,0,0.010850694444444444,93.34852430555557,0)" xlink:href="#bt"/><use transform="matrix(0.010850694444444444,0,0,0.010850694444444444,106.6840277777778,0)" xlink:href="#bp"/><use transform="matrix(0.010850694444444444,0,0,0.010850694444444444,120.01953125000003,0)" xlink:href="#bh"/><use transform="matrix(0.010850694444444444,0,0,0.010850694444444444,133.35503472222226,0)" xlink:href="#br"/><use transform="matrix(0.010850694444444444,0,0,0.010850694444444444,146.69053819444449,0)" xlink:href="#bn"/></g><g id="X"><use transform="matrix(0.010850694444444444,0,0,0.010850694444444444,0,0)" xlink:href="#bF"/><use transform="matrix(0.010850694444444444,0,0,0.010850694444444444,13.335503472222221,0)" xlink:href="#bG"/><use transform="matrix(0.010850694444444444,0,0,0.010850694444444444,26.671006944444443,0)" xlink:href="#br"/><use transform="matrix(0.010850694444444444,0,0,0.010850694444444444,40.006510416666664,0)" xlink:href="#bh"/><use transform="matrix(0.010850694444444444,0,0,0.010850694444444444,53.342013888888886,0)" xlink:href="#bt"/><use transform="matrix(0.010850694444444444,0,0,0.010850694444444444,66.67751736111111,0)" xlink:href="#bH"/><use transform="matrix(0.010850694444444444,0,0,0.010850694444444444,80.01302083333334,0)" xlink:href="#bh"/><use transform="matrix(0.010850694444444444,0,0,0.010850694444444444,93.34852430555557,0)" xlink:href="#bt"/><use transform="matrix(0.010850694444444444,0,0,0.010850694444444444,106.6840277777778,0)" xlink:href="#br"/><use transform="matrix(0.010850694444444444,0,0,0.010850694444444444,120.01953125000003,0)" xlink:href="#bn"/></g><g id="Y"><use transform="matrix(0.010850694444444444,0,0,0.010850694444444444,0,0)" xlink:href="#bq"/><use transform="matrix(0.010850694444444444,0,0,0.010850694444444444,13.335503472222221,0)" xlink:href="#bk"/><use transform="matrix(0.010850694444444444,0,0,0.010850694444444444,26.671006944444443,0)" xlink:href="#bp"/><use transform="matrix(0.010850694444444444,0,0,0.010850694444444444,40.006510416666664,0)" xlink:href="#bz"/><use transform="matrix(0.010850694444444444,0,0,0.010850694444444444,53.342013888888886,0)" xlink:href="#bh"/></g><path fill="#d916a8" d="M180 0v-1490h528c311 0 458 177 458 395 0 191-114 278-244 313v14c139 9 302 137 302 371 0 225-148 397-499 397H180zm190-168h350c232 0 321-102 321-231 0-149-120-277-311-277H370v508zm0-668h328c160 0 286-101 286-255 0-129-87-231-280-231H370v486" id="bW"/><path fill="#d916a8" d="M471 26C259 26 90-98 90-318c0-256 228-303 435-329 202-27 287-16 287-108 0-139-79-219-234-219-161 0-248 86-283 164l-173-57c86-203 278-265 451-265 150 0 419 46 419 395V0H815v-152h-12C765-73 660 26 471 26zm31-159c199 0 310-134 310-271v-155c-30 35-226 55-295 64-131 17-246 59-246 186 0 116 97 176 231 176" id="bX"/><path fill="#d916a8" d="M338-670V0H158v-1118h173l1 207c72-158 192-221 342-221 226 0 378 139 378 422V0H872v-695c0-172-96-275-252-275-161 0-282 109-282 300" id="bY"/><path fill="#d916a8" d="M158 0v-1490h180v865h22l478-493h223L593-638 1096 0H865L456-523 338-412V0H158" id="bZ"/><g id="Z"><use transform="matrix(0.01953125,0,0,0.01953125,0,0)" xlink:href="#bW"/><use transform="matrix(0.01953125,0,0,0.01953125,26.171875,0)" xlink:href="#bX"/><use transform="matrix(0.01953125,0,0,0.01953125,48.6328125,0)" xlink:href="#bY"/><use transform="matrix(0.01953125,0,0,0.01953125,72.265625,0)" xlink:href="#bZ"/></g><path fill="#d916a8" d="M158 0v-1118h174v172h12c41-113 157-188 290-188 26 0 70 2 91 3v181c-11-2-60-10-108-10-161 0-279 109-279 260V0H158" id="ca"/><path fill="#d916a8" d="M628 24c-324 0-524-230-524-574 0-343 198-582 503-582 237 0 487 146 487 559v75H286c9 234 145 362 343 362 132 0 231-58 273-172l174 48C1024-91 857 24 628 24zM287-650h624c-17-190-120-322-304-322-192 0-309 151-320 322" id="cb"/><path fill="#d916a8" d="M1096 418H916v-591h-14C865-111 790 24 577 24c-279 0-473-224-473-580 0-354 195-576 474-576 218 0 287 134 324 193h20v-179h174V418zM604-137c203 0 314-172 314-421 0-247-108-413-314-413-212 0-317 181-317 413 0 235 108 421 317 421" id="cc"/><path fill="#d916a8" d="M537 14c-226 0-379-139-379-422v-710h180v695c0 172 97 275 253 275 160 0 281-109 281-300v-670h181V0H879v-209C806-46 684 14 537 14" id="cd"/><path fill="#d916a8" d="M538 24C308 24 148-78 108-271l171-41c32 123 123 178 257 178 156 0 256-77 256-169 0-77-54-128-164-154l-186-44c-203-48-300-148-300-305 0-192 176-326 414-326 230 0 351 112 402 269l-163 42c-31-80-94-158-238-158-133 0-233 69-233 162 0 83 57 129 188 160l169 40c203 48 298 149 298 302 0 196-179 339-441 339" id="ce"/><path fill="#d916a8" d="M598-1118v154H368v674c0 100 37 144 132 144 23 0 62-6 92-12L629-6c-37 13-88 20-134 20-193 0-307-107-307-290v-688H20v-154h168v-266h180v266h230" id="cf"/><path fill="#d916a8" d="M577 24c-279 0-473-224-473-580 0-354 195-576 474-576 218 0 287 134 324 193h14v-551h180V0H922v-173h-20C865-111 790 24 577 24zm27-161c203 0 314-172 314-421 0-247-108-413-314-413-212 0-317 181-317 413 0 235 108 421 317 421" id="cg"/><g id="aa"><use transform="matrix(0.01953125,0,0,0.01953125,0,0)" xlink:href="#ca"/><use transform="matrix(0.01953125,0,0,0.01953125,14.39453125,0)" xlink:href="#cb"/><use transform="matrix(0.01953125,0,0,0.01953125,37.71484375,0)" xlink:href="#cc"/><use transform="matrix(0.01953125,0,0,0.01953125,62.20703125,0)" xlink:href="#cd"/><use transform="matrix(0.01953125,0,0,0.01953125,85.859375,0)" xlink:href="#cb"/><use transform="matrix(0.01953125,0,0,0.01953125,109.1796875,0)" xlink:href="#ce"/><use transform="matrix(0.01953125,0,0,0.01953125,130.29296875,0)" xlink:href="#cf"/><use transform="matrix(0.01953125,0,0,0.01953125,142.98828125,0)" xlink:href="#cb"/><use transform="matrix(0.01953125,0,0,0.01953125,166.30859375,0)" xlink:href="#cg"/></g><g id="ab"><use transform="matrix(0.01953125,0,0,0.01953125,0,0)" xlink:href="#bI"/><use transform="matrix(0.01953125,0,0,0.01953125,25.8203125,0)" xlink:href="#bJ"/></g><path fill="#d916a8" d="M154 0v-137l495-537c165-179 249-281 249-418 0-156-121-253-280-253-170 0-278 110-278 278H158c0-264 200-443 465-443 266 0 455 183 455 416 0 161-73 288-336 568L416-179v12h687V0H154" id="ch"/><use transform="matrix(0.01953125,0,0,0.01953125,0,0)" xlink:href="#ch" id="ac"/><path fill="#d916a8" d="M52 0l541-1490h220L1361 0h-200l-149-416H398L254 0H52zm404-582h497c-103-290-145-390-251-756-108 377-145 460-246 756" id="ci"/><path fill="#d916a8" d="M338-1490V0H158v-1490h180" id="cj"/><path fill="#d916a8" d="M158 0v-1118h180V0H158zm91-1301c-68 0-125-53-125-119s57-119 125-119c69 0 126 53 126 119s-57 119-126 119" id="ck"/><path fill="#d916a8" d="M613 24c-304 0-509-231-509-576 0-350 205-580 509-580 216 0 392 114 453 309l-173 49c-33-115-133-197-280-197-223 0-326 196-326 419 0 220 103 415 326 415 150 0 252-85 285-206l172 49C1010-95 832 24 613 24" id="cl"/><g id="ad"><use transform="matrix(0.01953125,0,0,0.01953125,0,0)" xlink:href="#ci"/><use transform="matrix(0.01953125,0,0,0.01953125,27.59765625,0)" xlink:href="#cj"/><use transform="matrix(0.01953125,0,0,0.01953125,37.28515625,0)" xlink:href="#ck"/><use transform="matrix(0.01953125,0,0,0.01953125,46.97265625,0)" xlink:href="#cl"/><use transform="matrix(0.01953125,0,0,0.01953125,69.82421875,0)" xlink:href="#cb"/></g><g id="ae"><use transform="matrix(0.010850694444444444,0,0,0.010850694444444444,0,0)" xlink:href="#bM"/><use transform="matrix(0.010850694444444444,0,0,0.010850694444444444,13.335503472222221,0)" xlink:href="#bN"/><use transform="matrix(0.010850694444444444,0,0,0.010850694444444444,26.671006944444443,0)" xlink:href="#aW"/><use transform="matrix(0.010850694444444444,0,0,0.010850694444444444,40.006510416666664,0)" xlink:href="#aV"/><use transform="matrix(0.010850694444444444,0,0,0.010850694444444444,53.342013888888886,0)" xlink:href="#bc"/><use transform="matrix(0.010850694444444444,0,0,0.010850694444444444,66.67751736111111,0)" xlink:href="#bO"/><use transform="matrix(0.010850694444444444,0,0,0.010850694444444444,80.01302083333334,0)" xlink:href="#bP"/><use transform="matrix(0.010850694444444444,0,0,0.010850694444444444,93.34852430555557,0)" xlink:href="#aW"/></g><g id="af"><use transform="matrix(0.010850694444444444,0,0,0.010850694444444444,0,0)" xlink:href="#bQ"/><use transform="matrix(0.010850694444444444,0,0,0.010850694444444444,13.335503472222221,0)" xlink:href="#bx"/><use transform="matrix(0.010850694444444444,0,0,0.010850694444444444,26.671006944444443,0)" xlink:href="#bv"/><use transform="matrix(0.010850694444444444,0,0,0.010850694444444444,40.006510416666664,0)" xlink:href="#bm"/><use transform="matrix(0.010850694444444444,0,0,0.010850694444444444,53.342013888888886,0)" xlink:href="#bt"/><use transform="matrix(0.010850694444444444,0,0,0.010850694444444444,66.67751736111111,0)" xlink:href="#bl"/><use transform="matrix(0.010850694444444444,0,0,0.010850694444444444,80.01302083333334,0)" xlink:href="#bz"/><use transform="matrix(0.010850694444444444,0,0,0.010850694444444444,93.34852430555557,0)" xlink:href="#bm"/><use transform="matrix(0.010850694444444444,0,0,0.010850694444444444,106.6840277777778,0)" xlink:href="#bn"/></g><g id="ag"><use transform="matrix(0.010850694444444444,0,0,0.010850694444444444,0,0)" xlink:href="#bR"/><use transform="matrix(0.010850694444444444,0,0,0.010850694444444444,13.335503472222221,0)" xlink:href="#bA"/></g><g id="ah"><use transform="matrix(0.010850694444444444,0,0,0.010850694444444444,0,0)" xlink:href="#bQ"/><use transform="matrix(0.010850694444444444,0,0,0.010850694444444444,13.335503472222221,0)" xlink:href="#bS"/><use transform="matrix(0.010850694444444444,0,0,0.010850694444444444,26.671006944444443,0)" xlink:href="#bx"/><use transform="matrix(0.010850694444444444,0,0,0.010850694444444444,40.006510416666664,0)" xlink:href="#bp"/><use transform="matrix(0.010850694444444444,0,0,0.010850694444444444,53.342013888888886,0)" xlink:href="#bz"/><use transform="matrix(0.010850694444444444,0,0,0.010850694444444444,66.67751736111111,0)" xlink:href="#bh"/><use transform="matrix(0.010850694444444444,0,0,0.010850694444444444,80.01302083333334,0)" xlink:href="#bn"/></g><g id="ai"><use transform="matrix(0.010850694444444444,0,0,0.010850694444444444,0,0)" xlink:href="#bg"/><use transform="matrix(0.010850694444444444,0,0,0.010850694444444444,13.335503472222221,0)" xlink:href="#bt"/><use transform="matrix(0.010850694444444444,0,0,0.010850694444444444,26.671006944444443,0)" xlink:href="#bl"/><use transform="matrix(0.010850694444444444,0,0,0.010850694444444444,40.006510416666664,0)" xlink:href="#bv"/><use transform="matrix(0.010850694444444444,0,0,0.010850694444444444,53.342013888888886,0)" xlink:href="#br"/><use transform="matrix(0.010850694444444444,0,0,0.010850694444444444,66.67751736111111,0)" xlink:href="#bT"/><use transform="matrix(0.010850694444444444,0,0,0.010850694444444444,80.01302083333334,0)" xlink:href="#bh"/><use transform="matrix(0.010850694444444444,0,0,0.010850694444444444,93.34852430555557,0)" xlink:href="#bt"/></g><g id="aj"><use transform="matrix(0.010850694444444444,0,0,0.010850694444444444,0,0)" xlink:href="#bv"/><use transform="matrix(0.010850694444444444,0,0,0.010850694444444444,13.335503472222221,0)" xlink:href="#bh"/><use transform="matrix(0.010850694444444444,0,0,0.010850694444444444,26.671006944444443,0)" xlink:href="#by"/><use transform="matrix(0.010850694444444444,0,0,0.010850694444444444,40.006510416666664,0)" xlink:href="#bF"/><use transform="matrix(0.010850694444444444,0,0,0.010850694444444444,53.342013888888886,0)" xlink:href="#by"/><use transform="matrix(0.010850694444444444,0,0,0.010850694444444444,66.67751736111111,0)" xlink:href="#bv"/><use transform="matrix(0.010850694444444444,0,0,0.010850694444444444,80.01302083333334,0)" xlink:href="#bh"/><use transform="matrix(0.010850694444444444,0,0,0.010850694444444444,93.34852430555557,0)" xlink:href="#bt"/><use transform="matrix(0.010850694444444444,0,0,0.010850694444444444,106.6840277777778,0)" xlink:href="#bn"/></g><g id="ak"><use transform="matrix(0.010850694444444444,0,0,0.010850694444444444,0,0)" xlink:href="#bq"/><use transform="matrix(0.010850694444444444,0,0,0.010850694444444444,13.335503472222221,0)" xlink:href="#bz"/><use transform="matrix(0.010850694444444444,0,0,0.010850694444444444,26.671006944444443,0)" xlink:href="#bm"/><use transform="matrix(0.010850694444444444,0,0,0.010850694444444444,40.006510416666664,0)" xlink:href="#bx"/><use transform="matrix(0.010850694444444444,0,0,0.010850694444444444,53.342013888888886,0)" xlink:href="#bt"/><use transform="matrix(0.010850694444444444,0,0,0.010850694444444444,66.67751736111111,0)" xlink:href="#br"/><use transform="matrix(0.010850694444444444,0,0,0.010850694444444444,80.01302083333334,0)" xlink:href="#bn"/></g><g id="al"><use transform="matrix(0.010850694444444444,0,0,0.010850694444444444,0,0)" xlink:href="#bD"/><use transform="matrix(0.010850694444444444,0,0,0.010850694444444444,13.335503472222221,0)" xlink:href="#bh"/><use transform="matrix(0.010850694444444444,0,0,0.010850694444444444,26.671006944444443,0)" xlink:href="#br"/><use transform="matrix(0.010850694444444444,0,0,0.010850694444444444,40.006510416666664,0)" xlink:href="#bs"/><use transform="matrix(0.010850694444444444,0,0,0.010850694444444444,53.342013888888886,0)" xlink:href="#bk"/><use transform="matrix(0.010850694444444444,0,0,0.010850694444444444,66.67751736111111,0)" xlink:href="#bm"/><use transform="matrix(0.010850694444444444,0,0,0.010850694444444444,80.01302083333334,0)" xlink:href="#bn"/></g><g id="am"><use transform="matrix(0.010850694444444444,0,0,0.010850694444444444,0,0)" xlink:href="#bR"/><use transform="matrix(0.010850694444444444,0,0,0.010850694444444444,13.335503472222221,0)" xlink:href="#bU"/></g><g id="an"><use transform="matrix(0.010850694444444444,0,0,0.010850694444444444,0,0)" xlink:href="#aU"/><use transform="matrix(0.010850694444444444,0,0,0.010850694444444444,13.335503472222221,0)" xlink:href="#aV"/><use transform="matrix(0.010850694444444444,0,0,0.010850694444444444,26.671006944444443,0)" xlink:href="#aW"/><use transform="matrix(0.010850694444444444,0,0,0.010850694444444444,40.006510416666664,0)" xlink:href="#aX"/><use transform="matrix(0.010850694444444444,0,0,0.010850694444444444,53.342013888888886,0)" xlink:href="#aY"/><use transform="matrix(0.010850694444444444,0,0,0.010850694444444444,66.67751736111111,0)" xlink:href="#aW"/></g><g id="ao"><use transform="matrix(0.010850694444444444,0,0,0.010850694444444444,0,0)" xlink:href="#aZ"/><use transform="matrix(0.010850694444444444,0,0,0.010850694444444444,13.335503472222221,0)" xlink:href="#aU"/><use transform="matrix(0.010850694444444444,0,0,0.010850694444444444,26.671006944444443,0)" xlink:href="#ba"/><use transform="matrix(0.010850694444444444,0,0,0.010850694444444444,40.006510416666664,0)" xlink:href="#bb"/><use transform="matrix(0.010850694444444444,0,0,0.010850694444444444,53.342013888888886,0)" xlink:href="#aY"/><use transform="matrix(0.010850694444444444,0,0,0.010850694444444444,66.67751736111111,0)" xlink:href="#aV"/><use transform="matrix(0.010850694444444444,0,0,0.010850694444444444,80.01302083333334,0)" xlink:href="#aX"/><use transform="matrix(0.010850694444444444,0,0,0.010850694444444444,93.34852430555557,0)" xlink:href="#bc"/><use transform="matrix(0.010850694444444444,0,0,0.010850694444444444,106.6840277777778,0)" xlink:href="#aY"/></g><g id="ap"><use transform="matrix(0.010850694444444444,0,0,0.010850694444444444,0,0)" xlink:href="#bd"/><use transform="matrix(0.010850694444444444,0,0,0.010850694444444444,13.335503472222221,0)" xlink:href="#bV"/><use transform="matrix(0.010850694444444444,0,0,0.010850694444444444,26.671006944444443,0)" xlink:href="#bf"/></g><g id="aq"><use transform="matrix(0.010850694444444444,0,0,0.010850694444444444,0,0)" xlink:href="#bM"/><use transform="matrix(0.010850694444444444,0,0,0.010850694444444444,13.335503472222221,0)" xlink:href="#bN"/><use transform="matrix(0.010850694444444444,0,0,0.010850694444444444,26.671006944444443,0)" xlink:href="#aW"/><use transform="matrix(0.010850694444444444,0,0,0.010850694444444444,40.006510416666664,0)" xlink:href="#aV"/><use transform="matrix(0.010850694444444444,0,0,0.010850694444444444,53.342013888888886,0)" xlink:href="#bc"/><use transform="matrix(0.010850694444444444,0,0,0.010850694444444444,66.67751736111111,0)" xlink:href="#bO"/><use transform="matrix(0.010850694444444444,0,0,0.010850694444444444,80.01302083333334,0)" xlink:href="#bP"/><use transform="matrix(0.010850694444444444,0,0,0.010850694444444444,93.34852430555557,0)" xlink:href="#aW"/></g><path d="M324-409v-244h580v244H324" id="cm"/><path d="M471 20c-247 0-336-169-336-415v-687h281v607c4 148 31 285 172 285 152 0 207-150 207-312v-580h281c4 359-9 736 8 1082H816c-7-63-11-146-12-215h-5C736-76 644 20 471 20" id="cn"/><path d="M934-1102c199 0 220 177 220 381V0H926c-2-260 10-533-4-785-4-72-14-138-83-138-34 0-61 27-81 81s-29 134-29 241V0H501c-2-260 9-533-5-785-4-72-13-138-82-138-46 0-65 47-80 93-21 67-30 155-30 248V0H75c-3-360 6-732-6-1082h209c6 50 3 123 8 175 36-100 83-195 216-195 135 0 166 79 196 196 42-105 93-196 236-196" id="co"/><path d="M1108-33c-3 314-178 467-492 467-243 0-400-94-447-291l281-33c17 79 82 141 174 141 176 0 212-155 205-347-2-40 5-80 0-115C773-85 665-12 501-12c-288 0-377-242-377-538 0-242 65-426 223-510 50-26 108-39 175-39 160 0 253 78 307 191h5c1-58 5-125 14-174h266c-12 335-3 703-6 1049zM811-384c25-82 27-259 1-342-30-99-77-180-190-180-172 0-205 171-205 356 0 116 18 202 54 258 48 76 129 107 221 70 62-25 96-86 119-162" id="cp"/><g id="ar"><use transform="matrix(0.010850694444444444,0,0,0.010850694444444444,0,0)" xlink:href="#bb"/><use transform="matrix(0.010850694444444444,0,0,0.010850694444444444,13.335503472222221,0)" xlink:href="#ba"/><use transform="matrix(0.010850694444444444,0,0,0.010850694444444444,26.671006944444443,0)" xlink:href="#bb"/><use transform="matrix(0.010850694444444444,0,0,0.010850694444444444,40.006510416666664,0)" xlink:href="#cm"/><use transform="matrix(0.010850694444444444,0,0,0.010850694444444444,53.342013888888886,0)" xlink:href="#bc"/><use transform="matrix(0.010850694444444444,0,0,0.010850694444444444,66.67751736111111,0)" xlink:href="#ba"/><use transform="matrix(0.010850694444444444,0,0,0.010850694444444444,80.01302083333334,0)" xlink:href="#bb"/><use transform="matrix(0.010850694444444444,0,0,0.010850694444444444,93.34852430555557,0)" xlink:href="#bP"/><use transform="matrix(0.010850694444444444,0,0,0.010850694444444444,106.6840277777778,0)" xlink:href="#cn"/><use transform="matrix(0.010850694444444444,0,0,0.010850694444444444,120.01953125000003,0)" xlink:href="#co"/><use transform="matrix(0.010850694444444444,0,0,0.010850694444444444,133.35503472222226,0)" xlink:href="#bO"/><use transform="matrix(0.010850694444444444,0,0,0.010850694444444444,146.69053819444449,0)" xlink:href="#bb"/><use transform="matrix(0.010850694444444444,0,0,0.010850694444444444,160.0260416666667,0)" xlink:href="#cp"/></g><path d="M622-1349c296 4 497 117 497 404 0 282-193 424-485 431H353V0H162v-1349h460zm-15 684c195-3 320-88 320-277 0-184-129-255-328-254H353v531h254" id="cq"/><g id="as"><use transform="matrix(0.010850694444444444,0,0,0.010850694444444444,0,0)" xlink:href="#cq"/><use transform="matrix(0.010850694444444444,0,0,0.010850694444444444,13.335503472222221,0)" xlink:href="#bt"/><use transform="matrix(0.010850694444444444,0,0,0.010850694444444444,26.671006944444443,0)" xlink:href="#bh"/><use transform="matrix(0.010850694444444444,0,0,0.010850694444444444,40.006510416666664,0)" xlink:href="#br"/><use transform="matrix(0.010850694444444444,0,0,0.010850694444444444,53.342013888888886,0)" xlink:href="#bh"/><use transform="matrix(0.010850694444444444,0,0,0.010850694444444444,66.67751736111111,0)" xlink:href="#bv"/><use transform="matrix(0.010850694444444444,0,0,0.010850694444444444,80.01302083333334,0)" xlink:href="#bm"/></g><path d="M387-205c6 188-6 358-80 466H182c51-74 97-148 97-262h-91v-205h199zM188-876v-205h199v205H188" id="cr"/><g id="au"><use transform="matrix(0.010850694444444444,0,0,0.010850694444444444,0,0)" xlink:href="#bl"/><use transform="matrix(0.010850694444444444,0,0,0.010850694444444444,13.335503472222221,0)" xlink:href="#bz"/><use transform="matrix(0.010850694444444444,0,0,0.010850694444444444,26.671006944444443,0)" xlink:href="#bm"/><use transform="matrix(0.010850694444444444,0,0,0.010850694444444444,40.006510416666664,0)" xlink:href="#bx"/><use transform="matrix(0.010850694444444444,0,0,0.010850694444444444,53.342013888888886,0)" xlink:href="#bt"/><use transform="matrix(0.010850694444444444,0,0,0.010850694444444444,66.67751736111111,0)" xlink:href="#cr"/></g><g id="av"><use transform="matrix(0.010850694444444444,0,0,0.010850694444444444,0,0)" xlink:href="#bH"/><use transform="matrix(0.010850694444444444,0,0,0.010850694444444444,13.335503472222221,0)" xlink:href="#bp"/><use transform="matrix(0.010850694444444444,0,0,0.010850694444444444,26.671006944444443,0)" xlink:href="#bh"/><use transform="matrix(0.010850694444444444,0,0,0.010850694444444444,40.006510416666664,0)" xlink:href="#by"/><use transform="matrix(0.010850694444444444,0,0,0.010850694444444444,53.342013888888886,0)" xlink:href="#bh"/><use transform="matrix(0.010850694444444444,0,0,0.010850694444444444,66.67751736111111,0)" xlink:href="#bt"/><use transform="matrix(0.010850694444444444,0,0,0.010850694444444444,80.01302083333334,0)" xlink:href="#bn"/></g><path d="M713 0H515L10-1349h201C345-955 498-579 615-168c116-411 269-787 402-1181h201" id="cs"/><g id="aw"><use transform="matrix(0.010850694444444444,0,0,0.010850694444444444,0,0)" xlink:href="#cs"/><use transform="matrix(0.010850694444444444,0,0,0.010850694444444444,13.335503472222221,0)" xlink:href="#bp"/><use transform="matrix(0.010850694444444444,0,0,0.010850694444444444,26.671006944444443,0)" xlink:href="#bH"/><use transform="matrix(0.010850694444444444,0,0,0.010850694444444444,40.006510416666664,0)" xlink:href="#bp"/><use transform="matrix(0.010850694444444444,0,0,0.010850694444444444,53.342013888888886,0)" xlink:href="#bl"/><use transform="matrix(0.010850694444444444,0,0,0.010850694444444444,66.67751736111111,0)" xlink:href="#bv"/></g><path d="M496 0v-299h235V0H496" id="ct"/><g id="ax"><use transform="matrix(0.010850694444444444,0,0,0.010850694444444444,0,0)" xlink:href="#ct"/><use transform="matrix(0.010850694444444444,0,0,0.010850694444444444,13.335503472222221,0)" xlink:href="#ct"/><use transform="matrix(0.010850694444444444,0,0,0.010850694444444444,26.671006944444443,0)" xlink:href="#ct"/></g><g id="ay"><use transform="matrix(0.010850694444444444,0,0,0.010850694444444444,0,0)" xlink:href="#aH"/><use transform="matrix(0.010850694444444444,0,0,0.010850694444444444,15.33203125,0)" xlink:href="#aI"/><use transform="matrix(0.010850694444444444,0,0,0.010850694444444444,20.713975694444443,0)" xlink:href="#aJ"/><use transform="matrix(0.010850694444444444,0,0,0.010850694444444444,26.09592013888889,0)" xlink:href="#aK"/><use transform="matrix(0.010850694444444444,0,0,0.010850694444444444,38.791232638888886,0)" xlink:href="#aL"/></g><path fill="#1071e5" d="M180 0v-1490h528c311 0 458 177 458 395 0 191-114 278-244 313v14c139 9 302 137 302 371 0 225-148 397-499 397H180zm190-168h350c232 0 321-102 321-231 0-149-120-277-311-277H370v508zm0-668h328c160 0 286-101 286-255 0-129-87-231-280-231H370v486" id="cu"/><path fill="#1071e5" d="M471 26C259 26 90-98 90-318c0-256 228-303 435-329 202-27 287-16 287-108 0-139-79-219-234-219-161 0-248 86-283 164l-173-57c86-203 278-265 451-265 150 0 419 46 419 395V0H815v-152h-12C765-73 660 26 471 26zm31-159c199 0 310-134 310-271v-155c-30 35-226 55-295 64-131 17-246 59-246 186 0 116 97 176 231 176" id="cv"/><path fill="#1071e5" d="M158 0v-1490h180v865h22l478-493h223L593-638 1096 0H865L456-523 338-412V0H158" id="cw"/><g id="az"><use transform="matrix(0.010850694444444444,0,0,0.010850694444444444,0,0)" xlink:href="#cu"/><use transform="matrix(0.010850694444444444,0,0,0.010850694444444444,14.539930555555555,0)" xlink:href="#cv"/><use transform="matrix(0.010850694444444444,0,0,0.010850694444444444,27.018229166666664,0)" xlink:href="#aT"/><use transform="matrix(0.010850694444444444,0,0,0.010850694444444444,40.14756944444444,0)" xlink:href="#cw"/></g><path fill="#1071e5" d="M677 24c-213 0-288-135-325-197h-20V0H158v-1490h180v551h14c37-59 106-193 324-193 279 0 474 222 474 576 0 356-194 580-473 580zm-27-161c209 0 317-186 317-421 0-232-105-413-317-413-206 0-314 166-314 413 0 249 111 421 314 421" id="cx"/><g id="aA"><use transform="matrix(0.010850694444444444,0,0,0.010850694444444444,0,0)" xlink:href="#cu"/><use transform="matrix(0.010850694444444444,0,0,0.010850694444444444,14.539930555555555,0)" xlink:href="#aQ"/><use transform="matrix(0.010850694444444444,0,0,0.010850694444444444,27.864583333333332,0)" xlink:href="#cx"/></g><g id="aB"><use transform="matrix(0.010850694444444444,0,0,0.010850694444444444,0,0)" xlink:href="#cu"/><use transform="matrix(0.010850694444444444,0,0,0.010850694444444444,14.539930555555555,0)" xlink:href="#cv"/><use transform="matrix(0.010850694444444444,0,0,0.010850694444444444,27.018229166666664,0)" xlink:href="#aT"/><use transform="matrix(0.010850694444444444,0,0,0.010850694444444444,40.14756944444444,0)" xlink:href="#cw"/></g><path fill="#1071e5" d="M600 0L52-1490h200c166 485 304 806 458 1336 156-533 285-846 449-1336h202L819 0H600" id="cy"/><path fill="#1071e5" d="M481 0L54-1118h197c107 314 236 620 325 951 87-331 217-637 324-951h197L670 0H481" id="cz"/><g id="aC"><use transform="matrix(0.010850694444444444,0,0,0.010850694444444444,0,0)" xlink:href="#cy"/><use transform="matrix(0.010850694444444444,0,0,0.010850694444444444,15.33203125,0)" xlink:href="#aJ"/><use transform="matrix(0.010850694444444444,0,0,0.010850694444444444,20.713975694444443,0)" xlink:href="#cz"/><use transform="matrix(0.010850694444444444,0,0,0.010850694444444444,33.203125,0)" xlink:href="#aJ"/><use transform="matrix(0.010850694444444444,0,0,0.010850694444444444,38.58506944444444,0)" xlink:href="#cv"/><use transform="matrix(0.010850694444444444,0,0,0.010850694444444444,51.06336805555556,0)" xlink:href="#aT"/></g><path fill="#4c535d" d="M653-1490V0H466v-1314h-10L96-1047v-204l324-239h233" id="cA"/><use transform="matrix(0.010850694444444444,0,0,0.010850694444444444,0,0)" xlink:href="#cA" id="aD"/><path fill="#4c535d" d="M154 0v-137l495-537c165-179 249-281 249-418 0-156-121-253-280-253-170 0-278 110-278 278H158c0-264 200-443 465-443 266 0 455 183 455 416 0 161-73 288-336 568L416-179v12h687V0H154" id="cB"/><use transform="matrix(0.010850694444444444,0,0,0.010850694444444444,0,0)" xlink:href="#cB" id="aE"/><path fill="#4c535d" d="M635 20c-292 0-500-160-510-396h192c11 142 145 229 315 229 187 0 323-105 323-260 0-161-125-274-346-274H488v-165h121c174 0 294-100 294-254 0-148-104-245-266-245-152 0-291 85-297 230H157c8-234 222-395 484-395 278 0 448 188 448 400 0 168-95 291-247 336v12c190 31 301 169 301 357 0 244-216 425-508 425" id="cC"/><use transform="matrix(0.010850694444444444,0,0,0.010850694444444444,0,0)" xlink:href="#cC" id="aF"/><path fill="#4c535d" d="M120-303v-155l652-1032h231v1020h202v167h-202V0H821v-303H120zm702-167v-782h-12L323-482v12h499" id="cD"/><use transform="matrix(0.010850694444444444,0,0,0.010850694444444444,0,0)" xlink:href="#cD" id="aG"/></defs></g></svg>