<svg xmlns="http://www.w3.org/2000/svg" xmlns:xlink="http://www.w3.org/1999/xlink" xmlns:lucid="lucid" width="1380" height="1522"><g transform="translate(-220 -129)" lucid:page-tab-id="0_0"><path d="M240 220h1340v320H240z" stroke="#000" stroke-opacity="0" stroke-width="2" fill="#f4f4f4"/><path d="M240 340h160v60H240z" stroke="#000" stroke-opacity="0" stroke-width="2" fill="#fff" fill-opacity="0"/><use xlink:href="#a" transform="matrix(1,0,0,1,245,345) translate(12.71604938271605 29.444444444444443)"/><use xlink:href="#b" transform="matrix(1,0,0,1,245,345) translate(49.75308641975309 29.444444444444443)"/><use xlink:href="#c" transform="matrix(1,0,0,1,245,345) translate(122.46913580246914 29.444444444444443)"/><path d="M243 160h200v63.33H243z" stroke="#000" stroke-opacity="0" stroke-width="2" fill="#fff" fill-opacity="0"/><use xlink:href="#d" transform="matrix(1,0,0,1,248,165) translate(0 17.77777777777778)"/><use xlink:href="#e" transform="matrix(1,0,0,1,248,165) translate(0 44.44444444444444)"/><path d="M1144 160h200v63.33h-200z" stroke="#000" stroke-opacity="0" stroke-width="2" fill="#fff" fill-opacity="0"/><use xlink:href="#f" transform="matrix(1,0,0,1,1149,165) translate(0 17.77777777777778)"/><use xlink:href="#e" transform="matrix(1,0,0,1,1149,165) translate(0 44.44444444444444)"/><path d="M408 263.33h170v63.34H408z" stroke="#000" stroke-opacity="0" stroke-width="2" fill="#fff" fill-opacity="0"/><use xlink:href="#g" transform="matrix(1,0,0,1,413,268.3333333333333) translate(16.111111111111107 18.111111111111114)"/><use xlink:href="#h" transform="matrix(1,0,0,1,413,268.3333333333333) translate(26.94444444444445 44.777777777777786)"/><use xlink:href="#i" transform="matrix(1,0,0,1,413,268.3333333333333) translate(61.45061728395062 44.777777777777786)"/><use xlink:href="#j" transform="matrix(1,0,0,1,413,268.3333333333333) translate(82.43827160493828 44.777777777777786)"/><path d="M427 160h200v63.33H427z" stroke="#000" stroke-opacity="0" stroke-width="2" fill="#fff" fill-opacity="0"/><use xlink:href="#k" transform="matrix(1,0,0,1,432,165) translate(0 17.77777777777778)"/><use xlink:href="#e" transform="matrix(1,0,0,1,432,165) translate(0 44.44444444444444)"/><path d="M1361.24 258.43l117 93M1358.76 261.57l117 93" stroke="#000" stroke-width="2" fill="none"/><path d="M1474.47 350.98l-14.06-5.25 5.78-7.26z" stroke="#000" stroke-width="2"/><path d="M1341.56 261.25l-80 100M1338.44 258.75l-80 100" stroke="#000" stroke-width="2" fill="none"/><path d="M1262.02 357.47l5.3-14.03 7.23 5.8z" stroke="#000" stroke-width="2"/><path d="M1262 394v98.66M1258 394v98.66" stroke="#000" stroke-width="2" fill="none"/><path d="M1260 489.42l-4.64-14.26h9.28z" stroke="#000" stroke-width="2"/><path d="M1200 230h366v63.33h-366z" stroke="#000" stroke-opacity="0" stroke-width="2" fill="#fff" fill-opacity="0"/><use xlink:href="#l" transform="matrix(1,0,0,1,1205,235.00000000000003) translate(0 17.77777777777778)"/><use xlink:href="#m" transform="matrix(1,0,0,1,1205,235.00000000000003) translate(45.67901234567901 17.77777777777778)"/><use xlink:href="#n" transform="matrix(1,0,0,1,1205,235.00000000000003) translate(66.66666666666666 17.77777777777778)"/><use xlink:href="#o" transform="matrix(1,0,0,1,1205,235.00000000000003) translate(207.96296296296293 17.77777777777778)"/><use xlink:href="#i" transform="matrix(1,0,0,1,1205,235.00000000000003) translate(242.4691358024691 17.77777777777778)"/><use xlink:href="#p" transform="matrix(1,0,0,1,1205,235.00000000000003) translate(263.45679012345676 17.77777777777778)"/><path d="M1140 354h260v63.33h-260z" stroke="#000" stroke-opacity="0" stroke-width="2" fill="#fff" fill-opacity="0"/><use xlink:href="#l" transform="matrix(1,0,0,1,1145,358.99999999999994) translate(0 17.77777777777778)"/><use xlink:href="#q" transform="matrix(1,0,0,1,1145,358.99999999999994) translate(45.67901234567901 17.77777777777778)"/><use xlink:href="#r" transform="matrix(1,0,0,1,1145,358.99999999999994) translate(66.66666666666666 17.77777777777778)"/><use xlink:href="#b" transform="matrix(1,0,0,1,1145,358.99999999999994) translate(111.04938271604937 17.77777777777778)"/><use xlink:href="#s" transform="matrix(1,0,0,1,1145,358.99999999999994) translate(183.76543209876542 17.77777777777778)"/><path d="M1200 493.67h140V540h-140z" stroke="#000" stroke-opacity="0" stroke-width="2" fill="#fff" fill-opacity="0"/><use xlink:href="#a" transform="matrix(1,0,0,1,1205,498.66666666666663) translate(0 17.77777777777778)"/><use xlink:href="#b" transform="matrix(1,0,0,1,1205,498.66666666666663) translate(37.03703703703704 17.77777777777778)"/><use xlink:href="#t" transform="matrix(1,0,0,1,1205,498.66666666666663) translate(109.75308641975309 17.77777777777778)"/><path d="M1378 354h188v64h-188z" stroke="#000" stroke-opacity="0" stroke-width="2" fill="#fff" fill-opacity="0"/><use xlink:href="#u" transform="matrix(1,0,0,1,1383,358.99999999999983) translate(0 17.77777777777778)"/><use xlink:href="#v" transform="matrix(1,0,0,1,1383,358.99999999999983) translate(115.92592592592594 17.77777777777778)"/><use xlink:href="#w" transform="matrix(1,0,0,1,1383,358.99999999999983) translate(149.25925925925927 17.77777777777778)"/><path d="M251 500h180v40H251z" stroke="#000" stroke-opacity="0" stroke-width="2" fill="#fff" fill-opacity="0"/><use xlink:href="#x" transform="matrix(1,0,0,1,256,505) translate(0 17.77777777777778)"/><use xlink:href="#y" transform="matrix(1,0,0,1,256,505) translate(81.35802469135801 17.77777777777778)"/><path d="M780 240h320v74.67H780z" stroke="#000" stroke-opacity="0" stroke-width="2" fill="#fff" fill-opacity="0"/><use xlink:href="#z" transform="matrix(1,0,0,1,785,245) translate(12.530864197530889 36.94444444444444)"/><use xlink:href="#A" transform="matrix(1,0,0,1,785,245) translate(58.2098765432099 36.94444444444444)"/><use xlink:href="#B" transform="matrix(1,0,0,1,785,245) translate(84.13580246913583 36.94444444444444)"/><use xlink:href="#C" transform="matrix(1,0,0,1,785,245) translate(184.01234567901236 36.94444444444444)"/><use xlink:href="#D" transform="matrix(1,0,0,1,785,245) translate(218.51851851851853 36.94444444444444)"/><use xlink:href="#E" transform="matrix(1,0,0,1,785,245) translate(239.50617283950618 36.94444444444444)"/><path d="M586 263.33h128.64v63.34H586z" fill="#fff" fill-opacity="0"/><use xlink:href="#F" transform="matrix(1,0,0,1,591,268.3333333333332) translate(16.320987654320987 18.111111111111114)"/><use xlink:href="#G" transform="matrix(1,0,0,1,591,268.3333333333332) translate(6.44444444444445 44.777777777777786)"/><use xlink:href="#i" transform="matrix(1,0,0,1,591,268.3333333333332) translate(40.95061728395062 44.777777777777786)"/><use xlink:href="#j" transform="matrix(1,0,0,1,591,268.3333333333332) translate(61.93827160493827 44.777777777777786)"/><path d="M820 363.67h241V400H820z" fill="#fff" fill-opacity="0"/><use xlink:href="#H" transform="matrix(1,0,0,1,825,368.6666666666667) translate(0 17.77777777777778)"/><use xlink:href="#I" transform="matrix(1,0,0,1,825,368.6666666666667) translate(65.24691358024691 17.77777777777778)"/><use xlink:href="#J" transform="matrix(1,0,0,1,825,368.6666666666667) translate(85 17.77777777777778)"/><use xlink:href="#K" transform="matrix(1,0,0,1,825,368.6666666666667) translate(129.3827160493827 17.77777777777778)"/><use xlink:href="#L" transform="matrix(1,0,0,1,825,368.6666666666667) translate(202.09876543209876 17.77777777777778)"/><path d="M400 380l24.72 15.73 20.24 11.72 17 8.9 14.58 6.9 12.76 5.37 11.36 4.23 10.3 3.36 9.5 2.67 8.93 2.1 8.54 1.63 8.42 1.25 8.58.9 9.33.6 11.9.23 7.52-.06 15.05-.57 21.04-1.66 23.9-2.9 24.35-3.97 23.5-4.85 22.06-5.52 20.4-6 18.67-6.4 17.06-6.63 15.58-6.82 14.23-6.94 4.58-2.48" stroke="#666" stroke-width="2" fill="none"/><path d="M807.02 394.46l-4.55-8.08 14.7-2.96z" fill="#666"/><path d="M806.83 396.15l-5.9-10.48 19.07-3.84zm-2.8-9.06l3.2 5.67 7.13-7.76z" fill="#666"/><path d="M400 380l23.92 15.17 28.25 16.32 31.76 16.6L518 444.13l35.16 14.8 35.26 13.13 34.6 11.26 33.43 9.36 32.02 7.52 30.46 5.84 28.9 4.28 27.33 2.9 25.88 1.63 24.5.53 9.13-.07 21.42-.77 19.05-1.5 17.2-2.07 15.68-2.58 14.5-3 13.55-3.4 12.83-3.8 12.3-4.2 11.95-4.67 11.8-5.2 11.9-5.82 12.32-6.7 13.3-7.96 15.56-10.25 23.6-17.06 57.57-42.9 5.46-3.6" stroke="#666" stroke-width="2" fill="none"/><path d="M1137.28 381.75l-9.5 11.62-5-7.8z" stroke="#666" stroke-width="2" fill="#666"/><path d="M560 260l1.03-.82 1.2-.85 1.43-.9 1.7-.94 2.1-1 2.6-1.08 3.33-1.16 4.38-1.24 6.08-1.37 9.1-1.5 16-1.7 39.65-2.13 101.62-3.02 25.28.2 397.2 1.88 3.43.26" stroke="#666" stroke-width="2" fill="none"/><path d="M1191 246.36l-14.7 2.96 1.07-9.2z" stroke="#666" stroke-width="2" fill="#666"/><path d="M707 277.33l62.76-.25" stroke="#666" stroke-width="2" fill="none"/><path d="M784.76 277l-14.24 4.7-.04-9.26z" stroke="#666" stroke-width="2" fill="#666"/><path d="M943.5 300v64M939.5 300v64" stroke="#000" stroke-width="2" fill="none"/><path d="M941.5 360.76l-4.65-14.26h9.27z" stroke="#000" stroke-width="2"/><path d="M240 580h1340v320H240z" stroke="#000" stroke-opacity="0" stroke-width="2" fill="#f4f4f4"/><path d="M251 860h180v40H251z" stroke="#000" stroke-opacity="0" stroke-width="2" fill="#fff" fill-opacity="0"/><use xlink:href="#M" transform="matrix(1,0,0,1,256,865) translate(0 17.77777777777778)"/><use xlink:href="#N" transform="matrix(1,0,0,1,256,865) translate(38.58024691358025 17.77777777777778)"/><path d="M240 940h1340v320H240z" stroke="#000" stroke-opacity="0" stroke-width="2" fill="#f4f4f4"/><path d="M240 1060h160v60H240z" stroke="#000" stroke-opacity="0" stroke-width="2" fill="#fff" fill-opacity="0"/><use xlink:href="#a" transform="matrix(1,0,0,1,245,1065) translate(12.71604938271605 29.444444444444443)"/><use xlink:href="#b" transform="matrix(1,0,0,1,245,1065) translate(49.75308641975309 29.444444444444443)"/><use xlink:href="#c" transform="matrix(1,0,0,1,245,1065) translate(122.46913580246914 29.444444444444443)"/><path d="M251 1220h180v40H251z" stroke="#000" stroke-opacity="0" stroke-width="2" fill="#fff" fill-opacity="0"/><use xlink:href="#O" transform="matrix(1,0,0,1,256,1225) translate(0 17.77777777777778)"/><use xlink:href="#N" transform="matrix(1,0,0,1,256,1225) translate(39.75308641975309 17.77777777777778)"/><path d="M240 1300h1340v320H240z" stroke="#000" stroke-opacity="0" stroke-width="2" fill="#f4f4f4"/><path d="M240 1420h160v60H240z" stroke="#000" stroke-opacity="0" stroke-width="2" fill="#fff" fill-opacity="0"/><use xlink:href="#a" transform="matrix(1,0,0,1,245,1425) translate(12.71604938271605 29.444444444444443)"/><use xlink:href="#b" transform="matrix(1,0,0,1,245,1425) translate(49.75308641975309 29.444444444444443)"/><use xlink:href="#c" transform="matrix(1,0,0,1,245,1425) translate(122.46913580246914 29.444444444444443)"/><path d="M251 1560h180v63.33H251z" stroke="#000" stroke-opacity="0" stroke-width="2" fill="#fff" fill-opacity="0"/><use xlink:href="#P" transform="matrix(1,0,0,1,256,1565) translate(0 17.77777777777778)"/><use xlink:href="#N" transform="matrix(1,0,0,1,256,1565) translate(0 44.44444444444444)"/><path d="M1120 1640V140" fill="none"/><path d="M1120 1640v-20m0-20v-40m0-20v-40m0-20v-40m0-20v-40m0-20v-40m0-20v-40m0-20v-40m0-20v-40m0-20v-40m0-20v-40m0-20v-40m0-20v-40m0-20v-40m0-20v-40m0-20v-40m0-20v-40m0-20v-40m0-20v-40m0-20v-40m0-20v-40m0-20v-40m0-20v-40m0-20v-40m0-20v-40m0-20v-20" stroke="#b2b2b2" stroke-width="2" fill="none"/><path d="M414 1640V140" fill="none"/><path d="M414 1640v-20m0-20v-40m0-20v-40m0-20v-40m0-20v-40m0-20v-40m0-20v-40m0-20v-40m0-20v-40m0-20v-40m0-20v-40m0-20v-40m0-20v-40m0-20v-40m0-20v-40m0-20v-40m0-20v-40m0-20v-40m0-20v-40m0-20v-40m0-20v-40m0-20v-40m0-20v-40m0-20v-40m0-20v-40m0-20v-20" stroke="#b2b2b2" stroke-width="2" fill="none"/><path d="M240 1640V140" fill="none"/><path d="M240 1640v-20m0-20v-40m0-20v-40m0-20v-40m0-20v-40m0-20v-40m0-20v-40m0-20v-40m0-20v-40m0-20v-40m0-20v-40m0-20v-40m0-20v-40m0-20v-40m0-20v-40m0-20v-40m0-20v-40m0-20v-40m0-20v-40m0-20v-40m0-20v-40m0-20v-40m0-20v-40m0-20v-40m0-20v-40m0-20v-20" stroke="#b2b2b2" stroke-width="2" fill="none"/><path d="M408 627.33h170v63.34H408z" stroke="#000" stroke-opacity="0" stroke-width="2" fill="#fff" fill-opacity="0"/><use xlink:href="#Q" transform="matrix(1,0,0,1,413,632.3333333333333) translate(16.111111111111107 18.111111111111114)"/><use xlink:href="#R" transform="matrix(1,0,0,1,413,632.3333333333333) translate(26.94444444444445 44.777777777777786)"/><use xlink:href="#D" transform="matrix(1,0,0,1,413,632.3333333333333) translate(61.45061728395062 44.777777777777786)"/><use xlink:href="#S" transform="matrix(1,0,0,1,413,632.3333333333333) translate(82.43827160493828 44.777777777777786)"/><path d="M1361.24 622.43l117 93M1358.76 625.57l117 93" stroke="#000" stroke-width="2" fill="none"/><path d="M1474.47 714.98l-14.06-5.25 5.78-7.26z" stroke="#000" stroke-width="2"/><path d="M1341.56 625.25l-80 100M1338.44 622.75l-80 100" stroke="#000" stroke-width="2" fill="none"/><path d="M1262.02 721.47l5.3-14.03 7.23 5.8z" stroke="#000" stroke-width="2"/><path d="M1262 758v98.66M1258 758v98.66" stroke="#000" stroke-width="2" fill="none"/><path d="M1260 853.42l-4.64-14.26h9.28z" stroke="#000" stroke-width="2"/><path d="M1200 594h366v63.33h-366z" stroke="#000" stroke-opacity="0" stroke-width="2" fill="#fff" fill-opacity="0"/><use xlink:href="#T" transform="matrix(1,0,0,1,1205,599) translate(0 17.77777777777778)"/><use xlink:href="#U" transform="matrix(1,0,0,1,1205,599) translate(45.67901234567901 17.77777777777778)"/><use xlink:href="#V" transform="matrix(1,0,0,1,1205,599) translate(66.66666666666666 17.77777777777778)"/><use xlink:href="#C" transform="matrix(1,0,0,1,1205,599) translate(207.96296296296293 17.77777777777778)"/><use xlink:href="#D" transform="matrix(1,0,0,1,1205,599) translate(242.4691358024691 17.77777777777778)"/><use xlink:href="#E" transform="matrix(1,0,0,1,1205,599) translate(263.45679012345676 17.77777777777778)"/><path d="M1140 718h260v63.33h-260z" stroke="#000" stroke-opacity="0" stroke-width="2" fill="#fff" fill-opacity="0"/><use xlink:href="#T" transform="matrix(1,0,0,1,1145,723) translate(0 17.77777777777778)"/><use xlink:href="#W" transform="matrix(1,0,0,1,1145,723) translate(45.67901234567901 17.77777777777778)"/><use xlink:href="#X" transform="matrix(1,0,0,1,1145,723) translate(66.66666666666666 17.77777777777778)"/><use xlink:href="#Y" transform="matrix(1,0,0,1,1145,723) translate(111.04938271604937 17.77777777777778)"/><use xlink:href="#Z" transform="matrix(1,0,0,1,1145,723) translate(183.76543209876542 17.77777777777778)"/><path d="M1200 857.67h140V904h-140z" stroke="#000" stroke-opacity="0" stroke-width="2" fill="#fff" fill-opacity="0"/><use xlink:href="#aa" transform="matrix(1,0,0,1,1205,862.6666666666666) translate(0 17.77777777777778)"/><use xlink:href="#Y" transform="matrix(1,0,0,1,1205,862.6666666666666) translate(37.03703703703704 17.77777777777778)"/><use xlink:href="#ab" transform="matrix(1,0,0,1,1205,862.6666666666666) translate(109.75308641975309 17.77777777777778)"/><path d="M1378 718h188v64h-188z" stroke="#000" stroke-opacity="0" stroke-width="2" fill="#fff" fill-opacity="0"/><use xlink:href="#ac" transform="matrix(1,0,0,1,1383,722.9999999999999) translate(0 17.77777777777778)"/><use xlink:href="#ad" transform="matrix(1,0,0,1,1383,722.9999999999999) translate(115.92592592592594 17.77777777777778)"/><use xlink:href="#ae" transform="matrix(1,0,0,1,1383,722.9999999999999) translate(149.25925925925927 17.77777777777778)"/><path d="M780 604h320v74.67H780z" stroke="#000" stroke-opacity="0" stroke-width="2" fill="#fff" fill-opacity="0"/><use xlink:href="#z" transform="matrix(1,0,0,1,785,608.9999999999998) translate(12.530864197530889 36.94444444444444)"/><use xlink:href="#A" transform="matrix(1,0,0,1,785,608.9999999999998) translate(58.2098765432099 36.94444444444444)"/><use xlink:href="#B" transform="matrix(1,0,0,1,785,608.9999999999998) translate(84.13580246913583 36.94444444444444)"/><use xlink:href="#C" transform="matrix(1,0,0,1,785,608.9999999999998) translate(184.01234567901236 36.94444444444444)"/><use xlink:href="#D" transform="matrix(1,0,0,1,785,608.9999999999998) translate(218.51851851851853 36.94444444444444)"/><use xlink:href="#E" transform="matrix(1,0,0,1,785,608.9999999999998) translate(239.50617283950618 36.94444444444444)"/><path d="M586 627.33h128.64v63.34H586z" fill="#fff" fill-opacity="0"/><g><use xlink:href="#af" transform="matrix(1,0,0,1,591,632.3333333333333) translate(16.320987654320987 18.111111111111114)"/><use xlink:href="#ag" transform="matrix(1,0,0,1,591,632.3333333333333) translate(6.44444444444445 44.777777777777786)"/><use xlink:href="#D" transform="matrix(1,0,0,1,591,632.3333333333333) translate(40.95061728395062 44.777777777777786)"/><use xlink:href="#S" transform="matrix(1,0,0,1,591,632.3333333333333) translate(61.93827160493827 44.777777777777786)"/></g><path d="M820 727.67h241V791H820z" fill="#fff" fill-opacity="0"/><g><use xlink:href="#H" transform="matrix(1,0,0,1,825,732.6666666666667) translate(0 17.77777777777778)"/><use xlink:href="#I" transform="matrix(1,0,0,1,825,732.6666666666667) translate(65.24691358024691 17.77777777777778)"/><use xlink:href="#J" transform="matrix(1,0,0,1,825,732.6666666666667) translate(85 17.77777777777778)"/><use xlink:href="#K" transform="matrix(1,0,0,1,825,732.6666666666667) translate(129.3827160493827 17.77777777777778)"/><use xlink:href="#L" transform="matrix(1,0,0,1,825,732.6666666666667) translate(202.09876543209876 17.77777777777778)"/></g><path d="M560 624l1.03-.82 1.2-.85 1.43-.9 1.7-.94 2.1-1 2.6-1.08 3.33-1.16 4.38-1.24 6.08-1.37 9.1-1.5 16-1.7 39.65-2.13 101.62-3.02 25.28.2 397.2 1.88 3.43.26" stroke="#666" stroke-width="2" fill="none"/><path d="M1191 610.36l-14.7 2.96 1.07-9.2z" stroke="#666" stroke-width="2" fill="#666"/><path d="M707 641.33l62.76-.25" stroke="#666" stroke-width="2" fill="none"/><path d="M784.76 641l-14.24 4.7-.04-9.26z" stroke="#666" stroke-width="2" fill="#666"/><path d="M943.5 664v64M939.5 664v64" stroke="#000" stroke-width="2" fill="none"/><path d="M941.5 724.76l-4.65-14.26h9.27z" stroke="#000" stroke-width="2"/><path d="M408 982.33h170v63.34H408z" stroke="#000" stroke-opacity="0" stroke-width="2" fill="#fff" fill-opacity="0"/><g><use xlink:href="#Q" transform="matrix(1,0,0,1,413,987.3333333333334) translate(16.111111111111107 18.111111111111114)"/><use xlink:href="#R" transform="matrix(1,0,0,1,413,987.3333333333334) translate(26.94444444444445 44.777777777777786)"/><use xlink:href="#D" transform="matrix(1,0,0,1,413,987.3333333333334) translate(61.45061728395062 44.777777777777786)"/><use xlink:href="#S" transform="matrix(1,0,0,1,413,987.3333333333334) translate(82.43827160493828 44.777777777777786)"/></g><path d="M1361.24 977.43l117 93M1358.76 980.57l117 93" stroke="#000" stroke-width="2" fill="none"/><path d="M1474.47 1069.98l-14.06-5.25 5.78-7.26z" stroke="#000" stroke-width="2"/><path d="M1341.56 980.25l-80 100M1338.44 977.75l-80 100" stroke="#000" stroke-width="2" fill="none"/><path d="M1262.02 1076.47l5.3-14.03 7.23 5.8z" stroke="#000" stroke-width="2"/><path d="M1262 1113v98.66M1258 1113v98.66" stroke="#000" stroke-width="2" fill="none"/><path d="M1260 1208.42l-4.64-14.26h9.28z" stroke="#000" stroke-width="2"/><path d="M1200 949h366v63.33h-366z" stroke="#000" stroke-opacity="0" stroke-width="2" fill="#fff" fill-opacity="0"/><g><use xlink:href="#T" transform="matrix(1,0,0,1,1205,954) translate(0 17.77777777777778)"/><use xlink:href="#U" transform="matrix(1,0,0,1,1205,954) translate(45.67901234567901 17.77777777777778)"/><use xlink:href="#V" transform="matrix(1,0,0,1,1205,954) translate(66.66666666666666 17.77777777777778)"/><use xlink:href="#C" transform="matrix(1,0,0,1,1205,954) translate(207.96296296296293 17.77777777777778)"/><use xlink:href="#D" transform="matrix(1,0,0,1,1205,954) translate(242.4691358024691 17.77777777777778)"/><use xlink:href="#E" transform="matrix(1,0,0,1,1205,954) translate(263.45679012345676 17.77777777777778)"/></g><path d="M1140 1073h260v63.33h-260z" stroke="#000" stroke-opacity="0" stroke-width="2" fill="#fff" fill-opacity="0"/><g><use xlink:href="#T" transform="matrix(1,0,0,1,1145,1078) translate(0 17.77777777777778)"/><use xlink:href="#W" transform="matrix(1,0,0,1,1145,1078) translate(45.67901234567901 17.77777777777778)"/><use xlink:href="#X" transform="matrix(1,0,0,1,1145,1078) translate(66.66666666666666 17.77777777777778)"/><use xlink:href="#Y" transform="matrix(1,0,0,1,1145,1078) translate(111.04938271604937 17.77777777777778)"/><use xlink:href="#Z" transform="matrix(1,0,0,1,1145,1078) translate(183.76543209876542 17.77777777777778)"/></g><path d="M1200 1212.67h140V1259h-140z" stroke="#000" stroke-opacity="0" stroke-width="2" fill="#fff" fill-opacity="0"/><g><use xlink:href="#aa" transform="matrix(1,0,0,1,1205,1217.6666666666665) translate(0 17.77777777777778)"/><use xlink:href="#Y" transform="matrix(1,0,0,1,1205,1217.6666666666665) translate(37.03703703703704 17.77777777777778)"/><use xlink:href="#ab" transform="matrix(1,0,0,1,1205,1217.6666666666665) translate(109.75308641975309 17.77777777777778)"/></g><path d="M1378 1073h188v64h-188z" stroke="#000" stroke-opacity="0" stroke-width="2" fill="#fff" fill-opacity="0"/><g><use xlink:href="#ac" transform="matrix(1,0,0,1,1383,1078) translate(0 17.77777777777778)"/><use xlink:href="#ad" transform="matrix(1,0,0,1,1383,1078) translate(115.92592592592594 17.77777777777778)"/><use xlink:href="#ae" transform="matrix(1,0,0,1,1383,1078) translate(149.25925925925927 17.77777777777778)"/></g><path d="M780 959h320v74.67H780z" stroke="#000" stroke-opacity="0" stroke-width="2" fill="#fff" fill-opacity="0"/><g><use xlink:href="#z" transform="matrix(1,0,0,1,785,963.9999999999998) translate(12.530864197530889 36.94444444444444)"/><use xlink:href="#A" transform="matrix(1,0,0,1,785,963.9999999999998) translate(58.2098765432099 36.94444444444444)"/><use xlink:href="#B" transform="matrix(1,0,0,1,785,963.9999999999998) translate(84.13580246913583 36.94444444444444)"/><use xlink:href="#C" transform="matrix(1,0,0,1,785,963.9999999999998) translate(184.01234567901236 36.94444444444444)"/><use xlink:href="#D" transform="matrix(1,0,0,1,785,963.9999999999998) translate(218.51851851851853 36.94444444444444)"/><use xlink:href="#E" transform="matrix(1,0,0,1,785,963.9999999999998) translate(239.50617283950618 36.94444444444444)"/></g><path d="M586 982.33h128.64v63.34H586z" fill="#fff" fill-opacity="0"/><g><use xlink:href="#af" transform="matrix(1,0,0,1,591,987.3333333333334) translate(16.320987654320987 18.111111111111114)"/><use xlink:href="#ag" transform="matrix(1,0,0,1,591,987.3333333333334) translate(6.44444444444445 44.777777777777786)"/><use xlink:href="#D" transform="matrix(1,0,0,1,591,987.3333333333334) translate(40.95061728395062 44.777777777777786)"/><use xlink:href="#S" transform="matrix(1,0,0,1,591,987.3333333333334) translate(61.93827160493827 44.777777777777786)"/></g><path d="M820 1082.67h241V1120H820z" fill="#fff" fill-opacity="0"/><g><use xlink:href="#H" transform="matrix(1,0,0,1,825,1087.6666666666667) translate(0 17.77777777777778)"/><use xlink:href="#I" transform="matrix(1,0,0,1,825,1087.6666666666667) translate(65.24691358024691 17.77777777777778)"/><use xlink:href="#J" transform="matrix(1,0,0,1,825,1087.6666666666667) translate(85 17.77777777777778)"/><use xlink:href="#K" transform="matrix(1,0,0,1,825,1087.6666666666667) translate(129.3827160493827 17.77777777777778)"/><use xlink:href="#L" transform="matrix(1,0,0,1,825,1087.6666666666667) translate(202.09876543209876 17.77777777777778)"/></g><path d="M400 1099l24.72 15.73 20.24 11.72 17 8.9 14.58 6.9 12.76 5.37 11.36 4.23 10.3 3.36 9.5 2.67 8.93 2.1 8.54 1.63 8.42 1.25 8.58.9 9.33.6 11.9.23 7.52-.06 15.9-.6 21.65-1.7 24.12-2.92 24.32-3.96 23.32-4.8 21.8-5.47 20.14-5.95 18.45-6.3 16.87-6.55 15.4-6.74 14.06-6.88 4.38-2.37" stroke="#666" stroke-width="2" fill="none"/><path d="M807.02 1113.96l-4.55-8.08 14.7-2.96z" fill="#666"/><path d="M806.82 1115.65l-5.9-10.48 19.08-3.84zm-2.8-9.06l3.2 5.67 7.14-7.76z" fill="#666"/><path d="M400 1099l23.92 15.17 28.25 16.32 31.76 16.6 34.06 16.04 35.16 14.8 35.26 13.13 34.6 11.26 33.43 9.36 32.02 7.52 30.46 5.84 28.9 4.28 27.33 2.9 25.88 1.63 24.5.53 9.13-.07 21.42-.77 19.05-1.5 17.2-2.07 15.68-2.58 14.5-3 13.55-3.4 12.83-3.8 12.3-4.2 11.95-4.67 11.8-5.2 11.9-5.82 12.32-6.7 13.3-7.96 15.56-10.25 23.6-17.06 57.57-42.9 5.46-3.6" stroke="#666" stroke-width="2" fill="none"/><path d="M1137.28 1100.75l-9.5 11.62-5-7.8z" stroke="#666" stroke-width="2" fill="#666"/><path d="M560 979l1.03-.82 1.2-.85 1.43-.9 1.7-.94 2.1-1 2.6-1.08 3.33-1.16 4.38-1.24 6.08-1.37 9.1-1.5 16-1.7 39.65-2.13 101.62-3.02 25.28.2 397.2 1.88 3.43.26" stroke="#666" stroke-width="2" fill="none"/><path d="M1191 965.36l-14.7 2.96 1.07-9.2z" stroke="#666" stroke-width="2" fill="#666"/><path d="M707 996.33l62.76-.25" stroke="#666" stroke-width="2" fill="none"/><path d="M784.76 996l-14.24 4.7-.04-9.26z" stroke="#666" stroke-width="2" fill="#666"/><path d="M943.5 1019v64M939.5 1019v64" stroke="#000" stroke-width="2" fill="none"/><path d="M941.5 1079.76l-4.65-14.26h9.27z" stroke="#000" stroke-width="2"/><path d="M1262 1474v98.66M1258 1474v98.66" stroke="#000" stroke-width="2" fill="none"/><path d="M1260 1569.42l-4.64-14.26h9.28z" stroke="#000" stroke-width="2"/><path d="M1140 1434h260v63.33h-260z" stroke="#000" stroke-opacity="0" stroke-width="2" fill="#fff" fill-opacity="0"/><g><use xlink:href="#T" transform="matrix(1,0,0,1,1145,1439.0000000000002) translate(0 17.77777777777778)"/><use xlink:href="#W" transform="matrix(1,0,0,1,1145,1439.0000000000002) translate(45.67901234567901 17.77777777777778)"/><use xlink:href="#X" transform="matrix(1,0,0,1,1145,1439.0000000000002) translate(66.66666666666666 17.77777777777778)"/><use xlink:href="#Y" transform="matrix(1,0,0,1,1145,1439.0000000000002) translate(111.04938271604937 17.77777777777778)"/><use xlink:href="#Z" transform="matrix(1,0,0,1,1145,1439.0000000000002) translate(183.76543209876542 17.77777777777778)"/></g><path d="M1200 1573.67h140V1620h-140z" stroke="#000" stroke-opacity="0" stroke-width="2" fill="#fff" fill-opacity="0"/><g><use xlink:href="#aa" transform="matrix(1,0,0,1,1205,1578.6666666666667) translate(0 17.77777777777778)"/><use xlink:href="#Y" transform="matrix(1,0,0,1,1205,1578.6666666666667) translate(37.03703703703704 17.77777777777778)"/><use xlink:href="#ab" transform="matrix(1,0,0,1,1205,1578.6666666666667) translate(109.75308641975309 17.77777777777778)"/></g><path d="M820 1443.67h241V1480H820z" fill="#fff" fill-opacity="0"/><g><use xlink:href="#H" transform="matrix(1,0,0,1,825,1448.666666666667) translate(0 17.77777777777778)"/><use xlink:href="#I" transform="matrix(1,0,0,1,825,1448.666666666667) translate(65.24691358024691 17.77777777777778)"/><use xlink:href="#J" transform="matrix(1,0,0,1,825,1448.666666666667) translate(85 17.77777777777778)"/><use xlink:href="#K" transform="matrix(1,0,0,1,825,1448.666666666667) translate(129.3827160493827 17.77777777777778)"/><use xlink:href="#L" transform="matrix(1,0,0,1,825,1448.666666666667) translate(202.09876543209876 17.77777777777778)"/></g><path d="M400 1460l24.72 15.73 20.24 11.72 17 8.9 14.58 6.9 12.76 5.37 11.36 4.23 10.3 3.36 9.5 2.67 8.93 2.1 8.54 1.63 8.42 1.25 8.58.9 9.33.6 11.9.23 7.52-.06 15.05-.57 21.04-1.66 23.9-2.9 24.35-3.97 23.5-4.85 22.06-5.52 20.4-6 18.67-6.4 17.06-6.63 15.58-6.82 14.23-6.94 4.58-2.48" stroke="#666" stroke-width="2" fill="none"/><path d="M807.02 1474.46l-4.55-8.08 14.7-2.96z" fill="#666"/><path d="M806.83 1476.15l-5.9-10.48 19.07-3.84zm-2.8-9.06l3.2 5.67 7.13-7.76z" fill="#666"/><path d="M400 1460l23.92 15.17 28.25 16.32 31.76 16.6 34.06 16.04 35.16 14.8 35.26 13.13 34.6 11.26 33.43 9.36 32.02 7.52 30.46 5.84 28.9 4.28 27.33 2.9 25.88 1.63 24.5.53 9.13-.07 21.42-.77 19.05-1.5 17.2-2.07 15.68-2.58 14.5-3 13.55-3.4 12.83-3.8 12.3-4.2 11.95-4.67 11.8-5.2 11.9-5.82 12.32-6.7 13.3-7.96 15.56-10.25 23.6-17.06 57.57-42.9 5.46-3.6" stroke="#666" stroke-width="2" fill="none"/><path d="M1137.28 1461.75l-9.5 11.62-5-7.8z" stroke="#666" stroke-width="2" fill="#666"/><defs><path d="M33 0v-248h34V0H33" id="ah"/><path d="M100-194c62-1 85 37 85 99 1 63-27 99-86 99S16-35 15-95c0-66 28-99 85-99zM99-20c44 1 53-31 53-75 0-43-8-75-51-75s-53 32-53 75 10 74 51 75" id="ai"/><path d="M84 4C-5 8 30-112 23-190h32v120c0 31 7 50 39 49 72-2 45-101 50-169h31l1 190h-30c-1-10 1-25-2-33-11 22-28 36-60 37" id="aj"/><g id="a"><use transform="matrix(0.06172839506172839,0,0,0.06172839506172839,0,0)" xlink:href="#ah"/><use transform="matrix(0.06172839506172839,0,0,0.06172839506172839,6.172839506172839,0)" xlink:href="#ai"/><use transform="matrix(0.06172839506172839,0,0,0.06172839506172839,18.51851851851852,0)" xlink:href="#aj"/></g><path d="M194-70c0 46-34 64-81 66v29H91V-4C42-5 12-27 4-67l30-6c5 28 25 41 57 43v-87c-38-9-76-20-76-67 1-42 33-58 76-59v-23h22v23c45 0 67 20 76 56l-31 6c-5-23-18-35-45-37v78c41 10 81 20 81 70zm-81 41c51 7 71-66 19-77-6-2-12-4-19-6v83zM91-219c-47-6-63 57-18 69 6 2 12 3 18 5v-74" id="ak"/><path d="M182-130c37 4 62 22 62 59C244 23 116-4 24 0v-248c84 5 203-23 205 63 0 31-19 50-47 55zM76-148c40-3 101 13 101-30 0-44-60-28-101-31v61zm0 110c48-3 116 14 116-37 0-48-69-32-116-35v72" id="al"/><path d="M133-34C117-15 103 5 69 4 32 3 11-16 11-54c-1-60 55-63 116-61 1-26-3-47-28-47-18 1-26 9-28 27l-52-2c7-38 36-58 82-57s74 22 75 68l1 82c-1 14 12 18 25 15v27c-30 8-71 5-69-32zm-48 3c29 0 43-24 42-57-32 0-66-3-65 30 0 17 8 27 23 27" id="am"/><path d="M135-194c87-1 58 113 63 194h-50c-7-57 23-157-34-157-59 0-34 97-39 157H25l-1-190h47c2 12-1 28 3 38 12-26 28-41 61-42" id="an"/><path d="M147 0L96-86 75-71V0H25v-261h50v150l67-79h53l-66 74L201 0h-54" id="ao"/><g id="b"><use transform="matrix(0.06172839506172839,0,0,0.06172839506172839,0,0)" xlink:href="#ak"/><use transform="matrix(0.06172839506172839,0,0,0.06172839506172839,12.345679012345679,0)" xlink:href="#al"/><use transform="matrix(0.06172839506172839,0,0,0.06172839506172839,28.333333333333332,0)" xlink:href="#am"/><use transform="matrix(0.06172839506172839,0,0,0.06172839506172839,40.67901234567901,0)" xlink:href="#an"/><use transform="matrix(0.06172839506172839,0,0,0.06172839506172839,54.19753086419753,0)" xlink:href="#ao"/></g><path d="M205 0l-28-72H64L36 0H1l101-248h38L239 0h-34zm-38-99l-47-123c-12 45-31 82-46 123h93" id="ap"/><g id="c"><use transform="matrix(0.06172839506172839,0,0,0.06172839506172839,0,0)" xlink:href="#ap"/><path d="M-1.1 1.54h17.03v1.63H-1.1z"/></g><path d="M160-131c35 5 61 23 61 61C221 17 115-2 30 0v-248c76 3 177-17 177 60 0 33-19 50-47 57zm-97-11c50-1 110 9 110-42 0-47-63-36-110-37v79zm0 115c55-2 124 14 124-45 0-56-70-42-124-44v89" id="aq"/><path d="M141-36C126-15 110 5 73 4 37 3 15-17 15-53c-1-64 63-63 125-63 3-35-9-54-41-54-24 1-41 7-42 31l-33-3c5-37 33-52 76-52 45 0 72 20 72 64v82c-1 20 7 32 28 27v20c-31 9-61-2-59-35zM48-53c0 20 12 33 32 33 41-3 63-29 60-74-43 2-92-5-92 41" id="ar"/><path d="M117-194c89-4 53 116 60 194h-32v-121c0-31-8-49-39-48C34-167 62-67 57 0H25l-1-190h30c1 10-1 24 2 32 11-22 29-35 61-36" id="as"/><path d="M143 0L79-87 56-68V0H24v-261h32v163l83-92h37l-77 82L181 0h-38" id="at"/><g id="d"><use transform="matrix(0.06172839506172839,0,0,0.06172839506172839,0,0)" xlink:href="#aq"/><use transform="matrix(0.06172839506172839,0,0,0.06172839506172839,14.814814814814813,0)" xlink:href="#ar"/><use transform="matrix(0.06172839506172839,0,0,0.06172839506172839,27.160493827160494,0)" xlink:href="#as"/><use transform="matrix(0.06172839506172839,0,0,0.06172839506172839,39.50617283950617,0)" xlink:href="#at"/></g><path d="M114-163C36-179 61-72 57 0H25l-1-190h30c1 12-1 29 2 39 6-27 23-49 58-41v29" id="au"/><path d="M100-194c63 0 86 42 84 106H49c0 40 14 67 53 68 26 1 43-12 49-29l28 8c-11 28-37 45-77 45C44 4 14-33 15-96c1-61 26-98 85-98zm52 81c6-60-76-77-97-28-3 7-6 17-6 28h103" id="av"/><path d="M145-31C134-9 116 4 85 4 32 4 16-35 15-94c0-59 17-99 70-100 32-1 48 14 60 33 0-11-1-24 2-32h30l-1 268h-32zM93-21c41 0 51-33 51-76s-8-73-50-73c-40 0-46 35-46 75s5 74 45 74" id="aw"/><path d="M135-143c-3-34-86-38-87 0 15 53 115 12 119 90S17 21 10-45l28-5c4 36 97 45 98 0-10-56-113-15-118-90-4-57 82-63 122-42 12 7 21 19 24 35" id="ax"/><path d="M59-47c-2 24 18 29 38 22v24C64 9 27 4 27-40v-127H5v-23h24l9-43h21v43h35v23H59v120" id="ay"/><path d="M85-194c31 0 48 13 60 33l-1-100h32l1 261h-30c-2-10 0-23-3-31C134-8 116 4 85 4 32 4 16-35 15-94c0-66 23-100 70-100zm9 24c-40 0-46 34-46 75 0 40 6 74 45 74 42 0 51-32 51-76 0-42-9-74-50-73" id="az"/><g id="e"><use transform="matrix(0.06172839506172839,0,0,0.06172839506172839,0,0)" xlink:href="#au"/><use transform="matrix(0.06172839506172839,0,0,0.06172839506172839,7.345679012345679,0)" xlink:href="#av"/><use transform="matrix(0.06172839506172839,0,0,0.06172839506172839,19.691358024691358,0)" xlink:href="#aw"/><use transform="matrix(0.06172839506172839,0,0,0.06172839506172839,32.03703703703704,0)" xlink:href="#aj"/><use transform="matrix(0.06172839506172839,0,0,0.06172839506172839,44.382716049382715,0)" xlink:href="#av"/><use transform="matrix(0.06172839506172839,0,0,0.06172839506172839,56.72839506172839,0)" xlink:href="#ax"/><use transform="matrix(0.06172839506172839,0,0,0.06172839506172839,67.8395061728395,0)" xlink:href="#ay"/><use transform="matrix(0.06172839506172839,0,0,0.06172839506172839,74.01234567901234,0)" xlink:href="#av"/><use transform="matrix(0.06172839506172839,0,0,0.06172839506172839,86.35802469135803,0)" xlink:href="#az"/></g><path d="M30-248c87 1 191-15 191 75 0 78-77 80-158 76V0H30v-248zm33 125c57 0 124 11 124-50 0-59-68-47-124-48v98" id="aA"/><use transform="matrix(0.06172839506172839,0,0,0.06172839506172839,0,0)" xlink:href="#aA" id="f"/><path d="M212-179c-10-28-35-45-73-45-59 0-87 40-87 99 0 60 29 101 89 101 43 0 62-24 78-52l27 14C228-24 195 4 139 4 59 4 22-46 18-125c-6-104 99-153 187-111 19 9 31 26 39 46" id="aB"/><path d="M140-251c81 0 123 46 123 126C263-46 219 4 140 4 59 4 17-45 17-125s42-126 123-126zm0 227c63 0 89-41 89-101s-29-99-89-99c-61 0-89 39-89 99S79-25 140-24" id="aC"/><path d="M101-234c-31-9-42 10-38 44h38v23H63V0H32v-167H5v-23h27c-7-52 17-82 69-68v24" id="aD"/><g id="g"><use transform="matrix(0.06172839506172839,0,0,0.06172839506172839,0,0)" xlink:href="#aB"/><use transform="matrix(0.06172839506172839,0,0,0.06172839506172839,15.987654320987653,0)" xlink:href="#ai"/><use transform="matrix(0.06172839506172839,0,0,0.06172839506172839,28.333333333333332,0)" xlink:href="#aj"/><use transform="matrix(0.06172839506172839,0,0,0.06172839506172839,40.67901234567901,0)" xlink:href="#as"/><use transform="matrix(0.06172839506172839,0,0,0.06172839506172839,53.02469135802469,0)" xlink:href="#ay"/><use transform="matrix(0.06172839506172839,0,0,0.06172839506172839,59.19753086419753,0)" xlink:href="#av"/><use transform="matrix(0.06172839506172839,0,0,0.06172839506172839,71.54320987654322,0)" xlink:href="#au"/><use transform="matrix(0.06172839506172839,0,0,0.06172839506172839,78.8888888888889,0)" xlink:href="#aC"/><use transform="matrix(0.06172839506172839,0,0,0.06172839506172839,96.17283950617285,0)" xlink:href="#aD"/><use transform="matrix(0.06172839506172839,0,0,0.06172839506172839,101.91358024691358,0)" xlink:href="#aD"/><use transform="matrix(0.06172839506172839,0,0,0.06172839506172839,108.08641975308642,0)" xlink:href="#av"/><use transform="matrix(0.06172839506172839,0,0,0.06172839506172839,120.4320987654321,0)" xlink:href="#au"/></g><path d="M199 0l-22-63H83L61 0H9l90-248h61L250 0h-51zm-33-102l-36-108c-10 38-24 72-36 108h72" id="aE"/><g id="h"><use transform="matrix(0.06172839506172839,0,0,0.06172839506172839,0,0)" xlink:href="#ak"/><use transform="matrix(0.06172839506172839,0,0,0.06172839506172839,12.345679012345679,0)" xlink:href="#aE"/></g><g id="i"><use transform="matrix(0.06172839506172839,0,0,0.06172839506172839,0,0)" xlink:href="#aA"/><path d="M-1.1 1.54h17.03v1.63H-1.1z"/></g><g id="j"><use transform="matrix(0.06172839506172839,0,0,0.06172839506172839,0,0)" xlink:href="#aq"/><use transform="matrix(0.06172839506172839,0,0,0.06172839506172839,14.814814814814813,0)" xlink:href="#ar"/><use transform="matrix(0.06172839506172839,0,0,0.06172839506172839,27.160493827160494,0)" xlink:href="#as"/><use transform="matrix(0.06172839506172839,0,0,0.06172839506172839,39.50617283950617,0)" xlink:href="#at"/></g><use transform="matrix(0.06172839506172839,0,0,0.06172839506172839,0,0)" xlink:href="#ap" id="k"/><path d="M24 0v-248h195v40H76v63h132v40H76v65h150V0H24" id="aF"/><path d="M144 0l-44-69L55 0H2l70-98-66-92h53l41 62 40-62h54l-67 91 71 99h-54" id="aG"/><path d="M185-48c-13 30-37 53-82 52C43 2 14-33 14-96s30-98 90-98c62 0 83 45 84 108H66c0 31 8 55 39 56 18 0 30-7 34-22zm-45-69c5-46-57-63-70-21-2 6-4 13-4 21h74" id="aH"/><g id="l"><use transform="matrix(0.06172839506172839,0,0,0.06172839506172839,0,0)" xlink:href="#aF"/><use transform="matrix(0.06172839506172839,0,0,0.06172839506172839,14.814814814814813,0)" xlink:href="#aG"/><use transform="matrix(0.06172839506172839,0,0,0.06172839506172839,27.160493827160494,0)" xlink:href="#aH"/></g><use transform="matrix(0.06172839506172839,0,0,0.06172839506172839,0,0)" xlink:href="#aA" id="m"/><path d="M87 75C49 33 22-17 22-94c0-76 28-126 65-167h31c-38 41-64 92-64 168S80 34 118 75H87" id="aI"/><g id="n"><use transform="matrix(0.06172839506172839,0,0,0.06172839506172839,0,0)" xlink:href="#aI"/><use transform="matrix(0.06172839506172839,0,0,0.06172839506172839,7.345679012345679,0)" xlink:href="#aB"/><use transform="matrix(0.06172839506172839,0,0,0.06172839506172839,23.333333333333332,0)" xlink:href="#ai"/><use transform="matrix(0.06172839506172839,0,0,0.06172839506172839,35.67901234567901,0)" xlink:href="#aj"/><use transform="matrix(0.06172839506172839,0,0,0.06172839506172839,48.02469135802469,0)" xlink:href="#as"/><use transform="matrix(0.06172839506172839,0,0,0.06172839506172839,60.37037037037037,0)" xlink:href="#ay"/><use transform="matrix(0.06172839506172839,0,0,0.06172839506172839,66.5432098765432,0)" xlink:href="#av"/><use transform="matrix(0.06172839506172839,0,0,0.06172839506172839,78.88888888888889,0)" xlink:href="#au"/><use transform="matrix(0.06172839506172839,0,0,0.06172839506172839,86.23456790123457,0)" xlink:href="#aC"/><use transform="matrix(0.06172839506172839,0,0,0.06172839506172839,103.51851851851852,0)" xlink:href="#aD"/><use transform="matrix(0.06172839506172839,0,0,0.06172839506172839,109.25925925925925,0)" xlink:href="#aD"/><use transform="matrix(0.06172839506172839,0,0,0.06172839506172839,115.43209876543209,0)" xlink:href="#av"/><use transform="matrix(0.06172839506172839,0,0,0.06172839506172839,127.77777777777777,0)" xlink:href="#au"/></g><g id="o"><use transform="matrix(0.06172839506172839,0,0,0.06172839506172839,0,0)" xlink:href="#ak"/><use transform="matrix(0.06172839506172839,0,0,0.06172839506172839,12.345679012345679,0)" xlink:href="#aE"/></g><path d="M33-261c38 41 65 92 65 168S71 34 33 75H2C39 34 66-17 66-93S39-220 2-261h31" id="aJ"/><g id="p"><use transform="matrix(0.06172839506172839,0,0,0.06172839506172839,0,0)" xlink:href="#aq"/><use transform="matrix(0.06172839506172839,0,0,0.06172839506172839,14.814814814814813,0)" xlink:href="#ar"/><use transform="matrix(0.06172839506172839,0,0,0.06172839506172839,27.160493827160494,0)" xlink:href="#as"/><use transform="matrix(0.06172839506172839,0,0,0.06172839506172839,39.50617283950617,0)" xlink:href="#at"/><use transform="matrix(0.06172839506172839,0,0,0.06172839506172839,50.61728395061728,0)" xlink:href="#aJ"/></g><use transform="matrix(0.06172839506172839,0,0,0.06172839506172839,0,0)" xlink:href="#ap" id="q"/><g id="r"><use transform="matrix(0.06172839506172839,0,0,0.06172839506172839,0,0)" xlink:href="#aI"/><use transform="matrix(0.06172839506172839,0,0,0.06172839506172839,7.345679012345679,0)" xlink:href="#ah"/><use transform="matrix(0.06172839506172839,0,0,0.06172839506172839,13.518518518518519,0)" xlink:href="#ai"/><use transform="matrix(0.06172839506172839,0,0,0.06172839506172839,25.864197530864196,0)" xlink:href="#aj"/></g><g id="s"><use transform="matrix(0.06172839506172839,0,0,0.06172839506172839,0,0)" xlink:href="#ap"/><path d="M-1.1 1.54h17.03v1.63H-1.1z"/><use transform="matrix(0.06172839506172839,0,0,0.06172839506172839,14.814814814814813,0)" xlink:href="#aJ"/></g><g id="t"><use transform="matrix(0.06172839506172839,0,0,0.06172839506172839,0,0)" xlink:href="#aA"/><path d="M-1.1 1.54h17.03v1.63H-1.1z"/></g><path d="M24-231v-30h32v30H24zM24 0v-190h32V0H24" id="aK"/><path d="M177-190C167-65 218 103 67 71c-23-6-38-20-44-43l32-5c15 47 100 32 89-28v-30C133-14 115 1 83 1 29 1 15-40 15-95c0-56 16-97 71-98 29-1 48 16 59 35 1-10 0-23 2-32h30zM94-22c36 0 50-32 50-73 0-42-14-75-50-75-39 0-46 34-46 75s6 73 46 73" id="aL"/><g id="u"><use transform="matrix(0.06172839506172839,0,0,0.06172839506172839,0,0)" xlink:href="#aA"/><use transform="matrix(0.06172839506172839,0,0,0.06172839506172839,14.814814814814813,0)" xlink:href="#ar"/><use transform="matrix(0.06172839506172839,0,0,0.06172839506172839,27.160493827160494,0)" xlink:href="#aK"/><use transform="matrix(0.06172839506172839,0,0,0.06172839506172839,32.03703703703704,0)" xlink:href="#as"/><use transform="matrix(0.06172839506172839,0,0,0.06172839506172839,44.382716049382715,0)" xlink:href="#ay"/><use transform="matrix(0.06172839506172839,0,0,0.06172839506172839,50.55555555555556,0)" xlink:href="#ap"/><use transform="matrix(0.06172839506172839,0,0,0.06172839506172839,65.37037037037037,0)" xlink:href="#aL"/><use transform="matrix(0.06172839506172839,0,0,0.06172839506172839,77.71604938271605,0)" xlink:href="#au"/><use transform="matrix(0.06172839506172839,0,0,0.06172839506172839,85.06172839506173,0)" xlink:href="#av"/><use transform="matrix(0.06172839506172839,0,0,0.06172839506172839,97.40740740740742,0)" xlink:href="#av"/></g><path d="M24-248c93 1 206-16 204 79-1 75-69 88-152 82V0H24v-248zm52 121c47 0 100 7 100-41 0-47-54-39-100-39v80" id="aM"/><g id="v"><use transform="matrix(0.06172839506172839,0,0,0.06172839506172839,0,0)" xlink:href="#ak"/><use transform="matrix(0.06172839506172839,0,0,0.06172839506172839,12.345679012345679,0)" xlink:href="#aM"/></g><g id="w"><use transform="matrix(0.06172839506172839,0,0,0.06172839506172839,0,0)" xlink:href="#ak"/><use transform="matrix(0.06172839506172839,0,0,0.06172839506172839,12.345679012345679,0)" xlink:href="#aE"/></g><path fill="#0c7cba" d="M178-136c88 48 22 151-73 140C49-3 12-15 4-64l51-9c1 50 111 53 115 3-16-63-132-20-133-112 0-93 190-91 199-10l-50 12c-4-41-93-50-97-4 7 38 59 32 89 48" id="aN"/><path fill="#0c7cba" d="M150-105c8-23 8-54-22-51-68 7-54 98-72 156H6l50-261h50L85-158c15-20 33-36 66-36 95 0 34 128 28 194h-49" id="aO"/><path fill="#0c7cba" d="M166-52c-4 17 5 29 24 23l-3 27c-30 11-74 1-67-34C105-15 91 4 56 4 23 4 3-15 2-49c0-64 63-67 128-67 10-22 3-53-29-45-13 3-22 10-25 24l-46-5c5-64 156-77 153 0-1 33-11 60-17 90zM97-88c-44-9-64 57-19 57 31 0 42-28 47-57H97" id="aP"/><path fill="#0c7cba" d="M84-151c13-25 34-51 72-40l-8 41C67-170 71-64 56 0H6l36-190h47" id="aQ"/><path fill="#0c7cba" d="M114-194c63-2 87 48 72 110H63c-3 28 1 55 31 54 21-1 32-13 37-29l44 13C160-14 137 4 91 4 41 4 11-22 11-73c0-71 33-119 103-121zm30 77c14-47-50-61-67-22-3 6-6 13-8 22h75" id="aR"/><path fill="#0c7cba" d="M132-28C118-9 101 4 69 4 30 4 10-23 10-62c0-70 24-129 92-132 31-1 47 14 56 35l19-102h49L179 0h-49zM62-69c0 22 7 39 29 39 45-2 54-45 57-90 2-27-10-40-33-40-44 0-53 48-53 91" id="aS"/><g id="x"><use transform="matrix(0.06172839506172839,0,0,0.06172839506172839,0,0)" xlink:href="#aN"/><use transform="matrix(0.06172839506172839,0,0,0.06172839506172839,14.814814814814813,0)" xlink:href="#aO"/><use transform="matrix(0.06172839506172839,0,0,0.06172839506172839,28.33333333333333,0)" xlink:href="#aP"/><use transform="matrix(0.06172839506172839,0,0,0.06172839506172839,40.679012345679006,0)" xlink:href="#aQ"/><use transform="matrix(0.06172839506172839,0,0,0.06172839506172839,49.32098765432098,0)" xlink:href="#aR"/><use transform="matrix(0.06172839506172839,0,0,0.06172839506172839,61.66666666666666,0)" xlink:href="#aS"/></g><path fill="#0c7cba" d="M6 0l51-261h49L55 0H6" id="aT"/><path fill="#0c7cba" d="M45-171c29-32 103-29 114 14 2-11 5-23 8-33h47L176-2c-3 70-92 96-155 64C9 56 1 42-1 25l50-5c2 28 48 27 63 11 13-13 20-45 21-66-13 20-30 35-62 36-87 3-60-134-26-172zM94-35c41-3 55-43 55-86 0-24-12-39-35-39-43 0-51 48-51 90 0 22 9 37 31 35" id="aU"/><g id="y"><use transform="matrix(0.06172839506172839,0,0,0.06172839506172839,0,0)" xlink:href="#aT"/><use transform="matrix(0.06172839506172839,0,0,0.06172839506172839,6.172839506172839,0)" xlink:href="#aR"/><use transform="matrix(0.06172839506172839,0,0,0.06172839506172839,18.51851851851852,0)" xlink:href="#aS"/><use transform="matrix(0.06172839506172839,0,0,0.06172839506172839,32.03703703703704,0)" xlink:href="#aU"/><use transform="matrix(0.06172839506172839,0,0,0.06172839506172839,45.55555555555556,0)" xlink:href="#aR"/><use transform="matrix(0.06172839506172839,0,0,0.06172839506172839,57.901234567901234,0)" xlink:href="#aQ"/></g><g id="z"><use transform="matrix(0.06172839506172839,0,0,0.06172839506172839,0,0)" xlink:href="#aF"/><use transform="matrix(0.06172839506172839,0,0,0.06172839506172839,14.814814814814813,0)" xlink:href="#aG"/><use transform="matrix(0.06172839506172839,0,0,0.06172839506172839,27.160493827160494,0)" xlink:href="#aH"/></g><use transform="matrix(0.06172839506172839,0,0,0.06172839506172839,0,0)" xlink:href="#ap" id="A"/><path d="M185-189c-5-48-123-54-124 2 14 75 158 14 163 119 3 78-121 87-175 55-17-10-28-26-33-46l33-7c5 56 141 63 141-1 0-78-155-14-162-118-5-82 145-84 179-34 5 7 8 16 11 25" id="aV"/><path d="M106-169C34-169 62-67 57 0H25v-261h32l-1 103c12-21 28-36 61-36 89 0 53 116 60 194h-32v-121c2-32-8-49-39-48" id="aW"/><path d="M206 0h-36l-40-164L89 0H53L-1-190h32L70-26l43-164h34l41 164 42-164h31" id="aX"/><g id="B"><use transform="matrix(0.06172839506172839,0,0,0.06172839506172839,0,0)" xlink:href="#aI"/><use transform="matrix(0.06172839506172839,0,0,0.06172839506172839,7.345679012345679,0)" xlink:href="#aV"/><use transform="matrix(0.06172839506172839,0,0,0.06172839506172839,22.160493827160494,0)" xlink:href="#aW"/><use transform="matrix(0.06172839506172839,0,0,0.06172839506172839,34.50617283950617,0)" xlink:href="#ai"/><use transform="matrix(0.06172839506172839,0,0,0.06172839506172839,46.85185185185185,0)" xlink:href="#aX"/><use transform="matrix(0.06172839506172839,0,0,0.06172839506172839,62.8395061728395,0)" xlink:href="#ah"/><use transform="matrix(0.06172839506172839,0,0,0.06172839506172839,69.01234567901234,0)" xlink:href="#ai"/><use transform="matrix(0.06172839506172839,0,0,0.06172839506172839,81.35802469135803,0)" xlink:href="#aj"/></g><g id="C"><use transform="matrix(0.06172839506172839,0,0,0.06172839506172839,0,0)" xlink:href="#ak"/><use transform="matrix(0.06172839506172839,0,0,0.06172839506172839,12.345679012345679,0)" xlink:href="#aE"/></g><g id="D"><use transform="matrix(0.06172839506172839,0,0,0.06172839506172839,0,0)" xlink:href="#aA"/><path d="M-1.1 1.54h17.03v1.63H-1.1z"/></g><g id="E"><use transform="matrix(0.06172839506172839,0,0,0.06172839506172839,0,0)" xlink:href="#aq"/><use transform="matrix(0.06172839506172839,0,0,0.06172839506172839,14.814814814814813,0)" xlink:href="#ar"/><use transform="matrix(0.06172839506172839,0,0,0.06172839506172839,27.160493827160494,0)" xlink:href="#as"/><use transform="matrix(0.06172839506172839,0,0,0.06172839506172839,39.50617283950617,0)" xlink:href="#at"/><use transform="matrix(0.06172839506172839,0,0,0.06172839506172839,50.61728395061728,0)" xlink:href="#aJ"/></g><g id="F"><use transform="matrix(0.06172839506172839,0,0,0.06172839506172839,0,0)" xlink:href="#aV"/><use transform="matrix(0.06172839506172839,0,0,0.06172839506172839,14.814814814814813,0)" xlink:href="#aW"/><use transform="matrix(0.06172839506172839,0,0,0.06172839506172839,27.160493827160494,0)" xlink:href="#ai"/><use transform="matrix(0.06172839506172839,0,0,0.06172839506172839,39.50617283950617,0)" xlink:href="#aX"/><use transform="matrix(0.06172839506172839,0,0,0.06172839506172839,55.49382716049382,0)" xlink:href="#ah"/><use transform="matrix(0.06172839506172839,0,0,0.06172839506172839,61.666666666666664,0)" xlink:href="#ai"/><use transform="matrix(0.06172839506172839,0,0,0.06172839506172839,74.01234567901234,0)" xlink:href="#aj"/></g><g id="G"><use transform="matrix(0.06172839506172839,0,0,0.06172839506172839,0,0)" xlink:href="#ak"/><use transform="matrix(0.06172839506172839,0,0,0.06172839506172839,12.345679012345679,0)" xlink:href="#aE"/></g><path d="M76-208v77h127v40H76V0H24v-248h183v40H76" id="aY"/><path d="M115-3C79 11 28 4 28-45v-112H4v-33h27l15-45h31v45h36v33H77v99c-1 23 16 31 38 25v30" id="aZ"/><path d="M190-63c-7 42-38 67-86 67-59 0-84-38-90-98-12-110 154-137 174-36l-49 2c-2-19-15-32-35-32-30 0-35 28-38 64-6 74 65 87 74 30" id="ba"/><path d="M114-157C55-157 80-60 75 0H25v-261h50l-1 109c12-26 28-41 61-42 86-1 58 113 63 194h-50c-7-57 23-157-34-157" id="bb"/><g id="H"><use transform="matrix(0.06172839506172839,0,0,0.06172839506172839,0,0)" xlink:href="#aY"/><use transform="matrix(0.06172839506172839,0,0,0.06172839506172839,13.518518518518517,0)" xlink:href="#aH"/><use transform="matrix(0.06172839506172839,0,0,0.06172839506172839,25.864197530864196,0)" xlink:href="#aZ"/><use transform="matrix(0.06172839506172839,0,0,0.06172839506172839,33.20987654320987,0)" xlink:href="#ba"/><use transform="matrix(0.06172839506172839,0,0,0.06172839506172839,45.55555555555555,0)" xlink:href="#bb"/></g><use transform="matrix(0.06172839506172839,0,0,0.06172839506172839,0,0)" xlink:href="#ap" id="I"/><g id="J"><use transform="matrix(0.06172839506172839,0,0,0.06172839506172839,0,0)" xlink:href="#aI"/><use transform="matrix(0.06172839506172839,0,0,0.06172839506172839,7.345679012345679,0)" xlink:href="#ah"/><use transform="matrix(0.06172839506172839,0,0,0.06172839506172839,13.518518518518519,0)" xlink:href="#ai"/><use transform="matrix(0.06172839506172839,0,0,0.06172839506172839,25.864197530864196,0)" xlink:href="#aj"/></g><g id="K"><use transform="matrix(0.06172839506172839,0,0,0.06172839506172839,0,0)" xlink:href="#ak"/><use transform="matrix(0.06172839506172839,0,0,0.06172839506172839,12.345679012345679,0)" xlink:href="#al"/><use transform="matrix(0.06172839506172839,0,0,0.06172839506172839,28.333333333333332,0)" xlink:href="#am"/><use transform="matrix(0.06172839506172839,0,0,0.06172839506172839,40.67901234567901,0)" xlink:href="#an"/><use transform="matrix(0.06172839506172839,0,0,0.06172839506172839,54.19753086419753,0)" xlink:href="#ao"/></g><g id="L"><use transform="matrix(0.06172839506172839,0,0,0.06172839506172839,0,0)" xlink:href="#ap"/><use transform="matrix(0.06172839506172839,0,0,0.06172839506172839,14.814814814814813,0)" xlink:href="#aJ"/><path d="M-1.1 1.54h24.37v1.63H-1.1z"/></g><path fill="#0c7cba" d="M241-173c-1 82-78 91-166 86L58 0H6l48-248c87 0 188-12 187 75zm-53 2c0-43-48-36-90-36l-15 80c50 0 105 7 105-44" id="bc"/><path fill="#0c7cba" d="M73-158H35l13-90h47" id="bd"/><path fill="#0c7cba" d="M144-137c-1-29-70-35-71-2 16 41 103 10 103 80C176 9 79 16 32-9 18-17 9-31 4-48l44-6c3 32 80 36 82 1-15-42-103-11-103-82 0-77 157-79 161-8" id="be"/><g id="M"><use transform="matrix(0.06172839506172839,0,0,0.06172839506172839,0,0)" xlink:href="#bc"/><use transform="matrix(0.06172839506172839,0,0,0.06172839506172839,14.814814814814813,0)" xlink:href="#bd"/><use transform="matrix(0.06172839506172839,0,0,0.06172839506172839,20.061728395061728,0)" xlink:href="#be"/></g><path fill="#0c7cba" d="M156-122c2-23-7-37-28-37-47 0-58 44-58 89 0 24 12 40 36 40 43 0 47-49 50-92zM-8 75l50-265h48c0 10-3 24-3 30 22-50 127-45 121 29-6 73-21 135-92 135-29 0-46-14-55-35L41 75H-8" id="bf"/><path fill="#0c7cba" d="M124-194c51 0 84 22 84 74C207-44 167 4 94 4 43 4 11-23 11-74c0-74 41-120 113-120zM99-30c46 0 58-42 58-86 0-27-11-44-37-44-44 0-55 40-57 84-1 27 10 45 36 46" id="bg"/><path fill="#0c7cba" d="M50-224l7-37h49l-7 37H50zm1 246C45 64 7 85-39 71l7-33c23 5 33-8 36-27l39-201h49" id="bh"/><path fill="#0c7cba" d="M67-101c-8 29-7 73 27 71 23-2 32-16 39-37l48 9C170-19 141 4 91 4 36 4 7-28 12-86c6-75 61-124 140-103 26 7 40 29 43 59l-50 4c-1-20-9-34-29-34-35 0-41 29-49 59" id="bi"/><path fill="#0c7cba" d="M72-63c-8 23 5 39 32 30L98-1C54 14 12-6 23-64l18-93H15l7-33h28l24-45h31l-8 45h35l-6 33H90" id="bj"/><path fill="#0c7cba" d="M50-224l7-37h49l-7 37H50zM6 0l37-190h49L55 0H6" id="bk"/><path fill="#0c7cba" d="M151-194c95 0 34 128 28 194h-49l25-134c0-29-45-25-59-9C67-111 69-48 56 0H6l36-190h47l-4 32c15-20 33-36 66-36" id="bl"/><g id="N"><use transform="matrix(0.06172839506172839,0,0,0.06172839506172839,0,0)" xlink:href="#bf"/><use transform="matrix(0.06172839506172839,0,0,0.06172839506172839,13.518518518518517,0)" xlink:href="#aQ"/><use transform="matrix(0.06172839506172839,0,0,0.06172839506172839,22.160493827160494,0)" xlink:href="#bg"/><use transform="matrix(0.06172839506172839,0,0,0.06172839506172839,35.67901234567901,0)" xlink:href="#bh"/><use transform="matrix(0.06172839506172839,0,0,0.06172839506172839,41.851851851851855,0)" xlink:href="#aR"/><use transform="matrix(0.06172839506172839,0,0,0.06172839506172839,54.19753086419753,0)" xlink:href="#bi"/><use transform="matrix(0.06172839506172839,0,0,0.06172839506172839,66.54320987654322,0)" xlink:href="#bj"/><use transform="matrix(0.06172839506172839,0,0,0.06172839506172839,73.8888888888889,0)" xlink:href="#bk"/><use transform="matrix(0.06172839506172839,0,0,0.06172839506172839,80.06172839506173,0)" xlink:href="#bg"/><use transform="matrix(0.06172839506172839,0,0,0.06172839506172839,93.58024691358025,0)" xlink:href="#bl"/></g><path fill="#0c7cba" d="M183 0l-10-63H79L44 0H-7l138-248h61L234 0h-51zm-14-102l-15-108c-16 38-36 73-55 108h70" id="bm"/><g id="O"><use transform="matrix(0.06172839506172839,0,0,0.06172839506172839,0,0)" xlink:href="#bm"/><use transform="matrix(0.06172839506172839,0,0,0.06172839506172839,15.987654320987653,0)" xlink:href="#bd"/><use transform="matrix(0.06172839506172839,0,0,0.06172839506172839,21.234567901234566,0)" xlink:href="#be"/></g><path fill="#0c7cba" d="M240-76C239 26 104-5 6 0l48-248c79 4 193-21 193 58 0 38-25 53-57 60 29 5 49 21 50 54zm-45-106c0-40-58-24-96-27l-12 61c45-3 108 12 108-34zm-7 105c0-44-65-31-109-33L66-38c51-3 122 14 122-39" id="bn"/><path fill="#0c7cba" d="M128 0L95-87 70-74 55 0H6l51-261h49L77-111l82-79h56l-83 74L180 0h-52" id="bo"/><g id="P"><use transform="matrix(0.06172839506172839,0,0,0.06172839506172839,0,0)" xlink:href="#bn"/><use transform="matrix(0.06172839506172839,0,0,0.06172839506172839,15.987654320987653,0)" xlink:href="#aP"/><use transform="matrix(0.06172839506172839,0,0,0.06172839506172839,28.333333333333332,0)" xlink:href="#bl"/><use transform="matrix(0.06172839506172839,0,0,0.06172839506172839,41.85185185185185,0)" xlink:href="#bo"/><use transform="matrix(0.06172839506172839,0,0,0.06172839506172839,54.197530864197525,0)" xlink:href="#bd"/><use transform="matrix(0.06172839506172839,0,0,0.06172839506172839,59.444444444444436,0)" xlink:href="#be"/></g><g id="Q"><use transform="matrix(0.06172839506172839,0,0,0.06172839506172839,0,0)" xlink:href="#aB"/><use transform="matrix(0.06172839506172839,0,0,0.06172839506172839,15.987654320987653,0)" xlink:href="#ai"/><use transform="matrix(0.06172839506172839,0,0,0.06172839506172839,28.333333333333332,0)" xlink:href="#aj"/><use transform="matrix(0.06172839506172839,0,0,0.06172839506172839,40.67901234567901,0)" xlink:href="#as"/><use transform="matrix(0.06172839506172839,0,0,0.06172839506172839,53.02469135802469,0)" xlink:href="#ay"/><use transform="matrix(0.06172839506172839,0,0,0.06172839506172839,59.19753086419753,0)" xlink:href="#av"/><use transform="matrix(0.06172839506172839,0,0,0.06172839506172839,71.54320987654322,0)" xlink:href="#au"/><use transform="matrix(0.06172839506172839,0,0,0.06172839506172839,78.8888888888889,0)" xlink:href="#aC"/><use transform="matrix(0.06172839506172839,0,0,0.06172839506172839,96.17283950617285,0)" xlink:href="#aD"/><use transform="matrix(0.06172839506172839,0,0,0.06172839506172839,101.91358024691358,0)" xlink:href="#aD"/><use transform="matrix(0.06172839506172839,0,0,0.06172839506172839,108.08641975308642,0)" xlink:href="#av"/><use transform="matrix(0.06172839506172839,0,0,0.06172839506172839,120.4320987654321,0)" xlink:href="#au"/></g><g id="R"><use transform="matrix(0.06172839506172839,0,0,0.06172839506172839,0,0)" xlink:href="#ak"/><use transform="matrix(0.06172839506172839,0,0,0.06172839506172839,12.345679012345679,0)" xlink:href="#aE"/></g><g id="S"><use transform="matrix(0.06172839506172839,0,0,0.06172839506172839,0,0)" xlink:href="#aq"/><use transform="matrix(0.06172839506172839,0,0,0.06172839506172839,14.814814814814813,0)" xlink:href="#ar"/><use transform="matrix(0.06172839506172839,0,0,0.06172839506172839,27.160493827160494,0)" xlink:href="#as"/><use transform="matrix(0.06172839506172839,0,0,0.06172839506172839,39.50617283950617,0)" xlink:href="#at"/></g><g id="T"><use transform="matrix(0.06172839506172839,0,0,0.06172839506172839,0,0)" xlink:href="#aF"/><use transform="matrix(0.06172839506172839,0,0,0.06172839506172839,14.814814814814813,0)" xlink:href="#aG"/><use transform="matrix(0.06172839506172839,0,0,0.06172839506172839,27.160493827160494,0)" xlink:href="#aH"/></g><use transform="matrix(0.06172839506172839,0,0,0.06172839506172839,0,0)" xlink:href="#aA" id="U"/><g id="V"><use transform="matrix(0.06172839506172839,0,0,0.06172839506172839,0,0)" xlink:href="#aI"/><use transform="matrix(0.06172839506172839,0,0,0.06172839506172839,7.345679012345679,0)" xlink:href="#aB"/><use transform="matrix(0.06172839506172839,0,0,0.06172839506172839,23.333333333333332,0)" xlink:href="#ai"/><use transform="matrix(0.06172839506172839,0,0,0.06172839506172839,35.67901234567901,0)" xlink:href="#aj"/><use transform="matrix(0.06172839506172839,0,0,0.06172839506172839,48.02469135802469,0)" xlink:href="#as"/><use transform="matrix(0.06172839506172839,0,0,0.06172839506172839,60.37037037037037,0)" xlink:href="#ay"/><use transform="matrix(0.06172839506172839,0,0,0.06172839506172839,66.5432098765432,0)" xlink:href="#av"/><use transform="matrix(0.06172839506172839,0,0,0.06172839506172839,78.88888888888889,0)" xlink:href="#au"/><use transform="matrix(0.06172839506172839,0,0,0.06172839506172839,86.23456790123457,0)" xlink:href="#aC"/><use transform="matrix(0.06172839506172839,0,0,0.06172839506172839,103.51851851851852,0)" xlink:href="#aD"/><use transform="matrix(0.06172839506172839,0,0,0.06172839506172839,109.25925925925925,0)" xlink:href="#aD"/><use transform="matrix(0.06172839506172839,0,0,0.06172839506172839,115.43209876543209,0)" xlink:href="#av"/><use transform="matrix(0.06172839506172839,0,0,0.06172839506172839,127.77777777777777,0)" xlink:href="#au"/></g><use transform="matrix(0.06172839506172839,0,0,0.06172839506172839,0,0)" xlink:href="#ap" id="W"/><g id="X"><use transform="matrix(0.06172839506172839,0,0,0.06172839506172839,0,0)" xlink:href="#aI"/><use transform="matrix(0.06172839506172839,0,0,0.06172839506172839,7.345679012345679,0)" xlink:href="#ah"/><use transform="matrix(0.06172839506172839,0,0,0.06172839506172839,13.518518518518519,0)" xlink:href="#ai"/><use transform="matrix(0.06172839506172839,0,0,0.06172839506172839,25.864197530864196,0)" xlink:href="#aj"/></g><g id="Y"><use transform="matrix(0.06172839506172839,0,0,0.06172839506172839,0,0)" xlink:href="#ak"/><use transform="matrix(0.06172839506172839,0,0,0.06172839506172839,12.345679012345679,0)" xlink:href="#al"/><use transform="matrix(0.06172839506172839,0,0,0.06172839506172839,28.333333333333332,0)" xlink:href="#am"/><use transform="matrix(0.06172839506172839,0,0,0.06172839506172839,40.67901234567901,0)" xlink:href="#an"/><use transform="matrix(0.06172839506172839,0,0,0.06172839506172839,54.19753086419753,0)" xlink:href="#ao"/></g><g id="Z"><use transform="matrix(0.06172839506172839,0,0,0.06172839506172839,0,0)" xlink:href="#ap"/><path d="M-1.1 1.54h17.03v1.63H-1.1z"/><use transform="matrix(0.06172839506172839,0,0,0.06172839506172839,14.814814814814813,0)" xlink:href="#aJ"/></g><g id="aa"><use transform="matrix(0.06172839506172839,0,0,0.06172839506172839,0,0)" xlink:href="#ah"/><use transform="matrix(0.06172839506172839,0,0,0.06172839506172839,6.172839506172839,0)" xlink:href="#ai"/><use transform="matrix(0.06172839506172839,0,0,0.06172839506172839,18.51851851851852,0)" xlink:href="#aj"/></g><g id="ab"><use transform="matrix(0.06172839506172839,0,0,0.06172839506172839,0,0)" xlink:href="#aA"/><path d="M-1.1 1.54h17.03v1.63H-1.1z"/></g><g id="ac"><use transform="matrix(0.06172839506172839,0,0,0.06172839506172839,0,0)" xlink:href="#aA"/><use transform="matrix(0.06172839506172839,0,0,0.06172839506172839,14.814814814814813,0)" xlink:href="#ar"/><use transform="matrix(0.06172839506172839,0,0,0.06172839506172839,27.160493827160494,0)" xlink:href="#aK"/><use transform="matrix(0.06172839506172839,0,0,0.06172839506172839,32.03703703703704,0)" xlink:href="#as"/><use transform="matrix(0.06172839506172839,0,0,0.06172839506172839,44.382716049382715,0)" xlink:href="#ay"/><use transform="matrix(0.06172839506172839,0,0,0.06172839506172839,50.55555555555556,0)" xlink:href="#ap"/><use transform="matrix(0.06172839506172839,0,0,0.06172839506172839,65.37037037037037,0)" xlink:href="#aL"/><use transform="matrix(0.06172839506172839,0,0,0.06172839506172839,77.71604938271605,0)" xlink:href="#au"/><use transform="matrix(0.06172839506172839,0,0,0.06172839506172839,85.06172839506173,0)" xlink:href="#av"/><use transform="matrix(0.06172839506172839,0,0,0.06172839506172839,97.40740740740742,0)" xlink:href="#av"/></g><g id="ad"><use transform="matrix(0.06172839506172839,0,0,0.06172839506172839,0,0)" xlink:href="#ak"/><use transform="matrix(0.06172839506172839,0,0,0.06172839506172839,12.345679012345679,0)" xlink:href="#aM"/></g><g id="ae"><use transform="matrix(0.06172839506172839,0,0,0.06172839506172839,0,0)" xlink:href="#ak"/><use transform="matrix(0.06172839506172839,0,0,0.06172839506172839,12.345679012345679,0)" xlink:href="#aE"/></g><g id="af"><use transform="matrix(0.06172839506172839,0,0,0.06172839506172839,0,0)" xlink:href="#aV"/><use transform="matrix(0.06172839506172839,0,0,0.06172839506172839,14.814814814814813,0)" xlink:href="#aW"/><use transform="matrix(0.06172839506172839,0,0,0.06172839506172839,27.160493827160494,0)" xlink:href="#ai"/><use transform="matrix(0.06172839506172839,0,0,0.06172839506172839,39.50617283950617,0)" xlink:href="#aX"/><use transform="matrix(0.06172839506172839,0,0,0.06172839506172839,55.49382716049382,0)" xlink:href="#ah"/><use transform="matrix(0.06172839506172839,0,0,0.06172839506172839,61.666666666666664,0)" xlink:href="#ai"/><use transform="matrix(0.06172839506172839,0,0,0.06172839506172839,74.01234567901234,0)" xlink:href="#aj"/></g><g id="ag"><use transform="matrix(0.06172839506172839,0,0,0.06172839506172839,0,0)" xlink:href="#ak"/><use transform="matrix(0.06172839506172839,0,0,0.06172839506172839,12.345679012345679,0)" xlink:href="#aE"/></g></defs></g></svg>