<svg xmlns="http://www.w3.org/2000/svg" xmlns:xlink="http://www.w3.org/1999/xlink" xmlns:lucid="lucid" width="1942" height="1308.33"><g transform="translate(-1579 -236.88905164930543)" lucid:page-tab-id="0_0"><path d="M1500 0h2500v2000H1500z" fill="#fff"/><path d="M1600 246a6 6 0 0 1 6-6h348a6 6 0 0 1 6 6v204.1a6 6 0 0 1-6 6h-348a6 6 0 0 1-6-6z" stroke="#1071e5" stroke-width="2" fill="#edf5ff"/><use xlink:href="#a" transform="matrix(1,0,0,1,1612,252) translate(0 18.50043402777778)"/><use xlink:href="#b" transform="matrix(1,0,0,1,1612,252) translate(0 46.61458333333333)"/><use xlink:href="#c" transform="matrix(1,0,0,1,1612,252) translate(26.671006944444443 46.61458333333333)"/><use xlink:href="#d" transform="matrix(1,0,0,1,1612,252) translate(160.02604166666669 46.61458333333333)"/><use xlink:href="#b" transform="matrix(1,0,0,1,1612,252) translate(0 74.7265625)"/><use xlink:href="#e" transform="matrix(1,0,0,1,1612,252) translate(26.671006944444443 74.7265625)"/><use xlink:href="#f" transform="matrix(1,0,0,1,1612,252) translate(160.02604166666669 74.7265625)"/><use xlink:href="#b" transform="matrix(1,0,0,1,1612,252) translate(0 102.83854166666666)"/><use xlink:href="#g" transform="matrix(1,0,0,1,1612,252) translate(26.671006944444443 102.83854166666666)"/><use xlink:href="#h" transform="matrix(1,0,0,1,1612,252) translate(133.35503472222223 102.83854166666666)"/><use xlink:href="#i" transform="matrix(1,0,0,1,1612,252) translate(0 130.95052083333334)"/><use xlink:href="#j" transform="matrix(1,0,0,1,1612,252) translate(53.342013888888886 130.95052083333334)"/><use xlink:href="#k" transform="matrix(1,0,0,1,1612,252) translate(186.69704861111114 130.95052083333334)"/><use xlink:href="#b" transform="matrix(1,0,0,1,1612,252) translate(0 159.0625)"/><use xlink:href="#l" transform="matrix(1,0,0,1,1612,252) translate(26.671006944444443 159.0625)"/><use xlink:href="#m" transform="matrix(1,0,0,1,1612,252) translate(133.35503472222223 159.0625)"/><use xlink:href="#b" transform="matrix(1,0,0,1,1612,252) translate(0 187.17447916666666)"/><use xlink:href="#n" transform="matrix(1,0,0,1,1612,252) translate(26.671006944444443 187.17447916666666)"/><use xlink:href="#o" transform="matrix(1,0,0,1,1612,252) translate(133.35503472222223 187.17447916666666)"/><path d="M1600 546a6 6 0 0 1 6-6h348a6 6 0 0 1 6 6v228a6 6 0 0 1-6 6h-348a6 6 0 0 1-6-6z" stroke="#1071e5" stroke-width="2" fill="#edf5ff"/><use xlink:href="#p" transform="matrix(1,0,0,1,1612,552) translate(0 32.06293402777778)"/><use xlink:href="#q" transform="matrix(1,0,0,1,1612,552) translate(93.34852430555557 32.06293402777778)"/><use xlink:href="#r" transform="matrix(1,0,0,1,1612,552) translate(226.70355902777783 32.06293402777778)"/><use xlink:href="#b" transform="matrix(1,0,0,1,1612,552) translate(0 60.17708333333333)"/><use xlink:href="#e" transform="matrix(1,0,0,1,1612,552) translate(26.671006944444443 60.17708333333333)"/><use xlink:href="#f" transform="matrix(1,0,0,1,1612,552) translate(160.02604166666669 60.17708333333333)"/><use xlink:href="#i" transform="matrix(1,0,0,1,1612,552) translate(0 88.28906249999999)"/><use xlink:href="#s" transform="matrix(1,0,0,1,1612,552) translate(53.342013888888886 88.28906249999999)"/><use xlink:href="#t" transform="matrix(1,0,0,1,1612,552) translate(160.02604166666669 88.28906249999999)"/><use xlink:href="#i" transform="matrix(1,0,0,1,1612,552) translate(0 116.40104166666664)"/><use xlink:href="#u" transform="matrix(1,0,0,1,1612,552) translate(53.342013888888886 116.40104166666664)"/><use xlink:href="#k" transform="matrix(1,0,0,1,1612,552) translate(146.69053819444446 116.40104166666664)"/><use xlink:href="#i" transform="matrix(1,0,0,1,1612,552) translate(0 144.51302083333331)"/><use xlink:href="#v" transform="matrix(1,0,0,1,1612,552) translate(53.342013888888886 144.51302083333331)"/><use xlink:href="#w" transform="matrix(1,0,0,1,1612,552) translate(146.69053819444446 144.51302083333331)"/><use xlink:href="#x" transform="matrix(1,0,0,1,1612,552) translate(173.3615451388889 144.51302083333331)"/><use xlink:href="#b" transform="matrix(1,0,0,1,1612,552) translate(0 172.62499999999997)"/><use xlink:href="#y" transform="matrix(1,0,0,1,1612,552) translate(26.671006944444443 172.62499999999997)"/><use xlink:href="#t" transform="matrix(1,0,0,1,1612,552) translate(200.03255208333337 172.62499999999997)"/><use xlink:href="#b" transform="matrix(1,0,0,1,1612,552) translate(0 200.73697916666663)"/><use xlink:href="#z" transform="matrix(1,0,0,1,1612,552) translate(26.671006944444443 200.73697916666663)"/><use xlink:href="#A" transform="matrix(1,0,0,1,1612,552) translate(173.3615451388889 200.73697916666663)"/><path d="M1782 458.1v62.4M1778 458.1v62.4" stroke="#1071e5" stroke-width="2" fill="none"/><path d="M1782.97 458.14h-1.94v-1.03h1.94zM1778.97 458.14h-1.94v-1.03h1.94z" stroke="#1071e5" stroke-width=".05" fill="#1071e5"/><path d="M1780 535.76l-4.63-14.26h9.27z" stroke="#1071e5" stroke-width="2" fill="#1071e5"/><path d="M2160 246a6 6 0 0 1 6-6h348a6 6 0 0 1 6 6v204.1a6 6 0 0 1-6 6h-348a6 6 0 0 1-6-6z" stroke="#ba23f6" stroke-width="2" fill="#fbf0ff"/><use xlink:href="#B" transform="matrix(1,0,0,1,2172,252) translate(0 18.50043402777778)"/><use xlink:href="#C" transform="matrix(1,0,0,1,2172,252) translate(0 46.61458333333333)"/><use xlink:href="#D" transform="matrix(1,0,0,1,2172,252) translate(26.671006944444443 46.61458333333333)"/><use xlink:href="#E" transform="matrix(1,0,0,1,2172,252) translate(160.02604166666669 46.61458333333333)"/><use xlink:href="#C" transform="matrix(1,0,0,1,2172,252) translate(0 74.7265625)"/><use xlink:href="#F" transform="matrix(1,0,0,1,2172,252) translate(26.671006944444443 74.7265625)"/><use xlink:href="#G" transform="matrix(1,0,0,1,2172,252) translate(160.02604166666669 74.7265625)"/><use xlink:href="#C" transform="matrix(1,0,0,1,2172,252) translate(0 102.83854166666666)"/><use xlink:href="#H" transform="matrix(1,0,0,1,2172,252) translate(26.671006944444443 102.83854166666666)"/><use xlink:href="#I" transform="matrix(1,0,0,1,2172,252) translate(133.35503472222223 102.83854166666666)"/><use xlink:href="#J" transform="matrix(1,0,0,1,2172,252) translate(0 130.95052083333334)"/><use xlink:href="#K" transform="matrix(1,0,0,1,2172,252) translate(53.342013888888886 130.95052083333334)"/><use xlink:href="#L" transform="matrix(1,0,0,1,2172,252) translate(186.69704861111114 130.95052083333334)"/><use xlink:href="#C" transform="matrix(1,0,0,1,2172,252) translate(0 159.0625)"/><use xlink:href="#M" transform="matrix(1,0,0,1,2172,252) translate(26.671006944444443 159.0625)"/><use xlink:href="#N" transform="matrix(1,0,0,1,2172,252) translate(133.35503472222223 159.0625)"/><use xlink:href="#C" transform="matrix(1,0,0,1,2172,252) translate(0 187.17447916666666)"/><use xlink:href="#O" transform="matrix(1,0,0,1,2172,252) translate(26.671006944444443 187.17447916666666)"/><use xlink:href="#P" transform="matrix(1,0,0,1,2172,252) translate(133.35503472222223 187.17447916666666)"/><path d="M2160 543.9a6 6 0 0 1 6-6h348a6 6 0 0 1 6 6v228a6 6 0 0 1-6 6h-348a6 6 0 0 1-6-6z" stroke="#ba23f6" stroke-width="2" fill="#fbf0ff"/><use xlink:href="#Q" transform="matrix(1,0,0,1,2172,549.8890516493053) translate(0 32.06293402777778)"/><use xlink:href="#R" transform="matrix(1,0,0,1,2172,549.8890516493053) translate(93.34852430555557 32.06293402777778)"/><use xlink:href="#S" transform="matrix(1,0,0,1,2172,549.8890516493053) translate(226.70355902777783 32.06293402777778)"/><use xlink:href="#C" transform="matrix(1,0,0,1,2172,549.8890516493053) translate(0 60.17708333333333)"/><use xlink:href="#F" transform="matrix(1,0,0,1,2172,549.8890516493053) translate(26.671006944444443 60.17708333333333)"/><use xlink:href="#G" transform="matrix(1,0,0,1,2172,549.8890516493053) translate(160.02604166666669 60.17708333333333)"/><use xlink:href="#J" transform="matrix(1,0,0,1,2172,549.8890516493053) translate(0 88.28906249999999)"/><use xlink:href="#T" transform="matrix(1,0,0,1,2172,549.8890516493053) translate(53.342013888888886 88.28906249999999)"/><use xlink:href="#U" transform="matrix(1,0,0,1,2172,549.8890516493053) translate(160.02604166666669 88.28906249999999)"/><use xlink:href="#J" transform="matrix(1,0,0,1,2172,549.8890516493053) translate(0 116.40104166666664)"/><use xlink:href="#V" transform="matrix(1,0,0,1,2172,549.8890516493053) translate(53.342013888888886 116.40104166666664)"/><use xlink:href="#L" transform="matrix(1,0,0,1,2172,549.8890516493053) translate(146.69053819444446 116.40104166666664)"/><use xlink:href="#J" transform="matrix(1,0,0,1,2172,549.8890516493053) translate(0 144.51302083333331)"/><use xlink:href="#W" transform="matrix(1,0,0,1,2172,549.8890516493053) translate(53.342013888888886 144.51302083333331)"/><use xlink:href="#X" transform="matrix(1,0,0,1,2172,549.8890516493053) translate(146.69053819444446 144.51302083333331)"/><use xlink:href="#Y" transform="matrix(1,0,0,1,2172,549.8890516493053) translate(173.3615451388889 144.51302083333331)"/><use xlink:href="#C" transform="matrix(1,0,0,1,2172,549.8890516493053) translate(0 172.62499999999997)"/><use xlink:href="#Z" transform="matrix(1,0,0,1,2172,549.8890516493053) translate(26.671006944444443 172.62499999999997)"/><use xlink:href="#U" transform="matrix(1,0,0,1,2172,549.8890516493053) translate(200.03255208333337 172.62499999999997)"/><use xlink:href="#C" transform="matrix(1,0,0,1,2172,549.8890516493053) translate(0 200.73697916666663)"/><use xlink:href="#aa" transform="matrix(1,0,0,1,2172,549.8890516493053) translate(26.671006944444443 200.73697916666663)"/><use xlink:href="#ab" transform="matrix(1,0,0,1,2172,549.8890516493053) translate(173.3615451388889 200.73697916666663)"/><path d="M2342 458.1v60.3M2338 458.1v60.3" stroke="#ba23f6" stroke-width="2" fill="none"/><path d="M2342.97 458.14h-1.94v-1.03h1.94zM2338.97 458.14h-1.94v-1.03h1.94z" stroke="#ba23f6" stroke-width=".05" fill="#ba23f6"/><path d="M2340 533.65l-4.64-14.26h9.28z" stroke="#ba23f6" stroke-width="2" fill="#ba23f6"/><path d="M2720 243.9a6 6 0 0 1 6-6h348a6 6 0 0 1 6 6V448a6 6 0 0 1-6 6h-348a6 6 0 0 1-6-6z" stroke="#1071e5" stroke-width="2" fill="#edf5ff"/><g><use xlink:href="#a" transform="matrix(1,0,0,1,2732,249.88905164930543) translate(0 18.50043402777778)"/><use xlink:href="#b" transform="matrix(1,0,0,1,2732,249.88905164930543) translate(0 46.61458333333333)"/><use xlink:href="#c" transform="matrix(1,0,0,1,2732,249.88905164930543) translate(26.671006944444443 46.61458333333333)"/><use xlink:href="#d" transform="matrix(1,0,0,1,2732,249.88905164930543) translate(160.02604166666669 46.61458333333333)"/><use xlink:href="#b" transform="matrix(1,0,0,1,2732,249.88905164930543) translate(0 74.7265625)"/><use xlink:href="#e" transform="matrix(1,0,0,1,2732,249.88905164930543) translate(26.671006944444443 74.7265625)"/><use xlink:href="#f" transform="matrix(1,0,0,1,2732,249.88905164930543) translate(160.02604166666669 74.7265625)"/><use xlink:href="#b" transform="matrix(1,0,0,1,2732,249.88905164930543) translate(0 102.83854166666666)"/><use xlink:href="#g" transform="matrix(1,0,0,1,2732,249.88905164930543) translate(26.671006944444443 102.83854166666666)"/><use xlink:href="#h" transform="matrix(1,0,0,1,2732,249.88905164930543) translate(133.35503472222223 102.83854166666666)"/><use xlink:href="#i" transform="matrix(1,0,0,1,2732,249.88905164930543) translate(0 130.95052083333334)"/><use xlink:href="#j" transform="matrix(1,0,0,1,2732,249.88905164930543) translate(53.342013888888886 130.95052083333334)"/><use xlink:href="#k" transform="matrix(1,0,0,1,2732,249.88905164930543) translate(186.69704861111114 130.95052083333334)"/><use xlink:href="#b" transform="matrix(1,0,0,1,2732,249.88905164930543) translate(0 159.0625)"/><use xlink:href="#l" transform="matrix(1,0,0,1,2732,249.88905164930543) translate(26.671006944444443 159.0625)"/><use xlink:href="#m" transform="matrix(1,0,0,1,2732,249.88905164930543) translate(133.35503472222223 159.0625)"/><use xlink:href="#b" transform="matrix(1,0,0,1,2732,249.88905164930543) translate(0 187.17447916666666)"/><use xlink:href="#n" transform="matrix(1,0,0,1,2732,249.88905164930543) translate(26.671006944444443 187.17447916666666)"/><use xlink:href="#o" transform="matrix(1,0,0,1,2732,249.88905164930543) translate(133.35503472222223 187.17447916666666)"/></g><path d="M2720 543.9a6 6 0 0 1 6-6h348a6 6 0 0 1 6 6v228a6 6 0 0 1-6 6h-348a6 6 0 0 1-6-6z" stroke="#1071e5" stroke-width="2" fill="#edf5ff"/><g><use xlink:href="#p" transform="matrix(1,0,0,1,2732,549.8890516493054) translate(0 32.06293402777778)"/><use xlink:href="#q" transform="matrix(1,0,0,1,2732,549.8890516493054) translate(93.34852430555557 32.06293402777778)"/><use xlink:href="#r" transform="matrix(1,0,0,1,2732,549.8890516493054) translate(226.70355902777783 32.06293402777778)"/><use xlink:href="#b" transform="matrix(1,0,0,1,2732,549.8890516493054) translate(0 60.17708333333333)"/><use xlink:href="#e" transform="matrix(1,0,0,1,2732,549.8890516493054) translate(26.671006944444443 60.17708333333333)"/><use xlink:href="#f" transform="matrix(1,0,0,1,2732,549.8890516493054) translate(160.02604166666669 60.17708333333333)"/><use xlink:href="#i" transform="matrix(1,0,0,1,2732,549.8890516493054) translate(0 88.28906249999999)"/><use xlink:href="#s" transform="matrix(1,0,0,1,2732,549.8890516493054) translate(53.342013888888886 88.28906249999999)"/><use xlink:href="#t" transform="matrix(1,0,0,1,2732,549.8890516493054) translate(160.02604166666669 88.28906249999999)"/><use xlink:href="#i" transform="matrix(1,0,0,1,2732,549.8890516493054) translate(0 116.40104166666664)"/><use xlink:href="#u" transform="matrix(1,0,0,1,2732,549.8890516493054) translate(53.342013888888886 116.40104166666664)"/><use xlink:href="#k" transform="matrix(1,0,0,1,2732,549.8890516493054) translate(146.69053819444446 116.40104166666664)"/><use xlink:href="#i" transform="matrix(1,0,0,1,2732,549.8890516493054) translate(0 144.51302083333331)"/><use xlink:href="#v" transform="matrix(1,0,0,1,2732,549.8890516493054) translate(53.342013888888886 144.51302083333331)"/><use xlink:href="#w" transform="matrix(1,0,0,1,2732,549.8890516493054) translate(146.69053819444446 144.51302083333331)"/><use xlink:href="#x" transform="matrix(1,0,0,1,2732,549.8890516493054) translate(173.3615451388889 144.51302083333331)"/><use xlink:href="#b" transform="matrix(1,0,0,1,2732,549.8890516493054) translate(0 172.62499999999997)"/><use xlink:href="#y" transform="matrix(1,0,0,1,2732,549.8890516493054) translate(26.671006944444443 172.62499999999997)"/><use xlink:href="#t" transform="matrix(1,0,0,1,2732,549.8890516493054) translate(200.03255208333337 172.62499999999997)"/><use xlink:href="#b" transform="matrix(1,0,0,1,2732,549.8890516493054) translate(0 200.73697916666663)"/><use xlink:href="#z" transform="matrix(1,0,0,1,2732,549.8890516493054) translate(26.671006944444443 200.73697916666663)"/><use xlink:href="#A" transform="matrix(1,0,0,1,2732,549.8890516493054) translate(173.3615451388889 200.73697916666663)"/></g><path d="M3140 248.1a6 6 0 0 1 6-6h348a6 6 0 0 1 6 6v228a6 6 0 0 1-6 6h-348a6 6 0 0 1-6-6z" stroke="#ba23f6" stroke-width="2" fill="#fbf0ff"/><g><use xlink:href="#Q" transform="matrix(1,0,0,1,3152,254.11094835069457) translate(0 32.06293402777778)"/><use xlink:href="#R" transform="matrix(1,0,0,1,3152,254.11094835069457) translate(93.34852430555557 32.06293402777778)"/><use xlink:href="#S" transform="matrix(1,0,0,1,3152,254.11094835069457) translate(226.70355902777783 32.06293402777778)"/><use xlink:href="#C" transform="matrix(1,0,0,1,3152,254.11094835069457) translate(0 60.17708333333333)"/><use xlink:href="#F" transform="matrix(1,0,0,1,3152,254.11094835069457) translate(26.671006944444443 60.17708333333333)"/><use xlink:href="#G" transform="matrix(1,0,0,1,3152,254.11094835069457) translate(160.02604166666669 60.17708333333333)"/><use xlink:href="#J" transform="matrix(1,0,0,1,3152,254.11094835069457) translate(0 88.28906249999999)"/><use xlink:href="#T" transform="matrix(1,0,0,1,3152,254.11094835069457) translate(53.342013888888886 88.28906249999999)"/><use xlink:href="#U" transform="matrix(1,0,0,1,3152,254.11094835069457) translate(160.02604166666669 88.28906249999999)"/><use xlink:href="#J" transform="matrix(1,0,0,1,3152,254.11094835069457) translate(0 116.40104166666664)"/><use xlink:href="#V" transform="matrix(1,0,0,1,3152,254.11094835069457) translate(53.342013888888886 116.40104166666664)"/><use xlink:href="#L" transform="matrix(1,0,0,1,3152,254.11094835069457) translate(146.69053819444446 116.40104166666664)"/><use xlink:href="#J" transform="matrix(1,0,0,1,3152,254.11094835069457) translate(0 144.51302083333331)"/><use xlink:href="#W" transform="matrix(1,0,0,1,3152,254.11094835069457) translate(53.342013888888886 144.51302083333331)"/><use xlink:href="#X" transform="matrix(1,0,0,1,3152,254.11094835069457) translate(146.69053819444446 144.51302083333331)"/><use xlink:href="#Y" transform="matrix(1,0,0,1,3152,254.11094835069457) translate(173.3615451388889 144.51302083333331)"/><use xlink:href="#C" transform="matrix(1,0,0,1,3152,254.11094835069457) translate(0 172.62499999999997)"/><use xlink:href="#Z" transform="matrix(1,0,0,1,3152,254.11094835069457) translate(26.671006944444443 172.62499999999997)"/><use xlink:href="#U" transform="matrix(1,0,0,1,3152,254.11094835069457) translate(200.03255208333337 172.62499999999997)"/><use xlink:href="#C" transform="matrix(1,0,0,1,3152,254.11094835069457) translate(0 200.73697916666663)"/><use xlink:href="#aa" transform="matrix(1,0,0,1,3152,254.11094835069457) translate(26.671006944444443 200.73697916666663)"/><use xlink:href="#ab" transform="matrix(1,0,0,1,3152,254.11094835069457) translate(173.3615451388889 200.73697916666663)"/></g><path d="M2902 456v62.4M2898 456v62.4" stroke="#1071e5" stroke-width="2" fill="none"/><path d="M2902.97 456.03h-1.94V455h1.94zM2898.97 456.03h-1.94V455h1.94z" stroke="#1071e5" stroke-width=".05" fill="#1071e5"/><path d="M2900 533.65l-4.64-14.26h9.28z" stroke="#1071e5" stroke-width="2" fill="#1071e5"/><path d="M2020 1010.22a6 6 0 0 1 6-6h348a6 6 0 0 1 6 6v204.1a6 6 0 0 1-6 6h-348a6 6 0 0 1-6-6z" stroke="#ba23f6" stroke-width="2" fill="#fbf0ff"/><g><use xlink:href="#B" transform="matrix(1,0,0,1,2032,1016.221896701389) translate(0 18.50043402777778)"/><use xlink:href="#C" transform="matrix(1,0,0,1,2032,1016.221896701389) translate(0 46.61458333333333)"/><use xlink:href="#D" transform="matrix(1,0,0,1,2032,1016.221896701389) translate(26.671006944444443 46.61458333333333)"/><use xlink:href="#E" transform="matrix(1,0,0,1,2032,1016.221896701389) translate(160.02604166666669 46.61458333333333)"/><use xlink:href="#C" transform="matrix(1,0,0,1,2032,1016.221896701389) translate(0 74.7265625)"/><use xlink:href="#F" transform="matrix(1,0,0,1,2032,1016.221896701389) translate(26.671006944444443 74.7265625)"/><use xlink:href="#G" transform="matrix(1,0,0,1,2032,1016.221896701389) translate(160.02604166666669 74.7265625)"/><use xlink:href="#C" transform="matrix(1,0,0,1,2032,1016.221896701389) translate(0 102.83854166666666)"/><use xlink:href="#H" transform="matrix(1,0,0,1,2032,1016.221896701389) translate(26.671006944444443 102.83854166666666)"/><use xlink:href="#I" transform="matrix(1,0,0,1,2032,1016.221896701389) translate(133.35503472222223 102.83854166666666)"/><use xlink:href="#J" transform="matrix(1,0,0,1,2032,1016.221896701389) translate(0 130.95052083333334)"/><use xlink:href="#K" transform="matrix(1,0,0,1,2032,1016.221896701389) translate(53.342013888888886 130.95052083333334)"/><use xlink:href="#L" transform="matrix(1,0,0,1,2032,1016.221896701389) translate(186.69704861111114 130.95052083333334)"/><use xlink:href="#C" transform="matrix(1,0,0,1,2032,1016.221896701389) translate(0 159.0625)"/><use xlink:href="#M" transform="matrix(1,0,0,1,2032,1016.221896701389) translate(26.671006944444443 159.0625)"/><use xlink:href="#N" transform="matrix(1,0,0,1,2032,1016.221896701389) translate(133.35503472222223 159.0625)"/><use xlink:href="#C" transform="matrix(1,0,0,1,2032,1016.221896701389) translate(0 187.17447916666666)"/><use xlink:href="#O" transform="matrix(1,0,0,1,2032,1016.221896701389) translate(26.671006944444443 187.17447916666666)"/><use xlink:href="#P" transform="matrix(1,0,0,1,2032,1016.221896701389) translate(133.35503472222223 187.17447916666666)"/></g><path d="M1600 1008.1a6 6 0 0 1 6-6h348a6 6 0 0 1 6 6v228a6 6 0 0 1-6 6h-348a6 6 0 0 1-6-6z" stroke="#1071e5" stroke-width="2" fill="#edf5ff"/><g><use xlink:href="#p" transform="matrix(1,0,0,1,1612,1014.1109483506947) translate(0 32.06293402777778)"/><use xlink:href="#q" transform="matrix(1,0,0,1,1612,1014.1109483506947) translate(93.34852430555557 32.06293402777778)"/><use xlink:href="#r" transform="matrix(1,0,0,1,1612,1014.1109483506947) translate(226.70355902777783 32.06293402777778)"/><use xlink:href="#b" transform="matrix(1,0,0,1,1612,1014.1109483506947) translate(0 60.17708333333333)"/><use xlink:href="#e" transform="matrix(1,0,0,1,1612,1014.1109483506947) translate(26.671006944444443 60.17708333333333)"/><use xlink:href="#f" transform="matrix(1,0,0,1,1612,1014.1109483506947) translate(160.02604166666669 60.17708333333333)"/><use xlink:href="#i" transform="matrix(1,0,0,1,1612,1014.1109483506947) translate(0 88.28906249999999)"/><use xlink:href="#s" transform="matrix(1,0,0,1,1612,1014.1109483506947) translate(53.342013888888886 88.28906249999999)"/><use xlink:href="#t" transform="matrix(1,0,0,1,1612,1014.1109483506947) translate(160.02604166666669 88.28906249999999)"/><use xlink:href="#i" transform="matrix(1,0,0,1,1612,1014.1109483506947) translate(0 116.40104166666664)"/><use xlink:href="#u" transform="matrix(1,0,0,1,1612,1014.1109483506947) translate(53.342013888888886 116.40104166666664)"/><use xlink:href="#k" transform="matrix(1,0,0,1,1612,1014.1109483506947) translate(146.69053819444446 116.40104166666664)"/><use xlink:href="#i" transform="matrix(1,0,0,1,1612,1014.1109483506947) translate(0 144.51302083333331)"/><use xlink:href="#v" transform="matrix(1,0,0,1,1612,1014.1109483506947) translate(53.342013888888886 144.51302083333331)"/><use xlink:href="#w" transform="matrix(1,0,0,1,1612,1014.1109483506947) translate(146.69053819444446 144.51302083333331)"/><use xlink:href="#x" transform="matrix(1,0,0,1,1612,1014.1109483506947) translate(173.3615451388889 144.51302083333331)"/><use xlink:href="#b" transform="matrix(1,0,0,1,1612,1014.1109483506947) translate(0 172.62499999999997)"/><use xlink:href="#y" transform="matrix(1,0,0,1,1612,1014.1109483506947) translate(26.671006944444443 172.62499999999997)"/><use xlink:href="#t" transform="matrix(1,0,0,1,1612,1014.1109483506947) translate(200.03255208333337 172.62499999999997)"/><use xlink:href="#b" transform="matrix(1,0,0,1,1612,1014.1109483506947) translate(0 200.73697916666663)"/><use xlink:href="#z" transform="matrix(1,0,0,1,1612,1014.1109483506947) translate(26.671006944444443 200.73697916666663)"/><use xlink:href="#A" transform="matrix(1,0,0,1,1612,1014.1109483506947) translate(173.3615451388889 200.73697916666663)"/></g><path d="M2020 1308.1a6 6 0 0 1 6-6h348a6 6 0 0 1 6 6v228a6 6 0 0 1-6 6h-348a6 6 0 0 1-6-6z" stroke="#ba23f6" stroke-width="2" fill="#fbf0ff"/><g><use xlink:href="#Q" transform="matrix(1,0,0,1,2032,1314.1109483506948) translate(0 32.06293402777778)"/><use xlink:href="#R" transform="matrix(1,0,0,1,2032,1314.1109483506948) translate(93.34852430555557 32.06293402777778)"/><use xlink:href="#S" transform="matrix(1,0,0,1,2032,1314.1109483506948) translate(226.70355902777783 32.06293402777778)"/><use xlink:href="#C" transform="matrix(1,0,0,1,2032,1314.1109483506948) translate(0 60.17708333333333)"/><use xlink:href="#F" transform="matrix(1,0,0,1,2032,1314.1109483506948) translate(26.671006944444443 60.17708333333333)"/><use xlink:href="#G" transform="matrix(1,0,0,1,2032,1314.1109483506948) translate(160.02604166666669 60.17708333333333)"/><use xlink:href="#J" transform="matrix(1,0,0,1,2032,1314.1109483506948) translate(0 88.28906249999999)"/><use xlink:href="#T" transform="matrix(1,0,0,1,2032,1314.1109483506948) translate(53.342013888888886 88.28906249999999)"/><use xlink:href="#U" transform="matrix(1,0,0,1,2032,1314.1109483506948) translate(160.02604166666669 88.28906249999999)"/><use xlink:href="#J" transform="matrix(1,0,0,1,2032,1314.1109483506948) translate(0 116.40104166666664)"/><use xlink:href="#V" transform="matrix(1,0,0,1,2032,1314.1109483506948) translate(53.342013888888886 116.40104166666664)"/><use xlink:href="#L" transform="matrix(1,0,0,1,2032,1314.1109483506948) translate(146.69053819444446 116.40104166666664)"/><use xlink:href="#J" transform="matrix(1,0,0,1,2032,1314.1109483506948) translate(0 144.51302083333331)"/><use xlink:href="#W" transform="matrix(1,0,0,1,2032,1314.1109483506948) translate(53.342013888888886 144.51302083333331)"/><use xlink:href="#X" transform="matrix(1,0,0,1,2032,1314.1109483506948) translate(146.69053819444446 144.51302083333331)"/><use xlink:href="#Y" transform="matrix(1,0,0,1,2032,1314.1109483506948) translate(173.3615451388889 144.51302083333331)"/><use xlink:href="#C" transform="matrix(1,0,0,1,2032,1314.1109483506948) translate(0 172.62499999999997)"/><use xlink:href="#Z" transform="matrix(1,0,0,1,2032,1314.1109483506948) translate(26.671006944444443 172.62499999999997)"/><use xlink:href="#U" transform="matrix(1,0,0,1,2032,1314.1109483506948) translate(200.03255208333337 172.62499999999997)"/><use xlink:href="#C" transform="matrix(1,0,0,1,2032,1314.1109483506948) translate(0 200.73697916666663)"/><use xlink:href="#aa" transform="matrix(1,0,0,1,2032,1314.1109483506948) translate(26.671006944444443 200.73697916666663)"/><use xlink:href="#ab" transform="matrix(1,0,0,1,2032,1314.1109483506948) translate(173.3615451388889 200.73697916666663)"/></g><path d="M2202 1222.33v60.28M2198 1222.33v60.28" stroke="#ba23f6" stroke-width="2" fill="none"/><path d="M2202.97 1222.36h-1.94v-1.03h1.94zM2198.97 1222.36h-1.94v-1.03h1.94z" stroke="#ba23f6" stroke-width=".05" fill="#ba23f6"/><path d="M2200 1297.88l-4.64-14.27h9.28z" stroke="#ba23f6" stroke-width="2" fill="#ba23f6"/><path d="M2720 906a6 6 0 0 1 6-6h348a6 6 0 0 1 6 6v228a6 6 0 0 1-6 6h-348a6 6 0 0 1-6-6z" stroke="#1071e5" stroke-width="2" fill="#edf5ff"/><g><use xlink:href="#p" transform="matrix(1,0,0,1,2732,912) translate(0 32.06293402777778)"/><use xlink:href="#q" transform="matrix(1,0,0,1,2732,912) translate(93.34852430555557 32.06293402777778)"/><use xlink:href="#r" transform="matrix(1,0,0,1,2732,912) translate(226.70355902777783 32.06293402777778)"/><use xlink:href="#b" transform="matrix(1,0,0,1,2732,912) translate(0 60.17708333333333)"/><use xlink:href="#e" transform="matrix(1,0,0,1,2732,912) translate(26.671006944444443 60.17708333333333)"/><use xlink:href="#f" transform="matrix(1,0,0,1,2732,912) translate(160.02604166666669 60.17708333333333)"/><use xlink:href="#i" transform="matrix(1,0,0,1,2732,912) translate(0 88.28906249999999)"/><use xlink:href="#s" transform="matrix(1,0,0,1,2732,912) translate(53.342013888888886 88.28906249999999)"/><use xlink:href="#t" transform="matrix(1,0,0,1,2732,912) translate(160.02604166666669 88.28906249999999)"/><use xlink:href="#i" transform="matrix(1,0,0,1,2732,912) translate(0 116.40104166666664)"/><use xlink:href="#u" transform="matrix(1,0,0,1,2732,912) translate(53.342013888888886 116.40104166666664)"/><use xlink:href="#k" transform="matrix(1,0,0,1,2732,912) translate(146.69053819444446 116.40104166666664)"/><use xlink:href="#i" transform="matrix(1,0,0,1,2732,912) translate(0 144.51302083333331)"/><use xlink:href="#v" transform="matrix(1,0,0,1,2732,912) translate(53.342013888888886 144.51302083333331)"/><use xlink:href="#w" transform="matrix(1,0,0,1,2732,912) translate(146.69053819444446 144.51302083333331)"/><use xlink:href="#x" transform="matrix(1,0,0,1,2732,912) translate(173.3615451388889 144.51302083333331)"/><use xlink:href="#b" transform="matrix(1,0,0,1,2732,912) translate(0 172.62499999999997)"/><use xlink:href="#y" transform="matrix(1,0,0,1,2732,912) translate(26.671006944444443 172.62499999999997)"/><use xlink:href="#t" transform="matrix(1,0,0,1,2732,912) translate(200.03255208333337 172.62499999999997)"/><use xlink:href="#b" transform="matrix(1,0,0,1,2732,912) translate(0 200.73697916666663)"/><use xlink:href="#z" transform="matrix(1,0,0,1,2732,912) translate(26.671006944444443 200.73697916666663)"/><use xlink:href="#A" transform="matrix(1,0,0,1,2732,912) translate(173.3615451388889 200.73697916666663)"/></g><path d="M3140 906a6 6 0 0 1 6-6h348a6 6 0 0 1 6 6v228a6 6 0 0 1-6 6h-348a6 6 0 0 1-6-6z" stroke="#ba23f6" stroke-width="2" fill="#fbf0ff"/><g><use xlink:href="#Q" transform="matrix(1,0,0,1,3152,912) translate(0 32.06293402777778)"/><use xlink:href="#R" transform="matrix(1,0,0,1,3152,912) translate(93.34852430555557 32.06293402777778)"/><use xlink:href="#S" transform="matrix(1,0,0,1,3152,912) translate(226.70355902777783 32.06293402777778)"/><use xlink:href="#C" transform="matrix(1,0,0,1,3152,912) translate(0 60.17708333333333)"/><use xlink:href="#F" transform="matrix(1,0,0,1,3152,912) translate(26.671006944444443 60.17708333333333)"/><use xlink:href="#G" transform="matrix(1,0,0,1,3152,912) translate(160.02604166666669 60.17708333333333)"/><use xlink:href="#J" transform="matrix(1,0,0,1,3152,912) translate(0 88.28906249999999)"/><use xlink:href="#T" transform="matrix(1,0,0,1,3152,912) translate(53.342013888888886 88.28906249999999)"/><use xlink:href="#U" transform="matrix(1,0,0,1,3152,912) translate(160.02604166666669 88.28906249999999)"/><use xlink:href="#J" transform="matrix(1,0,0,1,3152,912) translate(0 116.40104166666664)"/><use xlink:href="#V" transform="matrix(1,0,0,1,3152,912) translate(53.342013888888886 116.40104166666664)"/><use xlink:href="#L" transform="matrix(1,0,0,1,3152,912) translate(146.69053819444446 116.40104166666664)"/><use xlink:href="#J" transform="matrix(1,0,0,1,3152,912) translate(0 144.51302083333331)"/><use xlink:href="#W" transform="matrix(1,0,0,1,3152,912) translate(53.342013888888886 144.51302083333331)"/><use xlink:href="#X" transform="matrix(1,0,0,1,3152,912) translate(146.69053819444446 144.51302083333331)"/><use xlink:href="#Y" transform="matrix(1,0,0,1,3152,912) translate(173.3615451388889 144.51302083333331)"/><use xlink:href="#C" transform="matrix(1,0,0,1,3152,912) translate(0 172.62499999999997)"/><use xlink:href="#Z" transform="matrix(1,0,0,1,3152,912) translate(26.671006944444443 172.62499999999997)"/><use xlink:href="#U" transform="matrix(1,0,0,1,3152,912) translate(200.03255208333337 172.62499999999997)"/><use xlink:href="#C" transform="matrix(1,0,0,1,3152,912) translate(0 200.73697916666663)"/><use xlink:href="#aa" transform="matrix(1,0,0,1,3152,912) translate(26.671006944444443 200.73697916666663)"/><use xlink:href="#ab" transform="matrix(1,0,0,1,3152,912) translate(173.3615451388889 200.73697916666663)"/></g><path d="M2620 1306a6 6 0 0 1 6-6h348a6 6 0 0 1 6 6v228a6 6 0 0 1-6 6h-348a6 6 0 0 1-6-6z" stroke="#1071e5" stroke-width="2" fill="#edf5ff"/><g><use xlink:href="#p" transform="matrix(1,0,0,1,2632,1312.0000000000002) translate(0 32.06293402777778)"/><use xlink:href="#q" transform="matrix(1,0,0,1,2632,1312.0000000000002) translate(93.34852430555557 32.06293402777778)"/><use xlink:href="#r" transform="matrix(1,0,0,1,2632,1312.0000000000002) translate(226.70355902777783 32.06293402777778)"/><use xlink:href="#b" transform="matrix(1,0,0,1,2632,1312.0000000000002) translate(0 60.17708333333333)"/><use xlink:href="#e" transform="matrix(1,0,0,1,2632,1312.0000000000002) translate(26.671006944444443 60.17708333333333)"/><use xlink:href="#f" transform="matrix(1,0,0,1,2632,1312.0000000000002) translate(160.02604166666669 60.17708333333333)"/><use xlink:href="#i" transform="matrix(1,0,0,1,2632,1312.0000000000002) translate(0 88.28906249999999)"/><use xlink:href="#s" transform="matrix(1,0,0,1,2632,1312.0000000000002) translate(53.342013888888886 88.28906249999999)"/><use xlink:href="#t" transform="matrix(1,0,0,1,2632,1312.0000000000002) translate(160.02604166666669 88.28906249999999)"/><use xlink:href="#i" transform="matrix(1,0,0,1,2632,1312.0000000000002) translate(0 116.40104166666664)"/><use xlink:href="#u" transform="matrix(1,0,0,1,2632,1312.0000000000002) translate(53.342013888888886 116.40104166666664)"/><use xlink:href="#k" transform="matrix(1,0,0,1,2632,1312.0000000000002) translate(146.69053819444446 116.40104166666664)"/><use xlink:href="#i" transform="matrix(1,0,0,1,2632,1312.0000000000002) translate(0 144.51302083333331)"/><use xlink:href="#v" transform="matrix(1,0,0,1,2632,1312.0000000000002) translate(53.342013888888886 144.51302083333331)"/><use xlink:href="#w" transform="matrix(1,0,0,1,2632,1312.0000000000002) translate(146.69053819444446 144.51302083333331)"/><use xlink:href="#x" transform="matrix(1,0,0,1,2632,1312.0000000000002) translate(173.3615451388889 144.51302083333331)"/><use xlink:href="#b" transform="matrix(1,0,0,1,2632,1312.0000000000002) translate(0 172.62499999999997)"/><use xlink:href="#y" transform="matrix(1,0,0,1,2632,1312.0000000000002) translate(26.671006944444443 172.62499999999997)"/><use xlink:href="#t" transform="matrix(1,0,0,1,2632,1312.0000000000002) translate(200.03255208333337 172.62499999999997)"/><use xlink:href="#b" transform="matrix(1,0,0,1,2632,1312.0000000000002) translate(0 200.73697916666663)"/><use xlink:href="#z" transform="matrix(1,0,0,1,2632,1312.0000000000002) translate(26.671006944444443 200.73697916666663)"/><use xlink:href="#A" transform="matrix(1,0,0,1,2632,1312.0000000000002) translate(173.3615451388889 200.73697916666663)"/></g><path d="M3140 1306a6 6 0 0 1 6-6h348a6 6 0 0 1 6 6v228a6 6 0 0 1-6 6h-348a6 6 0 0 1-6-6z" stroke="#ba23f6" stroke-width="2" fill="#fbf0ff"/><g><use xlink:href="#Q" transform="matrix(1,0,0,1,3152,1312.0000000000002) translate(0 32.06293402777778)"/><use xlink:href="#R" transform="matrix(1,0,0,1,3152,1312.0000000000002) translate(93.34852430555557 32.06293402777778)"/><use xlink:href="#S" transform="matrix(1,0,0,1,3152,1312.0000000000002) translate(226.70355902777783 32.06293402777778)"/><use xlink:href="#C" transform="matrix(1,0,0,1,3152,1312.0000000000002) translate(0 60.17708333333333)"/><use xlink:href="#F" transform="matrix(1,0,0,1,3152,1312.0000000000002) translate(26.671006944444443 60.17708333333333)"/><use xlink:href="#G" transform="matrix(1,0,0,1,3152,1312.0000000000002) translate(160.02604166666669 60.17708333333333)"/><use xlink:href="#J" transform="matrix(1,0,0,1,3152,1312.0000000000002) translate(0 88.28906249999999)"/><use xlink:href="#T" transform="matrix(1,0,0,1,3152,1312.0000000000002) translate(53.342013888888886 88.28906249999999)"/><use xlink:href="#U" transform="matrix(1,0,0,1,3152,1312.0000000000002) translate(160.02604166666669 88.28906249999999)"/><use xlink:href="#J" transform="matrix(1,0,0,1,3152,1312.0000000000002) translate(0 116.40104166666664)"/><use xlink:href="#V" transform="matrix(1,0,0,1,3152,1312.0000000000002) translate(53.342013888888886 116.40104166666664)"/><use xlink:href="#L" transform="matrix(1,0,0,1,3152,1312.0000000000002) translate(146.69053819444446 116.40104166666664)"/><use xlink:href="#J" transform="matrix(1,0,0,1,3152,1312.0000000000002) translate(0 144.51302083333331)"/><use xlink:href="#W" transform="matrix(1,0,0,1,3152,1312.0000000000002) translate(53.342013888888886 144.51302083333331)"/><use xlink:href="#X" transform="matrix(1,0,0,1,3152,1312.0000000000002) translate(146.69053819444446 144.51302083333331)"/><use xlink:href="#Y" transform="matrix(1,0,0,1,3152,1312.0000000000002) translate(173.3615451388889 144.51302083333331)"/><use xlink:href="#C" transform="matrix(1,0,0,1,3152,1312.0000000000002) translate(0 172.62499999999997)"/><use xlink:href="#Z" transform="matrix(1,0,0,1,3152,1312.0000000000002) translate(26.671006944444443 172.62499999999997)"/><use xlink:href="#U" transform="matrix(1,0,0,1,3152,1312.0000000000002) translate(200.03255208333337 172.62499999999997)"/><use xlink:href="#C" transform="matrix(1,0,0,1,3152,1312.0000000000002) translate(0 200.73697916666663)"/><use xlink:href="#aa" transform="matrix(1,0,0,1,3152,1312.0000000000002) translate(26.671006944444443 200.73697916666663)"/><use xlink:href="#ab" transform="matrix(1,0,0,1,3152,1312.0000000000002) translate(173.3615451388889 200.73697916666663)"/></g><path d="M1580 238.9v20m0 20v40m0 20v40.02m0 20v40m0 20v40.02m0 20v40m0 20.02v40m0 20V679m0 20v40m0 20.02v20M1580 238.9v-1M1580 778.97V780M1980 241v20m0 20v40.02m0 20v40m0 20v40.02m0 20v40m0 20.02v40m0 20v40.02m0 20v40m0 20v40.02m0 20v20M1980 241.03V240M1980 781.1v1M2134.8 240.98v20m0 20v40m0 20.02v40m0 20v40.02m0 20v40m0 20.02v40m0 20v40.02m0 20v40m0 20v40.02m0 20v20M2134.8 241v-1.02M2134.8 781.06v1.03M2540 240.98v20m0 20v40m0 20.02v40m0 20v40.02m0 20v40m0 20.02v40m0 20v40.02m0 20v40m0 20v40.02m0 20v20M2540 241v-1.02M2540 781.06v1.03M2700 240.33v20m0 20v40m0 20.02v40m0 20v40.02m0 20v40m0 20v40.02m0 20v40m0 20v40.02m0 20v40m0 20v20.02M2700 240.35v-1.02M2700 780.4v1.04M3520 243.1v20.02m0 20v40m0 20v40.02m0 20v40m0 20.02v40m0 20v40.02m0 20v40m0 20v40.02m0 20v40m0 20.02v20M3520 243.14v-1.03M3520 783.2v1.02M1580 1003.1v20m0 20.02v40m0 20v40.02m0 20v40m0 20.02v40m0 20v40.02m0 20v40m0 20v40.02m0 20v40m0 20.02v20M1580 1003.14v-1.03M1580 1543.2v1.02M2400 1001v20m0 20v40.02m0 20v40m0 20v40.02m0 20v40m0 20.02v40m0 20v40.02m0 20v40m0 20.02v40m0 20v20M2400 1001.03V1000M2400 1541.1v1M2700 901v19.83m0 19.84v39.66m0 19.84v39.66m0 19.84v39.66m0 19.84V1139M2700 901.03V900M2700 1138.97v1.03M3520 905.22v19.83m0 19.84v39.65m0 19.84v39.66m0 19.83v39.65m0 19.84v19.82M3520 905.25v-1.03M3520 1143.2v1.02M2600 1301v19.83m0 19.84v39.66m0 19.84v39.66m0 19.84v39.66m0 19.84V1539M2600 1301.03V1300M2600 1538.97v1.03M3000 1301v19.83m0 19.84v39.66m0 19.84v39.66m0 19.84v39.66m0 19.84V1539M3000 1301.03V1300M3000 1538.97v1.03M3120 1301v19.83m0 19.84v39.66m0 19.84v39.66m0 19.84v39.66m0 19.84V1539M3120 1301.03V1300M3120 1538.97v1.03M3520 1301v19.83m0 19.84v39.66m0 19.84v39.66m0 19.84v39.66m0 19.84V1539M3520 1301.03V1300M3520 1538.97v1.03" stroke="#000" stroke-width="2" fill="none"/><defs><path fill="#1071e5" d="M137 0v-1349h968v228H432v324h612v228H432v341h714V0H137" id="ac"/><path fill="#1071e5" d="M874 0L612-392 348 0H49l406-559-387-523h303l241 354 240-354h305L770-562 1179 0H874" id="ad"/><path fill="#1071e5" d="M1113-274C1038-96 884 20 626 20c-352 0-526-209-526-566 0-358 185-556 530-556 358 0 496 251 499 615H395c5 180 68 319 245 319 102 0 186-45 208-129zM857-663c-6-177-128-307-315-247-94 30-141 121-145 247h460" id="ae"/><path fill="#1071e5" d="M875-1102c70 0 148 7 206 17v237c-110-17-267-37-359 15-123 69-192 207-192 395V0H250c-10-367 32-789-52-1082h271c19 69 36 149 46 228h4c52-151 151-250 356-248" id="af"/><path fill="#1071e5" d="M1109-360C1066-122 902 20 624 20c-347 0-514-209-514-555 0-353 168-567 518-567 270 0 425 136 473 361l-283 14c-16-106-75-183-196-182-75 0-130 31-165 93s-52 152-52 270c0 249 74 374 221 374 120 0 188-82 201-201" id="ag"/><path fill="#1071e5" d="M794-190h353V0H118v-190h395v-702H223v-190h571v892zM513-1277v-207h281v207H513" id="ah"/><path fill="#1071e5" d="M622-916c-112 2-200 14-200 111 0 90 89 101 168 121 234 58 514 77 514 368C1104-4 751 54 434 5 267-21 161-112 121-270l247-37c24 111 113 145 252 141 114-3 226-12 226-124 0-101-103-113-192-134-225-54-490-76-490-351 0-247 201-328 458-328 245 0 413 88 457 292l-249 26c-16-98-92-133-208-131" id="ai"/><g id="a"><use transform="matrix(0.010850694444444444,0,0,0.010850694444444444,0,0)" xlink:href="#ac"/><use transform="matrix(0.010850694444444444,0,0,0.010850694444444444,13.335503472222221,0)" xlink:href="#ad"/><use transform="matrix(0.010850694444444444,0,0,0.010850694444444444,26.671006944444443,0)" xlink:href="#ae"/><use transform="matrix(0.010850694444444444,0,0,0.010850694444444444,40.006510416666664,0)" xlink:href="#af"/><use transform="matrix(0.010850694444444444,0,0,0.010850694444444444,53.342013888888886,0)" xlink:href="#ag"/><use transform="matrix(0.010850694444444444,0,0,0.010850694444444444,66.67751736111111,0)" xlink:href="#ah"/><use transform="matrix(0.010850694444444444,0,0,0.010850694444444444,80.01302083333334,0)" xlink:href="#ai"/><use transform="matrix(0.010850694444444444,0,0,0.010850694444444444,93.34852430555557,0)" xlink:href="#ae"/></g><path fill="#1071e5" d="M650-1214c-281 0-336 244-336 533 0 295 60 546 347 546 188 0 263-142 322-282l159 65C1058-155 935 20 659 20c-401 0-546-295-546-701 0-407 135-689 536-689 264 0 391 146 466 335l-168 65c-47-129-127-244-297-244" id="aj"/><path fill="#1071e5" d="M615-1102c343 0 484 203 482 560-1 347-147 562-488 562-336 0-475-219-479-562-4-349 156-560 485-560zm-8 989c240 0 301-180 301-429 0-245-55-427-290-427-236 0-299 181-299 427 0 243 61 429 288 429" id="ak"/><path fill="#1071e5" d="M706-1102c241 0 344 136 343 381V0H868v-695c1-168-57-273-220-268-190 6-283 138-283 336V0H185c-3-360 6-732-6-1082h170c4 54 7 126 8 185h3c63-121 164-204 346-205" id="al"/><path fill="#1071e5" d="M682 16c-209 0-323-80-324-285v-671H190v-142h170l58-282h120v282h432v142H538v652c2 114 60 155 182 155 106 0 209-16 297-34v137C921-4 806 16 682 16" id="am"/><path fill="#1071e5" d="M839-1102c70 0 148 7 206 17v167c-112-18-268-36-363 15-129 69-208 203-208 395V0H294c-10-367 32-789-52-1082h171c21 75 41 161 48 250h5c67-152 152-270 373-270" id="an"/><path fill="#1071e5" d="M1000-272c3 95 12 159 101 161 21 0 41-3 59-7V-6c-44 10-86 16-139 16-141 2-191-84-197-217h-6C748-76 648 20 446 20c-207 0-318-120-318-322 0-266 194-348 454-354l236-4c12-191-40-305-222-305-140 0-220 47-232 172l-188-17c33-204 181-292 423-292 255 0 401 118 401 364v466zm-683-27c0 109 63 184 175 182 166-3 259-96 306-217 24-65 20-120 20-200-232 7-501-28-501 235" id="ao"/><path fill="#1071e5" d="M631 20c-350 0-501-215-501-562 0-355 162-560 502-560 250 0 399 118 446 323l-192 14c-23-124-109-196-262-196-242 0-305 171-305 415 1 245 61 427 304 427 151 0 248-77 267-215l190 12C1039-107 883 20 631 20" id="ap"/><path fill="#1071e5" d="M496 0v-299h235V0H496zm0-783v-299h235v299H496" id="aq"/><g id="c"><use transform="matrix(0.010850694444444444,0,0,0.010850694444444444,0,0)" xlink:href="#aj"/><use transform="matrix(0.010850694444444444,0,0,0.010850694444444444,13.335503472222221,0)" xlink:href="#ak"/><use transform="matrix(0.010850694444444444,0,0,0.010850694444444444,26.671006944444443,0)" xlink:href="#al"/><use transform="matrix(0.010850694444444444,0,0,0.010850694444444444,40.006510416666664,0)" xlink:href="#am"/><use transform="matrix(0.010850694444444444,0,0,0.010850694444444444,53.342013888888886,0)" xlink:href="#an"/><use transform="matrix(0.010850694444444444,0,0,0.010850694444444444,66.67751736111111,0)" xlink:href="#ao"/><use transform="matrix(0.010850694444444444,0,0,0.010850694444444444,80.01302083333334,0)" xlink:href="#ap"/><use transform="matrix(0.010850694444444444,0,0,0.010850694444444444,93.34852430555557,0)" xlink:href="#am"/><use transform="matrix(0.010850694444444444,0,0,0.010850694444444444,106.6840277777778,0)" xlink:href="#aq"/></g><path fill="#1071e5" d="M930-833l-67 317h260v108H840L752 0H642l86-408H365L281 0H171l84-408H54v-108h225l67-317H105v-108h263l89-408h110l-88 408h363l88-408h110l-88 408h211v108H930zm-471 0l-69 317h362l67-317H459" id="ar"/><path fill="#1071e5" d="M148-1120c216-7 379-89 463-229h166v1204h353V0H157v-145h439v-1021c-79 124-254 184-448 194v-148" id="as"/><g id="d"><use transform="matrix(0.010850694444444444,0,0,0.010850694444444444,0,0)" xlink:href="#ar"/><use transform="matrix(0.010850694444444444,0,0,0.010850694444444444,13.335503472222221,0)" xlink:href="#as"/></g><path fill="#1071e5" d="M709-1193V0H519v-1193H76v-156h1076v156H709" id="at"/><path fill="#1071e5" d="M617-1102c355 0 481 238 477 599H322c5 222 84 388 301 388 144 0 244-59 284-166l158 45C1002-72 854 20 623 20c-342 0-490-220-490-568 0-346 151-554 484-554zm291 461c-18-192-90-328-289-328-194 0-287 128-295 328h584" id="au"/><path fill="#1071e5" d="M904-1102c199 0 220 177 220 381V0H956v-686c-3-114 0-215-60-264-70-33-125-4-158 71-26 56-39 140-39 252V0H531v-686c-3-114-1-215-61-264-78-41-136 24-157 84-24 69-39 159-39 259V0H105c-3-360 6-732-6-1082h149c6 50 3 123 8 175 36-100 83-195 216-195 135 0 166 79 196 196 42-105 93-196 236-196" id="av"/><path fill="#1071e5" d="M698-1104c312 3 392 244 392 558 0 315-82 566-392 566-169 0-277-65-331-184h-5c8 188 2 394 4 589H185V-858c0-76-1-156-6-224h175c6 52 9 120 10 178h4c58-122 150-202 330-200zm-49 991c225 0 255-203 255-433 0-225-32-419-253-419-236 0-285 192-285 441 0 237 53 411 283 411" id="aw"/><path fill="#1071e5" d="M736-142h380V0H134v-142h422v-1200H267v-142h469v1342" id="ax"/><g id="e"><use transform="matrix(0.010850694444444444,0,0,0.010850694444444444,0,0)" xlink:href="#at"/><use transform="matrix(0.010850694444444444,0,0,0.010850694444444444,13.335503472222221,0)" xlink:href="#au"/><use transform="matrix(0.010850694444444444,0,0,0.010850694444444444,26.671006944444443,0)" xlink:href="#av"/><use transform="matrix(0.010850694444444444,0,0,0.010850694444444444,40.006510416666664,0)" xlink:href="#aw"/><use transform="matrix(0.010850694444444444,0,0,0.010850694444444444,53.342013888888886,0)" xlink:href="#ax"/><use transform="matrix(0.010850694444444444,0,0,0.010850694444444444,66.67751736111111,0)" xlink:href="#ao"/><use transform="matrix(0.010850694444444444,0,0,0.010850694444444444,80.01302083333334,0)" xlink:href="#am"/><use transform="matrix(0.010850694444444444,0,0,0.010850694444444444,93.34852430555557,0)" xlink:href="#au"/><use transform="matrix(0.010850694444444444,0,0,0.010850694444444444,106.6840277777778,0)" xlink:href="#aq"/></g><path fill="#1071e5" d="M614-1226c-167 1-283 53-283 213 0 183 186 193 334 234 230 63 463 120 463 409 0 286-219 387-518 390C309 23 131-98 79-338l185-37c34 165 149 248 351 246 184-2 324-58 324-238 0-203-207-221-372-266-210-57-422-111-422-377 0-267 201-356 470-360 279-5 430 101 480 324l-188 33c-28-141-121-215-293-213" id="ay"/><path fill="#1071e5" d="M745-142h380V0H143v-142h422v-798H246v-142h499v940zM545-1292v-192h200v192H545" id="az"/><path fill="#1071e5" d="M1034 0L896-382H333L196 0H0l510-1349h217L1228 0h-194zM847-531c-77-225-157-447-231-674-69 231-154 451-232 674h463" id="aA"/><path fill="#1071e5" d="M873-819c-18-114-119-146-250-146-163 0-245 50-245 151 0 151 170 148 294 185 182 54 388 94 388 320 0 240-189 325-439 329-245 4-410-69-454-268l159-31c24 133 136 168 295 165 144-2 270-31 270-171 0-164-195-160-331-202-167-52-350-87-350-299 0-218 173-315 413-313 220 2 373 77 412 260" id="aB"/><g id="f"><use transform="matrix(0.010850694444444444,0,0,0.010850694444444444,0,0)" xlink:href="#ay"/><use transform="matrix(0.010850694444444444,0,0,0.010850694444444444,13.335503472222221,0)" xlink:href="#az"/><use transform="matrix(0.010850694444444444,0,0,0.010850694444444444,26.671006944444443,0)" xlink:href="#av"/><use transform="matrix(0.010850694444444444,0,0,0.010850694444444444,40.006510416666664,0)" xlink:href="#aw"/><use transform="matrix(0.010850694444444444,0,0,0.010850694444444444,53.342013888888886,0)" xlink:href="#ax"/><use transform="matrix(0.010850694444444444,0,0,0.010850694444444444,66.67751736111111,0)" xlink:href="#au"/><use transform="matrix(0.010850694444444444,0,0,0.010850694444444444,80.01302083333334,0)" xlink:href="#aA"/><use transform="matrix(0.010850694444444444,0,0,0.010850694444444444,93.34852430555557,0)" xlink:href="#aB"/><use transform="matrix(0.010850694444444444,0,0,0.010850694444444444,106.6840277777778,0)" xlink:href="#aB"/><use transform="matrix(0.010850694444444444,0,0,0.010850694444444444,120.01953125000003,0)" xlink:href="#au"/><use transform="matrix(0.010850694444444444,0,0,0.010850694444444444,133.35503472222226,0)" xlink:href="#am"/></g><path fill="#1071e5" d="M648-963c-190 6-283 138-283 336V0H185v-1484h181c-2 197 6 404-9 587h3c62-120 159-205 339-205 242 0 351 135 350 381V0H868v-695c1-168-57-273-220-268" id="aC"/><g id="g"><use transform="matrix(0.010850694444444444,0,0,0.010850694444444444,0,0)" xlink:href="#aj"/><use transform="matrix(0.010850694444444444,0,0,0.010850694444444444,13.335503472222221,0)" xlink:href="#aC"/><use transform="matrix(0.010850694444444444,0,0,0.010850694444444444,26.671006944444443,0)" xlink:href="#ak"/><use transform="matrix(0.010850694444444444,0,0,0.010850694444444444,40.006510416666664,0)" xlink:href="#az"/><use transform="matrix(0.010850694444444444,0,0,0.010850694444444444,53.342013888888886,0)" xlink:href="#ap"/><use transform="matrix(0.010850694444444444,0,0,0.010850694444444444,66.67751736111111,0)" xlink:href="#au"/><use transform="matrix(0.010850694444444444,0,0,0.010850694444444444,80.01302083333334,0)" xlink:href="#aq"/></g><path fill="#1071e5" d="M839-1335c-182-6-269 67-259 253h491v142H580V0H400v-940H138v-142h262c-15-293 132-408 418-402 94 2 200 7 281 21v145c-75-10-177-14-260-17" id="aD"/><g id="h"><use transform="matrix(0.010850694444444444,0,0,0.010850694444444444,0,0)" xlink:href="#at"/><use transform="matrix(0.010850694444444444,0,0,0.010850694444444444,13.335503472222221,0)" xlink:href="#an"/><use transform="matrix(0.010850694444444444,0,0,0.010850694444444444,26.671006944444443,0)" xlink:href="#ao"/><use transform="matrix(0.010850694444444444,0,0,0.010850694444444444,40.006510416666664,0)" xlink:href="#al"/><use transform="matrix(0.010850694444444444,0,0,0.010850694444444444,53.342013888888886,0)" xlink:href="#aB"/><use transform="matrix(0.010850694444444444,0,0,0.010850694444444444,66.67751736111111,0)" xlink:href="#aD"/><use transform="matrix(0.010850694444444444,0,0,0.010850694444444444,80.01302083333334,0)" xlink:href="#au"/><use transform="matrix(0.010850694444444444,0,0,0.010850694444444444,93.34852430555557,0)" xlink:href="#an"/></g><path fill="#1071e5" d="M1018 0H814c-67-224-138-444-200-673C552-442 476-224 407 0H204L21-1082h178c43 310 105 601 126 933 54-225 128-425 193-638h193c63 212 134 415 185 638 22-336 90-622 136-933h176" id="aE"/><path fill="#1071e5" d="M102-681c0-398 126-689 513-689 165 0 291 58 379 174s132 287 132 515c-1 318-88 554-298 657-123 61-317 58-438-3-206-104-288-341-288-654zm749 406c94-160 97-656-5-807-57-85-130-132-231-132-104 0-178 47-234 132-101 153-99 655 1 809 57 89 130 138 232 138 109 0 184-49 237-140" id="aF"/><g id="j"><use transform="matrix(0.010850694444444444,0,0,0.010850694444444444,0,0)" xlink:href="#al"/><use transform="matrix(0.010850694444444444,0,0,0.010850694444444444,13.335503472222221,0)" xlink:href="#au"/><use transform="matrix(0.010850694444444444,0,0,0.010850694444444444,26.671006944444443,0)" xlink:href="#aE"/><use transform="matrix(0.010850694444444444,0,0,0.010850694444444444,40.006510416666664,0)" xlink:href="#aF"/><use transform="matrix(0.010850694444444444,0,0,0.010850694444444444,53.342013888888886,0)" xlink:href="#aE"/><use transform="matrix(0.010850694444444444,0,0,0.010850694444444444,66.67751736111111,0)" xlink:href="#al"/><use transform="matrix(0.010850694444444444,0,0,0.010850694444444444,80.01302083333334,0)" xlink:href="#au"/><use transform="matrix(0.010850694444444444,0,0,0.010850694444444444,93.34852430555557,0)" xlink:href="#an"/><use transform="matrix(0.010850694444444444,0,0,0.010850694444444444,106.6840277777778,0)" xlink:href="#aq"/></g><path fill="#1071e5" d="M802-711c201 25 350 118 350 331C1152-95 921 0 634 0H162v-1349c401 9 908-74 908 327 0 184-111 275-268 311zm-224-69c174-2 300-51 300-218 0-163-124-198-302-198H353v416h225zM353-153c281-2 612 44 606-244-5-271-329-233-606-234v478" id="aG"/><path fill="#1071e5" d="M365-904c58-129 161-200 334-200 130 0 228 46 293 138s98 233 98 420c0 189-34 331-102 425S824 20 698 20c-170 0-275-64-336-184 0 55-3 116-9 164H179c5-68 6-147 6-223v-1261h180c-2 193 4 394-4 580h4zm283 791c221 0 256-197 256-427 0-229-34-425-254-425-236 0-285 195-285 441 0 237 53 411 283 411" id="aH"/><g id="k"><use transform="matrix(0.010850694444444444,0,0,0.010850694444444444,0,0)" xlink:href="#aG"/><use transform="matrix(0.010850694444444444,0,0,0.010850694444444444,13.335503472222221,0)" xlink:href="#ak"/><use transform="matrix(0.010850694444444444,0,0,0.010850694444444444,26.671006944444443,0)" xlink:href="#aH"/></g><g id="l"><use transform="matrix(0.010850694444444444,0,0,0.010850694444444444,0,0)" xlink:href="#aA"/><use transform="matrix(0.010850694444444444,0,0,0.010850694444444444,13.335503472222221,0)" xlink:href="#ap"/><use transform="matrix(0.010850694444444444,0,0,0.010850694444444444,26.671006944444443,0)" xlink:href="#am"/><use transform="matrix(0.010850694444444444,0,0,0.010850694444444444,40.006510416666664,0)" xlink:href="#ak"/><use transform="matrix(0.010850694444444444,0,0,0.010850694444444444,53.342013888888886,0)" xlink:href="#an"/><use transform="matrix(0.010850694444444444,0,0,0.010850694444444444,66.67751736111111,0)" xlink:href="#aB"/><use transform="matrix(0.010850694444444444,0,0,0.010850694444444444,80.01302083333334,0)" xlink:href="#aq"/></g><g id="m"><use transform="matrix(0.010850694444444444,0,0,0.010850694444444444,0,0)" xlink:href="#aA"/><use transform="matrix(0.010850694444444444,0,0,0.010850694444444444,13.335503472222221,0)" xlink:href="#ax"/><use transform="matrix(0.010850694444444444,0,0,0.010850694444444444,26.671006944444443,0)" xlink:href="#az"/><use transform="matrix(0.010850694444444444,0,0,0.010850694444444444,40.006510416666664,0)" xlink:href="#ap"/><use transform="matrix(0.010850694444444444,0,0,0.010850694444444444,53.342013888888886,0)" xlink:href="#au"/></g><path fill="#1071e5" d="M1121-976c0 225-142 341-344 379L1177 0H957L591-575H353V0H162v-1349h482c281 3 477 100 477 373zM633-726c181-1 296-73 296-247 0-149-101-223-304-223H353v470h280" id="aI"/><path fill="#1071e5" d="M528 20c-247 0-343-132-343-381v-721h180v686c-4 177 45 284 224 277 194-8 279-136 279-336v-627h181c3 360-6 732 6 1082H885c-4-54-7-126-8-185h-3C809-64 714 20 528 20" id="aJ"/><g id="n"><use transform="matrix(0.010850694444444444,0,0,0.010850694444444444,0,0)" xlink:href="#aI"/><use transform="matrix(0.010850694444444444,0,0,0.010850694444444444,13.335503472222221,0)" xlink:href="#au"/><use transform="matrix(0.010850694444444444,0,0,0.010850694444444444,26.671006944444443,0)" xlink:href="#aB"/><use transform="matrix(0.010850694444444444,0,0,0.010850694444444444,40.006510416666664,0)" xlink:href="#aJ"/><use transform="matrix(0.010850694444444444,0,0,0.010850694444444444,53.342013888888886,0)" xlink:href="#ax"/><use transform="matrix(0.010850694444444444,0,0,0.010850694444444444,66.67751736111111,0)" xlink:href="#am"/><use transform="matrix(0.010850694444444444,0,0,0.010850694444444444,80.01302083333334,0)" xlink:href="#aq"/></g><path fill="#1071e5" d="M353-779c69-51 166-92 291-90 218 3 357 100 423 255 21 52 32 109 32 170 0 305-189 464-500 464-268 0-424-116-471-335l182-21c35 130 124 212 293 209 198-4 309-114 309-313 0-182-118-282-305-282-120 0-198 45-262 101H169l47-728h801v145H382" id="aK"/><g id="o"><use transform="matrix(0.010850694444444444,0,0,0.010850694444444444,0,0)" xlink:href="#ar"/><use transform="matrix(0.010850694444444444,0,0,0.010850694444444444,13.335503472222221,0)" xlink:href="#aK"/></g><path fill="#1071e5" d="M872-915c-35-112-84-223-220-223-91 0-156 41-204 116-89 137-87 550 2 688 51 79 116 122 209 122 150 0 197-126 240-244l273 52C1094-168 961 20 656 20 239 20 80-262 80-681c0-418 154-689 568-689 289 0 425 167 496 389" id="aL"/><path fill="#1071e5" d="M775-193C708-75 621 20 439 20 226 20 106-93 106-306c0-251 170-341 417-346l223-4c4-143-12-264-148-264-103 0-141 58-150 153l-293-14c37-219 194-321 455-321 263 0 418 130 417 390v392c1 84 5 161 89 160 21 0 42-2 62-6v152c-57 15-108 27-180 26-145 0-202-73-217-205h-6zm-256 17c168 0 234-139 227-325-166 4-347-25-347 173 0 94 33 152 120 152" id="aM"/><path fill="#1071e5" d="M711 13c-250 0-386-99-385-349l2-556H161v-190h181l88-282h176v282h385v190H606v530c-10 130 45 186 174 184 91-2 176-11 255-27v186C933-1 833 13 711 13" id="aN"/><g id="p"><use transform="matrix(0.010850694444444444,0,0,0.010850694444444444,0,0)" xlink:href="#aL"/><use transform="matrix(0.010850694444444444,0,0,0.010850694444444444,13.335503472222221,0)" xlink:href="#af"/><use transform="matrix(0.010850694444444444,0,0,0.010850694444444444,26.671006944444443,0)" xlink:href="#ae"/><use transform="matrix(0.010850694444444444,0,0,0.010850694444444444,40.006510416666664,0)" xlink:href="#aM"/><use transform="matrix(0.010850694444444444,0,0,0.010850694444444444,53.342013888888886,0)" xlink:href="#aN"/><use transform="matrix(0.010850694444444444,0,0,0.010850694444444444,66.67751736111111,0)" xlink:href="#ae"/></g><path fill="#1071e5" d="M621-530c0 421 127 700 301 955H641C466 173 344-110 344-531s122-702 297-953h281c-174 254-301 534-301 954" id="aO"/><path fill="#1071e5" d="M616-1102c361 0 521 202 521 560 0 354-171 562-527 562C259 20 92-192 92-542c0-351 169-560 524-560zm-9 930c200-2 236-165 236-370 0-199-27-367-223-367-195 0-233 146-233 367 0 129 18 223 55 282s92 88 165 88" id="aP"/><path fill="#1071e5" d="M768-1103c247 0 336 167 336 416V0H824v-619c-3-164-24-273-171-273-164 0-229 142-229 312V0H143c-4-359 9-736-8-1082h268c7 63 12 146 13 215h4c67-145 160-236 348-236" id="aQ"/><g id="q"><use transform="matrix(0.010850694444444444,0,0,0.010850694444444444,0,0)" xlink:href="#aO"/><use transform="matrix(0.010850694444444444,0,0,0.010850694444444444,13.335503472222221,0)" xlink:href="#aL"/><use transform="matrix(0.010850694444444444,0,0,0.010850694444444444,26.671006944444443,0)" xlink:href="#aP"/><use transform="matrix(0.010850694444444444,0,0,0.010850694444444444,40.006510416666664,0)" xlink:href="#aQ"/><use transform="matrix(0.010850694444444444,0,0,0.010850694444444444,53.342013888888886,0)" xlink:href="#aN"/><use transform="matrix(0.010850694444444444,0,0,0.010850694444444444,66.67751736111111,0)" xlink:href="#af"/><use transform="matrix(0.010850694444444444,0,0,0.010850694444444444,80.01302083333334,0)" xlink:href="#aM"/><use transform="matrix(0.010850694444444444,0,0,0.010850694444444444,93.34852430555557,0)" xlink:href="#ag"/><use transform="matrix(0.010850694444444444,0,0,0.010850694444444444,106.6840277777778,0)" xlink:href="#aN"/></g><path fill="#1071e5" d="M951-835l-69 324h237v149H849L771 0H616l79-362H386L308 0H155l78-362H59v-149h206l70-324H108v-148h259l79-366h153l-78 366h308l79-366h153l-78 366h185v148H951zm-463 0l-70 324h309l70-324H488" id="aR"/><path fill="#1071e5" d="M426-814c58-49 145-93 255-90 282 8 442 169 442 450 0 312-203 474-522 474-288 0-453-130-497-372l281-23c24 104 89 172 219 172 153 0 230-91 230-245 0-144-78-226-224-229-94-2-148 42-191 91H145l49-763h847v209H449" id="aS"/><path fill="#1071e5" d="M885-531c0 421-122 704-297 956H307c174-255 301-534 301-955 0-420-127-700-301-954h281c175 251 297 532 297 953" id="aT"/><g id="r"><use transform="matrix(0.010850694444444444,0,0,0.010850694444444444,0,0)" xlink:href="#aR"/><use transform="matrix(0.010850694444444444,0,0,0.010850694444444444,13.335503472222221,0)" xlink:href="#aS"/><use transform="matrix(0.010850694444444444,0,0,0.010850694444444444,26.671006944444443,0)" xlink:href="#aT"/></g><g id="s"><use transform="matrix(0.010850694444444444,0,0,0.010850694444444444,0,0)" xlink:href="#az"/><use transform="matrix(0.010850694444444444,0,0,0.010850694444444444,13.335503472222221,0)" xlink:href="#aB"/><use transform="matrix(0.010850694444444444,0,0,0.010850694444444444,26.671006944444443,0)" xlink:href="#aB"/><use transform="matrix(0.010850694444444444,0,0,0.010850694444444444,40.006510416666664,0)" xlink:href="#aJ"/><use transform="matrix(0.010850694444444444,0,0,0.010850694444444444,53.342013888888886,0)" xlink:href="#au"/><use transform="matrix(0.010850694444444444,0,0,0.010850694444444444,66.67751736111111,0)" xlink:href="#an"/><use transform="matrix(0.010850694444444444,0,0,0.010850694444444444,80.01302083333334,0)" xlink:href="#aq"/></g><path fill="#1071e5" d="M914 0L548-499l-132 98V0H236v-1484h180v927l475-525h211L663-617 1125 0H914" id="aU"/><g id="t"><use transform="matrix(0.010850694444444444,0,0,0.010850694444444444,0,0)" xlink:href="#aG"/><use transform="matrix(0.010850694444444444,0,0,0.010850694444444444,13.335503472222221,0)" xlink:href="#ao"/><use transform="matrix(0.010850694444444444,0,0,0.010850694444444444,26.671006944444443,0)" xlink:href="#al"/><use transform="matrix(0.010850694444444444,0,0,0.010850694444444444,40.006510416666664,0)" xlink:href="#aU"/><use transform="matrix(0.010850694444444444,0,0,0.010850694444444444,53.342013888888886,0)" xlink:href="#as"/></g><g id="u"><use transform="matrix(0.010850694444444444,0,0,0.010850694444444444,0,0)" xlink:href="#ak"/><use transform="matrix(0.010850694444444444,0,0,0.010850694444444444,13.335503472222221,0)" xlink:href="#aE"/><use transform="matrix(0.010850694444444444,0,0,0.010850694444444444,26.671006944444443,0)" xlink:href="#al"/><use transform="matrix(0.010850694444444444,0,0,0.010850694444444444,40.006510416666664,0)" xlink:href="#au"/><use transform="matrix(0.010850694444444444,0,0,0.010850694444444444,53.342013888888886,0)" xlink:href="#an"/><use transform="matrix(0.010850694444444444,0,0,0.010850694444444444,66.67751736111111,0)" xlink:href="#aq"/></g><g id="v"><use transform="matrix(0.010850694444444444,0,0,0.010850694444444444,0,0)" xlink:href="#ao"/><use transform="matrix(0.010850694444444444,0,0,0.010850694444444444,13.335503472222221,0)" xlink:href="#aB"/><use transform="matrix(0.010850694444444444,0,0,0.010850694444444444,26.671006944444443,0)" xlink:href="#aB"/><use transform="matrix(0.010850694444444444,0,0,0.010850694444444444,40.006510416666664,0)" xlink:href="#au"/><use transform="matrix(0.010850694444444444,0,0,0.010850694444444444,53.342013888888886,0)" xlink:href="#am"/><use transform="matrix(0.010850694444444444,0,0,0.010850694444444444,66.67751736111111,0)" xlink:href="#aq"/></g><use transform="matrix(0.010850694444444444,0,0,0.010850694444444444,0,0)" xlink:href="#as" id="w"/><path fill="#1071e5" d="M162 0v-1349h919v156H353v422h668v154H353v461h769V0H162" id="aV"/><path fill="#1071e5" d="M604-135c236 0 291-142 291-376v-838h190v859c5 340-142 510-480 510-326 0-463-164-463-492v-877h191v851c-3 222 46 363 271 363" id="aW"/><g id="x"><use transform="matrix(0.010850694444444444,0,0,0.010850694444444444,0,0)" xlink:href="#aV"/><use transform="matrix(0.010850694444444444,0,0,0.010850694444444444,13.335503472222221,0)" xlink:href="#aW"/><use transform="matrix(0.010850694444444444,0,0,0.010850694444444444,26.671006944444443,0)" xlink:href="#aI"/></g><path fill="#1071e5" d="M1048-32c-2 300-135 456-433 456-222-1-358-88-400-267l184-25c22 99 100 157 222 156 184-2 248-125 248-315 0-64 3-133-2-194C807-100 706-13 524-12c-306 0-381-228-381-537 0-318 85-550 400-550 164 0 271 83 325 202h3c1-60 3-134 12-185h171c-13 339-4 702-6 1050zM585-145c210-8 284-178 284-406 0-192-52-331-177-392-33-16-69-22-104-22-223 2-259 184-259 414 0 229 31 415 256 406" id="aX"/><g id="y"><use transform="matrix(0.010850694444444444,0,0,0.010850694444444444,0,0)" xlink:href="#ay"/><use transform="matrix(0.010850694444444444,0,0,0.010850694444444444,13.335503472222221,0)" xlink:href="#az"/><use transform="matrix(0.010850694444444444,0,0,0.010850694444444444,26.671006944444443,0)" xlink:href="#aX"/><use transform="matrix(0.010850694444444444,0,0,0.010850694444444444,40.006510416666664,0)" xlink:href="#al"/><use transform="matrix(0.010850694444444444,0,0,0.010850694444444444,53.342013888888886,0)" xlink:href="#ao"/><use transform="matrix(0.010850694444444444,0,0,0.010850694444444444,66.67751736111111,0)" xlink:href="#am"/><use transform="matrix(0.010850694444444444,0,0,0.010850694444444444,80.01302083333334,0)" xlink:href="#ak"/><use transform="matrix(0.010850694444444444,0,0,0.010850694444444444,93.34852430555557,0)" xlink:href="#an"/><use transform="matrix(0.010850694444444444,0,0,0.010850694444444444,106.6840277777778,0)" xlink:href="#az"/><use transform="matrix(0.010850694444444444,0,0,0.010850694444444444,120.01953125000003,0)" xlink:href="#au"/><use transform="matrix(0.010850694444444444,0,0,0.010850694444444444,133.35503472222226,0)" xlink:href="#aB"/><use transform="matrix(0.010850694444444444,0,0,0.010850694444444444,146.69053819444449,0)" xlink:href="#aq"/></g><path fill="#1071e5" d="M715 0H502L69-1082h202c94 253 197 500 285 758 19 57 36 126 52 183 96-335 234-626 350-941h201" id="aY"/><g id="z"><use transform="matrix(0.010850694444444444,0,0,0.010850694444444444,0,0)" xlink:href="#aF"/><use transform="matrix(0.010850694444444444,0,0,0.010850694444444444,13.335503472222221,0)" xlink:href="#aH"/><use transform="matrix(0.010850694444444444,0,0,0.010850694444444444,26.671006944444443,0)" xlink:href="#aB"/><use transform="matrix(0.010850694444444444,0,0,0.010850694444444444,40.006510416666664,0)" xlink:href="#au"/><use transform="matrix(0.010850694444444444,0,0,0.010850694444444444,53.342013888888886,0)" xlink:href="#an"/><use transform="matrix(0.010850694444444444,0,0,0.010850694444444444,66.67751736111111,0)" xlink:href="#aY"/><use transform="matrix(0.010850694444444444,0,0,0.010850694444444444,80.01302083333334,0)" xlink:href="#au"/><use transform="matrix(0.010850694444444444,0,0,0.010850694444444444,93.34852430555557,0)" xlink:href="#an"/><use transform="matrix(0.010850694444444444,0,0,0.010850694444444444,106.6840277777778,0)" xlink:href="#aB"/><use transform="matrix(0.010850694444444444,0,0,0.010850694444444444,120.01953125000003,0)" xlink:href="#aq"/></g><g id="A"><use transform="matrix(0.010850694444444444,0,0,0.010850694444444444,0,0)" xlink:href="#aG"/><use transform="matrix(0.010850694444444444,0,0,0.010850694444444444,13.335503472222221,0)" xlink:href="#ak"/><use transform="matrix(0.010850694444444444,0,0,0.010850694444444444,26.671006944444443,0)" xlink:href="#aH"/></g><path fill="#ba23f6" d="M137 0v-1349h968v228H432v324h612v228H432v341h714V0H137" id="aZ"/><path fill="#ba23f6" d="M874 0L612-392 348 0H49l406-559-387-523h303l241 354 240-354h305L770-562 1179 0H874" id="ba"/><path fill="#ba23f6" d="M1113-274C1038-96 884 20 626 20c-352 0-526-209-526-566 0-358 185-556 530-556 358 0 496 251 499 615H395c5 180 68 319 245 319 102 0 186-45 208-129zM857-663c-6-177-128-307-315-247-94 30-141 121-145 247h460" id="bb"/><path fill="#ba23f6" d="M875-1102c70 0 148 7 206 17v237c-110-17-267-37-359 15-123 69-192 207-192 395V0H250c-10-367 32-789-52-1082h271c19 69 36 149 46 228h4c52-151 151-250 356-248" id="bc"/><path fill="#ba23f6" d="M1109-360C1066-122 902 20 624 20c-347 0-514-209-514-555 0-353 168-567 518-567 270 0 425 136 473 361l-283 14c-16-106-75-183-196-182-75 0-130 31-165 93s-52 152-52 270c0 249 74 374 221 374 120 0 188-82 201-201" id="bd"/><path fill="#ba23f6" d="M794-190h353V0H118v-190h395v-702H223v-190h571v892zM513-1277v-207h281v207H513" id="be"/><path fill="#ba23f6" d="M622-916c-112 2-200 14-200 111 0 90 89 101 168 121 234 58 514 77 514 368C1104-4 751 54 434 5 267-21 161-112 121-270l247-37c24 111 113 145 252 141 114-3 226-12 226-124 0-101-103-113-192-134-225-54-490-76-490-351 0-247 201-328 458-328 245 0 413 88 457 292l-249 26c-16-98-92-133-208-131" id="bf"/><g id="B"><use transform="matrix(0.010850694444444444,0,0,0.010850694444444444,0,0)" xlink:href="#aZ"/><use transform="matrix(0.010850694444444444,0,0,0.010850694444444444,13.335503472222221,0)" xlink:href="#ba"/><use transform="matrix(0.010850694444444444,0,0,0.010850694444444444,26.671006944444443,0)" xlink:href="#bb"/><use transform="matrix(0.010850694444444444,0,0,0.010850694444444444,40.006510416666664,0)" xlink:href="#bc"/><use transform="matrix(0.010850694444444444,0,0,0.010850694444444444,53.342013888888886,0)" xlink:href="#bd"/><use transform="matrix(0.010850694444444444,0,0,0.010850694444444444,66.67751736111111,0)" xlink:href="#be"/><use transform="matrix(0.010850694444444444,0,0,0.010850694444444444,80.01302083333334,0)" xlink:href="#bf"/><use transform="matrix(0.010850694444444444,0,0,0.010850694444444444,93.34852430555557,0)" xlink:href="#bb"/></g><path fill="#ba23f6" d="M650-1214c-281 0-336 244-336 533 0 295 60 546 347 546 188 0 263-142 322-282l159 65C1058-155 935 20 659 20c-401 0-546-295-546-701 0-407 135-689 536-689 264 0 391 146 466 335l-168 65c-47-129-127-244-297-244" id="bg"/><path fill="#ba23f6" d="M615-1102c343 0 484 203 482 560-1 347-147 562-488 562-336 0-475-219-479-562-4-349 156-560 485-560zm-8 989c240 0 301-180 301-429 0-245-55-427-290-427-236 0-299 181-299 427 0 243 61 429 288 429" id="bh"/><path fill="#ba23f6" d="M706-1102c241 0 344 136 343 381V0H868v-695c1-168-57-273-220-268-190 6-283 138-283 336V0H185c-3-360 6-732-6-1082h170c4 54 7 126 8 185h3c63-121 164-204 346-205" id="bi"/><path fill="#ba23f6" d="M682 16c-209 0-323-80-324-285v-671H190v-142h170l58-282h120v282h432v142H538v652c2 114 60 155 182 155 106 0 209-16 297-34v137C921-4 806 16 682 16" id="bj"/><path fill="#ba23f6" d="M839-1102c70 0 148 7 206 17v167c-112-18-268-36-363 15-129 69-208 203-208 395V0H294c-10-367 32-789-52-1082h171c21 75 41 161 48 250h5c67-152 152-270 373-270" id="bk"/><path fill="#ba23f6" d="M1000-272c3 95 12 159 101 161 21 0 41-3 59-7V-6c-44 10-86 16-139 16-141 2-191-84-197-217h-6C748-76 648 20 446 20c-207 0-318-120-318-322 0-266 194-348 454-354l236-4c12-191-40-305-222-305-140 0-220 47-232 172l-188-17c33-204 181-292 423-292 255 0 401 118 401 364v466zm-683-27c0 109 63 184 175 182 166-3 259-96 306-217 24-65 20-120 20-200-232 7-501-28-501 235" id="bl"/><path fill="#ba23f6" d="M631 20c-350 0-501-215-501-562 0-355 162-560 502-560 250 0 399 118 446 323l-192 14c-23-124-109-196-262-196-242 0-305 171-305 415 1 245 61 427 304 427 151 0 248-77 267-215l190 12C1039-107 883 20 631 20" id="bm"/><path fill="#ba23f6" d="M496 0v-299h235V0H496zm0-783v-299h235v299H496" id="bn"/><g id="D"><use transform="matrix(0.010850694444444444,0,0,0.010850694444444444,0,0)" xlink:href="#bg"/><use transform="matrix(0.010850694444444444,0,0,0.010850694444444444,13.335503472222221,0)" xlink:href="#bh"/><use transform="matrix(0.010850694444444444,0,0,0.010850694444444444,26.671006944444443,0)" xlink:href="#bi"/><use transform="matrix(0.010850694444444444,0,0,0.010850694444444444,40.006510416666664,0)" xlink:href="#bj"/><use transform="matrix(0.010850694444444444,0,0,0.010850694444444444,53.342013888888886,0)" xlink:href="#bk"/><use transform="matrix(0.010850694444444444,0,0,0.010850694444444444,66.67751736111111,0)" xlink:href="#bl"/><use transform="matrix(0.010850694444444444,0,0,0.010850694444444444,80.01302083333334,0)" xlink:href="#bm"/><use transform="matrix(0.010850694444444444,0,0,0.010850694444444444,93.34852430555557,0)" xlink:href="#bj"/><use transform="matrix(0.010850694444444444,0,0,0.010850694444444444,106.6840277777778,0)" xlink:href="#bn"/></g><path fill="#ba23f6" d="M930-833l-67 317h260v108H840L752 0H642l86-408H365L281 0H171l84-408H54v-108h225l67-317H105v-108h263l89-408h110l-88 408h363l88-408h110l-88 408h211v108H930zm-471 0l-69 317h362l67-317H459" id="bo"/><path fill="#ba23f6" d="M611-1370c266 0 451 106 451 368 0 147-77 243-154 327-132 144-316 255-451 395-42 44-75 87-96 134h723V0H144v-117c124-264 387-411 582-603 73-72 151-147 151-271 0-161-104-231-266-231-163 0-249 90-268 238l-184-17c35-233 185-369 452-369" id="bp"/><g id="E"><use transform="matrix(0.010850694444444444,0,0,0.010850694444444444,0,0)" xlink:href="#bo"/><use transform="matrix(0.010850694444444444,0,0,0.010850694444444444,13.335503472222221,0)" xlink:href="#bp"/></g><path fill="#ba23f6" d="M709-1193V0H519v-1193H76v-156h1076v156H709" id="bq"/><path fill="#ba23f6" d="M617-1102c355 0 481 238 477 599H322c5 222 84 388 301 388 144 0 244-59 284-166l158 45C1002-72 854 20 623 20c-342 0-490-220-490-568 0-346 151-554 484-554zm291 461c-18-192-90-328-289-328-194 0-287 128-295 328h584" id="br"/><path fill="#ba23f6" d="M904-1102c199 0 220 177 220 381V0H956v-686c-3-114 0-215-60-264-70-33-125-4-158 71-26 56-39 140-39 252V0H531v-686c-3-114-1-215-61-264-78-41-136 24-157 84-24 69-39 159-39 259V0H105c-3-360 6-732-6-1082h149c6 50 3 123 8 175 36-100 83-195 216-195 135 0 166 79 196 196 42-105 93-196 236-196" id="bs"/><path fill="#ba23f6" d="M698-1104c312 3 392 244 392 558 0 315-82 566-392 566-169 0-277-65-331-184h-5c8 188 2 394 4 589H185V-858c0-76-1-156-6-224h175c6 52 9 120 10 178h4c58-122 150-202 330-200zm-49 991c225 0 255-203 255-433 0-225-32-419-253-419-236 0-285 192-285 441 0 237 53 411 283 411" id="bt"/><path fill="#ba23f6" d="M736-142h380V0H134v-142h422v-1200H267v-142h469v1342" id="bu"/><g id="F"><use transform="matrix(0.010850694444444444,0,0,0.010850694444444444,0,0)" xlink:href="#bq"/><use transform="matrix(0.010850694444444444,0,0,0.010850694444444444,13.335503472222221,0)" xlink:href="#br"/><use transform="matrix(0.010850694444444444,0,0,0.010850694444444444,26.671006944444443,0)" xlink:href="#bs"/><use transform="matrix(0.010850694444444444,0,0,0.010850694444444444,40.006510416666664,0)" xlink:href="#bt"/><use transform="matrix(0.010850694444444444,0,0,0.010850694444444444,53.342013888888886,0)" xlink:href="#bu"/><use transform="matrix(0.010850694444444444,0,0,0.010850694444444444,66.67751736111111,0)" xlink:href="#bl"/><use transform="matrix(0.010850694444444444,0,0,0.010850694444444444,80.01302083333334,0)" xlink:href="#bj"/><use transform="matrix(0.010850694444444444,0,0,0.010850694444444444,93.34852430555557,0)" xlink:href="#br"/><use transform="matrix(0.010850694444444444,0,0,0.010850694444444444,106.6840277777778,0)" xlink:href="#bn"/></g><path fill="#ba23f6" d="M614-1226c-167 1-283 53-283 213 0 183 186 193 334 234 230 63 463 120 463 409 0 286-219 387-518 390C309 23 131-98 79-338l185-37c34 165 149 248 351 246 184-2 324-58 324-238 0-203-207-221-372-266-210-57-422-111-422-377 0-267 201-356 470-360 279-5 430 101 480 324l-188 33c-28-141-121-215-293-213" id="bv"/><path fill="#ba23f6" d="M745-142h380V0H143v-142h422v-798H246v-142h499v940zM545-1292v-192h200v192H545" id="bw"/><path fill="#ba23f6" d="M1034 0L896-382H333L196 0H0l510-1349h217L1228 0h-194zM847-531c-77-225-157-447-231-674-69 231-154 451-232 674h463" id="bx"/><path fill="#ba23f6" d="M873-819c-18-114-119-146-250-146-163 0-245 50-245 151 0 151 170 148 294 185 182 54 388 94 388 320 0 240-189 325-439 329-245 4-410-69-454-268l159-31c24 133 136 168 295 165 144-2 270-31 270-171 0-164-195-160-331-202-167-52-350-87-350-299 0-218 173-315 413-313 220 2 373 77 412 260" id="by"/><g id="G"><use transform="matrix(0.010850694444444444,0,0,0.010850694444444444,0,0)" xlink:href="#bv"/><use transform="matrix(0.010850694444444444,0,0,0.010850694444444444,13.335503472222221,0)" xlink:href="#bw"/><use transform="matrix(0.010850694444444444,0,0,0.010850694444444444,26.671006944444443,0)" xlink:href="#bs"/><use transform="matrix(0.010850694444444444,0,0,0.010850694444444444,40.006510416666664,0)" xlink:href="#bt"/><use transform="matrix(0.010850694444444444,0,0,0.010850694444444444,53.342013888888886,0)" xlink:href="#bu"/><use transform="matrix(0.010850694444444444,0,0,0.010850694444444444,66.67751736111111,0)" xlink:href="#br"/><use transform="matrix(0.010850694444444444,0,0,0.010850694444444444,80.01302083333334,0)" xlink:href="#bx"/><use transform="matrix(0.010850694444444444,0,0,0.010850694444444444,93.34852430555557,0)" xlink:href="#by"/><use transform="matrix(0.010850694444444444,0,0,0.010850694444444444,106.6840277777778,0)" xlink:href="#by"/><use transform="matrix(0.010850694444444444,0,0,0.010850694444444444,120.01953125000003,0)" xlink:href="#br"/><use transform="matrix(0.010850694444444444,0,0,0.010850694444444444,133.35503472222226,0)" xlink:href="#bj"/></g><path fill="#ba23f6" d="M648-963c-190 6-283 138-283 336V0H185v-1484h181c-2 197 6 404-9 587h3c62-120 159-205 339-205 242 0 351 135 350 381V0H868v-695c1-168-57-273-220-268" id="bz"/><g id="H"><use transform="matrix(0.010850694444444444,0,0,0.010850694444444444,0,0)" xlink:href="#bg"/><use transform="matrix(0.010850694444444444,0,0,0.010850694444444444,13.335503472222221,0)" xlink:href="#bz"/><use transform="matrix(0.010850694444444444,0,0,0.010850694444444444,26.671006944444443,0)" xlink:href="#bh"/><use transform="matrix(0.010850694444444444,0,0,0.010850694444444444,40.006510416666664,0)" xlink:href="#bw"/><use transform="matrix(0.010850694444444444,0,0,0.010850694444444444,53.342013888888886,0)" xlink:href="#bm"/><use transform="matrix(0.010850694444444444,0,0,0.010850694444444444,66.67751736111111,0)" xlink:href="#br"/><use transform="matrix(0.010850694444444444,0,0,0.010850694444444444,80.01302083333334,0)" xlink:href="#bn"/></g><path fill="#ba23f6" d="M839-1335c-182-6-269 67-259 253h491v142H580V0H400v-940H138v-142h262c-15-293 132-408 418-402 94 2 200 7 281 21v145c-75-10-177-14-260-17" id="bA"/><g id="I"><use transform="matrix(0.010850694444444444,0,0,0.010850694444444444,0,0)" xlink:href="#bq"/><use transform="matrix(0.010850694444444444,0,0,0.010850694444444444,13.335503472222221,0)" xlink:href="#bk"/><use transform="matrix(0.010850694444444444,0,0,0.010850694444444444,26.671006944444443,0)" xlink:href="#bl"/><use transform="matrix(0.010850694444444444,0,0,0.010850694444444444,40.006510416666664,0)" xlink:href="#bi"/><use transform="matrix(0.010850694444444444,0,0,0.010850694444444444,53.342013888888886,0)" xlink:href="#by"/><use transform="matrix(0.010850694444444444,0,0,0.010850694444444444,66.67751736111111,0)" xlink:href="#bA"/><use transform="matrix(0.010850694444444444,0,0,0.010850694444444444,80.01302083333334,0)" xlink:href="#br"/><use transform="matrix(0.010850694444444444,0,0,0.010850694444444444,93.34852430555557,0)" xlink:href="#bk"/></g><path fill="#ba23f6" d="M1018 0H814c-67-224-138-444-200-673C552-442 476-224 407 0H204L21-1082h178c43 310 105 601 126 933 54-225 128-425 193-638h193c63 212 134 415 185 638 22-336 90-622 136-933h176" id="bB"/><path fill="#ba23f6" d="M102-681c0-398 126-689 513-689 165 0 291 58 379 174s132 287 132 515c-1 318-88 554-298 657-123 61-317 58-438-3-206-104-288-341-288-654zm749 406c94-160 97-656-5-807-57-85-130-132-231-132-104 0-178 47-234 132-101 153-99 655 1 809 57 89 130 138 232 138 109 0 184-49 237-140" id="bC"/><g id="K"><use transform="matrix(0.010850694444444444,0,0,0.010850694444444444,0,0)" xlink:href="#bi"/><use transform="matrix(0.010850694444444444,0,0,0.010850694444444444,13.335503472222221,0)" xlink:href="#br"/><use transform="matrix(0.010850694444444444,0,0,0.010850694444444444,26.671006944444443,0)" xlink:href="#bB"/><use transform="matrix(0.010850694444444444,0,0,0.010850694444444444,40.006510416666664,0)" xlink:href="#bC"/><use transform="matrix(0.010850694444444444,0,0,0.010850694444444444,53.342013888888886,0)" xlink:href="#bB"/><use transform="matrix(0.010850694444444444,0,0,0.010850694444444444,66.67751736111111,0)" xlink:href="#bi"/><use transform="matrix(0.010850694444444444,0,0,0.010850694444444444,80.01302083333334,0)" xlink:href="#br"/><use transform="matrix(0.010850694444444444,0,0,0.010850694444444444,93.34852430555557,0)" xlink:href="#bk"/><use transform="matrix(0.010850694444444444,0,0,0.010850694444444444,106.6840277777778,0)" xlink:href="#bn"/></g><g id="L"><use transform="matrix(0.010850694444444444,0,0,0.010850694444444444,0,0)" xlink:href="#bx"/><use transform="matrix(0.010850694444444444,0,0,0.010850694444444444,13.335503472222221,0)" xlink:href="#bu"/><use transform="matrix(0.010850694444444444,0,0,0.010850694444444444,26.671006944444443,0)" xlink:href="#bw"/><use transform="matrix(0.010850694444444444,0,0,0.010850694444444444,40.006510416666664,0)" xlink:href="#bm"/><use transform="matrix(0.010850694444444444,0,0,0.010850694444444444,53.342013888888886,0)" xlink:href="#br"/></g><g id="M"><use transform="matrix(0.010850694444444444,0,0,0.010850694444444444,0,0)" xlink:href="#bx"/><use transform="matrix(0.010850694444444444,0,0,0.010850694444444444,13.335503472222221,0)" xlink:href="#bm"/><use transform="matrix(0.010850694444444444,0,0,0.010850694444444444,26.671006944444443,0)" xlink:href="#bj"/><use transform="matrix(0.010850694444444444,0,0,0.010850694444444444,40.006510416666664,0)" xlink:href="#bh"/><use transform="matrix(0.010850694444444444,0,0,0.010850694444444444,53.342013888888886,0)" xlink:href="#bk"/><use transform="matrix(0.010850694444444444,0,0,0.010850694444444444,66.67751736111111,0)" xlink:href="#by"/><use transform="matrix(0.010850694444444444,0,0,0.010850694444444444,80.01302083333334,0)" xlink:href="#bn"/></g><path fill="#ba23f6" d="M802-711c201 25 350 118 350 331C1152-95 921 0 634 0H162v-1349c401 9 908-74 908 327 0 184-111 275-268 311zm-224-69c174-2 300-51 300-218 0-163-124-198-302-198H353v416h225zM353-153c281-2 612 44 606-244-5-271-329-233-606-234v478" id="bD"/><path fill="#ba23f6" d="M365-904c58-129 161-200 334-200 130 0 228 46 293 138s98 233 98 420c0 189-34 331-102 425S824 20 698 20c-170 0-275-64-336-184 0 55-3 116-9 164H179c5-68 6-147 6-223v-1261h180c-2 193 4 394-4 580h4zm283 791c221 0 256-197 256-427 0-229-34-425-254-425-236 0-285 195-285 441 0 237 53 411 283 411" id="bE"/><g id="N"><use transform="matrix(0.010850694444444444,0,0,0.010850694444444444,0,0)" xlink:href="#bD"/><use transform="matrix(0.010850694444444444,0,0,0.010850694444444444,13.335503472222221,0)" xlink:href="#bh"/><use transform="matrix(0.010850694444444444,0,0,0.010850694444444444,26.671006944444443,0)" xlink:href="#bE"/></g><path fill="#ba23f6" d="M1121-976c0 225-142 341-344 379L1177 0H957L591-575H353V0H162v-1349h482c281 3 477 100 477 373zM633-726c181-1 296-73 296-247 0-149-101-223-304-223H353v470h280" id="bF"/><path fill="#ba23f6" d="M528 20c-247 0-343-132-343-381v-721h180v686c-4 177 45 284 224 277 194-8 279-136 279-336v-627h181c3 360-6 732 6 1082H885c-4-54-7-126-8-185h-3C809-64 714 20 528 20" id="bG"/><g id="O"><use transform="matrix(0.010850694444444444,0,0,0.010850694444444444,0,0)" xlink:href="#bF"/><use transform="matrix(0.010850694444444444,0,0,0.010850694444444444,13.335503472222221,0)" xlink:href="#br"/><use transform="matrix(0.010850694444444444,0,0,0.010850694444444444,26.671006944444443,0)" xlink:href="#by"/><use transform="matrix(0.010850694444444444,0,0,0.010850694444444444,40.006510416666664,0)" xlink:href="#bG"/><use transform="matrix(0.010850694444444444,0,0,0.010850694444444444,53.342013888888886,0)" xlink:href="#bu"/><use transform="matrix(0.010850694444444444,0,0,0.010850694444444444,66.67751736111111,0)" xlink:href="#bj"/><use transform="matrix(0.010850694444444444,0,0,0.010850694444444444,80.01302083333334,0)" xlink:href="#bn"/></g><path fill="#ba23f6" d="M672-881c271 0 424 163 424 435 0 291-160 466-455 466-367 0-490-287-490-662 0-324 85-568 293-680 129-70 351-59 460 16 73 50 125 123 153 223l-172 31c-31-108-107-172-232-172-259 0-316 252-323 529 59-113 178-186 342-186zm-37 756c186 0 278-124 278-313s-96-304-284-304c-163 0-281 93-281 261 0 157 65 270 168 327 35 19 75 29 119 29" id="bH"/><g id="P"><use transform="matrix(0.010850694444444444,0,0,0.010850694444444444,0,0)" xlink:href="#bo"/><use transform="matrix(0.010850694444444444,0,0,0.010850694444444444,13.335503472222221,0)" xlink:href="#bH"/></g><path fill="#ba23f6" d="M872-915c-35-112-84-223-220-223-91 0-156 41-204 116-89 137-87 550 2 688 51 79 116 122 209 122 150 0 197-126 240-244l273 52C1094-168 961 20 656 20 239 20 80-262 80-681c0-418 154-689 568-689 289 0 425 167 496 389" id="bI"/><path fill="#ba23f6" d="M775-193C708-75 621 20 439 20 226 20 106-93 106-306c0-251 170-341 417-346l223-4c4-143-12-264-148-264-103 0-141 58-150 153l-293-14c37-219 194-321 455-321 263 0 418 130 417 390v392c1 84 5 161 89 160 21 0 42-2 62-6v152c-57 15-108 27-180 26-145 0-202-73-217-205h-6zm-256 17c168 0 234-139 227-325-166 4-347-25-347 173 0 94 33 152 120 152" id="bJ"/><path fill="#ba23f6" d="M711 13c-250 0-386-99-385-349l2-556H161v-190h181l88-282h176v282h385v190H606v530c-10 130 45 186 174 184 91-2 176-11 255-27v186C933-1 833 13 711 13" id="bK"/><g id="Q"><use transform="matrix(0.010850694444444444,0,0,0.010850694444444444,0,0)" xlink:href="#bI"/><use transform="matrix(0.010850694444444444,0,0,0.010850694444444444,13.335503472222221,0)" xlink:href="#bc"/><use transform="matrix(0.010850694444444444,0,0,0.010850694444444444,26.671006944444443,0)" xlink:href="#bb"/><use transform="matrix(0.010850694444444444,0,0,0.010850694444444444,40.006510416666664,0)" xlink:href="#bJ"/><use transform="matrix(0.010850694444444444,0,0,0.010850694444444444,53.342013888888886,0)" xlink:href="#bK"/><use transform="matrix(0.010850694444444444,0,0,0.010850694444444444,66.67751736111111,0)" xlink:href="#bb"/></g><path fill="#ba23f6" d="M621-530c0 421 127 700 301 955H641C466 173 344-110 344-531s122-702 297-953h281c-174 254-301 534-301 954" id="bL"/><path fill="#ba23f6" d="M616-1102c361 0 521 202 521 560 0 354-171 562-527 562C259 20 92-192 92-542c0-351 169-560 524-560zm-9 930c200-2 236-165 236-370 0-199-27-367-223-367-195 0-233 146-233 367 0 129 18 223 55 282s92 88 165 88" id="bM"/><path fill="#ba23f6" d="M768-1103c247 0 336 167 336 416V0H824v-619c-3-164-24-273-171-273-164 0-229 142-229 312V0H143c-4-359 9-736-8-1082h268c7 63 12 146 13 215h4c67-145 160-236 348-236" id="bN"/><g id="R"><use transform="matrix(0.010850694444444444,0,0,0.010850694444444444,0,0)" xlink:href="#bL"/><use transform="matrix(0.010850694444444444,0,0,0.010850694444444444,13.335503472222221,0)" xlink:href="#bI"/><use transform="matrix(0.010850694444444444,0,0,0.010850694444444444,26.671006944444443,0)" xlink:href="#bM"/><use transform="matrix(0.010850694444444444,0,0,0.010850694444444444,40.006510416666664,0)" xlink:href="#bN"/><use transform="matrix(0.010850694444444444,0,0,0.010850694444444444,53.342013888888886,0)" xlink:href="#bK"/><use transform="matrix(0.010850694444444444,0,0,0.010850694444444444,66.67751736111111,0)" xlink:href="#bc"/><use transform="matrix(0.010850694444444444,0,0,0.010850694444444444,80.01302083333334,0)" xlink:href="#bJ"/><use transform="matrix(0.010850694444444444,0,0,0.010850694444444444,93.34852430555557,0)" xlink:href="#bd"/><use transform="matrix(0.010850694444444444,0,0,0.010850694444444444,106.6840277777778,0)" xlink:href="#bK"/></g><path fill="#ba23f6" d="M951-835l-69 324h237v149H849L771 0H616l79-362H386L308 0H155l78-362H59v-149h206l70-324H108v-148h259l79-366h153l-78 366h308l79-366h153l-78 366h185v148H951zm-463 0l-70 324h309l70-324H488" id="bO"/><path fill="#ba23f6" d="M706-877c265 0 409 163 409 431 0 299-171 466-474 466-381 0-516-302-516-692 0-236 47-410 135-526 112-147 319-207 541-154 154 36 236 149 276 306l-265 37c-22-86-75-139-170-139-76 0-135 36-178 108s-64 179-64 318c54-94 164-155 306-155zm-74 678c138 0 201-98 201-239s-67-232-208-232c-125 0-205 73-205 202 0 149 67 269 212 269" id="bP"/><path fill="#ba23f6" d="M885-531c0 421-122 704-297 956H307c174-255 301-534 301-955 0-420-127-700-301-954h281c175 251 297 532 297 953" id="bQ"/><g id="S"><use transform="matrix(0.010850694444444444,0,0,0.010850694444444444,0,0)" xlink:href="#bO"/><use transform="matrix(0.010850694444444444,0,0,0.010850694444444444,13.335503472222221,0)" xlink:href="#bP"/><use transform="matrix(0.010850694444444444,0,0,0.010850694444444444,26.671006944444443,0)" xlink:href="#bQ"/></g><g id="T"><use transform="matrix(0.010850694444444444,0,0,0.010850694444444444,0,0)" xlink:href="#bw"/><use transform="matrix(0.010850694444444444,0,0,0.010850694444444444,13.335503472222221,0)" xlink:href="#by"/><use transform="matrix(0.010850694444444444,0,0,0.010850694444444444,26.671006944444443,0)" xlink:href="#by"/><use transform="matrix(0.010850694444444444,0,0,0.010850694444444444,40.006510416666664,0)" xlink:href="#bG"/><use transform="matrix(0.010850694444444444,0,0,0.010850694444444444,53.342013888888886,0)" xlink:href="#br"/><use transform="matrix(0.010850694444444444,0,0,0.010850694444444444,66.67751736111111,0)" xlink:href="#bk"/><use transform="matrix(0.010850694444444444,0,0,0.010850694444444444,80.01302083333334,0)" xlink:href="#bn"/></g><path fill="#ba23f6" d="M914 0L548-499l-132 98V0H236v-1484h180v927l475-525h211L663-617 1125 0H914" id="bR"/><g id="U"><use transform="matrix(0.010850694444444444,0,0,0.010850694444444444,0,0)" xlink:href="#bD"/><use transform="matrix(0.010850694444444444,0,0,0.010850694444444444,13.335503472222221,0)" xlink:href="#bl"/><use transform="matrix(0.010850694444444444,0,0,0.010850694444444444,26.671006944444443,0)" xlink:href="#bi"/><use transform="matrix(0.010850694444444444,0,0,0.010850694444444444,40.006510416666664,0)" xlink:href="#bR"/><use transform="matrix(0.010850694444444444,0,0,0.010850694444444444,53.342013888888886,0)" xlink:href="#bp"/></g><g id="V"><use transform="matrix(0.010850694444444444,0,0,0.010850694444444444,0,0)" xlink:href="#bh"/><use transform="matrix(0.010850694444444444,0,0,0.010850694444444444,13.335503472222221,0)" xlink:href="#bB"/><use transform="matrix(0.010850694444444444,0,0,0.010850694444444444,26.671006944444443,0)" xlink:href="#bi"/><use transform="matrix(0.010850694444444444,0,0,0.010850694444444444,40.006510416666664,0)" xlink:href="#br"/><use transform="matrix(0.010850694444444444,0,0,0.010850694444444444,53.342013888888886,0)" xlink:href="#bk"/><use transform="matrix(0.010850694444444444,0,0,0.010850694444444444,66.67751736111111,0)" xlink:href="#bn"/></g><g id="W"><use transform="matrix(0.010850694444444444,0,0,0.010850694444444444,0,0)" xlink:href="#bl"/><use transform="matrix(0.010850694444444444,0,0,0.010850694444444444,13.335503472222221,0)" xlink:href="#by"/><use transform="matrix(0.010850694444444444,0,0,0.010850694444444444,26.671006944444443,0)" xlink:href="#by"/><use transform="matrix(0.010850694444444444,0,0,0.010850694444444444,40.006510416666664,0)" xlink:href="#br"/><use transform="matrix(0.010850694444444444,0,0,0.010850694444444444,53.342013888888886,0)" xlink:href="#bj"/><use transform="matrix(0.010850694444444444,0,0,0.010850694444444444,66.67751736111111,0)" xlink:href="#bn"/></g><path fill="#ba23f6" d="M148-1120c216-7 379-89 463-229h166v1204h353V0H157v-145h439v-1021c-79 124-254 184-448 194v-148" id="bS"/><use transform="matrix(0.010850694444444444,0,0,0.010850694444444444,0,0)" xlink:href="#bS" id="X"/><path fill="#ba23f6" d="M604-135c236 0 291-142 291-376v-838h190v859c5 340-142 510-480 510-326 0-463-164-463-492v-877h191v851c-3 222 46 363 271 363" id="bT"/><path fill="#ba23f6" d="M473-1349c438-1 655 221 652 661C1122-268 945-8 532 0H162v-1349h311zm42 1193c308-4 416-205 418-532 2-330-131-509-459-505H353v1037h162" id="bU"/><g id="Y"><use transform="matrix(0.010850694444444444,0,0,0.010850694444444444,0,0)" xlink:href="#bT"/><use transform="matrix(0.010850694444444444,0,0,0.010850694444444444,13.335503472222221,0)" xlink:href="#bv"/><use transform="matrix(0.010850694444444444,0,0,0.010850694444444444,26.671006944444443,0)" xlink:href="#bU"/></g><path fill="#ba23f6" d="M1048-32c-2 300-135 456-433 456-222-1-358-88-400-267l184-25c22 99 100 157 222 156 184-2 248-125 248-315 0-64 3-133-2-194C807-100 706-13 524-12c-306 0-381-228-381-537 0-318 85-550 400-550 164 0 271 83 325 202h3c1-60 3-134 12-185h171c-13 339-4 702-6 1050zM585-145c210-8 284-178 284-406 0-192-52-331-177-392-33-16-69-22-104-22-223 2-259 184-259 414 0 229 31 415 256 406" id="bV"/><g id="Z"><use transform="matrix(0.010850694444444444,0,0,0.010850694444444444,0,0)" xlink:href="#bv"/><use transform="matrix(0.010850694444444444,0,0,0.010850694444444444,13.335503472222221,0)" xlink:href="#bw"/><use transform="matrix(0.010850694444444444,0,0,0.010850694444444444,26.671006944444443,0)" xlink:href="#bV"/><use transform="matrix(0.010850694444444444,0,0,0.010850694444444444,40.006510416666664,0)" xlink:href="#bi"/><use transform="matrix(0.010850694444444444,0,0,0.010850694444444444,53.342013888888886,0)" xlink:href="#bl"/><use transform="matrix(0.010850694444444444,0,0,0.010850694444444444,66.67751736111111,0)" xlink:href="#bj"/><use transform="matrix(0.010850694444444444,0,0,0.010850694444444444,80.01302083333334,0)" xlink:href="#bh"/><use transform="matrix(0.010850694444444444,0,0,0.010850694444444444,93.34852430555557,0)" xlink:href="#bk"/><use transform="matrix(0.010850694444444444,0,0,0.010850694444444444,106.6840277777778,0)" xlink:href="#bw"/><use transform="matrix(0.010850694444444444,0,0,0.010850694444444444,120.01953125000003,0)" xlink:href="#br"/><use transform="matrix(0.010850694444444444,0,0,0.010850694444444444,133.35503472222226,0)" xlink:href="#by"/><use transform="matrix(0.010850694444444444,0,0,0.010850694444444444,146.69053819444449,0)" xlink:href="#bn"/></g><path fill="#ba23f6" d="M715 0H502L69-1082h202c94 253 197 500 285 758 19 57 36 126 52 183 96-335 234-626 350-941h201" id="bW"/><g id="aa"><use transform="matrix(0.010850694444444444,0,0,0.010850694444444444,0,0)" xlink:href="#bC"/><use transform="matrix(0.010850694444444444,0,0,0.010850694444444444,13.335503472222221,0)" xlink:href="#bE"/><use transform="matrix(0.010850694444444444,0,0,0.010850694444444444,26.671006944444443,0)" xlink:href="#by"/><use transform="matrix(0.010850694444444444,0,0,0.010850694444444444,40.006510416666664,0)" xlink:href="#br"/><use transform="matrix(0.010850694444444444,0,0,0.010850694444444444,53.342013888888886,0)" xlink:href="#bk"/><use transform="matrix(0.010850694444444444,0,0,0.010850694444444444,66.67751736111111,0)" xlink:href="#bW"/><use transform="matrix(0.010850694444444444,0,0,0.010850694444444444,80.01302083333334,0)" xlink:href="#br"/><use transform="matrix(0.010850694444444444,0,0,0.010850694444444444,93.34852430555557,0)" xlink:href="#bk"/><use transform="matrix(0.010850694444444444,0,0,0.010850694444444444,106.6840277777778,0)" xlink:href="#by"/><use transform="matrix(0.010850694444444444,0,0,0.010850694444444444,120.01953125000003,0)" xlink:href="#bn"/></g><g id="ab"><use transform="matrix(0.010850694444444444,0,0,0.010850694444444444,0,0)" xlink:href="#bx"/><use transform="matrix(0.010850694444444444,0,0,0.010850694444444444,13.335503472222221,0)" xlink:href="#bu"/><use transform="matrix(0.010850694444444444,0,0,0.010850694444444444,26.671006944444443,0)" xlink:href="#bw"/><use transform="matrix(0.010850694444444444,0,0,0.010850694444444444,40.006510416666664,0)" xlink:href="#bm"/><use transform="matrix(0.010850694444444444,0,0,0.010850694444444444,53.342013888888886,0)" xlink:href="#br"/></g></defs></g></svg>