<svg xmlns="http://www.w3.org/2000/svg" xmlns:xlink="http://www.w3.org/1999/xlink" xmlns:lucid="lucid" width="980" height="620.33"><g transform="translate(-240 -420)" lucid:page-tab-id="0_0"><path d="M260 499.67h196.67v100H260z" stroke="#b2b2b2" stroke-width="2" fill="#ccc"/><use xlink:href="#a" transform="matrix(1,0,0,1,265,504.66666666666663) translate(0 90.57777777777778)"/><path d="M277.67 526.25H439v46.83H277.67z" stroke="#000" stroke-opacity="0" stroke-width="2" fill="#fff" fill-opacity="0"/><use xlink:href="#b" transform="matrix(1,0,0,1,282.66666666666663,531.2500000000003) translate(13.71604938271605 22.40277777777778)"/><use xlink:href="#c" transform="matrix(1,0,0,1,282.66666666666663,531.2500000000003) translate(50.75308641975309 22.40277777777778)"/><use xlink:href="#d" transform="matrix(1,0,0,1,282.66666666666663,531.2500000000003) translate(123.46913580246914 22.40277777777778)"/><path d="M458.5 550.2l84.9 54.06" stroke="#000" stroke-width="2" fill="none"/><path d="M459.07 549.37l-1.08 1.7-.33-.22v-2.37z"/><path d="M556.27 612.46l-14.52-3.75 4.98-7.8z" stroke="#000" stroke-width="2"/><path d="M560 440h300v100H560z" stroke="#b2b2b2" stroke-width="2" fill="#ccc"/><use xlink:href="#e" transform="matrix(1,0,0,1,565,445) translate(0 90.57777777777778)"/><path d="M560.58 460h300v63.33h-300z" stroke="#000" stroke-opacity="0" stroke-width="2" fill="#fff" fill-opacity="0"/><use xlink:href="#f" transform="matrix(1,0,0,1,565.5833333333333,465) translate(34.66049382716051 31.27777777777778)"/><use xlink:href="#g" transform="matrix(1,0,0,1,565.5833333333333,465) translate(96.32716049382717 31.27777777777778)"/><use xlink:href="#h" transform="matrix(1,0,0,1,565.5833333333333,465) translate(116.08024691358025 31.27777777777778)"/><use xlink:href="#i" transform="matrix(1,0,0,1,565.5833333333333,465) translate(160.46296296296296 31.27777777777778)"/><use xlink:href="#j" transform="matrix(1,0,0,1,565.5833333333333,465) translate(233.179012345679 31.27777777777778)"/><path d="M560 564.2h300v100H560z" stroke="#b2b2b2" stroke-width="2" fill="#ccc"/><use xlink:href="#k" transform="matrix(1,0,0,1,565,569.1999996999998) translate(0 90.57777777777778)"/><path d="M560.58 584.2H860v63.33H560.58z" stroke="#000" stroke-opacity="0" stroke-width="2" fill="#fff" fill-opacity="0"/><use xlink:href="#f" transform="matrix(1,0,0,1,565.5833333333333,589.1999996999999) translate(16.141975308641975 31.27777777777778)"/><use xlink:href="#l" transform="matrix(1,0,0,1,565.5833333333333,589.1999996999999) translate(77.80864197530863 31.27777777777778)"/><use xlink:href="#h" transform="matrix(1,0,0,1,565.5833333333333,589.1999996999999) translate(134.59876543209876 31.27777777777778)"/><use xlink:href="#i" transform="matrix(1,0,0,1,565.5833333333333,589.1999996999999) translate(178.98148148148147 31.27777777777778)"/><use xlink:href="#j" transform="matrix(1,0,0,1,565.5833333333333,589.1999996999999) translate(251.69753086419752 31.27777777777778)"/><path d="M940 440h260v224.2H940z" stroke="#b2b2b2" stroke-width="2" fill="#ccc"/><use xlink:href="#m" transform="matrix(1,0,0,1,945,445) translate(0 212.83678577777778)"/><path d="M1072 524.33v56.83M1068 524.33v56.83" stroke="#000" stroke-width="2" fill="none"/><path d="M1073 524.36h-2v-1.03h2zM1069 524.36h-2v-1.03h2z"/><path d="M1070 596.43l-4.64-14.27h9.28z" stroke="#000" stroke-width="2"/><path d="M960 460h220v63.33H960z" stroke="#000" stroke-opacity="0" stroke-width="2" fill="#fff" fill-opacity="0"/><use xlink:href="#n" transform="matrix(1,0,0,1,965,465) translate(0 31.27777777777778)"/><use xlink:href="#o" transform="matrix(1,0,0,1,965,465) translate(45.67901234567901 31.27777777777778)"/><use xlink:href="#p" transform="matrix(1,0,0,1,965,465) translate(66.66666666666666 31.27777777777778)"/><use xlink:href="#c" transform="matrix(1,0,0,1,965,465) translate(111.04938271604937 31.27777777777778)"/><use xlink:href="#q" transform="matrix(1,0,0,1,965,465) translate(183.76543209876542 31.27777777777778)"/><path d="M1000 599.67h140V646h-140z" stroke="#000" stroke-opacity="0" stroke-width="2" fill="#fff" fill-opacity="0"/><use xlink:href="#b" transform="matrix(1,0,0,1,1005,604.6666666666667) translate(0 22.40277777777778)"/><use xlink:href="#c" transform="matrix(1,0,0,1,1005,604.6666666666667) translate(37.03703703703704 22.40277777777778)"/><use xlink:href="#r" transform="matrix(1,0,0,1,1005,604.6666666666667) translate(109.75308641975309 22.40277777777778)"/><path d="M458.53 549.16l84.53-49.77" stroke="#000" stroke-width="2" fill="none"/><path d="M459.06 550l-1.4.83v-2.32l.38-.22z"/><path d="M556.2 491.64l-9.93 11.23-4.7-7.98z" stroke="#000" stroke-width="2"/><path d="M862 490h58.5" stroke="#000" stroke-width="2" fill="none"/><path d="M862.03 491H861v-2h1.03z"/><path d="M935.76 490l-14.26 4.64v-9.28z" stroke="#000" stroke-width="2"/><path d="M862 614.2h58.5" stroke="#000" stroke-width="2" fill="none"/><path d="M862.03 615.2H861v-2h1.03z"/><path d="M935.76 614.2l-14.26 4.64v-9.28z" stroke="#000" stroke-width="2"/><path d="M260 760h240v100H260z" stroke="#b2b2b2" stroke-width="2" fill="#ccc"/><use xlink:href="#s" transform="matrix(1,0,0,1,265,765) translate(0 90.57777777777778)"/><path d="M260 778.33h240v63.34H260z" stroke="#000" stroke-opacity="0" stroke-width="2" fill="#fff" fill-opacity="0"/><use xlink:href="#t" transform="matrix(1,0,0,1,265,783.3333333333335) translate(52.80864197530863 17.77777777777778)"/><use xlink:href="#u" transform="matrix(1,0,0,1,265,783.3333333333335) translate(44.074074074074076 44.44444444444444)"/><use xlink:href="#v" transform="matrix(1,0,0,1,265,783.3333333333335) translate(100.80246913580248 44.44444444444444)"/><use xlink:href="#w" transform="matrix(1,0,0,1,265,783.3333333333335) translate(163.76543209876544 44.44444444444444)"/><path d="M260 920.33h240v100H260z" stroke="#b2b2b2" stroke-width="2" fill="#ccc"/><use xlink:href="#x" transform="matrix(1,0,0,1,265,925.3333333333333) translate(0 90.57777777777778)"/><path d="M260 938.33h240v63.34H260z" stroke="#000" stroke-opacity="0" stroke-width="2" fill="#fff" fill-opacity="0"/><use xlink:href="#y" transform="matrix(1,0,0,1,265,943.3333333333335) translate(17.22222222222223 31.27777777777778)"/><use xlink:href="#z" transform="matrix(1,0,0,1,265,943.3333333333335) translate(60.43209876543211 31.27777777777778)"/><use xlink:href="#A" transform="matrix(1,0,0,1,265,943.3333333333335) translate(142.46913580246914 31.27777777777778)"/><use xlink:href="#B" transform="matrix(1,0,0,1,265,943.3333333333335) translate(163.45679012345678 31.27777777777778)"/><use xlink:href="#C" transform="matrix(1,0,0,1,265,943.3333333333335) translate(200.4320987654321 31.27777777777778)"/><path d="M620 760h578.83v260.33H620z" stroke="#b2b2b2" stroke-width="2" fill="#ccc"/><use xlink:href="#D" transform="matrix(1,0,0,1,625,765) translate(0 249.01102577777777)"/><path d="M779.42 780h299.4v63.33h-299.4z" stroke="#000" stroke-opacity="0" stroke-width="2" fill="#fff" fill-opacity="0"/><use xlink:href="#E" transform="matrix(1,0,0,1,784.4166666666667,785) translate(6.759259259259295 31.27777777777778)"/><use xlink:href="#F" transform="matrix(1,0,0,1,784.4166666666667,785) translate(52.43827160493831 31.27777777777778)"/><use xlink:href="#G" transform="matrix(1,0,0,1,784.4166666666667,785) translate(72.99382716049386 31.27777777777778)"/><use xlink:href="#z" transform="matrix(1,0,0,1,784.4166666666667,785) translate(123.54938271604942 31.27777777777778)"/><use xlink:href="#A" transform="matrix(1,0,0,1,784.4166666666667,785) translate(205.58641975308643 31.27777777777778)"/><use xlink:href="#H" transform="matrix(1,0,0,1,784.4166666666667,785) translate(226.57407407407408 31.27777777777778)"/><use xlink:href="#I" transform="matrix(1,0,0,1,784.4166666666667,785) translate(263.54938271604937 31.27777777777778)"/><path d="M620 940h299.42v63.33H620z" stroke="#000" stroke-opacity="0" stroke-width="2" fill="#fff" fill-opacity="0"/><g><use xlink:href="#E" transform="matrix(1,0,0,1,625,945) translate(3.1481481481481524 31.27777777777778)"/><use xlink:href="#J" transform="matrix(1,0,0,1,625,945) translate(48.827160493827165 31.27777777777778)"/><use xlink:href="#K" transform="matrix(1,0,0,1,625,945) translate(119.19753086419752 31.27777777777778)"/><use xlink:href="#h" transform="matrix(1,0,0,1,625,945) translate(147.59259259259258 31.27777777777778)"/><use xlink:href="#i" transform="matrix(1,0,0,1,625,945) translate(191.9753086419753 31.27777777777778)"/><use xlink:href="#L" transform="matrix(1,0,0,1,625,945) translate(264.69135802469134 31.27777777777778)"/></g><path d="M980 938.33h219.42v63.34H980z" stroke="#000" stroke-opacity="0" stroke-width="2" fill="#fff" fill-opacity="0"/><g><use xlink:href="#y" transform="matrix(1,0,0,1,985.0000000000001,943.3333333333335) translate(7.2222222222222285 31.27777777777778)"/><use xlink:href="#z" transform="matrix(1,0,0,1,985.0000000000001,943.3333333333335) translate(50.43209876543211 31.27777777777778)"/><use xlink:href="#A" transform="matrix(1,0,0,1,985.0000000000001,943.3333333333335) translate(132.46913580246914 31.27777777777778)"/><use xlink:href="#B" transform="matrix(1,0,0,1,985.0000000000001,943.3333333333335) translate(153.45679012345678 31.27777777777778)"/><use xlink:href="#M" transform="matrix(1,0,0,1,985.0000000000001,943.3333333333335) translate(190.4320987654321 31.27777777777778)"/></g><path d="M929.3 845.56l-142.73 86.56M927.23 842.14L784.5 928.7" stroke="#000" stroke-width="2" fill="none"/><path d="M933.25 844.34l-3.45 2.1-1.03-1.72 2.28-1.4h1.58z"/><path/><path d="M772.48 938.32l9.8-11.36 4.8 7.93z" stroke="#000" stroke-width="2"/><path d="M931 842.12l143.8 85.07M928.97 845.56l143.8 85.07" stroke="#000" stroke-width="2" fill="none"/><path/><path d="M929.5 844.72l-1.02 1.72-3.46-2.05.62-1.07h1.52z"/><path d="M1086.92 936.7l-14.64-3.3 4.73-7.97z" stroke="#000" stroke-width="2"/><path d="M380 862v38.83" stroke="#000" stroke-width="2" fill="none"/><path d="M381 862.03h-2V861h2z"/><path d="M380 916.1l-4.64-14.27h9.28z" stroke="#000" stroke-width="2"/><path d="M502 970.33h98.5" stroke="#000" stroke-width="2" fill="none"/><path d="M502.03 971.33H501v-2h1.03z"/><path d="M615.76 970.33l-14.26 4.64v-9.27z" stroke="#000" stroke-width="2"/><path d="M1070 666.2v74.3" stroke="#000" stroke-width="2" fill="none"/><path d="M1071 666.23h-2v-1.03h2z"/><path d="M1070 755.76l-4.64-14.26h9.28z" stroke="#000" stroke-width="2"/><defs><path fill="#3aa6dd" d="M72-63c-8 23 5 39 32 30L98-1C54 14 12-6 23-64l18-93H15l7-33h28l24-45h31l-8 45h35l-6 33H90" id="N"/><path fill="#3aa6dd" d="M127 0L95-67 37 0h-53l89-99-49-91h52l30 61 52-61h54l-85 92 52 98h-52" id="O"/><path fill="#3aa6dd" d="M6 0l7-41h62l31-161-67 37 8-42 70-41h48L124-41h57l-8 41H6" id="P"/><g id="a"><use transform="matrix(0.06172839506172839,0,0,0.06172839506172839,0,0)" xlink:href="#N"/><use transform="matrix(0.06172839506172839,0,0,0.06172839506172839,7.345679012345679,0)" xlink:href="#O"/><use transform="matrix(0.06172839506172839,0,0,0.06172839506172839,19.691358024691358,0)" xlink:href="#P"/></g><path d="M33 0v-248h34V0H33" id="Q"/><path d="M100-194c62-1 85 37 85 99 1 63-27 99-86 99S16-35 15-95c0-66 28-99 85-99zM99-20c44 1 53-31 53-75 0-43-8-75-51-75s-53 32-53 75 10 74 51 75" id="R"/><path d="M84 4C-5 8 30-112 23-190h32v120c0 31 7 50 39 49 72-2 45-101 50-169h31l1 190h-30c-1-10 1-25-2-33-11 22-28 36-60 37" id="S"/><g id="b"><use transform="matrix(0.06172839506172839,0,0,0.06172839506172839,0,0)" xlink:href="#Q"/><use transform="matrix(0.06172839506172839,0,0,0.06172839506172839,6.172839506172839,0)" xlink:href="#R"/><use transform="matrix(0.06172839506172839,0,0,0.06172839506172839,18.51851851851852,0)" xlink:href="#S"/></g><path d="M194-70c0 46-34 64-81 66v29H91V-4C42-5 12-27 4-67l30-6c5 28 25 41 57 43v-87c-38-9-76-20-76-67 1-42 33-58 76-59v-23h22v23c45 0 67 20 76 56l-31 6c-5-23-18-35-45-37v78c41 10 81 20 81 70zm-81 41c51 7 71-66 19-77-6-2-12-4-19-6v83zM91-219c-47-6-63 57-18 69 6 2 12 3 18 5v-74" id="T"/><path d="M182-130c37 4 62 22 62 59C244 23 116-4 24 0v-248c84 5 203-23 205 63 0 31-19 50-47 55zM76-148c40-3 101 13 101-30 0-44-60-28-101-31v61zm0 110c48-3 116 14 116-37 0-48-69-32-116-35v72" id="U"/><path d="M133-34C117-15 103 5 69 4 32 3 11-16 11-54c-1-60 55-63 116-61 1-26-3-47-28-47-18 1-26 9-28 27l-52-2c7-38 36-58 82-57s74 22 75 68l1 82c-1 14 12 18 25 15v27c-30 8-71 5-69-32zm-48 3c29 0 43-24 42-57-32 0-66-3-65 30 0 17 8 27 23 27" id="V"/><path d="M135-194c87-1 58 113 63 194h-50c-7-57 23-157-34-157-59 0-34 97-39 157H25l-1-190h47c2 12-1 28 3 38 12-26 28-41 61-42" id="W"/><path d="M147 0L96-86 75-71V0H25v-261h50v150l67-79h53l-66 74L201 0h-54" id="X"/><g id="c"><use transform="matrix(0.06172839506172839,0,0,0.06172839506172839,0,0)" xlink:href="#T"/><use transform="matrix(0.06172839506172839,0,0,0.06172839506172839,12.345679012345679,0)" xlink:href="#U"/><use transform="matrix(0.06172839506172839,0,0,0.06172839506172839,28.333333333333332,0)" xlink:href="#V"/><use transform="matrix(0.06172839506172839,0,0,0.06172839506172839,40.67901234567901,0)" xlink:href="#W"/><use transform="matrix(0.06172839506172839,0,0,0.06172839506172839,54.19753086419753,0)" xlink:href="#X"/></g><path d="M205 0l-28-72H64L36 0H1l101-248h38L239 0h-34zm-38-99l-47-123c-12 45-31 82-46 123h93" id="Y"/><g id="d"><use transform="matrix(0.06172839506172839,0,0,0.06172839506172839,0,0)" xlink:href="#Y"/><path d="M-1.1 1.54h17.03v1.63H-1.1z"/></g><path fill="#3aa6dd" d="M121-251c83 0 93 87 42 126-35 27-77 48-103 84h115l-7 41H-6C6-94 102-103 141-168c11-20 3-46-24-44-23 2-33 13-39 32l-47-10c12-38 39-61 90-61" id="Z"/><g id="e"><use transform="matrix(0.06172839506172839,0,0,0.06172839506172839,0,0)" xlink:href="#N"/><use transform="matrix(0.06172839506172839,0,0,0.06172839506172839,7.345679012345679,0)" xlink:href="#O"/><use transform="matrix(0.06172839506172839,0,0,0.06172839506172839,19.691358024691358,0)" xlink:href="#Z"/></g><path d="M24 0v-248h195v40H76v63h132v40H76v65h150V0H24" id="aa"/><path d="M144 0l-44-69L55 0H2l70-98-66-92h53l41 62 40-62h54l-67 91 71 99h-54" id="ab"/><path d="M185-48c-13 30-37 53-82 52C43 2 14-33 14-96s30-98 90-98c62 0 83 45 84 108H66c0 31 8 55 39 56 18 0 30-7 34-22zm-45-69c5-46-57-63-70-21-2 6-4 13-4 21h74" id="ac"/><path d="M175 0L67-191c6 58 2 128 3 191H24v-248h59L193-55c-6-58-2-129-3-193h46V0h-61" id="ad"/><g id="f"><use transform="matrix(0.06172839506172839,0,0,0.06172839506172839,0,0)" xlink:href="#aa"/><use transform="matrix(0.06172839506172839,0,0,0.06172839506172839,14.814814814814813,0)" xlink:href="#ab"/><use transform="matrix(0.06172839506172839,0,0,0.06172839506172839,27.160493827160494,0)" xlink:href="#ac"/><use transform="matrix(0.06172839506172839,0,0,0.06172839506172839,39.50617283950617,0)" xlink:href="#ad"/></g><use transform="matrix(0.06172839506172839,0,0,0.06172839506172839,0,0)" xlink:href="#Y" id="g"/><path d="M87 75C49 33 22-17 22-94c0-76 28-126 65-167h31c-38 41-64 92-64 168S80 34 118 75H87" id="ae"/><g id="h"><use transform="matrix(0.06172839506172839,0,0,0.06172839506172839,0,0)" xlink:href="#ae"/><use transform="matrix(0.06172839506172839,0,0,0.06172839506172839,7.345679012345679,0)" xlink:href="#Q"/><use transform="matrix(0.06172839506172839,0,0,0.06172839506172839,13.518518518518519,0)" xlink:href="#R"/><use transform="matrix(0.06172839506172839,0,0,0.06172839506172839,25.864197530864196,0)" xlink:href="#S"/></g><path d="M111-147c44 9 85 22 84 75-1 49-35 65-84 68v31H91V-4C40-5 12-27 5-72l45-8c4 24 15 38 41 40-2-22 4-51-2-69-39-10-76-22-76-72 0-47 35-60 78-63v-23h20v23c47 1 70 23 78 62l-46 7c-4-18-12-32-32-34v62zm-20-63c-33-4-45 46-13 54 4 1 8 2 13 4v-58zm20 170c39 5 53-51 15-60-7-2-7-2-15-4v64" id="af"/><g id="i"><use transform="matrix(0.06172839506172839,0,0,0.06172839506172839,0,0)" xlink:href="#af"/><use transform="matrix(0.06172839506172839,0,0,0.06172839506172839,12.345679012345679,0)" xlink:href="#U"/><use transform="matrix(0.06172839506172839,0,0,0.06172839506172839,28.333333333333332,0)" xlink:href="#V"/><use transform="matrix(0.06172839506172839,0,0,0.06172839506172839,40.67901234567901,0)" xlink:href="#W"/><use transform="matrix(0.06172839506172839,0,0,0.06172839506172839,54.19753086419753,0)" xlink:href="#X"/></g><path d="M33-261c38 41 65 92 65 168S71 34 33 75H2C39 34 66-17 66-93S39-220 2-261h31" id="ag"/><g id="j"><use transform="matrix(0.06172839506172839,0,0,0.06172839506172839,0,0)" xlink:href="#Y"/><use transform="matrix(0.06172839506172839,0,0,0.06172839506172839,14.814814814814813,0)" xlink:href="#ag"/><path d="M-1.1 1.54h24.37v1.63H-1.1z"/></g><path fill="#3aa6dd" d="M131-73c0-31-25-35-58-33l8-40c36 2 64-5 65-39 0-17-10-28-28-27-23 1-35 12-41 32l-47-9c11-39 39-63 90-62 44 1 76 17 76 60 0 42-26 59-63 64 28 5 48 20 48 54C181 22 9 32 3-60l49-7c3 21 16 31 40 31s39-13 39-37" id="ah"/><g id="k"><use transform="matrix(0.06172839506172839,0,0,0.06172839506172839,0,0)" xlink:href="#N"/><use transform="matrix(0.06172839506172839,0,0,0.06172839506172839,7.345679012345679,0)" xlink:href="#O"/><use transform="matrix(0.06172839506172839,0,0,0.06172839506172839,19.691358024691358,0)" xlink:href="#ah"/></g><path d="M160-131c35 5 61 23 61 61C221 17 115-2 30 0v-248c76 3 177-17 177 60 0 33-19 50-47 57zm-97-11c50-1 110 9 110-42 0-47-63-36-110-37v79zm0 115c55-2 124 14 124-45 0-56-70-42-124-44v89" id="ai"/><path d="M141-36C126-15 110 5 73 4 37 3 15-17 15-53c-1-64 63-63 125-63 3-35-9-54-41-54-24 1-41 7-42 31l-33-3c5-37 33-52 76-52 45 0 72 20 72 64v82c-1 20 7 32 28 27v20c-31 9-61-2-59-35zM48-53c0 20 12 33 32 33 41-3 63-29 60-74-43 2-92-5-92 41" id="aj"/><path d="M117-194c89-4 53 116 60 194h-32v-121c0-31-8-49-39-48C34-167 62-67 57 0H25l-1-190h30c1 10-1 24 2 32 11-22 29-35 61-36" id="ak"/><path d="M143 0L79-87 56-68V0H24v-261h32v163l83-92h37l-77 82L181 0h-38" id="al"/><g id="l"><use transform="matrix(0.06172839506172839,0,0,0.06172839506172839,0,0)" xlink:href="#ai"/><use transform="matrix(0.06172839506172839,0,0,0.06172839506172839,14.814814814814813,0)" xlink:href="#aj"/><use transform="matrix(0.06172839506172839,0,0,0.06172839506172839,27.160493827160494,0)" xlink:href="#ak"/><use transform="matrix(0.06172839506172839,0,0,0.06172839506172839,39.50617283950617,0)" xlink:href="#al"/></g><path fill="#3aa6dd" d="M154-50L144 0H97l10-50H-6l7-37 126-161h65L161-87h33l-7 37h-33zm-40-37l27-125c-29 45-64 83-95 125h68" id="am"/><g id="m"><use transform="matrix(0.06172839506172839,0,0,0.06172839506172839,0,0)" xlink:href="#N"/><use transform="matrix(0.06172839506172839,0,0,0.06172839506172839,7.345679012345679,0)" xlink:href="#O"/><use transform="matrix(0.06172839506172839,0,0,0.06172839506172839,19.691358024691358,0)" xlink:href="#am"/></g><g id="n"><use transform="matrix(0.06172839506172839,0,0,0.06172839506172839,0,0)" xlink:href="#aa"/><use transform="matrix(0.06172839506172839,0,0,0.06172839506172839,14.814814814814813,0)" xlink:href="#ab"/><use transform="matrix(0.06172839506172839,0,0,0.06172839506172839,27.160493827160494,0)" xlink:href="#ac"/></g><use transform="matrix(0.06172839506172839,0,0,0.06172839506172839,0,0)" xlink:href="#Y" id="o"/><g id="p"><use transform="matrix(0.06172839506172839,0,0,0.06172839506172839,0,0)" xlink:href="#ae"/><use transform="matrix(0.06172839506172839,0,0,0.06172839506172839,7.345679012345679,0)" xlink:href="#Q"/><use transform="matrix(0.06172839506172839,0,0,0.06172839506172839,13.518518518518519,0)" xlink:href="#R"/><use transform="matrix(0.06172839506172839,0,0,0.06172839506172839,25.864197530864196,0)" xlink:href="#S"/></g><g id="q"><use transform="matrix(0.06172839506172839,0,0,0.06172839506172839,0,0)" xlink:href="#Y"/><path d="M-1.1 1.54h17.03v1.63H-1.1z"/><use transform="matrix(0.06172839506172839,0,0,0.06172839506172839,14.814814814814813,0)" xlink:href="#ag"/></g><path d="M30-248c87 1 191-15 191 75 0 78-77 80-158 76V0H30v-248zm33 125c57 0 124 11 124-50 0-59-68-47-124-48v98" id="an"/><g id="r"><use transform="matrix(0.06172839506172839,0,0,0.06172839506172839,0,0)" xlink:href="#an"/><path d="M-1.1 1.54h17.03v1.63H-1.1z"/></g><path fill="#3aa6dd" d="M137-85c4-43-51-49-69-23H20l36-140h148l-7 41H92l-15 59c40-35 118-7 110 57C197 2 56 37 11-33c-5-8-6-16-7-25l49-8c4 19 14 30 37 30 30-1 44-19 47-49" id="ao"/><g id="s"><use transform="matrix(0.06172839506172839,0,0,0.06172839506172839,0,0)" xlink:href="#N"/><use transform="matrix(0.06172839506172839,0,0,0.06172839506172839,7.345679012345679,0)" xlink:href="#O"/><use transform="matrix(0.06172839506172839,0,0,0.06172839506172839,19.691358024691358,0)" xlink:href="#ao"/></g><path d="M110-194c64 0 96 36 96 99 0 64-35 99-97 99-61 0-95-36-95-99 0-62 34-99 96-99zm-1 164c35 0 45-28 45-65 0-40-10-65-43-65-34 0-45 26-45 65 0 36 10 65 43 65" id="ap"/><path d="M169-182c-1-43-94-46-97-3 18 66 151 10 154 114 3 95-165 93-204 36-6-8-10-19-12-30l50-8c3 46 112 56 116 5-17-69-150-10-154-114-4-87 153-88 188-35 5 8 8 18 10 28" id="aq"/><path d="M85 4C-2 5 27-109 22-190h50c7 57-23 150 33 157 60-5 35-97 40-157h50l1 190h-47c-2-12 1-28-3-38-12 25-28 42-61 42" id="ar"/><path d="M190-63c-7 42-38 67-86 67-59 0-84-38-90-98-12-110 154-137 174-36l-49 2c-2-19-15-32-35-32-30 0-35 28-38 64-6 74 65 87 74 30" id="as"/><path d="M114-157C55-157 80-60 75 0H25v-261h50l-1 109c12-26 28-41 61-42 86-1 58 113 63 194h-50c-7-57 23-157-34-157" id="at"/><path d="M195 0l-88-114-31 24V0H24v-248h52v113l112-113h60L142-143 257 0h-62" id="au"/><path d="M123 10C108 53 80 86 19 72V37c35 8 53-11 59-39L3-190h52l48 148c12-52 28-100 44-148h51" id="av"/><g id="t"><use transform="matrix(0.06172839506172839,0,0,0.06172839506172839,0,0)" xlink:href="#ad"/><use transform="matrix(0.06172839506172839,0,0,0.06172839506172839,15.987654320987653,0)" xlink:href="#ap"/><use transform="matrix(0.06172839506172839,0,0,0.06172839506172839,29.50617283950617,0)" xlink:href="#aq"/><use transform="matrix(0.06172839506172839,0,0,0.06172839506172839,44.32098765432099,0)" xlink:href="#ar"/><use transform="matrix(0.06172839506172839,0,0,0.06172839506172839,57.839506172839506,0)" xlink:href="#as"/><use transform="matrix(0.06172839506172839,0,0,0.06172839506172839,70.18518518518519,0)" xlink:href="#at"/><use transform="matrix(0.06172839506172839,0,0,0.06172839506172839,83.70370370370371,0)" xlink:href="#au"/><use transform="matrix(0.06172839506172839,0,0,0.06172839506172839,99.69135802469137,0)" xlink:href="#ac"/><use transform="matrix(0.06172839506172839,0,0,0.06172839506172839,112.03703703703705,0)" xlink:href="#av"/></g><path d="M96-169c-40 0-48 33-48 73s9 75 48 75c24 0 41-14 43-38l32 2c-6 37-31 61-74 61-59 0-76-41-82-99-10-93 101-131 147-64 4 7 5 14 7 22l-32 3c-4-21-16-35-41-35" id="aw"/><path d="M68-38c1 34 0 65-14 84H32c9-13 17-26 17-46H33v-38h35" id="ax"/><g id="u"><use transform="matrix(0.06172839506172839,0,0,0.06172839506172839,0,0)" xlink:href="#ae"/><use transform="matrix(0.06172839506172839,0,0,0.06172839506172839,7.345679012345679,0)" xlink:href="#Y"/><use transform="matrix(0.06172839506172839,0,0,0.06172839506172839,22.160493827160494,0)" xlink:href="#aw"/><use transform="matrix(0.06172839506172839,0,0,0.06172839506172839,33.27160493827161,0)" xlink:href="#aw"/><use transform="matrix(0.06172839506172839,0,0,0.06172839506172839,44.38271604938272,0)" xlink:href="#ax"/></g><g id="v"><use transform="matrix(0.06172839506172839,0,0,0.06172839506172839,0,0)" xlink:href="#ai"/><use transform="matrix(0.06172839506172839,0,0,0.06172839506172839,14.814814814814813,0)" xlink:href="#aj"/><use transform="matrix(0.06172839506172839,0,0,0.06172839506172839,27.160493827160494,0)" xlink:href="#ak"/><use transform="matrix(0.06172839506172839,0,0,0.06172839506172839,39.50617283950617,0)" xlink:href="#al"/><use transform="matrix(0.06172839506172839,0,0,0.06172839506172839,50.61728395061728,0)" xlink:href="#ax"/></g><g id="w"><use transform="matrix(0.06172839506172839,0,0,0.06172839506172839,0,0)" xlink:href="#an"/><use transform="matrix(0.06172839506172839,0,0,0.06172839506172839,14.814814814814813,0)" xlink:href="#ag"/></g><path fill="#3aa6dd" d="M189-94c-5 59-36 98-95 98-53 0-78-35-77-90 1-95 38-177 138-163 27 4 44 25 47 55l-47 7c-4-34-45-30-62-5-9 14-17 34-22 61 26-45 125-35 118 37zm-81-29c-49-6-61 88-10 88 46 5 60-88 10-88" id="ay"/><g id="x"><use transform="matrix(0.06172839506172839,0,0,0.06172839506172839,0,0)" xlink:href="#N"/><use transform="matrix(0.06172839506172839,0,0,0.06172839506172839,7.345679012345679,0)" xlink:href="#O"/><use transform="matrix(0.06172839506172839,0,0,0.06172839506172839,19.691358024691358,0)" xlink:href="#ay"/></g><g id="y"><use transform="matrix(0.06172839506172839,0,0,0.06172839506172839,0,0)" xlink:href="#Y"/><use transform="matrix(0.06172839506172839,0,0,0.06172839506172839,14.814814814814813,0)" xlink:href="#aw"/><use transform="matrix(0.06172839506172839,0,0,0.06172839506172839,25.925925925925924,0)" xlink:href="#aw"/></g><path d="M192-256c86 0 138 45 138 129 0 61-26 109-84 114-27 2-36-18-34-42-11 22-31 42-62 42-41 0-58-28-58-68 0-58 29-104 88-107 26-1 39 14 48 30l7-26h27L235-53c-1 11 6 15 14 16 38-7 54-45 54-90 0-68-42-104-111-104-92 0-143 58-143 150C49-9 89 32 162 32c43 0 75-12 103-28l11 22c-32 17-67 31-116 31C71 57 21 7 21-81c0-109 65-175 171-175zM156-38c42-5 58-44 60-89 1-24-14-38-37-38-41 0-55 40-57 84-1 25 9 46 34 43" id="az"/><g id="z"><use transform="matrix(0.06172839506172839,0,0,0.06172839506172839,0,0)" xlink:href="#az"/><use transform="matrix(0.06172839506172839,0,0,0.06172839506172839,21.666666666666664,0)" xlink:href="#U"/><use transform="matrix(0.06172839506172839,0,0,0.06172839506172839,37.654320987654316,0)" xlink:href="#V"/><use transform="matrix(0.06172839506172839,0,0,0.06172839506172839,49.99999999999999,0)" xlink:href="#W"/><use transform="matrix(0.06172839506172839,0,0,0.06172839506172839,63.51851851851851,0)" xlink:href="#X"/></g><g id="A"><use transform="matrix(0.06172839506172839,0,0,0.06172839506172839,0,0)" xlink:href="#an"/><path d="M-1.1 1.54h17.03v1.63H-1.1z"/></g><path d="M168-19C124 19 11 11 16-68c3-43 29-60 59-75-25-44-12-111 53-106 37 3 64 15 64 52 0 43-40 52-69 68 12 22 27 41 43 59 14-19 21-38 28-64l37 13c-8 29-19 52-34 74 12 10 32 16 52 10v35c-28 11-65-2-81-17zm-58-139c19-9 43-14 43-39 0-14-10-22-25-22-34 0-33 41-18 61zM60-68c-3 40 55 47 79 25-18-20-34-42-48-67-18 8-30 20-31 42" id="aA"/><path d="M24-248c93 1 206-16 204 79-1 75-69 88-152 82V0H24v-248zm52 121c47 0 100 7 100-41 0-47-54-39-100-39v80" id="aB"/><g id="B"><use transform="matrix(0.06172839506172839,0,0,0.06172839506172839,0,0)" xlink:href="#aA"/><use transform="matrix(0.06172839506172839,0,0,0.06172839506172839,15.987654320987653,0)" xlink:href="#aB"/></g><path d="M101-251c68 0 85 55 85 127S166 4 100 4C33 4 14-52 14-124c0-73 17-127 87-127zm-1 229c47 0 54-49 54-102s-4-102-53-102c-51 0-55 48-55 102 0 53 5 102 54 102" id="aC"/><use transform="matrix(0.06172839506172839,0,0,0.06172839506172839,0,0)" xlink:href="#aC" id="C"/><path fill="#3aa6dd" d="M33-248h181l-7 40C159-145 100-94 83 0H31c18-93 73-148 126-207H25" id="aD"/><g id="D"><use transform="matrix(0.06172839506172839,0,0,0.06172839506172839,0,0)" xlink:href="#N"/><use transform="matrix(0.06172839506172839,0,0,0.06172839506172839,7.345679012345679,0)" xlink:href="#O"/><use transform="matrix(0.06172839506172839,0,0,0.06172839506172839,19.691358024691358,0)" xlink:href="#aD"/></g><g id="E"><use transform="matrix(0.06172839506172839,0,0,0.06172839506172839,0,0)" xlink:href="#aa"/><use transform="matrix(0.06172839506172839,0,0,0.06172839506172839,14.814814814814813,0)" xlink:href="#ab"/><use transform="matrix(0.06172839506172839,0,0,0.06172839506172839,27.160493827160494,0)" xlink:href="#ac"/></g><use transform="matrix(0.06172839506172839,0,0,0.06172839506172839,0,0)" xlink:href="#an" id="F"/><g id="G"><use transform="matrix(0.06172839506172839,0,0,0.06172839506172839,0,0)" xlink:href="#ae"/><use transform="matrix(0.06172839506172839,0,0,0.06172839506172839,7.345679012345679,0)" xlink:href="#Y"/><use transform="matrix(0.06172839506172839,0,0,0.06172839506172839,22.160493827160494,0)" xlink:href="#aw"/><use transform="matrix(0.06172839506172839,0,0,0.06172839506172839,33.27160493827161,0)" xlink:href="#aw"/></g><g id="H"><use transform="matrix(0.06172839506172839,0,0,0.06172839506172839,0,0)" xlink:href="#aA"/><use transform="matrix(0.06172839506172839,0,0,0.06172839506172839,15.987654320987653,0)" xlink:href="#aB"/></g><g id="I"><use transform="matrix(0.06172839506172839,0,0,0.06172839506172839,0,0)" xlink:href="#aC"/><use transform="matrix(0.06172839506172839,0,0,0.06172839506172839,12.345679012345679,0)" xlink:href="#ag"/></g><path d="M39-94c74 12-11 154 75 146v23c-44 4-70-10-70-52C44-23 55-84 6-82v-22c81 4-7-162 84-157h24v23c-82-15-2 131-75 144" id="aE"/><g id="J"><use transform="matrix(0.06172839506172839,0,0,0.06172839506172839,0,0)" xlink:href="#aE"/><use transform="matrix(0.06172839506172839,0,0,0.06172839506172839,7.4074074074074066,0)" xlink:href="#ai"/><use transform="matrix(0.06172839506172839,0,0,0.06172839506172839,22.22222222222222,0)" xlink:href="#aj"/><use transform="matrix(0.06172839506172839,0,0,0.06172839506172839,34.5679012345679,0)" xlink:href="#ak"/><use transform="matrix(0.06172839506172839,0,0,0.06172839506172839,46.913580246913575,0)" xlink:href="#al"/><use transform="matrix(0.06172839506172839,0,0,0.06172839506172839,58.02469135802468,0)" xlink:href="#ax"/></g><path d="M76-40C78 24 84 88 6 75V52C86 64 9-79 80-94c-40-6-34-59-34-106 1-29-11-41-40-38v-23c44-4 70 10 70 52 0 47-12 108 38 105v22c-26 1-39 14-38 42" id="aF"/><g id="K"><use transform="matrix(0.06172839506172839,0,0,0.06172839506172839,0,0)" xlink:href="#an"/><use transform="matrix(0.06172839506172839,0,0,0.06172839506172839,14.814814814814813,0)" xlink:href="#aF"/></g><g id="L"><use transform="matrix(0.06172839506172839,0,0,0.06172839506172839,0,0)" xlink:href="#an"/><path d="M-1.1 1.54h17.03v1.63H-1.1z"/><use transform="matrix(0.06172839506172839,0,0,0.06172839506172839,14.814814814814813,0)" xlink:href="#ag"/></g><path d="M27 0v-27h64v-190l-56 39v-29l58-41h29v221h61V0H27" id="aG"/><use transform="matrix(0.06172839506172839,0,0,0.06172839506172839,0,0)" xlink:href="#aG" id="M"/></defs></g></svg>