<svg xmlns="http://www.w3.org/2000/svg" xmlns:xlink="http://www.w3.org/1999/xlink" xmlns:lucid="lucid" width="1452" height="2388.67"><g transform="translate(-280 -220)" lucid:page-tab-id="0_0"><path d="M1252 268.67h460v340h-460z" stroke="#b2b2b2" stroke-width="2" fill="#ccc"/><use xlink:href="#a" transform="matrix(1,0,0,1,1257,273.66666666666674) translate(0 328.3733489777778)"/><path d="M612 428.67h536.98v180H612z" stroke="#b2b2b2" stroke-width="2" fill="#ccc"/><use xlink:href="#b" transform="matrix(1,0,0,1,617.0000000000001,433.66666666666674) translate(0 169.7264625777778)"/><path d="M771.17 268.67H992v100H771.17z" stroke="#b2b2b2" stroke-width="2" fill="#ccc"/><use xlink:href="#c" transform="matrix(1,0,0,1,776.1666666666669,273.66666666666674) translate(0 90.57777777777778)"/><path d="M312 478.87h196.67v100H312z" stroke="#b2b2b2" stroke-width="2" fill="#ccc"/><use xlink:href="#d" transform="matrix(1,0,0,1,317.0000000000001,483.8666663666665) translate(0 90.57777777777778)"/><path d="M1548.32 328.4l50.44 75.92M1545 330.6l50.43 75.93" stroke="#000" stroke-width="2" fill="none"/><path d="M1547.5 328.97l-.2-.3h.65zM1545.83 330.07l-1.66 1.1-1.67-2.5h2.4z"/><path d="M1605.54 418.14l-11.75-9.32 7.7-5.13z" stroke="#000" stroke-width="2"/><path d="M1460.02 330.66l-55.37 74.36M1456.82 328.27l-55.37 74.36" stroke="#000" stroke-width="2" fill="none"/><path d="M1460.8 331.28l-1.6-1.2 1.06-1.4h2.5zM1457.6 328.9l-.3-.23h.47z"/><path d="M1393.93 416.07l4.8-14.2 7.44 5.53z" stroke="#000" stroke-width="2"/><path d="M1384.67 468.82l.52 64.95M1380.67 468.85l.52 64.95" stroke="#000" stroke-width="2" fill="none"/><path d="M1385.67 468.84h-2v-1h2zM1381.67 468.87h-2v-1.04h2z"/><path d="M1383.3 549.05l-4.74-14.23 9.27-.07z" stroke="#000" stroke-width="2"/><path d="M1312 288.67h360v40h-360z" stroke="#000" stroke-opacity="0" stroke-width="2" fill="#a3d977"/><use xlink:href="#e" transform="matrix(1,0,0,1,1317,293.6666666666667) translate(14.290123456790155 19.65277777777778)"/><use xlink:href="#f" transform="matrix(1,0,0,1,1317,293.6666666666667) translate(59.96913580246917 19.65277777777778)"/><use xlink:href="#g" transform="matrix(1,0,0,1,1317,293.6666666666667) translate(80.95679012345681 19.65277777777778)"/><use xlink:href="#h" transform="matrix(1,0,0,1,1317,293.6666666666667) translate(222.2530864197531 19.65277777777778)"/><use xlink:href="#i" transform="matrix(1,0,0,1,1317,293.6666666666667) translate(256.75925925925924 19.65277777777778)"/><use xlink:href="#j" transform="matrix(1,0,0,1,1317,293.6666666666667) translate(277.7469135802469 19.65277777777778)"/><path d="M1272 420.83h221.33v47H1272z" stroke="#000" stroke-opacity="0" stroke-width="2" fill="#ffeca9"/><use xlink:href="#e" transform="matrix(1,0,0,1,1277,425.83333333333303) translate(0 22.52777777777778)"/><use xlink:href="#k" transform="matrix(1,0,0,1,1277,425.83333333333303) translate(45.67901234567901 22.52777777777778)"/><use xlink:href="#l" transform="matrix(1,0,0,1,1277,425.83333333333303) translate(66.66666666666666 22.52777777777778)"/><use xlink:href="#m" transform="matrix(1,0,0,1,1277,425.83333333333303) translate(111.04938271604937 22.52777777777778)"/><use xlink:href="#n" transform="matrix(1,0,0,1,1277,425.83333333333303) translate(183.76543209876542 22.52777777777778)"/><path d="M1313.33 552.28h140v42.4h-140z" stroke="#000" stroke-opacity="0" stroke-width="2" fill="#ffeca9"/><use xlink:href="#o" transform="matrix(1,0,0,1,1318.3333333333335,557.2833330333331) translate(0 21.90277777777778)"/><use xlink:href="#m" transform="matrix(1,0,0,1,1318.3333333333335,557.2833330333331) translate(37.03703703703704 21.90277777777778)"/><use xlink:href="#p" transform="matrix(1,0,0,1,1318.3333333333335,557.2833330333331) translate(109.75308641975309 21.90277777777778)"/><path d="M1513.33 420.83h188v47h-188z" stroke="#000" stroke-opacity="0" stroke-width="2" fill="#a3d977"/><use xlink:href="#q" transform="matrix(1,0,0,1,1518.3333333333335,425.83333333333303) translate(0.20370370370369528 22.52777777777778)"/><use xlink:href="#r" transform="matrix(1,0,0,1,1518.3333333333335,425.83333333333303) translate(116.12962962962963 22.52777777777778)"/><use xlink:href="#s" transform="matrix(1,0,0,1,1518.3333333333335,425.83333333333303) translate(149.46296296296296 22.52777777777778)"/><path d="M830 443.67h303.33v47H830z" stroke="#000" stroke-opacity="0" stroke-width="2" fill="#ffeca9"/><use xlink:href="#t" transform="matrix(1,0,0,1,834.9873183841436,448.66666666666623) translate(4.530864197530889 22.52777777777778)"/><use xlink:href="#u" transform="matrix(1,0,0,1,834.9873183841436,448.66666666666623) translate(50.2098765432099 22.52777777777778)"/><use xlink:href="#v" transform="matrix(1,0,0,1,834.9873183841436,448.66666666666623) translate(76.13580246913583 22.52777777777778)"/><use xlink:href="#h" transform="matrix(1,0,0,1,834.9873183841436,448.66666666666623) translate(176.01234567901236 22.52777777777778)"/><use xlink:href="#i" transform="matrix(1,0,0,1,834.9873183841436,448.66666666666623) translate(210.51851851851853 22.52777777777778)"/><use xlink:href="#j" transform="matrix(1,0,0,1,834.9873183841436,448.66666666666623) translate(231.50617283950618 22.52777777777778)"/><path d="M632 435.5h128.64v63.33H632z" fill="#ffeca9"/><use xlink:href="#w" transform="matrix(1,0,0,1,637.0000000000001,440.4999999999995) translate(16.320987654320987 17.77777777777778)"/><use xlink:href="#x" transform="matrix(1,0,0,1,637.0000000000001,440.4999999999995) translate(6.44444444444445 44.44444444444444)"/><use xlink:href="#i" transform="matrix(1,0,0,1,637.0000000000001,440.4999999999995) translate(40.95061728395062 44.44444444444444)"/><use xlink:href="#y" transform="matrix(1,0,0,1,637.0000000000001,440.4999999999995) translate(61.93827160493827 44.44444444444444)"/><path d="M861.17 542.53h240.98v36.34H861.17z" fill="#ffeca9"/><use xlink:href="#z" transform="matrix(1,0,0,1,866.1664986982446,547.5333330333333) translate(0 17.77777777777778)"/><use xlink:href="#A" transform="matrix(1,0,0,1,866.1664986982446,547.5333330333333) translate(65.24691358024691 17.77777777777778)"/><use xlink:href="#B" transform="matrix(1,0,0,1,866.1664986982446,547.5333330333333) translate(85 17.77777777777778)"/><use xlink:href="#C" transform="matrix(1,0,0,1,866.1664986982446,547.5333330333333) translate(129.3827160493827 17.77777777777778)"/><use xlink:href="#D" transform="matrix(1,0,0,1,866.1664986982446,547.5333330333333) translate(202.09876543209876 17.77777777777778)"/><path d="M983.66 491.67v32.36M979.66 491.67v32.36" stroke="#000" stroke-width="2" fill="none"/><path d="M984.66 491.7h-2v-1.03h2zM980.66 491.7h-2v-1.03h2z"/><path d="M981.66 539.3l-4.63-14.27h9.27z" stroke="#000" stroke-width="2"/><path d="M332 505.45h140v46.83H332z" stroke="#000" stroke-opacity="0" stroke-width="2" fill="#ffeca9"/><use xlink:href="#o" transform="matrix(1,0,0,1,337.0000000000001,510.44999970000015) translate(2.716049382716051 22.40277777777778)"/><use xlink:href="#m" transform="matrix(1,0,0,1,337.0000000000001,510.44999970000015) translate(39.75308641975309 22.40277777777778)"/><use xlink:href="#E" transform="matrix(1,0,0,1,337.0000000000001,510.44999970000015) translate(112.46913580246914 22.40277777777778)"/><path d="M809.4 274.67H952v80H809.4z" stroke="#000" stroke-opacity="0" stroke-width="2" fill="#a3d977"/><use xlink:href="#F" transform="matrix(1,0,0,1,814.3958333333334,279.6666666666667) translate(2.611111111111107 26.65277777777778)"/><use xlink:href="#G" transform="matrix(1,0,0,1,814.3958333333334,279.6666666666667) translate(13.44444444444445 53.31944444444445)"/><use xlink:href="#i" transform="matrix(1,0,0,1,814.3958333333334,279.6666666666667) translate(47.95061728395062 53.31944444444445)"/><use xlink:href="#y" transform="matrix(1,0,0,1,814.3958333333334,279.6666666666667) translate(68.93827160493828 53.31944444444445)"/><path d="M510.67 528.87h81.83" stroke="#000" stroke-width="2" fill="none"/><path d="M510.7 529.87h-1.03v-2h1.02z"/><path d="M607.76 528.87l-14.26 4.63v-9.27z" stroke="#000" stroke-width="2"/><path d="M994 318.67h238.5" stroke="#000" stroke-width="2" fill="none"/><path d="M994.03 319.67H993v-2h1.03z"/><path d="M1247.76 318.67l-14.26 4.63v-9.27z" stroke="#000" stroke-width="2"/><path d="M1150.98 518.67h81.52" stroke="#000" stroke-width="2" fill="none"/><path d="M1151 519.67h-1.02v-2h1.02z"/><path d="M1247.76 518.67l-14.26 4.63v-9.27z" stroke="#000" stroke-width="2"/><path d="M311.3 240h10.05m10.05 0h20.1m10.03 0h20.1m10.04 0h20.1m10.04 0h20.1m10.05 0h20.1m10.04 0h20.08m10.05 0h20.1m10.03 0h20.1m10.04 0h20.1m10.04 0h20.1m10.04 0h20.1m10.04 0h20.1m10.04 0h20.1m10.03 0h20.1m10.03 0h20.1m10.04 0h20.1m10.04 0h20.1m10.05 0h20.1m10.04 0h20.08m10.04 0h20.1m10.04 0h20.1m10.04 0h20.1m10.04 0h20.1m10.04 0h20.1m10.04 0h20.1m10.03 0h20.1m10.04 0h20.08m10.05 0h20.1m10.04 0h20.1m10.04 0h20.1m10.05 0h20.1m10.03 0h20.1m10.04 0h20.1m10.04 0h20.1m10.04 0h20.1m10.04 0h20.1m10.04 0h20.1m10.03 0h20.1m10.05 0h20.1m10.04 0h20.08m10.05 0h20.1m10.04 0h20.1m10.04 0h20.1m10.04 0h20.1m10.04 0h20.1m10.04 0h10.05" stroke="#b2b2b2" stroke-width="2" fill="none"/><path d="M311.33 240h-4.03v-1h4.03z" fill="#b2b2b2"/><path d="M1697.64 240h1.03" stroke="#b2b2b2" stroke-width="2" fill="none"/><path d="M300 240h340v74H300z" stroke="#000" stroke-opacity="0" stroke-width="2" fill="#fff" fill-opacity="0"/><use xlink:href="#H" transform="matrix(1,0,0,1,305,245) translate(0 21.333333333333336)"/><use xlink:href="#I" transform="matrix(1,0,0,1,305,245) translate(92.14814814814814 21.333333333333336)"/><use xlink:href="#J" transform="matrix(1,0,0,1,305,245) translate(228.07407407407408 21.333333333333336)"/><use xlink:href="#K" transform="matrix(1,0,0,1,305,245) translate(0 53.333333333333336)"/><use xlink:href="#L" transform="matrix(1,0,0,1,305,245) translate(79.85185185185186 53.333333333333336)"/><use xlink:href="#M" transform="matrix(1,0,0,1,305,245) translate(134.51851851851853 53.333333333333336)"/><path d="M1252 668.67h460v340h-460z" stroke="#b2b2b2" stroke-width="2" fill="#ccc"/><use xlink:href="#a" transform="matrix(1,0,0,1,1257,673.6666666666667) translate(0 328.3733489777778)"/><path d="M771.17 668.67H992v100H771.17z" stroke="#b2b2b2" stroke-width="2" fill="#ccc"/><use xlink:href="#c" transform="matrix(1,0,0,1,776.1666666666669,673.6666666666667) translate(0 90.57777777777778)"/><path d="M1548.32 728.4l50.44 75.92M1545 730.6l50.43 75.93" stroke="#000" stroke-width="2" fill="none"/><path d="M1547.5 728.97l-.2-.3h.65zM1545.83 730.07l-1.66 1.1-1.67-2.5h2.4z"/><path d="M1605.54 818.14l-11.75-9.32 7.7-5.13z" stroke="#000" stroke-width="2"/><path d="M1460.02 730.66l-55.37 74.36M1456.82 728.27l-55.37 74.36" stroke="#000" stroke-width="2" fill="none"/><path d="M1460.8 731.28l-1.6-1.2 1.06-1.4h2.5zM1457.6 728.9l-.3-.23h.47z"/><path d="M1393.93 816.07l4.8-14.2 7.44 5.53z" stroke="#000" stroke-width="2"/><path d="M1384.67 868.82l.52 64.95M1380.67 868.85l.52 64.95" stroke="#000" stroke-width="2" fill="none"/><path d="M1385.67 868.84h-2v-1h2zM1381.67 868.87h-2v-1.04h2z"/><path d="M1383.3 949.05l-4.74-14.23 9.27-.07z" stroke="#000" stroke-width="2"/><path d="M1312 688.67h360v40h-360z" stroke="#000" stroke-opacity="0" stroke-width="2" fill="#a3d977"/><use xlink:href="#e" transform="matrix(1,0,0,1,1317,693.6666666666667) translate(14.290123456790155 19.65277777777778)"/><use xlink:href="#f" transform="matrix(1,0,0,1,1317,693.6666666666667) translate(59.96913580246917 19.65277777777778)"/><use xlink:href="#g" transform="matrix(1,0,0,1,1317,693.6666666666667) translate(80.95679012345681 19.65277777777778)"/><use xlink:href="#h" transform="matrix(1,0,0,1,1317,693.6666666666667) translate(222.2530864197531 19.65277777777778)"/><use xlink:href="#i" transform="matrix(1,0,0,1,1317,693.6666666666667) translate(256.75925925925924 19.65277777777778)"/><use xlink:href="#j" transform="matrix(1,0,0,1,1317,693.6666666666667) translate(277.7469135802469 19.65277777777778)"/><path d="M1272 820.83h221.33v47H1272z" stroke="#000" stroke-opacity="0" stroke-width="2" fill="#ffeca9"/><use xlink:href="#e" transform="matrix(1,0,0,1,1277,825.833333333333) translate(0 22.52777777777778)"/><use xlink:href="#k" transform="matrix(1,0,0,1,1277,825.833333333333) translate(45.67901234567901 22.52777777777778)"/><use xlink:href="#l" transform="matrix(1,0,0,1,1277,825.833333333333) translate(66.66666666666666 22.52777777777778)"/><use xlink:href="#m" transform="matrix(1,0,0,1,1277,825.833333333333) translate(111.04938271604937 22.52777777777778)"/><use xlink:href="#n" transform="matrix(1,0,0,1,1277,825.833333333333) translate(183.76543209876542 22.52777777777778)"/><path d="M1313.33 952.28h140v42.4h-140z" stroke="#000" stroke-opacity="0" stroke-width="2" fill="#ffeca9"/><use xlink:href="#o" transform="matrix(1,0,0,1,1318.3333333333335,957.2833330333331) translate(0 21.90277777777778)"/><use xlink:href="#m" transform="matrix(1,0,0,1,1318.3333333333335,957.2833330333331) translate(37.03703703703704 21.90277777777778)"/><use xlink:href="#p" transform="matrix(1,0,0,1,1318.3333333333335,957.2833330333331) translate(109.75308641975309 21.90277777777778)"/><path d="M1513.33 820.83h188v47h-188z" stroke="#000" stroke-opacity="0" stroke-width="2" fill="#a3d977"/><use xlink:href="#q" transform="matrix(1,0,0,1,1518.3333333333335,825.833333333333) translate(0.20370370370369528 22.52777777777778)"/><use xlink:href="#r" transform="matrix(1,0,0,1,1518.3333333333335,825.833333333333) translate(116.12962962962963 22.52777777777778)"/><use xlink:href="#s" transform="matrix(1,0,0,1,1518.3333333333335,825.833333333333) translate(149.46296296296296 22.52777777777778)"/><path d="M809.4 674.67H952v80H809.4z" stroke="#000" stroke-opacity="0" stroke-width="2" fill="#a3d977"/><use xlink:href="#F" transform="matrix(1,0,0,1,814.3958333333334,679.6666666666667) translate(2.611111111111107 26.65277777777778)"/><use xlink:href="#G" transform="matrix(1,0,0,1,814.3958333333334,679.6666666666667) translate(13.44444444444445 53.31944444444445)"/><use xlink:href="#i" transform="matrix(1,0,0,1,814.3958333333334,679.6666666666667) translate(47.95061728395062 53.31944444444445)"/><use xlink:href="#y" transform="matrix(1,0,0,1,814.3958333333334,679.6666666666667) translate(68.93827160493828 53.31944444444445)"/><path d="M994 718.67h238.5" stroke="#000" stroke-width="2" fill="none"/><path d="M994.03 719.67H993v-2h1.03z"/><path d="M1247.76 718.67l-14.26 4.63v-9.27z" stroke="#000" stroke-width="2"/><path d="M311.3 640h9.93m9.93 0H351m9.94 0h19.85m9.92 0h19.85m9.93 0h19.85m9.93 0h19.85m9.93 0h19.85m9.94 0h19.86m9.92 0h19.86m9.92 0h19.86m9.92 0h19.86m9.92 0h19.86m9.93 0h19.85m9.93 0h19.85m9.93 0h19.86m9.93 0h19.84m9.93 0h19.85m9.93 0h19.85m9.93 0h19.85m9.93 0h19.86m9.93 0h19.85m9.92 0h19.86m9.92 0h19.86m9.93 0h19.86m9.9 0h19.87m9.93 0h19.85m9.93 0h19.85m9.93 0h19.85m9.94 0h19.85m9.92 0h19.85m9.93 0h19.85m9.93 0h19.85m9.93 0h19.86m9.92 0H1304m9.92 0h19.86m9.92 0h19.86m9.92 0h19.86m9.93 0h19.85m9.93 0h19.85m9.93 0h19.85m9.93 0h19.86m9.93 0h19.84m9.93 0h19.85m9.93 0h19.85m9.93 0h19.85m9.93 0h19.87m9.92 0h19.85m9.92 0h9.93" stroke="#b2b2b2" stroke-width="2" fill="none"/><path d="M311.33 640h-4.03v-1h4.03z" fill="#b2b2b2"/><path d="M1710.97 640h1.03" stroke="#b2b2b2" stroke-width="2" fill="none"/><path d="M300 640h340v74H300z" stroke="#000" stroke-opacity="0" stroke-width="2" fill="#fff" fill-opacity="0"/><use xlink:href="#H" transform="matrix(1,0,0,1,305,645) translate(0 21.333333333333336)"/><use xlink:href="#I" transform="matrix(1,0,0,1,305,645) translate(92.14814814814814 21.333333333333336)"/><use xlink:href="#J" transform="matrix(1,0,0,1,305,645) translate(228.07407407407408 21.333333333333336)"/><use xlink:href="#N" transform="matrix(1,0,0,1,305,645) translate(0 53.333333333333336)"/><path d="M1252 1060h460v208.67h-460z" stroke="#b2b2b2" stroke-width="2" fill="#ccc"/><use xlink:href="#a" transform="matrix(1,0,0,1,1257,1065) translate(0 198.32076657777773)"/><path d="M612 1088.67h536.98v180H612z" stroke="#b2b2b2" stroke-width="2" fill="#ccc"/><use xlink:href="#b" transform="matrix(1,0,0,1,617.0000000000001,1093.6666666666667) translate(0 169.7264625777778)"/><path d="M312 1138.87h196.67v100H312z" stroke="#b2b2b2" stroke-width="2" fill="#ccc"/><use xlink:href="#d" transform="matrix(1,0,0,1,317.0000000000001,1143.8666663666665) translate(0 90.57777777777778)"/><path d="M1384.67 1128.82l.52 64.95M1380.67 1128.85l.52 64.95" stroke="#000" stroke-width="2" fill="none"/><path d="M1385.67 1128.84h-2v-1h2zM1381.67 1128.87h-2v-1.04h2z"/><path d="M1383.3 1209.05l-4.74-14.23 9.27-.07z" stroke="#000" stroke-width="2"/><path d="M1272 1080.83h221.33v47H1272z" stroke="#000" stroke-opacity="0" stroke-width="2" fill="#ffeca9"/><use xlink:href="#e" transform="matrix(1,0,0,1,1276.9999999999998,1085.833333333333) translate(0 22.52777777777778)"/><use xlink:href="#k" transform="matrix(1,0,0,1,1276.9999999999998,1085.833333333333) translate(45.67901234567901 22.52777777777778)"/><use xlink:href="#l" transform="matrix(1,0,0,1,1276.9999999999998,1085.833333333333) translate(66.66666666666666 22.52777777777778)"/><use xlink:href="#m" transform="matrix(1,0,0,1,1276.9999999999998,1085.833333333333) translate(111.04938271604937 22.52777777777778)"/><use xlink:href="#n" transform="matrix(1,0,0,1,1276.9999999999998,1085.833333333333) translate(183.76543209876542 22.52777777777778)"/><path d="M1313.33 1212.28h140v42.4h-140z" stroke="#000" stroke-opacity="0" stroke-width="2" fill="#ffeca9"/><use xlink:href="#o" transform="matrix(1,0,0,1,1318.3333333333335,1217.283333033333) translate(0 21.90277777777778)"/><use xlink:href="#m" transform="matrix(1,0,0,1,1318.3333333333335,1217.283333033333) translate(37.03703703703704 21.90277777777778)"/><use xlink:href="#p" transform="matrix(1,0,0,1,1318.3333333333335,1217.283333033333) translate(109.75308641975309 21.90277777777778)"/><path d="M830 1103.67h303.33v47H830z" stroke="#000" stroke-opacity="0" stroke-width="2" fill="#ffeca9"/><use xlink:href="#t" transform="matrix(1,0,0,1,834.9873183841436,1108.6666666666663) translate(4.530864197530889 22.52777777777778)"/><use xlink:href="#u" transform="matrix(1,0,0,1,834.9873183841436,1108.6666666666663) translate(50.2098765432099 22.52777777777778)"/><use xlink:href="#v" transform="matrix(1,0,0,1,834.9873183841436,1108.6666666666663) translate(76.13580246913583 22.52777777777778)"/><use xlink:href="#h" transform="matrix(1,0,0,1,834.9873183841436,1108.6666666666663) translate(176.01234567901236 22.52777777777778)"/><use xlink:href="#i" transform="matrix(1,0,0,1,834.9873183841436,1108.6666666666663) translate(210.51851851851853 22.52777777777778)"/><use xlink:href="#j" transform="matrix(1,0,0,1,834.9873183841436,1108.6666666666663) translate(231.50617283950618 22.52777777777778)"/><path d="M632 1095.5h128.64v63.33H632z" fill="#ffeca9"/><use xlink:href="#w" transform="matrix(1,0,0,1,637,1100.4999999999993) translate(16.320987654320987 17.77777777777778)"/><use xlink:href="#x" transform="matrix(1,0,0,1,637,1100.4999999999993) translate(6.44444444444445 44.44444444444444)"/><use xlink:href="#i" transform="matrix(1,0,0,1,637,1100.4999999999993) translate(40.95061728395062 44.44444444444444)"/><use xlink:href="#y" transform="matrix(1,0,0,1,637,1100.4999999999993) translate(61.93827160493827 44.44444444444444)"/><path d="M861.17 1202.53h240.98v36.34H861.17z" fill="#ffeca9"/><use xlink:href="#z" transform="matrix(1,0,0,1,866.1664986982446,1207.533333033333) translate(0 17.77777777777778)"/><use xlink:href="#A" transform="matrix(1,0,0,1,866.1664986982446,1207.533333033333) translate(65.24691358024691 17.77777777777778)"/><use xlink:href="#B" transform="matrix(1,0,0,1,866.1664986982446,1207.533333033333) translate(85 17.77777777777778)"/><use xlink:href="#C" transform="matrix(1,0,0,1,866.1664986982446,1207.533333033333) translate(129.3827160493827 17.77777777777778)"/><use xlink:href="#D" transform="matrix(1,0,0,1,866.1664986982446,1207.533333033333) translate(202.09876543209876 17.77777777777778)"/><path d="M983.66 1151.67v32.36M979.66 1151.67v32.36" stroke="#000" stroke-width="2" fill="none"/><path d="M984.66 1151.7h-2v-1.03h2zM980.66 1151.7h-2v-1.03h2z"/><path d="M981.66 1199.3l-4.63-14.27h9.27z" stroke="#000" stroke-width="2"/><path d="M332 1165.45h140v46.83H332z" stroke="#000" stroke-opacity="0" stroke-width="2" fill="#ffeca9"/><use xlink:href="#o" transform="matrix(1,0,0,1,337.0000000000001,1170.4499997000005) translate(2.716049382716051 22.40277777777778)"/><use xlink:href="#m" transform="matrix(1,0,0,1,337.0000000000001,1170.4499997000005) translate(39.75308641975309 22.40277777777778)"/><use xlink:href="#E" transform="matrix(1,0,0,1,337.0000000000001,1170.4499997000005) translate(112.46913580246914 22.40277777777778)"/><path d="M510.67 1188.87h81.83" stroke="#000" stroke-width="2" fill="none"/><path d="M510.7 1189.87h-1.03v-2h1.02z"/><path d="M607.76 1188.87l-14.26 4.63v-9.27z" stroke="#000" stroke-width="2"/><path d="M1150.98 1178.67h81.52" stroke="#000" stroke-width="2" fill="none"/><path d="M1151 1179.67h-1.02v-2h1.02z"/><path d="M1247.76 1178.67l-14.26 4.63v-9.27z" stroke="#000" stroke-width="2"/><path d="M311.3 1040h9.93m9.93 0H351m9.94 0h19.85m9.92 0h19.85m9.93 0h19.85m9.93 0h19.85m9.93 0h19.85m9.94 0h19.86m9.92 0h19.86m9.92 0h19.86m9.92 0h19.86m9.92 0h19.86m9.93 0h19.85m9.93 0h19.85m9.93 0h19.86m9.93 0h19.84m9.93 0h19.85m9.93 0h19.85m9.93 0h19.85m9.93 0h19.86m9.93 0h19.85m9.92 0h19.86m9.92 0h19.86m9.93 0h19.86m9.9 0h19.87m9.93 0h19.85m9.93 0h19.85m9.93 0h19.85m9.94 0h19.85m9.92 0h19.85m9.93 0h19.85m9.93 0h19.85m9.93 0h19.86m9.92 0H1304m9.92 0h19.86m9.92 0h19.86m9.92 0h19.86m9.93 0h19.85m9.93 0h19.85m9.93 0h19.85m9.93 0h19.86m9.93 0h19.84m9.93 0h19.85m9.93 0h19.85m9.93 0h19.85m9.93 0h19.87m9.92 0h19.85m9.92 0h9.93" stroke="#b2b2b2" stroke-width="2" fill="none"/><path d="M311.33 1040h-4.03v-1h4.03z" fill="#b2b2b2"/><path d="M1710.97 1040h1.03" stroke="#b2b2b2" stroke-width="2" fill="none"/><path d="M300 1040h340v74H300z" stroke="#000" stroke-opacity="0" stroke-width="2" fill="#fff" fill-opacity="0"/><use xlink:href="#H" transform="matrix(1,0,0,1,305,1045) translate(0 21.333333333333336)"/><use xlink:href="#I" transform="matrix(1,0,0,1,305,1045) translate(92.14814814814814 21.333333333333336)"/><use xlink:href="#O" transform="matrix(1,0,0,1,305,1045) translate(228.07407407407408 21.333333333333336)"/><use xlink:href="#M" transform="matrix(1,0,0,1,305,1045) translate(0 53.333333333333336)"/><path d="M1252 1320h460v208.67h-460z" stroke="#b2b2b2" stroke-width="2" fill="#ccc"/><use xlink:href="#a" transform="matrix(1,0,0,1,1257,1325) translate(0 198.32076657777773)"/><path d="M612 1398.87h536.98v100H612z" stroke="#b2b2b2" stroke-width="2" fill="#ccc"/><use xlink:href="#b" transform="matrix(1,0,0,1,617.0000000000001,1403.8666663666665) translate(0 90.57777777777778)"/><path d="M312 1398.87h196.67v100H312z" stroke="#b2b2b2" stroke-width="2" fill="#ccc"/><use xlink:href="#d" transform="matrix(1,0,0,1,317.0000000000001,1403.8666663666665) translate(0 90.57777777777778)"/><path d="M1384.67 1388.82l.52 64.95M1380.67 1388.85l.52 64.95" stroke="#000" stroke-width="2" fill="none"/><path d="M1385.67 1388.84h-2v-1h2zM1381.67 1388.87h-2v-1.04h2z"/><path d="M1383.3 1469.05l-4.74-14.23 9.27-.07z" stroke="#000" stroke-width="2"/><path d="M1272 1340.83h221.33v47H1272z" stroke="#000" stroke-opacity="0" stroke-width="2" fill="#ffeca9"/><use xlink:href="#e" transform="matrix(1,0,0,1,1276.9999999999998,1345.8333333333333) translate(0 22.52777777777778)"/><use xlink:href="#k" transform="matrix(1,0,0,1,1276.9999999999998,1345.8333333333333) translate(45.67901234567901 22.52777777777778)"/><use xlink:href="#l" transform="matrix(1,0,0,1,1276.9999999999998,1345.8333333333333) translate(66.66666666666666 22.52777777777778)"/><use xlink:href="#m" transform="matrix(1,0,0,1,1276.9999999999998,1345.8333333333333) translate(111.04938271604937 22.52777777777778)"/><use xlink:href="#n" transform="matrix(1,0,0,1,1276.9999999999998,1345.8333333333333) translate(183.76543209876542 22.52777777777778)"/><path d="M1313.33 1472.28h140v42.4h-140z" stroke="#000" stroke-opacity="0" stroke-width="2" fill="#ffeca9"/><use xlink:href="#o" transform="matrix(1,0,0,1,1318.3333333333335,1477.283333033333) translate(0 21.90277777777778)"/><use xlink:href="#m" transform="matrix(1,0,0,1,1318.3333333333335,1477.283333033333) translate(37.03703703703704 21.90277777777778)"/><use xlink:href="#p" transform="matrix(1,0,0,1,1318.3333333333335,1477.283333033333) translate(109.75308641975309 21.90277777777778)"/><path d="M861.17 1430.7h240.98v36.33H861.17z" fill="#ffeca9"/><use xlink:href="#z" transform="matrix(1,0,0,1,866.1664986982446,1435.6999996999998) translate(0 17.77777777777778)"/><use xlink:href="#A" transform="matrix(1,0,0,1,866.1664986982446,1435.6999996999998) translate(65.24691358024691 17.77777777777778)"/><use xlink:href="#B" transform="matrix(1,0,0,1,866.1664986982446,1435.6999996999998) translate(85 17.77777777777778)"/><use xlink:href="#C" transform="matrix(1,0,0,1,866.1664986982446,1435.6999996999998) translate(129.3827160493827 17.77777777777778)"/><use xlink:href="#D" transform="matrix(1,0,0,1,866.1664986982446,1435.6999996999998) translate(202.09876543209876 17.77777777777778)"/><path d="M332 1425.45h140v46.83H332z" stroke="#000" stroke-opacity="0" stroke-width="2" fill="#ffeca9"/><use xlink:href="#o" transform="matrix(1,0,0,1,337.0000000000001,1430.4499997000003) translate(2.716049382716051 22.40277777777778)"/><use xlink:href="#m" transform="matrix(1,0,0,1,337.0000000000001,1430.4499997000003) translate(39.75308641975309 22.40277777777778)"/><use xlink:href="#E" transform="matrix(1,0,0,1,337.0000000000001,1430.4499997000003) translate(112.46913580246914 22.40277777777778)"/><path d="M510.67 1448.87h81.83" stroke="#000" stroke-width="2" fill="none"/><path d="M510.7 1449.87h-1.03v-2h1.02z"/><path d="M607.76 1448.87l-14.26 4.63v-9.27z" stroke="#000" stroke-width="2"/><path d="M1150.98 1448.87h81.52" stroke="#000" stroke-width="2" fill="none"/><path d="M1151 1449.87h-1.02v-2h1.02z"/><path d="M1247.76 1448.87l-14.26 4.63v-9.27z" stroke="#000" stroke-width="2"/><path d="M311.3 1300h9.93m9.93 0H351m9.94 0h19.85m9.92 0h19.85m9.93 0h19.85m9.93 0h19.85m9.93 0h19.85m9.94 0h19.86m9.92 0h19.86m9.92 0h19.86m9.92 0h19.86m9.92 0h19.86m9.93 0h19.85m9.93 0h19.85m9.93 0h19.86m9.93 0h19.84m9.93 0h19.85m9.93 0h19.85m9.93 0h19.85m9.93 0h19.86m9.93 0h19.85m9.92 0h19.86m9.92 0h19.86m9.93 0h19.86m9.9 0h19.87m9.93 0h19.85m9.93 0h19.85m9.93 0h19.85m9.94 0h19.85m9.92 0h19.85m9.93 0h19.85m9.93 0h19.85m9.93 0h19.86m9.92 0H1304m9.92 0h19.86m9.92 0h19.86m9.92 0h19.86m9.93 0h19.85m9.93 0h19.85m9.93 0h19.85m9.93 0h19.86m9.93 0h19.84m9.93 0h19.85m9.93 0h19.85m9.93 0h19.85m9.93 0h19.87m9.92 0h19.85m9.92 0h9.93" stroke="#b2b2b2" stroke-width="2" fill="none"/><path d="M311.33 1300h-4.03v-1h4.03z" fill="#b2b2b2"/><path d="M1710.97 1300h1.03" stroke="#b2b2b2" stroke-width="2" fill="none"/><path d="M300 1300h340v74H300z" stroke="#000" stroke-opacity="0" stroke-width="2" fill="#fff" fill-opacity="0"/><use xlink:href="#P" transform="matrix(1,0,0,1,305,1305) translate(0 21.333333333333336)"/><use xlink:href="#I" transform="matrix(1,0,0,1,305,1305) translate(93.55555555555556 21.333333333333336)"/><use xlink:href="#J" transform="matrix(1,0,0,1,305,1305) translate(229.48148148148147 21.333333333333336)"/><use xlink:href="#M" transform="matrix(1,0,0,1,305,1305) translate(0 53.333333333333336)"/><path d="M1252 1586.8h460v340h-460z" stroke="#b2b2b2" stroke-width="2" fill="#ccc"/><use xlink:href="#a" transform="matrix(1,0,0,1,1257,1591.8083331833334) translate(0 328.3733489777778)"/><path d="M612 1746.8h536.98v180H612z" stroke="#b2b2b2" stroke-width="2" fill="#ccc"/><use xlink:href="#b" transform="matrix(1,0,0,1,617.0000000000001,1751.8083331833334) translate(0 169.7264625777778)"/><path d="M771.17 1586.8H992v100H771.17z" stroke="#b2b2b2" stroke-width="2" fill="#ccc"/><use xlink:href="#c" transform="matrix(1,0,0,1,776.1666666666669,1591.8083331833334) translate(0 90.57777777777778)"/><path d="M1548.32 1646.53l50.44 75.93M1545 1648.75l50.43 75.92" stroke="#000" stroke-width="2" fill="none"/><path d="M1547.5 1647.1l-.2-.3h.65zM1545.83 1648.22l-1.66 1.1-1.67-2.5h2.4z"/><path d="M1605.54 1736.28l-11.75-9.32 7.7-5.13z" stroke="#000" stroke-width="2"/><path d="M1460.02 1648.8l-55.37 74.36M1456.82 1646.42l-55.37 74.35" stroke="#000" stroke-width="2" fill="none"/><path d="M1460.8 1649.42l-1.6-1.2 1.06-1.4h2.5zM1457.6 1647.03l-.3-.22h.47z"/><path d="M1393.93 1734.2l4.8-14.2 7.44 5.54z" stroke="#000" stroke-width="2"/><path d="M1384.67 1786.96l.52 64.95M1380.67 1787l.52 64.94" stroke="#000" stroke-width="2" fill="none"/><path d="M1385.67 1786.98h-2v-1h2zM1381.67 1787l-2 .02v-1.05h2z"/><path d="M1383.3 1867.2l-4.74-14.24 9.27-.07z" stroke="#000" stroke-width="2"/><path d="M1312 1606.8h360v40h-360z" stroke="#000" stroke-opacity="0" stroke-width="2" fill="#a3d977"/><use xlink:href="#e" transform="matrix(1,0,0,1,1317,1611.8083331833334) translate(14.290123456790155 19.65277777777778)"/><use xlink:href="#f" transform="matrix(1,0,0,1,1317,1611.8083331833334) translate(59.96913580246917 19.65277777777778)"/><use xlink:href="#g" transform="matrix(1,0,0,1,1317,1611.8083331833334) translate(80.95679012345681 19.65277777777778)"/><use xlink:href="#h" transform="matrix(1,0,0,1,1317,1611.8083331833334) translate(222.2530864197531 19.65277777777778)"/><use xlink:href="#i" transform="matrix(1,0,0,1,1317,1611.8083331833334) translate(256.75925925925924 19.65277777777778)"/><use xlink:href="#j" transform="matrix(1,0,0,1,1317,1611.8083331833334) translate(277.7469135802469 19.65277777777778)"/><path d="M1272 1738.97h221.33v47H1272z" stroke="#000" stroke-opacity="0" stroke-width="2" fill="#ffeca9"/><g><use xlink:href="#e" transform="matrix(1,0,0,1,1276.9999999999998,1743.9749998499997) translate(0 22.52777777777778)"/><use xlink:href="#k" transform="matrix(1,0,0,1,1276.9999999999998,1743.9749998499997) translate(45.67901234567901 22.52777777777778)"/><use xlink:href="#l" transform="matrix(1,0,0,1,1276.9999999999998,1743.9749998499997) translate(66.66666666666666 22.52777777777778)"/><use xlink:href="#m" transform="matrix(1,0,0,1,1276.9999999999998,1743.9749998499997) translate(111.04938271604937 22.52777777777778)"/><use xlink:href="#n" transform="matrix(1,0,0,1,1276.9999999999998,1743.9749998499997) translate(183.76543209876542 22.52777777777778)"/></g><path d="M1313.33 1870.42h140v42.4h-140z" stroke="#000" stroke-opacity="0" stroke-width="2" fill="#ffeca9"/><g><use xlink:href="#o" transform="matrix(1,0,0,1,1318.3333333333335,1875.4249995499997) translate(0 21.90277777777778)"/><use xlink:href="#m" transform="matrix(1,0,0,1,1318.3333333333335,1875.4249995499997) translate(37.03703703703704 21.90277777777778)"/><use xlink:href="#p" transform="matrix(1,0,0,1,1318.3333333333335,1875.4249995499997) translate(109.75308641975309 21.90277777777778)"/></g><path d="M1513.33 1738.97h188v47h-188z" stroke="#000" stroke-opacity="0" stroke-width="2" fill="#a3d977"/><g><use xlink:href="#q" transform="matrix(1,0,0,1,1518.3333333333335,1743.9749998499997) translate(0.20370370370369528 22.52777777777778)"/><use xlink:href="#r" transform="matrix(1,0,0,1,1518.3333333333335,1743.9749998499997) translate(116.12962962962963 22.52777777777778)"/><use xlink:href="#s" transform="matrix(1,0,0,1,1518.3333333333335,1743.9749998499997) translate(149.46296296296296 22.52777777777778)"/></g><path d="M830 1761.8h303.33v47H830z" stroke="#000" stroke-opacity="0" stroke-width="2" fill="#ffeca9"/><g><use xlink:href="#t" transform="matrix(1,0,0,1,834.9873183841436,1766.808333183333) translate(4.530864197530889 22.52777777777778)"/><use xlink:href="#u" transform="matrix(1,0,0,1,834.9873183841436,1766.808333183333) translate(50.2098765432099 22.52777777777778)"/><use xlink:href="#v" transform="matrix(1,0,0,1,834.9873183841436,1766.808333183333) translate(76.13580246913583 22.52777777777778)"/><use xlink:href="#h" transform="matrix(1,0,0,1,834.9873183841436,1766.808333183333) translate(176.01234567901236 22.52777777777778)"/><use xlink:href="#i" transform="matrix(1,0,0,1,834.9873183841436,1766.808333183333) translate(210.51851851851853 22.52777777777778)"/><use xlink:href="#j" transform="matrix(1,0,0,1,834.9873183841436,1766.808333183333) translate(231.50617283950618 22.52777777777778)"/></g><path d="M632 1753.64h128.64v63.33H632z" fill="#ffeca9"/><g><use xlink:href="#w" transform="matrix(1,0,0,1,637.0000000000001,1758.6416665166662) translate(16.320987654320987 17.77777777777778)"/><use xlink:href="#x" transform="matrix(1,0,0,1,637.0000000000001,1758.6416665166662) translate(6.44444444444445 44.44444444444444)"/><use xlink:href="#i" transform="matrix(1,0,0,1,637.0000000000001,1758.6416665166662) translate(40.95061728395062 44.44444444444444)"/><use xlink:href="#y" transform="matrix(1,0,0,1,637.0000000000001,1758.6416665166662) translate(61.93827160493827 44.44444444444444)"/></g><path d="M861.17 1860.67h240.98V1897H861.17z" fill="#ffeca9"/><g><use xlink:href="#z" transform="matrix(1,0,0,1,866.1664986982446,1865.67499955) translate(0 17.77777777777778)"/><use xlink:href="#A" transform="matrix(1,0,0,1,866.1664986982446,1865.67499955) translate(65.24691358024691 17.77777777777778)"/><use xlink:href="#B" transform="matrix(1,0,0,1,866.1664986982446,1865.67499955) translate(85 17.77777777777778)"/><use xlink:href="#C" transform="matrix(1,0,0,1,866.1664986982446,1865.67499955) translate(129.3827160493827 17.77777777777778)"/><use xlink:href="#D" transform="matrix(1,0,0,1,866.1664986982446,1865.67499955) translate(202.09876543209876 17.77777777777778)"/></g><path d="M983.66 1809.8v32.37M979.66 1809.8v32.37" stroke="#000" stroke-width="2" fill="none"/><path d="M984.66 1809.83h-2v-1.02h2zM980.66 1809.83h-2v-1.02h2z"/><path d="M981.66 1857.44l-4.63-14.27h9.27z" stroke="#000" stroke-width="2"/><path d="M809.4 1592.8H952v80H809.4z" stroke="#000" stroke-opacity="0" stroke-width="2" fill="#a3d977"/><g><use xlink:href="#F" transform="matrix(1,0,0,1,814.3958333333334,1597.8083331833334) translate(2.611111111111107 26.65277777777778)"/><use xlink:href="#G" transform="matrix(1,0,0,1,814.3958333333334,1597.8083331833334) translate(13.44444444444445 53.31944444444445)"/><use xlink:href="#i" transform="matrix(1,0,0,1,814.3958333333334,1597.8083331833334) translate(47.95061728395062 53.31944444444445)"/><use xlink:href="#y" transform="matrix(1,0,0,1,814.3958333333334,1597.8083331833334) translate(68.93827160493828 53.31944444444445)"/></g><path d="M994 1636.8h238.5" stroke="#000" stroke-width="2" fill="none"/><path d="M994.03 1637.8H993v-2h1.03z"/><path d="M1247.76 1636.8l-14.26 4.64v-9.27z" stroke="#000" stroke-width="2"/><path d="M311.3 1558.14h9.93m9.93 0H351m9.94 0h19.85m9.92 0h19.85m9.93 0h19.85m9.93 0h19.85m9.93 0h19.85m9.94 0h19.86m9.92 0h19.86m9.92 0h19.86m9.92 0h19.86m9.92 0h19.86m9.93 0h19.85m9.93 0h19.85m9.93 0h19.86m9.93 0h19.84m9.93 0h19.85m9.93 0h19.85m9.93 0h19.85m9.93 0h19.86m9.93 0h19.85m9.92 0h19.86m9.92 0h19.86m9.93 0h19.86m9.9 0h19.87m9.93 0h19.85m9.93 0h19.85m9.93 0h19.85m9.94 0h19.85m9.92 0h19.85m9.93 0h19.85m9.93 0h19.85m9.93 0h19.86m9.92 0H1304m9.92 0h19.86m9.92 0h19.86m9.92 0h19.86m9.93 0h19.85m9.93 0h19.85m9.93 0h19.85m9.93 0h19.86m9.93 0h19.84m9.93 0h19.85m9.93 0h19.85m9.93 0h19.85m9.93 0h19.87m9.92 0h19.85m9.92 0h9.93" stroke="#b2b2b2" stroke-width="2" fill="none"/><path d="M311.33 1558.14h-4.03v-1h4.03z" fill="#b2b2b2"/><path d="M1710.97 1558.14h1.03" stroke="#b2b2b2" stroke-width="2" fill="none"/><path d="M300 1558.14h340v74H300z" stroke="#000" stroke-opacity="0" stroke-width="2" fill="#fff" fill-opacity="0"/><g><use xlink:href="#Q" transform="matrix(1,0,0,1,305,1563.1416665166666) translate(0 21.333333333333336)"/><use xlink:href="#I" transform="matrix(1,0,0,1,305,1563.1416665166666) translate(118.74074074074072 21.333333333333336)"/><use xlink:href="#J" transform="matrix(1,0,0,1,305,1563.1416665166666) translate(254.66666666666663 21.333333333333336)"/><use xlink:href="#K" transform="matrix(1,0,0,1,305,1563.1416665166666) translate(0 53.333333333333336)"/><use xlink:href="#L" transform="matrix(1,0,0,1,305,1563.1416665166666) translate(79.85185185185186 53.333333333333336)"/><use xlink:href="#M" transform="matrix(1,0,0,1,305,1563.1416665166666) translate(134.51851851851853 53.333333333333336)"/></g><path d="M1252 1988.67h460v340h-460z" stroke="#b2b2b2" stroke-width="2" fill="#ccc"/><g><use xlink:href="#a" transform="matrix(1,0,0,1,1257,1993.666666666667) translate(0 328.3733489777778)"/></g><path d="M771.17 1988.67H992v100H771.17z" stroke="#b2b2b2" stroke-width="2" fill="#ccc"/><g><use xlink:href="#c" transform="matrix(1,0,0,1,776.1666666666669,1993.6666666666667) translate(0 90.57777777777778)"/></g><path d="M1548.32 2048.4l50.44 75.92M1545 2050.6l50.43 75.93" stroke="#000" stroke-width="2" fill="none"/><path d="M1547.5 2048.97l-.2-.3h.65zM1545.83 2050.07l-1.66 1.1-1.67-2.5h2.4z"/><path d="M1605.54 2138.14l-11.75-9.32 7.7-5.13z" stroke="#000" stroke-width="2"/><path d="M1460.02 2050.66l-55.37 74.36M1456.82 2048.27l-55.37 74.36" stroke="#000" stroke-width="2" fill="none"/><path d="M1460.8 2051.28l-1.6-1.2 1.06-1.4h2.5zM1457.6 2048.9l-.3-.23h.47z"/><path d="M1393.93 2136.07l4.8-14.2 7.44 5.53z" stroke="#000" stroke-width="2"/><path d="M1384.67 2188.82l.52 64.95M1380.67 2188.85l.52 64.95" stroke="#000" stroke-width="2" fill="none"/><path d="M1385.67 2188.84h-2v-1h2zM1381.67 2188.87h-2v-1.04h2z"/><path d="M1383.3 2269.05l-4.74-14.23 9.27-.07z" stroke="#000" stroke-width="2"/><path d="M1312 2008.67h360v40h-360z" stroke="#000" stroke-opacity="0" stroke-width="2" fill="#a3d977"/><g><use xlink:href="#e" transform="matrix(1,0,0,1,1317,2013.6666666666667) translate(14.290123456790155 19.65277777777778)"/><use xlink:href="#f" transform="matrix(1,0,0,1,1317,2013.6666666666667) translate(59.96913580246917 19.65277777777778)"/><use xlink:href="#g" transform="matrix(1,0,0,1,1317,2013.6666666666667) translate(80.95679012345681 19.65277777777778)"/><use xlink:href="#h" transform="matrix(1,0,0,1,1317,2013.6666666666667) translate(222.2530864197531 19.65277777777778)"/><use xlink:href="#i" transform="matrix(1,0,0,1,1317,2013.6666666666667) translate(256.75925925925924 19.65277777777778)"/><use xlink:href="#j" transform="matrix(1,0,0,1,1317,2013.6666666666667) translate(277.7469135802469 19.65277777777778)"/></g><path d="M1272 2140.83h221.33v47H1272z" stroke="#000" stroke-opacity="0" stroke-width="2" fill="#ffeca9"/><g><use xlink:href="#e" transform="matrix(1,0,0,1,1276.9999999999998,2145.833333333333) translate(0 22.52777777777778)"/><use xlink:href="#k" transform="matrix(1,0,0,1,1276.9999999999998,2145.833333333333) translate(45.67901234567901 22.52777777777778)"/><use xlink:href="#l" transform="matrix(1,0,0,1,1276.9999999999998,2145.833333333333) translate(66.66666666666666 22.52777777777778)"/><use xlink:href="#m" transform="matrix(1,0,0,1,1276.9999999999998,2145.833333333333) translate(111.04938271604937 22.52777777777778)"/><use xlink:href="#n" transform="matrix(1,0,0,1,1276.9999999999998,2145.833333333333) translate(183.76543209876542 22.52777777777778)"/></g><path d="M1313.33 2272.28h140v42.4h-140z" stroke="#000" stroke-opacity="0" stroke-width="2" fill="#ffeca9"/><g><use xlink:href="#o" transform="matrix(1,0,0,1,1318.3333333333335,2277.2833330333333) translate(0 21.90277777777778)"/><use xlink:href="#m" transform="matrix(1,0,0,1,1318.3333333333335,2277.2833330333333) translate(37.03703703703704 21.90277777777778)"/><use xlink:href="#p" transform="matrix(1,0,0,1,1318.3333333333335,2277.2833330333333) translate(109.75308641975309 21.90277777777778)"/></g><path d="M1513.33 2140.83h188v47h-188z" stroke="#000" stroke-opacity="0" stroke-width="2" fill="#a3d977"/><g><use xlink:href="#q" transform="matrix(1,0,0,1,1518.3333333333335,2145.833333333333) translate(0.20370370370369528 22.52777777777778)"/><use xlink:href="#r" transform="matrix(1,0,0,1,1518.3333333333335,2145.833333333333) translate(116.12962962962963 22.52777777777778)"/><use xlink:href="#s" transform="matrix(1,0,0,1,1518.3333333333335,2145.833333333333) translate(149.46296296296296 22.52777777777778)"/></g><path d="M809.4 1994.67H952v80H809.4z" stroke="#000" stroke-opacity="0" stroke-width="2" fill="#a3d977"/><g><use xlink:href="#F" transform="matrix(1,0,0,1,814.3958333333334,1999.6666666666667) translate(2.611111111111107 26.65277777777778)"/><use xlink:href="#G" transform="matrix(1,0,0,1,814.3958333333334,1999.6666666666667) translate(13.44444444444445 53.31944444444445)"/><use xlink:href="#i" transform="matrix(1,0,0,1,814.3958333333334,1999.6666666666667) translate(47.95061728395062 53.31944444444445)"/><use xlink:href="#y" transform="matrix(1,0,0,1,814.3958333333334,1999.6666666666667) translate(68.93827160493828 53.31944444444445)"/></g><path d="M994 2038.67h238.5" stroke="#000" stroke-width="2" fill="none"/><path d="M994.03 2039.67H993v-2h1.03z"/><path d="M1247.76 2038.67l-14.26 4.63v-9.27z" stroke="#000" stroke-width="2"/><path d="M311.3 1960h9.93m9.93 0H351m9.94 0h19.85m9.92 0h19.85m9.93 0h19.85m9.93 0h19.85m9.93 0h19.85m9.94 0h19.86m9.92 0h19.86m9.92 0h19.86m9.92 0h19.86m9.92 0h19.86m9.93 0h19.85m9.93 0h19.85m9.93 0h19.86m9.93 0h19.84m9.93 0h19.85m9.93 0h19.85m9.93 0h19.85m9.93 0h19.86m9.93 0h19.85m9.92 0h19.86m9.92 0h19.86m9.93 0h19.86m9.9 0h19.87m9.93 0h19.85m9.93 0h19.85m9.93 0h19.85m9.94 0h19.85m9.92 0h19.85m9.93 0h19.85m9.93 0h19.85m9.93 0h19.86m9.92 0H1304m9.92 0h19.86m9.92 0h19.86m9.92 0h19.86m9.93 0h19.85m9.93 0h19.85m9.93 0h19.85m9.93 0h19.86m9.93 0h19.84m9.93 0h19.85m9.93 0h19.85m9.93 0h19.85m9.93 0h19.87m9.92 0h19.85m9.92 0h9.93" stroke="#b2b2b2" stroke-width="2" fill="none"/><path d="M311.33 1960h-4.03v-1h4.03z" fill="#b2b2b2"/><path d="M1710.97 1960h1.03" stroke="#b2b2b2" stroke-width="2" fill="none"/><path d="M300 1960h340v74H300z" stroke="#000" stroke-opacity="0" stroke-width="2" fill="#fff" fill-opacity="0"/><g><use xlink:href="#Q" transform="matrix(1,0,0,1,305,1965) translate(0 21.333333333333336)"/><use xlink:href="#I" transform="matrix(1,0,0,1,305,1965) translate(118.74074074074072 21.333333333333336)"/><use xlink:href="#J" transform="matrix(1,0,0,1,305,1965) translate(254.66666666666663 21.333333333333336)"/><use xlink:href="#N" transform="matrix(1,0,0,1,305,1965) translate(0 53.333333333333336)"/></g><path d="M1252 2380h460v208.67h-460z" stroke="#b2b2b2" stroke-width="2" fill="#ccc"/><g><use xlink:href="#a" transform="matrix(1,0,0,1,1257,2385) translate(0 198.32076657777773)"/></g><path d="M612 2408.67h536.98v180H612z" stroke="#b2b2b2" stroke-width="2" fill="#ccc"/><g><use xlink:href="#b" transform="matrix(1,0,0,1,617.0000000000001,2413.666666666667) translate(0 169.7264625777778)"/></g><path d="M1384.67 2448.82l.52 64.95M1380.67 2448.85l.52 64.95" stroke="#000" stroke-width="2" fill="none"/><path d="M1385.67 2448.84h-2v-1h2zM1381.67 2448.87h-2v-1.04h2z"/><path d="M1383.3 2529.05l-4.74-14.23 9.27-.07z" stroke="#000" stroke-width="2"/><path d="M1272 2400.83h221.33v47H1272z" stroke="#000" stroke-opacity="0" stroke-width="2" fill="#ffeca9"/><g><use xlink:href="#e" transform="matrix(1,0,0,1,1276.9999999999998,2405.833333333333) translate(0 22.52777777777778)"/><use xlink:href="#k" transform="matrix(1,0,0,1,1276.9999999999998,2405.833333333333) translate(45.67901234567901 22.52777777777778)"/><use xlink:href="#l" transform="matrix(1,0,0,1,1276.9999999999998,2405.833333333333) translate(66.66666666666666 22.52777777777778)"/><use xlink:href="#m" transform="matrix(1,0,0,1,1276.9999999999998,2405.833333333333) translate(111.04938271604937 22.52777777777778)"/><use xlink:href="#n" transform="matrix(1,0,0,1,1276.9999999999998,2405.833333333333) translate(183.76543209876542 22.52777777777778)"/></g><path d="M1313.33 2532.28h140v42.4h-140z" stroke="#000" stroke-opacity="0" stroke-width="2" fill="#ffeca9"/><g><use xlink:href="#o" transform="matrix(1,0,0,1,1318.3333333333335,2537.2833330333333) translate(0 21.90277777777778)"/><use xlink:href="#m" transform="matrix(1,0,0,1,1318.3333333333335,2537.2833330333333) translate(37.03703703703704 21.90277777777778)"/><use xlink:href="#p" transform="matrix(1,0,0,1,1318.3333333333335,2537.2833330333333) translate(109.75308641975309 21.90277777777778)"/></g><path d="M830 2423.67h303.33v47H830z" stroke="#000" stroke-opacity="0" stroke-width="2" fill="#ffeca9"/><g><use xlink:href="#t" transform="matrix(1,0,0,1,834.9873183841436,2428.666666666666) translate(4.530864197530889 22.52777777777778)"/><use xlink:href="#u" transform="matrix(1,0,0,1,834.9873183841436,2428.666666666666) translate(50.2098765432099 22.52777777777778)"/><use xlink:href="#v" transform="matrix(1,0,0,1,834.9873183841436,2428.666666666666) translate(76.13580246913583 22.52777777777778)"/><use xlink:href="#h" transform="matrix(1,0,0,1,834.9873183841436,2428.666666666666) translate(176.01234567901236 22.52777777777778)"/><use xlink:href="#i" transform="matrix(1,0,0,1,834.9873183841436,2428.666666666666) translate(210.51851851851853 22.52777777777778)"/><use xlink:href="#j" transform="matrix(1,0,0,1,834.9873183841436,2428.666666666666) translate(231.50617283950618 22.52777777777778)"/></g><path d="M632 2415.5h128.64v63.33H632z" fill="#ffeca9"/><g><use xlink:href="#w" transform="matrix(1,0,0,1,637.0000000000001,2420.4999999999995) translate(16.320987654320987 17.77777777777778)"/><use xlink:href="#x" transform="matrix(1,0,0,1,637.0000000000001,2420.4999999999995) translate(6.44444444444445 44.44444444444444)"/><use xlink:href="#i" transform="matrix(1,0,0,1,637.0000000000001,2420.4999999999995) translate(40.95061728395062 44.44444444444444)"/><use xlink:href="#y" transform="matrix(1,0,0,1,637.0000000000001,2420.4999999999995) translate(61.93827160493827 44.44444444444444)"/></g><path d="M861.17 2522.53h240.98v36.34H861.17z" fill="#ffeca9"/><g><use xlink:href="#z" transform="matrix(1,0,0,1,866.1664986982444,2527.5333330333337) translate(0 17.77777777777778)"/><use xlink:href="#A" transform="matrix(1,0,0,1,866.1664986982444,2527.5333330333337) translate(65.24691358024691 17.77777777777778)"/><use xlink:href="#B" transform="matrix(1,0,0,1,866.1664986982444,2527.5333330333337) translate(85 17.77777777777778)"/><use xlink:href="#C" transform="matrix(1,0,0,1,866.1664986982444,2527.5333330333337) translate(129.3827160493827 17.77777777777778)"/><use xlink:href="#D" transform="matrix(1,0,0,1,866.1664986982444,2527.5333330333337) translate(202.09876543209876 17.77777777777778)"/></g><path d="M983.66 2471.67v32.36M979.66 2471.67v32.36" stroke="#000" stroke-width="2" fill="none"/><path d="M984.66 2471.7h-2v-1.03h2zM980.66 2471.7h-2v-1.03h2z"/><path d="M981.66 2519.3l-4.63-14.27h9.27z" stroke="#000" stroke-width="2"/><path d="M311.3 2360h9.93m9.93 0H351m9.94 0h19.85m9.92 0h19.85m9.93 0h19.85m9.93 0h19.85m9.93 0h19.85m9.94 0h19.86m9.92 0h19.86m9.92 0h19.86m9.92 0h19.86m9.92 0h19.86m9.93 0h19.85m9.93 0h19.85m9.93 0h19.86m9.93 0h19.84m9.93 0h19.85m9.93 0h19.85m9.93 0h19.85m9.93 0h19.86m9.93 0h19.85m9.92 0h19.86m9.92 0h19.86m9.93 0h19.86m9.9 0h19.87m9.93 0h19.85m9.93 0h19.85m9.93 0h19.85m9.94 0h19.85m9.92 0h19.85m9.93 0h19.85m9.93 0h19.85m9.93 0h19.86m9.92 0H1304m9.92 0h19.86m9.92 0h19.86m9.92 0h19.86m9.93 0h19.85m9.93 0h19.85m9.93 0h19.85m9.93 0h19.86m9.93 0h19.84m9.93 0h19.85m9.93 0h19.85m9.93 0h19.85m9.93 0h19.87m9.92 0h19.85m9.92 0h9.93" stroke="#b2b2b2" stroke-width="2" fill="none"/><path d="M311.33 2360h-4.03v-1h4.03z" fill="#b2b2b2"/><path d="M1710.97 2360h1.03" stroke="#b2b2b2" stroke-width="2" fill="none"/><path d="M300 2360h340v74H300z" stroke="#000" stroke-opacity="0" stroke-width="2" fill="#fff" fill-opacity="0"/><g><use xlink:href="#Q" transform="matrix(1,0,0,1,305,2365) translate(0 21.333333333333336)"/><use xlink:href="#I" transform="matrix(1,0,0,1,305,2365) translate(118.74074074074072 21.333333333333336)"/><use xlink:href="#J" transform="matrix(1,0,0,1,305,2365) translate(254.66666666666663 21.333333333333336)"/><use xlink:href="#M" transform="matrix(1,0,0,1,305,2365) translate(0 53.333333333333336)"/></g><defs><path fill="#3aa6dd" d="M72-63c-8 23 5 39 32 30L98-1C54 14 12-6 23-64l18-93H15l7-33h28l24-45h31l-8 45h35l-6 33H90" id="R"/><path fill="#3aa6dd" d="M127 0L95-67 37 0h-53l89-99-49-91h52l30 61 52-61h54l-85 92 52 98h-52" id="S"/><path fill="#3aa6dd" d="M154-50L144 0H97l10-50H-6l7-37 126-161h65L161-87h33l-7 37h-33zm-40-37l27-125c-29 45-64 83-95 125h68" id="T"/><g id="a"><use transform="matrix(0.06172839506172839,0,0,0.06172839506172839,0,0)" xlink:href="#R"/><use transform="matrix(0.06172839506172839,0,0,0.06172839506172839,7.345679012345679,0)" xlink:href="#S"/><use transform="matrix(0.06172839506172839,0,0,0.06172839506172839,19.691358024691358,0)" xlink:href="#T"/></g><path fill="#3aa6dd" d="M131-73c0-31-25-35-58-33l8-40c36 2 64-5 65-39 0-17-10-28-28-27-23 1-35 12-41 32l-47-9c11-39 39-63 90-62 44 1 76 17 76 60 0 42-26 59-63 64 28 5 48 20 48 54C181 22 9 32 3-60l49-7c3 21 16 31 40 31s39-13 39-37" id="U"/><g id="b"><use transform="matrix(0.06172839506172839,0,0,0.06172839506172839,0,0)" xlink:href="#R"/><use transform="matrix(0.06172839506172839,0,0,0.06172839506172839,7.345679012345679,0)" xlink:href="#S"/><use transform="matrix(0.06172839506172839,0,0,0.06172839506172839,19.691358024691358,0)" xlink:href="#U"/></g><path fill="#3aa6dd" d="M121-251c83 0 93 87 42 126-35 27-77 48-103 84h115l-7 41H-6C6-94 102-103 141-168c11-20 3-46-24-44-23 2-33 13-39 32l-47-10c12-38 39-61 90-61" id="V"/><g id="c"><use transform="matrix(0.06172839506172839,0,0,0.06172839506172839,0,0)" xlink:href="#R"/><use transform="matrix(0.06172839506172839,0,0,0.06172839506172839,7.345679012345679,0)" xlink:href="#S"/><use transform="matrix(0.06172839506172839,0,0,0.06172839506172839,19.691358024691358,0)" xlink:href="#V"/></g><path fill="#3aa6dd" d="M6 0l7-41h62l31-161-67 37 8-42 70-41h48L124-41h57l-8 41H6" id="W"/><g id="d"><use transform="matrix(0.06172839506172839,0,0,0.06172839506172839,0,0)" xlink:href="#R"/><use transform="matrix(0.06172839506172839,0,0,0.06172839506172839,7.345679012345679,0)" xlink:href="#S"/><use transform="matrix(0.06172839506172839,0,0,0.06172839506172839,19.691358024691358,0)" xlink:href="#W"/></g><path d="M24 0v-248h195v40H76v63h132v40H76v65h150V0H24" id="X"/><path d="M144 0l-44-69L55 0H2l70-98-66-92h53l41 62 40-62h54l-67 91 71 99h-54" id="Y"/><path d="M185-48c-13 30-37 53-82 52C43 2 14-33 14-96s30-98 90-98c62 0 83 45 84 108H66c0 31 8 55 39 56 18 0 30-7 34-22zm-45-69c5-46-57-63-70-21-2 6-4 13-4 21h74" id="Z"/><g id="e"><use transform="matrix(0.06172839506172839,0,0,0.06172839506172839,0,0)" xlink:href="#X"/><use transform="matrix(0.06172839506172839,0,0,0.06172839506172839,14.814814814814813,0)" xlink:href="#Y"/><use transform="matrix(0.06172839506172839,0,0,0.06172839506172839,27.160493827160494,0)" xlink:href="#Z"/></g><path d="M30-248c87 1 191-15 191 75 0 78-77 80-158 76V0H30v-248zm33 125c57 0 124 11 124-50 0-59-68-47-124-48v98" id="aa"/><use transform="matrix(0.06172839506172839,0,0,0.06172839506172839,0,0)" xlink:href="#aa" id="f"/><path d="M87 75C49 33 22-17 22-94c0-76 28-126 65-167h31c-38 41-64 92-64 168S80 34 118 75H87" id="ab"/><path d="M212-179c-10-28-35-45-73-45-59 0-87 40-87 99 0 60 29 101 89 101 43 0 62-24 78-52l27 14C228-24 195 4 139 4 59 4 22-46 18-125c-6-104 99-153 187-111 19 9 31 26 39 46" id="ac"/><path d="M100-194c62-1 85 37 85 99 1 63-27 99-86 99S16-35 15-95c0-66 28-99 85-99zM99-20c44 1 53-31 53-75 0-43-8-75-51-75s-53 32-53 75 10 74 51 75" id="ad"/><path d="M84 4C-5 8 30-112 23-190h32v120c0 31 7 50 39 49 72-2 45-101 50-169h31l1 190h-30c-1-10 1-25-2-33-11 22-28 36-60 37" id="ae"/><path d="M117-194c89-4 53 116 60 194h-32v-121c0-31-8-49-39-48C34-167 62-67 57 0H25l-1-190h30c1 10-1 24 2 32 11-22 29-35 61-36" id="af"/><path d="M59-47c-2 24 18 29 38 22v24C64 9 27 4 27-40v-127H5v-23h24l9-43h21v43h35v23H59v120" id="ag"/><path d="M100-194c63 0 86 42 84 106H49c0 40 14 67 53 68 26 1 43-12 49-29l28 8c-11 28-37 45-77 45C44 4 14-33 15-96c1-61 26-98 85-98zm52 81c6-60-76-77-97-28-3 7-6 17-6 28h103" id="ah"/><path d="M114-163C36-179 61-72 57 0H25l-1-190h30c1 12-1 29 2 39 6-27 23-49 58-41v29" id="ai"/><path d="M140-251c81 0 123 46 123 126C263-46 219 4 140 4 59 4 17-45 17-125s42-126 123-126zm0 227c63 0 89-41 89-101s-29-99-89-99c-61 0-89 39-89 99S79-25 140-24" id="aj"/><path d="M101-234c-31-9-42 10-38 44h38v23H63V0H32v-167H5v-23h27c-7-52 17-82 69-68v24" id="ak"/><g id="g"><use transform="matrix(0.06172839506172839,0,0,0.06172839506172839,0,0)" xlink:href="#ab"/><use transform="matrix(0.06172839506172839,0,0,0.06172839506172839,7.345679012345679,0)" xlink:href="#ac"/><use transform="matrix(0.06172839506172839,0,0,0.06172839506172839,23.333333333333332,0)" xlink:href="#ad"/><use transform="matrix(0.06172839506172839,0,0,0.06172839506172839,35.67901234567901,0)" xlink:href="#ae"/><use transform="matrix(0.06172839506172839,0,0,0.06172839506172839,48.02469135802469,0)" xlink:href="#af"/><use transform="matrix(0.06172839506172839,0,0,0.06172839506172839,60.37037037037037,0)" xlink:href="#ag"/><use transform="matrix(0.06172839506172839,0,0,0.06172839506172839,66.5432098765432,0)" xlink:href="#ah"/><use transform="matrix(0.06172839506172839,0,0,0.06172839506172839,78.88888888888889,0)" xlink:href="#ai"/><use transform="matrix(0.06172839506172839,0,0,0.06172839506172839,86.23456790123457,0)" xlink:href="#aj"/><use transform="matrix(0.06172839506172839,0,0,0.06172839506172839,103.51851851851852,0)" xlink:href="#ak"/><use transform="matrix(0.06172839506172839,0,0,0.06172839506172839,109.25925925925925,0)" xlink:href="#ak"/><use transform="matrix(0.06172839506172839,0,0,0.06172839506172839,115.43209876543209,0)" xlink:href="#ah"/><use transform="matrix(0.06172839506172839,0,0,0.06172839506172839,127.77777777777777,0)" xlink:href="#ai"/></g><path d="M194-70c0 46-34 64-81 66v29H91V-4C42-5 12-27 4-67l30-6c5 28 25 41 57 43v-87c-38-9-76-20-76-67 1-42 33-58 76-59v-23h22v23c45 0 67 20 76 56l-31 6c-5-23-18-35-45-37v78c41 10 81 20 81 70zm-81 41c51 7 71-66 19-77-6-2-12-4-19-6v83zM91-219c-47-6-63 57-18 69 6 2 12 3 18 5v-74" id="al"/><path d="M199 0l-22-63H83L61 0H9l90-248h61L250 0h-51zm-33-102l-36-108c-10 38-24 72-36 108h72" id="am"/><g id="h"><use transform="matrix(0.06172839506172839,0,0,0.06172839506172839,0,0)" xlink:href="#al"/><use transform="matrix(0.06172839506172839,0,0,0.06172839506172839,12.345679012345679,0)" xlink:href="#am"/></g><g id="i"><use transform="matrix(0.06172839506172839,0,0,0.06172839506172839,0,0)" xlink:href="#aa"/><path d="M-1.1 1.54h17.03v1.63H-1.1z"/></g><path d="M160-131c35 5 61 23 61 61C221 17 115-2 30 0v-248c76 3 177-17 177 60 0 33-19 50-47 57zm-97-11c50-1 110 9 110-42 0-47-63-36-110-37v79zm0 115c55-2 124 14 124-45 0-56-70-42-124-44v89" id="an"/><path d="M141-36C126-15 110 5 73 4 37 3 15-17 15-53c-1-64 63-63 125-63 3-35-9-54-41-54-24 1-41 7-42 31l-33-3c5-37 33-52 76-52 45 0 72 20 72 64v82c-1 20 7 32 28 27v20c-31 9-61-2-59-35zM48-53c0 20 12 33 32 33 41-3 63-29 60-74-43 2-92-5-92 41" id="ao"/><path d="M143 0L79-87 56-68V0H24v-261h32v163l83-92h37l-77 82L181 0h-38" id="ap"/><path d="M33-261c38 41 65 92 65 168S71 34 33 75H2C39 34 66-17 66-93S39-220 2-261h31" id="aq"/><g id="j"><use transform="matrix(0.06172839506172839,0,0,0.06172839506172839,0,0)" xlink:href="#an"/><use transform="matrix(0.06172839506172839,0,0,0.06172839506172839,14.814814814814813,0)" xlink:href="#ao"/><use transform="matrix(0.06172839506172839,0,0,0.06172839506172839,27.160493827160494,0)" xlink:href="#af"/><use transform="matrix(0.06172839506172839,0,0,0.06172839506172839,39.50617283950617,0)" xlink:href="#ap"/><use transform="matrix(0.06172839506172839,0,0,0.06172839506172839,50.61728395061728,0)" xlink:href="#aq"/></g><path d="M205 0l-28-72H64L36 0H1l101-248h38L239 0h-34zm-38-99l-47-123c-12 45-31 82-46 123h93" id="ar"/><use transform="matrix(0.06172839506172839,0,0,0.06172839506172839,0,0)" xlink:href="#ar" id="k"/><path d="M33 0v-248h34V0H33" id="as"/><g id="l"><use transform="matrix(0.06172839506172839,0,0,0.06172839506172839,0,0)" xlink:href="#ab"/><use transform="matrix(0.06172839506172839,0,0,0.06172839506172839,7.345679012345679,0)" xlink:href="#as"/><use transform="matrix(0.06172839506172839,0,0,0.06172839506172839,13.518518518518519,0)" xlink:href="#ad"/><use transform="matrix(0.06172839506172839,0,0,0.06172839506172839,25.864197530864196,0)" xlink:href="#ae"/></g><path d="M182-130c37 4 62 22 62 59C244 23 116-4 24 0v-248c84 5 203-23 205 63 0 31-19 50-47 55zM76-148c40-3 101 13 101-30 0-44-60-28-101-31v61zm0 110c48-3 116 14 116-37 0-48-69-32-116-35v72" id="at"/><path d="M133-34C117-15 103 5 69 4 32 3 11-16 11-54c-1-60 55-63 116-61 1-26-3-47-28-47-18 1-26 9-28 27l-52-2c7-38 36-58 82-57s74 22 75 68l1 82c-1 14 12 18 25 15v27c-30 8-71 5-69-32zm-48 3c29 0 43-24 42-57-32 0-66-3-65 30 0 17 8 27 23 27" id="au"/><path d="M135-194c87-1 58 113 63 194h-50c-7-57 23-157-34-157-59 0-34 97-39 157H25l-1-190h47c2 12-1 28 3 38 12-26 28-41 61-42" id="av"/><path d="M147 0L96-86 75-71V0H25v-261h50v150l67-79h53l-66 74L201 0h-54" id="aw"/><g id="m"><use transform="matrix(0.06172839506172839,0,0,0.06172839506172839,0,0)" xlink:href="#al"/><use transform="matrix(0.06172839506172839,0,0,0.06172839506172839,12.345679012345679,0)" xlink:href="#at"/><use transform="matrix(0.06172839506172839,0,0,0.06172839506172839,28.333333333333332,0)" xlink:href="#au"/><use transform="matrix(0.06172839506172839,0,0,0.06172839506172839,40.67901234567901,0)" xlink:href="#av"/><use transform="matrix(0.06172839506172839,0,0,0.06172839506172839,54.19753086419753,0)" xlink:href="#aw"/></g><g id="n"><use transform="matrix(0.06172839506172839,0,0,0.06172839506172839,0,0)" xlink:href="#ar"/><path d="M-1.1 1.54h17.03v1.63H-1.1z"/><use transform="matrix(0.06172839506172839,0,0,0.06172839506172839,14.814814814814813,0)" xlink:href="#aq"/></g><g id="o"><use transform="matrix(0.06172839506172839,0,0,0.06172839506172839,0,0)" xlink:href="#as"/><use transform="matrix(0.06172839506172839,0,0,0.06172839506172839,6.172839506172839,0)" xlink:href="#ad"/><use transform="matrix(0.06172839506172839,0,0,0.06172839506172839,18.51851851851852,0)" xlink:href="#ae"/></g><g id="p"><use transform="matrix(0.06172839506172839,0,0,0.06172839506172839,0,0)" xlink:href="#aa"/><path d="M-1.1 1.54h17.03v1.63H-1.1z"/></g><path d="M24-231v-30h32v30H24zM24 0v-190h32V0H24" id="ax"/><path d="M177-190C167-65 218 103 67 71c-23-6-38-20-44-43l32-5c15 47 100 32 89-28v-30C133-14 115 1 83 1 29 1 15-40 15-95c0-56 16-97 71-98 29-1 48 16 59 35 1-10 0-23 2-32h30zM94-22c36 0 50-32 50-73 0-42-14-75-50-75-39 0-46 34-46 75s6 73 46 73" id="ay"/><g id="q"><use transform="matrix(0.06172839506172839,0,0,0.06172839506172839,0,0)" xlink:href="#aa"/><use transform="matrix(0.06172839506172839,0,0,0.06172839506172839,14.814814814814813,0)" xlink:href="#ao"/><use transform="matrix(0.06172839506172839,0,0,0.06172839506172839,27.160493827160494,0)" xlink:href="#ax"/><use transform="matrix(0.06172839506172839,0,0,0.06172839506172839,32.03703703703704,0)" xlink:href="#af"/><use transform="matrix(0.06172839506172839,0,0,0.06172839506172839,44.382716049382715,0)" xlink:href="#ag"/><use transform="matrix(0.06172839506172839,0,0,0.06172839506172839,50.55555555555556,0)" xlink:href="#ar"/><use transform="matrix(0.06172839506172839,0,0,0.06172839506172839,65.37037037037037,0)" xlink:href="#ay"/><use transform="matrix(0.06172839506172839,0,0,0.06172839506172839,77.71604938271605,0)" xlink:href="#ai"/><use transform="matrix(0.06172839506172839,0,0,0.06172839506172839,85.06172839506173,0)" xlink:href="#ah"/><use transform="matrix(0.06172839506172839,0,0,0.06172839506172839,97.40740740740742,0)" xlink:href="#ah"/></g><path d="M24-248c93 1 206-16 204 79-1 75-69 88-152 82V0H24v-248zm52 121c47 0 100 7 100-41 0-47-54-39-100-39v80" id="az"/><g id="r"><use transform="matrix(0.06172839506172839,0,0,0.06172839506172839,0,0)" xlink:href="#al"/><use transform="matrix(0.06172839506172839,0,0,0.06172839506172839,12.345679012345679,0)" xlink:href="#az"/></g><g id="s"><use transform="matrix(0.06172839506172839,0,0,0.06172839506172839,0,0)" xlink:href="#al"/><use transform="matrix(0.06172839506172839,0,0,0.06172839506172839,12.345679012345679,0)" xlink:href="#am"/></g><g id="t"><use transform="matrix(0.06172839506172839,0,0,0.06172839506172839,0,0)" xlink:href="#X"/><use transform="matrix(0.06172839506172839,0,0,0.06172839506172839,14.814814814814813,0)" xlink:href="#Y"/><use transform="matrix(0.06172839506172839,0,0,0.06172839506172839,27.160493827160494,0)" xlink:href="#Z"/></g><use transform="matrix(0.06172839506172839,0,0,0.06172839506172839,0,0)" xlink:href="#ar" id="u"/><path d="M185-189c-5-48-123-54-124 2 14 75 158 14 163 119 3 78-121 87-175 55-17-10-28-26-33-46l33-7c5 56 141 63 141-1 0-78-155-14-162-118-5-82 145-84 179-34 5 7 8 16 11 25" id="aA"/><path d="M106-169C34-169 62-67 57 0H25v-261h32l-1 103c12-21 28-36 61-36 89 0 53 116 60 194h-32v-121c2-32-8-49-39-48" id="aB"/><path d="M206 0h-36l-40-164L89 0H53L-1-190h32L70-26l43-164h34l41 164 42-164h31" id="aC"/><g id="v"><use transform="matrix(0.06172839506172839,0,0,0.06172839506172839,0,0)" xlink:href="#ab"/><use transform="matrix(0.06172839506172839,0,0,0.06172839506172839,7.345679012345679,0)" xlink:href="#aA"/><use transform="matrix(0.06172839506172839,0,0,0.06172839506172839,22.160493827160494,0)" xlink:href="#aB"/><use transform="matrix(0.06172839506172839,0,0,0.06172839506172839,34.50617283950617,0)" xlink:href="#ad"/><use transform="matrix(0.06172839506172839,0,0,0.06172839506172839,46.85185185185185,0)" xlink:href="#aC"/><use transform="matrix(0.06172839506172839,0,0,0.06172839506172839,62.8395061728395,0)" xlink:href="#as"/><use transform="matrix(0.06172839506172839,0,0,0.06172839506172839,69.01234567901234,0)" xlink:href="#ad"/><use transform="matrix(0.06172839506172839,0,0,0.06172839506172839,81.35802469135803,0)" xlink:href="#ae"/></g><g id="w"><use transform="matrix(0.06172839506172839,0,0,0.06172839506172839,0,0)" xlink:href="#aA"/><use transform="matrix(0.06172839506172839,0,0,0.06172839506172839,14.814814814814813,0)" xlink:href="#aB"/><use transform="matrix(0.06172839506172839,0,0,0.06172839506172839,27.160493827160494,0)" xlink:href="#ad"/><use transform="matrix(0.06172839506172839,0,0,0.06172839506172839,39.50617283950617,0)" xlink:href="#aC"/><use transform="matrix(0.06172839506172839,0,0,0.06172839506172839,55.49382716049382,0)" xlink:href="#as"/><use transform="matrix(0.06172839506172839,0,0,0.06172839506172839,61.666666666666664,0)" xlink:href="#ad"/><use transform="matrix(0.06172839506172839,0,0,0.06172839506172839,74.01234567901234,0)" xlink:href="#ae"/></g><g id="x"><use transform="matrix(0.06172839506172839,0,0,0.06172839506172839,0,0)" xlink:href="#al"/><use transform="matrix(0.06172839506172839,0,0,0.06172839506172839,12.345679012345679,0)" xlink:href="#am"/></g><g id="y"><use transform="matrix(0.06172839506172839,0,0,0.06172839506172839,0,0)" xlink:href="#an"/><use transform="matrix(0.06172839506172839,0,0,0.06172839506172839,14.814814814814813,0)" xlink:href="#ao"/><use transform="matrix(0.06172839506172839,0,0,0.06172839506172839,27.160493827160494,0)" xlink:href="#af"/><use transform="matrix(0.06172839506172839,0,0,0.06172839506172839,39.50617283950617,0)" xlink:href="#ap"/></g><path d="M76-208v77h127v40H76V0H24v-248h183v40H76" id="aD"/><path d="M115-3C79 11 28 4 28-45v-112H4v-33h27l15-45h31v45h36v33H77v99c-1 23 16 31 38 25v30" id="aE"/><path d="M190-63c-7 42-38 67-86 67-59 0-84-38-90-98-12-110 154-137 174-36l-49 2c-2-19-15-32-35-32-30 0-35 28-38 64-6 74 65 87 74 30" id="aF"/><path d="M114-157C55-157 80-60 75 0H25v-261h50l-1 109c12-26 28-41 61-42 86-1 58 113 63 194h-50c-7-57 23-157-34-157" id="aG"/><g id="z"><use transform="matrix(0.06172839506172839,0,0,0.06172839506172839,0,0)" xlink:href="#aD"/><use transform="matrix(0.06172839506172839,0,0,0.06172839506172839,13.518518518518517,0)" xlink:href="#Z"/><use transform="matrix(0.06172839506172839,0,0,0.06172839506172839,25.864197530864196,0)" xlink:href="#aE"/><use transform="matrix(0.06172839506172839,0,0,0.06172839506172839,33.20987654320987,0)" xlink:href="#aF"/><use transform="matrix(0.06172839506172839,0,0,0.06172839506172839,45.55555555555555,0)" xlink:href="#aG"/></g><use transform="matrix(0.06172839506172839,0,0,0.06172839506172839,0,0)" xlink:href="#ar" id="A"/><g id="B"><use transform="matrix(0.06172839506172839,0,0,0.06172839506172839,0,0)" xlink:href="#ab"/><use transform="matrix(0.06172839506172839,0,0,0.06172839506172839,7.345679012345679,0)" xlink:href="#as"/><use transform="matrix(0.06172839506172839,0,0,0.06172839506172839,13.518518518518519,0)" xlink:href="#ad"/><use transform="matrix(0.06172839506172839,0,0,0.06172839506172839,25.864197530864196,0)" xlink:href="#ae"/></g><g id="C"><use transform="matrix(0.06172839506172839,0,0,0.06172839506172839,0,0)" xlink:href="#al"/><use transform="matrix(0.06172839506172839,0,0,0.06172839506172839,12.345679012345679,0)" xlink:href="#at"/><use transform="matrix(0.06172839506172839,0,0,0.06172839506172839,28.333333333333332,0)" xlink:href="#au"/><use transform="matrix(0.06172839506172839,0,0,0.06172839506172839,40.67901234567901,0)" xlink:href="#av"/><use transform="matrix(0.06172839506172839,0,0,0.06172839506172839,54.19753086419753,0)" xlink:href="#aw"/></g><g id="D"><use transform="matrix(0.06172839506172839,0,0,0.06172839506172839,0,0)" xlink:href="#ar"/><use transform="matrix(0.06172839506172839,0,0,0.06172839506172839,14.814814814814813,0)" xlink:href="#aq"/><path d="M-1.1 1.54h24.37v1.63H-1.1z"/></g><g id="E"><use transform="matrix(0.06172839506172839,0,0,0.06172839506172839,0,0)" xlink:href="#ar"/><path d="M-1.1 1.54h17.03v1.63H-1.1z"/></g><g id="F"><use transform="matrix(0.06172839506172839,0,0,0.06172839506172839,0,0)" xlink:href="#ac"/><use transform="matrix(0.06172839506172839,0,0,0.06172839506172839,15.987654320987653,0)" xlink:href="#ad"/><use transform="matrix(0.06172839506172839,0,0,0.06172839506172839,28.333333333333332,0)" xlink:href="#ae"/><use transform="matrix(0.06172839506172839,0,0,0.06172839506172839,40.67901234567901,0)" xlink:href="#af"/><use transform="matrix(0.06172839506172839,0,0,0.06172839506172839,53.02469135802469,0)" xlink:href="#ag"/><use transform="matrix(0.06172839506172839,0,0,0.06172839506172839,59.19753086419753,0)" xlink:href="#ah"/><use transform="matrix(0.06172839506172839,0,0,0.06172839506172839,71.54320987654322,0)" xlink:href="#ai"/><use transform="matrix(0.06172839506172839,0,0,0.06172839506172839,78.8888888888889,0)" xlink:href="#aj"/><use transform="matrix(0.06172839506172839,0,0,0.06172839506172839,96.17283950617285,0)" xlink:href="#ak"/><use transform="matrix(0.06172839506172839,0,0,0.06172839506172839,101.91358024691358,0)" xlink:href="#ak"/><use transform="matrix(0.06172839506172839,0,0,0.06172839506172839,108.08641975308642,0)" xlink:href="#ah"/><use transform="matrix(0.06172839506172839,0,0,0.06172839506172839,120.4320987654321,0)" xlink:href="#ai"/></g><g id="G"><use transform="matrix(0.06172839506172839,0,0,0.06172839506172839,0,0)" xlink:href="#al"/><use transform="matrix(0.06172839506172839,0,0,0.06172839506172839,12.345679012345679,0)" xlink:href="#am"/></g><path fill="#3aa6dd" d="M183 0l-10-63H79L44 0H-7l138-248h61L234 0h-51zm-14-102l-15-108c-16 38-36 73-55 108h70" id="aH"/><path fill="#3aa6dd" d="M6 0l51-261h49L55 0H6" id="aI"/><path fill="#3aa6dd" d="M50-224l7-37h49l-7 37H50zM6 0l37-190h49L55 0H6" id="aJ"/><path fill="#3aa6dd" d="M67-101c-8 29-7 73 27 71 23-2 32-16 39-37l48 9C170-19 141 4 91 4 36 4 7-28 12-86c6-75 61-124 140-103 26 7 40 29 43 59l-50 4c-1-20-9-34-29-34-35 0-41 29-49 59" id="aK"/><path fill="#3aa6dd" d="M114-194c63-2 87 48 72 110H63c-3 28 1 55 31 54 21-1 32-13 37-29l44 13C160-14 137 4 91 4 41 4 11-22 11-73c0-71 33-119 103-121zm30 77c14-47-50-61-67-22-3 6-6 13-8 22h75" id="aL"/><path fill="#3aa6dd" d="M73-158H35l13-90h47" id="aM"/><path fill="#3aa6dd" d="M144-137c-1-29-70-35-71-2 16 41 103 10 103 80C176 9 79 16 32-9 18-17 9-31 4-48l44-6c3 32 80 36 82 1-15-42-103-11-103-82 0-77 157-79 161-8" id="aN"/><g id="H"><use transform="matrix(0.07407407407407408,0,0,0.07407407407407408,0,0)" xlink:href="#aH"/><use transform="matrix(0.07407407407407408,0,0,0.07407407407407408,19.185185185185187,0)" xlink:href="#aI"/><use transform="matrix(0.07407407407407408,0,0,0.07407407407407408,26.592592592592595,0)" xlink:href="#aJ"/><use transform="matrix(0.07407407407407408,0,0,0.07407407407407408,34,0)" xlink:href="#aK"/><use transform="matrix(0.07407407407407408,0,0,0.07407407407407408,48.81481481481481,0)" xlink:href="#aL"/><use transform="matrix(0.07407407407407408,0,0,0.07407407407407408,63.629629629629626,0)" xlink:href="#aM"/><use transform="matrix(0.07407407407407408,0,0,0.07407407407407408,69.92592592592592,0)" xlink:href="#aN"/></g><path fill="#3aa6dd" d="M156-122c2-23-7-37-28-37-47 0-58 44-58 89 0 24 12 40 36 40 43 0 47-49 50-92zM-8 75l50-265h48c0 10-3 24-3 30 22-50 127-45 121 29-6 73-21 135-92 135-29 0-46-14-55-35L41 75H-8" id="aO"/><path fill="#3aa6dd" d="M84-151c13-25 34-51 72-40l-8 41C67-170 71-64 56 0H6l36-190h47" id="aP"/><path fill="#3aa6dd" d="M124-194c51 0 84 22 84 74C207-44 167 4 94 4 43 4 11-23 11-74c0-74 41-120 113-120zM99-30c46 0 58-42 58-86 0-27-11-44-37-44-44 0-55 40-57 84-1 27 10 45 36 46" id="aQ"/><path fill="#3aa6dd" d="M50-224l7-37h49l-7 37H50zm1 246C45 64 7 85-39 71l7-33c23 5 33-8 36-27l39-201h49" id="aR"/><path fill="#3aa6dd" d="M151-194c95 0 34 128 28 194h-49l25-134c0-29-45-25-59-9C67-111 69-48 56 0H6l36-190h47l-4 32c15-20 33-36 66-36" id="aS"/><g id="I"><use transform="matrix(0.07407407407407408,0,0,0.07407407407407408,0,0)" xlink:href="#aO"/><use transform="matrix(0.07407407407407408,0,0,0.07407407407407408,16.222222222222225,0)" xlink:href="#aP"/><use transform="matrix(0.07407407407407408,0,0,0.07407407407407408,26.592592592592595,0)" xlink:href="#aQ"/><use transform="matrix(0.07407407407407408,0,0,0.07407407407407408,42.814814814814824,0)" xlink:href="#aR"/><use transform="matrix(0.07407407407407408,0,0,0.07407407407407408,50.22222222222223,0)" xlink:href="#aL"/><use transform="matrix(0.07407407407407408,0,0,0.07407407407407408,65.03703703703704,0)" xlink:href="#aK"/><use transform="matrix(0.07407407407407408,0,0,0.07407407407407408,79.85185185185185,0)" xlink:href="#R"/><use transform="matrix(0.07407407407407408,0,0,0.07407407407407408,88.66666666666666,0)" xlink:href="#aJ"/><use transform="matrix(0.07407407407407408,0,0,0.07407407407407408,96.07407407407408,0)" xlink:href="#aQ"/><use transform="matrix(0.07407407407407408,0,0,0.07407407407407408,112.29629629629629,0)" xlink:href="#aS"/></g><g id="J"><use transform="matrix(0.07407407407407408,0,0,0.07407407407407408,0,0)" xlink:href="#aQ"/><use transform="matrix(0.07407407407407408,0,0,0.07407407407407408,16.222222222222225,0)" xlink:href="#aS"/></g><path fill="#3aa6dd" d="M45-171c29-32 103-29 114 14 2-11 5-23 8-33h47L176-2c-3 70-92 96-155 64C9 56 1 42-1 25l50-5c2 28 48 27 63 11 13-13 20-45 21-66-13 20-30 35-62 36-87 3-60-134-26-172zM94-35c41-3 55-43 55-86 0-24-12-39-35-39-43 0-51 48-51 90 0 22 9 37 31 35" id="aT"/><g id="K"><use transform="matrix(0.07407407407407408,0,0,0.07407407407407408,0,0)" xlink:href="#aT"/><use transform="matrix(0.07407407407407408,0,0,0.07407407407407408,16.222222222222225,0)" xlink:href="#aP"/><use transform="matrix(0.07407407407407408,0,0,0.07407407407407408,26.592592592592595,0)" xlink:href="#aL"/><use transform="matrix(0.07407407407407408,0,0,0.07407407407407408,41.40740740740741,0)" xlink:href="#aL"/><use transform="matrix(0.07407407407407408,0,0,0.07407407407407408,56.22222222222223,0)" xlink:href="#aS"/></g><path fill="#3aa6dd" d="M166-52c-4 17 5 29 24 23l-3 27c-30 11-74 1-67-34C105-15 91 4 56 4 23 4 3-15 2-49c0-64 63-67 128-67 10-22 3-53-29-45-13 3-22 10-25 24l-46-5c5-64 156-77 153 0-1 33-11 60-17 90zM97-88c-44-9-64 57-19 57 31 0 42-28 47-57H97" id="aU"/><path fill="#3aa6dd" d="M132-28C118-9 101 4 69 4 30 4 10-23 10-62c0-70 24-129 92-132 31-1 47 14 56 35l19-102h49L179 0h-49zM62-69c0 22 7 39 29 39 45-2 54-45 57-90 2-27-10-40-33-40-44 0-53 48-53 91" id="aV"/><g id="L"><use transform="matrix(0.07407407407407408,0,0,0.07407407407407408,0,0)" xlink:href="#aU"/><use transform="matrix(0.07407407407407408,0,0,0.07407407407407408,14.814814814814817,0)" xlink:href="#aS"/><use transform="matrix(0.07407407407407408,0,0,0.07407407407407408,31.03703703703704,0)" xlink:href="#aV"/></g><path fill="#3aa6dd" d="M100 10C77 47 50 87-15 72l7-35c37 9 51-18 65-41L20-190h51L89-44l73-146h53" id="aW"/><path fill="#3aa6dd" d="M212 0h-52l-8-156L82 0H30L17-190h46l2 145 66-145h53l8 145 60-145h47" id="aX"/><g id="M"><use transform="matrix(0.07407407407407408,0,0,0.07407407407407408,0,0)" xlink:href="#aW"/><use transform="matrix(0.07407407407407408,0,0,0.07407407407407408,14.814814814814817,0)" xlink:href="#aL"/><use transform="matrix(0.07407407407407408,0,0,0.07407407407407408,29.629629629629633,0)" xlink:href="#aI"/><use transform="matrix(0.07407407407407408,0,0,0.07407407407407408,37.03703703703704,0)" xlink:href="#aI"/><use transform="matrix(0.07407407407407408,0,0,0.07407407407407408,44.44444444444444,0)" xlink:href="#aQ"/><use transform="matrix(0.07407407407407408,0,0,0.07407407407407408,60.66666666666667,0)" xlink:href="#aX"/></g><g id="N"><use transform="matrix(0.07407407407407408,0,0,0.07407407407407408,0,0)" xlink:href="#aT"/><use transform="matrix(0.07407407407407408,0,0,0.07407407407407408,16.222222222222225,0)" xlink:href="#aP"/><use transform="matrix(0.07407407407407408,0,0,0.07407407407407408,26.592592592592595,0)" xlink:href="#aL"/><use transform="matrix(0.07407407407407408,0,0,0.07407407407407408,41.40740740740741,0)" xlink:href="#aL"/><use transform="matrix(0.07407407407407408,0,0,0.07407407407407408,56.22222222222223,0)" xlink:href="#aS"/></g><g id="O"><use transform="matrix(0.07407407407407408,0,0,0.07407407407407408,0,0)" xlink:href="#aQ"/><use transform="matrix(0.07407407407407408,0,0,0.07407407407407408,16.222222222222225,0)" xlink:href="#aS"/></g><path fill="#3aa6dd" d="M240-76C239 26 104-5 6 0l48-248c79 4 193-21 193 58 0 38-25 53-57 60 29 5 49 21 50 54zm-45-106c0-40-58-24-96-27l-12 61c45-3 108 12 108-34zm-7 105c0-44-65-31-109-33L66-38c51-3 122 14 122-39" id="aY"/><path fill="#3aa6dd" d="M128 0L95-87 70-74 55 0H6l51-261h49L77-111l82-79h56l-83 74L180 0h-52" id="aZ"/><g id="P"><use transform="matrix(0.07407407407407408,0,0,0.07407407407407408,0,0)" xlink:href="#aY"/><use transform="matrix(0.07407407407407408,0,0,0.07407407407407408,19.185185185185187,0)" xlink:href="#aU"/><use transform="matrix(0.07407407407407408,0,0,0.07407407407407408,34,0)" xlink:href="#aS"/><use transform="matrix(0.07407407407407408,0,0,0.07407407407407408,50.22222222222223,0)" xlink:href="#aZ"/><use transform="matrix(0.07407407407407408,0,0,0.07407407407407408,65.03703703703704,0)" xlink:href="#aM"/><use transform="matrix(0.07407407407407408,0,0,0.07407407407407408,71.33333333333333,0)" xlink:href="#aN"/></g><path fill="#3aa6dd" d="M241-173c-1 82-78 91-166 86L58 0H6l48-248c87 0 188-12 187 75zm-53 2c0-43-48-36-90-36l-15 80c50 0 105 7 105-44" id="ba"/><g id="Q"><use transform="matrix(0.07407407407407408,0,0,0.07407407407407408,0,0)" xlink:href="#ba"/><use transform="matrix(0.07407407407407408,0,0,0.07407407407407408,17.77777777777778,0)" xlink:href="#aU"/><use transform="matrix(0.07407407407407408,0,0,0.07407407407407408,32.592592592592595,0)" xlink:href="#aJ"/><use transform="matrix(0.07407407407407408,0,0,0.07407407407407408,40,0)" xlink:href="#aS"/><use transform="matrix(0.07407407407407408,0,0,0.07407407407407408,56.22222222222223,0)" xlink:href="#R"/><use transform="matrix(0.07407407407407408,0,0,0.07407407407407408,65.03703703703704,0)" xlink:href="#aL"/><use transform="matrix(0.07407407407407408,0,0,0.07407407407407408,79.85185185185185,0)" xlink:href="#aP"/><use transform="matrix(0.07407407407407408,0,0,0.07407407407407408,90.22222222222221,0)" xlink:href="#aM"/><use transform="matrix(0.07407407407407408,0,0,0.07407407407407408,96.51851851851849,0)" xlink:href="#aN"/></g></defs></g></svg>