<svg xmlns="http://www.w3.org/2000/svg" xmlns:xlink="http://www.w3.org/1999/xlink" xmlns:lucid="lucid" width="660" height="1100"><g transform="translate(-340 -120)" lucid:page-tab-id="0_0"><path d="M360 140h620v343H360z" stroke="#000" stroke-opacity="0" stroke-width="2" fill="#e5e5e5"/><path d="M740 420h240v60H740z" stroke="#000" stroke-opacity="0" stroke-width="2" fill="#fff" fill-opacity="0"/><use xlink:href="#a" transform="matrix(1,0,0,1,745,425) translate(20.555555555555543 41.111111111111114)"/><use xlink:href="#b" transform="matrix(1,0,0,1,745,425) translate(110.55555555555554 41.111111111111114)"/><path d="M765 776.67h195V840H765z" stroke="#000" stroke-opacity="0" stroke-width="2" fill="#fff" fill-opacity="0"/><use xlink:href="#c" transform="matrix(1,0,0,1,770,781.6666666666666) translate(67.28395061728395 18.111111111111114)"/><use xlink:href="#d" transform="matrix(1,0,0,1,770,781.6666666666666) translate(105.8641975308642 18.111111111111114)"/><use xlink:href="#e" transform="matrix(1,0,0,1,770,781.6666666666666) translate(151.41975308641975 18.111111111111114)"/><use xlink:href="#f" transform="matrix(1,0,0,1,770,781.6666666666666) translate(65.55555555555554 44.777777777777786)"/><path d="M360 520h620v343H360z" stroke="#000" stroke-opacity="0" stroke-width="2" fill="#e5e5e5"/><path d="M720 800h260v60H720z" stroke="#000" stroke-opacity="0" stroke-width="2" fill="#fff" fill-opacity="0"/><use xlink:href="#g" transform="matrix(1,0,0,1,725,805) translate(19.012345679012356 14.44444444444445)"/><use xlink:href="#h" transform="matrix(1,0,0,1,725,805) translate(58.765432098765444 14.44444444444445)"/><use xlink:href="#i" transform="matrix(1,0,0,1,725,805) translate(104.320987654321 14.44444444444445)"/><use xlink:href="#j" transform="matrix(1,0,0,1,725,805) translate(142.90123456790124 14.44444444444445)"/><use xlink:href="#k" transform="matrix(1,0,0,1,725,805) translate(41.851851851851876 41.111111111111114)"/><use xlink:href="#l" transform="matrix(1,0,0,1,725,805) translate(77.53086419753089 41.111111111111114)"/><use xlink:href="#m" transform="matrix(1,0,0,1,725,805) translate(116.9135802469136 41.111111111111114)"/><use xlink:href="#n" transform="matrix(1,0,0,1,725,805) translate(183.45679012345678 41.111111111111114)"/><path d="M360 880h620v220H360z" stroke="#000" stroke-opacity="0" stroke-width="2" fill="#e5e5e5"/><path d="M720 1040h260v60H720z" stroke="#000" stroke-opacity="0" stroke-width="2" fill="#fff" fill-opacity="0"/><g><use xlink:href="#o" transform="matrix(1,0,0,1,725,1045) translate(103.14814814814815 14.44444444444445)"/><use xlink:href="#p" transform="matrix(1,0,0,1,725,1045) translate(142.90123456790124 14.44444444444445)"/><use xlink:href="#q" transform="matrix(1,0,0,1,725,1045) translate(34.38271604938271 41.111111111111114)"/><use xlink:href="#r" transform="matrix(1,0,0,1,725,1045) translate(70.06172839506172 41.111111111111114)"/><use xlink:href="#s" transform="matrix(1,0,0,1,725,1045) translate(109.44444444444443 41.111111111111114)"/><use xlink:href="#t" transform="matrix(1,0,0,1,725,1045) translate(183.45679012345678 41.111111111111114)"/></g><path d="M360 1120h620v78.58H360z" stroke="#000" stroke-opacity="0" stroke-width="2" fill="#e5e5e5"/><path d="M720 1140h260v60H720z" stroke="#000" stroke-opacity="0" stroke-width="2" fill="#fff" fill-opacity="0"/><g><use xlink:href="#c" transform="matrix(1,0,0,1,725,1145) translate(104.32098765432099 14.44444444444445)"/><use xlink:href="#p" transform="matrix(1,0,0,1,725,1145) translate(142.90123456790124 14.44444444444445)"/><use xlink:href="#q" transform="matrix(1,0,0,1,725,1145) translate(34.38271604938271 41.111111111111114)"/><use xlink:href="#r" transform="matrix(1,0,0,1,725,1145) translate(70.06172839506172 41.111111111111114)"/><use xlink:href="#s" transform="matrix(1,0,0,1,725,1145) translate(109.44444444444443 41.111111111111114)"/><use xlink:href="#t" transform="matrix(1,0,0,1,725,1145) translate(183.45679012345678 41.111111111111114)"/></g><g class="lucid-layer" lucid:layer-id="L6-ez2dE2id~" display="block"><path d="M722.07 199.16l75.04 66.1M719.43 202.16l75.03 66.1M722.1 199.18l-.78-.68M719.45 202.18l-.77-.68" stroke="#000" stroke-width="2" fill="none"/><path d="M807.24 276.85l-13.77-5.95 6.13-6.96z" stroke="#000" stroke-width="2"/><path d="M560.7 202.12l-66.2 66.2M557.88 199.3l-66.2 66.2M560.7 202.14l.7-.73M557.86 199.3l.73-.7" stroke="#000" stroke-width="2" fill="none"/><path d="M482.3 277.7l6.8-13.35 6.55 6.55z" stroke="#000" stroke-width="2"/><path d="M482 321v79.16M478 321v79.16M482 321.03V320M478 321.03V320" stroke="#000" stroke-width="2" fill="none"/><path d="M480 415.42l-4.64-14.26h9.28z" stroke="#000" stroke-width="2"/><path d="M380 160h580v41H380z" stroke="#000" stroke-opacity="0" stroke-width="2" fill="#a3d977"/><use xlink:href="#u" transform="matrix(1,0,0,1,385,165) translate(98.76543209876542 19.944444444444443)"/><use xlink:href="#v" transform="matrix(1,0,0,1,385,165) translate(143.20987654320987 19.944444444444443)"/><use xlink:href="#w" transform="matrix(1,0,0,1,385,165) translate(162.96296296296293 19.944444444444443)"/><use xlink:href="#x" transform="matrix(1,0,0,1,385,165) translate(275.9259259259259 19.944444444444443)"/><use xlink:href="#y" transform="matrix(1,0,0,1,385,165) translate(296.91358024691357 19.944444444444443)"/><use xlink:href="#z" transform="matrix(1,0,0,1,385,165) translate(340.4320987654321 19.944444444444443)"/><use xlink:href="#A" transform="matrix(1,0,0,1,385,165) translate(397.22222222222223 19.944444444444443)"/><path d="M380 280h220v40H380z" stroke="#000" stroke-opacity="0" stroke-width="2" fill="#ffeca9"/><g><use xlink:href="#u" transform="matrix(1,0,0,1,385,285) translate(3.2716049382715937 19.944444444444443)"/><use xlink:href="#v" transform="matrix(1,0,0,1,385,285) translate(47.71604938271604 19.944444444444443)"/><use xlink:href="#B" transform="matrix(1,0,0,1,385,285) translate(67.46913580246913 19.944444444444443)"/><use xlink:href="#C" transform="matrix(1,0,0,1,385,285) translate(111.85185185185185 19.944444444444443)"/><use xlink:href="#D" transform="matrix(1,0,0,1,385,285) translate(184.5679012345679 19.944444444444443)"/></g><path d="M420 419.67h140v40H420z" stroke="#000" stroke-opacity="0" stroke-width="2" fill="#ffeca9"/><g><use xlink:href="#E" transform="matrix(1,0,0,1,425,424.6666666666667) translate(2.716049382716051 19.944444444444443)"/><use xlink:href="#C" transform="matrix(1,0,0,1,425,424.6666666666667) translate(39.75308641975309 19.944444444444443)"/><use xlink:href="#F" transform="matrix(1,0,0,1,425,424.6666666666667) translate(112.46913580246914 19.944444444444443)"/></g><path d="M680 280h280v41H680z" stroke="#000" stroke-opacity="0" stroke-width="2" fill="#a3d977"/><g><use xlink:href="#G" transform="matrix(1,0,0,1,685,284.99999999999994) translate(5.740740740740762 19.944444444444443)"/><use xlink:href="#H" transform="matrix(1,0,0,1,685,284.99999999999994) translate(121.6666666666667 19.944444444444443)"/><use xlink:href="#I" transform="matrix(1,0,0,1,685,284.99999999999994) translate(163.8888888888889 19.944444444444443)"/><use xlink:href="#J" transform="matrix(1,0,0,1,685,284.99999999999994) translate(197.5925925925926 19.944444444444443)"/></g></g><g class="lucid-layer" lucid:layer-id="A.zUf7yiA4Q0" display="block"><path d="M722.07 579.16l75.04 66.1M719.43 582.16l75.03 66.1M722.1 579.18l-.78-.68M719.45 582.18l-.77-.68" stroke="#000" stroke-width="2" fill="none"/><path d="M807.24 656.85l-13.77-5.95 6.13-6.96z" stroke="#000" stroke-width="2"/><path d="M560.7 582.12l-66.2 66.2M557.88 579.3l-66.2 66.2M560.7 582.14l.7-.73M557.86 579.3l.73-.7" stroke="#000" stroke-width="2" fill="none"/><path d="M482.3 657.7l6.8-13.35 6.55 6.55z" stroke="#000" stroke-width="2"/><path d="M482 701v79.16M478 701v79.16M482 701.03V700M478 701.03V700" stroke="#000" stroke-width="2" fill="none"/><path d="M480 795.42l-4.64-14.26h9.28z" stroke="#000" stroke-width="2"/><path d="M380 540h580v41H380z" stroke="#000" stroke-opacity="0" stroke-width="2" fill="#a3d977"/><use xlink:href="#u" transform="matrix(1,0,0,1,385,545) translate(98.76543209876542 19.944444444444443)"/><use xlink:href="#v" transform="matrix(1,0,0,1,385,545) translate(143.20987654320987 19.944444444444443)"/><use xlink:href="#w" transform="matrix(1,0,0,1,385,545) translate(162.96296296296293 19.944444444444443)"/><use xlink:href="#x" transform="matrix(1,0,0,1,385,545) translate(275.9259259259259 19.944444444444443)"/><use xlink:href="#y" transform="matrix(1,0,0,1,385,545) translate(296.91358024691357 19.944444444444443)"/><use xlink:href="#z" transform="matrix(1,0,0,1,385,545) translate(340.4320987654321 19.944444444444443)"/><use xlink:href="#A" transform="matrix(1,0,0,1,385,545) translate(397.22222222222223 19.944444444444443)"/><path d="M380 660h220v40H380z" stroke="#000" stroke-opacity="0" stroke-width="2" fill="#ffeca9"/><g><use xlink:href="#u" transform="matrix(1,0,0,1,385,665) translate(3.2716049382715937 19.944444444444443)"/><use xlink:href="#v" transform="matrix(1,0,0,1,385,665) translate(47.71604938271604 19.944444444444443)"/><use xlink:href="#B" transform="matrix(1,0,0,1,385,665) translate(67.46913580246913 19.944444444444443)"/><use xlink:href="#C" transform="matrix(1,0,0,1,385,665) translate(111.85185185185185 19.944444444444443)"/><use xlink:href="#D" transform="matrix(1,0,0,1,385,665) translate(184.5679012345679 19.944444444444443)"/></g><path d="M420 799.67h140v40H420z" stroke="#000" stroke-opacity="0" stroke-width="2" fill="#ffeca9"/><g><use xlink:href="#E" transform="matrix(1,0,0,1,425,804.6666666666667) translate(2.716049382716051 19.944444444444443)"/><use xlink:href="#C" transform="matrix(1,0,0,1,425,804.6666666666667) translate(39.75308641975309 19.944444444444443)"/><use xlink:href="#F" transform="matrix(1,0,0,1,425,804.6666666666667) translate(112.46913580246914 19.944444444444443)"/></g><path d="M680 660h280v41H680z" stroke="#000" stroke-opacity="0" stroke-width="2" fill="#a3d977"/><g><use xlink:href="#G" transform="matrix(1,0,0,1,685,665) translate(5.740740740740762 19.944444444444443)"/><use xlink:href="#H" transform="matrix(1,0,0,1,685,665) translate(121.6666666666667 19.944444444444443)"/><use xlink:href="#I" transform="matrix(1,0,0,1,685,665) translate(163.8888888888889 19.944444444444443)"/><use xlink:href="#J" transform="matrix(1,0,0,1,685,665) translate(197.5925925925926 19.944444444444443)"/></g></g><g class="lucid-layer" lucid:layer-id="9.zUbB57LRww" display="block"><path d="M482 941v79.16M478 941v79.16M482 941.03V940M478 941.03V940" stroke="#000" stroke-width="2" fill="none"/><path d="M480 1035.42l-4.64-14.26h9.28z" stroke="#000" stroke-width="2"/><path d="M380 900h220v40H380z" stroke="#000" stroke-opacity="0" stroke-width="2" fill="#ffeca9"/><use xlink:href="#u" transform="matrix(1,0,0,1,385,905) translate(3.2716049382715937 19.944444444444443)"/><use xlink:href="#v" transform="matrix(1,0,0,1,385,905) translate(47.71604938271604 19.944444444444443)"/><use xlink:href="#B" transform="matrix(1,0,0,1,385,905) translate(67.46913580246913 19.944444444444443)"/><use xlink:href="#C" transform="matrix(1,0,0,1,385,905) translate(111.85185185185185 19.944444444444443)"/><use xlink:href="#D" transform="matrix(1,0,0,1,385,905) translate(184.5679012345679 19.944444444444443)"/><path d="M420 1039.67h140v40H420z" stroke="#000" stroke-opacity="0" stroke-width="2" fill="#ffeca9"/><g><use xlink:href="#E" transform="matrix(1,0,0,1,425,1044.6666666666667) translate(2.716049382716051 19.944444444444443)"/><use xlink:href="#C" transform="matrix(1,0,0,1,425,1044.6666666666667) translate(39.75308641975309 19.944444444444443)"/><use xlink:href="#F" transform="matrix(1,0,0,1,425,1044.6666666666667) translate(112.46913580246914 19.944444444444443)"/></g></g><g class="lucid-layer" lucid:layer-id="oaAU8G~__XTL" display="block"><path d="M420 1140h140v40H420z" stroke="#000" stroke-opacity="0" stroke-width="2" fill="#ffeca9"/><use xlink:href="#E" transform="matrix(1,0,0,1,425,1145) translate(2.716049382716051 19.944444444444443)"/><use xlink:href="#C" transform="matrix(1,0,0,1,425,1145) translate(39.75308641975309 19.944444444444443)"/><use xlink:href="#F" transform="matrix(1,0,0,1,425,1145) translate(112.46913580246914 19.944444444444443)"/></g><defs><path fill="#0c7cba" d="M140-251c80 0 125 45 125 126S219 4 139 4C58 4 15-44 15-125s44-126 125-126zm-1 214c52 0 73-35 73-88 0-50-21-86-72-86-52 0-73 35-73 86s22 88 72 88" id="K"/><path fill="#0c7cba" d="M135-150c-39-12-60 13-60 57V0H25l-1-190h47c2 13-1 29 3 40 6-28 27-53 61-41v41" id="L"/><path fill="#0c7cba" d="M25-224v-37h50v37H25zM25 0v-190h50V0H25" id="M"/><path fill="#0c7cba" d="M195-6C206 82 75 100 31 46c-4-6-6-13-8-21l49-6c3 16 16 24 34 25 40 0 42-37 40-79-11 22-30 35-61 35-53 0-70-43-70-97 0-56 18-96 73-97 30 0 46 14 59 34l2-30h47zm-90-29c32 0 41-27 41-63 0-35-9-62-40-62-32 0-39 29-40 63 0 36 9 62 39 62" id="N"/><path fill="#0c7cba" d="M135-194c87-1 58 113 63 194h-50c-7-57 23-157-34-157-59 0-34 97-39 157H25l-1-190h47c2 12-1 28 3 38 12-26 28-41 61-42" id="O"/><path fill="#0c7cba" d="M133-34C117-15 103 5 69 4 32 3 11-16 11-54c-1-60 55-63 116-61 1-26-3-47-28-47-18 1-26 9-28 27l-52-2c7-38 36-58 82-57s74 22 75 68l1 82c-1 14 12 18 25 15v27c-30 8-71 5-69-32zm-48 3c29 0 43-24 42-57-32 0-66-3-65 30 0 17 8 27 23 27" id="P"/><path fill="#0c7cba" d="M25 0v-261h50V0H25" id="Q"/><g id="a"><use transform="matrix(0.06172839506172839,0,0,0.06172839506172839,0,0)" xlink:href="#K"/><use transform="matrix(0.06172839506172839,0,0,0.06172839506172839,17.28395061728395,0)" xlink:href="#L"/><use transform="matrix(0.06172839506172839,0,0,0.06172839506172839,25.925925925925924,0)" xlink:href="#M"/><use transform="matrix(0.06172839506172839,0,0,0.06172839506172839,32.098765432098766,0)" xlink:href="#N"/><use transform="matrix(0.06172839506172839,0,0,0.06172839506172839,45.617283950617285,0)" xlink:href="#M"/><use transform="matrix(0.06172839506172839,0,0,0.06172839506172839,51.79012345679013,0)" xlink:href="#O"/><use transform="matrix(0.06172839506172839,0,0,0.06172839506172839,65.30864197530865,0)" xlink:href="#P"/><use transform="matrix(0.06172839506172839,0,0,0.06172839506172839,77.65432098765433,0)" xlink:href="#Q"/></g><path fill="#0c7cba" d="M115-3C79 11 28 4 28-45v-112H4v-33h27l15-45h31v45h36v33H77v99c-1 23 16 31 38 25v30" id="R"/><path fill="#0c7cba" d="M137-138c1-29-70-34-71-4 15 46 118 7 119 86 1 83-164 76-172 9l43-7c4 19 20 25 44 25 33 8 57-30 24-41C81-84 22-81 20-136c-2-80 154-74 161-7" id="S"/><path fill="#0c7cba" d="M190-63c-7 42-38 67-86 67-59 0-84-38-90-98-12-110 154-137 174-36l-49 2c-2-19-15-32-35-32-30 0-35 28-38 64-6 74 65 87 74 30" id="T"/><path fill="#0c7cba" d="M110-194c64 0 96 36 96 99 0 64-35 99-97 99-61 0-95-36-95-99 0-62 34-99 96-99zm-1 164c35 0 45-28 45-65 0-40-10-65-43-65-34 0-45 26-45 65 0 36 10 65 43 65" id="U"/><g id="b"><use transform="matrix(0.06172839506172839,0,0,0.06172839506172839,0,0)" xlink:href="#R"/><use transform="matrix(0.06172839506172839,0,0,0.06172839506172839,7.345679012345679,0)" xlink:href="#L"/><use transform="matrix(0.06172839506172839,0,0,0.06172839506172839,15.987654320987653,0)" xlink:href="#P"/><use transform="matrix(0.06172839506172839,0,0,0.06172839506172839,28.333333333333332,0)" xlink:href="#O"/><use transform="matrix(0.06172839506172839,0,0,0.06172839506172839,41.85185185185185,0)" xlink:href="#S"/><use transform="matrix(0.06172839506172839,0,0,0.06172839506172839,54.197530864197525,0)" xlink:href="#P"/><use transform="matrix(0.06172839506172839,0,0,0.06172839506172839,66.5432098765432,0)" xlink:href="#T"/><use transform="matrix(0.06172839506172839,0,0,0.06172839506172839,78.88888888888889,0)" xlink:href="#R"/><use transform="matrix(0.06172839506172839,0,0,0.06172839506172839,86.23456790123457,0)" xlink:href="#M"/><use transform="matrix(0.06172839506172839,0,0,0.06172839506172839,92.4074074074074,0)" xlink:href="#U"/><use transform="matrix(0.06172839506172839,0,0,0.06172839506172839,105.92592592592592,0)" xlink:href="#O"/></g><path fill="#0c7cba" d="M24-248c93 1 206-16 204 79-1 75-69 88-152 82V0H24v-248zm52 121c47 0 100 7 100-41 0-47-54-39-100-39v80" id="V"/><path fill="#0c7cba" d="M62-158H24l-5-90h48" id="W"/><g id="c"><use transform="matrix(0.06172839506172839,0,0,0.06172839506172839,0,0)" xlink:href="#V"/><use transform="matrix(0.06172839506172839,0,0,0.06172839506172839,14.814814814814813,0)" xlink:href="#W"/><use transform="matrix(0.06172839506172839,0,0,0.06172839506172839,20.061728395061728,0)" xlink:href="#S"/></g><path fill="#0c7cba" d="M88-194c31-1 46 15 58 34l-1-101h50l1 261h-48c-2-10 0-23-3-31C134-8 116 4 84 4 32 4 16-41 15-95c0-56 19-97 73-99zm17 164c33 0 40-30 41-66 1-37-9-64-41-64s-38 30-39 65c0 43 13 65 39 65" id="X"/><g id="d"><use transform="matrix(0.06172839506172839,0,0,0.06172839506172839,0,0)" xlink:href="#P"/><use transform="matrix(0.06172839506172839,0,0,0.06172839506172839,12.345679012345679,0)" xlink:href="#O"/><use transform="matrix(0.06172839506172839,0,0,0.06172839506172839,25.864197530864196,0)" xlink:href="#X"/></g><path fill="#0c7cba" d="M199 0l-22-63H83L61 0H9l90-248h61L250 0h-51zm-33-102l-36-108c-10 38-24 72-36 108h72" id="Y"/><g id="e"><use transform="matrix(0.06172839506172839,0,0,0.06172839506172839,0,0)" xlink:href="#Y"/><use transform="matrix(0.06172839506172839,0,0,0.06172839506172839,15.987654320987653,0)" xlink:href="#W"/><use transform="matrix(0.06172839506172839,0,0,0.06172839506172839,21.234567901234566,0)" xlink:href="#S"/></g><path fill="#0c7cba" d="M135-194c53 0 70 44 70 98 0 56-19 98-73 100-31 1-45-17-59-34 3 33 2 69 2 105H25l-1-265h48c2 10 0 23 3 31 11-24 29-35 60-35zM114-30c33 0 39-31 40-66 0-38-9-64-40-64-56 0-55 130 0 130" id="Z"/><path fill="#0c7cba" d="M25-224v-37h50v37H25zM75 22c2 45-34 59-81 51V38c22 5 31-5 31-27v-201h50V22" id="aa"/><path fill="#0c7cba" d="M185-48c-13 30-37 53-82 52C43 2 14-33 14-96s30-98 90-98c62 0 83 45 84 108H66c0 31 8 55 39 56 18 0 30-7 34-22zm-45-69c5-46-57-63-70-21-2 6-4 13-4 21h74" id="ab"/><g id="f"><use transform="matrix(0.06172839506172839,0,0,0.06172839506172839,0,0)" xlink:href="#Z"/><use transform="matrix(0.06172839506172839,0,0,0.06172839506172839,13.518518518518517,0)" xlink:href="#L"/><use transform="matrix(0.06172839506172839,0,0,0.06172839506172839,22.160493827160494,0)" xlink:href="#U"/><use transform="matrix(0.06172839506172839,0,0,0.06172839506172839,35.67901234567901,0)" xlink:href="#aa"/><use transform="matrix(0.06172839506172839,0,0,0.06172839506172839,41.851851851851855,0)" xlink:href="#ab"/><use transform="matrix(0.06172839506172839,0,0,0.06172839506172839,54.19753086419753,0)" xlink:href="#T"/><use transform="matrix(0.06172839506172839,0,0,0.06172839506172839,66.54320987654322,0)" xlink:href="#R"/><use transform="matrix(0.06172839506172839,0,0,0.06172839506172839,73.8888888888889,0)" xlink:href="#M"/><use transform="matrix(0.06172839506172839,0,0,0.06172839506172839,80.06172839506173,0)" xlink:href="#U"/><use transform="matrix(0.06172839506172839,0,0,0.06172839506172839,93.58024691358025,0)" xlink:href="#O"/><use transform="matrix(0.06172839506172839,0,0,0.06172839506172839,107.09876543209877,0)" xlink:href="#S"/></g><g id="g"><use transform="matrix(0.06172839506172839,0,0,0.06172839506172839,0,0)" xlink:href="#Y"/><use transform="matrix(0.06172839506172839,0,0,0.06172839506172839,15.987654320987653,0)" xlink:href="#W"/><use transform="matrix(0.06172839506172839,0,0,0.06172839506172839,21.234567901234566,0)" xlink:href="#S"/></g><g id="h"><use transform="matrix(0.06172839506172839,0,0,0.06172839506172839,0,0)" xlink:href="#P"/><use transform="matrix(0.06172839506172839,0,0,0.06172839506172839,12.345679012345679,0)" xlink:href="#O"/><use transform="matrix(0.06172839506172839,0,0,0.06172839506172839,25.864197530864196,0)" xlink:href="#X"/></g><g id="i"><use transform="matrix(0.06172839506172839,0,0,0.06172839506172839,0,0)" xlink:href="#V"/><use transform="matrix(0.06172839506172839,0,0,0.06172839506172839,14.814814814814813,0)" xlink:href="#W"/><use transform="matrix(0.06172839506172839,0,0,0.06172839506172839,20.061728395061728,0)" xlink:href="#S"/></g><g id="j"><use transform="matrix(0.06172839506172839,0,0,0.06172839506172839,0,0)" xlink:href="#Z"/><use transform="matrix(0.06172839506172839,0,0,0.06172839506172839,13.518518518518517,0)" xlink:href="#L"/><use transform="matrix(0.06172839506172839,0,0,0.06172839506172839,22.160493827160494,0)" xlink:href="#U"/><use transform="matrix(0.06172839506172839,0,0,0.06172839506172839,35.67901234567901,0)" xlink:href="#aa"/><use transform="matrix(0.06172839506172839,0,0,0.06172839506172839,41.851851851851855,0)" xlink:href="#ab"/><use transform="matrix(0.06172839506172839,0,0,0.06172839506172839,54.19753086419753,0)" xlink:href="#T"/><use transform="matrix(0.06172839506172839,0,0,0.06172839506172839,66.54320987654322,0)" xlink:href="#R"/><use transform="matrix(0.06172839506172839,0,0,0.06172839506172839,73.8888888888889,0)" xlink:href="#M"/><use transform="matrix(0.06172839506172839,0,0,0.06172839506172839,80.06172839506173,0)" xlink:href="#U"/><use transform="matrix(0.06172839506172839,0,0,0.06172839506172839,93.58024691358025,0)" xlink:href="#O"/></g><path fill="#0c7cba" d="M121-226c-27-7-43 5-38 36h38v33H83V0H34v-157H6v-33h28c-9-59 32-81 87-68v32" id="ac"/><g id="k"><use transform="matrix(0.06172839506172839,0,0,0.06172839506172839,0,0)" xlink:href="#ac"/><use transform="matrix(0.06172839506172839,0,0,0.06172839506172839,7.345679012345679,0)" xlink:href="#U"/><use transform="matrix(0.06172839506172839,0,0,0.06172839506172839,20.864197530864196,0)" xlink:href="#L"/></g><path fill="#0c7cba" d="M114-157C55-157 80-60 75 0H25v-261h50l-1 109c12-26 28-41 61-42 86-1 58 113 63 194h-50c-7-57 23-157-34-157" id="ad"/><g id="l"><use transform="matrix(0.06172839506172839,0,0,0.06172839506172839,0,0)" xlink:href="#R"/><use transform="matrix(0.06172839506172839,0,0,0.06172839506172839,7.345679012345679,0)" xlink:href="#ad"/><use transform="matrix(0.06172839506172839,0,0,0.06172839506172839,20.864197530864196,0)" xlink:href="#ab"/></g><g id="m"><use transform="matrix(0.06172839506172839,0,0,0.06172839506172839,0,0)" xlink:href="#N"/><use transform="matrix(0.06172839506172839,0,0,0.06172839506172839,13.518518518518517,0)" xlink:href="#L"/><use transform="matrix(0.06172839506172839,0,0,0.06172839506172839,22.160493827160494,0)" xlink:href="#ab"/><use transform="matrix(0.06172839506172839,0,0,0.06172839506172839,34.50617283950617,0)" xlink:href="#ab"/><use transform="matrix(0.06172839506172839,0,0,0.06172839506172839,46.85185185185185,0)" xlink:href="#O"/></g><g id="n"><use transform="matrix(0.06172839506172839,0,0,0.06172839506172839,0,0)" xlink:href="#Q"/><use transform="matrix(0.06172839506172839,0,0,0.06172839506172839,6.172839506172839,0)" xlink:href="#ab"/><use transform="matrix(0.06172839506172839,0,0,0.06172839506172839,18.51851851851852,0)" xlink:href="#X"/><use transform="matrix(0.06172839506172839,0,0,0.06172839506172839,32.03703703703704,0)" xlink:href="#N"/><use transform="matrix(0.06172839506172839,0,0,0.06172839506172839,45.55555555555556,0)" xlink:href="#ab"/><use transform="matrix(0.06172839506172839,0,0,0.06172839506172839,57.901234567901234,0)" xlink:href="#L"/></g><g id="o"><use transform="matrix(0.06172839506172839,0,0,0.06172839506172839,0,0)" xlink:href="#Y"/><use transform="matrix(0.06172839506172839,0,0,0.06172839506172839,15.987654320987653,0)" xlink:href="#W"/><use transform="matrix(0.06172839506172839,0,0,0.06172839506172839,21.234567901234566,0)" xlink:href="#S"/></g><g id="p"><use transform="matrix(0.06172839506172839,0,0,0.06172839506172839,0,0)" xlink:href="#Z"/><use transform="matrix(0.06172839506172839,0,0,0.06172839506172839,13.518518518518517,0)" xlink:href="#L"/><use transform="matrix(0.06172839506172839,0,0,0.06172839506172839,22.160493827160494,0)" xlink:href="#U"/><use transform="matrix(0.06172839506172839,0,0,0.06172839506172839,35.67901234567901,0)" xlink:href="#aa"/><use transform="matrix(0.06172839506172839,0,0,0.06172839506172839,41.851851851851855,0)" xlink:href="#ab"/><use transform="matrix(0.06172839506172839,0,0,0.06172839506172839,54.19753086419753,0)" xlink:href="#T"/><use transform="matrix(0.06172839506172839,0,0,0.06172839506172839,66.54320987654322,0)" xlink:href="#R"/><use transform="matrix(0.06172839506172839,0,0,0.06172839506172839,73.8888888888889,0)" xlink:href="#M"/><use transform="matrix(0.06172839506172839,0,0,0.06172839506172839,80.06172839506173,0)" xlink:href="#U"/><use transform="matrix(0.06172839506172839,0,0,0.06172839506172839,93.58024691358025,0)" xlink:href="#O"/></g><g id="q"><use transform="matrix(0.06172839506172839,0,0,0.06172839506172839,0,0)" xlink:href="#ac"/><use transform="matrix(0.06172839506172839,0,0,0.06172839506172839,7.345679012345679,0)" xlink:href="#U"/><use transform="matrix(0.06172839506172839,0,0,0.06172839506172839,20.864197530864196,0)" xlink:href="#L"/></g><g id="r"><use transform="matrix(0.06172839506172839,0,0,0.06172839506172839,0,0)" xlink:href="#R"/><use transform="matrix(0.06172839506172839,0,0,0.06172839506172839,7.345679012345679,0)" xlink:href="#ad"/><use transform="matrix(0.06172839506172839,0,0,0.06172839506172839,20.864197530864196,0)" xlink:href="#ab"/></g><path fill="#0c7cba" d="M123 10C108 53 80 86 19 72V37c35 8 53-11 59-39L3-190h52l48 148c12-52 28-100 44-148h51" id="ae"/><path fill="#0c7cba" d="M231 0h-52l-39-155L100 0H48L-1-190h46L77-45c9-52 24-97 36-145h53l37 145 32-145h46" id="af"/><g id="s"><use transform="matrix(0.06172839506172839,0,0,0.06172839506172839,0,0)" xlink:href="#ae"/><use transform="matrix(0.06172839506172839,0,0,0.06172839506172839,12.345679012345679,0)" xlink:href="#ab"/><use transform="matrix(0.06172839506172839,0,0,0.06172839506172839,24.691358024691358,0)" xlink:href="#Q"/><use transform="matrix(0.06172839506172839,0,0,0.06172839506172839,30.864197530864196,0)" xlink:href="#Q"/><use transform="matrix(0.06172839506172839,0,0,0.06172839506172839,37.03703703703704,0)" xlink:href="#U"/><use transform="matrix(0.06172839506172839,0,0,0.06172839506172839,50.55555555555556,0)" xlink:href="#af"/></g><g id="t"><use transform="matrix(0.06172839506172839,0,0,0.06172839506172839,0,0)" xlink:href="#Q"/><use transform="matrix(0.06172839506172839,0,0,0.06172839506172839,6.172839506172839,0)" xlink:href="#ab"/><use transform="matrix(0.06172839506172839,0,0,0.06172839506172839,18.51851851851852,0)" xlink:href="#X"/><use transform="matrix(0.06172839506172839,0,0,0.06172839506172839,32.03703703703704,0)" xlink:href="#N"/><use transform="matrix(0.06172839506172839,0,0,0.06172839506172839,45.55555555555556,0)" xlink:href="#ab"/><use transform="matrix(0.06172839506172839,0,0,0.06172839506172839,57.901234567901234,0)" xlink:href="#L"/></g><path d="M30 0v-248h187v28H63v79h144v27H63v87h162V0H30" id="ag"/><path d="M141 0L90-78 38 0H4l68-98-65-92h35l48 74 47-74h35l-64 92 68 98h-35" id="ah"/><path d="M100-194c63 0 86 42 84 106H49c0 40 14 67 53 68 26 1 43-12 49-29l28 8c-11 28-37 45-77 45C44 4 14-33 15-96c1-61 26-98 85-98zm52 81c6-60-76-77-97-28-3 7-6 17-6 28h103" id="ai"/><g id="u"><use transform="matrix(0.06172839506172839,0,0,0.06172839506172839,0,0)" xlink:href="#ag"/><use transform="matrix(0.06172839506172839,0,0,0.06172839506172839,14.814814814814813,0)" xlink:href="#ah"/><use transform="matrix(0.06172839506172839,0,0,0.06172839506172839,25.925925925925924,0)" xlink:href="#ai"/></g><path d="M205 0l-28-72H64L36 0H1l101-248h38L239 0h-34zm-38-99l-47-123c-12 45-31 82-46 123h93" id="aj"/><use transform="matrix(0.06172839506172839,0,0,0.06172839506172839,0,0)" xlink:href="#aj" id="v"/><path d="M87 75C49 33 22-17 22-94c0-76 28-126 65-167h31c-38 41-64 92-64 168S80 34 118 75H87" id="ak"/><path d="M30-248c87 1 191-15 191 75 0 78-77 80-158 76V0H30v-248zm33 125c57 0 124 11 124-50 0-59-68-47-124-48v98" id="al"/><path d="M141-36C126-15 110 5 73 4 37 3 15-17 15-53c-1-64 63-63 125-63 3-35-9-54-41-54-24 1-41 7-42 31l-33-3c5-37 33-52 76-52 45 0 72 20 72 64v82c-1 20 7 32 28 27v20c-31 9-61-2-59-35zM48-53c0 20 12 33 32 33 41-3 63-29 60-74-43 2-92-5-92 41" id="am"/><path d="M24-231v-30h32v30H24zM24 0v-190h32V0H24" id="an"/><path d="M117-194c89-4 53 116 60 194h-32v-121c0-31-8-49-39-48C34-167 62-67 57 0H25l-1-190h30c1 10-1 24 2 32 11-22 29-35 61-36" id="ao"/><path d="M59-47c-2 24 18 29 38 22v24C64 9 27 4 27-40v-127H5v-23h24l9-43h21v43h35v23H59v120" id="ap"/><path d="M140-251c81 0 123 46 123 126C263-46 219 4 140 4 59 4 17-45 17-125s42-126 123-126zm0 227c63 0 89-41 89-101s-29-99-89-99c-61 0-89 39-89 99S79-25 140-24" id="aq"/><path d="M101-234c-31-9-42 10-38 44h38v23H63V0H32v-167H5v-23h27c-7-52 17-82 69-68v24" id="ar"/><path d="M114-163C36-179 61-72 57 0H25l-1-190h30c1 12-1 29 2 39 6-27 23-49 58-41v29" id="as"/><g id="w"><use transform="matrix(0.06172839506172839,0,0,0.06172839506172839,0,0)" xlink:href="#ak"/><use transform="matrix(0.06172839506172839,0,0,0.06172839506172839,7.345679012345679,0)" xlink:href="#al"/><use transform="matrix(0.06172839506172839,0,0,0.06172839506172839,22.160493827160494,0)" xlink:href="#am"/><use transform="matrix(0.06172839506172839,0,0,0.06172839506172839,34.50617283950617,0)" xlink:href="#an"/><use transform="matrix(0.06172839506172839,0,0,0.06172839506172839,39.382716049382715,0)" xlink:href="#ao"/><use transform="matrix(0.06172839506172839,0,0,0.06172839506172839,51.72839506172839,0)" xlink:href="#ap"/><use transform="matrix(0.06172839506172839,0,0,0.06172839506172839,57.901234567901234,0)" xlink:href="#aq"/><use transform="matrix(0.06172839506172839,0,0,0.06172839506172839,75.18518518518519,0)" xlink:href="#ar"/><use transform="matrix(0.06172839506172839,0,0,0.06172839506172839,80.92592592592592,0)" xlink:href="#ar"/><use transform="matrix(0.06172839506172839,0,0,0.06172839506172839,87.09876543209876,0)" xlink:href="#ai"/><use transform="matrix(0.06172839506172839,0,0,0.06172839506172839,99.44444444444444,0)" xlink:href="#as"/></g><g id="x"><use transform="matrix(0.06172839506172839,0,0,0.06172839506172839,0,0)" xlink:href="#aj"/><path d="M-1.1 1.54h17.03v1.63H-1.1z"/></g><path d="M198-261c85 0 136 45 136 128 0 61-22 111-78 115-29 2-39-18-37-44-12 23-32 44-66 44-41 0-58-28-58-68 0-60 30-105 88-108 29-1 43 15 54 32l7-28h28c-9 45-23 84-27 134-1 11 6 17 14 16 39-4 51-48 51-92 0-69-42-107-112-107-93 0-145 59-145 153C53-15 94 26 168 27c43 0 78-13 106-28l9 19c-30 18-67 32-115 32C79 50 28-1 28-86c0-107 62-175 170-175zM158-41c46 0 70-43 70-90 0-26-17-40-43-40-44 0-59 41-61 85-1 26 9 45 34 45" id="at"/><path d="M24-248c93 1 206-16 204 79-1 75-69 88-152 82V0H24v-248zm52 121c47 0 100 7 100-41 0-47-54-39-100-39v80" id="au"/><g id="y"><use transform="matrix(0.06172839506172839,0,0,0.06172839506172839,0,0)" xlink:href="#at"/><use transform="matrix(0.06172839506172839,0,0,0.06172839506172839,22.530864197530864,0)" xlink:href="#au"/></g><path d="M160-131c35 5 61 23 61 61C221 17 115-2 30 0v-248c76 3 177-17 177 60 0 33-19 50-47 57zm-97-11c50-1 110 9 110-42 0-47-63-36-110-37v79zm0 115c55-2 124 14 124-45 0-56-70-42-124-44v89" id="av"/><path d="M143 0L79-87 56-68V0H24v-261h32v163l83-92h37l-77 82L181 0h-38" id="aw"/><g id="z"><use transform="matrix(0.06172839506172839,0,0,0.06172839506172839,0,0)" xlink:href="#av"/><use transform="matrix(0.06172839506172839,0,0,0.06172839506172839,14.814814814814813,0)" xlink:href="#am"/><use transform="matrix(0.06172839506172839,0,0,0.06172839506172839,27.160493827160494,0)" xlink:href="#ao"/><use transform="matrix(0.06172839506172839,0,0,0.06172839506172839,39.50617283950617,0)" xlink:href="#aw"/></g><path d="M234-2c-28 10-62 0-77-18C117 19 8 12 13-65c3-43 29-61 60-76-25-40-17-114 47-108 35 3 59 15 59 50 0 44-40 53-71 69 14 26 32 50 51 72 14-21 24-43 30-72l26 8c-9 33-21 57-38 82 13 13 33 22 57 15v23zM97-151c25-10 52-18 56-48-1-18-13-29-33-29-42 0-39 50-23 77zM42-66c-3 51 71 58 98 28-20-24-41-51-56-80-23 10-40 24-42 52" id="ax"/><path d="M27 0v-27h64v-190l-56 39v-29l58-41h29v221h61V0H27" id="ay"/><path d="M101-251c82-7 93 87 43 132L82-64C71-53 59-42 53-27h129V0H18c2-99 128-94 128-182 0-28-16-43-45-43s-46 15-49 41l-32-3c6-41 34-60 81-64" id="az"/><path d="M126-127c33 6 58 20 58 59 0 88-139 92-164 29-3-8-5-16-6-25l32-3c6 27 21 44 54 44 32 0 52-15 52-46 0-38-36-46-79-43v-28c39 1 72-4 72-42 0-27-17-43-46-43-28 0-47 15-49 41l-32-3c6-42 35-63 81-64 48-1 79 21 79 65 0 36-21 52-52 59" id="aA"/><path d="M33-261c38 41 65 92 65 168S71 34 33 75H2C39 34 66-17 66-93S39-220 2-261h31" id="aB"/><g id="A"><use transform="matrix(0.06172839506172839,0,0,0.06172839506172839,0,0)" xlink:href="#ax"/><use transform="matrix(0.06172839506172839,0,0,0.06172839506172839,14.814814814814813,0)" xlink:href="#al"/><use transform="matrix(0.06172839506172839,0,0,0.06172839506172839,29.629629629629626,0)" xlink:href="#ay"/><use transform="matrix(0.06172839506172839,0,0,0.06172839506172839,41.9753086419753,0)" xlink:href="#az"/><use transform="matrix(0.06172839506172839,0,0,0.06172839506172839,54.32098765432098,0)" xlink:href="#aA"/><use transform="matrix(0.06172839506172839,0,0,0.06172839506172839,66.66666666666666,0)" xlink:href="#aB"/></g><path d="M33 0v-248h34V0H33" id="aC"/><path d="M100-194c62-1 85 37 85 99 1 63-27 99-86 99S16-35 15-95c0-66 28-99 85-99zM99-20c44 1 53-31 53-75 0-43-8-75-51-75s-53 32-53 75 10 74 51 75" id="aD"/><path d="M84 4C-5 8 30-112 23-190h32v120c0 31 7 50 39 49 72-2 45-101 50-169h31l1 190h-30c-1-10 1-25-2-33-11 22-28 36-60 37" id="aE"/><g id="B"><use transform="matrix(0.06172839506172839,0,0,0.06172839506172839,0,0)" xlink:href="#ak"/><use transform="matrix(0.06172839506172839,0,0,0.06172839506172839,7.345679012345679,0)" xlink:href="#aC"/><use transform="matrix(0.06172839506172839,0,0,0.06172839506172839,13.518518518518519,0)" xlink:href="#aD"/><use transform="matrix(0.06172839506172839,0,0,0.06172839506172839,25.864197530864196,0)" xlink:href="#aE"/></g><path d="M111-147c44 9 85 22 84 75-1 49-35 65-84 68v31H91V-4C40-5 12-27 5-72l45-8c4 24 15 38 41 40-2-22 4-51-2-69-39-10-76-22-76-72 0-47 35-60 78-63v-23h20v23c47 1 70 23 78 62l-46 7c-4-18-12-32-32-34v62zm-20-63c-33-4-45 46-13 54 4 1 8 2 13 4v-58zm20 170c39 5 53-51 15-60-7-2-7-2-15-4v64" id="aF"/><path d="M182-130c37 4 62 22 62 59C244 23 116-4 24 0v-248c84 5 203-23 205 63 0 31-19 50-47 55zM76-148c40-3 101 13 101-30 0-44-60-28-101-31v61zm0 110c48-3 116 14 116-37 0-48-69-32-116-35v72" id="aG"/><path d="M133-34C117-15 103 5 69 4 32 3 11-16 11-54c-1-60 55-63 116-61 1-26-3-47-28-47-18 1-26 9-28 27l-52-2c7-38 36-58 82-57s74 22 75 68l1 82c-1 14 12 18 25 15v27c-30 8-71 5-69-32zm-48 3c29 0 43-24 42-57-32 0-66-3-65 30 0 17 8 27 23 27" id="aH"/><path d="M135-194c87-1 58 113 63 194h-50c-7-57 23-157-34-157-59 0-34 97-39 157H25l-1-190h47c2 12-1 28 3 38 12-26 28-41 61-42" id="aI"/><path d="M147 0L96-86 75-71V0H25v-261h50v150l67-79h53l-66 74L201 0h-54" id="aJ"/><g id="C"><use transform="matrix(0.06172839506172839,0,0,0.06172839506172839,0,0)" xlink:href="#aF"/><use transform="matrix(0.06172839506172839,0,0,0.06172839506172839,12.345679012345679,0)" xlink:href="#aG"/><use transform="matrix(0.06172839506172839,0,0,0.06172839506172839,28.333333333333332,0)" xlink:href="#aH"/><use transform="matrix(0.06172839506172839,0,0,0.06172839506172839,40.67901234567901,0)" xlink:href="#aI"/><use transform="matrix(0.06172839506172839,0,0,0.06172839506172839,54.19753086419753,0)" xlink:href="#aJ"/></g><g id="D"><use transform="matrix(0.06172839506172839,0,0,0.06172839506172839,0,0)" xlink:href="#aj"/><path d="M-1.1 1.54h17.03v1.63H-1.1z"/><use transform="matrix(0.06172839506172839,0,0,0.06172839506172839,14.814814814814813,0)" xlink:href="#aB"/></g><g id="E"><use transform="matrix(0.06172839506172839,0,0,0.06172839506172839,0,0)" xlink:href="#aC"/><use transform="matrix(0.06172839506172839,0,0,0.06172839506172839,6.172839506172839,0)" xlink:href="#aD"/><use transform="matrix(0.06172839506172839,0,0,0.06172839506172839,18.51851851851852,0)" xlink:href="#aE"/></g><g id="F"><use transform="matrix(0.06172839506172839,0,0,0.06172839506172839,0,0)" xlink:href="#al"/><path d="M-1.1 1.54h17.03v1.63H-1.1z"/></g><path d="M177-190C167-65 218 103 67 71c-23-6-38-20-44-43l32-5c15 47 100 32 89-28v-30C133-14 115 1 83 1 29 1 15-40 15-95c0-56 16-97 71-98 29-1 48 16 59 35 1-10 0-23 2-32h30zM94-22c36 0 50-32 50-73 0-42-14-75-50-75-39 0-46 34-46 75s6 73 46 73" id="aK"/><g id="G"><use transform="matrix(0.06172839506172839,0,0,0.06172839506172839,0,0)" xlink:href="#al"/><use transform="matrix(0.06172839506172839,0,0,0.06172839506172839,14.814814814814813,0)" xlink:href="#am"/><use transform="matrix(0.06172839506172839,0,0,0.06172839506172839,27.160493827160494,0)" xlink:href="#an"/><use transform="matrix(0.06172839506172839,0,0,0.06172839506172839,32.03703703703704,0)" xlink:href="#ao"/><use transform="matrix(0.06172839506172839,0,0,0.06172839506172839,44.382716049382715,0)" xlink:href="#ap"/><use transform="matrix(0.06172839506172839,0,0,0.06172839506172839,50.55555555555556,0)" xlink:href="#aj"/><use transform="matrix(0.06172839506172839,0,0,0.06172839506172839,65.37037037037037,0)" xlink:href="#aK"/><use transform="matrix(0.06172839506172839,0,0,0.06172839506172839,77.71604938271605,0)" xlink:href="#as"/><use transform="matrix(0.06172839506172839,0,0,0.06172839506172839,85.06172839506173,0)" xlink:href="#ai"/><use transform="matrix(0.06172839506172839,0,0,0.06172839506172839,97.40740740740742,0)" xlink:href="#ai"/></g><path d="M192-256c86 0 138 45 138 129 0 61-26 109-84 114-27 2-36-18-34-42-11 22-31 42-62 42-41 0-58-28-58-68 0-58 29-104 88-107 26-1 39 14 48 30l7-26h27L235-53c-1 11 6 15 14 16 38-7 54-45 54-90 0-68-42-104-111-104-92 0-143 58-143 150C49-9 89 32 162 32c43 0 75-12 103-28l11 22c-32 17-67 31-116 31C71 57 21 7 21-81c0-109 65-175 171-175zM156-38c42-5 58-44 60-89 1-24-14-38-37-38-41 0-55 40-57 84-1 25 9 46 34 43" id="aL"/><g id="H"><use transform="matrix(0.06172839506172839,0,0,0.06172839506172839,0,0)" xlink:href="#aL"/><use transform="matrix(0.06172839506172839,0,0,0.06172839506172839,21.666666666666664,0)" xlink:href="#au"/></g><path d="M199 0l-22-63H83L61 0H9l90-248h61L250 0h-51zm-33-102l-36-108c-10 38-24 72-36 108h72" id="aM"/><g id="I"><use transform="matrix(0.06172839506172839,0,0,0.06172839506172839,0,0)" xlink:href="#aF"/><use transform="matrix(0.06172839506172839,0,0,0.06172839506172839,12.345679012345679,0)" xlink:href="#aM"/></g><g id="J"><use transform="matrix(0.06172839506172839,0,0,0.06172839506172839,0,0)" xlink:href="#ax"/><use transform="matrix(0.06172839506172839,0,0,0.06172839506172839,14.814814814814813,0)" xlink:href="#al"/><use transform="matrix(0.06172839506172839,0,0,0.06172839506172839,29.629629629629626,0)" xlink:href="#ay"/><use transform="matrix(0.06172839506172839,0,0,0.06172839506172839,41.9753086419753,0)" xlink:href="#az"/><use transform="matrix(0.06172839506172839,0,0,0.06172839506172839,54.32098765432098,0)" xlink:href="#aA"/></g></defs></g></svg>