<?xml version="1.0" encoding="UTF-8"?>
<svg width="658.24" height="148.29" version="1.1" viewBox="0 0 658.24 148.29" xml:space="preserve" xmlns="http://www.w3.org/2000/svg">
<style type="text/css">
	.st0{fill:#233040;}
	.st1{fill:#4E80F9;}
</style>
<g transform="translate(-170.88,-425.85)">
	<polygon class="st0" points="170.88 572.08 187.16 520.36 219.63 520.36 203.35 572.08"/>
	<polygon class="st0" points="245.67 520.36 233.06 480.3 232.65 479.01 248.88 427.45 265.52 480.3 278.14 520.36 294.42 572.08 261.95 572.08"/>
	<polygon class="st1" points="232.24 480.3 199.78 480.3 216.42 427.45 248.88 427.45 232.65 479.01"/>
	
		
			<path class="st0" d="m449.16 572.08h-25.74v-8.03c-7.96 6.73-17.23 10.09-27.8 10.09-15.38 0-27.94-5.63-37.69-16.89-8.51-9.89-12.77-21.55-12.77-35.01 0-14.69 4.77-27.05 14.31-37.07s21.11-15.04 34.7-15.04c10.98 0 20.39 3.09 28.21 9.27v-53.55h26.77v146.23zm-26.78-35.01v-29.86c-6.18-8.24-14.42-12.36-24.71-12.36-7.55 0-13.73 2.71-18.54 8.13-4.81 5.43-7.21 11.84-7.21 19.26 0 7.82 2.5 14.31 7.52 19.46 5.01 5.15 11.29 7.72 18.84 7.72 10.3 0.01 18.34-4.11 24.1-12.35z"/>
			<path class="st0" d="m575.81 472.2v99.88h-25.74v-8.03c-7.96 6.73-17.23 10.09-27.8 10.09-15.38 0-27.94-5.63-37.69-16.89-8.51-9.89-12.77-21.55-12.77-35.01 0-14.69 4.77-27.05 14.31-37.07s21.11-15.04 34.7-15.04c11.26 0 21.01 3.37 29.24 10.09v-8.03h25.75zm-26.77 64.87v-29.86c-6.18-8.24-14.42-12.36-24.71-12.36-7.55 0-13.73 2.71-18.54 8.13-4.81 5.43-7.21 11.84-7.21 19.26 0 7.82 2.5 14.31 7.52 19.46 5.01 5.15 11.29 7.72 18.84 7.72 10.3 0.01 18.33-4.11 24.1-12.35z"/>
			<path class="st0" d="m633.47 572.08h-26.77v-99.88h25.74v8.03c7.55-6.72 16.54-10.09 26.98-10.09 13.73 0 24.92 5.22 33.57 15.65 9.89-10.43 21.69-15.65 35.42-15.65 6.86 0 13.42 1.44 19.67 4.33 6.25 2.88 11.36 6.8 15.34 11.74 6.73 8.24 10.09 19.22 10.09 32.95v52.93h-26.77v-53.96c0-7.69-1.65-13.39-4.94-17.09-3.71-4.12-8.72-6.18-15.03-6.18-5.22 0-9.99 1.37-14.31 4.12-4.33 2.75-7.59 5.77-9.78 9.06 0.55 4.39 0.82 8.1 0.82 11.12v52.93h-26.77v-53.96c0-7.69-1.65-13.39-4.94-17.09-3.71-4.12-8.72-6.18-15.03-6.18-9.06 0-16.82 4.12-23.27 12.36v64.86z"/>
			<path class="st0" d="m829.12 425.86v146.22h-26.77v-146.22z"/>
		
	
</g>
</svg>
