<svg width="75" height="58" viewBox="0 0 75 58" fill="none" xmlns="http://www.w3.org/2000/svg">
<path d="M1 7.72C1 4.00864 4.00864 1 7.72 1H67.08C70.7913 1 73.8 4.00864 73.8 7.72V50.28C73.8 53.9913 70.7913 57 67.08 57H7.72C4.00864 57 1 53.9913 1 50.28V7.72Z" stroke="#6292f7" stroke-width="2"/>
<path d="M29.3581 29.9866L22.4836 36.2133L29.3581 42.2623" stroke="#6292f7" stroke-width="2" stroke-linecap="round" stroke-linejoin="round"/>
<path d="M44.5254 29.9866L51.3998 36.2133L44.5254 42.2623" stroke="#6292f7" stroke-width="2" stroke-linecap="round" stroke-linejoin="round"/>
<path d="M39.6427 29.2495L34.7324 42.7528" stroke="#6292f7" stroke-width="2" stroke-linecap="round"/>
<path d="M74 17L1 17" stroke="#6292f7" stroke-width="2"/>
<path d="M12.2 11.0801C13.4371 11.0801 14.44 10.0772 14.44 8.8401C14.44 7.60298 13.4371 6.6001 12.2 6.6001C10.9628 6.6001 9.95996 7.60298 9.95996 8.8401C9.95996 10.0772 10.9628 11.0801 12.2 11.0801Z" stroke="#6292f7" stroke-width="2"/>
<path d="M21.1599 11.0801C22.397 11.0801 23.3999 10.0772 23.3999 8.8401C23.3999 7.60298 22.397 6.6001 21.1599 6.6001C19.9228 6.6001 18.9199 7.60298 18.9199 8.8401C18.9199 10.0772 19.9228 11.0801 21.1599 11.0801Z" stroke="#6292f7" stroke-width="2"/>
<path d="M30.1199 11.0801C31.357 11.0801 32.3599 10.0772 32.3599 8.8401C32.3599 7.60298 31.357 6.6001 30.1199 6.6001C28.8828 6.6001 27.8799 7.60298 27.8799 8.8401C27.8799 10.0772 28.8828 11.0801 30.1199 11.0801Z" stroke="#6292f7" stroke-width="2"/>
</svg>
