<svg xmlns="http://www.w3.org/2000/svg" xmlns:xlink="http://www.w3.org/1999/xlink" xmlns:lucid="lucid" width="3322" height="1042"><g transform="translate(760.9999999999998 -339)" lucid:page-tab-id="0_0"><path d="M-1000 0h4000v1500h-4000z" fill="#fff"/><path d="M-200 772.03a6 6 0 0 1 6-6h428a6 6 0 0 1 6 6v228a6 6 0 0 1-6 6h-428a6 6 0 0 1-6-6z" stroke="#000" stroke-width="2" fill="#f2f3f5"/><use xlink:href="#a" transform="matrix(1,0,0,1,-188,778.0279947916663) translate(0 32.06293402777778)"/><use xlink:href="#b" transform="matrix(1,0,0,1,-188,778.0279947916663) translate(93.34852430555557 32.06293402777778)"/><use xlink:href="#c" transform="matrix(1,0,0,1,-188,778.0279947916663) translate(226.70355902777783 32.06293402777778)"/><use xlink:href="#d" transform="matrix(1,0,0,1,-188,778.0279947916663) translate(0 60.17708333333333)"/><use xlink:href="#e" transform="matrix(1,0,0,1,-188,778.0279947916663) translate(26.671006944444443 60.17708333333333)"/><use xlink:href="#f" transform="matrix(1,0,0,1,-188,778.0279947916663) translate(160.02604166666669 60.17708333333333)"/><use xlink:href="#g" transform="matrix(1,0,0,1,-188,778.0279947916663) translate(0 88.28906249999999)"/><use xlink:href="#h" transform="matrix(1,0,0,1,-188,778.0279947916663) translate(53.342013888888886 88.28906249999999)"/><use xlink:href="#i" transform="matrix(1,0,0,1,-188,778.0279947916663) translate(160.02604166666669 88.28906249999999)"/><use xlink:href="#g" transform="matrix(1,0,0,1,-188,778.0279947916663) translate(0 116.40104166666664)"/><use xlink:href="#j" transform="matrix(1,0,0,1,-188,778.0279947916663) translate(53.342013888888886 116.40104166666664)"/><use xlink:href="#k" transform="matrix(1,0,0,1,-188,778.0279947916663) translate(146.69053819444446 116.40104166666664)"/><use xlink:href="#g" transform="matrix(1,0,0,1,-188,778.0279947916663) translate(0 144.51302083333331)"/><use xlink:href="#l" transform="matrix(1,0,0,1,-188,778.0279947916663) translate(53.342013888888886 144.51302083333331)"/><use xlink:href="#m" transform="matrix(1,0,0,1,-188,778.0279947916663) translate(146.69053819444446 144.51302083333331)"/><use xlink:href="#n" transform="matrix(1,0,0,1,-188,778.0279947916663) translate(173.3615451388889 144.51302083333331)"/><use xlink:href="#d" transform="matrix(1,0,0,1,-188,778.0279947916663) translate(0 172.62499999999997)"/><use xlink:href="#o" transform="matrix(1,0,0,1,-188,778.0279947916663) translate(26.671006944444443 172.62499999999997)"/><use xlink:href="#i" transform="matrix(1,0,0,1,-188,778.0279947916663) translate(200.03255208333337 172.62499999999997)"/><use xlink:href="#d" transform="matrix(1,0,0,1,-188,778.0279947916663) translate(0 200.73697916666663)"/><use xlink:href="#p" transform="matrix(1,0,0,1,-188,778.0279947916663) translate(26.671006944444443 200.73697916666663)"/><use xlink:href="#q" transform="matrix(1,0,0,1,-188,778.0279947916663) translate(173.3615451388889 200.73697916666663)"/><path d="M320 487.97a6 6 0 0 1 6-6h428a6 6 0 0 1 6 6V720.2a6 6 0 0 1-6 6H326a6 6 0 0 1-6-6z" stroke="#000" stroke-width="2" fill="#f2f3f5"/><use xlink:href="#a" transform="matrix(1,0,0,1,332,493.9720052083331) translate(0 18.50043402777778)"/><use xlink:href="#b" transform="matrix(1,0,0,1,332,493.9720052083331) translate(93.34852430555557 18.50043402777778)"/><use xlink:href="#r" transform="matrix(1,0,0,1,332,493.9720052083331) translate(226.70355902777783 18.50043402777778)"/><use xlink:href="#d" transform="matrix(1,0,0,1,332,493.9720052083331) translate(0 46.61458333333333)"/><use xlink:href="#e" transform="matrix(1,0,0,1,332,493.9720052083331) translate(26.671006944444443 46.61458333333333)"/><use xlink:href="#s" transform="matrix(1,0,0,1,332,493.9720052083331) translate(160.02604166666669 46.61458333333333)"/><use xlink:href="#g" transform="matrix(1,0,0,1,332,493.9720052083331) translate(0 74.7265625)"/><use xlink:href="#t" transform="matrix(1,0,0,1,332,493.9720052083331) translate(53.342013888888886 74.7265625)"/><use xlink:href="#u" transform="matrix(1,0,0,1,332,493.9720052083331) translate(186.69704861111114 74.7265625)"/><use xlink:href="#g" transform="matrix(1,0,0,1,332,493.9720052083331) translate(0 102.83854166666666)"/><use xlink:href="#v" transform="matrix(1,0,0,1,332,493.9720052083331) translate(53.342013888888886 102.83854166666666)"/><use xlink:href="#k" transform="matrix(1,0,0,1,332,493.9720052083331) translate(240.03906250000006 102.83854166666666)"/><use xlink:href="#g" transform="matrix(1,0,0,1,332,493.9720052083331) translate(0 130.95052083333334)"/><use xlink:href="#w" transform="matrix(1,0,0,1,332,493.9720052083331) translate(53.342013888888886 130.95052083333334)"/><use xlink:href="#x" transform="matrix(1,0,0,1,332,493.9720052083331) translate(200.03255208333337 130.95052083333334)"/><use xlink:href="#g" transform="matrix(1,0,0,1,332,493.9720052083331) translate(0 159.0625)"/><use xlink:href="#y" transform="matrix(1,0,0,1,332,493.9720052083331) translate(53.342013888888886 159.0625)"/><use xlink:href="#z" transform="matrix(1,0,0,1,332,493.9720052083331) translate(186.69704861111114 159.0625)"/><use xlink:href="#A" transform="matrix(1,0,0,1,332,493.9720052083331) translate(346.7230902777778 159.0625)"/><use xlink:href="#d" transform="matrix(1,0,0,1,332,493.9720052083331) translate(0 187.17447916666666)"/><use xlink:href="#o" transform="matrix(1,0,0,1,332,493.9720052083331) translate(26.671006944444443 187.17447916666666)"/><use xlink:href="#u" transform="matrix(1,0,0,1,332,493.9720052083331) translate(200.03255208333337 187.17447916666666)"/><use xlink:href="#d" transform="matrix(1,0,0,1,332,493.9720052083331) translate(0 215.28645833333331)"/><use xlink:href="#p" transform="matrix(1,0,0,1,332,493.9720052083331) translate(26.671006944444443 215.28645833333331)"/><use xlink:href="#q" transform="matrix(1,0,0,1,332,493.9720052083331) translate(173.3615451388889 215.28645833333331)"/><path d="M837 886.03H259.5" stroke="#1071e5" stroke-width="2" fill="none"/><path d="M838 887h-1.03v-1.95H838z" stroke="#1071e5" stroke-width=".05" fill="#1071e5"/><path d="M244.24 886.03l14.26-4.64v9.26z" stroke="#1071e5" stroke-width="2" fill="#1071e5"/><path d="M1019 502.03a6 6 0 0 1 6-6h388a6 6 0 0 1 6 6v204.1a6 6 0 0 1-6 6h-388a6 6 0 0 1-6-6z" stroke="#000" stroke-width="2" fill="#f2f3f5"/><use xlink:href="#B" transform="matrix(1,0,0,1,1030.9999749999997,508.0279947916664) translate(0 18.50043402777778)"/><use xlink:href="#d" transform="matrix(1,0,0,1,1030.9999749999997,508.0279947916664) translate(0 46.61458333333333)"/><use xlink:href="#C" transform="matrix(1,0,0,1,1030.9999749999997,508.0279947916664) translate(26.671006944444443 46.61458333333333)"/><use xlink:href="#D" transform="matrix(1,0,0,1,1030.9999749999997,508.0279947916664) translate(160.02604166666669 46.61458333333333)"/><use xlink:href="#d" transform="matrix(1,0,0,1,1030.9999749999997,508.0279947916664) translate(0 74.7265625)"/><use xlink:href="#e" transform="matrix(1,0,0,1,1030.9999749999997,508.0279947916664) translate(26.671006944444443 74.7265625)"/><use xlink:href="#s" transform="matrix(1,0,0,1,1030.9999749999997,508.0279947916664) translate(160.02604166666669 74.7265625)"/><use xlink:href="#d" transform="matrix(1,0,0,1,1030.9999749999997,508.0279947916664) translate(0 102.83854166666666)"/><use xlink:href="#E" transform="matrix(1,0,0,1,1030.9999749999997,508.0279947916664) translate(26.671006944444443 102.83854166666666)"/><use xlink:href="#F" transform="matrix(1,0,0,1,1030.9999749999997,508.0279947916664) translate(133.35503472222223 102.83854166666666)"/><use xlink:href="#g" transform="matrix(1,0,0,1,1030.9999749999997,508.0279947916664) translate(0 130.95052083333334)"/><use xlink:href="#G" transform="matrix(1,0,0,1,1030.9999749999997,508.0279947916664) translate(53.342013888888886 130.95052083333334)"/><use xlink:href="#H" transform="matrix(1,0,0,1,1030.9999749999997,508.0279947916664) translate(253.37456597222229 130.95052083333334)"/><use xlink:href="#d" transform="matrix(1,0,0,1,1030.9999749999997,508.0279947916664) translate(0 159.0625)"/><use xlink:href="#I" transform="matrix(1,0,0,1,1030.9999749999997,508.0279947916664) translate(26.671006944444443 159.0625)"/><use xlink:href="#k" transform="matrix(1,0,0,1,1030.9999749999997,508.0279947916664) translate(133.35503472222223 159.0625)"/><use xlink:href="#d" transform="matrix(1,0,0,1,1030.9999749999997,508.0279947916664) translate(0 187.17447916666666)"/><use xlink:href="#J" transform="matrix(1,0,0,1,1030.9999749999997,508.0279947916664) translate(26.671006944444443 187.17447916666666)"/><use xlink:href="#K" transform="matrix(1,0,0,1,1030.9999749999997,508.0279947916664) translate(133.35503472222223 187.17447916666666)"/><path d="M1218.93 715.37l-182.28 83.75M1217.26 711.74l-182.28 83.75" stroke="#000" stroke-width="2" fill="none"/><path d="M1222.97 714.6l-3.66 1.67-.8-1.77 2.95-1.36h.85z" stroke="#000" stroke-width=".05"/><path stroke="#000" stroke-width=".05"/><path d="M1021.94 803.68l11.03-10.17 3.87 8.43z" stroke="#000" stroke-width="2"/><path d="M1220.74 711.74l182.28 83.75M1219.07 715.37l182.28 83.75" stroke="#000" stroke-width="2" fill="none"/><path stroke="#000" stroke-width=".05"/><path d="M1219.5 714.5l-.8 1.77-3.67-1.68.67-1.46h.85z" stroke="#000" stroke-width=".05"/><path d="M1416.06 803.68l-14.9-1.75 3.87-8.42z" stroke="#000" stroke-width="2"/><path d="M1719 812.03a6 6 0 0 1 6-6h348a6 6 0 0 1 6 6v204.1a6 6 0 0 1-6 6h-348a6 6 0 0 1-6-6z" stroke="#000" stroke-width="2" fill="#f2f3f5"/><g><use xlink:href="#B" transform="matrix(1,0,0,1,1730.9999749999997,818.0279947916664) translate(0 18.50043402777778)"/><use xlink:href="#d" transform="matrix(1,0,0,1,1730.9999749999997,818.0279947916664) translate(0 46.61458333333333)"/><use xlink:href="#C" transform="matrix(1,0,0,1,1730.9999749999997,818.0279947916664) translate(26.671006944444443 46.61458333333333)"/><use xlink:href="#x" transform="matrix(1,0,0,1,1730.9999749999997,818.0279947916664) translate(160.02604166666669 46.61458333333333)"/><use xlink:href="#d" transform="matrix(1,0,0,1,1730.9999749999997,818.0279947916664) translate(0 74.7265625)"/><use xlink:href="#e" transform="matrix(1,0,0,1,1730.9999749999997,818.0279947916664) translate(26.671006944444443 74.7265625)"/><use xlink:href="#f" transform="matrix(1,0,0,1,1730.9999749999997,818.0279947916664) translate(160.02604166666669 74.7265625)"/><use xlink:href="#d" transform="matrix(1,0,0,1,1730.9999749999997,818.0279947916664) translate(0 102.83854166666666)"/><use xlink:href="#E" transform="matrix(1,0,0,1,1730.9999749999997,818.0279947916664) translate(26.671006944444443 102.83854166666666)"/><use xlink:href="#L" transform="matrix(1,0,0,1,1730.9999749999997,818.0279947916664) translate(133.35503472222223 102.83854166666666)"/><use xlink:href="#g" transform="matrix(1,0,0,1,1730.9999749999997,818.0279947916664) translate(0 130.95052083333334)"/><use xlink:href="#M" transform="matrix(1,0,0,1,1730.9999749999997,818.0279947916664) translate(53.342013888888886 130.95052083333334)"/><use xlink:href="#k" transform="matrix(1,0,0,1,1730.9999749999997,818.0279947916664) translate(186.69704861111114 130.95052083333334)"/><use xlink:href="#d" transform="matrix(1,0,0,1,1730.9999749999997,818.0279947916664) translate(0 159.0625)"/><use xlink:href="#I" transform="matrix(1,0,0,1,1730.9999749999997,818.0279947916664) translate(26.671006944444443 159.0625)"/><use xlink:href="#u" transform="matrix(1,0,0,1,1730.9999749999997,818.0279947916664) translate(133.35503472222223 159.0625)"/><use xlink:href="#d" transform="matrix(1,0,0,1,1730.9999749999997,818.0279947916664) translate(0 187.17447916666666)"/><use xlink:href="#J" transform="matrix(1,0,0,1,1730.9999749999997,818.0279947916664) translate(26.671006944444443 187.17447916666666)"/><use xlink:href="#N" transform="matrix(1,0,0,1,1730.9999749999997,818.0279947916664) translate(133.35503472222223 187.17447916666666)"/></g><path d="M2117.85 715.37l-201 84.34M2116.3 711.68l-201 84.35" stroke="#000" stroke-width="2" fill="none"/><path d="M2121.92 714.72l-3.72 1.56-.75-1.8 3.2-1.34h.6z" stroke="#000" stroke-width=".05"/><path stroke="#000" stroke-width=".05"/><path d="M1901.98 803.78l11.37-9.8 3.58 8.55z" stroke="#000" stroke-width="2"/><path d="M1017 604.08H779.5" stroke="#1071e5" stroke-width="2" fill="none"/><path d="M1018 605.06h-1.03v-1.95h1.03z" stroke="#1071e5" stroke-width=".05" fill="#1071e5"/><path d="M764.24 604.08l14.26-4.63v9.27z" stroke="#1071e5" stroke-width="2" fill="#1071e5"/><path d="M1918 502.03a6 6 0 0 1 6-6h388a6 6 0 0 1 6 6v204.1a6 6 0 0 1-6 6h-388a6 6 0 0 1-6-6z" stroke="#000" stroke-width="2" fill="#f2f3f5"/><g><use xlink:href="#O" transform="matrix(1,0,0,1,1930.0000249999994,508.0279947916664) translate(0 18.50043402777778)"/><use xlink:href="#P" transform="matrix(1,0,0,1,1930.0000249999994,508.0279947916664) translate(0 46.61458333333333)"/><use xlink:href="#Q" transform="matrix(1,0,0,1,1930.0000249999994,508.0279947916664) translate(26.671006944444443 46.61458333333333)"/><use xlink:href="#R" transform="matrix(1,0,0,1,1930.0000249999994,508.0279947916664) translate(160.02604166666669 46.61458333333333)"/><use xlink:href="#P" transform="matrix(1,0,0,1,1930.0000249999994,508.0279947916664) translate(0 74.7265625)"/><use xlink:href="#S" transform="matrix(1,0,0,1,1930.0000249999994,508.0279947916664) translate(26.671006944444443 74.7265625)"/><use xlink:href="#T" transform="matrix(1,0,0,1,1930.0000249999994,508.0279947916664) translate(160.02604166666669 74.7265625)"/><use xlink:href="#P" transform="matrix(1,0,0,1,1930.0000249999994,508.0279947916664) translate(0 102.83854166666666)"/><use xlink:href="#U" transform="matrix(1,0,0,1,1930.0000249999994,508.0279947916664) translate(26.671006944444443 102.83854166666666)"/><use xlink:href="#V" transform="matrix(1,0,0,1,1930.0000249999994,508.0279947916664) translate(133.35503472222223 102.83854166666666)"/><use xlink:href="#W" transform="matrix(1,0,0,1,1930.0000249999994,508.0279947916664) translate(0 130.95052083333334)"/><use xlink:href="#X" transform="matrix(1,0,0,1,1930.0000249999994,508.0279947916664) translate(53.342013888888886 130.95052083333334)"/><use xlink:href="#Y" transform="matrix(1,0,0,1,1930.0000249999994,508.0279947916664) translate(146.69053819444446 130.95052083333334)"/><use xlink:href="#P" transform="matrix(1,0,0,1,1930.0000249999994,508.0279947916664) translate(0 159.0625)"/><use xlink:href="#Z" transform="matrix(1,0,0,1,1930.0000249999994,508.0279947916664) translate(26.671006944444443 159.0625)"/><use xlink:href="#Y" transform="matrix(1,0,0,1,1930.0000249999994,508.0279947916664) translate(133.35503472222223 159.0625)"/><use xlink:href="#P" transform="matrix(1,0,0,1,1930.0000249999994,508.0279947916664) translate(0 187.17447916666666)"/><use xlink:href="#aa" transform="matrix(1,0,0,1,1930.0000249999994,508.0279947916664) translate(26.671006944444443 187.17447916666666)"/><use xlink:href="#ab" transform="matrix(1,0,0,1,1930.0000249999994,508.0279947916664) translate(133.35503472222223 187.17447916666666)"/><use xlink:href="#ac" transform="matrix(1,0,0,1,1930.0000249999994,508.0279947916664) translate(200.03255208333334 187.17447916666666)"/></g><path d="M1901 1024.14v62.4M1897 1024.14v62.4" stroke="#000" stroke-width="2" fill="none"/><path d="M1901.97 1024.16h-1.94v-1.02h1.94zM1897.97 1024.16h-1.94v-1.02h1.94z" stroke="#000" stroke-width=".05"/><path d="M1899 1101.8l-4.63-14.27h9.27z" stroke="#000" stroke-width="2"/><path d="M1618.5 926.03h14.5a6 6 0 0 0 6-6V610.08a6 6 0 0 1 6-6h271" stroke="#1071e5" stroke-width="2" fill="none"/><path d="M1603.24 926.03l14.26-4.64v9.26z" stroke="#1071e5" stroke-width="2" fill="#1071e5"/><path d="M1917 605.06h-1.03v-1.95h1.03z" stroke="#1071e5" stroke-width=".05" fill="#1071e5"/><path d="M1719 1112.03a6 6 0 0 1 6-6h348a6 6 0 0 1 6 6v228a6 6 0 0 1-6 6h-348a6 6 0 0 1-6-6z" stroke="#000" stroke-width="2" fill="#f2f3f5"/><g><use xlink:href="#ad" transform="matrix(1,0,0,1,1730.9999749999997,1118.0279947916665) translate(0 32.06293402777778)"/><use xlink:href="#ae" transform="matrix(1,0,0,1,1730.9999749999997,1118.0279947916665) translate(93.34852430555557 32.06293402777778)"/><use xlink:href="#af" transform="matrix(1,0,0,1,1730.9999749999997,1118.0279947916665) translate(226.70355902777783 32.06293402777778)"/><use xlink:href="#d" transform="matrix(1,0,0,1,1730.9999749999997,1118.0279947916665) translate(0 60.17708333333333)"/><use xlink:href="#e" transform="matrix(1,0,0,1,1730.9999749999997,1118.0279947916665) translate(26.671006944444443 60.17708333333333)"/><use xlink:href="#f" transform="matrix(1,0,0,1,1730.9999749999997,1118.0279947916665) translate(160.02604166666669 60.17708333333333)"/><use xlink:href="#g" transform="matrix(1,0,0,1,1730.9999749999997,1118.0279947916665) translate(0 88.28906249999999)"/><use xlink:href="#h" transform="matrix(1,0,0,1,1730.9999749999997,1118.0279947916665) translate(53.342013888888886 88.28906249999999)"/><use xlink:href="#ag" transform="matrix(1,0,0,1,1730.9999749999997,1118.0279947916665) translate(160.02604166666669 88.28906249999999)"/><use xlink:href="#g" transform="matrix(1,0,0,1,1730.9999749999997,1118.0279947916665) translate(0 116.40104166666664)"/><use xlink:href="#j" transform="matrix(1,0,0,1,1730.9999749999997,1118.0279947916665) translate(53.342013888888886 116.40104166666664)"/><use xlink:href="#k" transform="matrix(1,0,0,1,1730.9999749999997,1118.0279947916665) translate(146.69053819444446 116.40104166666664)"/><use xlink:href="#g" transform="matrix(1,0,0,1,1730.9999749999997,1118.0279947916665) translate(0 144.51302083333331)"/><use xlink:href="#l" transform="matrix(1,0,0,1,1730.9999749999997,1118.0279947916665) translate(53.342013888888886 144.51302083333331)"/><use xlink:href="#m" transform="matrix(1,0,0,1,1730.9999749999997,1118.0279947916665) translate(146.69053819444446 144.51302083333331)"/><use xlink:href="#ah" transform="matrix(1,0,0,1,1730.9999749999997,1118.0279947916665) translate(173.3615451388889 144.51302083333331)"/><use xlink:href="#d" transform="matrix(1,0,0,1,1730.9999749999997,1118.0279947916665) translate(0 172.62499999999997)"/><use xlink:href="#o" transform="matrix(1,0,0,1,1730.9999749999997,1118.0279947916665) translate(26.671006944444443 172.62499999999997)"/><use xlink:href="#ag" transform="matrix(1,0,0,1,1730.9999749999997,1118.0279947916665) translate(200.03255208333337 172.62499999999997)"/><use xlink:href="#d" transform="matrix(1,0,0,1,1730.9999749999997,1118.0279947916665) translate(0 200.73697916666663)"/><use xlink:href="#p" transform="matrix(1,0,0,1,1730.9999749999997,1118.0279947916665) translate(26.671006944444443 200.73697916666663)"/><use xlink:href="#q" transform="matrix(1,0,0,1,1730.9999749999997,1118.0279947916665) translate(173.3615451388889 200.73697916666663)"/></g><path d="M1717 914.08h-33a6 6 0 0 0-6 6V1194a6 6 0 0 1-6 6H-260.5" stroke="#1071e5" stroke-width="2" fill="none"/><path d="M1718 915.06h-1.03v-1.95h1.03z" stroke="#1071e5" stroke-width=".05" fill="#1071e5"/><path d="M-275.76 1200l14.26-4.63v9.27z" stroke="#1071e5" stroke-width="2" fill="#1071e5"/><path d="M839 812.03a6 6 0 0 1 6-6h348a6 6 0 0 1 6 6v148a6 6 0 0 1-6 6H845a6 6 0 0 1-6-6z" stroke="#000" stroke-width="2" fill="#f2f3f5"/><g><use xlink:href="#ai" transform="matrix(1,0,0,1,850.9999749999997,818.0279947916664) translate(0 31.25043402777778)"/><use xlink:href="#d" transform="matrix(1,0,0,1,850.9999749999997,818.0279947916664) translate(0 59.36458333333333)"/><use xlink:href="#C" transform="matrix(1,0,0,1,850.9999749999997,818.0279947916664) translate(26.671006944444443 59.36458333333333)"/><use xlink:href="#aj" transform="matrix(1,0,0,1,850.9999749999997,818.0279947916664) translate(160.02604166666669 59.36458333333333)"/><use xlink:href="#d" transform="matrix(1,0,0,1,850.9999749999997,818.0279947916664) translate(0 87.47656249999999)"/><use xlink:href="#e" transform="matrix(1,0,0,1,850.9999749999997,818.0279947916664) translate(26.671006944444443 87.47656249999999)"/><use xlink:href="#f" transform="matrix(1,0,0,1,850.9999749999997,818.0279947916664) translate(160.02604166666669 87.47656249999999)"/><use xlink:href="#d" transform="matrix(1,0,0,1,850.9999749999997,818.0279947916664) translate(0 115.58854166666664)"/><use xlink:href="#I" transform="matrix(1,0,0,1,850.9999749999997,818.0279947916664) translate(26.671006944444443 115.58854166666664)"/><use xlink:href="#q" transform="matrix(1,0,0,1,850.9999749999997,818.0279947916664) translate(133.35503472222223 115.58854166666664)"/></g><path d="M-720 1086a6 6 0 0 1 6-6h428a6 6 0 0 1 6 6v228a6 6 0 0 1-6 6h-428a6 6 0 0 1-6-6z" stroke="#000" stroke-width="2" fill="#f2f3f5"/><g><use xlink:href="#a" transform="matrix(1,0,0,1,-708,1092) translate(0 32.06293402777778)"/><use xlink:href="#b" transform="matrix(1,0,0,1,-708,1092) translate(93.34852430555557 32.06293402777778)"/><use xlink:href="#ak" transform="matrix(1,0,0,1,-708,1092) translate(226.70355902777783 32.06293402777778)"/><use xlink:href="#d" transform="matrix(1,0,0,1,-708,1092) translate(0 60.17708333333333)"/><use xlink:href="#e" transform="matrix(1,0,0,1,-708,1092) translate(26.671006944444443 60.17708333333333)"/><use xlink:href="#f" transform="matrix(1,0,0,1,-708,1092) translate(160.02604166666669 60.17708333333333)"/><use xlink:href="#g" transform="matrix(1,0,0,1,-708,1092) translate(0 88.28906249999999)"/><use xlink:href="#h" transform="matrix(1,0,0,1,-708,1092) translate(53.342013888888886 88.28906249999999)"/><use xlink:href="#ag" transform="matrix(1,0,0,1,-708,1092) translate(160.02604166666669 88.28906249999999)"/><use xlink:href="#g" transform="matrix(1,0,0,1,-708,1092) translate(0 116.40104166666664)"/><use xlink:href="#j" transform="matrix(1,0,0,1,-708,1092) translate(53.342013888888886 116.40104166666664)"/><use xlink:href="#u" transform="matrix(1,0,0,1,-708,1092) translate(146.69053819444446 116.40104166666664)"/><use xlink:href="#g" transform="matrix(1,0,0,1,-708,1092) translate(0 144.51302083333331)"/><use xlink:href="#l" transform="matrix(1,0,0,1,-708,1092) translate(53.342013888888886 144.51302083333331)"/><use xlink:href="#m" transform="matrix(1,0,0,1,-708,1092) translate(146.69053819444446 144.51302083333331)"/><use xlink:href="#ah" transform="matrix(1,0,0,1,-708,1092) translate(173.3615451388889 144.51302083333331)"/><use xlink:href="#d" transform="matrix(1,0,0,1,-708,1092) translate(0 172.62499999999997)"/><use xlink:href="#o" transform="matrix(1,0,0,1,-708,1092) translate(26.671006944444443 172.62499999999997)"/><use xlink:href="#ag" transform="matrix(1,0,0,1,-708,1092) translate(200.03255208333337 172.62499999999997)"/><use xlink:href="#d" transform="matrix(1,0,0,1,-708,1092) translate(0 200.73697916666663)"/><use xlink:href="#p" transform="matrix(1,0,0,1,-708,1092) translate(26.671006944444443 200.73697916666663)"/><use xlink:href="#al" transform="matrix(1,0,0,1,-708,1092) translate(173.3615451388889 200.73697916666663)"/></g><path d="M1239 812.03a6 6 0 0 1 6-6h348a6 6 0 0 1 6 6v228a6 6 0 0 1-6 6h-348a6 6 0 0 1-6-6z" stroke="#000" stroke-width="2" fill="#f2f3f5"/><g><use xlink:href="#ad" transform="matrix(1,0,0,1,1250.9999749999997,818.0279947916664) translate(0 32.00043402777778)"/><use xlink:href="#ae" transform="matrix(1,0,0,1,1250.9999749999997,818.0279947916664) translate(93.34852430555557 32.00043402777778)"/><use xlink:href="#am" transform="matrix(1,0,0,1,1250.9999749999997,818.0279947916664) translate(226.70355902777783 32.00043402777778)"/><use xlink:href="#d" transform="matrix(1,0,0,1,1250.9999749999997,818.0279947916664) translate(0 60.11458333333333)"/><use xlink:href="#e" transform="matrix(1,0,0,1,1250.9999749999997,818.0279947916664) translate(26.671006944444443 60.11458333333333)"/><use xlink:href="#an" transform="matrix(1,0,0,1,1250.9999749999997,818.0279947916664) translate(160.02604166666669 60.11458333333333)"/><use xlink:href="#g" transform="matrix(1,0,0,1,1250.9999749999997,818.0279947916664) translate(0 88.22656249999999)"/><use xlink:href="#ao" transform="matrix(1,0,0,1,1250.9999749999997,818.0279947916664) translate(53.342013888888886 88.22656249999999)"/><use xlink:href="#u" transform="matrix(1,0,0,1,1250.9999749999997,818.0279947916664) translate(160.02604166666669 88.22656249999999)"/><use xlink:href="#g" transform="matrix(1,0,0,1,1250.9999749999997,818.0279947916664) translate(0 116.33854166666664)"/><use xlink:href="#ap" transform="matrix(1,0,0,1,1250.9999749999997,818.0279947916664) translate(53.342013888888886 116.33854166666664)"/><use xlink:href="#k" transform="matrix(1,0,0,1,1250.9999749999997,818.0279947916664) translate(160.02604166666669 116.33854166666664)"/><use xlink:href="#g" transform="matrix(1,0,0,1,1250.9999749999997,818.0279947916664) translate(0 144.45052083333331)"/><use xlink:href="#aq" transform="matrix(1,0,0,1,1250.9999749999997,818.0279947916664) translate(53.342013888888886 144.45052083333331)"/><use xlink:href="#x" transform="matrix(1,0,0,1,1250.9999749999997,818.0279947916664) translate(160.02604166666669 144.45052083333331)"/><use xlink:href="#g" transform="matrix(1,0,0,1,1250.9999749999997,818.0279947916664) translate(0 172.56249999999997)"/><use xlink:href="#ar" transform="matrix(1,0,0,1,1250.9999749999997,818.0279947916664) translate(53.342013888888886 172.56249999999997)"/><use xlink:href="#aj" transform="matrix(1,0,0,1,1250.9999749999997,818.0279947916664) translate(160.02604166666669 172.56249999999997)"/><use xlink:href="#d" transform="matrix(1,0,0,1,1250.9999749999997,818.0279947916664) translate(0 200.67447916666663)"/><use xlink:href="#o" transform="matrix(1,0,0,1,1250.9999749999997,818.0279947916664) translate(26.671006944444443 200.67447916666663)"/><use xlink:href="#as" transform="matrix(1,0,0,1,1250.9999749999997,818.0279947916664) translate(200.03255208333337 200.67447916666663)"/><use xlink:href="#q" transform="matrix(1,0,0,1,1250.9999749999997,818.0279947916664) translate(293.3810763888889 200.67447916666663)"/></g><path d="M800 341v20.35m0 20.36v40.7m0 20.37v40.7m0 20.35v40.7m0 20.36v40.7m0 20.36v40.7m0 20.36v40.7m0 20.36v40.7m0 20.36v40.7m0 20.36v40.7m0 20.36v40.7m0 20.35v40.7m0 20.35v40.7m0 20.36v40.72m0 20.35v40.7m0 20.36v40.7m0 20.36v40.7m0 20.35V1379M800 341.03V340M800 1378.97v1.03M280 341v20.35m0 20.36v40.7m0 20.37v40.7m0 20.35v40.7m0 20.36v40.7m0 20.36v40.7m0 20.36v40.7m0 20.36v40.7m0 20.36v40.7m0 20.36v40.7m0 20.36v40.7m0 20.35v40.7m0 20.35v40.7m0 20.36v40.72m0 20.35v40.7m0 20.36v40.7m0 20.36v40.7m0 20.35V1379M280 341.03V340M280 1378.97v1.03" stroke="#d916a8" stroke-width="2" fill="none"/><path d="M320 346a6 6 0 0 1 6-6h428a6 6 0 0 1 6 6v68a6 6 0 0 1-6 6H326a6 6 0 0 1-6-6z" fill="none"/><g><use xlink:href="#at" transform="matrix(1,0,0,1,320,340) translate(0 54.55078125)"/><use xlink:href="#au" transform="matrix(1,0,0,1,320,340) translate(104.39453125 54.55078125)"/><use xlink:href="#av" transform="matrix(1,0,0,1,320,340) translate(306.4453125 54.55078125)"/><use xlink:href="#aw" transform="matrix(1,0,0,1,320,340) translate(370.80078125 54.55078125)"/></g><path d="M840 346a6 6 0 0 1 6-6h508a6 6 0 0 1 6 6v68a6 6 0 0 1-6 6H846a6 6 0 0 1-6-6z" fill="none"/><g><use xlink:href="#ax" transform="matrix(1,0,0,1,840,340) translate(0 54.55078125)"/><use xlink:href="#au" transform="matrix(1,0,0,1,840,340) translate(85.8984375 54.55078125)"/><use xlink:href="#av" transform="matrix(1,0,0,1,840,340) translate(287.94921875 54.55078125)"/><use xlink:href="#ay" transform="matrix(1,0,0,1,840,340) translate(352.3046875 54.55078125)"/></g><path d="M-240 341v20.35m0 20.36v40.7m0 20.37v40.7m0 20.35v40.7m0 20.36v40.7m0 20.36v40.7m0 20.36v40.7m0 20.36v40.7m0 20.36v40.7m0 20.36v40.7m0 20.36v40.7m0 20.35v40.7m0 20.35v40.7m0 20.36v40.72m0 20.35v40.7m0 20.36v40.7m0 20.36v40.7m0 20.35V1379M-240 341.03V340M-240 1378.97v1.03M-760 347v20m0 20v40.03m0 20v40.02m0 20v40.02m0 20v40.02m0 20v40m0 20v40.03m0 20v40.02m0 20v40.02m0 20v40.02m0 20v40m0 20v40.03m0 20v40.02m0 20v40.02m0 20v40.02m0 20v40m0 20v40.03m0 20v20M-760 347.03V346M-760 1367.3v1.04M2560 341v20.17m0 20.17v40.34m0 20.17v40.34m0 20.16v40.34m0 20.17v40.34m0 20.18v40.34m0 20.17v40.33m0 20.17v40.34m0 20.17v40.35m0 20.17v40.34m0 20.17v40.34m0 20.17v40.34m0 20.17v40.34m0 20.16v40.34m0 20.17v40.34m0 20.18v40.34m0 20.17v40.33m0 20.17v20.17M2560 341.03V340M2560 1369.64v1.03" stroke="#d916a8" stroke-width="2" fill="none"/><path d="M-200 346a6 6 0 0 1 6-6h428a6 6 0 0 1 6 6v68a6 6 0 0 1-6 6h-428a6 6 0 0 1-6-6z" fill="none"/><g><use xlink:href="#az" transform="matrix(1,0,0,1,-200,340) translate(0 54.55078125)"/><use xlink:href="#au" transform="matrix(1,0,0,1,-200,340) translate(129.86328125 54.55078125)"/><use xlink:href="#av" transform="matrix(1,0,0,1,-200,340) translate(331.9140625 54.55078125)"/><use xlink:href="#aA" transform="matrix(1,0,0,1,-200,340) translate(396.26953125 54.55078125)"/></g><path d="M-720 346a6 6 0 0 1 6-6h428a6 6 0 0 1 6 6v68a6 6 0 0 1-6 6h-428a6 6 0 0 1-6-6z" fill="none"/><g><use xlink:href="#aB" transform="matrix(1,0,0,1,-720,340) translate(0 54.55078125)"/><use xlink:href="#au" transform="matrix(1,0,0,1,-720,340) translate(121.73828125 54.55078125)"/><use xlink:href="#av" transform="matrix(1,0,0,1,-720,340) translate(323.7890625 54.55078125)"/><use xlink:href="#aC" transform="matrix(1,0,0,1,-720,340) translate(388.14453125 54.55078125)"/></g><path d="M1659 341v20.17m0 20.17v40.34m0 20.17v40.34m0 20.16v40.34m0 20.17v40.34m0 20.18v40.34m0 20.17v40.33m0 20.17v40.34m0 20.17v40.35m0 20.17v40.34m0 20.17v40.34m0 20.17v40.34m0 20.17v40.34m0 20.16v40.34m0 20.17v40.34m0 20.18v40.34m0 20.17v40.33m0 20.17v20.17M1659 341.03V340M1659 1369.64v1.03" stroke="#d916a8" stroke-width="2" fill="none"/><path d="M1700 346a6 6 0 0 1 6-6h508a6 6 0 0 1 6 6v68a6 6 0 0 1-6 6h-508a6 6 0 0 1-6-6z" fill="none"/><g><use xlink:href="#ax" transform="matrix(1,0,0,1,1700,340) translate(0 54.55078125)"/><use xlink:href="#au" transform="matrix(1,0,0,1,1700,340) translate(85.8984375 54.55078125)"/><use xlink:href="#av" transform="matrix(1,0,0,1,1700,340) translate(287.94921875 54.55078125)"/><use xlink:href="#aD" transform="matrix(1,0,0,1,1700,340) translate(352.3046875 54.55078125)"/></g><defs><path d="M872-915c-35-112-84-223-220-223-91 0-156 41-204 116-89 137-87 550 2 688 51 79 116 122 209 122 150 0 197-126 240-244l273 52C1094-168 961 20 656 20 239 20 80-262 80-681c0-418 154-689 568-689 289 0 425 167 496 389" id="aE"/><path d="M875-1102c70 0 148 7 206 17v237c-110-17-267-37-359 15-123 69-192 207-192 395V0H250c-10-367 32-789-52-1082h271c19 69 36 149 46 228h4c52-151 151-250 356-248" id="aF"/><path d="M1113-274C1038-96 884 20 626 20c-352 0-526-209-526-566 0-358 185-556 530-556 358 0 496 251 499 615H395c5 180 68 319 245 319 102 0 186-45 208-129zM857-663c-6-177-128-307-315-247-94 30-141 121-145 247h460" id="aG"/><path d="M775-193C708-75 621 20 439 20 226 20 106-93 106-306c0-251 170-341 417-346l223-4c4-143-12-264-148-264-103 0-141 58-150 153l-293-14c37-219 194-321 455-321 263 0 418 130 417 390v392c1 84 5 161 89 160 21 0 42-2 62-6v152c-57 15-108 27-180 26-145 0-202-73-217-205h-6zm-256 17c168 0 234-139 227-325-166 4-347-25-347 173 0 94 33 152 120 152" id="aH"/><path d="M711 13c-250 0-386-99-385-349l2-556H161v-190h181l88-282h176v282h385v190H606v530c-10 130 45 186 174 184 91-2 176-11 255-27v186C933-1 833 13 711 13" id="aI"/><g id="a"><use transform="matrix(0.010850694444444444,0,0,0.010850694444444444,0,0)" xlink:href="#aE"/><use transform="matrix(0.010850694444444444,0,0,0.010850694444444444,13.335503472222221,0)" xlink:href="#aF"/><use transform="matrix(0.010850694444444444,0,0,0.010850694444444444,26.671006944444443,0)" xlink:href="#aG"/><use transform="matrix(0.010850694444444444,0,0,0.010850694444444444,40.006510416666664,0)" xlink:href="#aH"/><use transform="matrix(0.010850694444444444,0,0,0.010850694444444444,53.342013888888886,0)" xlink:href="#aI"/><use transform="matrix(0.010850694444444444,0,0,0.010850694444444444,66.67751736111111,0)" xlink:href="#aG"/></g><path d="M621-530c0 421 127 700 301 955H641C466 173 344-110 344-531s122-702 297-953h281c-174 254-301 534-301 954" id="aJ"/><path d="M616-1102c361 0 521 202 521 560 0 354-171 562-527 562C259 20 92-192 92-542c0-351 169-560 524-560zm-9 930c200-2 236-165 236-370 0-199-27-367-223-367-195 0-233 146-233 367 0 129 18 223 55 282s92 88 165 88" id="aK"/><path d="M768-1103c247 0 336 167 336 416V0H824v-619c-3-164-24-273-171-273-164 0-229 142-229 312V0H143c-4-359 9-736-8-1082h268c7 63 12 146 13 215h4c67-145 160-236 348-236" id="aL"/><path d="M1109-360C1066-122 902 20 624 20c-347 0-514-209-514-555 0-353 168-567 518-567 270 0 425 136 473 361l-283 14c-16-106-75-183-196-182-75 0-130 31-165 93s-52 152-52 270c0 249 74 374 221 374 120 0 188-82 201-201" id="aM"/><g id="b"><use transform="matrix(0.010850694444444444,0,0,0.010850694444444444,0,0)" xlink:href="#aJ"/><use transform="matrix(0.010850694444444444,0,0,0.010850694444444444,13.335503472222221,0)" xlink:href="#aE"/><use transform="matrix(0.010850694444444444,0,0,0.010850694444444444,26.671006944444443,0)" xlink:href="#aK"/><use transform="matrix(0.010850694444444444,0,0,0.010850694444444444,40.006510416666664,0)" xlink:href="#aL"/><use transform="matrix(0.010850694444444444,0,0,0.010850694444444444,53.342013888888886,0)" xlink:href="#aI"/><use transform="matrix(0.010850694444444444,0,0,0.010850694444444444,66.67751736111111,0)" xlink:href="#aF"/><use transform="matrix(0.010850694444444444,0,0,0.010850694444444444,80.01302083333334,0)" xlink:href="#aH"/><use transform="matrix(0.010850694444444444,0,0,0.010850694444444444,93.34852430555557,0)" xlink:href="#aM"/><use transform="matrix(0.010850694444444444,0,0,0.010850694444444444,106.6840277777778,0)" xlink:href="#aI"/></g><path d="M951-835l-69 324h237v149H849L771 0H616l79-362H386L308 0H155l78-362H59v-149h206l70-324H108v-148h259l79-366h153l-78 366h308l79-366h153l-78 366h185v148H951zm-463 0l-70 324h309l70-324H488" id="aN"/><path d="M135-968c34-256 187-402 480-402 217 0 371 75 441 220 45 93 40 219-8 308-114 212-348 323-508 488-38 39-66 80-85 123h654V0H123v-195c112-245 321-399 515-560 57-48 107-96 142-157 14-26 22-53 22-80-1-104-73-156-185-154-131 2-181 74-199 194" id="aO"/><path d="M885-531c0 421-122 704-297 956H307c174-255 301-534 301-955 0-420-127-700-301-954h281c175 251 297 532 297 953" id="aP"/><g id="c"><use transform="matrix(0.010850694444444444,0,0,0.010850694444444444,0,0)" xlink:href="#aN"/><use transform="matrix(0.010850694444444444,0,0,0.010850694444444444,13.335503472222221,0)" xlink:href="#aO"/><use transform="matrix(0.010850694444444444,0,0,0.010850694444444444,26.671006944444443,0)" xlink:href="#aP"/></g><path d="M709-1193V0H519v-1193H76v-156h1076v156H709" id="aQ"/><path d="M617-1102c355 0 481 238 477 599H322c5 222 84 388 301 388 144 0 244-59 284-166l158 45C1002-72 854 20 623 20c-342 0-490-220-490-568 0-346 151-554 484-554zm291 461c-18-192-90-328-289-328-194 0-287 128-295 328h584" id="aR"/><path d="M904-1102c199 0 220 177 220 381V0H956v-686c-3-114 0-215-60-264-70-33-125-4-158 71-26 56-39 140-39 252V0H531v-686c-3-114-1-215-61-264-78-41-136 24-157 84-24 69-39 159-39 259V0H105c-3-360 6-732-6-1082h149c6 50 3 123 8 175 36-100 83-195 216-195 135 0 166 79 196 196 42-105 93-196 236-196" id="aS"/><path d="M698-1104c312 3 392 244 392 558 0 315-82 566-392 566-169 0-277-65-331-184h-5c8 188 2 394 4 589H185V-858c0-76-1-156-6-224h175c6 52 9 120 10 178h4c58-122 150-202 330-200zm-49 991c225 0 255-203 255-433 0-225-32-419-253-419-236 0-285 192-285 441 0 237 53 411 283 411" id="aT"/><path d="M736-142h380V0H134v-142h422v-1200H267v-142h469v1342" id="aU"/><path d="M1000-272c3 95 12 159 101 161 21 0 41-3 59-7V-6c-44 10-86 16-139 16-141 2-191-84-197-217h-6C748-76 648 20 446 20c-207 0-318-120-318-322 0-266 194-348 454-354l236-4c12-191-40-305-222-305-140 0-220 47-232 172l-188-17c33-204 181-292 423-292 255 0 401 118 401 364v466zm-683-27c0 109 63 184 175 182 166-3 259-96 306-217 24-65 20-120 20-200-232 7-501-28-501 235" id="aV"/><path d="M682 16c-209 0-323-80-324-285v-671H190v-142h170l58-282h120v282h432v142H538v652c2 114 60 155 182 155 106 0 209-16 297-34v137C921-4 806 16 682 16" id="aW"/><path d="M496 0v-299h235V0H496zm0-783v-299h235v299H496" id="aX"/><g id="e"><use transform="matrix(0.010850694444444444,0,0,0.010850694444444444,0,0)" xlink:href="#aQ"/><use transform="matrix(0.010850694444444444,0,0,0.010850694444444444,13.335503472222221,0)" xlink:href="#aR"/><use transform="matrix(0.010850694444444444,0,0,0.010850694444444444,26.671006944444443,0)" xlink:href="#aS"/><use transform="matrix(0.010850694444444444,0,0,0.010850694444444444,40.006510416666664,0)" xlink:href="#aT"/><use transform="matrix(0.010850694444444444,0,0,0.010850694444444444,53.342013888888886,0)" xlink:href="#aU"/><use transform="matrix(0.010850694444444444,0,0,0.010850694444444444,66.67751736111111,0)" xlink:href="#aV"/><use transform="matrix(0.010850694444444444,0,0,0.010850694444444444,80.01302083333334,0)" xlink:href="#aW"/><use transform="matrix(0.010850694444444444,0,0,0.010850694444444444,93.34852430555557,0)" xlink:href="#aR"/><use transform="matrix(0.010850694444444444,0,0,0.010850694444444444,106.6840277777778,0)" xlink:href="#aX"/></g><path d="M614-1226c-167 1-283 53-283 213 0 183 186 193 334 234 230 63 463 120 463 409 0 286-219 387-518 390C309 23 131-98 79-338l185-37c34 165 149 248 351 246 184-2 324-58 324-238 0-203-207-221-372-266-210-57-422-111-422-377 0-267 201-356 470-360 279-5 430 101 480 324l-188 33c-28-141-121-215-293-213" id="aY"/><path d="M745-142h380V0H143v-142h422v-798H246v-142h499v940zM545-1292v-192h200v192H545" id="aZ"/><path d="M1034 0L896-382H333L196 0H0l510-1349h217L1228 0h-194zM847-531c-77-225-157-447-231-674-69 231-154 451-232 674h463" id="ba"/><path d="M873-819c-18-114-119-146-250-146-163 0-245 50-245 151 0 151 170 148 294 185 182 54 388 94 388 320 0 240-189 325-439 329-245 4-410-69-454-268l159-31c24 133 136 168 295 165 144-2 270-31 270-171 0-164-195-160-331-202-167-52-350-87-350-299 0-218 173-315 413-313 220 2 373 77 412 260" id="bb"/><g id="f"><use transform="matrix(0.010850694444444444,0,0,0.010850694444444444,0,0)" xlink:href="#aY"/><use transform="matrix(0.010850694444444444,0,0,0.010850694444444444,13.335503472222221,0)" xlink:href="#aZ"/><use transform="matrix(0.010850694444444444,0,0,0.010850694444444444,26.671006944444443,0)" xlink:href="#aS"/><use transform="matrix(0.010850694444444444,0,0,0.010850694444444444,40.006510416666664,0)" xlink:href="#aT"/><use transform="matrix(0.010850694444444444,0,0,0.010850694444444444,53.342013888888886,0)" xlink:href="#aU"/><use transform="matrix(0.010850694444444444,0,0,0.010850694444444444,66.67751736111111,0)" xlink:href="#aR"/><use transform="matrix(0.010850694444444444,0,0,0.010850694444444444,80.01302083333334,0)" xlink:href="#ba"/><use transform="matrix(0.010850694444444444,0,0,0.010850694444444444,93.34852430555557,0)" xlink:href="#bb"/><use transform="matrix(0.010850694444444444,0,0,0.010850694444444444,106.6840277777778,0)" xlink:href="#bb"/><use transform="matrix(0.010850694444444444,0,0,0.010850694444444444,120.01953125000003,0)" xlink:href="#aR"/><use transform="matrix(0.010850694444444444,0,0,0.010850694444444444,133.35503472222226,0)" xlink:href="#aW"/></g><path d="M528 20c-247 0-343-132-343-381v-721h180v686c-4 177 45 284 224 277 194-8 279-136 279-336v-627h181c3 360-6 732 6 1082H885c-4-54-7-126-8-185h-3C809-64 714 20 528 20" id="bc"/><path d="M839-1102c70 0 148 7 206 17v167c-112-18-268-36-363 15-129 69-208 203-208 395V0H294c-10-367 32-789-52-1082h171c21 75 41 161 48 250h5c67-152 152-270 373-270" id="bd"/><g id="h"><use transform="matrix(0.010850694444444444,0,0,0.010850694444444444,0,0)" xlink:href="#aZ"/><use transform="matrix(0.010850694444444444,0,0,0.010850694444444444,13.335503472222221,0)" xlink:href="#bb"/><use transform="matrix(0.010850694444444444,0,0,0.010850694444444444,26.671006944444443,0)" xlink:href="#bb"/><use transform="matrix(0.010850694444444444,0,0,0.010850694444444444,40.006510416666664,0)" xlink:href="#bc"/><use transform="matrix(0.010850694444444444,0,0,0.010850694444444444,53.342013888888886,0)" xlink:href="#aR"/><use transform="matrix(0.010850694444444444,0,0,0.010850694444444444,66.67751736111111,0)" xlink:href="#bd"/><use transform="matrix(0.010850694444444444,0,0,0.010850694444444444,80.01302083333334,0)" xlink:href="#aX"/></g><path d="M802-711c201 25 350 118 350 331C1152-95 921 0 634 0H162v-1349c401 9 908-74 908 327 0 184-111 275-268 311zm-224-69c174-2 300-51 300-218 0-163-124-198-302-198H353v416h225zM353-153c281-2 612 44 606-244-5-271-329-233-606-234v478" id="be"/><path d="M706-1102c241 0 344 136 343 381V0H868v-695c1-168-57-273-220-268-190 6-283 138-283 336V0H185c-3-360 6-732-6-1082h170c4 54 7 126 8 185h3c63-121 164-204 346-205" id="bf"/><path d="M914 0L548-499l-132 98V0H236v-1484h180v927l475-525h211L663-617 1125 0H914" id="bg"/><path d="M611-1370c266 0 451 106 451 368 0 147-77 243-154 327-132 144-316 255-451 395-42 44-75 87-96 134h723V0H144v-117c124-264 387-411 582-603 73-72 151-147 151-271 0-161-104-231-266-231-163 0-249 90-268 238l-184-17c35-233 185-369 452-369" id="bh"/><g id="i"><use transform="matrix(0.010850694444444444,0,0,0.010850694444444444,0,0)" xlink:href="#be"/><use transform="matrix(0.010850694444444444,0,0,0.010850694444444444,13.335503472222221,0)" xlink:href="#aV"/><use transform="matrix(0.010850694444444444,0,0,0.010850694444444444,26.671006944444443,0)" xlink:href="#bf"/><use transform="matrix(0.010850694444444444,0,0,0.010850694444444444,40.006510416666664,0)" xlink:href="#bg"/><use transform="matrix(0.010850694444444444,0,0,0.010850694444444444,53.342013888888886,0)" xlink:href="#bh"/></g><path d="M615-1102c343 0 484 203 482 560-1 347-147 562-488 562-336 0-475-219-479-562-4-349 156-560 485-560zm-8 989c240 0 301-180 301-429 0-245-55-427-290-427-236 0-299 181-299 427 0 243 61 429 288 429" id="bi"/><path d="M1018 0H814c-67-224-138-444-200-673C552-442 476-224 407 0H204L21-1082h178c43 310 105 601 126 933 54-225 128-425 193-638h193c63 212 134 415 185 638 22-336 90-622 136-933h176" id="bj"/><g id="j"><use transform="matrix(0.010850694444444444,0,0,0.010850694444444444,0,0)" xlink:href="#bi"/><use transform="matrix(0.010850694444444444,0,0,0.010850694444444444,13.335503472222221,0)" xlink:href="#bj"/><use transform="matrix(0.010850694444444444,0,0,0.010850694444444444,26.671006944444443,0)" xlink:href="#bf"/><use transform="matrix(0.010850694444444444,0,0,0.010850694444444444,40.006510416666664,0)" xlink:href="#aR"/><use transform="matrix(0.010850694444444444,0,0,0.010850694444444444,53.342013888888886,0)" xlink:href="#bd"/><use transform="matrix(0.010850694444444444,0,0,0.010850694444444444,66.67751736111111,0)" xlink:href="#aX"/></g><path d="M365-904c58-129 161-200 334-200 130 0 228 46 293 138s98 233 98 420c0 189-34 331-102 425S824 20 698 20c-170 0-275-64-336-184 0 55-3 116-9 164H179c5-68 6-147 6-223v-1261h180c-2 193 4 394-4 580h4zm283 791c221 0 256-197 256-427 0-229-34-425-254-425-236 0-285 195-285 441 0 237 53 411 283 411" id="bk"/><g id="k"><use transform="matrix(0.010850694444444444,0,0,0.010850694444444444,0,0)" xlink:href="#be"/><use transform="matrix(0.010850694444444444,0,0,0.010850694444444444,13.335503472222221,0)" xlink:href="#bi"/><use transform="matrix(0.010850694444444444,0,0,0.010850694444444444,26.671006944444443,0)" xlink:href="#bk"/></g><g id="l"><use transform="matrix(0.010850694444444444,0,0,0.010850694444444444,0,0)" xlink:href="#aV"/><use transform="matrix(0.010850694444444444,0,0,0.010850694444444444,13.335503472222221,0)" xlink:href="#bb"/><use transform="matrix(0.010850694444444444,0,0,0.010850694444444444,26.671006944444443,0)" xlink:href="#bb"/><use transform="matrix(0.010850694444444444,0,0,0.010850694444444444,40.006510416666664,0)" xlink:href="#aR"/><use transform="matrix(0.010850694444444444,0,0,0.010850694444444444,53.342013888888886,0)" xlink:href="#aW"/><use transform="matrix(0.010850694444444444,0,0,0.010850694444444444,66.67751736111111,0)" xlink:href="#aX"/></g><path d="M148-1120c216-7 379-89 463-229h166v1204h353V0H157v-145h439v-1021c-79 124-254 184-448 194v-148" id="bl"/><use transform="matrix(0.010850694444444444,0,0,0.010850694444444444,0,0)" xlink:href="#bl" id="m"/><path d="M604-135c236 0 291-142 291-376v-838h190v859c5 340-142 510-480 510-326 0-463-164-463-492v-877h191v851c-3 222 46 363 271 363" id="bm"/><path d="M473-1349c438-1 655 221 652 661C1122-268 945-8 532 0H162v-1349h311zm42 1193c308-4 416-205 418-532 2-330-131-509-459-505H353v1037h162" id="bn"/><g id="n"><use transform="matrix(0.010850694444444444,0,0,0.010850694444444444,0,0)" xlink:href="#bm"/><use transform="matrix(0.010850694444444444,0,0,0.010850694444444444,13.335503472222221,0)" xlink:href="#aY"/><use transform="matrix(0.010850694444444444,0,0,0.010850694444444444,26.671006944444443,0)" xlink:href="#bn"/></g><path d="M1048-32c-2 300-135 456-433 456-222-1-358-88-400-267l184-25c22 99 100 157 222 156 184-2 248-125 248-315 0-64 3-133-2-194C807-100 706-13 524-12c-306 0-381-228-381-537 0-318 85-550 400-550 164 0 271 83 325 202h3c1-60 3-134 12-185h171c-13 339-4 702-6 1050zM585-145c210-8 284-178 284-406 0-192-52-331-177-392-33-16-69-22-104-22-223 2-259 184-259 414 0 229 31 415 256 406" id="bo"/><g id="o"><use transform="matrix(0.010850694444444444,0,0,0.010850694444444444,0,0)" xlink:href="#aY"/><use transform="matrix(0.010850694444444444,0,0,0.010850694444444444,13.335503472222221,0)" xlink:href="#aZ"/><use transform="matrix(0.010850694444444444,0,0,0.010850694444444444,26.671006944444443,0)" xlink:href="#bo"/><use transform="matrix(0.010850694444444444,0,0,0.010850694444444444,40.006510416666664,0)" xlink:href="#bf"/><use transform="matrix(0.010850694444444444,0,0,0.010850694444444444,53.342013888888886,0)" xlink:href="#aV"/><use transform="matrix(0.010850694444444444,0,0,0.010850694444444444,66.67751736111111,0)" xlink:href="#aW"/><use transform="matrix(0.010850694444444444,0,0,0.010850694444444444,80.01302083333334,0)" xlink:href="#bi"/><use transform="matrix(0.010850694444444444,0,0,0.010850694444444444,93.34852430555557,0)" xlink:href="#bd"/><use transform="matrix(0.010850694444444444,0,0,0.010850694444444444,106.6840277777778,0)" xlink:href="#aZ"/><use transform="matrix(0.010850694444444444,0,0,0.010850694444444444,120.01953125000003,0)" xlink:href="#aR"/><use transform="matrix(0.010850694444444444,0,0,0.010850694444444444,133.35503472222226,0)" xlink:href="#bb"/><use transform="matrix(0.010850694444444444,0,0,0.010850694444444444,146.69053819444449,0)" xlink:href="#aX"/></g><path d="M102-681c0-398 126-689 513-689 165 0 291 58 379 174s132 287 132 515c-1 318-88 554-298 657-123 61-317 58-438-3-206-104-288-341-288-654zm749 406c94-160 97-656-5-807-57-85-130-132-231-132-104 0-178 47-234 132-101 153-99 655 1 809 57 89 130 138 232 138 109 0 184-49 237-140" id="bp"/><path d="M715 0H502L69-1082h202c94 253 197 500 285 758 19 57 36 126 52 183 96-335 234-626 350-941h201" id="bq"/><g id="p"><use transform="matrix(0.010850694444444444,0,0,0.010850694444444444,0,0)" xlink:href="#bp"/><use transform="matrix(0.010850694444444444,0,0,0.010850694444444444,13.335503472222221,0)" xlink:href="#bk"/><use transform="matrix(0.010850694444444444,0,0,0.010850694444444444,26.671006944444443,0)" xlink:href="#bb"/><use transform="matrix(0.010850694444444444,0,0,0.010850694444444444,40.006510416666664,0)" xlink:href="#aR"/><use transform="matrix(0.010850694444444444,0,0,0.010850694444444444,53.342013888888886,0)" xlink:href="#bd"/><use transform="matrix(0.010850694444444444,0,0,0.010850694444444444,66.67751736111111,0)" xlink:href="#bq"/><use transform="matrix(0.010850694444444444,0,0,0.010850694444444444,80.01302083333334,0)" xlink:href="#aR"/><use transform="matrix(0.010850694444444444,0,0,0.010850694444444444,93.34852430555557,0)" xlink:href="#bd"/><use transform="matrix(0.010850694444444444,0,0,0.010850694444444444,106.6840277777778,0)" xlink:href="#bb"/><use transform="matrix(0.010850694444444444,0,0,0.010850694444444444,120.01953125000003,0)" xlink:href="#aX"/></g><g id="q"><use transform="matrix(0.010850694444444444,0,0,0.010850694444444444,0,0)" xlink:href="#be"/><use transform="matrix(0.010850694444444444,0,0,0.010850694444444444,13.335503472222221,0)" xlink:href="#bi"/><use transform="matrix(0.010850694444444444,0,0,0.010850694444444444,26.671006944444443,0)" xlink:href="#bk"/></g><path d="M788-691c191 26 337 112 337 315 0 286-214 399-510 399-306 0-483-128-522-391l286-25c18 124 91 190 235 188 132-2 223-58 223-188 0-176-191-182-378-179v-227c176 5 345-9 345-176 0-115-82-171-200-171s-198 55-206 169l-281-20c34-252 213-373 492-373 224 0 381 74 451 224 20 43 29 89 29 136 0 195-130 279-301 315v4" id="br"/><g id="r"><use transform="matrix(0.010850694444444444,0,0,0.010850694444444444,0,0)" xlink:href="#aN"/><use transform="matrix(0.010850694444444444,0,0,0.010850694444444444,13.335503472222221,0)" xlink:href="#br"/><use transform="matrix(0.010850694444444444,0,0,0.010850694444444444,26.671006944444443,0)" xlink:href="#aP"/></g><path d="M622-1349c296 4 497 117 497 404 0 282-193 424-485 431H353V0H162v-1349h460zm-15 684c195-3 320-88 320-277 0-184-129-255-328-254H353v531h254" id="bs"/><g id="s"><use transform="matrix(0.010850694444444444,0,0,0.010850694444444444,0,0)" xlink:href="#bs"/><use transform="matrix(0.010850694444444444,0,0,0.010850694444444444,13.335503472222221,0)" xlink:href="#bd"/><use transform="matrix(0.010850694444444444,0,0,0.010850694444444444,26.671006944444443,0)" xlink:href="#bi"/><use transform="matrix(0.010850694444444444,0,0,0.010850694444444444,40.006510416666664,0)" xlink:href="#aT"/><use transform="matrix(0.010850694444444444,0,0,0.010850694444444444,53.342013888888886,0)" xlink:href="#bi"/><use transform="matrix(0.010850694444444444,0,0,0.010850694444444444,66.67751736111111,0)" xlink:href="#bb"/><use transform="matrix(0.010850694444444444,0,0,0.010850694444444444,80.01302083333334,0)" xlink:href="#aR"/><use transform="matrix(0.010850694444444444,0,0,0.010850694444444444,93.34852430555557,0)" xlink:href="#aY"/><use transform="matrix(0.010850694444444444,0,0,0.010850694444444444,106.6840277777778,0)" xlink:href="#aZ"/><use transform="matrix(0.010850694444444444,0,0,0.010850694444444444,120.01953125000003,0)" xlink:href="#aS"/><use transform="matrix(0.010850694444444444,0,0,0.010850694444444444,133.35503472222226,0)" xlink:href="#aT"/><use transform="matrix(0.010850694444444444,0,0,0.010850694444444444,146.69053819444449,0)" xlink:href="#aU"/><use transform="matrix(0.010850694444444444,0,0,0.010850694444444444,160.0260416666667,0)" xlink:href="#aR"/><use transform="matrix(0.010850694444444444,0,0,0.010850694444444444,173.36154513888894,0)" xlink:href="#bn"/><use transform="matrix(0.010850694444444444,0,0,0.010850694444444444,186.69704861111117,0)" xlink:href="#bq"/><use transform="matrix(0.010850694444444444,0,0,0.010850694444444444,200.0325520833334,0)" xlink:href="#bs"/></g><g id="t"><use transform="matrix(0.010850694444444444,0,0,0.010850694444444444,0,0)" xlink:href="#aT"/><use transform="matrix(0.010850694444444444,0,0,0.010850694444444444,13.335503472222221,0)" xlink:href="#bd"/><use transform="matrix(0.010850694444444444,0,0,0.010850694444444444,26.671006944444443,0)" xlink:href="#bi"/><use transform="matrix(0.010850694444444444,0,0,0.010850694444444444,40.006510416666664,0)" xlink:href="#aT"/><use transform="matrix(0.010850694444444444,0,0,0.010850694444444444,53.342013888888886,0)" xlink:href="#bi"/><use transform="matrix(0.010850694444444444,0,0,0.010850694444444444,66.67751736111111,0)" xlink:href="#bb"/><use transform="matrix(0.010850694444444444,0,0,0.010850694444444444,80.01302083333334,0)" xlink:href="#aR"/><use transform="matrix(0.010850694444444444,0,0,0.010850694444444444,93.34852430555557,0)" xlink:href="#bd"/><use transform="matrix(0.010850694444444444,0,0,0.010850694444444444,106.6840277777778,0)" xlink:href="#aX"/></g><path d="M631 20c-350 0-501-215-501-562 0-355 162-560 502-560 250 0 399 118 446 323l-192 14c-23-124-109-196-262-196-242 0-305 171-305 415 1 245 61 427 304 427 151 0 248-77 267-215l190 12C1039-107 883 20 631 20" id="bt"/><g id="u"><use transform="matrix(0.010850694444444444,0,0,0.010850694444444444,0,0)" xlink:href="#ba"/><use transform="matrix(0.010850694444444444,0,0,0.010850694444444444,13.335503472222221,0)" xlink:href="#aU"/><use transform="matrix(0.010850694444444444,0,0,0.010850694444444444,26.671006944444443,0)" xlink:href="#aZ"/><use transform="matrix(0.010850694444444444,0,0,0.010850694444444444,40.006510416666664,0)" xlink:href="#bt"/><use transform="matrix(0.010850694444444444,0,0,0.010850694444444444,53.342013888888886,0)" xlink:href="#aR"/></g><path d="M168 279c222 39 310-114 368-290L66-1082h192c120 299 249 590 362 896 115-301 235-597 351-896h190L705 0c-65 164-130 320-275 396-67 36-177 35-262 18V279" id="bu"/><g id="v"><use transform="matrix(0.010850694444444444,0,0,0.010850694444444444,0,0)" xlink:href="#bt"/><use transform="matrix(0.010850694444444444,0,0,0.010850694444444444,13.335503472222221,0)" xlink:href="#bi"/><use transform="matrix(0.010850694444444444,0,0,0.010850694444444444,26.671006944444443,0)" xlink:href="#bc"/><use transform="matrix(0.010850694444444444,0,0,0.010850694444444444,40.006510416666664,0)" xlink:href="#bf"/><use transform="matrix(0.010850694444444444,0,0,0.010850694444444444,53.342013888888886,0)" xlink:href="#aW"/><use transform="matrix(0.010850694444444444,0,0,0.010850694444444444,66.67751736111111,0)" xlink:href="#aR"/><use transform="matrix(0.010850694444444444,0,0,0.010850694444444444,80.01302083333334,0)" xlink:href="#bd"/><use transform="matrix(0.010850694444444444,0,0,0.010850694444444444,93.34852430555557,0)" xlink:href="#aT"/><use transform="matrix(0.010850694444444444,0,0,0.010850694444444444,106.6840277777778,0)" xlink:href="#aV"/><use transform="matrix(0.010850694444444444,0,0,0.010850694444444444,120.01953125000003,0)" xlink:href="#bd"/><use transform="matrix(0.010850694444444444,0,0,0.010850694444444444,133.35503472222226,0)" xlink:href="#aW"/><use transform="matrix(0.010850694444444444,0,0,0.010850694444444444,146.69053819444449,0)" xlink:href="#bu"/><use transform="matrix(0.010850694444444444,0,0,0.010850694444444444,160.0260416666667,0)" xlink:href="#aX"/></g><path d="M865-914c-3-187-2-380-2-570h180v1261c0 76 1 155 6 223H877c-8-49-9-116-10-174h-5C801-44 708 26 530 26c-135 0-234-46-297-139s-95-232-95-419c0-377 131-566 392-566 176 0 271 63 335 184zm-286-51c-222 0-255 197-255 427 0 229 31 425 253 425 237 0 286-195 286-441 0-238-52-411-284-411" id="bv"/><g id="w"><use transform="matrix(0.010850694444444444,0,0,0.010850694444444444,0,0)" xlink:href="#aV"/><use transform="matrix(0.010850694444444444,0,0,0.010850694444444444,13.335503472222221,0)" xlink:href="#aU"/><use transform="matrix(0.010850694444444444,0,0,0.010850694444444444,26.671006944444443,0)" xlink:href="#aU"/><use transform="matrix(0.010850694444444444,0,0,0.010850694444444444,40.006510416666664,0)" xlink:href="#bi"/><use transform="matrix(0.010850694444444444,0,0,0.010850694444444444,53.342013888888886,0)" xlink:href="#bt"/><use transform="matrix(0.010850694444444444,0,0,0.010850694444444444,66.67751736111111,0)" xlink:href="#aV"/><use transform="matrix(0.010850694444444444,0,0,0.010850694444444444,80.01302083333334,0)" xlink:href="#aW"/><use transform="matrix(0.010850694444444444,0,0,0.010850694444444444,93.34852430555557,0)" xlink:href="#aR"/><use transform="matrix(0.010850694444444444,0,0,0.010850694444444444,106.6840277777778,0)" xlink:href="#bv"/><use transform="matrix(0.010850694444444444,0,0,0.010850694444444444,120.01953125000003,0)" xlink:href="#aX"/></g><path d="M930-833l-67 317h260v108H840L752 0H642l86-408H365L281 0H171l84-408H54v-108h225l67-317H105v-108h263l89-408h110l-88 408h363l88-408h110l-88 408h211v108H930zm-471 0l-69 317h362l67-317H459" id="bw"/><g id="x"><use transform="matrix(0.010850694444444444,0,0,0.010850694444444444,0,0)" xlink:href="#bw"/><use transform="matrix(0.010850694444444444,0,0,0.010850694444444444,13.335503472222221,0)" xlink:href="#bl"/></g><path d="M932 0L611-444 288 0H94l415-556-397-526h199l300 421 298-421h201L713-558 1133 0H932" id="bx"/><g id="y"><use transform="matrix(0.010850694444444444,0,0,0.010850694444444444,0,0)" xlink:href="#aR"/><use transform="matrix(0.010850694444444444,0,0,0.010850694444444444,13.335503472222221,0)" xlink:href="#bx"/><use transform="matrix(0.010850694444444444,0,0,0.010850694444444444,26.671006944444443,0)" xlink:href="#aT"/><use transform="matrix(0.010850694444444444,0,0,0.010850694444444444,40.006510416666664,0)" xlink:href="#aR"/><use transform="matrix(0.010850694444444444,0,0,0.010850694444444444,53.342013888888886,0)" xlink:href="#bt"/><use transform="matrix(0.010850694444444444,0,0,0.010850694444444444,66.67751736111111,0)" xlink:href="#aW"/><use transform="matrix(0.010850694444444444,0,0,0.010850694444444444,80.01302083333334,0)" xlink:href="#aR"/><use transform="matrix(0.010850694444444444,0,0,0.010850694444444444,93.34852430555557,0)" xlink:href="#bv"/><use transform="matrix(0.010850694444444444,0,0,0.010850694444444444,106.6840277777778,0)" xlink:href="#aX"/></g><g id="z"><use transform="matrix(0.010850694444444444,0,0,0.010850694444444444,0,0)" xlink:href="#aY"/><use transform="matrix(0.010850694444444444,0,0,0.010850694444444444,13.335503472222221,0)" xlink:href="#aZ"/><use transform="matrix(0.010850694444444444,0,0,0.010850694444444444,26.671006944444443,0)" xlink:href="#aS"/><use transform="matrix(0.010850694444444444,0,0,0.010850694444444444,40.006510416666664,0)" xlink:href="#aT"/><use transform="matrix(0.010850694444444444,0,0,0.010850694444444444,53.342013888888886,0)" xlink:href="#aU"/><use transform="matrix(0.010850694444444444,0,0,0.010850694444444444,66.67751736111111,0)" xlink:href="#aR"/><use transform="matrix(0.010850694444444444,0,0,0.010850694444444444,80.01302083333334,0)" xlink:href="#ba"/><use transform="matrix(0.010850694444444444,0,0,0.010850694444444444,93.34852430555557,0)" xlink:href="#bb"/><use transform="matrix(0.010850694444444444,0,0,0.010850694444444444,106.6840277777778,0)" xlink:href="#bb"/><use transform="matrix(0.010850694444444444,0,0,0.010850694444444444,120.01953125000003,0)" xlink:href="#aR"/><use transform="matrix(0.010850694444444444,0,0,0.010850694444444444,133.35503472222226,0)" xlink:href="#aW"/></g><path d="M496 0v-299h235V0H496" id="by"/><g id="A"><use transform="matrix(0.010850694444444444,0,0,0.010850694444444444,0,0)" xlink:href="#by"/><use transform="matrix(0.010850694444444444,0,0,0.010850694444444444,13.335503472222221,0)" xlink:href="#by"/><use transform="matrix(0.010850694444444444,0,0,0.010850694444444444,26.671006944444443,0)" xlink:href="#by"/></g><path d="M137 0v-1349h968v228H432v324h612v228H432v341h714V0H137" id="bz"/><path d="M874 0L612-392 348 0H49l406-559-387-523h303l241 354 240-354h305L770-562 1179 0H874" id="bA"/><path d="M794-190h353V0H118v-190h395v-702H223v-190h571v892zM513-1277v-207h281v207H513" id="bB"/><path d="M622-916c-112 2-200 14-200 111 0 90 89 101 168 121 234 58 514 77 514 368C1104-4 751 54 434 5 267-21 161-112 121-270l247-37c24 111 113 145 252 141 114-3 226-12 226-124 0-101-103-113-192-134-225-54-490-76-490-351 0-247 201-328 458-328 245 0 413 88 457 292l-249 26c-16-98-92-133-208-131" id="bC"/><g id="B"><use transform="matrix(0.010850694444444444,0,0,0.010850694444444444,0,0)" xlink:href="#bz"/><use transform="matrix(0.010850694444444444,0,0,0.010850694444444444,13.335503472222221,0)" xlink:href="#bA"/><use transform="matrix(0.010850694444444444,0,0,0.010850694444444444,26.671006944444443,0)" xlink:href="#aG"/><use transform="matrix(0.010850694444444444,0,0,0.010850694444444444,40.006510416666664,0)" xlink:href="#aF"/><use transform="matrix(0.010850694444444444,0,0,0.010850694444444444,53.342013888888886,0)" xlink:href="#aM"/><use transform="matrix(0.010850694444444444,0,0,0.010850694444444444,66.67751736111111,0)" xlink:href="#bB"/><use transform="matrix(0.010850694444444444,0,0,0.010850694444444444,80.01302083333334,0)" xlink:href="#bC"/><use transform="matrix(0.010850694444444444,0,0,0.010850694444444444,93.34852430555557,0)" xlink:href="#aG"/></g><path d="M650-1214c-281 0-336 244-336 533 0 295 60 546 347 546 188 0 263-142 322-282l159 65C1058-155 935 20 659 20c-401 0-546-295-546-701 0-407 135-689 536-689 264 0 391 146 466 335l-168 65c-47-129-127-244-297-244" id="bD"/><g id="C"><use transform="matrix(0.010850694444444444,0,0,0.010850694444444444,0,0)" xlink:href="#bD"/><use transform="matrix(0.010850694444444444,0,0,0.010850694444444444,13.335503472222221,0)" xlink:href="#bi"/><use transform="matrix(0.010850694444444444,0,0,0.010850694444444444,26.671006944444443,0)" xlink:href="#bf"/><use transform="matrix(0.010850694444444444,0,0,0.010850694444444444,40.006510416666664,0)" xlink:href="#aW"/><use transform="matrix(0.010850694444444444,0,0,0.010850694444444444,53.342013888888886,0)" xlink:href="#bd"/><use transform="matrix(0.010850694444444444,0,0,0.010850694444444444,66.67751736111111,0)" xlink:href="#aV"/><use transform="matrix(0.010850694444444444,0,0,0.010850694444444444,80.01302083333334,0)" xlink:href="#bt"/><use transform="matrix(0.010850694444444444,0,0,0.010850694444444444,93.34852430555557,0)" xlink:href="#aW"/><use transform="matrix(0.010850694444444444,0,0,0.010850694444444444,106.6840277777778,0)" xlink:href="#aX"/></g><path d="M1060-1016c0 191-128 285-295 323v4c154 18 262 91 313 209 14 35 21 72 21 110 0 277-194 390-478 390-292 0-457-129-493-382l186-17c24 161 121 250 307 250 172 1 298-80 291-247-8-208-220-239-446-233v-156c217 9 409-34 409-232 0-152-102-225-264-225-159 0-264 88-278 233l-181-14c33-239 196-367 461-367 264 0 447 102 447 354" id="bE"/><g id="D"><use transform="matrix(0.010850694444444444,0,0,0.010850694444444444,0,0)" xlink:href="#bw"/><use transform="matrix(0.010850694444444444,0,0,0.010850694444444444,13.335503472222221,0)" xlink:href="#bE"/></g><path d="M648-963c-190 6-283 138-283 336V0H185v-1484h181c-2 197 6 404-9 587h3c62-120 159-205 339-205 242 0 351 135 350 381V0H868v-695c1-168-57-273-220-268" id="bF"/><g id="E"><use transform="matrix(0.010850694444444444,0,0,0.010850694444444444,0,0)" xlink:href="#bD"/><use transform="matrix(0.010850694444444444,0,0,0.010850694444444444,13.335503472222221,0)" xlink:href="#bF"/><use transform="matrix(0.010850694444444444,0,0,0.010850694444444444,26.671006944444443,0)" xlink:href="#bi"/><use transform="matrix(0.010850694444444444,0,0,0.010850694444444444,40.006510416666664,0)" xlink:href="#aZ"/><use transform="matrix(0.010850694444444444,0,0,0.010850694444444444,53.342013888888886,0)" xlink:href="#bt"/><use transform="matrix(0.010850694444444444,0,0,0.010850694444444444,66.67751736111111,0)" xlink:href="#aR"/><use transform="matrix(0.010850694444444444,0,0,0.010850694444444444,80.01302083333334,0)" xlink:href="#aX"/></g><g id="F"><use transform="matrix(0.010850694444444444,0,0,0.010850694444444444,0,0)" xlink:href="#ba"/><use transform="matrix(0.010850694444444444,0,0,0.010850694444444444,13.335503472222221,0)" xlink:href="#bt"/><use transform="matrix(0.010850694444444444,0,0,0.010850694444444444,26.671006944444443,0)" xlink:href="#bt"/><use transform="matrix(0.010850694444444444,0,0,0.010850694444444444,40.006510416666664,0)" xlink:href="#aR"/><use transform="matrix(0.010850694444444444,0,0,0.010850694444444444,53.342013888888886,0)" xlink:href="#aT"/><use transform="matrix(0.010850694444444444,0,0,0.010850694444444444,66.67751736111111,0)" xlink:href="#aW"/></g><g id="G"><use transform="matrix(0.010850694444444444,0,0,0.010850694444444444,0,0)" xlink:href="#aW"/><use transform="matrix(0.010850694444444444,0,0,0.010850694444444444,13.335503472222221,0)" xlink:href="#bi"/><use transform="matrix(0.010850694444444444,0,0,0.010850694444444444,26.671006944444443,0)" xlink:href="#be"/><use transform="matrix(0.010850694444444444,0,0,0.010850694444444444,40.006510416666664,0)" xlink:href="#aR"/><use transform="matrix(0.010850694444444444,0,0,0.010850694444444444,53.342013888888886,0)" xlink:href="#ba"/><use transform="matrix(0.010850694444444444,0,0,0.010850694444444444,66.67751736111111,0)" xlink:href="#aU"/><use transform="matrix(0.010850694444444444,0,0,0.010850694444444444,80.01302083333334,0)" xlink:href="#aU"/><use transform="matrix(0.010850694444444444,0,0,0.010850694444444444,93.34852430555557,0)" xlink:href="#bi"/><use transform="matrix(0.010850694444444444,0,0,0.010850694444444444,106.6840277777778,0)" xlink:href="#bt"/><use transform="matrix(0.010850694444444444,0,0,0.010850694444444444,120.01953125000003,0)" xlink:href="#aV"/><use transform="matrix(0.010850694444444444,0,0,0.010850694444444444,133.35503472222226,0)" xlink:href="#aW"/><use transform="matrix(0.010850694444444444,0,0,0.010850694444444444,146.69053819444449,0)" xlink:href="#aR"/><use transform="matrix(0.010850694444444444,0,0,0.010850694444444444,160.0260416666667,0)" xlink:href="#bv"/><use transform="matrix(0.010850694444444444,0,0,0.010850694444444444,173.36154513888894,0)" xlink:href="#aX"/></g><g id="H"><use transform="matrix(0.010850694444444444,0,0,0.010850694444444444,0,0)" xlink:href="#bw"/><use transform="matrix(0.010850694444444444,0,0,0.010850694444444444,13.335503472222221,0)" xlink:href="#bh"/></g><g id="I"><use transform="matrix(0.010850694444444444,0,0,0.010850694444444444,0,0)" xlink:href="#ba"/><use transform="matrix(0.010850694444444444,0,0,0.010850694444444444,13.335503472222221,0)" xlink:href="#bt"/><use transform="matrix(0.010850694444444444,0,0,0.010850694444444444,26.671006944444443,0)" xlink:href="#aW"/><use transform="matrix(0.010850694444444444,0,0,0.010850694444444444,40.006510416666664,0)" xlink:href="#bi"/><use transform="matrix(0.010850694444444444,0,0,0.010850694444444444,53.342013888888886,0)" xlink:href="#bd"/><use transform="matrix(0.010850694444444444,0,0,0.010850694444444444,66.67751736111111,0)" xlink:href="#bb"/><use transform="matrix(0.010850694444444444,0,0,0.010850694444444444,80.01302083333334,0)" xlink:href="#aX"/></g><path d="M1121-976c0 225-142 341-344 379L1177 0H957L591-575H353V0H162v-1349h482c281 3 477 100 477 373zM633-726c181-1 296-73 296-247 0-149-101-223-304-223H353v470h280" id="bG"/><g id="J"><use transform="matrix(0.010850694444444444,0,0,0.010850694444444444,0,0)" xlink:href="#bG"/><use transform="matrix(0.010850694444444444,0,0,0.010850694444444444,13.335503472222221,0)" xlink:href="#aR"/><use transform="matrix(0.010850694444444444,0,0,0.010850694444444444,26.671006944444443,0)" xlink:href="#bb"/><use transform="matrix(0.010850694444444444,0,0,0.010850694444444444,40.006510416666664,0)" xlink:href="#bc"/><use transform="matrix(0.010850694444444444,0,0,0.010850694444444444,53.342013888888886,0)" xlink:href="#aU"/><use transform="matrix(0.010850694444444444,0,0,0.010850694444444444,66.67751736111111,0)" xlink:href="#aW"/><use transform="matrix(0.010850694444444444,0,0,0.010850694444444444,80.01302083333334,0)" xlink:href="#aX"/></g><path d="M937-319V0H757v-319H103v-140l635-890h199v888h188v142H937zm-180-835L257-461h500v-693" id="bH"/><g id="K"><use transform="matrix(0.010850694444444444,0,0,0.010850694444444444,0,0)" xlink:href="#bw"/><use transform="matrix(0.010850694444444444,0,0,0.010850694444444444,13.335503472222221,0)" xlink:href="#bH"/></g><path d="M839-1335c-182-6-269 67-259 253h491v142H580V0H400v-940H138v-142h262c-15-293 132-408 418-402 94 2 200 7 281 21v145c-75-10-177-14-260-17" id="bI"/><g id="L"><use transform="matrix(0.010850694444444444,0,0,0.010850694444444444,0,0)" xlink:href="#aQ"/><use transform="matrix(0.010850694444444444,0,0,0.010850694444444444,13.335503472222221,0)" xlink:href="#bd"/><use transform="matrix(0.010850694444444444,0,0,0.010850694444444444,26.671006944444443,0)" xlink:href="#aV"/><use transform="matrix(0.010850694444444444,0,0,0.010850694444444444,40.006510416666664,0)" xlink:href="#bf"/><use transform="matrix(0.010850694444444444,0,0,0.010850694444444444,53.342013888888886,0)" xlink:href="#bb"/><use transform="matrix(0.010850694444444444,0,0,0.010850694444444444,66.67751736111111,0)" xlink:href="#bI"/><use transform="matrix(0.010850694444444444,0,0,0.010850694444444444,80.01302083333334,0)" xlink:href="#aR"/><use transform="matrix(0.010850694444444444,0,0,0.010850694444444444,93.34852430555557,0)" xlink:href="#bd"/></g><g id="M"><use transform="matrix(0.010850694444444444,0,0,0.010850694444444444,0,0)" xlink:href="#bf"/><use transform="matrix(0.010850694444444444,0,0,0.010850694444444444,13.335503472222221,0)" xlink:href="#aR"/><use transform="matrix(0.010850694444444444,0,0,0.010850694444444444,26.671006944444443,0)" xlink:href="#bj"/><use transform="matrix(0.010850694444444444,0,0,0.010850694444444444,40.006510416666664,0)" xlink:href="#bp"/><use transform="matrix(0.010850694444444444,0,0,0.010850694444444444,53.342013888888886,0)" xlink:href="#bj"/><use transform="matrix(0.010850694444444444,0,0,0.010850694444444444,66.67751736111111,0)" xlink:href="#bf"/><use transform="matrix(0.010850694444444444,0,0,0.010850694444444444,80.01302083333334,0)" xlink:href="#aR"/><use transform="matrix(0.010850694444444444,0,0,0.010850694444444444,93.34852430555557,0)" xlink:href="#bd"/><use transform="matrix(0.010850694444444444,0,0,0.010850694444444444,106.6840277777778,0)" xlink:href="#aX"/></g><path d="M353-779c69-51 166-92 291-90 218 3 357 100 423 255 21 52 32 109 32 170 0 305-189 464-500 464-268 0-424-116-471-335l182-21c35 130 124 212 293 209 198-4 309-114 309-313 0-182-118-282-305-282-120 0-198 45-262 101H169l47-728h801v145H382" id="bJ"/><g id="N"><use transform="matrix(0.010850694444444444,0,0,0.010850694444444444,0,0)" xlink:href="#bw"/><use transform="matrix(0.010850694444444444,0,0,0.010850694444444444,13.335503472222221,0)" xlink:href="#bJ"/></g><g id="O"><use transform="matrix(0.010850694444444444,0,0,0.010850694444444444,0,0)" xlink:href="#bz"/><use transform="matrix(0.010850694444444444,0,0,0.010850694444444444,13.335503472222221,0)" xlink:href="#bA"/><use transform="matrix(0.010850694444444444,0,0,0.010850694444444444,26.671006944444443,0)" xlink:href="#aG"/><use transform="matrix(0.010850694444444444,0,0,0.010850694444444444,40.006510416666664,0)" xlink:href="#aF"/><use transform="matrix(0.010850694444444444,0,0,0.010850694444444444,53.342013888888886,0)" xlink:href="#aM"/><use transform="matrix(0.010850694444444444,0,0,0.010850694444444444,66.67751736111111,0)" xlink:href="#bB"/><use transform="matrix(0.010850694444444444,0,0,0.010850694444444444,80.01302083333334,0)" xlink:href="#bC"/><use transform="matrix(0.010850694444444444,0,0,0.010850694444444444,93.34852430555557,0)" xlink:href="#aG"/></g><g id="Q"><use transform="matrix(0.010850694444444444,0,0,0.010850694444444444,0,0)" xlink:href="#bD"/><use transform="matrix(0.010850694444444444,0,0,0.010850694444444444,13.335503472222221,0)" xlink:href="#bi"/><use transform="matrix(0.010850694444444444,0,0,0.010850694444444444,26.671006944444443,0)" xlink:href="#bf"/><use transform="matrix(0.010850694444444444,0,0,0.010850694444444444,40.006510416666664,0)" xlink:href="#aW"/><use transform="matrix(0.010850694444444444,0,0,0.010850694444444444,53.342013888888886,0)" xlink:href="#bd"/><use transform="matrix(0.010850694444444444,0,0,0.010850694444444444,66.67751736111111,0)" xlink:href="#aV"/><use transform="matrix(0.010850694444444444,0,0,0.010850694444444444,80.01302083333334,0)" xlink:href="#bt"/><use transform="matrix(0.010850694444444444,0,0,0.010850694444444444,93.34852430555557,0)" xlink:href="#aW"/><use transform="matrix(0.010850694444444444,0,0,0.010850694444444444,106.6840277777778,0)" xlink:href="#aX"/></g><g id="R"><use transform="matrix(0.010850694444444444,0,0,0.010850694444444444,0,0)" xlink:href="#bw"/><use transform="matrix(0.010850694444444444,0,0,0.010850694444444444,13.335503472222221,0)" xlink:href="#bH"/></g><g id="S"><use transform="matrix(0.010850694444444444,0,0,0.010850694444444444,0,0)" xlink:href="#aQ"/><use transform="matrix(0.010850694444444444,0,0,0.010850694444444444,13.335503472222221,0)" xlink:href="#aR"/><use transform="matrix(0.010850694444444444,0,0,0.010850694444444444,26.671006944444443,0)" xlink:href="#aS"/><use transform="matrix(0.010850694444444444,0,0,0.010850694444444444,40.006510416666664,0)" xlink:href="#aT"/><use transform="matrix(0.010850694444444444,0,0,0.010850694444444444,53.342013888888886,0)" xlink:href="#aU"/><use transform="matrix(0.010850694444444444,0,0,0.010850694444444444,66.67751736111111,0)" xlink:href="#aV"/><use transform="matrix(0.010850694444444444,0,0,0.010850694444444444,80.01302083333334,0)" xlink:href="#aW"/><use transform="matrix(0.010850694444444444,0,0,0.010850694444444444,93.34852430555557,0)" xlink:href="#aR"/><use transform="matrix(0.010850694444444444,0,0,0.010850694444444444,106.6840277777778,0)" xlink:href="#aX"/></g><g id="T"><use transform="matrix(0.010850694444444444,0,0,0.010850694444444444,0,0)" xlink:href="#aY"/><use transform="matrix(0.010850694444444444,0,0,0.010850694444444444,13.335503472222221,0)" xlink:href="#aZ"/><use transform="matrix(0.010850694444444444,0,0,0.010850694444444444,26.671006944444443,0)" xlink:href="#aS"/><use transform="matrix(0.010850694444444444,0,0,0.010850694444444444,40.006510416666664,0)" xlink:href="#aT"/><use transform="matrix(0.010850694444444444,0,0,0.010850694444444444,53.342013888888886,0)" xlink:href="#aU"/><use transform="matrix(0.010850694444444444,0,0,0.010850694444444444,66.67751736111111,0)" xlink:href="#aR"/><use transform="matrix(0.010850694444444444,0,0,0.010850694444444444,80.01302083333334,0)" xlink:href="#bn"/><use transform="matrix(0.010850694444444444,0,0,0.010850694444444444,93.34852430555557,0)" xlink:href="#bq"/><use transform="matrix(0.010850694444444444,0,0,0.010850694444444444,106.6840277777778,0)" xlink:href="#aT"/></g><g id="U"><use transform="matrix(0.010850694444444444,0,0,0.010850694444444444,0,0)" xlink:href="#bD"/><use transform="matrix(0.010850694444444444,0,0,0.010850694444444444,13.335503472222221,0)" xlink:href="#bF"/><use transform="matrix(0.010850694444444444,0,0,0.010850694444444444,26.671006944444443,0)" xlink:href="#bi"/><use transform="matrix(0.010850694444444444,0,0,0.010850694444444444,40.006510416666664,0)" xlink:href="#aZ"/><use transform="matrix(0.010850694444444444,0,0,0.010850694444444444,53.342013888888886,0)" xlink:href="#bt"/><use transform="matrix(0.010850694444444444,0,0,0.010850694444444444,66.67751736111111,0)" xlink:href="#aR"/><use transform="matrix(0.010850694444444444,0,0,0.010850694444444444,80.01302083333334,0)" xlink:href="#aX"/></g><g id="V"><use transform="matrix(0.010850694444444444,0,0,0.010850694444444444,0,0)" xlink:href="#aY"/><use transform="matrix(0.010850694444444444,0,0,0.010850694444444444,13.335503472222221,0)" xlink:href="#aR"/><use transform="matrix(0.010850694444444444,0,0,0.010850694444444444,26.671006944444443,0)" xlink:href="#aW"/><use transform="matrix(0.010850694444444444,0,0,0.010850694444444444,40.006510416666664,0)" xlink:href="#aW"/><use transform="matrix(0.010850694444444444,0,0,0.010850694444444444,53.342013888888886,0)" xlink:href="#aU"/><use transform="matrix(0.010850694444444444,0,0,0.010850694444444444,66.67751736111111,0)" xlink:href="#aR"/></g><g id="X"><use transform="matrix(0.010850694444444444,0,0,0.010850694444444444,0,0)" xlink:href="#aV"/><use transform="matrix(0.010850694444444444,0,0,0.010850694444444444,13.335503472222221,0)" xlink:href="#bt"/><use transform="matrix(0.010850694444444444,0,0,0.010850694444444444,26.671006944444443,0)" xlink:href="#aW"/><use transform="matrix(0.010850694444444444,0,0,0.010850694444444444,40.006510416666664,0)" xlink:href="#bi"/><use transform="matrix(0.010850694444444444,0,0,0.010850694444444444,53.342013888888886,0)" xlink:href="#bd"/><use transform="matrix(0.010850694444444444,0,0,0.010850694444444444,66.67751736111111,0)" xlink:href="#aX"/></g><g id="Y"><use transform="matrix(0.010850694444444444,0,0,0.010850694444444444,0,0)" xlink:href="#be"/><use transform="matrix(0.010850694444444444,0,0,0.010850694444444444,13.335503472222221,0)" xlink:href="#bi"/><use transform="matrix(0.010850694444444444,0,0,0.010850694444444444,26.671006944444443,0)" xlink:href="#bk"/></g><g id="Z"><use transform="matrix(0.010850694444444444,0,0,0.010850694444444444,0,0)" xlink:href="#ba"/><use transform="matrix(0.010850694444444444,0,0,0.010850694444444444,13.335503472222221,0)" xlink:href="#bt"/><use transform="matrix(0.010850694444444444,0,0,0.010850694444444444,26.671006944444443,0)" xlink:href="#aW"/><use transform="matrix(0.010850694444444444,0,0,0.010850694444444444,40.006510416666664,0)" xlink:href="#bi"/><use transform="matrix(0.010850694444444444,0,0,0.010850694444444444,53.342013888888886,0)" xlink:href="#bd"/><use transform="matrix(0.010850694444444444,0,0,0.010850694444444444,66.67751736111111,0)" xlink:href="#bb"/><use transform="matrix(0.010850694444444444,0,0,0.010850694444444444,80.01302083333334,0)" xlink:href="#aX"/></g><g id="aa"><use transform="matrix(0.010850694444444444,0,0,0.010850694444444444,0,0)" xlink:href="#bG"/><use transform="matrix(0.010850694444444444,0,0,0.010850694444444444,13.335503472222221,0)" xlink:href="#aR"/><use transform="matrix(0.010850694444444444,0,0,0.010850694444444444,26.671006944444443,0)" xlink:href="#bb"/><use transform="matrix(0.010850694444444444,0,0,0.010850694444444444,40.006510416666664,0)" xlink:href="#bc"/><use transform="matrix(0.010850694444444444,0,0,0.010850694444444444,53.342013888888886,0)" xlink:href="#aU"/><use transform="matrix(0.010850694444444444,0,0,0.010850694444444444,66.67751736111111,0)" xlink:href="#aW"/><use transform="matrix(0.010850694444444444,0,0,0.010850694444444444,80.01302083333334,0)" xlink:href="#aX"/></g><path d="M891-1484c-201 251-362 514-362 954 0 441 161 704 362 955H701C500 176 342-90 342-532c0-440 159-704 359-952h190" id="bK"/><path d="M259 363l169-662h265L382 363H259" id="bL"/><g id="ab"><use transform="matrix(0.010850694444444444,0,0,0.010850694444444444,0,0)" xlink:href="#bK"/><use transform="matrix(0.010850694444444444,0,0,0.010850694444444444,13.335503472222221,0)" xlink:href="#bw"/><use transform="matrix(0.010850694444444444,0,0,0.010850694444444444,26.671006944444443,0)" xlink:href="#bJ"/><use transform="matrix(0.010850694444444444,0,0,0.010850694444444444,40.006510416666664,0)" xlink:href="#bL"/></g><path d="M528-1484c201 248 357 511 357 952 0 442-156 709-357 957H336C537 174 700-89 700-530c0-440-163-703-364-954h192" id="bM"/><g id="ac"><use transform="matrix(0.010850694444444444,0,0,0.010850694444444444,0,0)" xlink:href="#bw"/><use transform="matrix(0.010850694444444444,0,0,0.010850694444444444,13.335503472222221,0)" xlink:href="#bh"/><use transform="matrix(0.010850694444444444,0,0,0.010850694444444444,26.671006944444443,0)" xlink:href="#bM"/></g><g id="ad"><use transform="matrix(0.010850694444444444,0,0,0.010850694444444444,0,0)" xlink:href="#aE"/><use transform="matrix(0.010850694444444444,0,0,0.010850694444444444,13.335503472222221,0)" xlink:href="#aF"/><use transform="matrix(0.010850694444444444,0,0,0.010850694444444444,26.671006944444443,0)" xlink:href="#aG"/><use transform="matrix(0.010850694444444444,0,0,0.010850694444444444,40.006510416666664,0)" xlink:href="#aH"/><use transform="matrix(0.010850694444444444,0,0,0.010850694444444444,53.342013888888886,0)" xlink:href="#aI"/><use transform="matrix(0.010850694444444444,0,0,0.010850694444444444,66.67751736111111,0)" xlink:href="#aG"/></g><g id="ae"><use transform="matrix(0.010850694444444444,0,0,0.010850694444444444,0,0)" xlink:href="#aJ"/><use transform="matrix(0.010850694444444444,0,0,0.010850694444444444,13.335503472222221,0)" xlink:href="#aE"/><use transform="matrix(0.010850694444444444,0,0,0.010850694444444444,26.671006944444443,0)" xlink:href="#aK"/><use transform="matrix(0.010850694444444444,0,0,0.010850694444444444,40.006510416666664,0)" xlink:href="#aL"/><use transform="matrix(0.010850694444444444,0,0,0.010850694444444444,53.342013888888886,0)" xlink:href="#aI"/><use transform="matrix(0.010850694444444444,0,0,0.010850694444444444,66.67751736111111,0)" xlink:href="#aF"/><use transform="matrix(0.010850694444444444,0,0,0.010850694444444444,80.01302083333334,0)" xlink:href="#aH"/><use transform="matrix(0.010850694444444444,0,0,0.010850694444444444,93.34852430555557,0)" xlink:href="#aM"/><use transform="matrix(0.010850694444444444,0,0,0.010850694444444444,106.6840277777778,0)" xlink:href="#aI"/></g><path d="M426-814c58-49 145-93 255-90 282 8 442 169 442 450 0 312-203 474-522 474-288 0-453-130-497-372l281-23c24 104 89 172 219 172 153 0 230-91 230-245 0-144-78-226-224-229-94-2-148 42-191 91H145l49-763h847v209H449" id="bN"/><g id="af"><use transform="matrix(0.010850694444444444,0,0,0.010850694444444444,0,0)" xlink:href="#aN"/><use transform="matrix(0.010850694444444444,0,0,0.010850694444444444,13.335503472222221,0)" xlink:href="#bN"/><use transform="matrix(0.010850694444444444,0,0,0.010850694444444444,26.671006944444443,0)" xlink:href="#aP"/></g><g id="ag"><use transform="matrix(0.010850694444444444,0,0,0.010850694444444444,0,0)" xlink:href="#be"/><use transform="matrix(0.010850694444444444,0,0,0.010850694444444444,13.335503472222221,0)" xlink:href="#aV"/><use transform="matrix(0.010850694444444444,0,0,0.010850694444444444,26.671006944444443,0)" xlink:href="#bf"/><use transform="matrix(0.010850694444444444,0,0,0.010850694444444444,40.006510416666664,0)" xlink:href="#bg"/><use transform="matrix(0.010850694444444444,0,0,0.010850694444444444,53.342013888888886,0)" xlink:href="#bl"/></g><path d="M162 0v-1349h919v156H353v422h668v154H353v461h769V0H162" id="bO"/><g id="ah"><use transform="matrix(0.010850694444444444,0,0,0.010850694444444444,0,0)" xlink:href="#bO"/><use transform="matrix(0.010850694444444444,0,0,0.010850694444444444,13.335503472222221,0)" xlink:href="#bm"/><use transform="matrix(0.010850694444444444,0,0,0.010850694444444444,26.671006944444443,0)" xlink:href="#bG"/></g><path d="M462-1121v384h621v228H462V0H167v-1349h939v228H462" id="bP"/><path d="M424-1484c-2 206 5 424-8 618h4c67-145 160-234 348-236 251-3 335 167 336 416V0H824v-621c0-150-23-276-173-270-163 7-227 142-227 312V0H143v-1484h281" id="bQ"/><g id="ai"><use transform="matrix(0.010850694444444444,0,0,0.010850694444444444,0,0)" xlink:href="#bP"/><use transform="matrix(0.010850694444444444,0,0,0.010850694444444444,13.335503472222221,0)" xlink:href="#aG"/><use transform="matrix(0.010850694444444444,0,0,0.010850694444444444,26.671006944444443,0)" xlink:href="#aI"/><use transform="matrix(0.010850694444444444,0,0,0.010850694444444444,40.006510416666664,0)" xlink:href="#aM"/><use transform="matrix(0.010850694444444444,0,0,0.010850694444444444,53.342013888888886,0)" xlink:href="#bQ"/></g><g id="aj"><use transform="matrix(0.010850694444444444,0,0,0.010850694444444444,0,0)" xlink:href="#bw"/><use transform="matrix(0.010850694444444444,0,0,0.010850694444444444,13.335503472222221,0)" xlink:href="#bh"/></g><path d="M138-1120c207-4 339-93 415-229h266v1140h323V0H149v-209h389v-891c-70 121-216 187-400 194v-214" id="bR"/><g id="ak"><use transform="matrix(0.010850694444444444,0,0,0.010850694444444444,0,0)" xlink:href="#aN"/><use transform="matrix(0.010850694444444444,0,0,0.010850694444444444,13.335503472222221,0)" xlink:href="#bR"/><use transform="matrix(0.010850694444444444,0,0,0.010850694444444444,26.671006944444443,0)" xlink:href="#aP"/></g><g id="al"><use transform="matrix(0.010850694444444444,0,0,0.010850694444444444,0,0)" xlink:href="#ba"/><use transform="matrix(0.010850694444444444,0,0,0.010850694444444444,13.335503472222221,0)" xlink:href="#aU"/><use transform="matrix(0.010850694444444444,0,0,0.010850694444444444,26.671006944444443,0)" xlink:href="#aZ"/><use transform="matrix(0.010850694444444444,0,0,0.010850694444444444,40.006510416666664,0)" xlink:href="#bt"/><use transform="matrix(0.010850694444444444,0,0,0.010850694444444444,53.342013888888886,0)" xlink:href="#aR"/></g><path d="M980-287V0H712v-287H71v-211l595-851h314v853h188v209H980zM712-496c2-204-7-417 9-609-118 224-277 405-414 609h405" id="bS"/><g id="am"><use transform="matrix(0.010850694444444444,0,0,0.010850694444444444,0,0)" xlink:href="#aN"/><use transform="matrix(0.010850694444444444,0,0,0.010850694444444444,13.335503472222221,0)" xlink:href="#bS"/><use transform="matrix(0.010850694444444444,0,0,0.010850694444444444,26.671006944444443,0)" xlink:href="#aP"/></g><g id="an"><use transform="matrix(0.010850694444444444,0,0,0.010850694444444444,0,0)" xlink:href="#aY"/><use transform="matrix(0.010850694444444444,0,0,0.010850694444444444,13.335503472222221,0)" xlink:href="#aZ"/><use transform="matrix(0.010850694444444444,0,0,0.010850694444444444,26.671006944444443,0)" xlink:href="#aS"/><use transform="matrix(0.010850694444444444,0,0,0.010850694444444444,40.006510416666664,0)" xlink:href="#aT"/><use transform="matrix(0.010850694444444444,0,0,0.010850694444444444,53.342013888888886,0)" xlink:href="#aU"/><use transform="matrix(0.010850694444444444,0,0,0.010850694444444444,66.67751736111111,0)" xlink:href="#aR"/><use transform="matrix(0.010850694444444444,0,0,0.010850694444444444,80.01302083333334,0)" xlink:href="#bn"/><use transform="matrix(0.010850694444444444,0,0,0.010850694444444444,93.34852430555557,0)" xlink:href="#bq"/><use transform="matrix(0.010850694444444444,0,0,0.010850694444444444,106.6840277777778,0)" xlink:href="#bs"/></g><g id="ao"><use transform="matrix(0.010850694444444444,0,0,0.010850694444444444,0,0)" xlink:href="#aT"/><use transform="matrix(0.010850694444444444,0,0,0.010850694444444444,13.335503472222221,0)" xlink:href="#aV"/><use transform="matrix(0.010850694444444444,0,0,0.010850694444444444,26.671006944444443,0)" xlink:href="#bd"/><use transform="matrix(0.010850694444444444,0,0,0.010850694444444444,40.006510416666664,0)" xlink:href="#aW"/><use transform="matrix(0.010850694444444444,0,0,0.010850694444444444,53.342013888888886,0)" xlink:href="#bu"/><use transform="matrix(0.010850694444444444,0,0,0.010850694444444444,66.67751736111111,0)" xlink:href="#bl"/><use transform="matrix(0.010850694444444444,0,0,0.010850694444444444,80.01302083333334,0)" xlink:href="#aX"/></g><g id="ap"><use transform="matrix(0.010850694444444444,0,0,0.010850694444444444,0,0)" xlink:href="#aT"/><use transform="matrix(0.010850694444444444,0,0,0.010850694444444444,13.335503472222221,0)" xlink:href="#aV"/><use transform="matrix(0.010850694444444444,0,0,0.010850694444444444,26.671006944444443,0)" xlink:href="#bd"/><use transform="matrix(0.010850694444444444,0,0,0.010850694444444444,40.006510416666664,0)" xlink:href="#aW"/><use transform="matrix(0.010850694444444444,0,0,0.010850694444444444,53.342013888888886,0)" xlink:href="#bu"/><use transform="matrix(0.010850694444444444,0,0,0.010850694444444444,66.67751736111111,0)" xlink:href="#bh"/><use transform="matrix(0.010850694444444444,0,0,0.010850694444444444,80.01302083333334,0)" xlink:href="#aX"/></g><g id="aq"><use transform="matrix(0.010850694444444444,0,0,0.010850694444444444,0,0)" xlink:href="#aV"/><use transform="matrix(0.010850694444444444,0,0,0.010850694444444444,13.335503472222221,0)" xlink:href="#bb"/><use transform="matrix(0.010850694444444444,0,0,0.010850694444444444,26.671006944444443,0)" xlink:href="#bb"/><use transform="matrix(0.010850694444444444,0,0,0.010850694444444444,40.006510416666664,0)" xlink:href="#aR"/><use transform="matrix(0.010850694444444444,0,0,0.010850694444444444,53.342013888888886,0)" xlink:href="#aW"/><use transform="matrix(0.010850694444444444,0,0,0.010850694444444444,66.67751736111111,0)" xlink:href="#bl"/><use transform="matrix(0.010850694444444444,0,0,0.010850694444444444,80.01302083333334,0)" xlink:href="#aX"/></g><g id="ar"><use transform="matrix(0.010850694444444444,0,0,0.010850694444444444,0,0)" xlink:href="#aV"/><use transform="matrix(0.010850694444444444,0,0,0.010850694444444444,13.335503472222221,0)" xlink:href="#bb"/><use transform="matrix(0.010850694444444444,0,0,0.010850694444444444,26.671006944444443,0)" xlink:href="#bb"/><use transform="matrix(0.010850694444444444,0,0,0.010850694444444444,40.006510416666664,0)" xlink:href="#aR"/><use transform="matrix(0.010850694444444444,0,0,0.010850694444444444,53.342013888888886,0)" xlink:href="#aW"/><use transform="matrix(0.010850694444444444,0,0,0.010850694444444444,66.67751736111111,0)" xlink:href="#bh"/><use transform="matrix(0.010850694444444444,0,0,0.010850694444444444,80.01302083333334,0)" xlink:href="#aX"/></g><g id="as"><use transform="matrix(0.010850694444444444,0,0,0.010850694444444444,0,0)" xlink:href="#ba"/><use transform="matrix(0.010850694444444444,0,0,0.010850694444444444,13.335503472222221,0)" xlink:href="#aU"/><use transform="matrix(0.010850694444444444,0,0,0.010850694444444444,26.671006944444443,0)" xlink:href="#aZ"/><use transform="matrix(0.010850694444444444,0,0,0.010850694444444444,40.006510416666664,0)" xlink:href="#bt"/><use transform="matrix(0.010850694444444444,0,0,0.010850694444444444,53.342013888888886,0)" xlink:href="#aR"/><use transform="matrix(0.010850694444444444,0,0,0.010850694444444444,66.67751736111111,0)" xlink:href="#bL"/></g><path fill="#d916a8" d="M52 0l541-1490h220L1361 0h-200l-149-416H398L254 0H52zm404-582h497c-103-290-145-390-251-756-108 377-145 460-246 756" id="bT"/><path fill="#d916a8" d="M338-1490V0H158v-1490h180" id="bU"/><path fill="#d916a8" d="M158 0v-1118h180V0H158zm91-1301c-68 0-125-53-125-119s57-119 125-119c69 0 126 53 126 119s-57 119-126 119" id="bV"/><path fill="#d916a8" d="M613 24c-304 0-509-231-509-576 0-350 205-580 509-580 216 0 392 114 453 309l-173 49c-33-115-133-197-280-197-223 0-326 196-326 419 0 220 103 415 326 415 150 0 252-85 285-206l172 49C1010-95 832 24 613 24" id="bW"/><path fill="#d916a8" d="M628 24c-324 0-524-230-524-574 0-343 198-582 503-582 237 0 487 146 487 559v75H286c9 234 145 362 343 362 132 0 231-58 273-172l174 48C1024-91 857 24 628 24zM287-650h624c-17-190-120-322-304-322-192 0-309 151-320 322" id="bX"/><g id="at"><use transform="matrix(0.01953125,0,0,0.01953125,0,0)" xlink:href="#bT"/><use transform="matrix(0.01953125,0,0,0.01953125,27.59765625,0)" xlink:href="#bU"/><use transform="matrix(0.01953125,0,0,0.01953125,37.28515625,0)" xlink:href="#bV"/><use transform="matrix(0.01953125,0,0,0.01953125,46.97265625,0)" xlink:href="#bW"/><use transform="matrix(0.01953125,0,0,0.01953125,69.82421875,0)" xlink:href="#bX"/></g><path fill="#d916a8" d="M158 0v-1118h174v172h12c41-113 157-188 290-188 26 0 70 2 91 3v181c-11-2-60-10-108-10-161 0-279 109-279 260V0H158" id="bY"/><path fill="#d916a8" d="M1096 418H916v-591h-14C865-111 790 24 577 24c-279 0-473-224-473-580 0-354 195-576 474-576 218 0 287 134 324 193h20v-179h174V418zM604-137c203 0 314-172 314-421 0-247-108-413-314-413-212 0-317 181-317 413 0 235 108 421 317 421" id="bZ"/><path fill="#d916a8" d="M537 14c-226 0-379-139-379-422v-710h180v695c0 172 97 275 253 275 160 0 281-109 281-300v-670h181V0H879v-209C806-46 684 14 537 14" id="ca"/><path fill="#d916a8" d="M538 24C308 24 148-78 108-271l171-41c32 123 123 178 257 178 156 0 256-77 256-169 0-77-54-128-164-154l-186-44c-203-48-300-148-300-305 0-192 176-326 414-326 230 0 351 112 402 269l-163 42c-31-80-94-158-238-158-133 0-233 69-233 162 0 83 57 129 188 160l169 40c203 48 298 149 298 302 0 196-179 339-441 339" id="cb"/><path fill="#d916a8" d="M598-1118v154H368v674c0 100 37 144 132 144 23 0 62-6 92-12L629-6c-37 13-88 20-134 20-193 0-307-107-307-290v-688H20v-154h168v-266h180v266h230" id="cc"/><path fill="#d916a8" d="M577 24c-279 0-473-224-473-580 0-354 195-576 474-576 218 0 287 134 324 193h14v-551h180V0H922v-173h-20C865-111 790 24 577 24zm27-161c203 0 314-172 314-421 0-247-108-413-314-413-212 0-317 181-317 413 0 235 108 421 317 421" id="cd"/><g id="au"><use transform="matrix(0.01953125,0,0,0.01953125,0,0)" xlink:href="#bY"/><use transform="matrix(0.01953125,0,0,0.01953125,14.39453125,0)" xlink:href="#bX"/><use transform="matrix(0.01953125,0,0,0.01953125,37.71484375,0)" xlink:href="#bZ"/><use transform="matrix(0.01953125,0,0,0.01953125,62.20703125,0)" xlink:href="#ca"/><use transform="matrix(0.01953125,0,0,0.01953125,85.859375,0)" xlink:href="#bX"/><use transform="matrix(0.01953125,0,0,0.01953125,109.1796875,0)" xlink:href="#cb"/><use transform="matrix(0.01953125,0,0,0.01953125,130.29296875,0)" xlink:href="#cc"/><use transform="matrix(0.01953125,0,0,0.01953125,142.98828125,0)" xlink:href="#bX"/><use transform="matrix(0.01953125,0,0,0.01953125,166.30859375,0)" xlink:href="#cd"/></g><path fill="#d916a8" d="M98-1322v-168h1126v168H757V0H567v-1322H98" id="ce"/><path fill="#d916a8" d="M57 0l534-763-501-727h220c122 187 296 416 391 605 94-191 272-419 396-605h215L811-770 1340 0h-219C986-204 811-426 699-640 588-430 407-202 273 0H57" id="cf"/><g id="av"><use transform="matrix(0.01953125,0,0,0.01953125,0,0)" xlink:href="#ce"/><use transform="matrix(0.01953125,0,0,0.01953125,25.8203125,0)" xlink:href="#cf"/></g><path fill="#d916a8" d="M154 0v-137l495-537c165-179 249-281 249-418 0-156-121-253-280-253-170 0-278 110-278 278H158c0-264 200-443 465-443 266 0 455 183 455 416 0 161-73 288-336 568L416-179v12h687V0H154" id="cg"/><use transform="matrix(0.01953125,0,0,0.01953125,0,0)" xlink:href="#cg" id="aw"/><path fill="#d916a8" d="M180 0v-1490h528c311 0 458 177 458 395 0 191-114 278-244 313v14c139 9 302 137 302 371 0 225-148 397-499 397H180zm190-168h350c232 0 321-102 321-231 0-149-120-277-311-277H370v508zm0-668h328c160 0 286-101 286-255 0-129-87-231-280-231H370v486" id="ch"/><path fill="#d916a8" d="M613 24c-304 0-509-231-509-576 0-350 205-580 509-580 305 0 511 230 511 580 0 345-206 576-511 576zm0-161c226 0 329-195 329-415 0-222-103-419-329-419-223 0-326 196-326 419 0 220 103 415 326 415" id="ci"/><path fill="#d916a8" d="M677 24c-213 0-288-135-325-197h-20V0H158v-1490h180v551h14c37-59 106-193 324-193 279 0 474 222 474 576 0 356-194 580-473 580zm-27-161c209 0 317-186 317-421 0-232-105-413-317-413-206 0-314 166-314 413 0 249 111 421 314 421" id="cj"/><g id="ax"><use transform="matrix(0.01953125,0,0,0.01953125,0,0)" xlink:href="#ch"/><use transform="matrix(0.01953125,0,0,0.01953125,26.171875,0)" xlink:href="#ci"/><use transform="matrix(0.01953125,0,0,0.01953125,50.15625,0)" xlink:href="#cj"/></g><path fill="#d916a8" d="M635 20c-292 0-500-160-510-396h192c11 142 145 229 315 229 187 0 323-105 323-260 0-161-125-274-346-274H488v-165h121c174 0 294-100 294-254 0-148-104-245-266-245-152 0-291 85-297 230H157c8-234 222-395 484-395 278 0 448 188 448 400 0 168-95 291-247 336v12c190 31 301 169 301 357 0 244-216 425-508 425" id="ck"/><use transform="matrix(0.01953125,0,0,0.01953125,0,0)" xlink:href="#ck" id="ay"/><path fill="#d916a8" d="M471 26C259 26 90-98 90-318c0-256 228-303 435-329 202-27 287-16 287-108 0-139-79-219-234-219-161 0-248 86-283 164l-173-57c86-203 278-265 451-265 150 0 419 46 419 395V0H815v-152h-12C765-73 660 26 471 26zm31-159c199 0 310-134 310-271v-155c-30 35-226 55-295 64-131 17-246 59-246 186 0 116 97 176 231 176" id="cl"/><path fill="#d916a8" d="M338-670V0H158v-1118h173l1 207c72-158 192-221 342-221 226 0 378 139 378 422V0H872v-695c0-172-96-275-252-275-161 0-282 109-282 300" id="cm"/><path fill="#d916a8" d="M158 0v-1490h180v865h22l478-493h223L593-638 1096 0H865L456-523 338-412V0H158" id="cn"/><g id="az"><use transform="matrix(0.01953125,0,0,0.01953125,0,0)" xlink:href="#ch"/><use transform="matrix(0.01953125,0,0,0.01953125,26.171875,0)" xlink:href="#cl"/><use transform="matrix(0.01953125,0,0,0.01953125,48.6328125,0)" xlink:href="#cm"/><use transform="matrix(0.01953125,0,0,0.01953125,72.265625,0)" xlink:href="#cn"/><use transform="matrix(0.01953125,0,0,0.01953125,94.21875,0)" xlink:href="#cg"/></g><path fill="#d916a8" d="M653-1490V0H466v-1314h-10L96-1047v-204l324-239h233" id="co"/><use transform="matrix(0.01953125,0,0,0.01953125,0,0)" xlink:href="#co" id="aA"/><g id="aB"><use transform="matrix(0.01953125,0,0,0.01953125,0,0)" xlink:href="#ch"/><use transform="matrix(0.01953125,0,0,0.01953125,26.171875,0)" xlink:href="#cl"/><use transform="matrix(0.01953125,0,0,0.01953125,48.6328125,0)" xlink:href="#cm"/><use transform="matrix(0.01953125,0,0,0.01953125,72.265625,0)" xlink:href="#cn"/><use transform="matrix(0.01953125,0,0,0.01953125,94.21875,0)" xlink:href="#co"/></g><path fill="#d916a8" d="M646 20c-332 0-524-278-524-764 0-483 194-766 524-766s524 283 524 766c0 485-191 764-524 764zm0-166c218 0 341-220 341-598 0-380-123-601-341-601s-341 222-341 601c0 378 123 598 341 598" id="cp"/><use transform="matrix(0.01953125,0,0,0.01953125,0,0)" xlink:href="#cp" id="aC"/><path fill="#d916a8" d="M120-303v-155l652-1032h231v1020h202v167h-202V0H821v-303H120zm702-167v-782h-12L323-482v12h499" id="cq"/><use transform="matrix(0.01953125,0,0,0.01953125,0,0)" xlink:href="#cq" id="aD"/></defs></g></svg>