<svg xmlns="http://www.w3.org/2000/svg" xmlns:xlink="http://www.w3.org/1999/xlink" xmlns:lucid="lucid" width="1553.98" height="560"><g transform="translate(-158.02057371269527 -40)" lucid:page-tab-id="0_0"><path d="M0 0h1760v1360H0z" fill="#fff"/><g class="lucid-layer" lucid:layer-id="L6-ez2dE2id~" display="block"><path d="M200 60h460v460H200z" stroke="#000" stroke-width="2" fill-opacity="0"/><path d="M827.36 230.72l-.27 51.36M823.36 230.7l-.27 51.36" stroke="#000" stroke-width="2" fill="none"/><path d="M828.36 230.75h-2v-1.04h2zM824.36 230.73h-2v-1.02h2z"/><path d="M825 297.34l-4.55-14.3 9.27.06z" stroke="#000" stroke-width="2"/><path d="M726.72 92.03h418.5v32.17h-418.5z" stroke="#000" stroke-opacity="0" stroke-width="2" fill="#fff" fill-opacity="0"/><use xlink:href="#a" transform="matrix(1,0,0,1,731.7159539559891,97.03293067483617) translate(142.30864197530863 17.77777777777778)"/><path d="M964.37 299.6h44.84v63.34h-44.83z" stroke="#000" stroke-opacity="0" stroke-width="2" fill="#fff" fill-opacity="0"/><use xlink:href="#b" transform="matrix(1,0,0,1,969.3671995075905,304.6067703372834) translate(-3.487654320987655 31.444444444444443)"/><path d="M1043.54 230.76L999.8 286.3M1040.4 228.3l-43.74 55.53" stroke="#000" stroke-width="2" fill="none"/><path d="M1044.3 231.4l-1.56-1.23 1.12-1.43h2.55zM1041.17 228.93l-.24-.2h.4z"/><path d="M988.8 297.06l5.17-14.07 7.3 5.72z" stroke="#000" stroke-width="2"/><path d="M888.6 126.22l-47.83 61.68M885.45 123.76l-47.84 61.7" stroke="#000" stroke-width="2" fill="none"/><path d="M889.38 126.85l-1.58-1.23 1.1-1.42h2.54zM886.22 124.4l-.25-.2h.4z"/><path d="M829.84 198.74l5.08-14.12 7.32 5.7z" stroke="#000" stroke-width="2"/><path d="M992 123.88l41.7 60.1M988.7 126.16l41.7 60.1" stroke="#000" stroke-width="2" fill="none"/><path d="M991.18 124.47l-.2-.27h.6zM989.54 125.6l-1.64 1.15-1.77-2.55h2.43z"/><path d="M1040.74 197.67l-11.94-9.08 7.62-5.3z" stroke="#000" stroke-width="2"/><path d="M1009.2 200.33h66.77v28.4h-66.76z" stroke="#000" stroke-opacity="0" stroke-width="2" fill="#fff" fill-opacity="0"/><use xlink:href="#c" transform="matrix(1,0,0,1,1014.2070571588359,205.32779292353314) translate(0 17.77777777777778)"/><path d="M757.5 60H1176v360H757.5z" stroke="#000" stroke-width="2" fill-opacity="0"/><path d="M1378.23 369.42l-.28 60.92M1374.23 369.4l-.28 60.92" stroke="#000" stroke-width="2" fill="none"/><path d="M1379.23 369.45h-2v-1.04h2zM1375.23 369.44h-2v-1.03h2z"/><path d="M1375.88 445.6l-4.57-14.3 9.28.05z" stroke="#000" stroke-width="2"/><path d="M1273.5 112.54H1692v32.17h-418.5z" stroke="#000" stroke-opacity="0" stroke-width="2" fill="#fff" fill-opacity="0"/><use xlink:href="#a" transform="matrix(1,0,0,1,1278.494661921708,117.5390915860014) translate(142.30864197530863 17.77777777777778)"/><path d="M1345.35 340h66.76v28.4h-66.75z" stroke="#000" stroke-opacity="0" stroke-width="2" fill="#fff" fill-opacity="0"/><use xlink:href="#c" transform="matrix(1,0,0,1,1350.3451957295374,345) translate(0 17.77777777777778)"/><path d="M1345.35 448.83h62.52v44.23h-62.52z" stroke="#000" stroke-opacity="0" stroke-width="2" fill="#fff" fill-opacity="0"/><use xlink:href="#d" transform="matrix(1,0,0,1,1350.3451957295376,453.83097542814596) translate(5.512345679012345 21.944444444444443)"/><path d="M1472.8 328.03h44.83v63.33h-44.84z" stroke="#000" stroke-opacity="0" stroke-width="2" fill="#fff" fill-opacity="0"/><use xlink:href="#b" transform="matrix(1,0,0,1,1477.7909122730282,333.025741755427) translate(-3.487654320987655 31.444444444444443)"/><path d="M1491.37 265.93l1.87 43.53M1487.38 266.1l1.86 43.53M1491.37 265.96l-.04-1.03M1487.38 266.13l-.05-1.03" stroke="#000" stroke-width="2" fill="none"/><path d="M1491.9 324.8l-5.25-14.06 9.26-.4z" stroke="#000" stroke-width="2"/><path d="M1426.8 263.93l-25.23 48.9M1423.24 262.1l-25.22 48.9M1426.78 263.96l.47-.92M1423.23 262.12l.47-.9" stroke="#000" stroke-width="2" fill="none"/><path d="M1392.8 325.47l2.42-14.8 8.24 4.25z" stroke="#000" stroke-width="2"/><path d="M1484.73 145.74l-1.03 58.46M1480.73 145.67l-1.02 58.46" stroke="#000" stroke-width="2" fill="none"/><path d="M1485.73 145.78l-2-.03.02-1.04h2zM1481.73 145.7l-2-.02.02-.97h2z"/><path d="M1481.44 219.43l-4.4-14.34 9.28.15z" stroke="#000" stroke-width="2"/><path d="M1432 222.67h66.76v28.4H1432z" stroke="#000" stroke-opacity="0" stroke-width="2" fill="#fff" fill-opacity="0"/><use xlink:href="#c" transform="matrix(1,0,0,1,1437,227.66666666666666) translate(0 17.77777777777778)"/><path d="M1273.5 60H1692v520h-418.5z" stroke="#000" stroke-width="2" fill-opacity="0"/><path d="M1100.38 299.6h44.84v63.34h-44.84z" stroke="#000" stroke-opacity="0" stroke-width="2" fill="#fff" fill-opacity="0"/><use xlink:href="#e" transform="matrix(1,0,0,1,1105.3814343830354,304.6067703372834) translate(-3.487654320987655 31.444444444444443)"/><path d="M1077.44 228.46l36.7 54.67M1074.12 230.7l36.7 54.66" stroke="#000" stroke-width="2" fill="none"/><path d="M1078.28 227.92l-1.66 1.12-.65-.98v-3.43l.07-.05zM1074.96 230.15l-1.66 1.12-1.7-2.53h2.42z"/><path d="M1121 296.92l-11.8-9.26 7.7-5.17z" stroke="#000" stroke-width="2"/><path d="M1577.63 324.5h44.84v63.33h-44.84z" stroke="#000" stroke-opacity="0" stroke-width="2" fill="#fff" fill-opacity="0"/><use xlink:href="#e" transform="matrix(1,0,0,1,1582.6343374851544,329.4945465079368) translate(-3.487654320987655 31.444444444444443)"/><path d="M1541.07 256.38l33.78 51.54M1537.73 258.57l33.77 51.55M1541.1 256.4l-.58-.86M1537.74 258.6l-.56-.87" stroke="#000" stroke-width="2" fill="none"/><path d="M1581.54 321.8l-11.7-9.4 7.76-5.1z" stroke="#000" stroke-width="2"/><path d="M278.66 227.7l-.26 51.38M274.66 227.7l-.26 51.36" stroke="#000" stroke-width="2" fill="none"/><path d="M279.66 227.75l-2-.02v-1.03h2zM275.66 227.72h-2v-1.02h2z"/><path d="M276.32 294.33l-4.56-14.3 9.27.06z" stroke="#000" stroke-width="2"/><path d="M178.02 90h418.5v32.16h-418.5z" stroke="#000" stroke-opacity="0" stroke-width="2" fill="#fff" fill-opacity="0"/><use xlink:href="#f" transform="matrix(1,0,0,1,183.02057371269527,94.99526635573716) translate(142.30864197530863 17.77777777777778)"/><path d="M245.78 198.3h66.76v28.4h-66.76z" stroke="#000" stroke-opacity="0" stroke-width="2" fill="#fff" fill-opacity="0"/><use xlink:href="#g" transform="matrix(1,0,0,1,250.7785808301328,203.29012860443413) translate(0 17.77777777777778)"/><path d="M245.78 297.57h62.53v63.33H245.8z" stroke="#000" stroke-opacity="0" stroke-width="2" fill="#fff" fill-opacity="0"/><use xlink:href="#d" transform="matrix(1,0,0,1,250.7785808301329,302.56910601818447) translate(5.512345679012345 31.444444444444443)"/><path d="M415.67 297.57h44.84v63.33h-44.83z" stroke="#000" stroke-opacity="0" stroke-width="2" fill="#fff" fill-opacity="0"/><use xlink:href="#b" transform="matrix(1,0,0,1,420.67181926429663,302.5691060181844) translate(-3.487654320987655 31.444444444444443)"/><path d="M494.85 228.73l-43.74 55.54M491.7 226.25l-43.73 55.55" stroke="#000" stroke-width="2" fill="none"/><path d="M495.6 229.37l-1.56-1.24 1.13-1.43h2.54zM492.47 226.9l-.24-.2h.4z"/><path d="M440.1 295.03l5.18-14.08 7.28 5.74z" stroke="#000" stroke-width="2"/><path d="M339.9 124.18l-47.74 60.8M336.76 121.7L289 182.5" stroke="#000" stroke-width="2" fill="none"/><path d="M340.67 124.82l-1.57-1.23 1.12-1.44h2.54zM337.53 122.35l-.24-.2h.37z"/><path d="M281.16 195.75l5.16-14.1 7.3 5.74z" stroke="#000" stroke-width="2"/><path d="M443.3 121.84l41.7 60.1M440 124.12l41.7 60.1" stroke="#000" stroke-width="2" fill="none"/><path d="M442.5 122.43l-.2-.27h.58zM440.84 123.57l-1.64 1.14-1.77-2.54h2.43z"/><path d="M492.05 195.63l-11.94-9.08 7.63-5.28z" stroke="#000" stroke-width="2"/><path d="M460.5 198.3h66.77v28.4H460.5z" stroke="#000" stroke-opacity="0" stroke-width="2" fill="#fff" fill-opacity="0"/><use xlink:href="#g" transform="matrix(1,0,0,1,465.511676915542,203.29012860443413) translate(0 17.77777777777778)"/><path d="M528.74 226.42l36.7 54.67M525.42 228.65l36.7 54.67" stroke="#000" stroke-width="2" fill="none"/><path d="M529.6 225.88l-1.67 1.12-.66-.98v-3.43l.07-.06zM526.27 228.1l-1.66 1.13-1.7-2.53h2.42z"/><path d="M572.3 294.88l-11.8-9.26 7.7-5.17z" stroke="#000" stroke-width="2"/><path d="M794.47 201.3h66.77v28.4h-66.77z" stroke="#000" stroke-opacity="0" stroke-width="2" fill="#fff" fill-opacity="0"/><use xlink:href="#c" transform="matrix(1,0,0,1,799.4739610734266,206.29552685254777) translate(0 17.77777777777778)"/><path d="M794.47 300.57H857v63.34h-62.53z" stroke="#000" stroke-opacity="0" stroke-width="2" fill="#fff" fill-opacity="0"/><use xlink:href="#d" transform="matrix(1,0,0,1,799.4739610734267,305.57450426629805) translate(5.512345679012345 31.444444444444443)"/><path d="M578.34 344.36l.27 40.97M574.34 344.38l.27 40.97M578.34 344.38v-1.02M574.34 344.4v-1.02" stroke="#000" stroke-width="2" fill="none"/><path d="M576.7 400.6L572 386.38l9.27-.06z" stroke="#000" stroke-width="2"/><path d="M544.42 306.35h66.76v28.4h-66.76z" stroke="#000" stroke-opacity="0" stroke-width="2" fill="#fff" fill-opacity="0"/><use xlink:href="#g" transform="matrix(1,0,0,1,549.4193515853734,311.349692688818) translate(0 17.77777777777778)"/><path d="M546.2 403.84h62.53v63.34H546.2z" stroke="#000" stroke-opacity="0" stroke-width="2" fill="#fff" fill-opacity="0"/><use xlink:href="#e" transform="matrix(1,0,0,1,551.205504469158,408.84251721878394) translate(5.512345679012345 31.444444444444443)"/></g><defs><path d="M136-208V0H84v-208H4v-40h212v40h-80" id="h"/><path d="M135-150c-39-12-60 13-60 57V0H25l-1-190h47c2 13-1 29 3 40 6-28 27-53 61-41v41" id="i"/><path d="M133-34C117-15 103 5 69 4 32 3 11-16 11-54c-1-60 55-63 116-61 1-26-3-47-28-47-18 1-26 9-28 27l-52-2c7-38 36-58 82-57s74 22 75 68l1 82c-1 14 12 18 25 15v27c-30 8-71 5-69-32zm-48 3c29 0 43-24 42-57-32 0-66-3-65 30 0 17 8 27 23 27" id="j"/><path d="M135-194c87-1 58 113 63 194h-50c-7-57 23-157-34-157-59 0-34 97-39 157H25l-1-190h47c2 12-1 28 3 38 12-26 28-41 61-42" id="k"/><path d="M137-138c1-29-70-34-71-4 15 46 118 7 119 86 1 83-164 76-172 9l43-7c4 19 20 25 44 25 33 8 57-30 24-41C81-84 22-81 20-136c-2-80 154-74 161-7" id="l"/><path d="M190-63c-7 42-38 67-86 67-59 0-84-38-90-98-12-110 154-137 174-36l-49 2c-2-19-15-32-35-32-30 0-35 28-38 64-6 74 65 87 74 30" id="m"/><path d="M115-3C79 11 28 4 28-45v-112H4v-33h27l15-45h31v45h36v33H77v99c-1 23 16 31 38 25v30" id="n"/><path d="M25-224v-37h50v37H25zM25 0v-190h50V0H25" id="o"/><path d="M110-194c64 0 96 36 96 99 0 64-35 99-97 99-61 0-95-36-95-99 0-62 34-99 96-99zm-1 164c35 0 45-28 45-65 0-40-10-65-43-65-34 0-45 26-45 65 0 36 10 65 43 65" id="p"/><g id="a"><use transform="matrix(0.06172839506172839,0,0,0.06172839506172839,0,0)" xlink:href="#h"/><use transform="matrix(0.06172839506172839,0,0,0.06172839506172839,12.28395061728395,0)" xlink:href="#i"/><use transform="matrix(0.06172839506172839,0,0,0.06172839506172839,20.925925925925924,0)" xlink:href="#j"/><use transform="matrix(0.06172839506172839,0,0,0.06172839506172839,33.2716049382716,0)" xlink:href="#k"/><use transform="matrix(0.06172839506172839,0,0,0.06172839506172839,46.79012345679012,0)" xlink:href="#l"/><use transform="matrix(0.06172839506172839,0,0,0.06172839506172839,59.1358024691358,0)" xlink:href="#j"/><use transform="matrix(0.06172839506172839,0,0,0.06172839506172839,71.48148148148148,0)" xlink:href="#m"/><use transform="matrix(0.06172839506172839,0,0,0.06172839506172839,83.82716049382717,0)" xlink:href="#n"/><use transform="matrix(0.06172839506172839,0,0,0.06172839506172839,91.17283950617285,0)" xlink:href="#o"/><use transform="matrix(0.06172839506172839,0,0,0.06172839506172839,97.34567901234568,0)" xlink:href="#p"/><use transform="matrix(0.06172839506172839,0,0,0.06172839506172839,110.8641975308642,0)" xlink:href="#k"/></g><path d="M141-36C126-15 110 5 73 4 37 3 15-17 15-53c-1-64 63-63 125-63 3-35-9-54-41-54-24 1-41 7-42 31l-33-3c5-37 33-52 76-52 45 0 72 20 72 64v82c-1 20 7 32 28 27v20c-31 9-61-2-59-35zM48-53c0 20 12 33 32 33 41-3 63-29 60-74-43 2-92-5-92 41" id="q"/><path d="M96-169c-40 0-48 33-48 73s9 75 48 75c24 0 41-14 43-38l32 2c-6 37-31 61-74 61-59 0-76-41-82-99-10-93 101-131 147-64 4 7 5 14 7 22l-32 3c-4-21-16-35-41-35" id="r"/><path d="M59-47c-2 24 18 29 38 22v24C64 9 27 4 27-40v-127H5v-23h24l9-43h21v43h35v23H59v120" id="s"/><path d="M101-251c82-7 93 87 43 132L82-64C71-53 59-42 53-27h129V0H18c2-99 128-94 128-182 0-28-16-43-45-43s-46 15-49 41l-32-3c6-41 34-60 81-64" id="t"/><g id="b"><use transform="matrix(0.06172839506172839,0,0,0.06172839506172839,0,0)" xlink:href="#q"/><use transform="matrix(0.06172839506172839,0,0,0.06172839506172839,12.345679012345679,0)" xlink:href="#r"/><use transform="matrix(0.06172839506172839,0,0,0.06172839506172839,23.45679012345679,0)" xlink:href="#s"/><use transform="matrix(0.06172839506172839,0,0,0.06172839506172839,29.62962962962963,0)" xlink:href="#t"/></g><path d="M240-174c0 40-23 61-54 70L253 0h-59l-57-94H76V0H24v-248c93 4 217-23 216 74zM76-134c48-2 112 12 112-38 0-48-66-32-112-35v73" id="u"/><path d="M25 0v-261h50V0H25" id="v"/><path d="M135-194c52 0 70 43 70 98 0 56-19 99-73 100-30 1-46-15-58-35L72 0H24l1-261h50v104c11-23 29-37 60-37zM114-30c31 0 40-27 40-66 0-37-7-63-39-63s-41 28-41 65c0 36 8 64 40 64" id="w"/><path d="M147 0L96-86 75-71V0H25v-261h50v150l67-79h53l-66 74L201 0h-54" id="x"/><g id="c"><use transform="matrix(0.06172839506172839,0,0,0.06172839506172839,0,0)" xlink:href="#u"/><use transform="matrix(0.06172839506172839,0,0,0.06172839506172839,15.987654320987653,0)" xlink:href="#p"/><use transform="matrix(0.06172839506172839,0,0,0.06172839506172839,29.50617283950617,0)" xlink:href="#v"/><use transform="matrix(0.06172839506172839,0,0,0.06172839506172839,35.67901234567901,0)" xlink:href="#v"/><use transform="matrix(0.06172839506172839,0,0,0.06172839506172839,41.851851851851855,0)" xlink:href="#w"/><use transform="matrix(0.06172839506172839,0,0,0.06172839506172839,55.370370370370374,0)" xlink:href="#j"/><use transform="matrix(0.06172839506172839,0,0,0.06172839506172839,67.71604938271605,0)" xlink:href="#m"/><use transform="matrix(0.06172839506172839,0,0,0.06172839506172839,80.06172839506173,0)" xlink:href="#x"/></g><path d="M27 0v-27h64v-190l-56 39v-29l58-41h29v221h61V0H27" id="y"/><g id="d"><use transform="matrix(0.06172839506172839,0,0,0.06172839506172839,0,0)" xlink:href="#q"/><use transform="matrix(0.06172839506172839,0,0,0.06172839506172839,12.345679012345679,0)" xlink:href="#r"/><use transform="matrix(0.06172839506172839,0,0,0.06172839506172839,23.45679012345679,0)" xlink:href="#s"/><use transform="matrix(0.06172839506172839,0,0,0.06172839506172839,29.62962962962963,0)" xlink:href="#y"/></g><path d="M126-127c33 6 58 20 58 59 0 88-139 92-164 29-3-8-5-16-6-25l32-3c6 27 21 44 54 44 32 0 52-15 52-46 0-38-36-46-79-43v-28c39 1 72-4 72-42 0-27-17-43-46-43-28 0-47 15-49 41l-32-3c6-42 35-63 81-64 48-1 79 21 79 65 0 36-21 52-52 59" id="z"/><g id="e"><use transform="matrix(0.06172839506172839,0,0,0.06172839506172839,0,0)" xlink:href="#q"/><use transform="matrix(0.06172839506172839,0,0,0.06172839506172839,12.345679012345679,0)" xlink:href="#r"/><use transform="matrix(0.06172839506172839,0,0,0.06172839506172839,23.45679012345679,0)" xlink:href="#s"/><use transform="matrix(0.06172839506172839,0,0,0.06172839506172839,29.62962962962963,0)" xlink:href="#z"/></g><g id="f"><use transform="matrix(0.06172839506172839,0,0,0.06172839506172839,0,0)" xlink:href="#h"/><use transform="matrix(0.06172839506172839,0,0,0.06172839506172839,12.28395061728395,0)" xlink:href="#i"/><use transform="matrix(0.06172839506172839,0,0,0.06172839506172839,20.925925925925924,0)" xlink:href="#j"/><use transform="matrix(0.06172839506172839,0,0,0.06172839506172839,33.2716049382716,0)" xlink:href="#k"/><use transform="matrix(0.06172839506172839,0,0,0.06172839506172839,46.79012345679012,0)" xlink:href="#l"/><use transform="matrix(0.06172839506172839,0,0,0.06172839506172839,59.1358024691358,0)" xlink:href="#j"/><use transform="matrix(0.06172839506172839,0,0,0.06172839506172839,71.48148148148148,0)" xlink:href="#m"/><use transform="matrix(0.06172839506172839,0,0,0.06172839506172839,83.82716049382717,0)" xlink:href="#n"/><use transform="matrix(0.06172839506172839,0,0,0.06172839506172839,91.17283950617285,0)" xlink:href="#o"/><use transform="matrix(0.06172839506172839,0,0,0.06172839506172839,97.34567901234568,0)" xlink:href="#p"/><use transform="matrix(0.06172839506172839,0,0,0.06172839506172839,110.8641975308642,0)" xlink:href="#k"/></g><g id="g"><use transform="matrix(0.06172839506172839,0,0,0.06172839506172839,0,0)" xlink:href="#u"/><use transform="matrix(0.06172839506172839,0,0,0.06172839506172839,15.987654320987653,0)" xlink:href="#p"/><use transform="matrix(0.06172839506172839,0,0,0.06172839506172839,29.50617283950617,0)" xlink:href="#v"/><use transform="matrix(0.06172839506172839,0,0,0.06172839506172839,35.67901234567901,0)" xlink:href="#v"/><use transform="matrix(0.06172839506172839,0,0,0.06172839506172839,41.851851851851855,0)" xlink:href="#w"/><use transform="matrix(0.06172839506172839,0,0,0.06172839506172839,55.370370370370374,0)" xlink:href="#j"/><use transform="matrix(0.06172839506172839,0,0,0.06172839506172839,67.71604938271605,0)" xlink:href="#m"/><use transform="matrix(0.06172839506172839,0,0,0.06172839506172839,80.06172839506173,0)" xlink:href="#x"/></g></defs></g></svg>