<svg width="35" height="57" viewBox="0 0 35 57" fill="none" xmlns="http://www.w3.org/2000/svg">
<path fill-rule="evenodd" clip-rule="evenodd" d="M28.6565 29C25.8565 31.8 25.8565 37.4 25.8565 40.2C25.8565 43 23.0565 43 23.0565 43H11.8565C11.8565 43 9.0565 43 9.0565 40.2C9.0565 37.4 9.0565 31.8 6.2565 29C-0.25641 22.4871 -0.9837 12.4814 5.57711 5.92061C12.1379 -0.640202 22.7751 -0.640202 29.3359 5.92061C35.8967 12.4814 35.3957 22.2608 28.6565 29Z" stroke="#6292f7" stroke-width="2" stroke-linecap="round"/>
<path d="M11.8566 54.1999H23.0566" stroke="#6292f7" stroke-width="2" stroke-linecap="round"/>
<path d="M11.8566 48.6H23.0566" stroke="#6292f7" stroke-width="2" stroke-linecap="round"/>
<path d="M17.0471 42.4167V30.1667L14.7137 27.2501L21.1304 26.6667L17.0471 23.1667" stroke="#6292f7" stroke-width="2" stroke-linecap="round" stroke-linejoin="round"/>
</svg>
