<?xml version="1.0" encoding="UTF-8"?>
<svg width="14px" height="17px" viewBox="0 0 14 17" version="1.1" xmlns="http://www.w3.org/2000/svg" xmlns:xlink="http://www.w3.org/1999/xlink">
    <!-- Generator: Sketch 52.5 (67469) - http://www.bohemiancoding.com/sketch -->
    <title>Shape</title>
    <desc>Created with Sketch.</desc>
    <g id="Page-1" stroke="none" stroke-width="1" fill="none" fill-rule="evenodd">
        <g id="Redlines_NewVisuals" transform="translate(-385.000000, -166.000000)" fill="#FFFFFF" fill-rule="nonzero">
            <g id="Group-20" transform="translate(1.000000, 133.000000)">
                <path d="M391.073887,33.1951798 L389.943093,34.4434504 C389.763194,34.6472496 389.737494,34.9529485 389.917393,35.1822227 L393.463974,39.9205557 L385.805415,39.9205557 C385.651216,39.9205557 385.522717,39.9715055 385.419917,40.0734051 L384.212024,41.0924015 C383.929325,41.3216756 383.929325,41.7547491 384.212024,41.9840233 L385.445617,43.0539694 C385.548417,43.1558691 385.702616,43.2068189 385.831115,43.2068189 L393.438274,43.2068189 L389.865994,47.7923024 C389.686095,48.0215766 389.711794,48.3272755 389.891693,48.5565496 L390.996788,49.8048202 C391.253786,50.0850442 391.690684,50.0595692 391.921983,49.7538703 L397.884351,41.8566487 C398.03855,41.6528495 398.03855,41.3471505 397.884351,41.1433513 L391.999082,33.2461297 C391.767783,32.9404308 391.330886,32.9149558 391.073887,33.1951798 Z" id="Shape"></path>
            </g>
        </g>
    </g>
</svg>