<svg xmlns="http://www.w3.org/2000/svg" xmlns:xlink="http://www.w3.org/1999/xlink" xmlns:lucid="lucid" width="1010" height="480.94"><g transform="translate(-42 20)" lucid:page-tab-id="0_0"><path d="M862 265c-16.57 0-30-16.12-30-36 0-15.9 8.12-29.32 20.73-34.24C852 148 902 139 922 157c10-27 60-18 60 9 30-9 60 27 40 72 20 36 0 81-40 63-10 23.4-50 23.4-60 0-20 18-60 9-60-36z" stroke="#000" stroke-width="2" fill="#fff"/><use xlink:href="#a" transform="matrix(1,0,0,1,837,144) translate(78.5 77.8)"/><use xlink:href="#b" transform="matrix(1,0,0,1,837,144) translate(67.025 99.4)"/><path d="M612 279h180v80H612z" stroke="#000" stroke-width="2" fill="#fff"/><use xlink:href="#c" transform="matrix(1,0,0,1,617,284) translate(68.5 27.799999999999997)"/><use xlink:href="#d" transform="matrix(1,0,0,1,617,284) translate(18.599999999999994 49.4)"/><use xlink:href="#e" transform="matrix(1,0,0,1,617,284) translate(108.45 49.4)"/><path d="M332 279h180v80H332z" stroke="#000" stroke-width="2" fill="#fff"/><use xlink:href="#f" transform="matrix(1,0,0,1,337,284) translate(5.175000000000011 38.6)"/><path d="M62 259h120v40H62z" stroke="#000" stroke-width="2" fill="#fff"/><use xlink:href="#g" transform="matrix(1,0,0,1,67,264) translate(11.875 18.6)"/><use xlink:href="#h" transform="matrix(1,0,0,1,67,264) translate(66.125 18.6)"/><path d="M62 339h120v40H62z" stroke="#000" stroke-width="2" fill="#fff"/><use xlink:href="#g" transform="matrix(1,0,0,1,67,344) translate(11.875 18.6)"/><use xlink:href="#h" transform="matrix(1,0,0,1,67,344) translate(66.125 18.6)"/><path d="M592.5 319H514" stroke="#000" stroke-width="2" fill="none"/><path d="M607.76 319l-14.26 4.64v-9.28z" stroke="#000" stroke-width="2"/><path d="M514.03 320H513v-2h1.03z"/><use xlink:href="#a" transform="matrix(1,0,0,1,529.05,323) translate(16.455000000000005 14.4)"/><use xlink:href="#i" transform="matrix(1,0,0,1,529.05,323) translate(0.005000000000002558 36)"/><path d="M312.5 319H222v-40h-38" stroke="#000" stroke-width="2" fill="none"/><path d="M327.76 319l-14.26 4.64v-9.28z" stroke="#000" stroke-width="2"/><path d="M184.03 279H183M330 319H222v40h-38" stroke="#000" stroke-width="2" fill="none"/><path d="M331 320h-1.03v-2H331zM184.03 360H183v-2h1.03z"/><use xlink:href="#j" transform="matrix(1,0,0,1,230.00000000000003,328.51371358851696) translate(0 14.4)"/><use xlink:href="#k" transform="matrix(1,0,0,1,230.00000000000003,328.51371358851696) translate(60.95 14.4)"/><path d="M811.16 315.95l.4-.13 3.5-1.43 3.84-1.9 4.63-2.7 8.6-5.95 15.16-10.73.26-.15" fill="none"/><path d="M812.16 315.95c0 .55-.45 1-1 1s-1-.45-1-1 .45-1 1-1 1 .45 1 1zm3.64-1.45c0 .55-.44 1-1 1-.55 0-1-.45-1-1 0-.56.45-1 1-1 .56 0 1 .44 1 1zm3.53-1.72c0 .55-.44 1-1 1-.55 0-1-.45-1-1s.45-1 1-1c.56 0 1 .45 1 1zm3.4-1.94c0 .55-.43 1-1 1-.54 0-1-.45-1-1s.46-1 1-1c.57 0 1 .45 1 1zm3.33-2.1c0 .55-.45 1-1 1s-1-.45-1-1c0-.56.45-1 1-1s1 .44 1 1zm3.23-2.24c0 .56-.46 1-1 1-.57 0-1-.44-1-1 0-.55.43-1 1-1 .54 0 1 .45 1 1zm3.22-2.23c0 .55-.45 1-1 1-.56 0-1-.45-1-1s.44-1 1-1c.55 0 1 .45 1 1zm3.2-2.26c0 .56-.44 1-1 1-.55 0-1-.44-1-1 0-.54.45-1 1-1 .56 0 1 .46 1 1zm3.2-2.26c0 .56-.44 1-1 1-.54 0-1-.44-1-1 0-.55.46-1 1-1 .56 0 1 .45 1 1zm3.22-2.26c0 .55-.45 1-1 1s-1-.45-1-1c0-.56.45-1 1-1s1 .44 1 1zm3.2-2.27c0 .56-.44 1-1 1-.55 0-1-.44-1-1 0-.54.45-1 1-1 .56 0 1 .46 1 1zm3.22-2.23c0 .55-.44 1-1 1-.55 0-1-.45-1-1 0-.56.45-1 1-1 .56 0 1 .44 1 1z"/><path d="M796.2 318.46l13.3-6.93 1.53 9.14zM861.22 286.22L850.5 296.7l-4.12-8.32z" stroke="#000" stroke-width="2"/><path d="M612 79h180v80H612z" stroke="#000" stroke-width="2" fill="#fff"/><use xlink:href="#c" transform="matrix(1,0,0,1,617,84) translate(68.5 27.799999999999997)"/><use xlink:href="#d" transform="matrix(1,0,0,1,617,84) translate(18.599999999999994 49.4)"/><use xlink:href="#e" transform="matrix(1,0,0,1,617,84) translate(108.45 49.4)"/><path d="M332 79h180v80H332z" stroke="#000" stroke-width="2" fill="#fff"/><use xlink:href="#f" transform="matrix(1,0,0,1,337,84) translate(5.175000000000011 38.6)"/><path d="M62 59h120v40H62z" stroke="#000" stroke-width="2" fill="#fff"/><use xlink:href="#g" transform="matrix(1,0,0,1,67,64) translate(11.875 18.6)"/><use xlink:href="#h" transform="matrix(1,0,0,1,67,64) translate(66.125 18.6)"/><path d="M62 139h120v40H62z" stroke="#000" stroke-width="2" fill="#fff"/><use xlink:href="#g" transform="matrix(1,0,0,1,67,144) translate(11.875 18.6)"/><use xlink:href="#h" transform="matrix(1,0,0,1,67,144) translate(66.125 18.6)"/><path d="M592.5 119H514" stroke="#000" stroke-width="2" fill="none"/><path d="M607.76 119l-14.26 4.64v-9.28z" stroke="#000" stroke-width="2"/><path d="M514.03 120H513v-2h1.03z"/><use xlink:href="#a" transform="matrix(1,0,0,1,529.05,123) translate(16.455000000000005 14.4)"/><use xlink:href="#i" transform="matrix(1,0,0,1,529.05,123) translate(0.005000000000002558 36)"/><path d="M312.5 119H222V79h-38" stroke="#000" stroke-width="2" fill="none"/><path d="M327.76 119l-14.26 4.64v-9.28z" stroke="#000" stroke-width="2"/><path d="M184.03 80H183v-2h1.03z"/><path d="M330 119H222v40h-38" stroke="#000" stroke-width="2" fill="none"/><path d="M331 120h-1.03v-2H331zM184.03 160H183v-2h1.03z"/><use xlink:href="#j" transform="matrix(1,0,0,1,230.00000000000003,128.51371358851696) translate(0 14.4)"/><use xlink:href="#k" transform="matrix(1,0,0,1,230.00000000000003,128.51371358851696) translate(60.95 14.4)"/><path d="M811.25 121.62l3 1 3.6 1.5 3.64 1.85 3.87 2.33 4.36 3.06 5.53 4.53 13.97 13.53" fill="none"/><path d="M812.25 121.62c0 .55-.45 1-1 1-.56 0-1-.45-1-1s.44-1 1-1c.55 0 1 .45 1 1zm3.74 1.32c0 .55-.46 1-1 1-.57 0-1-.45-1-1 0-.56.43-1 1-1 .54 0 1 .44 1 1zm3.62 1.58c0 .55-.45 1-1 1s-1-.45-1-1 .45-1 1-1 1 .45 1 1zm3.5 1.84c0 .55-.43 1-1 1-.54 0-1-.45-1-1s.46-1 1-1c.57 0 1 .45 1 1zm3.4 2.05c0 .56-.44 1-1 1-.54 0-1-.44-1-1 0-.54.46-1 1-1 .56 0 1 .46 1 1zm3.25 2.3c0 .55-.44 1-1 1-.55 0-1-.45-1-1 0-.56.45-1 1-1 .56 0 1 .44 1 1zm3.13 2.44c0 .55-.45 1-1 1-.56 0-1-.45-1-1s.44-1 1-1c.55 0 1 .45 1 1zm3.07 2.5c0 .56-.45 1-1 1-.56 0-1-.44-1-1 0-.54.44-1 1-1 .55 0 1 .46 1 1zm2.87 2.75c0 .54-.45 1-1 1-.56 0-1-.46-1-1 0-.56.44-1 1-1 .55 0 1 .44 1 1zm2.84 2.75c0 .55-.44 1-1 1-.55 0-1-.45-1-1s.45-1 1-1c.56 0 1 .45 1 1zm2.85 2.76c0 .56-.45 1-1 1s-1-.44-1-1c0-.54.45-1 1-1s1 .46 1 1zm2.85 2.77c0 .56-.45 1-1 1s-1-.44-1-1c0-.55.45-1 1-1s1 .45 1 1zm2.85 2.76c0 .56-.45 1-1 1-.56 0-1-.44-1-1 0-.55.44-1 1-1 .55 0 1 .45 1 1z"/><path d="M796.2 119.46l14.78-2.56-1.3 9.17zM860.18 160.06l-13.46-6.6 6.45-6.66z" stroke="#000" stroke-width="2"/><path d="M412 237.5v-37" fill="none"/><path d="M413.5 237.5c0 .83-.67 1.5-1.5 1.5s-1.5-.67-1.5-1.5.67-1.5 1.5-1.5 1.5.67 1.5 1.5zm0-12.33c0 .83-.67 1.5-1.5 1.5s-1.5-.67-1.5-1.5.67-1.5 1.5-1.5 1.5.67 1.5 1.5zm0-12.34c0 .83-.67 1.5-1.5 1.5s-1.5-.67-1.5-1.5.67-1.5 1.5-1.5 1.5.67 1.5 1.5zm0-12.33c0 .83-.67 1.5-1.5 1.5s-1.5-.67-1.5-1.5.67-1.5 1.5-1.5 1.5.67 1.5 1.5z"/><path d="M412 237.46V239M412 200.54V199" stroke="#000" stroke-width="3" fill="none"/><path d="M712 237.5v-37" fill="none"/><path d="M713.5 237.5c0 .83-.67 1.5-1.5 1.5s-1.5-.67-1.5-1.5.67-1.5 1.5-1.5 1.5.67 1.5 1.5zm0-12.33c0 .83-.67 1.5-1.5 1.5s-1.5-.67-1.5-1.5.67-1.5 1.5-1.5 1.5.67 1.5 1.5zm0-12.34c0 .83-.67 1.5-1.5 1.5s-1.5-.67-1.5-1.5.67-1.5 1.5-1.5 1.5.67 1.5 1.5zm0-12.33c0 .83-.67 1.5-1.5 1.5s-1.5-.67-1.5-1.5.67-1.5 1.5-1.5 1.5.67 1.5 1.5z"/><path d="M712 237.46V239M712 200.54V199" stroke="#000" stroke-width="3" fill="none"/><path d="M123 327.5v-17" fill="none"/><path d="M124.5 327.5c0 .83-.67 1.5-1.5 1.5s-1.5-.67-1.5-1.5.67-1.5 1.5-1.5 1.5.67 1.5 1.5zm0-5.67c0 .83-.67 1.5-1.5 1.5s-1.5-.67-1.5-1.5.67-1.5 1.5-1.5 1.5.67 1.5 1.5zm0-5.66c0 .83-.67 1.5-1.5 1.5s-1.5-.67-1.5-1.5.67-1.5 1.5-1.5 1.5.67 1.5 1.5zm0-5.67c0 .83-.67 1.5-1.5 1.5s-1.5-.67-1.5-1.5.67-1.5 1.5-1.5 1.5.67 1.5 1.5z"/><path d="M123 327.46V329M123 310.54V309" stroke="#000" stroke-width="3" fill="none"/><path d="M123 127.5v-17" fill="none"/><path d="M124.5 127.5c0 .83-.67 1.5-1.5 1.5s-1.5-.67-1.5-1.5.67-1.5 1.5-1.5 1.5.67 1.5 1.5zm0-5.67c0 .83-.67 1.5-1.5 1.5s-1.5-.67-1.5-1.5.67-1.5 1.5-1.5 1.5.67 1.5 1.5zm0-5.66c0 .83-.67 1.5-1.5 1.5s-1.5-.67-1.5-1.5.67-1.5 1.5-1.5 1.5.67 1.5 1.5zm0-5.67c0 .83-.67 1.5-1.5 1.5s-1.5-.67-1.5-1.5.67-1.5 1.5-1.5 1.5.67 1.5 1.5z"/><path d="M123 127.46V129M123 110.54V109" stroke="#000" stroke-width="3" fill="none"/><path d="M612 0h180v40H612z" stroke="#000" stroke-width="2" fill="#fff"/><g><use xlink:href="#l" transform="matrix(1,0,0,1,617,5) translate(9.174999999999997 18.6)"/></g><path d="M702 59.5V77" fill="none"/><path d="M703 59.5c0 .55-.45 1-1 1s-1-.45-1-1 .45-1 1-1 1 .45 1 1zm0 4.38c0 .55-.45 1-1 1s-1-.45-1-1c0-.56.45-1 1-1s1 .44 1 1zm0 4.37c0 .55-.45 1-1 1s-1-.45-1-1 .45-1 1-1 1 .45 1 1zm0 4.38c0 .55-.45 1-1 1s-1-.45-1-1c0-.56.45-1 1-1s1 .44 1 1z"/><path d="M702 44.24l4.64 14.26h-9.28z" stroke="#000" stroke-width="2"/><path d="M703 78h-2v-1.03h2z"/><path d="M612 400.94h180v40H612z" stroke="#000" stroke-width="2" fill="#fff"/><g><use xlink:href="#l" transform="matrix(1,0,0,1,617,405.9448818897638) translate(9.174999999999997 18.6)"/></g><path d="M702 381.44V361" fill="none"/><path d="M703 381.44c0 .55-.45 1-1 1s-1-.45-1-1 .45-1 1-1 1 .45 1 1zm0-4.1c0 .57-.45 1-1 1s-1-.43-1-1c0-.54.45-1 1-1s1 .46 1 1zm0-4.07c0 .55-.45 1-1 1s-1-.45-1-1c0-.56.45-1 1-1s1 .44 1 1zm0-4.1c0 .56-.45 1-1 1s-1-.44-1-1c0-.55.45-1 1-1s1 .45 1 1zm0-4.08c0 .54-.45 1-1 1s-1-.46-1-1c0-.56.45-1 1-1s1 .44 1 1z"/><path d="M702 396.7l-4.64-14.26h9.28z" stroke="#000" stroke-width="2"/><path d="M703 361.03h-2V360h2z"/><defs><path d="M18-100v-36l175-74v27L42-118l151 64v27" id="m"/><path d="M195 0l-74-108L45 0H8l94-129-87-119h37l69 98 67-98h37l-84 118L233 0h-38" id="n"/><path d="M18-27v-27l151-64-151-65v-27l175 74v36" id="o"/><g id="a"><use transform="matrix(0.05,0,0,0.05,0,0)" xlink:href="#m"/><use transform="matrix(0.05,0,0,0.05,10.5,0)" xlink:href="#n"/><use transform="matrix(0.05,0,0,0.05,22.5,0)" xlink:href="#o"/></g><path d="M30 0v-248h33v221h125V0H30" id="p"/><path d="M100-194c63 0 86 42 84 106H49c0 40 14 67 53 68 26 1 43-12 49-29l28 8c-11 28-37 45-77 45C44 4 14-33 15-96c1-61 26-98 85-98zm52 81c6-60-76-77-97-28-3 7-6 17-6 28h103" id="q"/><path d="M85-194c31 0 48 13 60 33l-1-100h32l1 261h-30c-2-10 0-23-3-31C134-8 116 4 85 4 32 4 16-35 15-94c0-66 23-100 70-100zm9 24c-40 0-46 34-46 75 0 40 6 74 45 74 42 0 51-32 51-76 0-42-9-74-50-73" id="r"/><path d="M177-190C167-65 218 103 67 71c-23-6-38-20-44-43l32-5c15 47 100 32 89-28v-30C133-14 115 1 83 1 29 1 15-40 15-95c0-56 16-97 71-98 29-1 48 16 59 35 1-10 0-23 2-32h30zM94-22c36 0 50-32 50-73 0-42-14-75-50-75-39 0-46 34-46 75s6 73 46 73" id="s"/><path d="M114-163C36-179 61-72 57 0H25l-1-190h30c1 12-1 29 2 39 6-27 23-49 58-41v29" id="t"/><g id="b"><use transform="matrix(0.05,0,0,0.05,0,0)" xlink:href="#p"/><use transform="matrix(0.05,0,0,0.05,10,0)" xlink:href="#q"/><use transform="matrix(0.05,0,0,0.05,20,0)" xlink:href="#r"/><use transform="matrix(0.05,0,0,0.05,30,0)" xlink:href="#s"/><use transform="matrix(0.05,0,0,0.05,40,0)" xlink:href="#q"/><use transform="matrix(0.05,0,0,0.05,50,0)" xlink:href="#t"/></g><g id="c"><use transform="matrix(0.05,0,0,0.05,0,0)" xlink:href="#m"/><use transform="matrix(0.05,0,0,0.05,10.5,0)" xlink:href="#n"/><use transform="matrix(0.05,0,0,0.05,22.5,0)" xlink:href="#o"/></g><path d="M30-248c87 1 191-15 191 75 0 78-77 80-158 76V0H30v-248zm33 125c57 0 124 11 124-50 0-59-68-47-124-48v98" id="u"/><path d="M141-36C126-15 110 5 73 4 37 3 15-17 15-53c-1-64 63-63 125-63 3-35-9-54-41-54-24 1-41 7-42 31l-33-3c5-37 33-52 76-52 45 0 72 20 72 64v82c-1 20 7 32 28 27v20c-31 9-61-2-59-35zM48-53c0 20 12 33 32 33 41-3 63-29 60-74-43 2-92-5-92 41" id="v"/><path d="M59-47c-2 24 18 29 38 22v24C64 9 27 4 27-40v-127H5v-23h24l9-43h21v43h35v23H59v120" id="w"/><path d="M24-231v-30h32v30H24zM24 0v-190h32V0H24" id="x"/><path d="M96-169c-40 0-48 33-48 73s9 75 48 75c24 0 41-14 43-38l32 2c-6 37-31 61-74 61-59 0-76-41-82-99-10-93 101-131 147-64 4 7 5 14 7 22l-32 3c-4-21-16-35-41-35" id="y"/><path d="M115-194c55 1 70 41 70 98S169 2 115 4C84 4 66-9 55-30l1 105H24l-1-265h31l2 30c10-21 28-34 59-34zm-8 174c40 0 45-34 45-75s-6-73-45-74c-42 0-51 32-51 76 0 43 10 73 51 73" id="z"/><path d="M117-194c89-4 53 116 60 194h-32v-121c0-31-8-49-39-48C34-167 62-67 57 0H25l-1-190h30c1 10-1 24 2 32 11-22 29-35 61-36" id="A"/><g id="d"><use transform="matrix(0.05,0,0,0.05,0,0)" xlink:href="#u"/><use transform="matrix(0.05,0,0,0.05,12,0)" xlink:href="#v"/><use transform="matrix(0.05,0,0,0.05,22,0)" xlink:href="#t"/><use transform="matrix(0.05,0,0,0.05,27.950000000000003,0)" xlink:href="#w"/><use transform="matrix(0.05,0,0,0.05,32.95,0)" xlink:href="#x"/><use transform="matrix(0.05,0,0,0.05,36.900000000000006,0)" xlink:href="#y"/><use transform="matrix(0.05,0,0,0.05,45.900000000000006,0)" xlink:href="#x"/><use transform="matrix(0.05,0,0,0.05,49.85000000000001,0)" xlink:href="#z"/><use transform="matrix(0.05,0,0,0.05,59.85,0)" xlink:href="#v"/><use transform="matrix(0.05,0,0,0.05,69.85000000000001,0)" xlink:href="#A"/><use transform="matrix(0.05,0,0,0.05,79.85000000000001,0)" xlink:href="#w"/></g><path d="M190 0L58-211 59 0H30v-248h39L202-35l-2-213h31V0h-41" id="B"/><path d="M100-194c62-1 85 37 85 99 1 63-27 99-86 99S16-35 15-95c0-66 28-99 85-99zM99-20c44 1 53-31 53-75 0-43-8-75-51-75s-53 32-53 75 10 74 51 75" id="C"/><g id="e"><use transform="matrix(0.05,0,0,0.05,0,0)" xlink:href="#B"/><use transform="matrix(0.05,0,0,0.05,12.950000000000001,0)" xlink:href="#C"/><use transform="matrix(0.05,0,0,0.05,22.950000000000003,0)" xlink:href="#r"/><use transform="matrix(0.05,0,0,0.05,32.95,0)" xlink:href="#q"/></g><path d="M210-169c-67 3-38 105-44 169h-31v-121c0-29-5-50-35-48C34-165 62-65 56 0H25l-1-190h30c1 10-1 24 2 32 10-44 99-50 107 0 11-21 27-35 58-36 85-2 47 119 55 194h-31v-121c0-29-5-49-35-48" id="D"/><path d="M24 0v-261h32V0H24" id="E"/><path d="M16-82v-28h88v28H16" id="F"/><path d="M135-143c-3-34-86-38-87 0 15 53 115 12 119 90S17 21 10-45l28-5c4 36 97 45 98 0-10-56-113-15-118-90-4-57 82-63 122-42 12 7 21 19 24 35" id="G"/><path d="M108 0H70L1-190h34L89-25l56-165h34" id="H"/><g id="f"><use transform="matrix(0.05,0,0,0.05,0,0)" xlink:href="#r"/><use transform="matrix(0.05,0,0,0.05,10,0)" xlink:href="#v"/><use transform="matrix(0.05,0,0,0.05,20,0)" xlink:href="#D"/><use transform="matrix(0.05,0,0,0.05,34.95,0)" xlink:href="#E"/><use transform="matrix(0.05,0,0,0.05,38.900000000000006,0)" xlink:href="#F"/><use transform="matrix(0.05,0,0,0.05,44.85000000000001,0)" xlink:href="#C"/><use transform="matrix(0.05,0,0,0.05,54.85,0)" xlink:href="#A"/><use transform="matrix(0.05,0,0,0.05,64.85000000000001,0)" xlink:href="#F"/><use transform="matrix(0.05,0,0,0.05,70.80000000000001,0)" xlink:href="#m"/><use transform="matrix(0.05,0,0,0.05,81.30000000000001,0)" xlink:href="#n"/><use transform="matrix(0.05,0,0,0.05,93.30000000000001,0)" xlink:href="#o"/><use transform="matrix(0.05,0,0,0.05,103.80000000000001,0)" xlink:href="#F"/><use transform="matrix(0.05,0,0,0.05,109.75,0)" xlink:href="#G"/><use transform="matrix(0.05,0,0,0.05,118.75,0)" xlink:href="#q"/><use transform="matrix(0.05,0,0,0.05,128.75,0)" xlink:href="#t"/><use transform="matrix(0.05,0,0,0.05,134.7,0)" xlink:href="#H"/><use transform="matrix(0.05,0,0,0.05,143.7,0)" xlink:href="#q"/><use transform="matrix(0.05,0,0,0.05,153.7,0)" xlink:href="#t"/></g><path d="M30-248c118-7 216 8 213 122C240-48 200 0 122 0H30v-248zM63-27c89 8 146-16 146-99s-60-101-146-95v194" id="I"/><path d="M205 0l-28-72H64L36 0H1l101-248h38L239 0h-34zm-38-99l-47-123c-12 45-31 82-46 123h93" id="J"/><path d="M240 0l2-218c-23 76-54 145-80 218h-23L58-218 59 0H30v-248h44l77 211c21-75 51-140 76-211h43V0h-30" id="K"/><g id="g"><use transform="matrix(0.05,0,0,0.05,0,0)" xlink:href="#I"/><use transform="matrix(0.05,0,0,0.05,12.950000000000001,0)" xlink:href="#J"/><use transform="matrix(0.05,0,0,0.05,24.950000000000003,0)" xlink:href="#K"/><use transform="matrix(0.05,0,0,0.05,39.900000000000006,0)" xlink:href="#p"/></g><g id="h"><use transform="matrix(0.05,0,0,0.05,0,0)" xlink:href="#J"/><use transform="matrix(0.05,0,0,0.05,12,0)" xlink:href="#z"/><use transform="matrix(0.05,0,0,0.05,22,0)" xlink:href="#z"/></g><g id="i"><use transform="matrix(0.05,0,0,0.05,0,0)" xlink:href="#G"/><use transform="matrix(0.05,0,0,0.05,9,0)" xlink:href="#q"/><use transform="matrix(0.05,0,0,0.05,19,0)" xlink:href="#t"/><use transform="matrix(0.05,0,0,0.05,24.95,0)" xlink:href="#H"/><use transform="matrix(0.05,0,0,0.05,33.95,0)" xlink:href="#x"/><use transform="matrix(0.05,0,0,0.05,37.900000000000006,0)" xlink:href="#y"/><use transform="matrix(0.05,0,0,0.05,46.900000000000006,0)" xlink:href="#q"/><use transform="matrix(0.05,0,0,0.05,56.900000000000006,0)" xlink:href="#G"/></g><g id="j"><use transform="matrix(0.05,0,0,0.05,0,0)" xlink:href="#p"/><use transform="matrix(0.05,0,0,0.05,10,0)" xlink:href="#q"/><use transform="matrix(0.05,0,0,0.05,20,0)" xlink:href="#r"/><use transform="matrix(0.05,0,0,0.05,30,0)" xlink:href="#s"/><use transform="matrix(0.05,0,0,0.05,40,0)" xlink:href="#q"/><use transform="matrix(0.05,0,0,0.05,50,0)" xlink:href="#t"/></g><path d="M33 0v-248h34V0H33" id="L"/><g id="k"><use transform="matrix(0.05,0,0,0.05,0,0)" xlink:href="#J"/><use transform="matrix(0.05,0,0,0.05,12,0)" xlink:href="#u"/><use transform="matrix(0.05,0,0,0.05,24,0)" xlink:href="#L"/></g><g id="l"><use transform="matrix(0.05,0,0,0.05,0,0)" xlink:href="#m"/><use transform="matrix(0.05,0,0,0.05,10.5,0)" xlink:href="#n"/><use transform="matrix(0.05,0,0,0.05,22.5,0)" xlink:href="#o"/><use transform="matrix(0.05,0,0,0.05,33,0)" xlink:href="#F"/><use transform="matrix(0.05,0,0,0.05,38.95,0)" xlink:href="#r"/><use transform="matrix(0.05,0,0,0.05,48.95,0)" xlink:href="#v"/><use transform="matrix(0.05,0,0,0.05,58.95,0)" xlink:href="#D"/><use transform="matrix(0.05,0,0,0.05,73.9,0)" xlink:href="#E"/><use transform="matrix(0.05,0,0,0.05,77.85000000000001,0)" xlink:href="#F"/><use transform="matrix(0.05,0,0,0.05,83.80000000000001,0)" xlink:href="#H"/><use transform="matrix(0.05,0,0,0.05,92.80000000000001,0)" xlink:href="#v"/><use transform="matrix(0.05,0,0,0.05,102.80000000000001,0)" xlink:href="#E"/><use transform="matrix(0.05,0,0,0.05,106.75,0)" xlink:href="#x"/><use transform="matrix(0.05,0,0,0.05,110.7,0)" xlink:href="#r"/><use transform="matrix(0.05,0,0,0.05,120.7,0)" xlink:href="#v"/><use transform="matrix(0.05,0,0,0.05,130.70000000000002,0)" xlink:href="#w"/><use transform="matrix(0.05,0,0,0.05,135.70000000000002,0)" xlink:href="#C"/><use transform="matrix(0.05,0,0,0.05,145.70000000000002,0)" xlink:href="#t"/></g></defs></g></svg>