<svg xmlns="http://www.w3.org/2000/svg" xmlns:xlink="http://www.w3.org/1999/xlink" xmlns:lucid="lucid" width="1022" height="480"><g transform="translate(-49 -40.00000000000003)" lucid:page-tab-id="0_0"><path d="M180 60h740v440H180z" stroke="#000" stroke-width="2" fill="#fff"/><use xlink:href="#a" transform="matrix(1,0,0,1,185,65.00000000000003) translate(0 14.4)"/><use xlink:href="#b" transform="matrix(1,0,0,1,185,65.00000000000003) translate(0 36)"/><use xlink:href="#c" transform="matrix(1,0,0,1,185,65.00000000000003) translate(15 36)"/><path d="M220 359.53h210.77v96.4H220z" stroke="#000" stroke-width="2" fill="#fff"/><use xlink:href="#d" transform="matrix(1,0,0,1,224.99999999999997,364.52755905511805) translate(32.125 14.69999999999999)"/><use xlink:href="#e" transform="matrix(1,0,0,1,224.99999999999997,364.52755905511805) translate(-1.3999999999999915 36.29999999999999)"/><use xlink:href="#f" transform="matrix(1,0,0,1,224.99999999999997,364.52755905511805) translate(41.12499999999999 57.89999999999999)"/><use xlink:href="#g" transform="matrix(1,0,0,1,224.99999999999997,364.52755905511805) translate(68.55 79.5)"/><path d="M660.5 323.3H610v84.43H432.77" stroke="#000" stroke-width="2" fill="none"/><path d="M675.76 323.3l-14.26 4.63v-9.27z" stroke="#000" stroke-width="2"/><path d="M432.8 408.73h-1.03v-2h1.02z"/><use xlink:href="#h" transform="matrix(1,0,0,1,528.1117852498036,411.7275590551181) translate(9.554999999999993 14.4)"/><use xlink:href="#i" transform="matrix(1,0,0,1,528.1117852498036,411.7275590551181) translate(0.0049999999999954525 36)"/><use xlink:href="#j" transform="matrix(1,0,0,1,528.1117852498036,411.7275590551181) translate(23.97999999999999 57.6)"/><path d="M680 260h210.77v80H680z" stroke="#000" stroke-width="2" fill="#fff"/><use xlink:href="#k" transform="matrix(1,0,0,1,685,265) translate(45.574999999999996 38.6)"/><path d="M220 159.53h210.77v80H220z" stroke="#000" stroke-width="2" fill="#fff"/><use xlink:href="#d" transform="matrix(1,0,0,1,224.99999999999997,164.5275590551181) translate(32.125 17)"/><use xlink:href="#l" transform="matrix(1,0,0,1,224.99999999999997,164.5275590551181) translate(22.625 38.6)"/><use xlink:href="#m" transform="matrix(1,0,0,1,224.99999999999997,164.5275590551181) translate(72.5 60.2)"/><path d="M1021.5 300H892.77" fill="none"/><path d="M1021.5 300h-4.02m-8.05 0h-8.05m-8.04 0h-8.05m-8.05 0h-8.05m-8.04 0h-8.05m-8.03 0h-8.05m-8.05 0h-8.04m-8.05 0h-8.04m-8.05 0h-4.03" stroke="#000" stroke-width="2" fill="none"/><path d="M1036.76 300l-14.26 4.64v-9.28z" stroke="#000" stroke-width="2"/><path d="M892.8 301h-1.03v-2h1.02z"/><use xlink:href="#n" transform="matrix(1,0,0,1,942.0391998467015,304) translate(19.505000000000003 14.4)"/><use xlink:href="#o" transform="matrix(1,0,0,1,942.0391998467015,304) translate(0.005000000000002558 36)"/><path d="M200.5 199.53H61" fill="none"/><path d="M200.5 199.53h-3.88m-7.75 0h-7.75m-7.75 0h-7.75m-7.75 0h-7.75m-7.75 0h-7.75m-7.75 0h-7.75m-7.75 0h-7.75m-7.75 0h-7.75m-7.75 0h-7.75m-7.75 0H61" stroke="#000" stroke-width="2" fill="none"/><path d="M215.76 199.53l-14.26 4.63v-9.27z" stroke="#000" stroke-width="2"/><path d="M61.03 199.53H60" stroke="#000" stroke-width="2" fill="none"/><g><use xlink:href="#p" transform="matrix(1,0,0,1,67.76566876574961,203.5275590551181) translate(0 14.4)"/><use xlink:href="#q" transform="matrix(1,0,0,1,67.76566876574961,203.5275590551181) translate(64.85000000000001 14.4)"/></g><path d="M660.5 277.96H610v-78.43H432.77" stroke="#000" stroke-width="2" fill="none"/><path d="M675.76 277.96l-14.26 4.63v-9.28z" stroke="#000" stroke-width="2"/><path d="M432.8 200.53h-1.03v-2h1.02z"/><g><use xlink:href="#h" transform="matrix(1,0,0,1,534.2988460507426,131.11778027004326) translate(9.554999999999993 14.4)"/><use xlink:href="#i" transform="matrix(1,0,0,1,534.2988460507426,131.11778027004326) translate(0.0049999999999954525 36)"/><use xlink:href="#r" transform="matrix(1,0,0,1,534.2988460507426,131.11778027004326) translate(23.654999999999994 57.6)"/></g><path d="M325.38 340.03v-98.5" stroke="#000" stroke-width="2" fill="none"/><path d="M325.38 355.3l-4.63-14.27h9.27z" stroke="#000" stroke-width="2"/><path d="M326.38 241.55h-2v-1.02h2z"/><g><use xlink:href="#h" transform="matrix(1,0,0,1,333.38461538461536,260.6980343978161) translate(33.52999999999999 14.4)"/><use xlink:href="#s" transform="matrix(1,0,0,1,333.38461538461536,260.6980343978161) translate(0.0049999999999954525 36)"/><use xlink:href="#t" transform="matrix(1,0,0,1,333.38461538461536,260.6980343978161) translate(46.454999999999984 57.6)"/></g><defs><path d="M18-100v-36l175-74v27L42-118l151 64v27" id="u"/><path d="M141 0L90-78 38 0H4l68-98-65-92h35l48 74 47-74h35l-64 92 68 98h-35" id="v"/><path d="M18-27v-27l151-64-151-65v-27l175 74v36" id="w"/><path d="M33 0v-38h34V0H33" id="x"/><path d="M24 0v-248h52v208h133V0H24" id="y"/><path d="M185-48c-13 30-37 53-82 52C43 2 14-33 14-96s30-98 90-98c62 0 83 45 84 108H66c0 31 8 55 39 56 18 0 30-7 34-22zm-45-69c5-46-57-63-70-21-2 6-4 13-4 21h74" id="z"/><path d="M88-194c31-1 46 15 58 34l-1-101h50l1 261h-48c-2-10 0-23-3-31C134-8 116 4 84 4 32 4 16-41 15-95c0-56 19-97 73-99zm17 164c33 0 40-30 41-66 1-37-9-64-41-64s-38 30-39 65c0 43 13 65 39 65" id="A"/><path d="M195-6C206 82 75 100 31 46c-4-6-6-13-8-21l49-6c3 16 16 24 34 25 40 0 42-37 40-79-11 22-30 35-61 35-53 0-70-43-70-97 0-56 18-96 73-97 30 0 46 14 59 34l2-30h47zm-90-29c32 0 41-27 41-63 0-35-9-62-40-62-32 0-39 29-40 63 0 36 9 62 39 62" id="B"/><path d="M135-150c-39-12-60 13-60 57V0H25l-1-190h47c2 13-1 29 3 40 6-28 27-53 61-41v41" id="C"/><path d="M199 0l-22-63H83L61 0H9l90-248h61L250 0h-51zm-33-102l-36-108c-10 38-24 72-36 108h72" id="D"/><path d="M135-194c53 0 70 44 70 98 0 56-19 98-73 100-31 1-45-17-59-34 3 33 2 69 2 105H25l-1-265h48c2 10 0 23 3 31 11-24 29-35 60-35zM114-30c33 0 39-31 40-66 0-38-9-64-40-64-56 0-55 130 0 130" id="E"/><path d="M25-224v-37h50v37H25zM25 0v-190h50V0H25" id="F"/><path d="M169-182c-1-43-94-46-97-3 18 66 151 10 154 114 3 95-165 93-204 36-6-8-10-19-12-30l50-8c3 46 112 56 116 5-17-69-150-10-154-114-4-87 153-88 188-35 5 8 8 18 10 28" id="G"/><path d="M128 0H69L1-190h53L99-40l48-150h52" id="H"/><g id="c"><use transform="matrix(0.05,0,0,0.05,0,0)" xlink:href="#u"/><use transform="matrix(0.05,0,0,0.05,10.5,0)" xlink:href="#v"/><use transform="matrix(0.05,0,0,0.05,19.5,0)" xlink:href="#w"/><use transform="matrix(0.05,0,0,0.05,30,0)" xlink:href="#x"/><use transform="matrix(0.05,0,0,0.05,35,0)" xlink:href="#y"/><use transform="matrix(0.05,0,0,0.05,45.95,0)" xlink:href="#z"/><use transform="matrix(0.05,0,0,0.05,55.95,0)" xlink:href="#A"/><use transform="matrix(0.05,0,0,0.05,66.9,0)" xlink:href="#B"/><use transform="matrix(0.05,0,0,0.05,77.85000000000001,0)" xlink:href="#z"/><use transform="matrix(0.05,0,0,0.05,87.85000000000001,0)" xlink:href="#C"/><use transform="matrix(0.05,0,0,0.05,94.85000000000001,0)" xlink:href="#D"/><use transform="matrix(0.05,0,0,0.05,107.80000000000001,0)" xlink:href="#E"/><use transform="matrix(0.05,0,0,0.05,118.75,0)" xlink:href="#F"/><use transform="matrix(0.05,0,0,0.05,123.75,0)" xlink:href="#G"/><use transform="matrix(0.05,0,0,0.05,135.75,0)" xlink:href="#z"/><use transform="matrix(0.05,0,0,0.05,145.75,0)" xlink:href="#C"/><use transform="matrix(0.05,0,0,0.05,152.75,0)" xlink:href="#H"/><use transform="matrix(0.05,0,0,0.05,162.75,0)" xlink:href="#z"/><use transform="matrix(0.05,0,0,0.05,172.75,0)" xlink:href="#C"/></g><path fill="#999" d="M96-169c-40 0-48 33-48 73s9 75 48 75c24 0 41-14 43-38l32 2c-6 37-31 61-74 61-59 0-76-41-82-99-10-93 101-131 147-64 4 7 5 14 7 22l-32 3c-4-21-16-35-41-35" id="I"/><path fill="#999" d="M100-194c62-1 85 37 85 99 1 63-27 99-86 99S16-35 15-95c0-66 28-99 85-99zM99-20c44 1 53-31 53-75 0-43-8-75-51-75s-53 32-53 75 10 74 51 75" id="J"/><path fill="#999" d="M210-169c-67 3-38 105-44 169h-31v-121c0-29-5-50-35-48C34-165 62-65 56 0H25l-1-190h30c1 10-1 24 2 32 10-44 99-50 107 0 11-21 27-35 58-36 85-2 47 119 55 194h-31v-121c0-29-5-49-35-48" id="K"/><path fill="#999" d="M33 0v-38h34V0H33" id="L"/><path fill="#999" d="M85-194c31 0 48 13 60 33l-1-100h32l1 261h-30c-2-10 0-23-3-31C134-8 116 4 85 4 32 4 16-35 15-94c0-66 23-100 70-100zm9 24c-40 0-46 34-46 75 0 40 6 74 45 74 42 0 51-32 51-76 0-42-9-74-50-73" id="M"/><path fill="#999" d="M141-36C126-15 110 5 73 4 37 3 15-17 15-53c-1-64 63-63 125-63 3-35-9-54-41-54-24 1-41 7-42 31l-33-3c5-37 33-52 76-52 45 0 72 20 72 64v82c-1 20 7 32 28 27v20c-31 9-61-2-59-35zM48-53c0 20 12 33 32 33 41-3 63-29 60-74-43 2-92-5-92 41" id="N"/><path fill="#999" d="M24 0v-261h32V0H24" id="O"/><path fill="#999" d="M100-194c63 0 86 42 84 106H49c0 40 14 67 53 68 26 1 43-12 49-29l28 8c-11 28-37 45-77 45C44 4 14-33 15-96c1-61 26-98 85-98zm52 81c6-60-76-77-97-28-3 7-6 17-6 28h103" id="P"/><path fill="#999" d="M177-190C167-65 218 103 67 71c-23-6-38-20-44-43l32-5c15 47 100 32 89-28v-30C133-14 115 1 83 1 29 1 15-40 15-95c0-56 16-97 71-98 29-1 48 16 59 35 1-10 0-23 2-32h30zM94-22c36 0 50-32 50-73 0-42-14-75-50-75-39 0-46 34-46 75s6 73 46 73" id="Q"/><path fill="#999" d="M114-163C36-179 61-72 57 0H25l-1-190h30c1 12-1 29 2 39 6-27 23-49 58-41v29" id="R"/><g id="d"><use transform="matrix(0.05,0,0,0.05,0,0)" xlink:href="#I"/><use transform="matrix(0.05,0,0,0.05,9,0)" xlink:href="#J"/><use transform="matrix(0.05,0,0,0.05,19,0)" xlink:href="#K"/><use transform="matrix(0.05,0,0,0.05,33.95,0)" xlink:href="#L"/><use transform="matrix(0.05,0,0,0.05,38.95,0)" xlink:href="#M"/><use transform="matrix(0.05,0,0,0.05,48.95,0)" xlink:href="#N"/><use transform="matrix(0.05,0,0,0.05,58.95,0)" xlink:href="#K"/><use transform="matrix(0.05,0,0,0.05,73.9,0)" xlink:href="#O"/><use transform="matrix(0.05,0,0,0.05,77.85000000000001,0)" xlink:href="#L"/><use transform="matrix(0.05,0,0,0.05,82.85000000000001,0)" xlink:href="#O"/><use transform="matrix(0.05,0,0,0.05,86.80000000000001,0)" xlink:href="#P"/><use transform="matrix(0.05,0,0,0.05,96.80000000000001,0)" xlink:href="#M"/><use transform="matrix(0.05,0,0,0.05,106.80000000000001,0)" xlink:href="#Q"/><use transform="matrix(0.05,0,0,0.05,116.80000000000001,0)" xlink:href="#P"/><use transform="matrix(0.05,0,0,0.05,126.80000000000001,0)" xlink:href="#R"/><use transform="matrix(0.05,0,0,0.05,131.75,0)" xlink:href="#L"/></g><path d="M115-194c55 1 70 41 70 98S169 2 115 4C84 4 66-9 55-30l1 105H24l-1-265h31l2 30c10-21 28-34 59-34zm-8 174c40 0 45-34 45-75s-6-73-45-74c-42 0-51 32-51 76 0 43 10 73 51 73" id="S"/><path d="M141-36C126-15 110 5 73 4 37 3 15-17 15-53c-1-64 63-63 125-63 3-35-9-54-41-54-24 1-41 7-42 31l-33-3c5-37 33-52 76-52 45 0 72 20 72 64v82c-1 20 7 32 28 27v20c-31 9-61-2-59-35zM48-53c0 20 12 33 32 33 41-3 63-29 60-74-43 2-92-5-92 41" id="T"/><path d="M114-163C36-179 61-72 57 0H25l-1-190h30c1 12-1 29 2 39 6-27 23-49 58-41v29" id="U"/><path d="M59-47c-2 24 18 29 38 22v24C64 9 27 4 27-40v-127H5v-23h24l9-43h21v43h35v23H59v120" id="V"/><path d="M24-231v-30h32v30H24zM24 0v-190h32V0H24" id="W"/><path d="M96-169c-40 0-48 33-48 73s9 75 48 75c24 0 41-14 43-38l32 2c-6 37-31 61-74 61-59 0-76-41-82-99-10-93 101-131 147-64 4 7 5 14 7 22l-32 3c-4-21-16-35-41-35" id="X"/><path d="M117-194c89-4 53 116 60 194h-32v-121c0-31-8-49-39-48C34-167 62-67 57 0H25l-1-190h30c1 10-1 24 2 32 11-22 29-35 61-36" id="Y"/><path d="M135-143c-3-34-86-38-87 0 15 53 115 12 119 90S17 21 10-45l28-5c4 36 97 45 98 0-10-56-113-15-118-90-4-57 82-63 122-42 12 7 21 19 24 35" id="Z"/><path d="M100-194c63 0 86 42 84 106H49c0 40 14 67 53 68 26 1 43-12 49-29l28 8c-11 28-37 45-77 45C44 4 14-33 15-96c1-61 26-98 85-98zm52 81c6-60-76-77-97-28-3 7-6 17-6 28h103" id="aa"/><path d="M85-194c31 0 48 13 60 33l-1-100h32l1 261h-30c-2-10 0-23-3-31C134-8 116 4 85 4 32 4 16-35 15-94c0-66 23-100 70-100zm9 24c-40 0-46 34-46 75 0 40 6 74 45 74 42 0 51-32 51-76 0-42-9-74-50-73" id="ab"/><path d="M108 0H70L1-190h34L89-25l56-165h34" id="ac"/><path d="M27 0v-27h64v-190l-56 39v-29l58-41h29v221h61V0H27" id="ad"/><g id="e"><use transform="matrix(0.05,0,0,0.05,0,0)" xlink:href="#S"/><use transform="matrix(0.05,0,0,0.05,10,0)" xlink:href="#T"/><use transform="matrix(0.05,0,0,0.05,20,0)" xlink:href="#U"/><use transform="matrix(0.05,0,0,0.05,25.950000000000003,0)" xlink:href="#V"/><use transform="matrix(0.05,0,0,0.05,30.950000000000003,0)" xlink:href="#W"/><use transform="matrix(0.05,0,0,0.05,34.9,0)" xlink:href="#X"/><use transform="matrix(0.05,0,0,0.05,43.9,0)" xlink:href="#W"/><use transform="matrix(0.05,0,0,0.05,47.85,0)" xlink:href="#S"/><use transform="matrix(0.05,0,0,0.05,57.85,0)" xlink:href="#T"/><use transform="matrix(0.05,0,0,0.05,67.85,0)" xlink:href="#Y"/><use transform="matrix(0.05,0,0,0.05,77.85,0)" xlink:href="#V"/><use transform="matrix(0.05,0,0,0.05,82.85,0)" xlink:href="#x"/><use transform="matrix(0.05,0,0,0.05,87.85,0)" xlink:href="#Z"/><use transform="matrix(0.05,0,0,0.05,96.85,0)" xlink:href="#V"/><use transform="matrix(0.05,0,0,0.05,101.85,0)" xlink:href="#T"/><use transform="matrix(0.05,0,0,0.05,111.84999999999998,0)" xlink:href="#V"/><use transform="matrix(0.05,0,0,0.05,116.84999999999998,0)" xlink:href="#aa"/><use transform="matrix(0.05,0,0,0.05,126.84999999999998,0)" xlink:href="#x"/><use transform="matrix(0.05,0,0,0.05,131.85,0)" xlink:href="#W"/><use transform="matrix(0.05,0,0,0.05,135.79999999999998,0)" xlink:href="#Y"/><use transform="matrix(0.05,0,0,0.05,145.79999999999998,0)" xlink:href="#ab"/><use transform="matrix(0.05,0,0,0.05,155.79999999999998,0)" xlink:href="#aa"/><use transform="matrix(0.05,0,0,0.05,165.79999999999998,0)" xlink:href="#v"/><use transform="matrix(0.05,0,0,0.05,174.79999999999998,0)" xlink:href="#x"/><use transform="matrix(0.05,0,0,0.05,179.79999999999998,0)" xlink:href="#ac"/><use transform="matrix(0.05,0,0,0.05,188.79999999999998,0)" xlink:href="#ad"/><use transform="matrix(0.05,0,0,0.05,198.79999999999998,0)" xlink:href="#x"/></g><path d="M210-169c-67 3-38 105-44 169h-31v-121c0-29-5-50-35-48C34-165 62-65 56 0H25l-1-190h30c1 10-1 24 2 32 10-44 99-50 107 0 11-21 27-35 58-36 85-2 47 119 55 194h-31v-121c0-29-5-49-35-48" id="ae"/><path d="M24 0v-261h32V0H24" id="af"/><path d="M101-234c-31-9-42 10-38 44h38v23H63V0H32v-167H5v-23h27c-7-52 17-82 69-68v24" id="ag"/><g id="f"><use transform="matrix(0.05,0,0,0.05,0,0)" xlink:href="#W"/><use transform="matrix(0.05,0,0,0.05,3.95,0)" xlink:href="#ae"/><use transform="matrix(0.05,0,0,0.05,18.900000000000002,0)" xlink:href="#S"/><use transform="matrix(0.05,0,0,0.05,28.900000000000002,0)" xlink:href="#af"/><use transform="matrix(0.05,0,0,0.05,32.85,0)" xlink:href="#x"/><use transform="matrix(0.05,0,0,0.05,37.85,0)" xlink:href="#U"/><use transform="matrix(0.05,0,0,0.05,43.800000000000004,0)" xlink:href="#aa"/><use transform="matrix(0.05,0,0,0.05,53.800000000000004,0)" xlink:href="#ag"/><use transform="matrix(0.05,0,0,0.05,58.800000000000004,0)" xlink:href="#aa"/><use transform="matrix(0.05,0,0,0.05,68.80000000000001,0)" xlink:href="#U"/><use transform="matrix(0.05,0,0,0.05,74.75000000000001,0)" xlink:href="#aa"/><use transform="matrix(0.05,0,0,0.05,84.75000000000001,0)" xlink:href="#Y"/><use transform="matrix(0.05,0,0,0.05,94.75000000000001,0)" xlink:href="#X"/><use transform="matrix(0.05,0,0,0.05,103.75,0)" xlink:href="#aa"/><use transform="matrix(0.05,0,0,0.05,113.75,0)" xlink:href="#x"/></g><path d="M24 0v-248h52V0H24" id="ah"/><path d="M135-194c87-1 58 113 63 194h-50c-7-57 23-157-34-157-59 0-34 97-39 157H25l-1-190h47c2 12-1 28 3 38 12-26 28-41 61-42" id="ai"/><path d="M144 0l-44-69L55 0H2l70-98-66-92h53l41 62 40-62h54l-67 91 71 99h-54" id="aj"/><g id="g"><use transform="matrix(0.05,0,0,0.05,0,0)" xlink:href="#ah"/><use transform="matrix(0.05,0,0,0.05,5,0)" xlink:href="#ai"/><use transform="matrix(0.05,0,0,0.05,15.950000000000001,0)" xlink:href="#A"/><use transform="matrix(0.05,0,0,0.05,26.900000000000002,0)" xlink:href="#z"/><use transform="matrix(0.05,0,0,0.05,36.900000000000006,0)" xlink:href="#aj"/><use transform="matrix(0.05,0,0,0.05,46.900000000000006,0)" xlink:href="#z"/><use transform="matrix(0.05,0,0,0.05,56.900000000000006,0)" xlink:href="#C"/></g><g id="h"><use transform="matrix(0.05,0,0,0.05,0,0)" xlink:href="#I"/><use transform="matrix(0.05,0,0,0.05,9,0)" xlink:href="#J"/><use transform="matrix(0.05,0,0,0.05,19,0)" xlink:href="#K"/><use transform="matrix(0.05,0,0,0.05,33.95,0)" xlink:href="#L"/><use transform="matrix(0.05,0,0,0.05,38.95,0)" xlink:href="#M"/><use transform="matrix(0.05,0,0,0.05,48.95,0)" xlink:href="#N"/><use transform="matrix(0.05,0,0,0.05,58.95,0)" xlink:href="#K"/><use transform="matrix(0.05,0,0,0.05,73.9,0)" xlink:href="#O"/><use transform="matrix(0.05,0,0,0.05,77.85000000000001,0)" xlink:href="#L"/><use transform="matrix(0.05,0,0,0.05,82.85000000000001,0)" xlink:href="#O"/><use transform="matrix(0.05,0,0,0.05,86.80000000000001,0)" xlink:href="#P"/><use transform="matrix(0.05,0,0,0.05,96.80000000000001,0)" xlink:href="#M"/><use transform="matrix(0.05,0,0,0.05,106.80000000000001,0)" xlink:href="#Q"/><use transform="matrix(0.05,0,0,0.05,116.80000000000001,0)" xlink:href="#P"/><use transform="matrix(0.05,0,0,0.05,126.80000000000001,0)" xlink:href="#R"/><use transform="matrix(0.05,0,0,0.05,131.75,0)" xlink:href="#L"/></g><g id="i"><use transform="matrix(0.05,0,0,0.05,0,0)" xlink:href="#S"/><use transform="matrix(0.05,0,0,0.05,10,0)" xlink:href="#T"/><use transform="matrix(0.05,0,0,0.05,20,0)" xlink:href="#U"/><use transform="matrix(0.05,0,0,0.05,25.950000000000003,0)" xlink:href="#V"/><use transform="matrix(0.05,0,0,0.05,30.950000000000003,0)" xlink:href="#W"/><use transform="matrix(0.05,0,0,0.05,34.9,0)" xlink:href="#X"/><use transform="matrix(0.05,0,0,0.05,43.9,0)" xlink:href="#W"/><use transform="matrix(0.05,0,0,0.05,47.85,0)" xlink:href="#S"/><use transform="matrix(0.05,0,0,0.05,57.85,0)" xlink:href="#T"/><use transform="matrix(0.05,0,0,0.05,67.85,0)" xlink:href="#Y"/><use transform="matrix(0.05,0,0,0.05,77.85,0)" xlink:href="#V"/><use transform="matrix(0.05,0,0,0.05,82.85,0)" xlink:href="#x"/><use transform="matrix(0.05,0,0,0.05,87.85,0)" xlink:href="#Z"/><use transform="matrix(0.05,0,0,0.05,96.85,0)" xlink:href="#V"/><use transform="matrix(0.05,0,0,0.05,101.85,0)" xlink:href="#T"/><use transform="matrix(0.05,0,0,0.05,111.84999999999998,0)" xlink:href="#V"/><use transform="matrix(0.05,0,0,0.05,116.84999999999998,0)" xlink:href="#aa"/><use transform="matrix(0.05,0,0,0.05,126.84999999999998,0)" xlink:href="#x"/><use transform="matrix(0.05,0,0,0.05,131.85,0)" xlink:href="#ac"/><use transform="matrix(0.05,0,0,0.05,140.85,0)" xlink:href="#ad"/><use transform="matrix(0.05,0,0,0.05,150.85,0)" xlink:href="#x"/></g><path d="M240-174c0 40-23 61-54 70L253 0h-59l-57-94H76V0H24v-248c93 4 217-23 216 74zM76-134c48-2 112 12 112-38 0-48-66-32-112-35v73" id="ak"/><path d="M133-34C117-15 103 5 69 4 32 3 11-16 11-54c-1-60 55-63 116-61 1-26-3-47-28-47-18 1-26 9-28 27l-52-2c7-38 36-58 82-57s74 22 75 68l1 82c-1 14 12 18 25 15v27c-30 8-71 5-69-32zm-48 3c29 0 43-24 42-57-32 0-66-3-65 30 0 17 8 27 23 27" id="al"/><path d="M190-63c-7 42-38 67-86 67-59 0-84-38-90-98-12-110 154-137 174-36l-49 2c-2-19-15-32-35-32-30 0-35 28-38 64-6 74 65 87 74 30" id="am"/><g id="j"><use transform="matrix(0.05,0,0,0.05,0,0)" xlink:href="#ak"/><use transform="matrix(0.05,0,0,0.05,12.950000000000001,0)" xlink:href="#z"/><use transform="matrix(0.05,0,0,0.05,22.950000000000003,0)" xlink:href="#al"/><use transform="matrix(0.05,0,0,0.05,32.95,0)" xlink:href="#A"/><use transform="matrix(0.05,0,0,0.05,43.900000000000006,0)" xlink:href="#G"/><use transform="matrix(0.05,0,0,0.05,55.900000000000006,0)" xlink:href="#z"/><use transform="matrix(0.05,0,0,0.05,65.9,0)" xlink:href="#C"/><use transform="matrix(0.05,0,0,0.05,72.9,0)" xlink:href="#H"/><use transform="matrix(0.05,0,0,0.05,82.9,0)" xlink:href="#F"/><use transform="matrix(0.05,0,0,0.05,87.9,0)" xlink:href="#am"/><use transform="matrix(0.05,0,0,0.05,97.9,0)" xlink:href="#z"/></g><path d="M182-130c37 4 62 22 62 59C244 23 116-4 24 0v-248c84 5 203-23 205 63 0 31-19 50-47 55zM76-148c40-3 101 13 101-30 0-44-60-28-101-31v61zm0 110c48-3 116 14 116-37 0-48-69-32-116-35v72" id="an"/><path d="M147 0L96-86 75-71V0H25v-261h50v150l67-79h53l-66 74L201 0h-54" id="ao"/><g id="k"><use transform="matrix(0.05,0,0,0.05,0,0)" xlink:href="#u"/><use transform="matrix(0.05,0,0,0.05,10.5,0)" xlink:href="#v"/><use transform="matrix(0.05,0,0,0.05,19.5,0)" xlink:href="#w"/><use transform="matrix(0.05,0,0,0.05,30,0)" xlink:href="#x"/><use transform="matrix(0.05,0,0,0.05,35,0)" xlink:href="#an"/><use transform="matrix(0.05,0,0,0.05,47.95,0)" xlink:href="#al"/><use transform="matrix(0.05,0,0,0.05,57.95,0)" xlink:href="#am"/><use transform="matrix(0.05,0,0,0.05,67.95,0)" xlink:href="#ao"/><use transform="matrix(0.05,0,0,0.05,77.95,0)" xlink:href="#z"/><use transform="matrix(0.05,0,0,0.05,87.95,0)" xlink:href="#ai"/><use transform="matrix(0.05,0,0,0.05,98.9,0)" xlink:href="#A"/></g><path d="M100-194c62-1 85 37 85 99 1 63-27 99-86 99S16-35 15-95c0-66 28-99 85-99zM99-20c44 1 53-31 53-75 0-43-8-75-51-75s-53 32-53 75 10 74 51 75" id="ap"/><g id="l"><use transform="matrix(0.05,0,0,0.05,0,0)" xlink:href="#T"/><use transform="matrix(0.05,0,0,0.05,10,0)" xlink:href="#S"/><use transform="matrix(0.05,0,0,0.05,20,0)" xlink:href="#W"/><use transform="matrix(0.05,0,0,0.05,23.95,0)" xlink:href="#x"/><use transform="matrix(0.05,0,0,0.05,28.950000000000003,0)" xlink:href="#Z"/><use transform="matrix(0.05,0,0,0.05,37.95,0)" xlink:href="#aa"/><use transform="matrix(0.05,0,0,0.05,47.95,0)" xlink:href="#U"/><use transform="matrix(0.05,0,0,0.05,53.900000000000006,0)" xlink:href="#ac"/><use transform="matrix(0.05,0,0,0.05,62.900000000000006,0)" xlink:href="#aa"/><use transform="matrix(0.05,0,0,0.05,72.9,0)" xlink:href="#U"/><use transform="matrix(0.05,0,0,0.05,77.85000000000001,0)" xlink:href="#x"/><use transform="matrix(0.05,0,0,0.05,82.85000000000001,0)" xlink:href="#ab"/><use transform="matrix(0.05,0,0,0.05,92.85000000000001,0)" xlink:href="#T"/><use transform="matrix(0.05,0,0,0.05,102.85000000000001,0)" xlink:href="#ae"/><use transform="matrix(0.05,0,0,0.05,117.80000000000001,0)" xlink:href="#af"/><use transform="matrix(0.05,0,0,0.05,121.75,0)" xlink:href="#ap"/><use transform="matrix(0.05,0,0,0.05,131.75,0)" xlink:href="#Y"/><use transform="matrix(0.05,0,0,0.05,141.75,0)" xlink:href="#v"/><use transform="matrix(0.05,0,0,0.05,150.75,0)" xlink:href="#x"/></g><g id="m"><use transform="matrix(0.05,0,0,0.05,0,0)" xlink:href="#G"/><use transform="matrix(0.05,0,0,0.05,12,0)" xlink:href="#z"/><use transform="matrix(0.05,0,0,0.05,22,0)" xlink:href="#C"/><use transform="matrix(0.05,0,0,0.05,29,0)" xlink:href="#H"/><use transform="matrix(0.05,0,0,0.05,39,0)" xlink:href="#z"/><use transform="matrix(0.05,0,0,0.05,49,0)" xlink:href="#C"/></g><path d="M15-91v-56l181-69v40L49-119l147 57v40" id="aq"/><path d="M182 0l-62-99L58 0H3l86-130-79-118h55l55 88 55-88h55l-75 118L237 0h-55" id="ar"/><path d="M15-22v-40l146-57-146-57v-40l181 69v56" id="as"/><g id="n"><use transform="matrix(0.05,0,0,0.05,0,0)" xlink:href="#aq"/><use transform="matrix(0.05,0,0,0.05,10.5,0)" xlink:href="#ar"/><use transform="matrix(0.05,0,0,0.05,22.5,0)" xlink:href="#as"/></g><path d="M137-138c1-29-70-34-71-4 15 46 118 7 119 86 1 83-164 76-172 9l43-7c4 19 20 25 44 25 33 8 57-30 24-41C81-84 22-81 20-136c-2-80 154-74 161-7" id="at"/><g id="o"><use transform="matrix(0.05,0,0,0.05,0,0)" xlink:href="#at"/><use transform="matrix(0.05,0,0,0.05,10,0)" xlink:href="#z"/><use transform="matrix(0.05,0,0,0.05,20,0)" xlink:href="#C"/><use transform="matrix(0.05,0,0,0.05,27,0)" xlink:href="#H"/><use transform="matrix(0.05,0,0,0.05,37,0)" xlink:href="#F"/><use transform="matrix(0.05,0,0,0.05,42,0)" xlink:href="#am"/><use transform="matrix(0.05,0,0,0.05,52,0)" xlink:href="#z"/><use transform="matrix(0.05,0,0,0.05,62,0)" xlink:href="#at"/></g><g id="p"><use transform="matrix(0.05,0,0,0.05,0,0)" xlink:href="#y"/><use transform="matrix(0.05,0,0,0.05,10.950000000000001,0)" xlink:href="#z"/><use transform="matrix(0.05,0,0,0.05,20.950000000000003,0)" xlink:href="#A"/><use transform="matrix(0.05,0,0,0.05,31.900000000000006,0)" xlink:href="#B"/><use transform="matrix(0.05,0,0,0.05,42.85000000000001,0)" xlink:href="#z"/><use transform="matrix(0.05,0,0,0.05,52.85,0)" xlink:href="#C"/></g><path d="M24-248c93 1 206-16 204 79-1 75-69 88-152 82V0H24v-248zm52 121c47 0 100 7 100-41 0-47-54-39-100-39v80" id="au"/><g id="q"><use transform="matrix(0.05,0,0,0.05,0,0)" xlink:href="#D"/><use transform="matrix(0.05,0,0,0.05,12.950000000000001,0)" xlink:href="#au"/><use transform="matrix(0.05,0,0,0.05,24.950000000000003,0)" xlink:href="#ah"/></g><path d="M275 0h-61l-44-196L126 0H64L0-248h53L97-49l45-199h58l43 199 44-199h52" id="av"/><path d="M115-3C79 11 28 4 28-45v-112H4v-33h27l15-45h31v45h36v33H77v99c-1 23 16 31 38 25v30" id="aw"/><g id="r"><use transform="matrix(0.05,0,0,0.05,0,0)" xlink:href="#av"/><use transform="matrix(0.05,0,0,0.05,16.599999999999998,0)" xlink:href="#C"/><use transform="matrix(0.05,0,0,0.05,23.599999999999998,0)" xlink:href="#F"/><use transform="matrix(0.05,0,0,0.05,28.599999999999994,0)" xlink:href="#aw"/><use transform="matrix(0.05,0,0,0.05,34.55,0)" xlink:href="#z"/><use transform="matrix(0.05,0,0,0.05,44.55,0)" xlink:href="#G"/><use transform="matrix(0.05,0,0,0.05,56.54999999999999,0)" xlink:href="#z"/><use transform="matrix(0.05,0,0,0.05,66.55,0)" xlink:href="#C"/><use transform="matrix(0.05,0,0,0.05,73.55,0)" xlink:href="#H"/><use transform="matrix(0.05,0,0,0.05,83.55,0)" xlink:href="#F"/><use transform="matrix(0.05,0,0,0.05,88.55,0)" xlink:href="#am"/><use transform="matrix(0.05,0,0,0.05,98.55,0)" xlink:href="#z"/></g><g id="s"><use transform="matrix(0.05,0,0,0.05,0,0)" xlink:href="#S"/><use transform="matrix(0.05,0,0,0.05,10,0)" xlink:href="#T"/><use transform="matrix(0.05,0,0,0.05,20,0)" xlink:href="#U"/><use transform="matrix(0.05,0,0,0.05,25.950000000000003,0)" xlink:href="#V"/><use transform="matrix(0.05,0,0,0.05,30.950000000000003,0)" xlink:href="#W"/><use transform="matrix(0.05,0,0,0.05,34.9,0)" xlink:href="#X"/><use transform="matrix(0.05,0,0,0.05,43.9,0)" xlink:href="#W"/><use transform="matrix(0.05,0,0,0.05,47.85,0)" xlink:href="#S"/><use transform="matrix(0.05,0,0,0.05,57.85,0)" xlink:href="#T"/><use transform="matrix(0.05,0,0,0.05,67.85,0)" xlink:href="#Y"/><use transform="matrix(0.05,0,0,0.05,77.85,0)" xlink:href="#V"/><use transform="matrix(0.05,0,0,0.05,82.85,0)" xlink:href="#x"/><use transform="matrix(0.05,0,0,0.05,87.85,0)" xlink:href="#Z"/><use transform="matrix(0.05,0,0,0.05,96.85,0)" xlink:href="#V"/><use transform="matrix(0.05,0,0,0.05,101.85,0)" xlink:href="#T"/><use transform="matrix(0.05,0,0,0.05,111.84999999999998,0)" xlink:href="#V"/><use transform="matrix(0.05,0,0,0.05,116.84999999999998,0)" xlink:href="#aa"/><use transform="matrix(0.05,0,0,0.05,126.84999999999998,0)" xlink:href="#x"/><use transform="matrix(0.05,0,0,0.05,131.85,0)" xlink:href="#W"/><use transform="matrix(0.05,0,0,0.05,135.79999999999998,0)" xlink:href="#Y"/><use transform="matrix(0.05,0,0,0.05,145.79999999999998,0)" xlink:href="#ab"/><use transform="matrix(0.05,0,0,0.05,155.79999999999998,0)" xlink:href="#aa"/><use transform="matrix(0.05,0,0,0.05,165.79999999999998,0)" xlink:href="#v"/><use transform="matrix(0.05,0,0,0.05,174.79999999999998,0)" xlink:href="#x"/><use transform="matrix(0.05,0,0,0.05,179.79999999999998,0)" xlink:href="#ac"/><use transform="matrix(0.05,0,0,0.05,188.79999999999998,0)" xlink:href="#ad"/><use transform="matrix(0.05,0,0,0.05,198.79999999999998,0)" xlink:href="#x"/></g><g id="t"><use transform="matrix(0.05,0,0,0.05,0,0)" xlink:href="#ah"/><use transform="matrix(0.05,0,0,0.05,5,0)" xlink:href="#ai"/><use transform="matrix(0.05,0,0,0.05,15.950000000000001,0)" xlink:href="#A"/><use transform="matrix(0.05,0,0,0.05,26.900000000000002,0)" xlink:href="#z"/><use transform="matrix(0.05,0,0,0.05,36.900000000000006,0)" xlink:href="#aj"/><use transform="matrix(0.05,0,0,0.05,46.900000000000006,0)" xlink:href="#G"/><use transform="matrix(0.05,0,0,0.05,58.900000000000006,0)" xlink:href="#z"/><use transform="matrix(0.05,0,0,0.05,68.9,0)" xlink:href="#C"/><use transform="matrix(0.05,0,0,0.05,75.9,0)" xlink:href="#H"/><use transform="matrix(0.05,0,0,0.05,85.9,0)" xlink:href="#F"/><use transform="matrix(0.05,0,0,0.05,90.9,0)" xlink:href="#am"/><use transform="matrix(0.05,0,0,0.05,100.9,0)" xlink:href="#z"/></g></defs></g></svg>
