<?xml version="1.0" standalone="no"?>
<!DOCTYPE svg PUBLIC "-//W3C//DTD SVG 1.1//EN" "http://www.w3.org/Graphics/SVG/1.1/DTD/svg11.dtd">
<svg xmlns="http://www.w3.org/2000/svg">
<defs >
<font id="SourceCodePro" horiz-adv-x="600" ><font-face
    font-family="Source Code Pro Semibold"
    units-per-em="1000"
    panose-1="2 11 6 9 3 4 3 2 2 4"
    ascent="984"
    descent="-273"
    alphabetic="0" />
<glyph unicode=" " glyph-name="space" />
<glyph unicode="!" glyph-name="exclam" d="M262 244L246 556L243 670H357L354 556L338 244H262ZM300 -12Q263 -12 238 12T213 78Q213 118 238 142T300 166Q337 166 362 142T387 78Q387 37 362 13T300 -12Z" />
<glyph unicode="&quot;" glyph-name="quotedbl" d="M396 327L366 558L363 686H503L500 558L470 327H396ZM387 327L357 558L354 686H494L491 558L461 327H387Z" />
<glyph unicode="#" glyph-name="numbersign" d="M319 0L343 195H225L202 0H132L156 195H78V271H165L181 400H98V476H191L212 650H280L259 476H378L399 650H468L447 476H526V400H438L422 271H506V195H413L389 0H319ZM352 271L368 400H250L235 271H352Z" />
<glyph unicode="$" glyph-name="dollar" d="M74 114L126 193Q169 164 213 146T309 128Q357 128 381 146T406 194Q406 220 384 237T327 268T254 297T181 333T125 383T102 458Q102 523 146 564T265 615V746H345V616Q398 610 435 589T504 537L446 470Q411 496 380
510T302 524Q260 524 237 507T213 460Q213 437 235 422T292 394T365 366T439 330T495 279T518 202Q518 138 473 94T345 37V-110H265V35Q213 40 162 61T74 114Z" />
<glyph unicode="%" glyph-name="percent" d="M171 316Q140 316 114 327T68 361T38 414T27 484Q27 523 38 553T68 605T113 637T171 648Q202 648 228 637T274 605T304 554T315 484Q315 445 304 414T274 361T229 328T171 316ZM171 380Q197 380 215 404T233 484Q233
540 215 562T171 584Q145 584 127 562T109 484Q109 428 127 404T171 380ZM84 30L22 89L207 270L249 231L84 30ZM393 384L351 423L516 624L578 565L393 384ZM430 -12Q399 -12 373 -1T327 33T297 86T286 156Q286 195 297 225T327 277T372 309T430 320Q461 320 487
309T533 277T563 226T574 156Q574 117 563 86T533 33T488 0T430 -12ZM430 52Q456 52 474 76T492 156Q492 212 474 234T430 256Q404 256 386 234T368 156Q368 100 386 76T430 52Z" />
<glyph unicode="&amp;" glyph-name="ampersand" d="M235 -12Q188 -12 150 2T86 41T46 99T32 172Q32 205 41 231T66 280T102 320T146 355Q126 395 115 432T103 503Q103 537 114 566T145 618T193 653T256 666Q323 666 360 628T398 527Q398 495 387 469T356 421T314
378T265 339Q294 299 329 261T404 191Q450 262 472 361H578Q561 299 537 242T480 134Q508 115 533 102T582 82L553 -12Q487 6 415 56Q379 25 335 7T235 -12ZM199 504Q199 461 224 409Q259 434 283 461T308 526Q308 552 297 570T257 588Q231 588 215 565T199 504ZM249
77Q273 77 296 87T340 115Q298 151 261 192T192 279Q170 257 156 233T142 179Q142 133 172 105T249 77Z" />
<glyph unicode="&apos;" glyph-name="quotesingle" d="M263 327L233 558L230 686H370L367 558L337 327H263Z" />
<glyph unicode="(" glyph-name="parenleft" d="M412 -177Q311 -93 253 21T194 278Q194 421 252 535T412 733L476 680Q381 594 337 497T293 278Q293 156 337 59T476 -124L412 -177Z" />
<glyph unicode=")" glyph-name="parenright" d="M188 -177L124 -124Q219 -38 263 59T307 278Q307 400 263 497T124 680L188 733Q289 649 347 535T406 278Q406 135 348 21T188 -177Z" />
<glyph unicode="*" glyph-name="asterisk" d="M182 101L129 138L232 299L74 368L93 427L258 378L268 561H332L342 378L507 427L526 368L368 299L471 138L418 101L300 251L182 101Z" />
<glyph unicode="+" glyph-name="plus" d="M256 99V288H78V372H256V561H344V372H522V288H344V99H256Z" />
<glyph unicode="," glyph-name="comma" d="M219 -215L189 -146Q314 -95 317 8Q312 7 303 7Q265 7 237 29T209 96Q209 138 237 161T305 185Q359 185 386 145T413 35Q413 -57 363 -120T219 -215Z" />
<glyph unicode="-" glyph-name="hyphen" d="M78 288V372H522V288H78Z" />
<glyph unicode="." glyph-name="period" d="M300 -12Q257 -12 229 16T201 89Q201 133 229 161T300 190Q343 190 371 162T399 89Q399 45 371 17T300 -12Z" />
<glyph unicode="/" glyph-name="slash" d="M86 -160L415 710H514L185 -160H86Z" />
<glyph unicode="0" glyph-name="zero" d="M300 -12Q191 -12 128 74T64 321Q64 483 127 565T300 648Q409 648 472 566T536 321Q536 160 473 74T300 -12ZM300 78Q328 78 352 91T394 134T422 209T432 321Q432 386 422 431T395 505T353 545T300 558Q271 558 247 546T206
505T178 432T168 321Q168 256 178 210T205 134T247 92T300 78ZM300 254Q271 254 251 273T231 325Q231 358 251 377T300 396Q329 396 349 377T369 325Q369 292 349 273T300 254Z" />
<glyph unicode="1" glyph-name="one" d="M88 0V94H265V512H124V584Q154 588 178 593T222 605T261 619T296 636H380V94H536V0H88Z" />
<glyph unicode="2" glyph-name="two" d="M65 0V67Q140 131 199 184T299 284T363 370T385 447Q385 498 354 527T263 557Q221 557 187 536T123 486L60 550Q106 597 157 622T278 648Q327 648 367 634T435 595T479 533T495 453Q495 411 475 368T419 280T336 188T232
91Q260 93 291 95T348 98H528V0H65Z" />
<glyph unicode="3" glyph-name="three" d="M283 -12Q201 -12 143 14T50 78L104 152Q136 123 178 103T273 82Q332 82 370 107T409 178Q409 203 398 223T363 257T298 278T198 286V370Q249 370 285 377T343 398T376 431T387 472Q387 512 357 534T275 557Q233 557
198 541T130 497L70 568Q114 604 166 626T280 648Q329 648 370 637T440 605T486 552T503 480Q503 426 468 390T374 334V330Q405 322 432 309T480 275T513 229T525 172Q525 128 506 94T453 37T376 1T283 -12Z" />
<glyph unicode="4" glyph-name="four" d="M354 0V164H37V242L329 637H462V253H552V164H462V0H354ZM154 253H354V405Q355 434 356 468T360 531H355Q339 506 322 481T288 430L154 253Z" />
<glyph unicode="5" glyph-name="five" d="M284 -12Q200 -12 145 14T51 76L104 150Q136 123 175 103T270 82Q330 82 370 114T411 204Q411 261 374 292T275 323Q240 323 215 315T157 287L102 322L122 636H497V539H222L208 385Q233 395 256 400T308 406Q353 406 393
394T462 358T509 296T527 207Q527 155 507 114T453 45T376 3T284 -12Z" />
<glyph unicode="6" glyph-name="six" d="M319 -12Q269 -12 224 6T144 63T89 160T68 299Q68 392 90 458T151 566T237 628T339 648Q402 648 449 627T529 576L467 506Q445 527 414 540T348 554Q314 554 284 542T230 502T192 429T175 317Q212 353 256 373T342 394Q385
394 421 382T483 346T525 284T540 197Q540 149 522 111T474 45T403 3T319 -12ZM318 76Q342 76 362 84T399 107T424 145T433 197Q433 254 403 282T318 310Q286 310 250 294T179 236Q190 151 227 114T318 76Z" />
<glyph unicode="7" glyph-name="seven" d="M209 0Q213 85 225 155T261 289T321 413T409 539H66V636H536V566Q474 497 435 435T373 307T340 168T326 0H209Z" />
<glyph unicode="8" glyph-name="eight" d="M301 -12Q246 -12 202 1T128 37T81 92T64 163Q64 194 74 219T103 263T144 298T193 326V330Q153 356 126 392T98 479Q98 518 113 549T156 602T221 636T304 648Q399 648 453 601T508 476Q508 431 480 394T413 331V327Q439
314 461 299T500 265T526 220T536 161Q536 124 521 93T475 38T401 1T301 -12ZM348 359Q411 410 411 469Q411 511 383 538T302 566Q257 566 229 544T200 479Q200 455 211 437T242 406T289 381T348 359ZM303 70Q361 70 394 95T427 165Q427 192 414 211T377 244T321
269T251 294Q214 272 190 244T166 175Q166 127 204 99T303 70Z" />
<glyph unicode="9" glyph-name="nine" d="M281 326Q315 326 352 343T421 401Q410 485 373 522T282 560Q258 560 237 552T201 529T176 492T166 440Q166 383 196 355T281 326ZM261 -12Q198 -12 150 9T70 60L132 130Q155 109 186 96T252 82Q285 82 315 94T369 134T408
207T425 319Q387 284 344 264T258 243Q215 243 179 255T116 291T75 353T60 440Q60 488 78 526T126 592T196 633T280 648Q331 648 376 630T456 573T511 477T531 338Q531 245 509 179T449 71T362 8T261 -12Z" />
<glyph unicode=":" glyph-name="colon" d="M300 328Q257 328 229 356T201 429Q201 473 229 501T300 530Q343 530 371 502T399 429Q399 385 371 357T300 328ZM300 -12Q257 -12 229 16T201 89Q201 133 229 161T300 190Q343 190 371 162T399 89Q399 45 371 17T300 -12Z" />
<glyph unicode=";" glyph-name="semicolon" d="M300 328Q257 328 229 356T201 429Q201 473 229 501T300 530Q343 530 371 502T399 429Q399 385 371 357T300 328ZM219 -215L189 -146Q314 -95 317 8Q312 7 303 7Q265 7 237 29T209 96Q209 138 237 161T305 185Q359
185 386 145T413 35Q413 -57 363 -120T219 -215Z" />
<glyph unicode="&lt;" glyph-name="less" d="M498 39L118 291V373L498 625V518L215 334V330L498 146V39Z" />
<glyph unicode="=" glyph-name="equal" d="M78 400V484H522V400H78ZM78 433V517H522V433H78Z" />
<glyph unicode="&gt;" glyph-name="greater" d="M102 39V146L385 330V334L102 518V625L482 373V291L102 39Z" />
<glyph unicode="?" glyph-name="question" d="M230 244Q224 278 233 305T258 354T295 394T334 431T364 467T377 508Q377 544 353 566T285 588Q250 588 222 574T169 536L104 596Q139 634 186 658T293 682Q335 682 371 672T433 641T473 591T488 522Q488 489 476
464T444 418T404 379T365 341T338 298T331 244H230ZM286 -12Q249 -12 224 12T199 78Q199 118 224 142T286 166Q323 166 348 142T373 78Q373 37 348 13T286 -12Z" />
<glyph unicode="@" glyph-name="at" d="M340 -146Q280 -146 226 -121T131 -47T65 78T40 252Q40 351 63 424T127 545T221 616T337 640Q391 640 431 622T497 571T535 494T548 398V100H484L475 154H471Q451 127 418 108T345 88Q318 88 295 98T254 126T227 169T217
224Q217 302 284 341T474 395V410Q474 442 466 470T440 521T396 555T333 568Q293 568 255 549T188 491T140 392T122 248Q122 169 140 109T188 9T258 -52T344 -73Q389 -73 420 -63T480 -32L516 -91Q475 -117 434 -131T340 -146ZM370 165Q394 165 417 178T463 215V324Q376
311 340 289T304 226Q304 197 321 181T370 165Z" />
<glyph unicode="A" glyph-name="A" d="M238 348L215 268H381L358 348Q344 400 329 454T300 564H296Q282 509 268 455T238 348ZM20 0L232 654H368L580 0H457L407 177H189L138 0H20Z" />
<glyph unicode="B" glyph-name="B" d="M86 0V654H289Q340 654 382 646T455 619T503 569T521 493Q521 446 494 406T408 351V347Q479 335 517 297T555 192Q555 143 537 107T485 47T406 12T306 0H86ZM202 385H279Q348 385 377 409T407 479Q407 524 376 542T281 561H202V385ZM202
93H294Q366 93 403 118T441 200Q441 252 405 274T294 297H202V93Z" />
<glyph unicode="C" glyph-name="C" d="M354 -12Q293 -12 240 10T146 75T83 181T60 325Q60 405 83 468T146 576T242 643T362 666Q423 666 470 641T549 584L485 512Q460 536 430 550T362 565Q321 565 288 549T230 502T193 427T179 328Q179 272 192 228T230 153T288
106T365 89Q405 89 437 106T498 154L562 83Q523 37 472 13T354 -12Z" />
<glyph unicode="D" glyph-name="D" d="M78 0V654H250Q395 654 476 573T558 330Q558 249 537 187T477 84T382 21T256 0H78ZM194 94H243Q337 94 388 151T439 330Q439 450 388 505T243 560H194V94Z" />
<glyph unicode="E" glyph-name="E" d="M103 0V654H522V556H219V389H476V291H219V98H532V0H103Z" />
<glyph unicode="F" glyph-name="F" d="M119 0V654H537V556H235V371H492V273H235V0H119Z" />
<glyph unicode="G" glyph-name="G" d="M340 -12Q278 -12 225 10T132 75T71 181T48 325Q48 406 70 469T132 576T226 643T345 666Q410 666 455 641T530 584L466 512Q443 535 416 550T345 565Q306 565 274 549T218 502T181 427T168 328Q168 216 213 153T347 89Q373
89 397 96T435 118V259H322V354H540V66Q508 34 456 11T340 -12Z" />
<glyph unicode="H" glyph-name="H" d="M72 0V654H188V391H412V654H528V0H412V290H188V0H72Z" />
<glyph unicode="I" glyph-name="I" d="M84 0V98H242V556H84V654H516V556H358V98H516V0H84Z" />
<glyph unicode="J" glyph-name="J" d="M274 -12Q247 -12 219 -6T164 13T113 46T70 96L138 168Q167 128 201 109T271 89Q331 89 360 120T389 226V557H124V654H505V216Q505 169 493 128T454 55T383 6T274 -12Z" />
<glyph unicode="K" glyph-name="K" d="M82 0V654H200V357H203L436 654H566L364 400L587 0H458L293 311L200 193V0H82Z" />
<glyph unicode="L" glyph-name="L" d="M120 0V654H235V98H542V0H120Z" />
<glyph unicode="M" glyph-name="M" d="M65 0V654H193L271 399L298 301H302L328 399L407 654H535V0H433V264Q433 290 435 326T439 400T445 473T450 532H447L403 380L331 173H265L194 380L151 532H148Q151 508 154 473T159 400T163 326T165 264V0H65Z" />
<glyph unicode="N" glyph-name="N" d="M74 0V654H196L369 287L428 147H431Q427 198 421 256T415 370V654H526V0H404L231 368L172 507H169Q173 454 179 398T185 286V0H74Z" />
<glyph unicode="O" glyph-name="O" d="M300 -12Q243 -12 196 10T115 76T62 184T43 330Q43 411 62 473T114 578T195 643T300 666Q357 666 404 644T485 579T538 474T557 330Q557 248 538 184T486 77T405 11T300 -12ZM300 89Q363 89 400 151T438 330Q438 443 401
504T300 565Q237 565 200 504T162 330Q162 214 199 152T300 89Z" />
<glyph unicode="P" glyph-name="P" d="M88 0V654H303Q357 654 402 644T481 610T533 548T552 452Q552 398 533 358T481 292T402 253T303 240H204V0H88ZM204 333H294Q438 333 438 452Q438 514 402 537T294 561H204V333Z" />
<glyph unicode="Q" glyph-name="Q" d="M300 83Q363 83 400 146T437 330Q437 443 400 504T300 566Q237 566 200 505T163 330Q163 209 200 146T300 83ZM484 -170Q392 -170 333 -124T245 -6Q154 14 99 100T44 330Q44 411 62 473T115 578T196 643T300 666Q357 666
404 644T485 579T537 474T556 330Q556 190 505 105T367 -3Q384 -42 419 -59T498 -76Q513 -76 526 -73T548 -64L569 -153Q553 -161 532 -165T484 -170Z" />
<glyph unicode="R" glyph-name="R" d="M84 0V654H302Q353 654 397 644T473 612T524 552T543 460Q543 385 508 339T413 273L569 0H438L298 256H200V0H84ZM200 348H290Q358 348 393 376T429 460Q429 517 394 539T290 561H200V348Z" />
<glyph unicode="S" glyph-name="S" d="M302 -12Q233 -12 170 13T58 84L126 163Q163 130 210 110T309 89Q366 89 396 111T426 168Q426 190 418 204T396 230T361 250T316 269L227 308Q201 318 176 333T131 369T99 418T87 482Q87 521 104 554T151 613T222 652T314
666Q374 666 428 644T524 583L464 509Q431 535 395 550T308 565Q261 565 233 545T204 488Q204 469 213 456T237 432T273 413T316 396L402 359Q433 347 459 331T504 294T533 246T544 182Q544 142 528 107T480 46T404 4T302 -12Z" />
<glyph unicode="T" glyph-name="T" d="M242 0V556H36V654H564V556H358V0H242Z" />
<glyph unicode="U" glyph-name="U" d="M301 -12Q194 -12 133 52T72 250V654H188V241Q188 160 218 125T301 89Q355 89 386 124T417 241V654H528V250Q528 115 469 52T301 -12Z" />
<glyph unicode="V" glyph-name="V" d="M232 0L28 654H151L243 325Q259 269 271 219T301 112H305Q322 169 334 219T362 325L453 654H572L369 0H232Z" />
<glyph unicode="W" glyph-name="W" d="M100 0L7 654H131L164 275Q167 234 169 199T173 118H176Q184 164 191 199T208 275L262 487H349L400 275Q410 234 417 200T432 118H436Q438 165 439 199T444 275L476 654H593L505 0H374L323 232Q316 263 311 293T302 354H299Q294
324 290 294T279 232L229 0H100Z" />
<glyph unicode="X" glyph-name="X" d="M36 0L228 337L48 654H177L254 509Q266 486 278 462T305 409H309Q322 438 333 462T355 509L429 654H552L372 332L564 0H436L351 154Q337 180 324 205T296 261H292Q278 231 266 206T241 154L159 0H36Z" />
<glyph unicode="Y" glyph-name="Y" d="M242 0V227L27 654H150L232 478Q249 440 265 404T299 327H303Q321 367 338 404T372 479L453 654H573L358 227V0H242Z" />
<glyph unicode="Z" glyph-name="Z" d="M61 0V70L396 557H91V654H539V584L203 98H543V0H61Z" />
<glyph unicode="[" glyph-name="bracketleft" d="M212 -152V708H499V645H302V-89H499V-152H212Z" />
<glyph unicode="\" glyph-name="backslash" d="M415 -160L86 710H185L514 -160H415Z" />
<glyph unicode="]" glyph-name="bracketright" d="M101 -152V-89H298V645H101V708H388V-152H101Z" />
<glyph unicode="^" glyph-name="asciicircum" d="M98 279L252 670H348L502 279H405L349 430L302 565H298L251 430L195 279H98Z" />
<glyph unicode="_" glyph-name="underscore" d="M60 -152V-62H540V-152H60Z" />
<glyph unicode="`" glyph-name="grave" d="M314 564L144 719L224 796L371 621L314 564Z" />
<glyph unicode="a" glyph-name="a" d="M235 -12Q199 -12 169 -2T117 28T83 73T71 132Q71 173 90 204T150 258T255 294T410 314Q407 356 380 383T293 410Q251 410 211 395T132 358L90 435Q135 461 193 482T314 503Q417 503 471 449T525 291V0H431L422 61H419Q380
31 333 10T235 -12ZM270 78Q307 78 341 94T410 138V242Q344 237 300 229T230 207T193 178T182 141Q182 108 207 93T270 78Z" />
<glyph unicode="b" glyph-name="b" d="M329 -12Q294 -12 256 5T186 54H183L173 0H82V706H198V524L193 438H196Q227 468 266 485T346 503Q394 503 431 486T494 436T533 357T547 254Q547 191 529 142T481 58T411 6T329 -12ZM306 83Q358 83 393 125T428 252Q428 326
401 367T314 408Q286 408 257 394T198 349V128Q225 103 254 93T306 83Z" />
<glyph unicode="c" glyph-name="c" d="M344 -12Q286 -12 237 5T151 55T94 136T73 245Q73 306 95 354T156 435T245 485T352 503Q412 503 457 483T534 434L479 362Q450 385 421 397T358 409Q284 409 238 365T192 245Q192 208 204 178T237 127T289 94T355 82Q397
82 431 98T495 136L543 62Q500 25 449 7T344 -12Z" />
<glyph unicode="d" glyph-name="d" d="M263 -12Q216 -12 177 5T111 56T68 136T53 245Q53 305 71 353T119 434T189 485T270 503Q312 503 344 488T405 445H408L402 528V706H518V0H423L414 57H411Q382 28 344 8T263 -12ZM291 83Q352 83 402 142V363Q376 388 350 398T297
408Q271 408 249 397T209 366T182 315T172 246Q172 166 203 125T291 83Z" />
<glyph unicode="e" glyph-name="e" d="M330 -12Q274 -12 225 5T140 56T82 137T61 246Q61 306 82 353T138 434T219 485T315 503Q370 503 412 486T483 438T527 364T542 270Q542 253 541 238T537 212H176Q186 143 231 110T345 77Q384 77 417 88T483 118L522 46Q483
20 434 4T330 -12ZM318 414Q267 414 229 384T179 294H440Q434 354 403 384T318 414Z" />
<glyph unicode="f" glyph-name="f" d="M228 0V400H92V486L228 491V518Q228 561 240 598T277 661T342 703T436 718Q476 718 512 711T582 691L558 606Q531 617 506 622T450 627Q393 627 368 600T342 520V491H529V400H342V0H228Z" />
<glyph unicode="g" glyph-name="g" d="M286 -217Q235 -217 194 -209T124 -185T78 -144T62 -86Q62 -26 140 17V21Q120 33 105 52T90 103Q90 127 106 152T149 195V199Q123 218 105 250T86 326Q86 368 102 401T146 456T210 491T288 503Q330 503 365 491H566V403H453Q466
389 475 368T485 322Q485 281 470 250T428 198T365 166T288 155Q253 155 213 169Q183 151 183 123Q183 77 276 77H376Q472 77 520 50T569 -43Q569 -79 549 -111T493 -166T404 -203T286 -217ZM288 228Q326 228 353 253T381 326Q381 371 354 397T288 423Q250 423
223 397T195 326Q195 279 222 254T288 228ZM300 -141Q336 -141 365 -135T415 -117T447 -92T458 -62Q458 -33 434 -24T359 -14H281Q234 -14 206 -7Q180 -22 169 -38T158 -71Q158 -104 194 -122T300 -141Z" />
<glyph unicode="h" glyph-name="h" d="M82 0V706H198V524L191 419H194Q226 453 268 478T367 503Q452 503 492 452T532 304V0H416V289Q416 349 396 376T324 404Q288 404 260 387T198 335V0H82Z" />
<glyph unicode="i" glyph-name="i" d="M297 0V400H84V491H412V0H297ZM347 581Q312 581 289 602T265 658Q265 693 288 714T347 736Q382 736 405 715T429 658Q429 623 406 602T347 581Z" />
<glyph unicode="j" glyph-name="j" d="M195 -206Q152 -206 116 -197T49 -173L84 -90Q112 -103 138 -109T189 -115Q252 -115 274 -85T297 3V400H84V491H412V9Q412 -36 402 -75T367 -143T300 -189T195 -206ZM347 581Q312 581 289 602T265 658Q265 693 288 714T347
736Q382 736 405 715T429 658Q429 623 406 602T347 581Z" />
<glyph unicode="k" glyph-name="k" d="M90 0V706H206V264H210L431 491H559L368 295L580 0H454L299 224L206 128V0H90Z" />
<glyph unicode="l" glyph-name="l" d="M401 -12Q315 -12 271 38T226 179V615H62V706H341V173Q341 123 366 103T429 82Q468 82 513 101L540 16Q504 2 474 -5T401 -12Z" />
<glyph unicode="m" glyph-name="m" d="M46 0V491H135L144 429H147Q163 461 188 482T256 503Q325 503 345 421Q362 457 388 480T457 503Q509 503 537 463T566 348V0H455V340Q455 405 416 405Q396 405 383 390T354 343V0H258V340Q258 372 249 388T219 405Q199 405
186 390T158 343V0H46Z" />
<glyph unicode="n" glyph-name="n" d="M82 0V491H177L186 417H190Q225 452 267 477T367 503Q452 503 492 452T532 304V0H416V289Q416 349 396 376T324 404Q288 404 260 387T198 335V0H82Z" />
<glyph unicode="o" glyph-name="o" d="M300 -12Q252 -12 207 5T128 55T74 136T53 245Q53 306 73 354T128 435T207 485T300 503Q348 503 393 486T472 435T526 354T547 245Q547 184 527 136T472 55T393 5T300 -12ZM300 82Q360 82 394 126T428 245Q428 320 394 364T300
409Q240 409 206 365T172 245Q172 171 206 127T300 82Z" />
<glyph unicode="p" glyph-name="p" d="M82 -194V491H177L186 435H189Q221 464 262 483T346 503Q394 503 431 486T494 435T533 356T547 253Q547 190 529 141T481 58T411 6T329 -12Q295 -12 260 3T195 46H192L198 -40V-194H82ZM305 83Q358 83 393 125T428 252Q428
326 401 367T314 408Q286 408 257 394T198 349V128Q225 103 253 93T305 83Z" />
<glyph unicode="q" glyph-name="q" d="M402 -194V-32L408 53H405Q377 25 340 7T263 -12Q216 -12 177 5T111 56T68 136T53 245Q53 305 71 353T119 434T189 485T270 503Q313 503 347 487T414 439H417L427 491H518V-194H402ZM291 83Q352 83 402 142V363Q376 388 350
398T297 408Q271 408 249 397T209 366T182 315T172 246Q172 166 203 125T291 83Z" />
<glyph unicode="r" glyph-name="r" d="M130 0V491H225L235 380H238Q276 440 329 471T447 503Q477 503 498 499T542 483L518 386Q494 394 476 397T429 401Q378 401 331 372T246 271V0H130Z" />
<glyph unicode="s" glyph-name="s" d="M303 -12Q234 -12 171 10T62 64L112 137Q157 108 207 92T318 75Q369 75 393 92T418 134Q418 146 413 155T393 174T352 191T282 208Q183 228 138 264T92 356Q92 421 148 462T308 503Q369 503 422 483T513 438L460 367Q424
390 383 403T298 416Q249 416 228 401T207 362Q207 336 237 323T335 295Q394 282 432 267T492 234T524 192T533 140Q533 108 518 81T474 33T402 0T303 -12Z" />
<glyph unicode="t" glyph-name="t" d="M391 -12Q335 -12 297 3T235 45T201 112T190 198V400H59V486L195 491L210 645H305V491H529V400H305V198Q305 137 330 109T419 80Q450 80 476 85T526 100L548 16Q515 5 477 -3T391 -12Z" />
<glyph unicode="u" glyph-name="u" d="M234 -12Q148 -12 109 39T70 187V491H185V202Q185 142 205 115T277 87Q312 87 339 103T400 160V491H515V0H421L412 78H408Q373 37 331 13T234 -12Z" />
<glyph unicode="v" glyph-name="v" d="M237 0L41 491H157L252 236Q266 199 277 163T301 88H305Q317 126 328 162T354 236L449 491H559L368 0H237Z" />
<glyph unicode="w" glyph-name="w" d="M99 0L6 491H119L163 236Q168 200 172 166T182 95H185Q190 131 196 166T211 236L256 443H351L395 236Q403 200 410 166T423 95H427Q432 131 436 165T445 236L487 491H594L504 0H364L323 196Q312 254 302 341H298Q293 303
289 268T278 196L238 0H99Z" />
<glyph unicode="x" glyph-name="x" d="M51 0L229 255L63 491H188L252 398Q264 378 278 357T306 314H310Q321 335 334 357T358 399L416 491H537L370 243L549 0H424L353 97Q339 117 324 140T293 184H289Q275 162 263 141T236 96L172 0H51Z" />
<glyph unicode="y" glyph-name="y" d="M137 -202Q117 -202 99 -200T67 -192L89 -102Q99 -105 109 -107T130 -109Q177 -109 205 -86T248 -25L260 6L40 491H155L256 250Q270 217 283 180T310 106H314Q325 141 338 178T363 250L452 491H561L356 -22Q340 -64 321 -97T275
-153T215 -189T137 -202Z" />
<glyph unicode="z" glyph-name="z" d="M71 0V62L366 400H104V491H528V430L232 92H536V0H71Z" />
<glyph unicode="{" glyph-name="braceleft" d="M430 -152Q382 -152 347 -146T289 -123T255 -81T244 -14Q244 13 245 35T249 79T252 121T254 168Q254 181 248 194T226 218T183 236T113 243V313Q155 313 182 320T226 337T248 361T254 388Q254 435 249 476T244 570Q244
610 255 636T289 679T347 701T430 708H499V645H453Q418 645 396 641T362 628T345 603T340 565Q340 523 342 481T345 393Q345 340 324 315T250 280V276Q303 267 324 242T345 163Q345 115 343 75T340 -9Q340 -32 344 -47T361 -71T396 -85T453 -89H499V-152H430Z"
/>
<glyph unicode="|" glyph-name="bar" d="M249 -250V750H351V-250H249Z" />
<glyph unicode="}" glyph-name="braceright" d="M102 -152V-89H148Q182 -89 204 -85T239 -72T256 -47T261 -9Q261 35 259 75T256 163Q256 216 276 241T351 276V280Q297 289 277 314T256 393Q256 439 258 481T261 565Q261 587 257 602T239 627T204 641T148 645H102V708H171Q219
708 253 702T311 679T345 637T356 570Q356 518 351 477T346 388Q346 374 352 361T374 338T417 320T487 313V243Q445 243 418 236T374 219T352 195T346 168Q346 143 347 122T351 79T354 36T356 -14Q356 -54 345 -80T311 -123T254 -145T171 -152H102Z" />
<glyph unicode="~" glyph-name="asciitilde" d="M386 248Q356 248 333 260T290 288T252 315T212 328Q189 328 170 310T134 244L64 276Q93 351 132 381T214 412Q244 412 267 400T310 372T348 345T388 332Q411 332 430 350T466 416L536 383Q507 309 468 279T386 248Z" />
<glyph unicode="&#xa0;" glyph-name="uni00A0" />
<glyph unicode="&#xa1;" glyph-name="exclamdown" d="M243 -179L246 -65L262 247H338L354 -65L357 -179H243ZM300 325Q263 325 238 349T213 413Q213 454 238 478T300 503Q337 503 362 479T387 413Q387 373 362 349T300 325Z" />
<glyph unicode="&#xa2;" glyph-name="cent" d="M217 308Q217 252 241 214T312 162V455Q266 440 242 402T217 308ZM312 -37V62Q218 74 161 137T104 308Q104 360 120 402T163 476T229 526T312 553V654H379V556Q420 554 451 538T506 499L452 428Q417 459 379 463V155Q405
158 427 170T467 196L515 123Q486 97 451 82T379 62V-37H312Z" />
<glyph unicode="&#xa3;" glyph-name="sterling" d="M73 0V71Q130 95 161 138T193 237Q193 248 192 257T188 278H74V347L164 352Q154 378 147 403T139 454Q139 499 155 535T200 596T269 634T359 648Q420 648 464 627T540 570L476 507Q454 529 429 541T368 554Q311
554 280 527T249 448Q249 423 255 400T270 352H449V278H290Q294 261 294 236Q294 191 279 161T231 102V98H541V0H73Z" />
<glyph unicode="&#xa4;" glyph-name="currency" d="M106 73L47 133L129 216Q112 239 103 267T94 329Q94 363 103 391T128 443L47 526L106 586L194 496Q242 527 300 527Q358 527 406 496L494 586L553 526L471 443Q488 420 497 392T506 329Q506 296 497 268T470
216L553 133L494 73L405 163Q382 147 355 140T300 132Q241 132 194 163L106 73ZM300 214Q342 214 372 245T402 329Q402 382 372 413T300 445Q258 445 228 414T198 329Q198 277 228 246T300 214Z" />
<glyph unicode="&#xa5;" glyph-name="yen" d="M242 0V152H67V212H242V271H67V330H215L42 636H160L236 485Q253 452 267 419T299 352H303Q320 386 335 419T367 485L443 636H558L384 330H533V271H357V212H533V152H357V0H242Z" />
<glyph unicode="&#xa6;" glyph-name="brokenbar" d="M249 -250V190H351V-250H249ZM249 310V750H351V310H249Z" />
<glyph unicode="&#xa7;" glyph-name="section" d="M282 -74Q226 -74 177 -54T94 4L162 64Q188 39 217 26T282 12Q317 12 335 28T354 68Q354 92 334 108T284 138T218 167T152 203T101 256T81 334Q81 375 105 408T167 463Q137 496 137 545Q137 575 148 601T180 646T231
676T302 687Q356 687 399 668T474 626L420 553Q395 573 367 586T308 600Q273 600 258 586T242 550Q242 527 262 512T314 482T380 452T447 414T498 361T519 284Q519 238 496 207T432 152Q444 136 451 117T458 73Q458 41 446 15T412 -32T356 -63T282 -74ZM179 342Q179
314 197 295T244 261T306 233T370 202Q396 215 408 232T421 275Q421 303 403 322T357 357T296 385T231 415Q206 402 193 385T179 342Z" />
<glyph unicode="&#xa8;" glyph-name="dieresis" d="M196 579Q166 579 147 599T128 648Q128 677 147 696T196 716Q226 716 245 697T264 648Q264 619 245 599T196 579ZM404 579Q374 579 355 599T336 648Q336 677 355 696T404 716Q434 716 453 697T472 648Q472 619
453 599T404 579Z" />
<glyph unicode="&#xa9;" glyph-name="copyright" d="M300 -10Q243 -10 193 13T105 80T46 185T24 324Q24 401 45 462T104 566T192 631T300 654Q357 654 407 632T495 567T554 463T576 324Q576 247 555 186T496 81T408 14T300 -10ZM300 42Q349 42 390 62T459 120T504
209T520 324Q520 388 504 439T460 527T390 583T300 603Q250 603 210 584T141 528T96 440T80 324Q80 261 96 209T140 120T209 63T300 42ZM310 126Q274 126 244 139T191 178T155 240T142 323Q142 367 156 402T193 462T247 500T311 514Q349 514 374 500T420 466L375
416Q361 429 348 436T318 443Q276 443 253 409T229 323Q229 265 252 231T313 197Q336 197 351 205T384 226L422 170Q399 151 372 139T310 126Z" />
<glyph unicode="&#xaa;" glyph-name="ordfeminine" d="M262 377Q214 377 184 404T154 473Q154 525 205 554T370 592Q368 618 352 634T300 651Q274 651 248 643T197 620L166 676Q196 693 235 705T316 718Q382 718 417 682T453 576V385H385L379 422H377Q353 402
324 390T262 377ZM285 440Q309 440 329 449T370 474V543Q295 537 265 521T235 481Q235 459 249 450T285 440Z" />
<glyph unicode="&#xab;" glyph-name="guillemotleft" d="M481 38L319 195V309L481 466L532 420L405 252L532 83L481 38ZM472 38L310 195V309L472 466L523 420L396 252L523 83L472 38Z" />
<glyph unicode="&#xac;" glyph-name="logicalnot" d="M435 99V288H78V372H522V99H435Z" />
<glyph unicode="&#xad;" glyph-name="uni00AD" d="M78 288V372H522V288H78Z" />
<glyph unicode="&#xae;" glyph-name="registered" d="M299 315Q259 315 224 329T163 370T121 433T106 514Q106 558 121 595T162 658T224 699T299 714Q339 714 374 700T436 659T477 595T493 514Q493 470 478 434T436 371T375 330T299 315ZM299 358Q330 358 357
369T403 401T434 450T445 514Q445 549 434 578T404 628T357 660T299 672Q267 672 241 661T195 628T164 578T153 514Q153 479 164 451T194 402T240 370T299 358ZM223 417V616H305Q338 616 361 601T385 551Q385 534 376 519T349 496L393 417H339L307 482H272V417H223ZM272
518H295Q313 518 322 526T332 548Q332 561 324 569T297 578H272V518Z" />
<glyph unicode="&#xaf;" glyph-name="overscore" d="M160 596V672H440V596H160Z" />
<glyph unicode="&#xb0;" glyph-name="degree" d="M301 413Q273 413 249 423T206 451T176 494T165 549Q165 579 176 604T205 647T248 675T301 685Q329 685 353 675T396 647T425 604T436 549Q436 519 426 494T397 451T354 423T301 413ZM301 472Q333 472 352 493T372
549Q372 584 353 605T301 627Q269 627 249 606T229 549Q229 515 249 494T301 472Z" />
<glyph unicode="&#xb1;" glyph-name="plusminus" d="M256 143V299H78V382H256V561H344V382H522V299H344V143H256ZM78 0V83H522V0H78Z" />
<glyph unicode="&#xb2;" glyph-name="two.sups" d="M158 385L152 433Q199 470 236 500T298 556T337 602T350 644Q350 677 330 696T274 715Q249 715 227 701T187 663L137 709Q164 747 203 767T287 787Q353 787 393 754T434 658Q434 632 424 609T394 561T349 512T290
458H451V385H158Z" />
<glyph unicode="&#xb3;" glyph-name="three.sups" d="M297 373Q244 373 202 393T135 451L189 493Q226 440 290 440Q322 440 344 455T367 498Q367 527 339 542T250 558V609Q301 609 326 625T352 669Q352 692 334 706T283 720Q260 720 239 709T201 677L151 721Q180
754 215 770T297 787Q325 787 350 780T395 759T425 725T437 680Q437 647 420 625T365 587Q405 578 428 554T452 492Q452 465 440 443T406 406T357 382T297 373Z" />
<glyph unicode="&#xb4;" glyph-name="acute" d="M286 564L229 621L376 796L456 719L286 564Z" />
<glyph unicode="&#xb5;" glyph-name="uni00B5" d="M74 -192V491H189V202Q189 142 209 115T274 87Q307 87 336 105T396 176V491H512Q510 445 509 396T507 297T505 203T504 120Q504 99 513 91T536 82Q540 82 543 82T554 84L568 -2Q545 -12 508 -12Q464 -12 440 10T408
86H405Q380 38 345 15T270 -8Q244 -8 221 -1T181 30Q181 -4 182 -32T184 -85T186 -137T190 -192H74Z" />
<glyph unicode="&#xb6;" glyph-name="paragraph" d="M303 212Q252 212 208 225T131 267T79 337T60 436Q60 497 78 538T128 605T203 642T296 654H339V212H303ZM392 -80V654H506V-80H392Z" />
<glyph unicode="&#xb7;" glyph-name="middot" d="M300 249Q257 249 229 277T201 350Q201 394 229 422T300 451Q343 451 371 423T399 350Q399 306 371 278T300 249Z" />
<glyph unicode="&#xb8;" glyph-name="cedilla" d="M206 -233L196 -183Q257 -179 279 -169T302 -136Q302 -119 286 -108T225 -91L270 10H340L312 -62Q348 -71 367 -87T387 -135Q387 -183 340 -206T206 -233Z" />
<glyph unicode="&#xb9;" glyph-name="one.sups" d="M170 385V458H292V679H186V733Q208 736 225 740T257 748T284 759T310 775H379V458H488V385H170Z" />
<glyph unicode="&#xba;" glyph-name="ordmasculine" d="M300 377Q268 377 239 388T187 422T151 475T137 547Q137 587 150 619T186 673T238 706T300 718Q332 718 361 707T413 673T449 619T463 547Q463 507 450 476T414 422T362 389T300 377ZM300 444Q338 444 357
472T376 547Q376 594 357 622T300 650Q263 650 244 622T224 547Q224 500 243 472T300 444Z" />
<glyph unicode="&#xbb;" glyph-name="guillemotright" d="M385 38L334 83L461 252L334 420L385 466L547 309V195L385 38ZM376 38L325 83L452 252L325 420L376 466L538 309V195L376 38Z" />
<glyph unicode="&#xbc;" glyph-name="onequarter" d="M142 328V549H61V602Q79 605 92 608T117 615T139 624T161 636H228V328H142ZM84 30L22 89L207 270L249 231L84 30ZM393 384L351 423L516 624L578 565L393 384ZM457 0V67H296V109L401 320L462 296L375 122H457V214H533V122H584V67H533V0H457Z"
/>
<glyph unicode="&#xbd;" glyph-name="onehalf" d="M142 328V549H61V602Q79 605 92 608T117 615T139 624T161 636H228V328H142ZM84 30L22 89L207 270L249 231L84 30ZM393 384L351 423L516 624L578 565L393 384ZM319 0V46Q389 96 431 134T473 201Q473 224 460 237T420
251Q385 251 357 213L306 258Q332 285 363 302T432 320Q489 320 522 293T555 215Q555 196 547 178T526 142T494 106T455 70H569V0H319Z" />
<glyph unicode="&#xbe;" glyph-name="threequarters" d="M159 316Q126 316 92 327T27 364L64 417Q80 402 103 391T151 380Q173 380 187 389T202 418Q202 440 182 450T118 461V508Q189 508 189 550Q189 565 177 574T142 584Q125 584 106 576T72 555L36 605Q57 625
89 636T160 648Q208 648 240 625T273 562Q273 534 260 517T218 489Q286 472 286 412Q286 390 276 373T249 343T208 323T159 316ZM100 30L38 89L223 270L265 231L100 30ZM409 384L367 423L532 624L594 565L409 384ZM457 0V67H296V109L401 320L462 296L375 122H457V214H533V122H584V67H533V0H457Z"
/>
<glyph unicode="&#xbf;" glyph-name="questiondown" d="M307 -191Q265 -191 229 -181T167 -150T127 -100T112 -31Q112 2 124 27T156 73T196 112T235 150T262 193T269 247H370Q376 213 367 186T342 137T305 97T266 60T236 24T223 -17Q223 -53 247 -75T315 -97Q350
-97 378 -83T431 -45L496 -105Q461 -143 414 -167T307 -191ZM314 325Q277 325 252 349T227 413Q227 454 252 478T314 503Q351 503 376 479T401 413Q401 373 376 349T314 325Z" />
<glyph unicode="&#xc0;" glyph-name="Agrave" d="M238 348L215 268H381L358 348Q344 400 329 454T300 564H296Q282 509 268 455T238 348ZM20 0L232 654H368L580 0H457L407 177H189L138 0H20ZM333 688L165 805L228 881L384 746L333 688Z" />
<glyph unicode="&#xc1;" glyph-name="Aacute" d="M238 348L215 268H381L358 348Q344 400 329 454T300 564H296Q282 509 268 455T238 348ZM20 0L232 654H368L580 0H457L407 177H189L138 0H20ZM267 688L216 746L372 881L435 805L267 688Z" />
<glyph unicode="&#xc2;" glyph-name="Acircumflex" d="M238 348L215 268H381L358 348Q344 400 329 454T300 564H296Q282 509 268 455T238 348ZM20 0L232 654H368L580 0H457L407 177H189L138 0H20ZM191 692L141 725L238 836H362L459 725L409 692L302 780H298L191 692Z" />
<glyph unicode="&#xc3;" glyph-name="Atilde" d="M238 348L215 268H381L358 348Q344 400 329 454T300 564H296Q282 509 268 455T238 348ZM20 0L232 654H368L580 0H457L407 177H189L138 0H20ZM373 700Q346 700 326 710T289 732T259 754T230 764Q213 764 202 751T188
707L112 713Q116 780 147 813T227 846Q254 846 274 836T311 814T341 792T370 782Q405 782 412 840L488 834Q484 767 453 734T373 700Z" />
<glyph unicode="&#xc4;" glyph-name="Adieresis" d="M238 348L215 268H381L358 348Q344 400 329 454T300 564H296Q282 509 268 455T238 348ZM20 0L232 654H368L580 0H457L407 177H189L138 0H20ZM199 708Q172 708 155 725T137 770Q137 797 154 814T199 832Q226
832 243 815T261 770Q261 743 244 726T199 708ZM401 708Q374 708 357 725T339 770Q339 797 356 814T401 832Q428 832 445 815T463 770Q463 743 446 726T401 708Z" />
<glyph unicode="&#xc5;" glyph-name="Aring" d="M238 348L215 268H381L358 348Q344 400 329 454T300 564H296Q282 509 268 455T238 348ZM20 0L232 654H368L580 0H457L407 177H189L138 0H20ZM300 698Q253 698 224 723T194 792Q194 836 223 861T300 887Q346 887
376 862T406 792Q406 749 376 724T300 698ZM300 744Q319 744 332 756T346 792Q346 815 333 828T300 841Q280 841 267 828T253 792Q253 769 266 757T300 744Z" />
<glyph unicode="&#xc6;" glyph-name="AE" d="M243 366L207 261H314V565H311Q294 514 277 464T243 366ZM-2 0L238 654H584V556H418V390H550V292H418V98H593V0H314V170H176L118 0H-2Z" />
<glyph unicode="&#xc7;" glyph-name="Ccedilla" d="M354 -12Q293 -12 240 10T146 75T83 181T60 325Q60 405 83 468T146 576T242 643T362 666Q423 666 470 641T549 584L485 512Q460 536 430 550T362 565Q321 565 288 549T230 502T193 427T179 328Q179 272 192 228T230
153T288 106T365 89Q405 89 437 106T498 154L562 83Q523 37 472 13T354 -12ZM252 -233L242 -183Q303 -179 325 -169T348 -136Q348 -119 332 -108T271 -91L316 10H386L358 -62Q394 -71 413 -87T433 -135Q433 -183 386 -206T252 -233Z" />
<glyph unicode="&#xc8;" glyph-name="Egrave" d="M103 0V654H522V556H219V389H476V291H219V98H532V0H103ZM360 688L192 805L255 881L411 746L360 688Z" />
<glyph unicode="&#xc9;" glyph-name="Eacute" d="M103 0V654H522V556H219V389H476V291H219V98H532V0H103ZM294 688L243 746L399 881L462 805L294 688Z" />
<glyph unicode="&#xca;" glyph-name="Ecircumflex" d="M103 0V654H522V556H219V389H476V291H219V98H532V0H103ZM218 692L168 725L265 836H389L486 725L436 692L329 780H325L218 692Z" />
<glyph unicode="&#xcb;" glyph-name="Edieresis" d="M103 0V654H522V556H219V389H476V291H219V98H532V0H103ZM226 708Q199 708 182 725T164 770Q164 797 181 814T226 832Q253 832 270 815T288 770Q288 743 271 726T226 708ZM428 708Q401 708 384 725T366 770Q366
797 383 814T428 832Q455 832 472 815T490 770Q490 743 473 726T428 708Z" />
<glyph unicode="&#xcc;" glyph-name="Igrave" d="M84 0V98H242V556H84V654H516V556H358V98H516V0H84ZM333 688L165 805L228 881L384 746L333 688Z" />
<glyph unicode="&#xcd;" glyph-name="Iacute" d="M84 0V98H242V556H84V654H516V556H358V98H516V0H84ZM267 688L216 746L372 881L435 805L267 688Z" />
<glyph unicode="&#xce;" glyph-name="Icircumflex" d="M84 0V98H242V556H84V654H516V556H358V98H516V0H84ZM191 692L141 725L238 836H362L459 725L409 692L302 780H298L191 692Z" />
<glyph unicode="&#xcf;" glyph-name="Idieresis" d="M84 0V98H242V556H84V654H516V556H358V98H516V0H84ZM199 708Q172 708 155 725T137 770Q137 797 154 814T199 832Q226 832 243 815T261 770Q261 743 244 726T199 708ZM401 708Q374 708 357 725T339 770Q339 797
356 814T401 832Q428 832 445 815T463 770Q463 743 446 726T401 708Z" />
<glyph unicode="&#xd0;" glyph-name="Eth" d="M79 0V306H6V369L79 375V654H250Q394 654 476 573T559 330Q559 249 538 187T478 84T382 21T256 0H79ZM194 94H243Q337 94 388 151T439 330Q439 450 388 505T243 560H194V375H320V306H194V94Z" />
<glyph unicode="&#xd1;" glyph-name="Ntilde" d="M74 0V654H196L369 287L428 147H431Q427 198 421 256T415 370V654H526V0H404L231 368L172 507H169Q173 454 179 398T185 286V0H74ZM383 700Q356 700 336 710T299 732T269 754T240 764Q223 764 212 751T198 707L122
713Q126 780 157 813T237 846Q264 846 284 836T321 814T351 792T380 782Q415 782 422 840L498 834Q494 767 463 734T383 700Z" />
<glyph unicode="&#xd2;" glyph-name="Ograve" d="M300 -12Q243 -12 196 10T115 76T62 184T43 330Q43 411 62 473T114 578T195 643T300 666Q357 666 404 644T485 579T538 474T557 330Q557 248 538 184T486 77T405 11T300 -12ZM300 89Q363 89 400 151T438 330Q438
443 401 504T300 565Q237 565 200 504T162 330Q162 214 199 152T300 89ZM333 688L165 805L228 881L384 746L333 688Z" />
<glyph unicode="&#xd3;" glyph-name="Oacute" d="M300 -12Q243 -12 196 10T115 76T62 184T43 330Q43 411 62 473T114 578T195 643T300 666Q357 666 404 644T485 579T538 474T557 330Q557 248 538 184T486 77T405 11T300 -12ZM300 89Q363 89 400 151T438 330Q438
443 401 504T300 565Q237 565 200 504T162 330Q162 214 199 152T300 89ZM267 688L216 746L372 881L435 805L267 688Z" />
<glyph unicode="&#xd4;" glyph-name="Ocircumflex" d="M300 -12Q243 -12 196 10T115 76T62 184T43 330Q43 411 62 473T114 578T195 643T300 666Q357 666 404 644T485 579T538 474T557 330Q557 248 538 184T486 77T405 11T300 -12ZM300 89Q363 89 400 151T438 330Q438
443 401 504T300 565Q237 565 200 504T162 330Q162 214 199 152T300 89ZM191 692L141 725L238 836H362L459 725L409 692L302 780H298L191 692Z" />
<glyph unicode="&#xd5;" glyph-name="Otilde" d="M300 -12Q243 -12 196 10T115 76T62 184T43 330Q43 411 62 473T114 578T195 643T300 666Q357 666 404 644T485 579T538 474T557 330Q557 248 538 184T486 77T405 11T300 -12ZM300 89Q363 89 400 151T438 330Q438
443 401 504T300 565Q237 565 200 504T162 330Q162 214 199 152T300 89ZM373 700Q346 700 326 710T289 732T259 754T230 764Q213 764 202 751T188 707L112 713Q116 780 147 813T227 846Q254 846 274 836T311 814T341 792T370 782Q405 782 412 840L488 834Q484 767
453 734T373 700Z" />
<glyph unicode="&#xd6;" glyph-name="Odieresis" d="M300 -12Q243 -12 196 10T115 76T62 184T43 330Q43 411 62 473T114 578T195 643T300 666Q357 666 404 644T485 579T538 474T557 330Q557 248 538 184T486 77T405 11T300 -12ZM300 89Q363 89 400 151T438 330Q438
443 401 504T300 565Q237 565 200 504T162 330Q162 214 199 152T300 89ZM199 708Q172 708 155 725T137 770Q137 797 154 814T199 832Q226 832 243 815T261 770Q261 743 244 726T199 708ZM401 708Q374 708 357 725T339 770Q339 797 356 814T401 832Q428 832 445
815T463 770Q463 743 446 726T401 708Z" />
<glyph unicode="&#xd7;" glyph-name="multiply" d="M152 119L93 179L241 329L93 480L152 540L300 388L448 540L507 480L359 329L507 179L448 119L300 270L152 119Z" />
<glyph unicode="&#xd8;" glyph-name="Oslash" d="M300 -12Q213 -12 150 40L96 -37L27 7L95 105Q70 148 57 204T43 330Q43 411 62 473T114 578T195 643T300 666Q387 666 449 615L502 691L570 647L504 552Q530 510 543 455T557 330Q557 248 538 184T486 77T405 11T300
-12ZM162 330Q162 266 174 218L386 524Q351 565 300 565Q237 565 200 504T162 330ZM300 89Q363 89 400 151T438 330Q438 392 426 439L213 132Q248 89 300 89Z" />
<glyph unicode="&#xd9;" glyph-name="Ugrave" d="M301 -12Q194 -12 133 52T72 250V654H188V241Q188 160 218 125T301 89Q355 89 386 124T417 241V654H528V250Q528 115 469 52T301 -12ZM333 688L165 805L228 881L384 746L333 688Z" />
<glyph unicode="&#xda;" glyph-name="Uacute" d="M301 -12Q194 -12 133 52T72 250V654H188V241Q188 160 218 125T301 89Q355 89 386 124T417 241V654H528V250Q528 115 469 52T301 -12ZM267 688L216 746L372 881L435 805L267 688Z" />
<glyph unicode="&#xdb;" glyph-name="Ucircumflex" d="M301 -12Q194 -12 133 52T72 250V654H188V241Q188 160 218 125T301 89Q355 89 386 124T417 241V654H528V250Q528 115 469 52T301 -12ZM191 692L141 725L238 836H362L459 725L409 692L302 780H298L191 692Z" />
<glyph unicode="&#xdc;" glyph-name="Udieresis" d="M301 -12Q194 -12 133 52T72 250V654H188V241Q188 160 218 125T301 89Q355 89 386 124T417 241V654H528V250Q528 115 469 52T301 -12ZM199 708Q172 708 155 725T137 770Q137 797 154 814T199 832Q226 832 243
815T261 770Q261 743 244 726T199 708ZM401 708Q374 708 357 725T339 770Q339 797 356 814T401 832Q428 832 445 815T463 770Q463 743 446 726T401 708Z" />
<glyph unicode="&#xdd;" glyph-name="Yacute" d="M242 0V227L27 654H150L232 478Q249 440 265 404T299 327H303Q321 367 338 404T372 479L453 654H573L358 227V0H242ZM267 688L216 746L372 881L435 805L267 688Z" />
<glyph unicode="&#xde;" glyph-name="Thorn" d="M87 0V654H203V550H307Q361 550 406 540T485 506T537 444T556 348Q556 293 537 253T485 187T406 149T307 136H203V0H87ZM203 229H297Q371 229 406 258T441 348Q441 409 405 433T297 457H203V229Z" />
<glyph unicode="&#xdf;" glyph-name="germandbls" d="M399 -12Q357 -12 324 -2T258 29L299 108Q324 91 347 83T395 75Q426 75 443 92T460 135Q460 159 447 175T414 204T371 231T328 260T295 300T282 357Q282 389 293 412T319 456T345 500T357 553Q357 585 339
606T287 627Q239 627 214 593T189 496V0H74V507Q74 553 88 592T129 659T196 702T288 718Q332 718 365 705T421 670T454 620T465 560Q465 523 454 498T428 452T402 412T390 371Q390 351 403 337T436 310T479 284T522 253T555 208T568 144Q568 111 557 83T523 33T470
0T399 -12Z" />
<glyph unicode="&#xe0;" glyph-name="agrave" d="M235 -12Q199 -12 169 -2T117 28T83 73T71 132Q71 173 90 204T150 258T255 294T410 314Q407 356 380 383T293 410Q251 410 211 395T132 358L90 435Q135 461 193 482T314 503Q417 503 471 449T525 291V0H431L422
61H419Q380 31 333 10T235 -12ZM270 78Q307 78 341 94T410 138V242Q344 237 300 229T230 207T193 178T182 141Q182 108 207 93T270 78ZM334 564L164 719L244 796L391 621L334 564Z" />
<glyph unicode="&#xe1;" glyph-name="aacute" d="M235 -12Q199 -12 169 -2T117 28T83 73T71 132Q71 173 90 204T150 258T255 294T410 314Q407 356 380 383T293 410Q251 410 211 395T132 358L90 435Q135 461 193 482T314 503Q417 503 471 449T525 291V0H431L422
61H419Q380 31 333 10T235 -12ZM270 78Q307 78 341 94T410 138V242Q344 237 300 229T230 207T193 178T182 141Q182 108 207 93T270 78ZM306 564L249 621L396 796L476 719L306 564Z" />
<glyph unicode="&#xe2;" glyph-name="acircumflex" d="M235 -12Q199 -12 169 -2T117 28T83 73T71 132Q71 173 90 204T150 258T255 294T410 314Q407 356 380 383T293 410Q251 410 211 395T132 358L90 435Q135 461 193 482T314 503Q417 503 471 449T525 291V0H431L422
61H419Q380 31 333 10T235 -12ZM270 78Q307 78 341 94T410 138V242Q344 237 300 229T230 207T193 178T182 141Q182 108 207 93T270 78ZM196 564L151 607L262 742H378L489 607L444 564L322 667H318L196 564Z" />
<glyph unicode="&#xe3;" glyph-name="atilde" d="M235 -12Q199 -12 169 -2T117 28T83 73T71 132Q71 173 90 204T150 258T255 294T410 314Q407 356 380 383T293 410Q251 410 211 395T132 358L90 435Q135 461 193 482T314 503Q417 503 471 449T525 291V0H431L422
61H419Q380 31 333 10T235 -12ZM270 78Q307 78 341 94T410 138V242Q344 237 300 229T230 207T193 178T182 141Q182 108 207 93T270 78ZM389 575Q364 575 345 586T311 612T282 637T253 649Q218 649 212 582L138 586Q140 655 168 692T251 730Q276 730 295 719T329
693T359 668T388 656Q406 656 415 673T428 723L502 719Q500 651 472 613T389 575Z" />
<glyph unicode="&#xe4;" glyph-name="adieresis" d="M235 -12Q199 -12 169 -2T117 28T83 73T71 132Q71 173 90 204T150 258T255 294T410 314Q407 356 380 383T293 410Q251 410 211 395T132 358L90 435Q135 461 193 482T314 503Q417 503 471 449T525 291V0H431L422
61H419Q380 31 333 10T235 -12ZM270 78Q307 78 341 94T410 138V242Q344 237 300 229T230 207T193 178T182 141Q182 108 207 93T270 78ZM216 579Q186 579 167 599T148 648Q148 677 167 696T216 716Q246 716 265 697T284 648Q284 619 265 599T216 579ZM424 579Q394
579 375 599T356 648Q356 677 375 696T424 716Q454 716 473 697T492 648Q492 619 473 599T424 579Z" />
<glyph unicode="&#xe5;" glyph-name="aring" d="M235 -12Q199 -12 169 -2T117 28T83 73T71 132Q71 173 90 204T150 258T255 294T410 314Q407 356 380 383T293 410Q251 410 211 395T132 358L90 435Q135 461 193 482T314 503Q417 503 471 449T525 291V0H431L422
61H419Q380 31 333 10T235 -12ZM270 78Q307 78 341 94T410 138V242Q344 237 300 229T230 207T193 178T182 141Q182 108 207 93T270 78ZM320 569Q261 569 230 597T199 668Q199 710 230 739T320 768Q379 768 410 739T441 668Q441 626 410 598T320 569ZM320 615Q341
615 355 630T370 668Q370 691 356 706T320 722Q299 722 285 707T270 668Q270 645 284 630T320 615Z" />
<glyph unicode="&#xe6;" glyph-name="ae" d="M147 -12Q90 -12 54 25T17 125Q17 201 73 246T254 308Q251 366 231 388T179 410Q151 410 125 400T73 373L31 450Q67 472 106 487T188 503Q230 503 259 484T309 417Q335 464 369 483T442 503Q480 503 509 485T557 435T585
361T595 272Q595 255 594 239T590 212H344Q350 148 379 114T454 80Q478 80 499 87T540 109L580 33Q553 13 519 1T450 -12Q399 -12 361 9T298 68Q227 -12 147 -12ZM181 78Q201 78 223 90T269 129Q254 175 254 232V237Q215 231 190 222T149 200T128 172T121 138Q121
109 137 94T181 78ZM433 414Q404 414 378 386T344 291H504Q502 354 485 384T433 414Z" />
<glyph unicode="&#xe7;" glyph-name="ccedilla" d="M344 -12Q286 -12 237 5T151 55T94 136T73 245Q73 306 95 354T156 435T245 485T352 503Q412 503 457 483T534 434L479 362Q450 385 421 397T358 409Q284 409 238 365T192 245Q192 208 204 178T237 127T289 94T355
82Q397 82 431 98T495 136L543 62Q500 25 449 7T344 -12ZM250 -233L240 -183Q301 -179 323 -169T346 -136Q346 -119 330 -108T269 -91L314 10H384L356 -62Q392 -71 411 -87T431 -135Q431 -183 384 -206T250 -233Z" />
<glyph unicode="&#xe8;" glyph-name="egrave" d="M330 -12Q274 -12 225 5T140 56T82 137T61 246Q61 306 82 353T138 434T219 485T315 503Q370 503 412 486T483 438T527 364T542 270Q542 253 541 238T537 212H176Q186 143 231 110T345 77Q384 77 417 88T483 118L522
46Q483 20 434 4T330 -12ZM318 414Q267 414 229 384T179 294H440Q434 354 403 384T318 414ZM328 564L158 719L238 796L385 621L328 564Z" />
<glyph unicode="&#xe9;" glyph-name="eacute" d="M330 -12Q274 -12 225 5T140 56T82 137T61 246Q61 306 82 353T138 434T219 485T315 503Q370 503 412 486T483 438T527 364T542 270Q542 253 541 238T537 212H176Q186 143 231 110T345 77Q384 77 417 88T483 118L522
46Q483 20 434 4T330 -12ZM318 414Q267 414 229 384T179 294H440Q434 354 403 384T318 414ZM300 564L243 621L390 796L470 719L300 564Z" />
<glyph unicode="&#xea;" glyph-name="ecircumflex" d="M330 -12Q274 -12 225 5T140 56T82 137T61 246Q61 306 82 353T138 434T219 485T315 503Q370 503 412 486T483 438T527 364T542 270Q542 253 541 238T537 212H176Q186 143 231 110T345 77Q384 77 417 88T483
118L522 46Q483 20 434 4T330 -12ZM318 414Q267 414 229 384T179 294H440Q434 354 403 384T318 414ZM190 564L145 607L256 742H372L483 607L438 564L316 667H312L190 564Z" />
<glyph unicode="&#xeb;" glyph-name="edieresis" d="M330 -12Q274 -12 225 5T140 56T82 137T61 246Q61 306 82 353T138 434T219 485T315 503Q370 503 412 486T483 438T527 364T542 270Q542 253 541 238T537 212H176Q186 143 231 110T345 77Q384 77 417 88T483
118L522 46Q483 20 434 4T330 -12ZM318 414Q267 414 229 384T179 294H440Q434 354 403 384T318 414ZM210 579Q180 579 161 599T142 648Q142 677 161 696T210 716Q240 716 259 697T278 648Q278 619 259 599T210 579ZM418 579Q388 579 369 599T350 648Q350 677 369
696T418 716Q448 716 467 697T486 648Q486 619 467 599T418 579Z" />
<glyph unicode="&#xec;" glyph-name="igrave" d="M297 0V400H84V491H412V0H297ZM361 564L191 719L271 796L418 621L361 564Z" />
<glyph unicode="&#xed;" glyph-name="iacute" d="M297 0V400H84V491H412V0H297ZM333 564L276 621L423 796L503 719L333 564Z" />
<glyph unicode="&#xee;" glyph-name="icircumflex" d="M297 0V400H84V491H412V0H297ZM223 564L178 607L289 742H405L516 607L471 564L349 667H345L223 564Z" />
<glyph unicode="&#xef;" glyph-name="idieresis" d="M297 0V400H84V491H412V0H297ZM243 579Q213 579 194 599T175 648Q175 677 194 696T243 716Q273 716 292 697T311 648Q311 619 292 599T243 579ZM451 579Q421 579 402 599T383 648Q383 677 402 696T451 716Q481
716 500 697T519 648Q519 619 500 599T451 579Z" />
<glyph unicode="&#xf0;" glyph-name="eth" d="M297 -12Q248 -12 204 4T126 51T73 126T53 225Q53 277 70 319T119 390T190 435T278 451Q320 451 358 434T422 381Q408 438 382 481T315 560L164 483L129 543L254 606Q231 622 205 636T150 664L201 735Q239 718 275
698T345 653L482 722L517 663L403 605Q466 544 504 461T543 262Q543 202 526 152T478 65T400 8T297 -12ZM300 82Q366 82 400 128T435 256Q435 266 435 275T434 294Q403 332 369 348T299 364Q232 364 196 327T159 225Q159 192 170 166T200 121T245 92T300 82Z" />
<glyph unicode="&#xf1;" glyph-name="ntilde" d="M82 0V491H177L186 417H190Q225 452 267 477T367 503Q452 503 492 452T532 304V0H416V289Q416 349 396 376T324 404Q288 404 260 387T198 335V0H82ZM386 575Q361 575 342 586T308 612T279 637T250 649Q215 649
209 582L135 586Q137 655 165 692T248 730Q273 730 292 719T326 693T356 668T385 656Q403 656 412 673T425 723L499 719Q497 651 469 613T386 575Z" />
<glyph unicode="&#xf2;" glyph-name="ograve" d="M300 -12Q252 -12 207 5T128 55T74 136T53 245Q53 306 73 354T128 435T207 485T300 503Q348 503 393 486T472 435T526 354T547 245Q547 184 527 136T472 55T393 5T300 -12ZM300 82Q360 82 394 126T428 245Q428
320 394 364T300 409Q240 409 206 365T172 245Q172 171 206 127T300 82ZM314 564L144 719L224 796L371 621L314 564Z" />
<glyph unicode="&#xf3;" glyph-name="oacute" d="M300 -12Q252 -12 207 5T128 55T74 136T53 245Q53 306 73 354T128 435T207 485T300 503Q348 503 393 486T472 435T526 354T547 245Q547 184 527 136T472 55T393 5T300 -12ZM300 82Q360 82 394 126T428 245Q428
320 394 364T300 409Q240 409 206 365T172 245Q172 171 206 127T300 82ZM286 564L229 621L376 796L456 719L286 564Z" />
<glyph unicode="&#xf4;" glyph-name="ocircumflex" d="M300 -12Q252 -12 207 5T128 55T74 136T53 245Q53 306 73 354T128 435T207 485T300 503Q348 503 393 486T472 435T526 354T547 245Q547 184 527 136T472 55T393 5T300 -12ZM300 82Q360 82 394 126T428 245Q428
320 394 364T300 409Q240 409 206 365T172 245Q172 171 206 127T300 82ZM176 564L131 607L242 742H358L469 607L424 564L302 667H298L176 564Z" />
<glyph unicode="&#xf5;" glyph-name="otilde" d="M300 -12Q252 -12 207 5T128 55T74 136T53 245Q53 306 73 354T128 435T207 485T300 503Q348 503 393 486T472 435T526 354T547 245Q547 184 527 136T472 55T393 5T300 -12ZM300 82Q360 82 394 126T428 245Q428
320 394 364T300 409Q240 409 206 365T172 245Q172 171 206 127T300 82ZM369 575Q344 575 325 586T291 612T262 637T233 649Q198 649 192 582L118 586Q120 655 148 692T231 730Q256 730 275 719T309 693T339 668T368 656Q386 656 395 673T408 723L482 719Q480 651
452 613T369 575Z" />
<glyph unicode="&#xf6;" glyph-name="odieresis" d="M300 -12Q252 -12 207 5T128 55T74 136T53 245Q53 306 73 354T128 435T207 485T300 503Q348 503 393 486T472 435T526 354T547 245Q547 184 527 136T472 55T393 5T300 -12ZM300 82Q360 82 394 126T428 245Q428
320 394 364T300 409Q240 409 206 365T172 245Q172 171 206 127T300 82ZM196 579Q166 579 147 599T128 648Q128 677 147 696T196 716Q226 716 245 697T264 648Q264 619 245 599T196 579ZM404 579Q374 579 355 599T336 648Q336 677 355 696T404 716Q434 716 453
697T472 648Q472 619 453 599T404 579Z" />
<glyph unicode="&#xf7;" glyph-name="divide" d="M300 444Q271 444 252 462T232 510Q232 539 251 557T300 575Q329 575 348 557T368 510Q368 481 349 463T300 444ZM300 84Q271 84 252 102T232 150Q232 179 251 197T300 215Q329 215 348 197T368 150Q368 121 349
103T300 84ZM78 288V372H522V288H78Z" />
<glyph unicode="&#xf8;" glyph-name="oslash" d="M300 -12Q223 -12 162 29L113 -29L61 16L110 74Q84 106 69 149T53 245Q53 306 73 354T128 435T207 485T300 503Q377 503 438 462L487 520L539 476L489 417Q516 385 531 342T547 245Q547 184 527 136T472 55T393
5T300 -12ZM172 245Q172 222 175 202T185 163L374 387Q345 413 300 413Q270 413 246 401T206 366T181 313T172 245ZM300 78Q330 78 353 90T393 125T419 177T428 245Q428 291 414 328L225 104Q256 78 300 78Z" />
<glyph unicode="&#xf9;" glyph-name="ugrave" d="M234 -12Q148 -12 109 39T70 187V491H185V202Q185 142 205 115T277 87Q312 87 339 103T400 160V491H515V0H421L412 78H408Q373 37 331 13T234 -12ZM566 564L396 719L476 796L623 621L566 564Z" />
<glyph unicode="&#xfa;" glyph-name="uacute" d="M234 -12Q148 -12 109 39T70 187V491H185V202Q185 142 205 115T277 87Q312 87 339 103T400 160V491H515V0H421L412 78H408Q373 37 331 13T234 -12ZM538 564L481 621L628 796L708 719L538 564Z" />
<glyph unicode="&#xfb;" glyph-name="ucircumflex" d="M234 -12Q148 -12 109 39T70 187V491H185V202Q185 142 205 115T277 87Q312 87 339 103T400 160V491H515V0H421L412 78H408Q373 37 331 13T234 -12ZM428 564L383 607L494 742H610L721 607L676 564L554 667H550L428
564Z" />
<glyph unicode="&#xfc;" glyph-name="udieresis" d="M234 -12Q148 -12 109 39T70 187V491H185V202Q185 142 205 115T277 87Q312 87 339 103T400 160V491H515V0H421L412 78H408Q373 37 331 13T234 -12ZM448 579Q418 579 399 599T380 648Q380 677 399 696T448 716Q478
716 497 697T516 648Q516 619 497 599T448 579ZM656 579Q626 579 607 599T588 648Q588 677 607 696T656 716Q686 716 705 697T724 648Q724 619 705 599T656 579Z" />
<glyph unicode="&#xfd;" glyph-name="yacute" d="M137 -202Q117 -202 99 -200T67 -192L89 -102Q99 -105 109 -107T130 -109Q177 -109 205 -86T248 -25L260 6L40 491H155L256 250Q270 217 283 180T310 106H314Q325 141 338 178T363 250L452 491H561L356 -22Q340
-64 321 -97T275 -153T215 -189T137 -202ZM292 564L235 621L382 796L462 719L292 564Z" />
<glyph unicode="&#xfe;" glyph-name="thorn" d="M82 -194V706H198V520L193 438H196Q228 468 266 485T346 503Q393 503 430 486T494 435T533 356T547 253Q547 190 529 141T480 58T410 6T329 -12Q293 -12 259 4T196 46H193L198 -40V-194H82ZM305 83Q356 83 392 125T428
252Q428 326 401 367T314 408Q286 408 257 394T198 349V128Q225 103 253 93T305 83Z" />
<glyph unicode="&#xff;" glyph-name="ydieresis" d="M137 -202Q117 -202 99 -200T67 -192L89 -102Q99 -105 109 -107T130 -109Q177 -109 205 -86T248 -25L260 6L40 491H155L256 250Q270 217 283 180T310 106H314Q325 141 338 178T363 250L452 491H561L356 -22Q340
-64 321 -97T275 -153T215 -189T137 -202ZM202 579Q172 579 153 599T134 648Q134 677 153 696T202 716Q232 716 251 697T270 648Q270 619 251 599T202 579ZM410 579Q380 579 361 599T342 648Q342 677 361 696T410 716Q440 716 459 697T478 648Q478 619 459 599T410
579Z" />
<glyph unicode="&#x2013;" glyph-name="endash" d="M80 207V299H520V207H80Z" />
<glyph unicode="&#x2014;" glyph-name="emdash" d="M0 207V299H600V207H0Z" />
<glyph unicode="&#x2018;" glyph-name="quoteleft" d="M300 319Q252 319 224 356T196 460Q196 538 237 599T356 698L389 635Q340 609 313 573T282 486Q291 490 304 490Q340 490 362 468T385 409Q385 368 362 344T300 319Z" />
<glyph unicode="&#x2019;" glyph-name="quoteright" d="M243 319L210 382Q259 408 286 444T317 531Q308 527 294 527Q259 527 236 549T213 608Q213 649 237 673T298 698Q346 698 374 661T402 557Q402 479 362 418T243 319Z" />
<glyph unicode="&#x201a;" glyph-name="quotesinglbase" d="M243 -228L210 -165Q259 -139 286 -103T317 -16Q308 -20 294 -20Q259 -20 236 2T213 61Q213 102 237 126T298 151Q346 151 374 114T402 10Q402 -68 362 -129T243 -228Z" />
<glyph unicode="&#x201c;" glyph-name="quotedblleft" d="M433 319Q385 319 357 356T329 460Q329 538 370 599T489 698L522 635Q473 609 446 573T415 486Q424 490 437 490Q473 490 495 468T518 409Q518 368 495 344T433 319ZM424 319Q376 319 348 356T320 460Q320
538 361 599T480 698L513 635Q464 609 437 573T406 486Q415 490 428 490Q464 490 486 468T509 409Q509 368 486 344T424 319Z" />
<glyph unicode="&#x201d;" glyph-name="quotedblright" d="M376 319L343 382Q392 408 419 444T450 531Q441 527 427 527Q392 527 369 549T346 608Q346 649 370 673T431 698Q479 698 507 661T535 557Q535 479 495 418T376 319ZM367 319L334 382Q383 408 410 444T441
531Q432 527 418 527Q383 527 360 549T337 608Q337 649 361 673T422 698Q470 698 498 661T526 557Q526 479 486 418T367 319Z" />
<glyph unicode="&#x201e;" glyph-name="quotedblbase" d="M120 -228L87 -165Q136 -139 163 -103T194 -16Q185 -20 171 -20Q136 -20 113 2T90 61Q90 102 114 126T175 151Q223 151 251 114T279 10Q279 -68 239 -129T120 -228ZM367 -228L334 -165Q383 -139 410 -103T441
-16Q432 -20 418 -20Q383 -20 360 2T337 61Q337 102 361 126T422 151Q470 151 498 114T526 10Q526 -68 486 -129T367 -228Z" />
<glyph unicode="&#x2022;" glyph-name="bullet" d="M300 108Q268 108 240 119T190 151T157 200T144 262Q144 296 156 324T190 372T239 404T300 416Q332 416 360 405T410 373T443 324T456 262Q456 228 444 200T410 152T361 120T300 108Z" />
<glyph unicode="&#x2039;" glyph-name="guilsinglleft" d="M348 38L186 195V309L348 466L399 420L272 252L399 83L348 38Z" />
<glyph unicode="&#x203a;" glyph-name="guilsinglright" d="M252 38L201 83L328 252L201 420L252 466L414 309V195L252 38Z" />
</font>
</defs>
</svg>
