<svg xmlns="http://www.w3.org/2000/svg" xmlns:xlink="http://www.w3.org/1999/xlink" xmlns:lucid="lucid" width="1100" height="582.6"><g transform="translate(-20 -159.99999999999997)" lucid:page-tab-id="0_0"><path d="M580 180h500v220H580z" stroke="#000" stroke-opacity="0" stroke-width="2" fill="#f4f4f4"/><path d="M840 214h260v63.33H840z" stroke="#000" stroke-opacity="0" stroke-width="2" fill="#fff" fill-opacity="0"/><use xlink:href="#a" transform="matrix(1,0,0,1,845,219) translate(0 17.77777777777778)"/><use xlink:href="#b" transform="matrix(1,0,0,1,845,219) translate(61.666666666666664 17.77777777777778)"/><use xlink:href="#c" transform="matrix(1,0,0,1,845,219) translate(82.65432098765432 17.77777777777778)"/><use xlink:href="#d" transform="matrix(1,0,0,1,845,219) translate(127.03703703703704 17.77777777777778)"/><use xlink:href="#e" transform="matrix(1,0,0,1,845,219) translate(183.82716049382717 17.77777777777778)"/><path d="M700 254v64.53" fill="none"/><path d="M702 254c0 1.1-.9 2-2 2s-2-.9-2-2 .9-2 2-2 2 .9 2 2zm0 16.13c0 1.1-.9 2-2 2s-2-.9-2-2 .9-2 2-2 2 .9 2 2zm0 16.13c0 1.1-.9 2-2 2s-2-.9-2-2 .9-2 2-2 2 .9 2 2zm0 16.14c0 1.1-.9 2-2 2s-2-.9-2-2 .9-2 2-2 2 .9 2 2z" fill="#c92d39"/><path d="M700 333.53l-4.64-14.27h9.28z" stroke="#c92d39" stroke-width="4" fill="#c92d39"/><path d="M600 214h260v63.33H600z" stroke="#000" stroke-opacity="0" stroke-width="2" fill="#fff" fill-opacity="0"/><use xlink:href="#f" transform="matrix(1,0,0,1,605,219) translate(0 17.77777777777778)"/><use xlink:href="#g" transform="matrix(1,0,0,1,605,219) translate(45.67901234567901 17.77777777777778)"/><use xlink:href="#c" transform="matrix(1,0,0,1,605,219) translate(66.66666666666666 17.77777777777778)"/><use xlink:href="#d" transform="matrix(1,0,0,1,605,219) translate(111.04938271604937 17.77777777777778)"/><use xlink:href="#e" transform="matrix(1,0,0,1,605,219) translate(167.8395061728395 17.77777777777778)"/><path d="M640 353.67h120V417H640z" stroke="#000" stroke-opacity="0" stroke-width="2" fill="#fff" fill-opacity="0"/><use xlink:href="#h" transform="matrix(1,0,0,1,645,358.66666666666663) translate(0 17.77777777777778)"/><use xlink:href="#d" transform="matrix(1,0,0,1,645,358.66666666666663) translate(37.03703703703704 17.77777777777778)"/><use xlink:href="#i" transform="matrix(1,0,0,1,645,358.66666666666663) translate(93.82716049382717 17.77777777777778)"/><path d="M760 360l68.1-102.13" fill="none"/><path d="M762 360c0 1.1-.9 2-2 2s-2-.9-2-2 .9-2 2-2 2 .9 2 2zm8.5-12.77c0 1.1-.88 2-2 2-1.1 0-2-.9-2-2s.9-2 2-2c1.12 0 2 .9 2 2zm8.52-12.76c0 1.1-.9 2-2 2s-2-.9-2-2 .9-2 2-2 2 .9 2 2zm8.5-12.77c0 1.1-.88 2-2 2-1.1 0-2-.9-2-2s.9-2 2-2c1.12 0 2 .9 2 2zm8.52-12.77c0 1.1-.9 2-2 2s-2-.9-2-2 .9-2 2-2 2 .9 2 2zm8.52-12.76c0 1.1-.9 2-2 2s-2-.9-2-2 .9-2 2-2 2 .9 2 2zm8.5-12.77c0 1.1-.9 2-2 2s-2-.9-2-2 .9-2 2-2 2 .9 2 2zm8.52-12.77c0 1.1-.9 2-2 2s-2-.9-2-2 .9-2 2-2 2 .9 2 2z" fill="#c92d39"/><path d="M836.4 245.4l-4.05 14.43-7.7-5.15z" stroke="#c92d39" stroke-width="4" fill="#c92d39"/><path d="M1040 354h27.4v58H1040z" fill-opacity="0"/><use xlink:href="#j" transform="matrix(1,0,0,1,1045,359) translate(0 32)"/><path d="M40 180h500v220H40z" stroke="#000" stroke-opacity="0" stroke-width="2" fill="#f4f4f4"/><path d="M360 214h140v63.33H360z" stroke="#000" stroke-opacity="0" stroke-width="2" fill="#fff" fill-opacity="0"/><use xlink:href="#k" transform="matrix(1,0,0,1,365,219.00000000000003) translate(0 17.77777777777778)"/><use xlink:href="#l" transform="matrix(1,0,0,1,365,219.00000000000003) translate(37.03703703703704 17.77777777777778)"/><use xlink:href="#m" transform="matrix(1,0,0,1,365,219.00000000000003) translate(93.82716049382717 17.77777777777778)"/><path d="M160 254v64.53" fill="none"/><path d="M162 254c0 1.1-.9 2-2 2s-2-.9-2-2 .9-2 2-2 2 .9 2 2zm0 16.13c0 1.1-.9 2-2 2s-2-.9-2-2 .9-2 2-2 2 .9 2 2zm0 16.13c0 1.1-.9 2-2 2s-2-.9-2-2 .9-2 2-2 2 .9 2 2zm0 16.14c0 1.1-.9 2-2 2s-2-.9-2-2 .9-2 2-2 2 .9 2 2z" fill="#c92d39"/><path d="M160 333.53l-4.64-14.27h9.28z" stroke="#c92d39" stroke-width="4" fill="#c92d39"/><path d="M60 214h260v63.33H60z" stroke="#000" stroke-opacity="0" stroke-width="2" fill="#fff" fill-opacity="0"/><use xlink:href="#f" transform="matrix(1,0,0,1,65,219.00000000000003) translate(0 17.77777777777778)"/><use xlink:href="#g" transform="matrix(1,0,0,1,65,219.00000000000003) translate(45.67901234567901 17.77777777777778)"/><use xlink:href="#c" transform="matrix(1,0,0,1,65,219.00000000000003) translate(66.66666666666666 17.77777777777778)"/><use xlink:href="#d" transform="matrix(1,0,0,1,65,219.00000000000003) translate(111.04938271604937 17.77777777777778)"/><use xlink:href="#e" transform="matrix(1,0,0,1,65,219.00000000000003) translate(167.8395061728395 17.77777777777778)"/><path d="M100 353.67h120V417H100z" stroke="#000" stroke-opacity="0" stroke-width="2" fill="#fff" fill-opacity="0"/><use xlink:href="#h" transform="matrix(1,0,0,1,105,358.66666666666663) translate(0 17.77777777777778)"/><use xlink:href="#d" transform="matrix(1,0,0,1,105,358.66666666666663) translate(37.03703703703704 17.77777777777778)"/><use xlink:href="#i" transform="matrix(1,0,0,1,105,358.66666666666663) translate(93.82716049382717 17.77777777777778)"/><path d="M220 360l123.37-100.75" fill="none"/><path d="M222 360c0 1.1-.9 2-2 2s-2-.9-2-2 .9-2 2-2 2 .9 2 2zm12.34-10.08c0 1.1-.9 2-2 2s-2-.9-2-2 .9-2 2-2 2 .9 2 2zm12.33-10.07c0 1.1-.9 2-2 2s-2-.9-2-2 .9-2 2-2 2 .9 2 2zM259 329.77c0 1.1-.88 2-2 2-1.1 0-2-.9-2-2s.9-2 2-2c1.12 0 2 .9 2 2zm12.35-10.07c0 1.1-.9 2-2 2s-2-.9-2-2 .9-2 2-2 2 .9 2 2zm12.33-10.08c0 1.1-.9 2-2 2s-2-.9-2-2 .9-2 2-2 2 .9 2 2zm12.34-10.07c0 1.1-.9 2-2 2s-2-.9-2-2 .9-2 2-2 2 .9 2 2zm12.34-10.08c0 1.1-.9 2-2 2s-2-.9-2-2 .9-2 2-2 2 .9 2 2zm12.34-10.07c0 1.1-.9 2-2 2s-2-.9-2-2 .9-2 2-2 2 .9 2 2zm12.33-10.08c0 1.1-.9 2-2 2s-2-.9-2-2 .9-2 2-2 2 .9 2 2zm12.34-10.07c0 1.1-.9 2-2 2s-2-.9-2-2 .9-2 2-2 2 .9 2 2z" fill="#c92d39"/><path d="M355 249.76l-8.13 12.6-5.86-7.17z" stroke="#c92d39" stroke-width="4" fill="#c92d39"/><path d="M300 440h540v220H300z" stroke="#000" stroke-opacity="0" stroke-width="2" fill="#f4f4f4"/><path d="M320 474h260v63.33H320z" stroke="#000" stroke-opacity="0" stroke-width="2" fill="#fff" fill-opacity="0"/><g><use xlink:href="#a" transform="matrix(1,0,0,1,325,479.0000000000001) translate(0 17.77777777777778)"/><use xlink:href="#b" transform="matrix(1,0,0,1,325,479.0000000000001) translate(61.666666666666664 17.77777777777778)"/><use xlink:href="#c" transform="matrix(1,0,0,1,325,479.0000000000001) translate(82.65432098765432 17.77777777777778)"/><use xlink:href="#d" transform="matrix(1,0,0,1,325,479.0000000000001) translate(127.03703703703704 17.77777777777778)"/><use xlink:href="#e" transform="matrix(1,0,0,1,325,479.0000000000001) translate(183.82716049382717 17.77777777777778)"/></g><path d="M720 514v67.76" fill="none"/><path d="M721 514c0 .55-.45 1-1 1s-1-.45-1-1 .45-1 1-1 1 .45 1 1zm0 4c0 .54-.45 1-1 1s-1-.46-1-1c0-.57.45-1 1-1s1 .43 1 1zm0 3.97c0 .55-.45 1-1 1s-1-.45-1-1 .45-1 1-1 1 .45 1 1zm0 4c0 .54-.45 1-1 1s-1-.46-1-1c0-.56.45-1 1-1s1 .44 1 1zm0 3.97c0 .56-.45 1-1 1s-1-.44-1-1c0-.55.45-1 1-1s1 .45 1 1zm0 4c0 .54-.45 1-1 1s-1-.46-1-1c0-.56.45-1 1-1s1 .44 1 1zm0 3.98c0 .55-.45 1-1 1s-1-.45-1-1c0-.56.45-1 1-1s1 .44 1 1zm0 3.98c0 .56-.45 1-1 1s-1-.44-1-1c0-.55.45-1 1-1s1 .45 1 1zm0 4c0 .54-.45 1-1 1s-1-.46-1-1c0-.56.45-1 1-1s1 .44 1 1zm0 3.98c0 .55-.45 1-1 1s-1-.45-1-1c0-.56.45-1 1-1s1 .44 1 1zm0 3.98c0 .55-.45 1-1 1s-1-.45-1-1 .45-1 1-1 1 .45 1 1zm0 4c0 .54-.45 1-1 1s-1-.46-1-1c0-.57.45-1 1-1s1 .43 1 1zm0 3.97c0 .56-.45 1-1 1s-1-.44-1-1c0-.55.45-1 1-1s1 .45 1 1zm0 4c0 .54-.45 1-1 1s-1-.46-1-1c0-.56.45-1 1-1s1 .44 1 1zm0 3.98c0 .56-.45 1-1 1s-1-.44-1-1c0-.55.45-1 1-1s1 .45 1 1zm0 4c0 .54-.45 1-1 1s-1-.46-1-1c0-.56.45-1 1-1s1 .44 1 1zm0 3.98c0 .55-.45 1-1 1s-1-.45-1-1 .45-1 1-1 1 .45 1 1zm0 3.98c0 .56-.45 1-1 1s-1-.44-1-1c0-.55.45-1 1-1s1 .45 1 1z"/><path d="M720 596.76l-4.64-14.26h9.28z" stroke="#000" stroke-width="2"/><path d="M620 474.33h220v63.34H620z" stroke="#000" stroke-opacity="0" stroke-width="2" fill="#fff" fill-opacity="0"/><g><use xlink:href="#f" transform="matrix(1,0,0,1,625,479.3333333333333) translate(0 17.77777777777778)"/><use xlink:href="#g" transform="matrix(1,0,0,1,625,479.3333333333333) translate(45.67901234567901 17.77777777777778)"/><use xlink:href="#c" transform="matrix(1,0,0,1,625,479.3333333333333) translate(66.66666666666666 17.77777777777778)"/><use xlink:href="#d" transform="matrix(1,0,0,1,625,479.3333333333333) translate(111.04938271604937 17.77777777777778)"/><use xlink:href="#e" transform="matrix(1,0,0,1,625,479.3333333333333) translate(167.8395061728395 17.77777777777778)"/></g><path d="M660 613.67h120V677H660z" stroke="#000" stroke-opacity="0" stroke-width="2" fill="#fff" fill-opacity="0"/><g><use xlink:href="#h" transform="matrix(1,0,0,1,665,618.6666666666666) translate(0 17.77777777777778)"/><use xlink:href="#d" transform="matrix(1,0,0,1,665,618.6666666666666) translate(37.03703703703704 17.77777777777778)"/><use xlink:href="#i" transform="matrix(1,0,0,1,665,618.6666666666666) translate(93.82716049382717 17.77777777777778)"/></g><path d="M540 491.33h61.76" fill="none"/><path d="M541 491.33c0 .56-.45 1-1 1s-1-.44-1-1c0-.55.45-1 1-1s1 .45 1 1zm4.12 0c0 .56-.45 1-1 1s-1-.44-1-1c0-.55.45-1 1-1s1 .45 1 1zm4.12 0c0 .56-.45 1-1 1-.56 0-1-.44-1-1 0-.55.44-1 1-1 .55 0 1 .45 1 1zm4.1 0c0 .56-.43 1-1 1-.54 0-1-.44-1-1 0-.55.46-1 1-1 .57 0 1 .45 1 1zm4.13 0c0 .56-.45 1-1 1s-1-.44-1-1c0-.55.45-1 1-1s1 .45 1 1zm4.12 0c0 .56-.46 1-1 1-.56 0-1-.44-1-1 0-.55.44-1 1-1 .54 0 1 .45 1 1zm4.1 0c0 .56-.44 1-1 1-.55 0-1-.44-1-1 0-.55.45-1 1-1 .56 0 1 .45 1 1zm4.12 0c0 .56-.44 1-1 1-.55 0-1-.44-1-1 0-.55.45-1 1-1 .56 0 1 .45 1 1zm4.12 0c0 .56-.45 1-1 1s-1-.44-1-1c0-.55.45-1 1-1s1 .45 1 1zm4.12 0c0 .56-.45 1-1 1s-1-.44-1-1c0-.55.45-1 1-1s1 .45 1 1zm4.12 0c0 .56-.45 1-1 1-.56 0-1-.44-1-1 0-.55.44-1 1-1 .55 0 1 .45 1 1zm4.1 0c0 .56-.43 1-1 1-.54 0-1-.44-1-1 0-.55.46-1 1-1 .57 0 1 .45 1 1zm4.13 0c0 .56-.44 1-1 1-.54 0-1-.44-1-1 0-.55.46-1 1-1 .56 0 1 .45 1 1zm4.13 0c0 .56-.45 1-1 1s-1-.44-1-1c0-.55.45-1 1-1s1 .45 1 1zm4.12 0c0 .56-.45 1-1 1-.56 0-1-.44-1-1 0-.55.44-1 1-1 .55 0 1 .45 1 1zm4.1 0c0 .56-.43 1-1 1-.54 0-1-.44-1-1 0-.55.46-1 1-1 .57 0 1 .45 1 1z"/><path d="M616.76 491.33l-14.26 4.64v-9.27z" stroke="#000" stroke-width="2"/><path d="M800 609.6h40V672h-40z" fill="#fff" fill-opacity="0"/><g><use xlink:href="#n" transform="matrix(1,0,0,1,805,614.5999999999999) translate(-7.296296296296298 42.66666666666667)"/><use xlink:href="#o" transform="matrix(1,0,0,1,805,614.5999999999999) translate(15 106.66666666666667)"/></g><path d="M500 354h27.4v58H500z" fill-opacity="0"/><g><use xlink:href="#j" transform="matrix(1,0,0,1,505,359) translate(0 32)"/></g><defs><path d="M24 0v-248h195v40H76v63h132v40H76v65h150V0H24" id="p"/><path d="M144 0l-44-69L55 0H2l70-98-66-92h53l41 62 40-62h54l-67 91 71 99h-54" id="q"/><path d="M185-48c-13 30-37 53-82 52C43 2 14-33 14-96s30-98 90-98c62 0 83 45 84 108H66c0 31 8 55 39 56 18 0 30-7 34-22zm-45-69c5-46-57-63-70-21-2 6-4 13-4 21h74" id="r"/><path d="M175 0L67-191c6 58 2 128 3 191H24v-248h59L193-55c-6-58-2-129-3-193h46V0h-61" id="s"/><g id="a"><use transform="matrix(0.06172839506172839,0,0,0.06172839506172839,0,0)" xlink:href="#p"/><use transform="matrix(0.06172839506172839,0,0,0.06172839506172839,14.814814814814813,0)" xlink:href="#q"/><use transform="matrix(0.06172839506172839,0,0,0.06172839506172839,27.160493827160494,0)" xlink:href="#r"/><use transform="matrix(0.06172839506172839,0,0,0.06172839506172839,39.50617283950617,0)" xlink:href="#s"/></g><path d="M205 0l-28-72H64L36 0H1l101-248h38L239 0h-34zm-38-99l-47-123c-12 45-31 82-46 123h93" id="t"/><use transform="matrix(0.06172839506172839,0,0,0.06172839506172839,0,0)" xlink:href="#t" id="b"/><path d="M87 75C49 33 22-17 22-94c0-76 28-126 65-167h31c-38 41-64 92-64 168S80 34 118 75H87" id="u"/><path d="M33 0v-248h34V0H33" id="v"/><path d="M100-194c62-1 85 37 85 99 1 63-27 99-86 99S16-35 15-95c0-66 28-99 85-99zM99-20c44 1 53-31 53-75 0-43-8-75-51-75s-53 32-53 75 10 74 51 75" id="w"/><path d="M84 4C-5 8 30-112 23-190h32v120c0 31 7 50 39 49 72-2 45-101 50-169h31l1 190h-30c-1-10 1-25-2-33-11 22-28 36-60 37" id="x"/><g id="c"><use transform="matrix(0.06172839506172839,0,0,0.06172839506172839,0,0)" xlink:href="#u"/><use transform="matrix(0.06172839506172839,0,0,0.06172839506172839,7.345679012345679,0)" xlink:href="#v"/><use transform="matrix(0.06172839506172839,0,0,0.06172839506172839,13.518518518518519,0)" xlink:href="#w"/><use transform="matrix(0.06172839506172839,0,0,0.06172839506172839,25.864197530864196,0)" xlink:href="#x"/></g><path d="M160-131c35 5 61 23 61 61C221 17 115-2 30 0v-248c76 3 177-17 177 60 0 33-19 50-47 57zm-97-11c50-1 110 9 110-42 0-47-63-36-110-37v79zm0 115c55-2 124 14 124-45 0-56-70-42-124-44v89" id="y"/><path d="M141-36C126-15 110 5 73 4 37 3 15-17 15-53c-1-64 63-63 125-63 3-35-9-54-41-54-24 1-41 7-42 31l-33-3c5-37 33-52 76-52 45 0 72 20 72 64v82c-1 20 7 32 28 27v20c-31 9-61-2-59-35zM48-53c0 20 12 33 32 33 41-3 63-29 60-74-43 2-92-5-92 41" id="z"/><path d="M117-194c89-4 53 116 60 194h-32v-121c0-31-8-49-39-48C34-167 62-67 57 0H25l-1-190h30c1 10-1 24 2 32 11-22 29-35 61-36" id="A"/><path d="M143 0L79-87 56-68V0H24v-261h32v163l83-92h37l-77 82L181 0h-38" id="B"/><g id="d"><use transform="matrix(0.06172839506172839,0,0,0.06172839506172839,0,0)" xlink:href="#y"/><use transform="matrix(0.06172839506172839,0,0,0.06172839506172839,14.814814814814813,0)" xlink:href="#z"/><use transform="matrix(0.06172839506172839,0,0,0.06172839506172839,27.160493827160494,0)" xlink:href="#A"/><use transform="matrix(0.06172839506172839,0,0,0.06172839506172839,39.50617283950617,0)" xlink:href="#B"/></g><path d="M33-261c38 41 65 92 65 168S71 34 33 75H2C39 34 66-17 66-93S39-220 2-261h31" id="C"/><g id="e"><use transform="matrix(0.06172839506172839,0,0,0.06172839506172839,0,0)" xlink:href="#t"/><use transform="matrix(0.06172839506172839,0,0,0.06172839506172839,14.814814814814813,0)" xlink:href="#C"/></g><g id="f"><use transform="matrix(0.06172839506172839,0,0,0.06172839506172839,0,0)" xlink:href="#p"/><use transform="matrix(0.06172839506172839,0,0,0.06172839506172839,14.814814814814813,0)" xlink:href="#q"/><use transform="matrix(0.06172839506172839,0,0,0.06172839506172839,27.160493827160494,0)" xlink:href="#r"/></g><use transform="matrix(0.06172839506172839,0,0,0.06172839506172839,0,0)" xlink:href="#t" id="g"/><g id="h"><use transform="matrix(0.06172839506172839,0,0,0.06172839506172839,0,0)" xlink:href="#v"/><use transform="matrix(0.06172839506172839,0,0,0.06172839506172839,6.172839506172839,0)" xlink:href="#w"/><use transform="matrix(0.06172839506172839,0,0,0.06172839506172839,18.51851851851852,0)" xlink:href="#x"/></g><use transform="matrix(0.06172839506172839,0,0,0.06172839506172839,0,0)" xlink:href="#y" id="i"/><path fill="#c92d39" d="M151-179c29-31 55-64 89-87 9 0 14 8 15 19 13-2 20 11 14 21-28 26-56 57-84 94 17 28 41 45 55 72 0 10-5 16-15 16-2 12-12 27-25 15-1 6-11 10-15 10-19-11-27-30-45-55-32 34-43 56-63 74-7 0-6-20-16-12-11-3-23-15-10-27-3 0-7-7-7-11 15-28 37-49 62-78-15-25-34-59-43-95 0-12 11-29 24-12 1-11 12-23 19-11 13 23 27 45 45 67" id="D"/><use transform="matrix(0.1111111111111111,0,0,0.1111111111111111,0,0)" xlink:href="#D" id="j"/><g id="k"><use transform="matrix(0.06172839506172839,0,0,0.06172839506172839,0,0)" xlink:href="#v"/><use transform="matrix(0.06172839506172839,0,0,0.06172839506172839,6.172839506172839,0)" xlink:href="#w"/><use transform="matrix(0.06172839506172839,0,0,0.06172839506172839,18.51851851851852,0)" xlink:href="#x"/></g><g id="l"><use transform="matrix(0.06172839506172839,0,0,0.06172839506172839,0,0)" xlink:href="#y"/><use transform="matrix(0.06172839506172839,0,0,0.06172839506172839,14.814814814814813,0)" xlink:href="#z"/><use transform="matrix(0.06172839506172839,0,0,0.06172839506172839,27.160493827160494,0)" xlink:href="#A"/><use transform="matrix(0.06172839506172839,0,0,0.06172839506172839,39.50617283950617,0)" xlink:href="#B"/></g><use transform="matrix(0.06172839506172839,0,0,0.06172839506172839,0,0)" xlink:href="#t" id="m"/><path fill="#7ab648" d="M54-97c-1-7 16-19 26-18 14-2 14 46 25 29 34-52 64-94 91-128 7-8 33-19 44-9 0 2-2 5-6 10-45 54-86 112-125 172-3 4-9 6-17 6-32 11-32-50-38-62" id="E"/><use transform="matrix(0.14814814814814817,0,0,0.14814814814814817,0,0)" xlink:href="#E" id="n"/></defs></g></svg>