<svg xmlns="http://www.w3.org/2000/svg" xmlns:xlink="http://www.w3.org/1999/xlink" stroke-miterlimit="10" stroke-linecap="square" stroke="none" fill="none" viewBox="0 0 333.9130434782609 65.28" version="1.1" style="max-height: 500px" width="333.9130434782609" height="65.28"><clipPath id="p.0"><path clip-rule="nonzero" d="m0 0l1280.0 0l0 960.0l-1280.0 0l0 -960.0z"/></clipPath><g clip-path="url(#p.0)"><path fill-rule="evenodd" d="m0 0l1280.0 0l0 960.0l-1280.0 0z" fill-opacity="0.0" fill="#000000"/><path fill-rule="evenodd" d="m-18.08399 45.624672l343.24408 0" fill-opacity="0.0" fill="#000000"/><path fill-rule="evenodd" d="m-18.08399 45.624672l337.24408 0" stroke-linecap="butt" stroke-linejoin="round" stroke-width="1.0" stroke="#000000"/><path fill-rule="evenodd" d="m319.1601 47.276405l4.5381165 -1.6517334l-4.5381165 -1.6517334z" stroke-linecap="butt" stroke-width="1.0" stroke="#000000" fill="#000000"/><path fill-rule="evenodd" d="m84.23202 46.53281l0 0c0 -3.157158 2.5593872 -5.7165375 5.7165375 -5.7165375l0 0c1.5161209 0 2.9701462 0.60227585 4.042206 1.6743355c1.072052 1.0720558 1.6743317 2.526081 1.6743317 4.042202l0 0c0 3.157154 -2.5593796 5.7165337 -5.7165375 5.7165337l0 0c-3.1571503 0 -5.7165375 -2.5593796 -5.7165375 -5.7165337z" fill="#cfe2f3"/><path fill-rule="evenodd" d="m84.23202 46.53281l0 0c0 -3.157158 2.5593872 -5.7165375 5.7165375 -5.7165375l0 0c1.5161209 0 2.9701462 0.60227585 4.042206 1.6743355c1.072052 1.0720558 1.6743317 2.526081 1.6743317 4.042202l0 0c0 3.157154 -2.5593796 5.7165337 -5.7165375 5.7165337l0 0c-3.1571503 0 -5.7165375 -2.5593796 -5.7165375 -5.7165337z" stroke-linecap="butt" stroke-linejoin="round" stroke-width="1.0" stroke="#000000"/><path fill-rule="evenodd" d="m24.64567 46.53281l0 0c0 -3.157158 2.5593796 -5.7165375 5.7165356 -5.7165375l0 0c1.516119 0 2.9701424 0.60227585 4.042202 1.6743355c1.0720558 1.0720558 1.6743317 2.526081 1.6743317 4.042202l0 0c0 3.157154 -2.5593796 5.7165337 -5.7165337 5.7165337l0 0c-3.157156 0 -5.7165356 -2.5593796 -5.7165356 -5.7165337z" fill="#cfe2f3"/><path fill-rule="evenodd" d="m24.64567 46.53281l0 0c0 -3.157158 2.5593796 -5.7165375 5.7165356 -5.7165375l0 0c1.516119 0 2.9701424 0.60227585 4.042202 1.6743355c1.0720558 1.0720558 1.6743317 2.526081 1.6743317 4.042202l0 0c0 3.157154 -2.5593796 5.7165337 -5.7165337 5.7165337l0 0c-3.157156 0 -5.7165356 -2.5593796 -5.7165356 -5.7165337z" stroke-linecap="butt" stroke-linejoin="round" stroke-width="1.0" stroke="#000000"/><path fill-rule="evenodd" d="m143.81837 46.53281l0 0c0 -3.157158 2.559372 -5.7165375 5.7165375 -5.7165375l0 0c1.5161133 0 2.9701385 0.60227585 4.0421906 1.6743355c1.0720673 1.0720558 1.6743469 2.526081 1.6743469 4.042202l0 0c0 3.157154 -2.5593872 5.7165337 -5.7165375 5.7165337l0 0c-3.1571655 0 -5.7165375 -2.5593796 -5.7165375 -5.7165337z" fill="#cfe2f3"/><path fill-rule="evenodd" d="m143.81837 46.53281l0 0c0 -3.157158 2.559372 -5.7165375 5.7165375 -5.7165375l0 0c1.5161133 0 2.9701385 0.60227585 4.0421906 1.6743355c1.0720673 1.0720558 1.6743469 2.526081 1.6743469 4.042202l0 0c0 3.157154 -2.5593872 5.7165337 -5.7165375 5.7165337l0 0c-3.1571655 0 -5.7165375 -2.5593796 -5.7165375 -5.7165337z" stroke-linecap="butt" stroke-linejoin="round" stroke-width="1.0" stroke="#000000"/><path fill-rule="evenodd" d="m262.9911 45.624672l0 0c0 -3.157154 2.5593567 -5.7165337 5.716522 -5.7165337l0 0c1.5161133 0 2.9701538 0.60227585 4.042206 1.6743317c1.072052 1.0720596 1.6743164 2.526081 1.6743164 4.042202l0 0c0 3.157154 -2.5593567 5.7165337 -5.716522 5.7165337l0 0c-3.1571655 0 -5.716522 -2.5593796 -5.716522 -5.7165337z" fill="#cfe2f3"/><path fill-rule="evenodd" d="m262.9911 45.624672l0 0c0 -3.157154 2.5593567 -5.7165337 5.716522 -5.7165337l0 0c1.5161133 0 2.9701538 0.60227585 4.042206 1.6743317c1.072052 1.0720596 1.6743164 2.526081 1.6743164 4.042202l0 0c0 3.157154 -2.5593567 5.7165337 -5.716522 5.7165337l0 0c-3.1571655 0 -5.716522 -2.5593796 -5.716522 -5.7165337z" stroke-linecap="butt" stroke-linejoin="round" stroke-width="1.0" stroke="#000000"/><path fill-rule="evenodd" d="m203.40472 45.624672l0 0c0 -3.157154 2.5593872 -5.7165337 5.7165375 -5.7165337l0 0c1.5161133 0 2.9701385 0.60227585 4.042206 1.6743317c1.072052 1.0720596 1.6743317 2.526081 1.6743317 4.042202l0 0c0 3.157154 -2.5593872 5.7165337 -5.7165375 5.7165337l0 0c-3.1571503 0 -5.7165375 -2.5593796 -5.7165375 -5.7165337z" fill="#cfe2f3"/><path fill-rule="evenodd" d="m203.40472 45.624672l0 0c0 -3.157154 2.5593872 -5.7165337 5.7165375 -5.7165337l0 0c1.5161133 0 2.9701385 0.60227585 4.042206 1.6743317c1.072052 1.0720596 1.6743317 2.526081 1.6743317 4.042202l0 0c0 3.157154 -2.5593872 5.7165337 -5.7165375 5.7165337l0 0c-3.1571503 0 -5.7165375 -2.5593796 -5.7165375 -5.7165337z" stroke-linecap="butt" stroke-linejoin="round" stroke-width="1.0" stroke="#000000"/><path fill-rule="evenodd" d="m132.29134 0l34.48819 0l0 34.70866l-34.48819 0z" fill-opacity="0.0" fill="#000000"/><path fill-rule="nonzero" d="m147.93387 24.07433l-1.59375 -9.671875l1.609375 0l0.828125 5.328125q0.140625 0.875 0.34375 2.84375q0.46875 -1.015625 1.203125 -2.359375l3.234375 -5.8125l1.75 0l-5.546875 9.671875l-1.828125 0z" fill="#000000"/><path fill-rule="evenodd" d="m48.671917 0l82.55118 0l0 34.70866l-82.55118 0z" fill-opacity="0.0" fill="#000000"/><path fill-rule="nonzero" d="m65.01196 24.07433l-1.5937462 -9.671875l1.6093712 0l0.828125 5.328125q0.140625 0.875 0.34375 2.84375q0.46875 -1.015625 1.203125 -2.359375l3.234375 -5.8125l1.75 0l-5.546875 9.671875l-1.828125 0zm5.078125 3.703125l0 -1.1875l10.875 0l0 1.1875l-10.875 0zm11.375717 0l2.796875 -13.375l1.515625 0l-0.28125 1.34375q0.84375 -0.875 1.515625 -1.21875q0.671875 -0.34375 1.421875 -0.34375q1.375 0 2.28125 1.015625q0.921875 1.0 0.921875 2.875q0 1.515625 -0.5 2.765625q-0.5 1.234375 -1.234375 2.0q-0.71875 0.75 -1.46875 1.109375q-0.75 0.34375 -1.53125 0.34375q-1.75 0 -2.703125 -1.765625l-1.09375 5.25l-1.640625 0zm3.25 -7.65625q0 1.078125 0.15625 1.5q0.234375 0.59375 0.75 0.96875q0.515625 0.359375 1.203125 0.359375q1.421875 0 2.296875 -1.59375q0.875 -1.609375 0.875 -3.28125q0 -1.21875 -0.59375 -1.890625q-0.578125 -0.671875 -1.453125 -0.671875q-0.625 0 -1.171875 0.34375q-0.53125 0.328125 -1.0 0.984375q-0.453125 0.65625 -0.765625 1.609375q-0.296875 0.953125 -0.296875 1.671875zm7.938217 3.953125l2.015625 -9.671875l1.453125 0l-0.40625 1.96875q0.75 -1.109375 1.453125 -1.640625q0.71875 -0.546875 1.46875 -0.546875q0.5 0 1.21875 0.359375l-0.671875 1.53125q-0.4375 -0.3125 -0.9375 -0.3125q-0.875 0 -1.78125 0.96875q-0.90625 0.953125 -1.4375 3.46875l-0.8125 3.875l-1.5625 0zm13.306427 -3.28125l1.609375 0.15625q-0.34375 1.1875 -1.59375 2.265625q-1.234375 1.078125 -2.96875 1.078125q-1.0625 0 -1.96875 -0.5q-0.890625 -0.5 -1.359375 -1.4375q-0.46875 -0.953125 -0.46875 -2.15625q0 -1.59375 0.734375 -3.078125q0.734375 -1.484375 1.890625 -2.203125q1.171875 -0.734375 2.53125 -0.734375q1.734375 0 2.765625 1.078125q1.03125 1.0625 1.03125 2.921875q0 0.71875 -0.125 1.46875l-7.125 0q-0.046875 0.28125 -0.046875 0.5q0 1.359375 0.625 2.078125q0.625 0.71875 1.53125 0.71875q0.84375 0 1.65625 -0.546875q0.828125 -0.5625 1.28125 -1.609375zm-4.78125 -2.40625l5.421875 0q0.015625 -0.25 0.015625 -0.359375q0 -1.234375 -0.625 -1.890625q-0.625 -0.671875 -1.59375 -0.671875q-1.0625 0 -1.9375 0.734375q-0.859375 0.71875 -1.28125 2.1875zm10.500717 5.6875l-1.59375 -9.671875l1.609375 0l0.828125 5.328125q0.140625 0.875 0.34375 2.84375q0.46875 -1.015625 1.203125 -2.359375l3.234375 -5.8125l1.75 0l-5.546875 9.671875l-1.828125 0z" fill="#000000"/><path fill-rule="evenodd" d="m167.84514 0l82.55119 0l0 34.70866l-82.55119 0z" fill-opacity="0.0" fill="#000000"/><path fill-rule="nonzero" d="m184.69987 24.07433l-1.59375 -9.671875l1.609375 0l0.828125 5.328125q0.140625 0.875 0.34375 2.84375q0.46875 -1.015625 1.203125 -2.359375l3.234375 -5.8125l1.75 0l-5.546875 9.671875l-1.828125 0zm5.078125 3.703125l0 -1.1875l10.875 0l0 1.1875l-10.875 0zm12.188217 -3.703125l2.015625 -9.671875l1.5 0l-0.359375 1.6875q0.96875 -1.0 1.8125 -1.453125q0.859375 -0.453125 1.734375 -0.453125q1.1875 0 1.84375 0.640625q0.671875 0.625 0.671875 1.703125q0 0.53125 -0.234375 1.6875l-1.234375 5.859375l-1.640625 0l1.28125 -6.125q0.1875 -0.890625 0.1875 -1.328125q0 -0.484375 -0.328125 -0.78125q-0.328125 -0.296875 -0.953125 -0.296875q-1.28125 0 -2.265625 0.90625q-0.984375 0.90625 -1.453125 3.125l-0.9375 4.5l-1.640625 0zm17.469467 -3.28125l1.609375 0.15625q-0.34375 1.1875 -1.59375 2.265625q-1.234375 1.078125 -2.96875 1.078125q-1.0625 0 -1.96875 -0.5q-0.890625 -0.5 -1.359375 -1.4375q-0.46875 -0.953125 -0.46875 -2.15625q0 -1.59375 0.734375 -3.078125q0.734375 -1.484375 1.890625 -2.203125q1.171875 -0.734375 2.53125 -0.734375q1.734375 0 2.765625 1.078125q1.03125 1.0625 1.03125 2.921875q0 0.71875 -0.125 1.46875l-7.125 0q-0.046875 0.28125 -0.046875 0.5q0 1.359375 0.625 2.078125q0.625 0.71875 1.53125 0.71875q0.84375 0 1.65625 -0.546875q0.828125 -0.5625 1.28125 -1.609375zm-4.78125 -2.40625l5.421875 0q0.015625 -0.25 0.015625 -0.359375q0 -1.234375 -0.625 -1.890625q-0.625 -0.671875 -1.59375 -0.671875q-1.0625 0 -1.9375 0.734375q-0.859375 0.71875 -1.28125 2.1875zm7.406967 5.6875l4.21875 -4.90625l-2.421875 -4.765625l1.828125 0l0.8125 1.71875q0.453125 0.96875 0.828125 1.84375l2.78125 -3.5625l2.015625 0l-4.0625 4.890625l2.4375 4.78125l-1.8125 0l-0.96875 -1.96875q-0.3125 -0.625 -0.703125 -1.5625l-2.875 3.53125l-2.078125 0zm13.828125 -1.34375l-0.265625 1.359375q-0.59375 0.140625 -1.15625 0.140625q-0.984375 0 -1.5625 -0.46875q-0.4375 -0.375 -0.4375 -1.0q0 -0.3125 0.234375 -1.46875l1.171875 -5.625l-1.296875 0l0.265625 -1.265625l1.296875 0l0.5 -2.375l1.890625 -1.140625l-0.734375 3.515625l1.625 0l-0.28125 1.265625l-1.609375 0l-1.125 5.359375q-0.203125 1.015625 -0.203125 1.21875q0 0.28125 0.15625 0.4375q0.171875 0.15625 0.5625 0.15625q0.546875 0 0.96875 -0.109375z" fill="#000000"/></g></svg>