<?xml version="1.0" standalone="no"?>
<!DOCTYPE svg PUBLIC "-//W3C//DTD SVG 1.1//EN" "http://www.w3.org/Graphics/SVG/1.1/DTD/svg11.dtd">
<svg xmlns="http://www.w3.org/2000/svg">
<defs >
<font id="Karla" horiz-adv-x="490" ><font-face
    font-family="Karla"
    units-per-em="1000"
    panose-1="0 0 0 0 0 0 0 0 0 0"
    ascent="917"
    descent="-252"
    alphabetic="0" />
<glyph unicode=" " glyph-name="space" horiz-adv-x="229" />
<glyph unicode="!" glyph-name="exclam" horiz-adv-x="265" d="M138 668H258L204 223H110L138 668ZM102 -9T83 14T66 71T92 129T150 153T203 130T219 72T192 14T135 -9Q102 -9 83 14Z" />
<glyph unicode="&quot;" glyph-name="quotedbl" horiz-adv-x="352" d="M203 686L165 447H85L93 686H203ZM387 686L349 447H269L277 686H387Z" />
<glyph unicode="#" glyph-name="numbersign" horiz-adv-x="615" d="M372 163H252L227 33H124L149 163H67L81 243H163L193 399H110L126 479H208L233 607H336L311 479H432L457 607H560L535 479H621L603 399H520L490 243H575L560 163H476L451 33H347L372 163ZM266
243H387L416 399H296L266 243Z" />
<glyph unicode="$" glyph-name="dollar" horiz-adv-x="625" d="M465 344Q531 318 560 279T584 174Q578 101 520 50Q455 -6 350 -13L341 -102H265L273 -11Q178 0 125 52Q67 108 77 204H186Q181 157 206 133T284 101L302 291L256 309Q183 337 145 377T114 488T177
607T336 663L344 739H422L414 662Q578 641 589 469H481Q479 498 460 521T405 555L387 376L465 344ZM409 104T433 126T460 176Q464 231 404 258L376 270L361 99Q409 104 433 126ZM282 552T259 532T234 484T244 441T286 413L312 400L327 558Q282 552 259 532Z" />
<glyph unicode="%" glyph-name="percent" horiz-adv-x="691" d="M240 664Q265 664 287 655T324 626Q359 584 351 510T303 398T212 360Q159 360 129 398Q95 440 103 512Q109 584 151 626Q189 664 240 664ZM233 587Q191 587 184 512Q175 437 219 437Q263 437 268
512Q275 587 233 587ZM554 651H665L206 0H94L554 651ZM662 213T655 138T608 24T517 -14Q464 -14 434 24Q399 66 407 141T455 253T547 291T630 252ZM538 214Q497 214 490 140Q483 64 524 64Q542 64 556 81T574 139T568 197T538 214Z" />
<glyph unicode="&amp;" glyph-name="ampersand" horiz-adv-x="872" d="M723 343Q672 220 605 138L617 125Q645 93 680 93Q701 93 718 110T740 166H839Q829 83 790 35T681 -14Q599 -14 532 65Q432 -14 324 -14Q223 -14 158 43Q92 100 100 186Q111 316 279 345L266
360Q208 428 215 503Q221 572 278 616Q337 662 429 662Q520 662 570 616Q616 572 610 507T562 397T442 320L542 208Q604 282 653 389L723 343ZM335 283Q226 268 222 193Q217 152 247 124T335 96Q402 96 465 138L335 283ZM488 489Q490 518 472 537T418 557T360 536T334
489T340 443T369 402L387 382Q435 403 459 428T488 489Z" />
<glyph unicode="&apos;" glyph-name="quotesingle" horiz-adv-x="166" d="M202 677L164 437H84L92 677H202Z" />
<glyph unicode="(" glyph-name="parenleft" horiz-adv-x="364" d="M398 692Q313 602 266 512T210 319T230 127T329 -52L243 -119Q72 67 95 319Q119 572 326 757L398 692Z" />
<glyph unicode=")" glyph-name="parenright" horiz-adv-x="364" d="M180 757Q350 571 328 319Q306 72 97 -119L23 -52Q111 38 158 127T214 319Q224 422 194 512T94 692L180 757Z" />
<glyph unicode="*" glyph-name="asterisk" horiz-adv-x="368" d="M193 529L97 566L131 637L216 588L215 706H289L267 588L360 640L382 567L280 530L349 449L291 397L234 497L156 397L108 449L193 529Z" />
<glyph unicode="+" glyph-name="plus" horiz-adv-x="492" d="M346 491L329 299H503L492 192H318L300 0H191L209 192H34L44 299H219L237 491H346Z" />
<glyph unicode="," glyph-name="comma" horiz-adv-x="232" d="M79 0T63 18T49 67T75 118T136 140T193 108T209 29T172 -65T89 -139L12 -93Q87 -53 104 -5Q79 0 63 18Z" />
<glyph unicode="-" glyph-name="hyphen" horiz-adv-x="338" d="M76 356H330L319 249H66L76 356Z" />
<glyph unicode="." glyph-name="period" horiz-adv-x="196" d="M28 72Q30 106 54 129T111 153Q144 153 164 130T181 72Q178 37 154 14T96 -9Q62 -9 43 14T28 72Z" />
<glyph unicode="/" glyph-name="slash" horiz-adv-x="429" d="M349 746H462L151 -82H40L349 746Z" />
<glyph unicode="0" glyph-name="zero" horiz-adv-x="573" d="M349 664Q461 664 518 581Q578 492 562 325Q547 159 470 70Q396 -14 285 -14Q174 -14 116 70Q57 157 73 325Q89 494 164 581Q237 664 349 664ZM459 437T430 495T339 554T236 496T186 326T203 156T295
98Q358 98 397 156T448 325Z" />
<glyph unicode="1" glyph-name="one" horiz-adv-x="323" d="M301 655L240 0H129L177 509Q129 485 83 485L94 602Q164 613 219 655H301Z" />
<glyph unicode="2" glyph-name="two" horiz-adv-x="546" d="M174 111H508L498 0H54L64 113Q72 194 109 241Q144 285 216 316L342 367Q421 400 427 471Q431 507 410 532T344 558T269 534T228 463H106Q118 563 187 614Q254 664 351 664Q443 664 497 610Q553 554
546 473T497 342T375 259L247 207Q211 193 194 176T175 129L174 111Z" />
<glyph unicode="3" glyph-name="three" horiz-adv-x="563" d="M332 554Q235 554 211 472H95Q114 572 180 618T338 664Q436 664 492 614Q550 563 542 482Q531 377 432 341Q483 321 511 282T536 191T511 103T456 41Q386 -14 281 -14Q181 -14 118 42Q48 103 57 205H175Q173
155 204 127T290 98T379 125T417 194Q421 236 395 259T309 282H230L239 378H308Q359 378 389 402T422 465T405 529T332 554Z" />
<glyph unicode="4" glyph-name="four" horiz-adv-x="538" d="M486 658L448 247H549L540 143H439L425 0H316L329 143H33L41 235L380 658H486ZM171 235H344L366 478L171 235Z" />
<glyph unicode="5" glyph-name="five" horiz-adv-x="526" d="M237 397Q289 406 331 406Q422 406 471 357T511 217Q503 119 435 53Q366 -14 266 -14Q168 -14 115 41Q60 98 68 196H181Q176 146 203 122T276 98Q324 98 360 132Q393 164 399 217Q407 314 289 314H109L167
651H521L510 539H263L237 397Z" />
<glyph unicode="6" glyph-name="six" horiz-adv-x="549" d="M427 471Q423 554 352 554Q275 554 227 469Q178 382 178 241Q213 400 356 400Q439 400 486 342Q532 284 524 193Q514 99 450 43Q385 -14 291 -14Q181 -14 118 78Q57 170 71 314Q87 481 166 574Q243 664
359 664Q446 664 498 611Q548 559 544 471H427ZM320 300Q278 300 247 272T211 198Q207 155 233 126Q257 98 300 98T374 125T410 199T389 273T320 300Z" />
<glyph unicode="7" glyph-name="seven" horiz-adv-x="450" d="M496 651L484 534L186 0H39L355 533H72L83 651H496Z" />
<glyph unicode="8" glyph-name="eight" horiz-adv-x="585" d="M566 477Q561 428 527 390T436 341L439 339Q505 309 532 274Q563 235 558 184T534 98T480 39Q406 -14 290 -14Q178 -14 114 40Q51 94 59 176Q66 237 108 274T210 319Q135 360 114 428Q106 454 109
486Q117 569 181 616T348 664T512 612T566 477ZM301 277Q249 274 213 249T174 188Q170 148 208 122Q242 98 306 98T405 117T443 163T432 208T391 238L301 277ZM233 510Q223 497 221 477Q217 439 274 414L338 385Q380 385 414 409Q448 434 451 471T425 531T344 554Q267
554 233 510Z" />
<glyph unicode="9" glyph-name="nine" horiz-adv-x="552" d="M324 664Q374 664 417 641T491 574Q556 480 542 336Q517 84 374 10Q327 -14 274 -14T183 1T118 44Q61 103 71 193H186Q183 148 207 123T270 98T336 115T384 166Q420 227 433 346Q437 374 435 403Q394
251 255 251Q173 251 127 308T89 457Q97 549 162 607Q227 664 324 664ZM270 553T239 526T202 451T224 378T292 351T365 379T402 452Q406 498 379 526Q353 553 312 553Z" />
<glyph unicode=":" glyph-name="colon" horiz-adv-x="246" d="M53 88Q55 122 79 145T136 169Q169 169 189 146T206 87Q203 52 179 29T121 6Q87 6 68 29T53 88ZM82 384Q84 418 108 441T165 465Q198 465 218 442T235 383Q232 348 208 326T150 303Q116 303 97 325T82 384Z" />
<glyph unicode=";" glyph-name="semicolon" horiz-adv-x="281" d="M107 0T91 18T76 67T102 118T153 140T195 131T221 107Q241 77 237 30T200 -65T116 -139L40 -93Q114 -52 131 -5Q107 0 91 18ZM148 303T129 325T112 383T139 441T196 465T250 442T267 383T240 326T182
303Z" />
<glyph unicode="&lt;" glyph-name="less" horiz-adv-x="456" d="M466 528L184 324L427 120L345 27L66 269L77 380L401 621L466 528Z" />
<glyph unicode="=" glyph-name="equal" horiz-adv-x="457" d="M404 199L393 93H79L89 199H404ZM424 411L415 306H100L109 411H424Z" />
<glyph unicode="&gt;" glyph-name="greater" horiz-adv-x="456" d="M171 621L450 380L440 269L114 27L51 120L332 324L90 528L171 621Z" />
<glyph unicode="?" glyph-name="question" horiz-adv-x="467" d="M484 482Q479 428 453 393T373 330Q327 306 313 289Q290 259 288 225L286 197H175L179 237Q187 327 240 366Q258 379 282 391T321 414T345 436Q361 454 364 483T347 533T283 554T213 531T179 469H65Q78
558 136 611T291 664T440 612T484 482ZM148 102T171 124T228 147T282 125T298 67Q296 32 272 9T213 -14T160 9T145 67Q148 102 171 124Z" />
<glyph unicode="@" glyph-name="at" horiz-adv-x="932" d="M577 279Q584 347 536 347Q494 347 455 306Q411 259 405 193Q402 149 420 126T469 103T523 122T567 180L577 279ZM304 598T389 631T564 664T722 635T834 556Q926 452 912 293Q901 160 824 78Q753 4 666
4Q623 4 598 21T565 70L562 86Q541 48 513 26T447 4T384 18T340 57Q298 113 306 191Q316 295 388 368Q458 440 548 440Q609 440 641 401T666 280L653 151Q648 100 679 100Q714 100 750 144Q793 198 802 293Q814 407 752 479Q685 555 560 555Q411 555 307 453Q203
351 189 200Q175 56 256 -31Q340 -121 502 -121L493 -222Q390 -222 310 -189T175 -97T96 40T80 215T131 395T238 538Z" />
<glyph unicode="A" glyph-name="A" horiz-adv-x="568" d="M280 651H418L549 0H432L405 138H189L135 0H20L280 651ZM226 230H387L333 507L226 230Z" />
<glyph unicode="B" glyph-name="B" horiz-adv-x="585" d="M144 651H383Q481 651 530 600Q574 555 568 478Q563 423 532 384T450 329Q498 318 526 280T549 181Q537 59 426 16Q384 0 322 0H83L144 651ZM329 106Q422 106 431 188Q435 226 414 248T344 271H218L202
106H329ZM228 378H352Q399 378 424 400T454 461T437 523T368 546H244L228 378Z" />
<glyph unicode="C" glyph-name="C" horiz-adv-x="573" d="M357 664Q411 664 449 650T514 608Q568 555 574 465L455 441Q447 492 421 523T349 554Q289 554 246 498Q202 438 190 327Q181 218 210 158T300 97T395 130T434 215H552Q541 105 473 46T295 -14Q178 -14
118 76T73 327Q89 488 168 578Q244 664 357 664Z" />
<glyph unicode="D" glyph-name="D" horiz-adv-x="619" d="M336 651Q469 651 543 563T604 325Q590 179 499 88Q409 0 275 0H82L143 651H336ZM203 111H285Q367 111 422 172Q475 229 485 325Q493 422 451 480Q406 540 324 540H243L203 111Z" />
<glyph unicode="E" glyph-name="E" horiz-adv-x="529" d="M143 651H522L512 546H243L227 379H479L469 273H217L201 106H470L461 0H82L143 651Z" />
<glyph unicode="F" glyph-name="F" horiz-adv-x="494" d="M144 651H515L505 546H244L228 378H466L455 274H218L193 0H83L144 651Z" />
<glyph unicode="G" glyph-name="G" horiz-adv-x="612" d="M452 106Q404 -14 296 -14Q185 -14 123 78Q58 175 72 322Q88 478 175 572Q259 664 382 664Q466 664 518 624T592 496L477 468Q440 554 365 554Q299 554 250 492Q198 424 190 322Q180 221 214 160T310 98T411
136T461 243Q461 252 470 252Q470 252 487 251Q479 157 451 91Q451 131 456 172T462 255L332 258L339 336H574L543 0H454Q453 26 453 53T452 106Z" />
<glyph unicode="H" glyph-name="H" horiz-adv-x="638" d="M254 651L228 381H481L507 651H616L555 0H445L470 274H218L193 0H83L144 651H254Z" />
<glyph unicode="I" glyph-name="I" horiz-adv-x="276" d="M144 651H254L193 0H83L144 651Z" />
<glyph unicode="J" glyph-name="J" horiz-adv-x="404" d="M158 -14Q88 -14 17 27L29 148Q91 105 159 105Q197 105 216 129T241 204L283 651H395L352 204Q330 -14 158 -14Z" />
<glyph unicode="K" glyph-name="K" horiz-adv-x="593" d="M255 651L230 386L483 651H633L348 358L589 0H447L266 273L215 220L194 0H83L144 651H255Z" />
<glyph unicode="L" glyph-name="L" horiz-adv-x="447" d="M202 106H441L432 0H83L144 651H254L202 106Z" />
<glyph unicode="M" glyph-name="M" horiz-adv-x="789" d="M301 651L422 269L615 651H767L706 0H595L640 490L438 70H367L240 506L193 0H83L144 651H301Z" />
<glyph unicode="N" glyph-name="N" horiz-adv-x="648" d="M262 651L474 195L517 651H627L566 0H455L235 472L191 0H81L142 651H262Z" />
<glyph unicode="O" glyph-name="O" horiz-adv-x="618" d="M371 664Q493 664 556 579Q623 491 607 326Q592 160 508 70Q430 -14 307 -14Q186 -14 122 72Q57 160 73 326Q88 492 171 581Q248 664 371 664ZM504 435T468 495T361 555T244 495T186 324T211 155T317 96T435
155T493 325Z" />
<glyph unicode="P" glyph-name="P" horiz-adv-x="525" d="M450 651T500 598T542 444T471 289T310 235H213L191 0H80L141 651H350Q450 651 500 598ZM321 342Q369 342 396 370T428 443Q433 488 411 517T339 546H242L223 342H321Z" />
<glyph unicode="Q" glyph-name="Q" horiz-adv-x="620" d="M475 -61Q514 -61 564 -38L552 -163Q512 -181 469 -181T390 -155T330 -79L298 -14Q181 -12 120 74Q57 163 73 326Q88 492 171 581Q248 664 371 664Q493 664 556 579Q623 491 607 326Q593 191 539 111T403
1L414 -22Q433 -59 475 -61ZM504 435T468 495T361 555T244 495T186 324T211 155T317 96T435 155T493 325Z" />
<glyph unicode="R" glyph-name="R" horiz-adv-x="583" d="M563 451Q555 381 517 332T410 263L542 0H399L295 253H216L193 0H83L144 651H362Q468 651 519 597T563 451ZM321 334Q379 334 411 363T449 439Q452 487 429 516T352 546H244L223 334H321Z" />
<glyph unicode="S" glyph-name="S" horiz-adv-x="577" d="M435 469Q428 554 336 554Q291 554 264 534T234 486T246 442T294 412L417 356Q480 327 510 285T535 178Q527 88 462 37T286 -14Q188 -14 132 39Q69 99 77 204H186Q181 149 213 124T295 98T376 118T412
172T401 223T350 257L237 309Q171 338 139 377T113 486Q121 566 183 614Q246 664 346 664T495 613T543 469H435Z" />
<glyph unicode="T" glyph-name="T" horiz-adv-x="482" d="M67 651H538L528 546H347L295 0H186L238 546H57L67 651Z" />
<glyph unicode="U" glyph-name="U" horiz-adv-x="624" d="M245 651L206 247Q195 134 270 106Q293 98 321 98Q378 98 417 132T465 247L504 651H613L575 247Q563 122 494 54T312 -14T142 54T97 247L136 651H245Z" />
<glyph unicode="V" glyph-name="V" horiz-adv-x="550" d="M196 651L288 153L478 651H593L332 0H216L79 651H196Z" />
<glyph unicode="W" glyph-name="W" horiz-adv-x="875" d="M203 651L283 161L449 610H524L612 159L795 651H919L657 0H541L467 362L325 0H211L80 651H203Z" />
<glyph unicode="X" glyph-name="X" horiz-adv-x="620" d="M589 0H452L320 228L163 0H30L265 324L90 651H224L348 419L497 651H629L402 326L589 0Z" />
<glyph unicode="Y" glyph-name="Y" horiz-adv-x="549" d="M207 651L308 395L465 651H595L350 269L325 0H215L241 269L77 651H207Z" />
<glyph unicode="Z" glyph-name="Z" horiz-adv-x="569" d="M75 105L423 539H116L127 651H572L561 547L215 112H520L511 0H66L75 105Z" />
<glyph unicode="[" glyph-name="bracketleft" horiz-adv-x="320" d="M158 796H385L374 686H257L189 -34H306L295 -145H69L158 796Z" />
<glyph unicode="\" glyph-name="backslash" horiz-adv-x="429" d="M91 747H202L513 -81H400L91 747Z" />
<glyph unicode="]" glyph-name="bracketright" horiz-adv-x="307" d="M226 -145H-1L11 -34H128L203 686H86L97 796H325L226 -145Z" />
<glyph unicode="^" glyph-name="asciicircum" horiz-adv-x="481" d="M38 215L255 605H344L487 215H366L285 460L158 215H38Z" />
<glyph unicode="_" glyph-name="underscore" horiz-adv-x="695" d="M45 -55H642L632 -161H35L45 -55Z" />
<glyph unicode="`" glyph-name="grave" horiz-adv-x="324" d="M145 904L376 772L340 696L96 799L145 904Z" />
<glyph unicode="a" glyph-name="a" horiz-adv-x="528" d="M264 285Q308 285 371 267L376 313Q377 320 377 326V337Q377 375 361 393T306 411Q268 411 244 393T216 342H96Q105 425 161 462T306 500Q487 500 487 337V324Q487 317 486 309L457 0H362Q360 16 360 32T359
65Q307 -14 223 -14Q143 -14 100 27Q60 65 60 126Q60 206 122 248Q175 285 264 285ZM364 189Q316 205 284 205T236 201T206 189Q177 171 177 142T196 96T245 79T293 87T327 111Q358 142 364 189Z" />
<glyph unicode="b" glyph-name="b" horiz-adv-x="556" d="M233 427Q283 500 364 500Q439 500 486 440Q534 379 534 281Q534 176 478 88Q450 44 407 15T315 -14Q218 -14 188 84L154 0H83L147 686H258L233 427ZM219 277L214 222Q212 204 212 193T218 163T236 129Q261
96 296 96T354 112T392 154Q422 204 422 264T397 357T330 390T257 360T219 277Z" />
<glyph unicode="c" glyph-name="c" horiz-adv-x="478" d="M153 450T196 475T290 500T371 484T424 442Q465 391 465 318H353Q349 348 333 369T285 390Q227 390 197 327Q174 279 174 218T198 126T259 96T317 117T341 174H451Q443 92 391 42Q334 -14 248 -14Q168
-14 117 46Q63 110 63 209Q63 325 124 409Q153 450 196 475Z" />
<glyph unicode="d" glyph-name="d" horiz-adv-x="555" d="M375 77Q326 -14 243 -14Q166 -14 116 47Q65 109 65 210Q65 318 121 404Q185 500 284 500Q366 500 401 428L426 686H537L472 0H382L375 77ZM387 336T362 363T302 390T244 374T206 332Q177 284 177 225T202
131T270 96Q307 96 340 127Q374 159 380 209L386 271Q387 276 387 280V287Q387 336 362 363Z" />
<glyph unicode="e" glyph-name="e" horiz-adv-x="478" d="M170 213Q169 208 169 203T169 193Q169 144 190 114T248 84Q321 84 337 145H448Q432 75 376 31Q320 -14 247 -14Q168 -14 116 46Q63 107 63 208Q63 322 124 408Q189 500 295 500Q378 500 422 440Q463 386
463 300Q463 259 452 213H170ZM243 403T215 371T178 290H361Q362 295 362 300T362 317T359 345T346 375Q327 403 285 403Z" />
<glyph unicode="f" glyph-name="f" horiz-adv-x="331" d="M360 589Q335 598 316 598T280 586T260 541L255 487H335L327 405H247L210 0H100L137 405H73L81 487H145L151 542Q158 617 202 658Q240 694 299 694Q342 694 390 683L360 589Z" />
<glyph unicode="g" glyph-name="g" horiz-adv-x="526" d="M139 200Q97 242 97 306Q97 393 162 448Q223 500 304 500Q361 500 408 472Q420 529 462 565Q502 600 554 600L538 483Q461 483 453 428Q479 389 479 344T461 264T414 203Q352 151 271 151Q230 151 194
165Q154 149 154 114Q154 74 217 74H362Q503 74 503 -29Q503 -127 412 -193Q331 -252 229 -252Q123 -252 60 -206Q3 -164 3 -97Q3 -26 67 6Q85 15 104 18Q60 51 60 95T84 165T139 200ZM167 -12T140 -31T112 -84T145 -136T238 -154Q295 -154 340 -126Q393 -95 393
-45Q393 -30 383 -21T354 -12H205Q167 -12 140 -31ZM369 337Q369 415 292 415Q251 415 229 386T206 318Q206 237 281 237Q325 237 347 267T369 337Z" />
<glyph unicode="h" glyph-name="h" horiz-adv-x="563" d="M231 410Q284 500 375 500Q454 500 492 440Q526 386 518 284L492 0H382L408 284Q413 337 393 363T334 390T261 355T216 245V242L193 0H83L147 686H258L231 410Z" />
<glyph unicode="i" glyph-name="i" horiz-adv-x="298" d="M139 488H248L202 0H93L139 488ZM139 643Q143 675 162 694T214 714Q246 714 261 695T274 642Q272 610 252 591T200 572Q169 572 153 591T139 643Z" />
<glyph unicode="j" glyph-name="j" horiz-adv-x="303" d="M174 572T158 591T144 642T167 694T219 714Q251 714 267 695T279 643Q277 610 258 591T206 572ZM-76 -116Q-28 -145 11 -145T69 -125T93 -55L144 489H254L202 -57Q191 -162 148 -207T34 -252Q-24 -252
-88 -221L-76 -116Z" />
<glyph unicode="k" glyph-name="k" horiz-adv-x="518" d="M262 235L211 192L193 0H83L147 686H258L223 319L408 487H557L346 307L521 0H388L262 235Z" />
<glyph unicode="l" glyph-name="l" horiz-adv-x="276" d="M147 686H258L193 0H83L147 686Z" />
<glyph unicode="m" glyph-name="m" horiz-adv-x="855" d="M511 396Q563 500 670 500Q748 500 786 440Q820 386 812 284L786 0H675L701 284Q706 337 686 363T624 390T551 349T512 219L492 0H382L408 284Q414 337 394 363T331 390T255 347T213 216L193 0H83L129
487H225Q226 466 226 446T228 405Q281 500 375 500Q430 500 463 472T511 396Z" />
<glyph unicode="n" glyph-name="n" horiz-adv-x="563" d="M228 405Q281 500 375 500Q454 500 492 440Q526 386 518 284L492 0H382L408 284Q414 337 394 363T331 390T255 347T213 216L193 0H83L129 487H225L228 405Z" />
<glyph unicode="o" glyph-name="o" horiz-adv-x="511" d="M302 500Q347 500 384 485T448 437Q504 369 492 242Q481 120 412 50Q348 -14 255 -14Q161 -14 109 50Q53 118 65 242Q76 368 145 437Q208 500 302 500ZM389 319T366 356T297 394T217 357T175 243T191 130T261
92Q307 92 340 129T381 243Z" />
<glyph unicode="p" glyph-name="p" horiz-adv-x="550" d="M224 421Q270 500 356 500Q436 500 488 432Q543 359 532 243Q521 126 452 54Q387 -14 308 -14T196 37L170 -237H60L129 487H219Q222 440 224 421ZM211 196L210 191Q208 146 234 121T296 96Q340 96 374
132Q414 174 421 243T402 351T330 390T255 361T219 278L211 196Z" />
<glyph unicode="q" glyph-name="q" horiz-adv-x="551" d="M363 63Q326 -14 246 -14Q161 -14 109 54Q54 127 65 243Q76 359 144 432Q206 500 288 500Q329 500 361 479T411 412L443 487H514L461 -74Q457 -119 465 -131Q478 -151 511 -163L472 -252Q398 -231 371
-187T351 -65L363 63ZM389 330T364 360T295 390T216 351T175 243Q168 175 200 132Q228 96 272 96Q309 96 340 122Q371 150 375 196L383 276Q389 330 364 360Z" />
<glyph unicode="r" glyph-name="r" horiz-adv-x="377" d="M382 367Q362 372 334 372Q228 372 213 213L193 0H83L129 488H239L230 391Q254 445 287 470T358 496Q376 496 395 489L382 367Z" />
<glyph unicode="s" glyph-name="s" horiz-adv-x="474" d="M371 500T413 459T450 354H347Q347 377 330 391T279 405T225 391T203 356Q199 322 248 306L350 262Q398 243 423 214T445 146T425 81T382 32Q324 -14 237 -14T100 28T57 149H159Q156 114 177 98T237 82T297
98T321 135T312 168T273 189L180 228Q78 270 88 362Q94 425 147 462Q202 500 286 500Z" />
<glyph unicode="t" glyph-name="t" horiz-adv-x="357" d="M332 12Q271 -14 236 -14T176 -5T133 22Q94 62 102 136L127 406H67L75 487H135L147 614H257L245 487H362L354 406H236L212 140Q206 82 257 82Q283 82 324 98L332 12Z" />
<glyph unicode="u" glyph-name="u" horiz-adv-x="566" d="M381 86Q331 -9 240 -9Q123 -9 96 91Q86 126 91 177L121 488H230L201 190Q197 143 215 120T274 97T352 136T397 256L419 488H529L484 0H373L381 86Z" />
<glyph unicode="v" glyph-name="v" horiz-adv-x="468" d="M183 487L245 121L378 487H504L296 0H173L57 487H183Z" />
<glyph unicode="w" glyph-name="w" horiz-adv-x="685" d="M171 487L225 143L337 459H437L489 140L609 487H719L529 0H421L368 287L264 0H156L57 487H171Z" />
<glyph unicode="x" glyph-name="x" horiz-adv-x="503" d="M488 0H354L262 153L148 0H13L207 242L59 488H195L285 334L400 488H534L341 242L488 0Z" />
<glyph unicode="y" glyph-name="y" horiz-adv-x="456" d="M187 487L257 140L380 487H492L268 -87Q233 -175 192 -213T93 -252T-22 -220L-11 -113Q33 -145 80 -145Q137 -145 174 -47L192 0L62 487H187Z" />
<glyph unicode="z" glyph-name="z" horiz-adv-x="447" d="M61 99L311 388H87L97 487H442L432 388L189 99H406L396 0H51L61 99Z" />
<glyph unicode="{" glyph-name="braceleft" horiz-adv-x="356" d="M337 -158Q218 -158 164 -86Q114 -22 125 96L133 187Q138 229 133 244T111 259H87L99 383H122Q140 383 147 398T158 455L167 547Q178 663 240 729Q307 800 428 800L417 689Q351 689 318 655T276
545L267 449Q258 357 194 323L195 318Q219 304 233 273T243 193L234 97Q226 23 253 -12T347 -47L337 -158Z" />
<glyph unicode="|" glyph-name="bar" horiz-adv-x="276" d="M157 773H266L181 -122H71L157 773Z" />
<glyph unicode="}" glyph-name="braceright" horiz-adv-x="412" d="M210 323Q163 352 161 423V436Q161 441 162 449L171 545Q173 561 173 568V581Q171 637 144 663T58 689L68 800Q174 800 230 743Q280 692 282 594V571Q282 559 280 546L272 455Q270 435 270 418T275
392T294 383H317L306 259H283Q265 259 258 244T247 187L238 95Q219 -87 86 -140Q40 -158 -23 -158L-12 -47Q54 -47 88 -13T129 97L138 193Q143 241 163 272T210 318V323Z" />
<glyph unicode="~" glyph-name="asciitilde" horiz-adv-x="518" d="M192 263Q159 263 129 202L74 237Q97 303 127 341T204 380Q235 380 282 359Q356 326 379 326Q416 326 442 382L498 340Q449 211 359 211Q326 211 270 239L222 257Q206 263 192 263Z" />
<glyph unicode="&#xa0;" glyph-name="space" horiz-adv-x="229" />
<glyph unicode="&#xa3;" glyph-name="sterling" horiz-adv-x="545" d="M31 111H59Q93 111 107 132T127 197L135 282H61L68 364H142L150 445Q161 554 217 609T352 664Q511 664 515 487H407Q405 519 390 536T344 554T289 528T260 445L252 364H405L398 282H245L238
206Q230 139 196 111H315Q360 111 380 129T409 187H530Q514 48 401 12Q361 0 306 0H20L31 111Z" />
<glyph unicode="&#xa8;" glyph-name="dieresis" horiz-adv-x="349" d="M130 769T114 788T99 836T122 885T171 904Q200 904 216 885T230 837T207 788T158 769ZM276 837Q278 866 298 885T347 905T392 886T406 837T384 789T336 770T290 789T276 837Z" />
<glyph unicode="&#xb4;" glyph-name="acute" horiz-adv-x="324" d="M377 799L113 696L93 772L349 904L377 799Z" />
<glyph unicode="&#xc0;" glyph-name="Agrave" horiz-adv-x="568" d="M280 651H418L549 0H432L405 138H189L135 0H20L280 651ZM271 904L502 772L466 696L221 799L271 904ZM226 230H387L333 507L226 230Z" />
<glyph unicode="&#xc1;" glyph-name="Aacute" horiz-adv-x="568" d="M280 651H418L549 0H432L405 138H189L135 0H20L280 651ZM502 799L238 696L219 772L475 904L502 799ZM226 230H387L333 507L226 230Z" />
<glyph unicode="&#xc2;" glyph-name="Acircumflex" horiz-adv-x="568" d="M280 651H418L549 0H432L405 138H189L135 0H20L280 651ZM548 756L472 695L361 795L231 695L168 756L373 917L548 756ZM226 230H387L333 507L226 230Z" />
<glyph unicode="&#xc3;" glyph-name="Atilde" horiz-adv-x="568" d="M280 651H418L549 0H432L405 138H189L135 0H20L280 651ZM302 782Q269 782 241 732L201 761Q218 823 247 857T312 891Q334 891 375 868Q395 855 406 849T430 843Q459 843 482 891L524 857Q503
775 450 742Q435 732 420 732Q394 732 362 752T320 777T302 782ZM226 230H387L333 507L226 230Z" />
<glyph unicode="&#xc4;" glyph-name="Adieresis" horiz-adv-x="568" d="M280 651H418L549 0H432L405 138H189L135 0H20L280 651ZM226 230H387L333 507L226 230ZM238 750T222 769T207 817T230 866T279 886Q308 886 324 867T338 818T315 769T266 750ZM384 818Q386
847 406 867T455 887T500 867T514 818T492 770T444 751T398 770T384 818Z" />
<glyph unicode="&#xc8;" glyph-name="Egrave" horiz-adv-x="531" d="M143 651H522L512 546H243L227 379H479L469 273H217L201 106H470L461 0H82L143 651ZM256 904L487 772L451 696L207 799L256 904Z" />
<glyph unicode="&#xc9;" glyph-name="Eacute" horiz-adv-x="531" d="M82 0H461L470 106H201L217 273H469L479 379H227L243 546H512L522 651H143L82 0ZM488 799L224 696L204 772L460 904L488 799Z" />
<glyph unicode="&#xca;" glyph-name="Ecircumflex" horiz-adv-x="531" d="M153 651H532L521 546H252L237 379H489L478 273H226L211 106H480L471 0H92L153 651ZM543 756L466 695L356 795L226 695L163 756L367 917L543 756Z" />
<glyph unicode="&#xcb;" glyph-name="Edieresis" horiz-adv-x="531" d="M143 651H522L512 546H243L227 379H479L469 273H217L201 106H470L461 0H82L143 651ZM225 750T209 769T194 817T217 866T266 886Q295 886 311 867T325 818T302 769T253 750ZM371 818Q373 847
393 867T442 887T487 867T500 818Q498 789 479 770T431 751T385 770T371 818Z" />
<glyph unicode="&#xcc;" glyph-name="Igrave" horiz-adv-x="276" d="M144 651H254L193 0H83L144 651ZM121 904L352 772L316 696L72 799L121 904Z" />
<glyph unicode="&#xcd;" glyph-name="Iacute" horiz-adv-x="276" d="M83 0H193L254 651H144L83 0ZM353 799L89 696L70 772L325 904L353 799Z" />
<glyph unicode="&#xce;" glyph-name="Icircumflex" horiz-adv-x="276" d="M144 651H254L193 0H83L144 651ZM400 756L323 695L213 795L83 695L20 756L224 917L400 756Z" />
<glyph unicode="&#xcf;" glyph-name="Idieresis" horiz-adv-x="276" d="M144 651H254L193 0H83L144 651ZM63 817Q65 847 84 866T133 886Q162 886 178 867T192 818Q190 788 170 769T120 750Q92 750 76 769T63 817ZM239 818Q241 847 261 867T310 887Q339 887 355
867T368 818Q366 789 346 770T298 751Q269 751 253 770T239 818Z" />
<glyph unicode="&#xd1;" glyph-name="Ntilde" horiz-adv-x="651" d="M142 651L81 0H191L235 472L455 0H566L627 651H517L474 195L262 651H142ZM340 782Q308 782 279 732L239 761Q256 823 285 857T350 891Q372 891 413 868Q451 843 468 843Q497 843 520 891L562
857Q540 773 488 742Q473 732 458 732T427 739T390 759T358 777T340 782Z" />
<glyph unicode="&#xd2;" glyph-name="Ograve" horiz-adv-x="618" d="M371 664Q493 664 556 579Q623 491 607 326Q592 160 508 70Q430 -14 307 -14Q186 -14 122 72Q57 160 73 326Q88 492 171 581Q248 664 371 664ZM504 435T468 495T361 555T244 495T186 324T211
155T317 96T435 155T493 325ZM291 904L522 772L486 696L242 799L291 904Z" />
<glyph unicode="&#xd3;" glyph-name="Oacute" horiz-adv-x="618" d="M371 664Q182 664 106 476Q81 412 73 327T78 178T122 72Q186 -14 307 -14Q430 -14 508 70Q592 160 607 326Q623 491 556 579Q493 664 371 664ZM196 434T243 494T361 555T467 495T493 325T435
156T318 96T211 155T185 324ZM522 799L258 696L239 772L495 904L522 799Z" />
<glyph unicode="&#xd4;" glyph-name="Ocircumflex" horiz-adv-x="618" d="M371 664Q493 664 556 579Q623 491 607 326Q592 160 508 70Q430 -14 307 -14Q186 -14 122 72Q57 160 73 326Q88 492 171 581Q248 664 371 664ZM504 435T468 495T361 555T244 495T186 324T211
155T317 96T435 155T493 325ZM570 756L493 695L383 795L252 695L189 756L394 917L570 756Z" />
<glyph unicode="&#xd5;" glyph-name="Otilde" horiz-adv-x="618" d="M370 664Q311 664 261 644T171 581Q88 492 73 326Q57 162 122 72Q184 -14 307 -14Q430 -14 508 70Q592 160 607 326Q623 491 556 579Q493 664 370 664ZM197 435T243 495T360 555T467 495T493
325T435 156T317 96Q246 96 211 155T186 324ZM323 782Q291 782 263 732L222 761Q239 823 268 857T333 891Q355 891 386 873T428 849T451 843Q480 843 503 891L545 857Q523 773 472 742Q456 732 440 732Q414 732 371 760Q334 782 323 782Z" />
<glyph unicode="&#xd6;" glyph-name="Odieresis" horiz-adv-x="618" d="M371 664Q493 664 556 579Q623 491 607 326Q592 160 508 70Q430 -14 307 -14Q186 -14 122 72Q57 160 73 326Q88 492 171 581Q248 664 371 664ZM504 435T468 495T361 555T244 495T186 324T211
155T317 96T435 155T493 325ZM261 750T245 769T230 817T253 866T302 886Q331 886 347 867T361 818T338 769T289 750ZM407 818Q409 847 429 867T478 887T523 867T536 818Q534 789 515 770T467 751T421 770T407 818Z" />
<glyph unicode="&#xd9;" glyph-name="Ugrave" horiz-adv-x="624" d="M245 651L206 247Q195 134 270 106Q293 98 321 98Q378 98 417 132T465 247L504 651H613L575 247Q563 122 494 54T312 -14T142 54T97 247L136 651H245ZM295 904L526 772L490 696L246 799L295 904Z" />
<glyph unicode="&#xda;" glyph-name="Uacute" horiz-adv-x="624" d="M136 651L97 247Q86 122 142 54T311 -14T494 54T575 247L613 651H504L465 247Q457 167 418 133T321 98Q229 98 209 179Q202 207 206 247L245 651H136ZM526 799L262 696L243 772L499 904L526 799Z" />
<glyph unicode="&#xdb;" glyph-name="Ucircumflex" horiz-adv-x="624" d="M245 651L206 247Q195 134 270 106Q293 98 321 98Q378 98 417 132T465 247L504 651H613L575 247Q563 122 494 54T312 -14T142 54T97 247L136 651H245ZM575 756L498 695L388 795L258 695L195
756L399 917L575 756Z" />
<glyph unicode="&#xdc;" glyph-name="Udieresis" horiz-adv-x="624" d="M245 651L206 247Q195 134 270 106Q293 98 321 98Q378 98 417 132T465 247L504 651H613L575 247Q563 122 494 54T312 -14T142 54T97 247L136 651H245ZM267 750T251 769T236 817T259 866T308
886Q337 886 353 867T368 817Q364 788 344 769T296 750ZM414 818Q416 847 436 867T484 887T529 867T544 818T521 770T473 751T428 770T414 818Z" />
<glyph unicode="&#xe0;" glyph-name="agrave" horiz-adv-x="529" d="M255 285Q309 285 372 267L377 313Q382 364 367 387T310 411T245 393T217 342H97Q105 425 161 462T309 500T448 454T487 309L458 0H362Q361 16 361 32T360 65Q308 -14 224 -14Q138 -14 95 33Q55
77 61 144T118 248T255 285ZM239 767L469 635L433 559L189 662L239 767ZM365 189Q317 205 275 205Q184 205 178 143Q176 117 194 98T244 79T294 87T328 111Q359 142 365 189Z" />
<glyph unicode="&#xe1;" glyph-name="aacute" horiz-adv-x="529" d="M255 285Q309 285 372 267L377 313Q382 364 367 387T310 411T245 393T217 342H97Q105 425 161 462T309 500T448 454T487 309L458 0H362Q361 16 361 32T360 65Q308 -14 224 -14Q138 -14 95 33Q55
77 61 144T118 248T255 285ZM470 662L206 559L187 635L443 767L470 662ZM365 189Q317 205 275 205Q184 205 178 143Q176 117 194 98T244 79T294 87T328 111Q359 142 365 189Z" />
<glyph unicode="&#xe2;" glyph-name="acircumflex" horiz-adv-x="529" d="M255 285Q309 285 372 267L377 313Q382 364 367 387T310 411T245 393T217 342H97Q105 425 161 462T309 500T448 454T487 309L458 0H362Q361 16 361 32T360 65Q308 -14 224 -14Q138 -14
95 33Q55 77 61 144T118 248T255 285ZM517 619L441 558L330 658L200 558L137 619L342 780L517 619ZM365 189Q317 205 275 205Q184 205 178 143Q176 117 194 98T244 79T294 87T328 111Q359 142 365 189Z" />
<glyph unicode="&#xe3;" glyph-name="atilde" horiz-adv-x="529" d="M255 285Q309 285 372 267L377 313Q382 364 367 387T310 411T245 393T217 342H97Q105 425 161 462T309 500T448 454T487 309L458 0H362Q361 16 361 32T360 65Q308 -14 224 -14Q138 -14 95 33Q55
77 61 144T118 248T255 285ZM271 645Q238 645 210 595L170 624Q187 687 216 721T281 755Q305 755 334 737T375 712T399 706Q428 706 451 755L493 721Q471 638 419 604Q404 595 388 595Q366 595 332 615T289 640T271 645ZM365 189Q317 205 275 205Q184 205 178 143Q176
117 194 98T244 79T294 87T328 111Q359 142 365 189Z" />
<glyph unicode="&#xe4;" glyph-name="adieresis" horiz-adv-x="529" d="M255 285Q309 285 372 267L377 313Q382 364 367 387T310 411T245 393T217 342H97Q105 425 161 462T309 500T448 454T487 309L458 0H362Q361 16 361 32T360 65Q308 -14 224 -14Q138 -14 95
33Q55 77 61 144T118 248T255 285ZM365 189Q317 205 275 205Q184 205 178 143Q176 117 194 98T244 79T294 87T328 111Q359 142 365 189ZM209 614T193 632T179 680T202 729T250 749T295 730T310 681T286 633T237 614ZM356 681Q358 710 378 730T427 750T471 730T485
681T463 634T416 615T370 633T356 681Z" />
<glyph unicode="&#xe8;" glyph-name="egrave" horiz-adv-x="478" d="M170 213Q165 156 186 120T256 84Q285 84 307 99T337 145H448Q432 75 376 31Q320 -14 247 -14Q161 -14 108 56Q53 130 65 243Q77 362 143 432Q207 500 295 500Q386 500 430 428Q481 346 452
213H170ZM211 778L442 646L406 569L162 673L211 778ZM286 403Q243 403 215 371T178 290H361Q368 367 326 394Q310 403 286 403Z" />
<glyph unicode="&#xe9;" glyph-name="eacute" horiz-adv-x="478" d="M452 213Q457 235 461 265Q470 364 430 428Q386 500 295 500Q207 500 143 432Q77 362 65 243Q53 130 108 56Q161 -14 247 -14Q320 -14 376 31Q432 75 448 145H337Q329 114 307 99T256 84Q208
84 187 120T170 213H452ZM442 673L178 569L159 646L415 778L442 673ZM361 290H178Q187 339 215 371T287 403T348 371T361 290Z" />
<glyph unicode="&#xea;" glyph-name="ecircumflex" horiz-adv-x="478" d="M262 84Q326 84 344 145H454Q438 76 383 31Q327 -14 253 -14Q167 -14 114 56Q59 130 71 243Q83 362 149 432Q213 500 301 500Q393 500 437 428Q487 348 458 213H176Q171 156 192 120T262
84ZM494 629L417 568L307 669L177 568L114 629L318 791L494 629ZM293 403Q249 403 221 371T184 290H367Q374 368 332 394Q317 403 293 403Z" />
<glyph unicode="&#xeb;" glyph-name="edieresis" horiz-adv-x="478" d="M170 213Q165 156 186 120T256 84Q285 84 307 99T337 145H448Q432 75 376 31Q320 -14 247 -14Q161 -14 108 56Q53 130 65 243Q77 362 143 432Q207 500 295 500Q386 500 430 428Q481 346 452
213H170ZM286 403Q243 403 215 371T178 290H361Q368 367 326 394Q310 403 286 403ZM180 614T164 632T149 680T172 729T220 749T265 730T280 681T256 633T208 614ZM326 681Q328 710 348 730T397 750T441 730T455 681T433 634T386 615T340 633T326 681Z" />
<glyph unicode="&#xec;" glyph-name="igrave" horiz-adv-x="298" d="M139 488H248L202 0H93L139 488ZM118 767L349 635L313 559L69 662L118 767Z" />
<glyph unicode="&#xed;" glyph-name="iacute" horiz-adv-x="298" d="M93 0H202L248 488H139L93 0ZM349 662L85 559L66 635L322 767L349 662Z" />
<glyph unicode="&#xee;" glyph-name="icircumflex" horiz-adv-x="298" d="M139 488H248L202 0H93L139 488ZM395 619L319 558L208 658L78 558L15 619L220 780L395 619Z" />
<glyph unicode="&#xef;" glyph-name="idieresis" horiz-adv-x="298" d="M139 488H248L202 0H93L139 488ZM87 614T71 632T57 680T80 729T129 749Q158 749 174 730T188 681T165 633T116 614ZM234 681Q236 710 256 730T305 750T350 730T364 681T342 634T294 615T248
633T234 681Z" />
<glyph unicode="&#xf1;" glyph-name="ntilde" horiz-adv-x="563" d="M375 500Q281 500 228 405L224 487H129L83 0H193L213 216Q221 304 255 347T331 390T393 364T408 284L382 0H492L518 284Q531 439 445 484Q416 500 375 500ZM285 645Q253 645 225 595L184 624Q201
687 230 721T295 755Q319 755 349 737T390 712T413 706Q442 706 465 755L507 721Q485 636 434 604Q418 595 403 595T372 602T335 622Q298 645 285 645Z" />
<glyph unicode="&#xf2;" glyph-name="ograve" horiz-adv-x="511" d="M302 500Q347 500 384 485T448 437Q504 369 492 242Q481 120 411 50Q347 -14 255 -14Q160 -14 108 50Q53 119 65 242Q76 368 145 437Q208 500 302 500ZM389 319T366 356T297 394T217 357T175
243T191 130T261 92Q307 92 340 129T381 243ZM226 767L457 635L421 559L177 662L226 767Z" />
<glyph unicode="&#xf3;" glyph-name="oacute" horiz-adv-x="511" d="M302 500Q258 500 218 485T145 437Q76 368 65 242Q53 119 108 50Q160 -14 255 -14Q347 -14 411 50Q481 120 492 242Q504 369 448 437Q397 500 302 500ZM183 319T216 356T296 394T366 357T382
243T341 130T261 92Q215 92 191 129T175 243ZM458 662L194 559L174 635L430 767L458 662Z" />
<glyph unicode="&#xf4;" glyph-name="ocircumflex" horiz-adv-x="511" d="M302 500Q347 500 384 485T448 437Q504 369 492 242Q481 120 411 50Q347 -14 255 -14Q160 -14 108 50Q53 119 65 242Q76 368 145 437Q208 500 302 500ZM389 319T366 356T297 394T217 357T175
243T191 130T261 92Q307 92 340 129T381 243ZM504 619L427 558L317 658L187 558L124 619L328 780L504 619Z" />
<glyph unicode="&#xf5;" glyph-name="otilde" horiz-adv-x="511" d="M302 500Q258 500 218 485T145 437Q76 368 65 242Q53 119 108 50Q160 -14 255 -14Q348 -14 412 50Q481 120 492 242Q504 369 448 437Q397 500 302 500ZM183 319T216 356T296 394T366 357T382
243T341 130T261 92Q215 92 191 129T175 243ZM257 645Q225 645 197 595L156 624Q173 687 202 721T267 755Q291 755 321 737T362 712T385 706Q414 706 437 755L479 721Q457 636 406 604Q390 595 375 595T344 602T307 622Q270 645 257 645Z" />
<glyph unicode="&#xf6;" glyph-name="odieresis" horiz-adv-x="511" d="M302 500Q347 500 384 485T448 437Q504 369 492 242Q481 120 412 50Q348 -14 255 -14Q160 -14 108 50Q53 119 65 242Q76 368 145 437Q208 500 302 500ZM389 319T366 356T297 394T217 357T175
243T191 130T261 92Q307 92 340 129T381 243ZM196 614T180 632T165 680T188 729T237 749Q266 749 282 730T296 681T273 633T225 614ZM343 681Q345 710 365 730T413 750T458 730T473 681T450 634T402 615T356 633T343 681Z" />
<glyph unicode="&#xf9;" glyph-name="ugrave" horiz-adv-x="566" d="M381 86Q331 -9 240 -9Q123 -9 96 91Q86 126 91 177L121 488H230L201 190Q197 143 215 120T274 97T352 136T397 256L419 488H529L484 0H373L381 86ZM254 785L485 654L449 577L205 680L254 785Z" />
<glyph unicode="&#xfa;" glyph-name="uacute" horiz-adv-x="566" d="M240 -9Q331 -9 381 86L373 0H484L529 488H419L397 256Q389 176 352 137T274 97Q193 97 201 190L230 488H121L91 177Q82 82 126 34Q164 -9 240 -9ZM486 680L222 577L202 654L458 785L486 680Z" />
<glyph unicode="&#xfb;" glyph-name="ucircumflex" horiz-adv-x="566" d="M381 86Q331 -9 240 -9Q123 -9 96 91Q86 126 91 177L121 488H230L201 190Q197 143 215 120T274 97T352 136T397 256L419 488H529L484 0H373L381 86ZM532 637L455 576L345 676L215 576L152
637L356 799L532 637Z" />
<glyph unicode="&#xfc;" glyph-name="udieresis" horiz-adv-x="566" d="M381 86Q331 -9 240 -9Q123 -9 96 91Q86 126 91 177L121 488H230L201 190Q197 143 215 120T274 97T352 136T397 256L419 488H529L484 0H373L381 86ZM222 614T206 632T191 680T214 729T263
749Q292 749 308 730T323 680Q319 651 299 633T251 614ZM369 681Q371 710 391 730T440 750T485 730T499 681T476 634T428 615T383 633T369 681Z" />
<glyph unicode="&#x2013;" glyph-name="endash" horiz-adv-x="476" d="M83 356H461L450 249H73L83 356Z" />
<glyph unicode="&#x2014;" glyph-name="emdash" horiz-adv-x="695" d="M83 356H680L670 249H73L83 356Z" />
<glyph unicode="&#x2018;" glyph-name="quoteleft" horiz-adv-x="249" d="M234 418T211 397T151 375T94 407T78 486T117 580T204 655L276 607Q201 570 182 519Q207 514 223 497T237 449Z" />
<glyph unicode="&#x2019;" glyph-name="quoteright" horiz-adv-x="249" d="M108 613T131 634T190 655T248 623T264 542T224 449T138 375L67 422Q141 461 160 511Q134 516 118 534T104 582Z" />
</font>
</defs>
</svg>
